<svg width="43" height="43" viewBox="0 0 43 43" fill="none" xmlns="http://www.w3.org/2000/svg">
<path d="M19.0105 41.5V36.2232C18.6219 36.3621 18.2031 36.4378 17.7657 36.4378C15.7032 36.4378 14.0312 34.7658 14.0312 32.7033C14.0312 30.6408 15.7032 28.9689 17.7657 28.9689C18.2031 28.9689 18.6219 29.0446 19.0105 29.1834V18.7959C19.3991 18.9347 19.8179 19.0104 20.2553 19.0104C22.3178 19.0104 23.9898 17.3384 23.9898 15.2759C23.9898 13.2134 22.3178 11.5415 20.2553 11.5415C19.8179 11.5415 19.3991 11.6172 19.0105 11.756V6.47925" stroke="white" stroke-width="3" stroke-miterlimit="10"/>
<path d="M36.5207 23.9895H31.244C31.3828 24.378 31.4585 24.7969 31.4585 25.2343C31.4585 27.2968 29.7866 28.9688 27.7241 28.9688C25.6616 28.9688 23.9896 27.2968 23.9896 25.2343C23.9896 24.7969 24.0653 24.378 24.2042 23.9895H13.8166C13.9554 23.6009 14.0311 23.1821 14.0311 22.7447C14.0311 20.6822 12.3592 19.0102 10.2967 19.0102C8.23419 19.0102 6.56224 20.6822 6.56224 22.7447C6.56224 23.1821 6.63792 23.6009 6.77676 23.9895H1.5" stroke="white" stroke-width="3" stroke-miterlimit="10"/>
<path d="M36.5207 23.9896V18.7685C36.9126 18.9101 37.3237 19.0104 37.7656 19.0104C39.8281 19.0104 41.5 17.3384 41.5 15.2759C41.5 13.2134 39.8281 11.5415 37.7656 11.5415C37.3237 11.5415 36.9126 11.6417 36.5207 11.7834V6.47925H31.2166C31.3583 6.08738 31.4585 5.67635 31.4585 5.23444C31.4585 3.17195 29.7866 1.5 27.7241 1.5C25.6616 1.5 23.9896 3.17195 23.9896 5.23444C23.9896 5.67635 24.0899 6.08738 24.2315 6.47925H19.0104C9.38548 6.47925 1.5 14.3647 1.5 23.9896C1.5 33.6145 9.38548 41.5 19.0104 41.5C28.6353 41.5 36.5207 33.6145 36.5207 23.9896Z" stroke="white" stroke-width="3" stroke-miterlimit="10"/>
</svg>
