<svg width="36" height="36" viewBox="0 0 36 36" fill="none" xmlns="http://www.w3.org/2000/svg">
<mask id="mask0_1683_30094" style="mask-type:luminance" maskUnits="userSpaceOnUse" x="0" y="0" width="36" height="36">
<path d="M0 0H36V36H0V0Z" fill="white"/>
</mask>
<g mask="url(#mask0_1683_30094)">
<path d="M26.4386 18.002C26.4386 17.2216 26.2977 16.4803 26.0985 15.7625L28.1896 14.5553L26.0802 10.9017L24.0118 12.096C22.957 11.0225 21.6105 10.254 20.1104 9.86405V7.45508H15.8917V9.86405C14.3916 10.254 13.0452 11.0225 11.9903 12.096L9.92187 10.9017L7.8125 14.5553L9.90359 15.7625C9.7044 16.4803 9.56356 17.2216 9.56356 18.002C9.56356 18.7823 9.7044 19.5236 9.90359 20.2414L7.8125 21.4486L9.92187 25.1022L11.9903 23.9079C13.0452 24.9814 14.3916 25.7499 15.8917 26.1399V28.5488H20.1104V26.1399C21.6105 25.7499 22.957 24.9814 24.0118 23.9079L26.0802 25.1022L28.1896 21.4486L26.0985 20.2414C26.2977 19.5236 26.4386 18.7823 26.4386 18.002Z" stroke="white" stroke-width="2.5" stroke-miterlimit="10" stroke-linecap="round" stroke-linejoin="round"/>
<path d="M18 22.2207C15.6733 22.2207 13.7812 20.3287 13.7812 18.002C13.7812 15.6752 15.6733 13.7832 18 13.7832C20.3267 13.7832 22.2188 15.6752 22.2188 18.002C22.2188 20.3287 20.3267 22.2207 18 22.2207Z" stroke="white" stroke-width="2.5" stroke-miterlimit="10" stroke-linecap="round" stroke-linejoin="round"/>
<path d="M2.35617 24.3301C1.56241 22.375 1.05469 20.2386 1.05469 18.002C1.05469 8.69722 8.69527 1.05664 18 1.05664C23.3297 1.05664 28.3292 3.69034 31.424 7.56111" stroke="white" stroke-width="2.5" stroke-miterlimit="10" stroke-linecap="round" stroke-linejoin="round"/>
<path d="M33.6459 11.6729C34.4397 13.628 34.9474 15.7643 34.9474 18.001C34.9474 27.3057 27.3069 34.9463 18.0021 34.9463C12.6724 34.9463 7.67293 32.3126 4.57812 28.4418" stroke="white" stroke-width="2.5" stroke-miterlimit="10" stroke-linecap="round" stroke-linejoin="round"/>
<path d="M29.9324 3.08293L31.4239 7.55762L26.9492 6.06601" stroke="white" stroke-width="2.5" stroke-miterlimit="10" stroke-linecap="round" stroke-linejoin="round"/>
<path d="M9.05281 29.9339L4.57812 28.4424L6.06966 32.917" stroke="white" stroke-width="2.5" stroke-miterlimit="10" stroke-linecap="round" stroke-linejoin="round"/>
</g>
</svg>
