<svg width="32" height="32" viewBox="0 0 32 32" fill="none" xmlns="http://www.w3.org/2000/svg">
<g clip-path="url(#clip0_1683_30005)">
<path d="M23.057 2.5165C20.4153 0.369749 16.9623 -0.456501 13.5828 0.249624C9.35965 1.13206 5.91415 4.5925 5.00915 8.86056C4.24609 12.4594 5.1864 16.0726 7.58902 18.7735C8.78065 20.1131 9.4369 21.7889 9.4369 23.4971V25.3721C9.4369 26.5942 10.2207 27.6363 11.3119 28.0233V29.1846C11.3119 30.7354 12.5736 31.9971 14.1244 31.9971H17.8744C19.4252 31.9971 20.6869 30.7354 20.6869 29.1846V28.0233C21.7781 27.6363 22.5619 26.5942 22.5619 25.3721V23.4971C22.5619 21.8108 23.2376 20.1112 24.4645 18.7115C26.2604 16.6627 27.2494 14.0339 27.2494 11.3096C27.2494 7.88662 25.7213 4.68162 23.057 2.5165ZM18.8119 29.1846C18.8119 29.7015 18.3913 30.1221 17.8744 30.1221H14.1244C13.6075 30.1221 13.1869 29.7015 13.1869 29.1846V28.1846H18.8119V29.1846ZM20.6869 25.3721C20.6869 25.889 20.2663 26.3096 19.7494 26.3096H12.2494C11.7325 26.3096 11.3119 25.889 11.3119 25.3721V24.4346H20.6869V25.3721ZM15.9994 15.9144C16.6325 15.9144 17.2654 15.8131 17.8744 15.6122V22.5596H14.1244V15.6122C14.7334 15.8131 15.3663 15.9144 15.9994 15.9144ZM14.4322 13.7277L15.9994 10.5934L17.5666 13.7277C16.562 14.1411 15.4368 14.1411 14.4322 13.7277ZM23.0545 17.4756C21.751 18.9628 20.9474 20.7393 20.7403 22.5596H19.7494V14.1286C19.7494 14.1274 19.7494 14.1262 19.7494 14.1249C19.7494 13.997 19.7217 13.8561 19.6593 13.7237C19.6561 13.7168 19.6538 13.7096 19.6504 13.7029L16.8379 8.07787C16.6791 7.76025 16.3545 7.55962 15.9993 7.55962C15.6442 7.55962 15.3196 7.76025 15.1608 8.07787L12.3483 13.7029C12.2862 13.8272 12.2493 13.9785 12.2493 14.1242C12.2493 14.1259 12.2493 14.1276 12.2493 14.1292V22.5596H11.2608C11.0598 20.7267 10.2711 18.9677 8.98996 17.5274C6.98765 15.2764 6.20521 12.2592 6.8434 9.2495C7.59665 5.697 10.4591 2.81781 13.9663 2.085C16.7906 1.49487 19.673 2.18256 21.8745 3.97162C24.0988 5.77912 25.3744 8.45369 25.3744 11.3096C25.3744 13.5791 24.5505 15.7689 23.0545 17.4756Z" fill="white" stroke="white" stroke-width="0.2"/>
<path d="M2.8125 11.3096H0.9375C0.41975 11.3096 0 11.7293 0 12.2471C0 12.7648 0.41975 13.1846 0.9375 13.1846H2.8125C3.33025 13.1846 3.75 12.7648 3.75 12.2471C3.75 11.7293 3.33025 11.3096 2.8125 11.3096Z" fill="white" stroke="white" stroke-width="0.2"/>
<path d="M3.19966 6.62189L1.87384 5.29608C1.50772 4.92995 0.914156 4.92995 0.548031 5.29608C0.181906 5.6622 0.181906 6.25577 0.548031 6.62189L1.87384 7.9477C2.24003 8.31389 2.83359 8.31377 3.19966 7.9477C3.56578 7.58158 3.56578 6.98802 3.19966 6.62189Z" fill="white" stroke="white" stroke-width="0.2"/>
<path d="M3.19961 16.5461C2.83348 16.18 2.23992 16.18 1.8738 16.5461L0.547984 17.8719C0.181922 18.238 0.181922 18.8316 0.547984 19.1977C0.914047 19.5638 1.50761 19.5638 1.8738 19.1977L3.19961 17.8719C3.56567 17.5058 3.56567 16.9122 3.19961 16.5461Z" fill="white" stroke="white" stroke-width="0.2"/>
<path d="M31.0625 11.3096H29.1875C28.6697 11.3096 28.25 11.7293 28.25 12.2471C28.25 12.7648 28.6697 13.1846 29.1875 13.1846H31.0625C31.5803 13.1846 32 12.7648 32 12.2471C32 11.7293 31.5803 11.3096 31.0625 11.3096Z" fill="white" stroke="white" stroke-width="0.2"/>
<path d="M31.4497 5.29608C31.0836 4.92995 30.49 4.92995 30.1238 5.29608L28.798 6.62189C28.4319 6.98802 28.4319 7.58158 28.798 7.9477C29.1641 8.31383 29.7577 8.31383 30.1238 7.9477L31.4497 6.62189C31.8158 6.25577 31.8158 5.6622 31.4497 5.29608Z" fill="white" stroke="white" stroke-width="0.2"/>
<path d="M31.4497 17.8719L30.1239 16.5461C29.7579 16.18 29.1642 16.18 28.7981 16.5461C28.4319 16.9122 28.4319 17.5058 28.7981 17.8719L30.1239 19.1977C30.4899 19.5638 31.0836 19.5638 31.4497 19.1977C31.8158 18.8316 31.8158 18.238 31.4497 17.8719Z" fill="white" stroke="white" stroke-width="0.2"/>
</g>
<defs>
<clipPath id="clip0_1683_30005">
<rect width="32" height="32" fill="white"/>
</clipPath>
</defs>
</svg>
