<svg width="45" height="29" viewBox="0 0 45 29" fill="none" xmlns="http://www.w3.org/2000/svg">
<path fill-rule="evenodd" clip-rule="evenodd" d="M1.27246 0.30104C3.16074 0.412843 9.44333 0.895401 11.0146 2.38405C11.2181 2.57466 11.3217 2.84949 11.2979 3.12819C11.2748 3.39224 11.242 3.67127 11.2031 3.96315H18.5391C20.9025 2.09877 23.0348 1.64796 26.3418 3.12624C28.2715 3.99012 30.2046 4.75061 31.5898 5.27565C31.495 5.0728 31.4758 4.84217 31.5391 4.62526C31.6124 4.37406 31.791 4.16675 32.0293 4.05495C32.1994 3.97644 36.1922 2.13502 43.3867 2.13502C43.8926 2.13511 44.3037 2.54428 44.3037 3.05202V19.552C44.3037 20.058 43.8927 20.4689 43.3867 20.469H37.8867C37.4743 20.469 37.113 20.1939 37.0029 19.7962C36.9424 19.5769 36.8578 19.2977 36.7559 18.969L35.3037 19.9446C35.4983 20.9715 35.1457 22.002 34.3096 22.7171C33.6881 23.2505 32.9366 23.5094 32.207 23.471C31.943 24.1328 31.4109 24.6993 30.6758 25.0696C29.9242 25.4471 29.0972 25.5546 28.375 25.4007C27.9863 26.189 27.301 26.8406 26.4668 27.1633C25.761 27.4383 25.0271 27.436 24.3818 27.1848C23.8998 27.5898 23.2053 27.7971 22.3018 27.7971C21.1761 27.7971 19.7216 27.1744 19.0469 26.7307C18.2293 26.1936 14.1266 23.1075 10.7129 20.2493C10.1445 19.7726 9.29913 18.8887 8.48145 18.0344C8.24167 17.7845 8.00992 17.5434 7.80078 17.3274C7.68072 17.7053 7.60747 17.9432 7.58887 18.0003C7.46604 18.3779 7.11375 18.6321 6.71777 18.6321H1.21777C0.711839 18.6321 0.30089 18.222 0.300781 17.7161V1.21608C0.300781 0.963078 0.405476 0.720415 0.588867 0.54811C0.772082 0.374084 1.01235 0.288319 1.27246 0.30104ZM10.8984 5.79713C10.2893 8.95095 9.17922 12.8243 8.41309 15.3528C8.74937 15.6683 9.25939 16.1945 9.80664 16.7659C10.5546 17.5468 11.4021 18.4305 11.8916 18.843C15.3767 21.7617 19.4122 24.7721 20.0557 25.1956C20.5927 25.5512 21.6902 25.9639 22.3008 25.9641C22.476 25.9641 22.6189 25.9522 22.7354 25.9368C21.3485 24.6298 19.5003 22.6722 18.8809 22.009C18.5363 21.6388 18.5548 21.0597 18.9248 20.7132C19.2933 20.3666 19.8752 20.3868 20.2217 20.7571C20.7445 21.3166 23.4132 24.1568 24.7217 25.261C24.7324 25.2698 24.7436 25.278 24.7539 25.2874C25.1187 25.6211 25.5261 25.5568 25.8066 25.4505C26.2486 25.2789 26.6103 24.9033 26.7832 24.469C25.2617 23.1049 22.582 20.2133 22.5459 20.1751C22.2031 19.8029 22.2285 19.222 22.6006 18.8792C22.9745 18.5382 23.5518 18.56 23.8965 18.9339C24.5181 19.6102 27.2637 22.527 28.3682 23.4143C28.3877 23.4297 28.4083 23.4441 28.4268 23.4612C28.6559 23.6739 29.2679 23.7258 29.8545 23.429C30.0415 23.3355 30.4263 23.0984 30.5332 22.7024C29.1553 21.4452 25.7362 17.8825 25.3115 17.4397C24.9614 17.0748 24.9722 16.494 25.3389 16.1438C25.7037 15.792 26.2846 15.8047 26.6348 16.1712C28.4142 18.0261 31.2712 20.9499 32.001 21.551C32.273 21.729 32.7604 21.6288 33.1182 21.3215C33.3656 21.1107 33.7303 20.6508 33.3916 19.9456C32.7041 18.5156 29.6472 16.0434 26.9521 13.8635C25.4619 12.6592 24.0466 11.5139 22.998 10.5296C22.7305 10.6377 22.5287 10.727 22.3564 10.804C21.8798 11.0185 21.5625 11.1507 20.9795 11.2405C19.5678 13.1141 17.6719 13.7709 15.5947 13.0852C14.7662 12.8121 14.2093 12.2249 14.0205 11.4329C13.5824 9.57993 15.2691 7.05665 16.5215 5.79713H10.8984ZM42.4697 3.97975C38.1086 4.08238 35.104 4.89849 33.7051 5.37331C35.1368 8.42392 37.7032 15.8041 38.5723 18.635H42.4697V3.97975ZM25.5918 4.80202C22.3471 3.35205 20.8109 4.09775 17.832 7.07838C16.5802 8.33034 15.6137 10.204 15.8057 11.009C15.8332 11.1264 15.8849 11.2497 16.1709 11.345C17.0674 11.6456 18.409 11.81 19.7051 9.87233C19.8572 9.64523 20.103 9.49856 20.376 9.47096C20.9938 9.40866 21.1483 9.33929 21.6064 9.13405C21.907 9.00025 22.2885 8.82746 22.9062 8.60377C23.238 8.48458 23.614 8.56564 23.8652 8.81862C24.868 9.82141 26.4408 11.094 28.1055 12.4397C30.6318 14.4834 33.2302 16.5897 34.4932 18.2796L36.168 17.1546C35.2258 14.3289 33.7688 10.2555 32.6924 7.63991C31.7307 7.29553 28.6583 6.17338 25.5918 4.80202ZM2.13477 16.7991H6.04883C6.73092 14.6464 8.92925 7.51317 9.41504 3.49831C8.26009 2.93733 5.08086 2.43132 2.13477 2.1985V16.7991Z" fill="white"/>
<path d="M1.27246 0.30104L1.29019 0.0015485L1.28712 0.00139797L1.27246 0.30104ZM11.0146 2.38405L10.8083 2.60184L10.8096 2.603L11.0146 2.38405ZM11.2979 3.12819L11.5967 3.15428L11.5968 3.15381L11.2979 3.12819ZM11.2031 3.96315L10.9058 3.92351L10.8605 4.26315H11.2031V3.96315ZM18.5391 3.96315V4.26315H18.6431L18.7249 4.19868L18.5391 3.96315ZM26.3418 3.12624L26.4644 2.85242L26.4642 2.85235L26.3418 3.12624ZM31.5898 5.27565L31.4835 5.55618L32.1747 5.81813L31.8616 5.14858L31.5898 5.27565ZM31.5391 4.62526L31.2511 4.54122L31.2511 4.54129L31.5391 4.62526ZM32.0293 4.05495L31.9036 3.78256L31.9019 3.78335L32.0293 4.05495ZM43.3867 2.13502L43.3868 1.83502H43.3867V2.13502ZM44.3037 3.05202H44.6037V3.052L44.3037 3.05202ZM43.3867 20.469V20.769H43.3868L43.3867 20.469ZM37.0029 19.7962L36.7137 19.876L36.7138 19.8762L37.0029 19.7962ZM36.7559 18.969L37.0424 18.8801L36.923 18.4953L36.5886 18.72L36.7559 18.969ZM35.3037 19.9446L35.1364 19.6956L34.9721 19.806L35.009 20.0005L35.3037 19.9446ZM34.3096 22.7171L34.1146 22.4891L34.1142 22.4894L34.3096 22.7171ZM32.207 23.471L32.2228 23.1714L32.0081 23.1601L31.9284 23.3598L32.207 23.471ZM30.6758 25.0696L30.8104 25.3377L30.8107 25.3375L30.6758 25.0696ZM28.375 25.4007L28.4376 25.1072L28.2092 25.0586L28.1059 25.268L28.375 25.4007ZM26.4668 27.1633L26.3586 26.8835L26.3579 26.8838L26.4668 27.1633ZM24.3818 27.1848L24.4907 26.9053L24.325 26.8408L24.1889 26.9551L24.3818 27.1848ZM22.3018 27.7971V28.0971H22.3018L22.3018 27.7971ZM19.0469 26.7307L19.2117 26.4801L19.2116 26.48L19.0469 26.7307ZM10.7129 20.2493L10.5201 20.4791L10.5203 20.4793L10.7129 20.2493ZM8.48145 18.0344L8.69817 17.827L8.69793 17.8267L8.48145 18.0344ZM7.80078 17.3274L8.01631 17.1187L7.66696 16.7579L7.51487 17.2366L7.80078 17.3274ZM7.58887 18.0003L7.30362 17.9073L7.30358 17.9075L7.58887 18.0003ZM0.300781 17.7161H0.000781238V17.7161L0.300781 17.7161ZM0.588867 0.54811L0.794291 0.766751L0.795474 0.765627L0.588867 0.54811ZM10.8984 5.79713V5.49713H10.6508L10.6039 5.74024L10.8984 5.79713ZM8.41309 15.3528L8.12598 15.2658L8.07195 15.4441L8.20782 15.5716L8.41309 15.3528ZM9.80664 16.7659L9.58998 16.9734L9.58998 16.9734L9.80664 16.7659ZM11.8916 18.843L11.6983 19.0724L11.699 19.073L11.8916 18.843ZM20.0557 25.1956L20.2213 24.9454L20.2206 24.945L20.0557 25.1956ZM22.3008 25.9641L22.3007 26.2641H22.3008V25.9641ZM22.7354 25.9368L22.7746 26.2342L23.4006 26.1515L22.9411 25.7185L22.7354 25.9368ZM18.8809 22.009L18.6612 22.2134L18.6616 22.2138L18.8809 22.009ZM18.9248 20.7132L19.1299 20.9321L19.1303 20.9317L18.9248 20.7132ZM20.2217 20.7571L20.4409 20.5523L20.4407 20.5521L20.2217 20.7571ZM24.7217 25.261L24.5282 25.4903L24.531 25.4926L24.7217 25.261ZM24.7539 25.2874L24.9564 25.066L24.9549 25.0647L24.7539 25.2874ZM25.8066 25.4505L25.913 25.731L25.9152 25.7301L25.8066 25.4505ZM26.7832 24.469L27.0619 24.58L27.1394 24.3854L26.9835 24.2456L26.7832 24.469ZM22.5459 20.1751L22.3252 20.3783L22.3278 20.381L22.5459 20.1751ZM22.6006 18.8792L22.3985 18.6575L22.3973 18.6585L22.6006 18.8792ZM23.8965 18.9339L24.1174 18.7309L24.117 18.7305L23.8965 18.9339ZM28.3682 23.4143L28.1803 23.6482L28.1827 23.6501L28.3682 23.4143ZM28.4268 23.4612L28.2227 23.6811L28.2227 23.6811L28.4268 23.4612ZM29.8545 23.429L29.7203 23.1606L29.719 23.1613L29.8545 23.429ZM30.5332 22.7024L30.8228 22.7806L30.8705 22.6041L30.7354 22.4808L30.5332 22.7024ZM25.3115 17.4397L25.528 17.2321L25.528 17.232L25.3115 17.4397ZM25.3389 16.1438L25.5461 16.3608L25.5471 16.3598L25.3389 16.1438ZM26.6348 16.1712L26.4179 16.3784L26.4183 16.3788L26.6348 16.1712ZM32.001 21.551L31.8102 21.7826L31.8229 21.7931L31.8367 21.8021L32.001 21.551ZM33.1182 21.3215L32.9236 21.0932L32.9227 21.0939L33.1182 21.3215ZM33.3916 19.9456L33.662 19.8157L33.662 19.8156L33.3916 19.9456ZM26.9521 13.8635L27.1408 13.6303L27.1407 13.6302L26.9521 13.8635ZM22.998 10.5296L23.2034 10.3108L23.0635 10.1795L22.8856 10.2514L22.998 10.5296ZM22.3564 10.804L22.234 10.5301L22.2333 10.5304L22.3564 10.804ZM20.9795 11.2405L20.9338 10.944L20.8133 10.9626L20.7399 11.06L20.9795 11.2405ZM15.5947 13.0852L15.6888 12.8003L15.6886 12.8003L15.5947 13.0852ZM14.0205 11.4329L13.7286 11.5019L13.7287 11.5024L14.0205 11.4329ZM16.5215 5.79713L16.7342 6.00867L17.2429 5.49713H16.5215V5.79713ZM42.4697 3.97975H42.7697V3.67261L42.4627 3.67983L42.4697 3.97975ZM33.7051 5.37331L33.6087 5.08922L33.291 5.19705L33.4335 5.50077L33.7051 5.37331ZM38.5723 18.635L38.2855 18.7231L38.3505 18.935H38.5723V18.635ZM42.4697 18.635V18.935H42.7697V18.635H42.4697ZM25.5918 4.80202L25.7143 4.52815L25.7142 4.52812L25.5918 4.80202ZM17.832 7.07838L18.0442 7.29051L18.0442 7.29045L17.832 7.07838ZM15.8057 11.009L16.0977 10.9406L16.0975 10.9394L15.8057 11.009ZM16.1709 11.345L16.2663 11.0605L16.2657 11.0604L16.1709 11.345ZM19.7051 9.87233L19.4558 9.70537L19.4557 9.70553L19.7051 9.87233ZM20.376 9.47096L20.3459 9.17247L20.3458 9.17248L20.376 9.47096ZM21.6064 9.13405L21.4845 8.85997L21.4838 8.86026L21.6064 9.13405ZM22.9062 8.60377L22.8048 8.32144L22.8041 8.3217L22.9062 8.60377ZM23.8652 8.81862L23.6524 9.03L23.6531 9.03075L23.8652 8.81862ZM28.1055 12.4397L28.2942 12.2065L28.2941 12.2064L28.1055 12.4397ZM34.4932 18.2796L34.2529 18.4592L34.4236 18.6877L34.6604 18.5286L34.4932 18.2796ZM36.168 17.1546L36.3353 17.4036L36.5248 17.2763L36.4526 17.0597L36.168 17.1546ZM32.6924 7.63991L32.9698 7.52574L32.9191 7.40243L32.7935 7.35747L32.6924 7.63991ZM2.13477 16.7991H1.83477V17.0991H2.13477V16.7991ZM6.04883 16.7991V17.0991H6.26847L6.33482 16.8897L6.04883 16.7991ZM9.41504 3.49831L9.71287 3.53434L9.73857 3.32193L9.54611 3.22845L9.41504 3.49831ZM2.13477 2.1985L2.1584 1.89943L1.83477 1.87386V2.1985H2.13477ZM1.27246 0.30104L1.25473 0.600515C2.19502 0.656189 4.22633 0.80407 6.21499 1.12246C7.20976 1.28172 8.18643 1.4825 9.00746 1.7332C9.83991 1.98738 10.4692 2.28055 10.8083 2.60183L11.0146 2.38405L11.221 2.16626C10.7744 1.74322 10.0292 1.41783 9.18268 1.15936C8.32478 0.897399 7.31817 0.691433 6.30984 0.53C4.29231 0.206993 2.23819 0.0576941 1.29019 0.00156429L1.27246 0.30104ZM11.0146 2.38405L10.8096 2.603C10.9448 2.72971 11.0151 2.91391 10.9989 3.10257L11.2979 3.12819L11.5968 3.15381C11.6284 2.78508 11.4915 2.41961 11.2197 2.16509L11.0146 2.38405ZM11.2979 3.12819L10.999 3.1021C10.9765 3.36012 10.9443 3.63433 10.9058 3.92351L11.2031 3.96315L11.5005 4.00279C11.5398 3.7082 11.5731 3.42437 11.5967 3.15428L11.2979 3.12819ZM11.2031 3.96315V4.26315H18.5391V3.96315V3.66315H11.2031V3.96315ZM18.5391 3.96315L18.7249 4.19868C19.882 3.2859 20.9559 2.74025 22.1251 2.58871C23.2947 2.43712 24.5973 2.67504 26.2194 3.40012L26.3418 3.12624L26.4642 2.85235C24.7793 2.09916 23.3622 1.82335 22.048 1.99369C20.7334 2.16407 19.5596 2.77602 18.3533 3.72761L18.5391 3.96315ZM26.3418 3.12624L26.2192 3.40005C28.1564 4.26729 30.0955 5.0301 31.4835 5.55618L31.5898 5.27565L31.6962 4.99512C30.3136 4.47111 28.3866 3.71295 26.4644 2.85242L26.3418 3.12624ZM31.5898 5.27565L31.8616 5.14858C31.7972 5.01084 31.7845 4.85517 31.8271 4.70923L31.5391 4.62526L31.2511 4.54129C31.1671 4.82916 31.1928 5.13476 31.3181 5.40272L31.5898 5.27565ZM31.5391 4.62526L31.8271 4.7093C31.8759 4.54174 31.9954 4.4022 32.1567 4.32654L32.0293 4.05495L31.9019 3.78335C31.5865 3.9313 31.3488 4.20638 31.2511 4.54122L31.5391 4.62526ZM32.0293 4.05495L32.155 4.32733C32.2951 4.26266 36.2449 2.43502 43.3867 2.43502V2.13502V1.83502C36.1394 1.83502 32.1036 3.69022 31.9036 3.78257L32.0293 4.05495ZM43.3867 2.13502L43.3867 2.43502C43.7274 2.43508 44.0037 2.71039 44.0037 3.05203L44.3037 3.05202L44.6037 3.052C44.6037 2.37818 44.0579 1.83513 43.3868 1.83502L43.3867 2.13502ZM44.3037 3.05202H44.0037V19.552H44.3037H44.6037V3.05202H44.3037ZM44.3037 19.552H44.0037C44.0037 19.8922 43.727 20.169 43.3867 20.169L43.3867 20.469L43.3868 20.769C44.0583 20.7689 44.6037 20.2237 44.6037 19.552H44.3037ZM43.3867 20.469V20.169H37.8867V20.469V20.769H43.3867V20.469ZM37.8867 20.469V20.169C37.6093 20.169 37.3662 19.984 37.2921 19.7162L37.0029 19.7962L36.7138 19.8762C36.8598 20.4037 37.3392 20.769 37.8867 20.769V20.469ZM37.0029 19.7962L37.2921 19.7164C37.2302 19.4921 37.1444 19.2089 37.0424 18.8801L36.7559 18.969L36.4693 19.0579C36.5712 19.3864 36.6546 19.6617 36.7137 19.876L37.0029 19.7962ZM36.7559 18.969L36.5886 18.72L35.1364 19.6956L35.3037 19.9446L35.471 20.1936L36.9232 19.218L36.7559 18.969ZM35.3037 19.9446L35.009 20.0005C35.1833 20.9207 34.8698 21.8432 34.1146 22.4891L34.3096 22.7171L34.5046 22.945C35.4215 22.1608 35.8133 21.0224 35.5985 19.8887L35.3037 19.9446ZM34.3096 22.7171L34.1142 22.4894C33.5471 22.9762 32.8701 23.2055 32.2228 23.1714L32.207 23.471L32.1913 23.7705C33.0032 23.8133 33.8292 23.5248 34.505 22.9447L34.3096 22.7171ZM32.207 23.471L31.9284 23.3598C31.6945 23.946 31.2181 24.4605 30.5408 24.8017L30.6758 25.0696L30.8107 25.3375C31.6037 24.9381 32.1915 24.3195 32.4857 23.5821L32.207 23.471ZM30.6758 25.0696L30.5411 24.8015C29.8461 25.1506 29.0883 25.246 28.4376 25.1072L28.375 25.4007L28.3124 25.6941C29.1061 25.8633 30.0024 25.7435 30.8104 25.3377L30.6758 25.0696ZM28.375 25.4007L28.1059 25.268C27.7488 25.9922 27.1191 26.5893 26.3586 26.8835L26.4668 27.1633L26.575 27.4431C27.4829 27.092 28.2238 26.3857 28.6441 25.5333L28.375 25.4007ZM26.4668 27.1633L26.3579 26.8838C25.7194 27.1326 25.0633 27.1282 24.4907 26.9053L24.3818 27.1848L24.273 27.4644C24.991 27.7439 25.8026 27.7441 26.5757 27.4429L26.4668 27.1633ZM24.3818 27.1848L24.1889 26.9551C23.7794 27.2991 23.1634 27.4971 22.3017 27.4971L22.3018 27.7971L22.3018 28.0971C23.2472 28.0971 24.0202 27.8805 24.5748 27.4145L24.3818 27.1848ZM22.3018 27.7971V27.4971C21.7874 27.4971 21.1791 27.3533 20.6065 27.1479C20.0357 26.9432 19.5256 26.6865 19.2117 26.4801L19.0469 26.7307L18.882 26.9814C19.2428 27.2186 19.7973 27.4951 20.4039 27.7127C21.0087 27.9296 21.6905 28.0971 22.3018 28.0971V27.7971ZM19.0469 26.7307L19.2116 26.48C18.4084 25.9524 14.3161 22.8749 10.9055 20.0193L10.7129 20.2493L10.5203 20.4793C13.9371 23.3401 18.0501 26.4349 18.8822 26.9815L19.0469 26.7307ZM10.7129 20.2493L10.9057 20.0194C10.3531 19.556 9.5217 18.6874 8.69817 17.827L8.48145 18.0344L8.26472 18.2419C9.07656 19.0901 9.93588 19.9892 10.5201 20.4791L10.7129 20.2493ZM8.48145 18.0344L8.69793 17.8267C8.45807 17.5767 8.22594 17.3352 8.01631 17.1187L7.80078 17.3274L7.58525 17.5361C7.79389 17.7516 8.02526 17.9923 8.26496 18.2421L8.48145 18.0344ZM7.80078 17.3274L7.51487 17.2366C7.39305 17.62 7.32208 17.8507 7.30362 17.9073L7.58887 18.0003L7.87411 18.0932C7.89286 18.0356 7.96839 17.7906 8.08669 17.4183L7.80078 17.3274ZM7.58887 18.0003L7.30358 17.9075C7.22115 18.1609 6.98449 18.3321 6.71777 18.3321V18.6321V18.9321C7.24301 18.9321 7.71093 18.5949 7.87416 18.093L7.58887 18.0003ZM6.71777 18.6321V18.3321H1.21777V18.6321V18.9321H6.71777V18.6321ZM1.21777 18.6321V18.3321C0.877172 18.3321 0.600854 18.0559 0.600781 17.716L0.300781 17.7161L0.000781238 17.7161C0.000925809 18.388 0.546506 18.9321 1.21777 18.9321V18.6321ZM0.300781 17.7161H0.600781V1.21608H0.300781H0.000781238V17.7161H0.300781ZM0.300781 1.21608H0.600781C0.600781 1.04542 0.671583 0.882035 0.794288 0.766748L0.588867 0.54811L0.383446 0.329473C0.139369 0.558796 0.000781238 0.880731 0.000781238 1.21608H0.300781ZM0.588867 0.54811L0.795474 0.765627C0.916255 0.650904 1.07534 0.591758 1.25781 0.600682L1.27246 0.30104L1.28712 0.00139797C0.949349 -0.015121 0.62791 0.0972636 0.38226 0.330594L0.588867 0.54811ZM10.8984 5.79713L10.6039 5.74024C9.99788 8.87778 8.89174 12.7385 8.12598 15.2658L8.41309 15.3528L8.7002 15.4398C9.4667 12.9101 10.5807 9.02412 11.193 5.85403L10.8984 5.79713ZM8.41309 15.3528L8.20782 15.5716C8.53713 15.8806 9.04136 16.4005 9.58998 16.9734L9.80664 16.7659L10.0233 16.5584C9.47742 15.9884 8.96161 15.4561 8.61836 15.134L8.41309 15.3528ZM9.80664 16.7659L9.58998 16.9734C10.3317 17.7478 11.1932 18.6468 11.6983 19.0724L11.8916 18.843L12.0849 18.6136C11.6109 18.2142 10.7775 17.3458 10.0233 16.5584L9.80664 16.7659ZM11.8916 18.843L11.699 19.073C15.1877 21.9948 19.2333 25.0135 19.8907 25.4462L20.0557 25.1956L20.2206 24.945C19.5911 24.5307 15.5657 21.5287 12.0842 18.613L11.8916 18.843ZM20.0557 25.1956L19.89 25.4457C20.1855 25.6414 20.6185 25.8432 21.0507 25.996C21.4782 26.1471 21.9438 26.264 22.3007 26.2641L22.3008 25.9641L22.3009 25.6641C22.0472 25.664 21.6587 25.5745 21.2506 25.4303C20.8471 25.2877 20.4628 25.1053 20.2213 24.9454L20.0557 25.1956ZM22.3008 25.9641V26.2641C22.49 26.2641 22.646 26.2512 22.7746 26.2342L22.7354 25.9368L22.6961 25.6394C22.5917 25.6532 22.4619 25.6641 22.3008 25.6641V25.9641ZM22.7354 25.9368L22.9411 25.7185C21.562 24.4187 19.7196 22.4676 19.1001 21.8043L18.8809 22.009L18.6616 22.2138C19.2809 22.8769 21.135 24.8408 22.5296 26.1551L22.7354 25.9368ZM18.8809 22.009L19.1005 21.8047C18.8681 21.555 18.881 21.1652 19.1299 20.9321L18.9248 20.7132L18.7197 20.4942C18.2286 20.9541 18.2045 21.7225 18.6612 22.2134L18.8809 22.009ZM18.9248 20.7132L19.1303 20.9317C19.377 20.6997 19.7687 20.7121 20.0026 20.9621L20.2217 20.7571L20.4407 20.5521C19.9817 20.0615 19.2096 20.0336 18.7193 20.4946L18.9248 20.7132ZM20.2217 20.7571L20.0025 20.9619C20.52 21.5157 23.2029 24.3719 24.5282 25.4903L24.7217 25.261L24.9152 25.0317C23.6236 23.9418 20.9691 21.1176 20.4409 20.5523L20.2217 20.7571ZM24.7217 25.261L24.531 25.4926C24.5357 25.4964 24.54 25.4999 24.5432 25.5025C24.5448 25.5037 24.5464 25.505 24.5477 25.506C24.549 25.507 24.55 25.5079 24.551 25.5086C24.5551 25.5119 24.5547 25.5117 24.5529 25.5101L24.7539 25.2874L24.9549 25.0647C24.9428 25.0537 24.9316 25.0447 24.9249 25.0394C24.9158 25.0322 24.9153 25.0318 24.9124 25.0294L24.7217 25.261ZM24.7539 25.2874L24.5514 25.5087C25.0377 25.9535 25.5852 25.8552 25.913 25.731L25.8066 25.4505L25.7003 25.1699C25.467 25.2583 25.1997 25.2886 24.9564 25.066L24.7539 25.2874ZM25.8066 25.4505L25.9152 25.7301C26.4394 25.5267 26.86 25.087 27.0619 24.58L26.7832 24.469L26.5045 24.358C26.3605 24.7195 26.0578 25.0312 25.6981 25.1708L25.8066 25.4505ZM26.7832 24.469L26.9835 24.2456C25.474 22.8923 22.8066 20.0142 22.764 19.9691L22.5459 20.1751L22.3278 20.381C22.3275 20.3808 22.328 20.3813 22.3301 20.3835C22.3318 20.3854 22.3342 20.388 22.3373 20.3913C22.3434 20.3978 22.3522 20.4073 22.3631 20.419C22.3852 20.4427 22.4167 20.4765 22.4566 20.5193C22.5365 20.6049 22.6504 20.7266 22.7907 20.8758C23.0714 21.1742 23.4581 21.5828 23.8914 22.0329C24.756 22.931 25.8131 24.0022 26.5829 24.6924L26.7832 24.469ZM22.5459 20.1751L22.7666 19.9718C22.5366 19.7222 22.5529 19.331 22.8039 19.0998L22.6006 18.8792L22.3973 18.6585C21.904 19.113 21.8696 19.8836 22.3252 20.3783L22.5459 20.1751ZM22.6006 18.8792L22.8027 19.1009C23.0557 18.8701 23.444 18.8858 23.6759 19.1372L23.8965 18.9339L24.117 18.7305C23.6595 18.2343 22.8933 18.2063 22.3985 18.6575L22.6006 18.8792ZM23.8965 18.9339L23.6756 19.1369C24.2913 19.8068 27.0541 22.7435 28.1803 23.6482L28.3682 23.4143L28.5561 23.1804C27.4733 22.3106 24.7449 19.4136 24.1174 18.7309L23.8965 18.9339ZM28.3682 23.4143L28.1827 23.6501C28.1897 23.6556 28.1963 23.6607 28.2014 23.6645C28.2071 23.6688 28.2107 23.6716 28.2143 23.6744C28.2215 23.6799 28.2231 23.6815 28.2227 23.6811L28.4268 23.4612L28.6309 23.2413C28.6007 23.2133 28.5549 23.1795 28.5536 23.1785L28.3682 23.4143ZM28.4268 23.4612L28.2227 23.6811C28.4152 23.8598 28.7133 23.9333 29.0037 23.9361C29.3068 23.939 29.6539 23.8667 29.9899 23.6967L29.8545 23.429L29.719 23.1613C29.4685 23.2881 29.2163 23.3381 29.0095 23.3361C28.79 23.334 28.6675 23.2753 28.6308 23.2413L28.4268 23.4612ZM29.8545 23.429L29.9887 23.6973C30.097 23.6431 30.2655 23.5462 30.4253 23.4014C30.5846 23.2571 30.7495 23.052 30.8228 22.7806L30.5332 22.7024L30.2436 22.6242C30.2099 22.7488 30.129 22.8602 30.0224 22.9568C29.9163 23.0529 29.7989 23.1213 29.7203 23.1606L29.8545 23.429ZM30.5332 22.7024L30.7354 22.4808C29.3669 21.2321 25.9567 17.679 25.528 17.2321L25.3115 17.4397L25.095 17.6474C25.5158 18.0861 28.9437 21.6582 30.331 22.924L30.5332 22.7024ZM25.3115 17.4397L25.528 17.232C25.2922 16.9862 25.3 16.5957 25.5461 16.3608L25.3389 16.1438L25.1317 15.9269C24.6444 16.3922 24.6306 17.1634 25.0951 17.6474L25.3115 17.4397ZM25.3389 16.1438L25.5471 16.3598C25.7919 16.1237 26.1822 16.1318 26.4179 16.3784L26.6348 16.1712L26.8517 15.9639C26.387 15.4776 25.6155 15.4604 25.1306 15.9279L25.3389 16.1438ZM26.6348 16.1712L26.4183 16.3788C27.3088 17.3071 28.469 18.503 29.4983 19.5424C30.5214 20.5754 31.4307 21.47 31.8102 21.7826L32.001 21.551L32.1917 21.3195C31.8414 21.0309 30.9574 20.163 29.9247 19.1202C28.8981 18.0836 27.7402 16.8901 26.8513 15.9635L26.6348 16.1712ZM32.001 21.551L31.8367 21.8021C32.0616 21.9492 32.3408 21.9629 32.5878 21.9121C32.8403 21.8602 33.0977 21.7346 33.3136 21.5492L33.1182 21.3215L32.9227 21.0939C32.7809 21.2157 32.6156 21.2938 32.467 21.3244C32.3129 21.3561 32.2124 21.3309 32.1653 21.3L32.001 21.551ZM33.1182 21.3215L33.3128 21.5499C33.4598 21.4246 33.6546 21.2152 33.758 20.9174C33.8651 20.6094 33.864 20.2362 33.662 19.8157L33.3916 19.9456L33.1212 20.0754C33.2579 20.3602 33.2438 20.5695 33.1913 20.7204C33.1353 20.8817 33.024 21.0076 32.9236 21.0932L33.1182 21.3215ZM33.3916 19.9456L33.662 19.8156C33.4709 19.4182 33.1273 18.9697 32.6962 18.4965C32.2615 18.0194 31.7227 17.5008 31.1255 16.9628C29.9313 15.8872 28.4867 14.7189 27.1408 13.6303L26.9521 13.8635L26.7635 14.0968C28.1126 15.188 29.5439 16.3457 30.7239 17.4086C31.3137 17.9399 31.8365 18.4438 32.2526 18.9005C32.6722 19.3611 32.9685 19.758 33.1212 20.0756L33.3916 19.9456ZM26.9521 13.8635L27.1407 13.6302C25.6476 12.4236 24.2421 11.2859 23.2034 10.3108L22.998 10.5296L22.7927 10.7483C23.8512 11.7419 25.2762 12.8949 26.7636 14.0969L26.9521 13.8635ZM22.998 10.5296L22.8856 10.2514C22.6131 10.3616 22.4075 10.4525 22.234 10.5301L22.3564 10.804L22.4788 11.0779C22.6499 11.0014 22.8479 10.9138 23.1105 10.8077L22.998 10.5296ZM22.3564 10.804L22.2333 10.5304C21.7664 10.7405 21.4776 10.8602 20.9338 10.944L20.9795 11.2405L21.0252 11.537C21.6473 11.4412 21.9933 11.2964 22.4796 11.0775L22.3564 10.804ZM20.9795 11.2405L20.7399 11.06C20.0628 11.9586 19.2822 12.5492 18.4392 12.8389C17.5979 13.1279 16.6723 13.125 15.6888 12.8003L15.5947 13.0852L15.5007 13.3701C16.5944 13.7311 17.6553 13.7426 18.6342 13.4063C19.6113 13.0706 20.4845 12.396 21.2191 11.421L20.9795 11.2405ZM15.5947 13.0852L15.6886 12.8003C14.9513 12.5572 14.4752 12.0464 14.3123 11.3633L14.0205 11.4329L13.7287 11.5024C13.9434 12.4033 14.581 13.067 15.5008 13.3701L15.5947 13.0852ZM14.0205 11.4329L14.3125 11.3638C14.1183 10.5426 14.391 9.5288 14.9039 8.52946C15.4118 7.54004 16.1273 6.61901 16.7342 6.00867L16.5215 5.79713L16.3088 5.5856C15.6632 6.23477 14.9092 7.20515 14.3702 8.25548C13.8362 9.29589 13.4846 10.4702 13.7286 11.5019L14.0205 11.4329ZM16.5215 5.79713V5.49713H10.8984V5.79713V6.09713H16.5215V5.79713ZM42.4697 3.97975L42.4627 3.67983C38.0671 3.78327 35.0323 4.60601 33.6087 5.08922L33.7051 5.37331L33.8015 5.65739C35.1756 5.19098 38.1501 4.38148 42.4768 4.27967L42.4697 3.97975ZM33.7051 5.37331L33.4335 5.50077C34.856 8.53171 37.4174 15.8955 38.2855 18.7231L38.5723 18.635L38.8591 18.547C37.9889 15.7126 35.4176 8.31614 33.9767 5.24585L33.7051 5.37331ZM38.5723 18.635V18.935H42.4697V18.635V18.335H38.5723V18.635ZM42.4697 18.635H42.7697V3.97975H42.4697H42.1697V18.635H42.4697ZM25.5918 4.80202L25.7142 4.52812C24.0592 3.78854 22.7818 3.58306 21.5195 3.99342C20.2816 4.39587 19.1077 5.37757 17.6198 6.86631L17.832 7.07838L18.0442 7.29045C19.5352 5.79856 20.6189 4.9171 21.705 4.56403C22.7667 4.21887 23.8797 4.36552 25.4694 5.07591L25.5918 4.80202ZM17.832 7.07838L17.6199 6.86626C16.9708 7.51535 16.3983 8.32227 16.0108 9.07381C15.8169 9.4498 15.6657 9.81883 15.5756 10.1532C15.4873 10.4805 15.4488 10.8058 15.5138 11.0786L15.8057 11.009L16.0975 10.9394C16.0665 10.8097 16.0768 10.599 16.1549 10.3094C16.2311 10.0269 16.3638 9.69834 16.544 9.34879C16.9047 8.64925 17.4413 7.89338 18.0442 7.29051L17.832 7.07838ZM15.8057 11.009L15.5136 11.0775C15.5322 11.1569 15.5673 11.2746 15.6692 11.3869C15.7675 11.4951 15.9036 11.5721 16.0761 11.6296L16.1709 11.345L16.2657 11.0604C16.1522 11.0225 16.1195 10.9902 16.1135 10.9836C16.1112 10.9811 16.1066 10.9785 16.0977 10.9406L15.8057 11.009ZM16.1709 11.345L16.0755 11.6294C16.5489 11.7881 17.1746 11.9232 17.8659 11.7378C18.5623 11.5509 19.2768 11.0523 19.9544 10.0391L19.7051 9.87233L19.4557 9.70553C18.8373 10.6301 18.2329 11.0181 17.7104 11.1583C17.1827 11.2998 16.6894 11.2024 16.2663 11.0605L16.1709 11.345ZM19.7051 9.87233L19.9543 10.0393C20.0562 9.88717 20.2213 9.78813 20.4062 9.76944L20.376 9.47096L20.3458 9.17248C19.9847 9.209 19.6582 9.40328 19.4558 9.70537L19.7051 9.87233ZM20.376 9.47096L20.4061 9.76945C20.7224 9.73755 20.9365 9.70236 21.1355 9.64398C21.3319 9.58638 21.5043 9.50852 21.7291 9.40783L21.6064 9.13405L21.4838 8.86026C21.2504 8.96482 21.1165 9.02427 20.9666 9.06824C20.8194 9.11143 20.6474 9.14207 20.3459 9.17247L20.376 9.47096ZM21.6064 9.13405L21.7284 9.40812C22.0281 9.27472 22.4013 9.10566 23.0084 8.88585L22.9062 8.60377L22.8041 8.3217C22.1756 8.54926 21.786 8.72577 21.4845 8.85997L21.6064 9.13405ZM22.9062 8.60377L23.0077 8.88611C23.2316 8.80569 23.4846 8.86101 23.6524 9.03L23.8652 8.81862L24.0781 8.60723C23.7435 8.27027 23.2445 8.16348 22.8048 8.32144L22.9062 8.60377ZM23.8652 8.81862L23.6531 9.03075C24.6698 10.0474 26.2574 11.3315 27.9169 12.673L28.1055 12.4397L28.2941 12.2064C26.6242 10.8565 25.0663 9.5954 24.0774 8.60649L23.8652 8.81862ZM28.1055 12.4397L27.9168 12.6729C30.457 14.728 33.0179 16.8069 34.2529 18.4592L34.4932 18.2796L34.7335 18.1C33.4424 16.3726 30.8065 14.2389 28.2942 12.2065L28.1055 12.4397ZM34.4932 18.2796L34.6604 18.5286L36.3353 17.4036L36.168 17.1546L36.0007 16.9055L34.3259 18.0305L34.4932 18.2796ZM36.168 17.1546L36.4526 17.0597C35.5093 14.2309 34.0499 10.1502 32.9698 7.52574L32.6924 7.63991L32.415 7.75408C33.4877 10.3607 34.9422 14.427 35.8834 17.2495L36.168 17.1546ZM32.6924 7.63991L32.7935 7.35747C31.8344 7.01399 28.7703 5.89485 25.7143 4.52815L25.5918 4.80202L25.4693 5.07588C28.5463 6.4519 31.6271 7.57708 32.5912 7.92234L32.6924 7.63991ZM2.13477 16.7991V17.0991H6.04883V16.7991V16.4991H2.13477V16.7991ZM6.04883 16.7991L6.33482 16.8897C7.01443 14.7448 9.22302 7.58273 9.71287 3.53434L9.41504 3.49831L9.11721 3.46227C8.63548 7.44361 6.4474 14.548 5.76284 16.7085L6.04883 16.7991ZM9.41504 3.49831L9.54611 3.22845C8.92605 2.92728 7.80366 2.6552 6.49762 2.42972C5.17969 2.20218 3.63908 2.01645 2.1584 1.89943L2.13477 2.1985L2.11113 2.49757C3.57655 2.61337 5.09859 2.79706 6.39554 3.02097C7.70438 3.24694 8.74908 3.50835 9.28397 3.76816L9.41504 3.49831ZM2.13477 2.1985H1.83477V16.7991H2.13477H2.43477V2.1985H2.13477Z" fill="white"/>
</svg>
