<svg width="42" height="34" viewBox="0 0 42 34" fill="none" xmlns="http://www.w3.org/2000/svg">
<path fill-rule="evenodd" clip-rule="evenodd" d="M38.6974 23.4422L38.6199 23.5312C38.5112 23.647 38.3509 23.6724 38.2112 23.5964C35.7285 22.2257 33.2769 21.6169 30.9027 21.782V19.8713C30.9027 18.5968 30.4114 17.4636 29.4804 16.5931L28.3321 15.5219C30.7631 12.1583 33.2406 9.62701 35.894 7.79341C36.044 7.69203 36.2406 7.72467 36.3492 7.86896C36.5354 8.11981 36.4164 8.26515 36.375 8.31949C34.4923 10.6356 33.582 12.7521 33.582 14.7895C33.582 14.9157 33.5872 15.0409 33.5924 15.164C33.5975 15.2147 33.5975 15.2643 33.6027 15.3135C33.6079 15.329 33.6079 15.3445 33.6079 15.3595V15.3698C33.8873 18.1603 36.1165 20.3978 38.1026 22.3866C38.2991 22.5872 38.5008 22.7869 38.6923 22.984C38.8164 23.1107 38.8216 23.3113 38.6974 23.4422ZM29.677 30.4325V19.8713C29.677 18.9314 29.3304 18.1303 28.6425 17.4894L20.7237 10.0962L12.805 17.4894C12.1222 18.1302 11.7705 18.9314 11.7705 19.8713V30.4325C11.7705 31.3821 12.5464 32.1548 13.4928 32.1548H16.9428V26.0257C16.9428 23.9408 18.6393 22.2443 20.7237 22.2443C22.8082 22.2443 24.5047 23.9408 24.5047 26.0257V32.1548H27.9547C28.9063 32.1549 29.677 31.3821 29.677 30.4325ZM10.5447 19.8713V21.7819C8.17578 21.6168 5.71894 22.2257 3.23619 23.5963C3.09651 23.6723 2.94138 23.6469 2.8327 23.5311L2.74995 23.4421C2.63101 23.3112 2.63101 23.1105 2.75514 22.9838C2.95165 22.7868 3.14826 22.5882 3.34995 22.3864C5.33091 20.3976 7.56531 18.1601 7.83949 15.3686C7.83949 15.3655 7.84467 15.3623 7.84467 15.3593C7.84467 15.3443 7.84467 15.3277 7.84467 15.3133C7.84986 15.2636 7.85504 15.2145 7.85504 15.1638C7.86541 15.0407 7.87059 14.9156 7.87059 14.7893C7.87059 12.752 6.95514 10.6355 5.07757 8.3193C5.03101 8.26496 4.91206 8.11962 5.09821 7.86877C5.20688 7.72448 5.40858 7.69136 5.55334 7.79322C8.21187 9.62682 10.6894 12.1581 13.1204 15.5217L11.9722 16.5929C11.0413 17.4636 10.5447 18.5968 10.5447 19.8713ZM4.18275 17.4398C5.40339 17.4398 6.42234 16.5393 6.60339 15.3657C6.60858 15.3362 6.61376 15.3068 6.61894 15.2773C6.61894 15.2736 6.61894 15.2684 6.61894 15.2638C6.62413 15.2075 6.62931 15.151 6.6345 15.0947C6.6345 15.0585 6.6345 15.0217 6.6345 14.9851C6.6345 13.632 5.5328 12.5303 4.18285 12.5303C2.82771 12.5303 1.72602 13.632 1.72602 14.9851C1.72592 16.3381 2.82762 17.4398 4.18275 17.4398ZM11.5482 4.68339C14.2015 7.45261 15.898 9.23034 16.9946 11.9044L20.3049 8.80986C20.5429 8.59002 20.9101 8.59002 21.1428 8.80986L24.4582 11.9044C25.5496 9.23034 27.2513 7.45261 29.9047 4.68339C30.4064 4.15482 30.934 3.6081 31.4977 3.00598C31.6477 2.84768 31.6477 2.60566 31.5029 2.44323L31.415 2.34339C31.2753 2.1872 31.058 2.15715 30.8823 2.26995L23.3307 7.08435C21.7015 8.12557 19.7516 8.12557 18.1171 7.08435L10.5707 2.26995C10.3948 2.15715 10.1724 2.18826 10.0328 2.34339L9.94486 2.44371C9.8 2.60566 9.80518 2.84768 9.95005 3.00598C10.5188 3.608 11.0413 4.15472 11.5482 4.68339ZM20.7237 1.72582C22.0789 1.72582 23.1806 2.82704 23.1806 4.18006C23.1806 5.47626 22.172 6.54013 20.8944 6.62864C20.7807 6.63325 20.6669 6.63325 20.5531 6.62864C19.2807 6.54022 18.2721 5.47626 18.2721 4.18006C18.2721 2.82704 19.3738 1.72582 20.7237 1.72582ZM39.7216 14.985C39.7216 13.6319 38.6199 12.5302 37.2699 12.5302C35.9148 12.5302 34.8131 13.6319 34.8131 14.985C34.8131 15.0216 34.8131 15.0584 34.8183 15.0946C34.8235 15.1509 34.8235 15.2074 34.8286 15.2637C34.8286 15.2684 34.8338 15.2726 34.8338 15.2767C34.8338 15.3068 34.839 15.3362 34.8442 15.3657C35.0252 16.5393 36.0442 17.4398 37.27 17.4398C38.6199 17.4398 39.7216 16.3381 39.7216 14.985ZM38.9664 21.5202C38.0354 20.584 37.0423 19.5878 36.2613 18.5228C36.582 18.6144 36.9183 18.6651 37.2699 18.6651C39.2974 18.6651 40.9474 17.0136 40.9474 14.9851C40.9474 12.9565 39.2974 11.305 37.2699 11.305C36.6699 11.305 36.101 11.4508 35.5992 11.7068C36.013 10.8725 36.5872 10.0041 37.3268 9.09277C37.7871 8.52176 37.7923 7.75366 37.3319 7.13763C36.8302 6.46112 35.894 6.30646 35.2009 6.78541C32.4596 8.67642 29.9149 11.2626 27.427 14.6788L25.4253 12.8054C26.4236 10.091 28.0942 8.34426 30.789 5.53107C31.2958 5.00038 31.8183 4.45165 32.3924 3.84598C32.9768 3.2217 32.9924 2.26794 32.4183 1.62762L32.3303 1.52778C31.7924 0.923072 30.9028 0.800576 30.2201 1.23603L24.3081 5.00662C24.3702 4.7408 24.4064 4.46461 24.4064 4.18006C24.4064 2.15149 22.7564 0.5 20.7237 0.5C18.6962 0.5 17.0463 2.15149 17.0463 4.18006C17.0463 4.46451 17.0773 4.7407 17.1394 5.00662L11.2274 1.23603C10.5447 0.800576 9.66022 0.923072 9.11715 1.52778L9.02922 1.62762C8.46022 2.26794 8.47059 3.2217 9.06022 3.84598C9.62922 4.45165 10.1567 5.00048 10.6636 5.53107C13.3584 8.34435 15.029 10.091 16.0273 12.8054L14.0204 14.6788C11.5378 11.2626 8.99302 8.67642 6.25165 6.78541C5.55853 6.30646 4.62243 6.46112 4.11546 7.13763C3.65514 7.75366 3.66032 8.52176 4.12582 9.09277C4.86541 10.0041 5.43958 10.8725 5.85334 11.7068C5.35165 11.4508 4.78266 11.305 4.18266 11.305C2.15514 11.305 0.5 12.9565 0.5 14.9851C0.5 17.0136 2.15514 18.6651 4.18266 18.6651C4.52922 18.6651 4.87059 18.6144 5.19123 18.5228C4.41027 19.5879 3.41715 20.5845 2.48096 21.5212C2.27926 21.7244 2.07757 21.9257 1.88096 22.1243C1.29651 22.718 1.28614 23.6636 1.84995 24.275L1.9327 24.3649C2.23789 24.6913 2.65165 24.864 3.07578 24.864C3.3344 24.864 3.59302 24.7999 3.83091 24.6695C6.13261 23.3987 8.38774 22.8422 10.5446 23.0108V30.4324C10.5446 32.0576 11.8687 33.3807 13.4928 33.3807H17.5582C17.8944 33.3807 18.1686 33.106 18.1686 32.7677V26.0256C18.1686 24.6162 19.3169 23.4694 20.7237 23.4694C22.1358 23.4694 23.2841 24.6162 23.2841 26.0256V32.7677C23.2841 33.106 23.5581 33.3807 23.8944 33.3807H27.9547C29.5788 33.3807 30.9028 32.0576 30.9028 30.4324V23.0108C33.0648 22.8422 35.32 23.3987 37.6216 24.6695C37.8596 24.7999 38.1182 24.864 38.3715 24.864C38.7956 24.864 39.2146 24.6913 39.5146 24.3649L39.5973 24.275C40.1663 23.6636 40.1508 22.7181 39.5663 22.1243C39.3698 21.9257 39.1733 21.7244 38.9664 21.5202Z" fill="white" stroke="white"/>
</svg>
