<svg width="20" height="20" viewBox="0 0 20 20" fill="none" xmlns="http://www.w3.org/2000/svg">
<path d="M18.75 15.9379H17.8125V7.50041C17.8125 7.08601 17.6479 6.68858 17.3549 6.39556C17.0618 6.10253 16.6644 5.93791 16.25 5.93791H13.4375V2.50041C13.4374 2.23775 13.3711 1.97935 13.2447 1.7491C13.1183 1.51885 12.9359 1.32418 12.7144 1.18308C12.4928 1.04198 12.2393 0.959004 11.9772 0.941823C11.7151 0.924642 11.4529 0.973811 11.2148 1.08478L3.08984 4.87697C2.82055 5.00313 2.59271 5.2033 2.43293 5.4541C2.27315 5.70491 2.18803 5.996 2.1875 6.29338V15.9379H1.25C1.00136 15.9379 0.762903 16.0367 0.587087 16.2125C0.411272 16.3883 0.3125 16.6268 0.3125 16.8754C0.3125 17.1241 0.411272 17.3625 0.587087 17.5383C0.762903 17.7141 1.00136 17.8129 1.25 17.8129H18.75C18.9986 17.8129 19.2371 17.7141 19.4129 17.5383C19.5887 17.3625 19.6875 17.1241 19.6875 16.8754C19.6875 16.6268 19.5887 16.3883 19.4129 16.2125C19.2371 16.0367 18.9986 15.9379 18.75 15.9379ZM15.9375 7.81291V15.9379H13.4375V7.81291H15.9375ZM4.0625 6.49182L11.5625 2.9926V15.9379H4.0625V6.49182ZM10.3125 8.75041V9.68791C10.3125 9.93655 10.2137 10.175 10.0379 10.3508C9.8621 10.5266 9.62364 10.6254 9.375 10.6254C9.12636 10.6254 8.8879 10.5266 8.71209 10.3508C8.53627 10.175 8.4375 9.93655 8.4375 9.68791V8.75041C8.4375 8.50177 8.53627 8.26331 8.71209 8.0875C8.8879 7.91168 9.12636 7.81291 9.375 7.81291C9.62364 7.81291 9.8621 7.91168 10.0379 8.0875C10.2137 8.26331 10.3125 8.50177 10.3125 8.75041ZM7.1875 8.75041V9.68791C7.1875 9.93655 7.08873 10.175 6.91291 10.3508C6.7371 10.5266 6.49864 10.6254 6.25 10.6254C6.00136 10.6254 5.7629 10.5266 5.58709 10.3508C5.41127 10.175 5.3125 9.93655 5.3125 9.68791V8.75041C5.3125 8.50177 5.41127 8.26331 5.58709 8.0875C5.7629 7.91168 6.00136 7.81291 6.25 7.81291C6.49864 7.81291 6.7371 7.91168 6.91291 8.0875C7.08873 8.26331 7.1875 8.50177 7.1875 8.75041ZM7.1875 12.8129V13.7504C7.1875 13.9991 7.08873 14.2375 6.91291 14.4133C6.7371 14.5891 6.49864 14.6879 6.25 14.6879C6.00136 14.6879 5.7629 14.5891 5.58709 14.4133C5.41127 14.2375 5.3125 13.9991 5.3125 13.7504V12.8129C5.3125 12.5643 5.41127 12.3258 5.58709 12.15C5.7629 11.9742 6.00136 11.8754 6.25 11.8754C6.49864 11.8754 6.7371 11.9742 6.91291 12.15C7.08873 12.3258 7.1875 12.5643 7.1875 12.8129ZM10.3125 12.8129V13.7504C10.3125 13.9991 10.2137 14.2375 10.0379 14.4133C9.8621 14.5891 9.62364 14.6879 9.375 14.6879C9.12636 14.6879 8.8879 14.5891 8.71209 14.4133C8.53627 14.2375 8.4375 13.9991 8.4375 13.7504V12.8129C8.4375 12.5643 8.53627 12.3258 8.71209 12.15C8.8879 11.9742 9.12636 11.8754 9.375 11.8754C9.62364 11.8754 9.8621 11.9742 10.0379 12.15C10.2137 12.3258 10.3125 12.5643 10.3125 12.8129Z" fill="white"/>
</svg>
