<svg width="20" height="20" viewBox="0 0 20 20" fill="none" xmlns="http://www.w3.org/2000/svg">
<path d="M10.001 1.66699V0.666992V0.666992V1.66699ZM15.834 7.5H16.834V7.5H15.834ZM10.4004 14.8008L10.8669 15.6853L10.8669 15.6853L10.4004 14.8008ZM9.60156 14.8008L9.13503 15.6853L9.13504 15.6853L9.60156 14.8008ZM4.16797 7.5H3.16797V7.5H4.16797ZM10.001 1.66699V2.66699C12.6704 2.66699 14.834 4.83062 14.834 7.5H15.834H16.834C16.834 3.72605 13.7749 0.666992 10.001 0.666992V1.66699ZM15.834 7.5H14.834C14.834 9.19745 13.9861 10.6122 12.8947 11.7321C11.8034 12.852 10.5466 13.5931 9.93386 13.9163L10.4004 14.8008L10.8669 15.6853C11.5706 15.3141 13.0306 14.4583 14.327 13.128C15.6233 11.7978 16.834 9.90939 16.834 7.5H15.834ZM10.4004 14.8008L9.93387 13.9163C9.95134 13.9071 9.97471 13.9004 10.001 13.9004C10.0272 13.9004 10.0506 13.9071 10.0681 13.9163L9.60156 14.8008L9.13504 15.6853C9.67895 15.9722 10.323 15.9722 10.8669 15.6853L10.4004 14.8008ZM9.60156 14.8008L10.0681 13.9163C9.45535 13.5931 8.19857 12.852 7.10727 11.7321C6.01589 10.6122 5.16797 9.19745 5.16797 7.5H4.16797H3.16797C3.16797 9.90939 4.37862 11.7978 5.67493 13.128C6.97131 14.4583 8.43132 15.3141 9.13503 15.6853L9.60156 14.8008ZM4.16797 7.5H5.16797C5.16797 4.83062 7.3316 2.66699 10.001 2.66699V1.66699V0.666992C6.22703 0.666992 3.16797 3.72605 3.16797 7.5H4.16797ZM10.001 5V4C8.06798 4 6.50098 5.567 6.50098 7.5H7.50098H8.50098C8.50098 6.67157 9.17255 6 10.001 6V5ZM7.50098 7.5H6.50098C6.50098 9.433 8.06798 11 10.001 11V10V9C9.17255 9 8.50098 8.32843 8.50098 7.5H7.50098ZM10.001 10V11C11.934 11 13.501 9.433 13.501 7.5H12.501H11.501C11.501 8.32843 10.8294 9 10.001 9V10ZM12.501 7.5H13.501C13.501 5.567 11.934 4 10.001 4V5V6C10.8294 6 11.501 6.67157 11.501 7.5H12.501Z" fill="#EDEEF9"/>
<path d="M16.4952 14.583C17.1535 14.9631 17.5 15.3942 17.5 15.833C17.5 16.2718 17.1535 16.703 16.4952 17.083C15.8369 17.4631 14.8901 17.7787 13.75 17.9981C12.6099 18.2175 11.3165 18.333 10 18.333C8.68348 18.333 7.39014 18.2175 6.25 17.9981C5.10986 17.7787 4.16307 17.4631 3.50481 17.083C2.84655 16.703 2.5 16.2718 2.5 15.833C2.5 15.3942 2.84655 14.9631 3.50481 14.583" stroke="#EDEEF9" stroke-width="2" stroke-linecap="round"/>
</svg>
