<svg width="20" height="20" viewBox="0 0 20 20" fill="none" xmlns="http://www.w3.org/2000/svg">
<path d="M1.83822 15.6634L4.33822 18.1634C4.51434 18.3396 4.75321 18.4385 5.00228 18.4385C5.25135 18.4385 5.49022 18.3396 5.66634 18.1634C5.84246 17.9873 5.94141 17.7484 5.94141 17.4994C5.94141 17.2503 5.84246 17.0114 5.66634 16.8353L4.76712 15.9377H13.7515C14.0001 15.9377 14.2386 15.8389 14.4144 15.6631C14.5902 15.4872 14.689 15.2488 14.689 15.0002V5.39078L15.5882 6.28843C15.6754 6.37564 15.779 6.44482 15.8929 6.49201C16.0068 6.53921 16.129 6.5635 16.2523 6.5635C16.3756 6.5635 16.4977 6.53921 16.6117 6.49201C16.7256 6.44482 16.8291 6.37564 16.9163 6.28843C17.0035 6.20123 17.0727 6.0977 17.1199 5.98376C17.1671 5.86982 17.1914 5.7477 17.1914 5.62437C17.1914 5.50104 17.1671 5.37892 17.1199 5.26498C17.0727 5.15104 17.0035 5.04752 16.9163 4.96031L14.4163 2.46031C14.3292 2.37291 14.2258 2.30356 14.1118 2.25625C13.9978 2.20893 13.8757 2.18457 13.7523 2.18457C13.6289 2.18457 13.5067 2.20893 13.3928 2.25625C13.2788 2.30356 13.1753 2.37291 13.0882 2.46031L10.5882 4.96031C10.4121 5.13643 10.3132 5.3753 10.3132 5.62437C10.3132 5.87344 10.4121 6.11231 10.5882 6.28843C10.7643 6.46455 11.0032 6.5635 11.2523 6.5635C11.5014 6.5635 11.7402 6.46455 11.9163 6.28843L12.814 5.39078V14.0627H4.76712L5.66713 13.1634C5.84325 12.9873 5.94219 12.7484 5.94219 12.4994C5.94219 12.2503 5.84325 12.0114 5.66713 11.8353C5.49101 11.6592 5.25214 11.5602 5.00306 11.5602C4.75399 11.5602 4.51512 11.6592 4.339 11.8353L1.839 14.3353C1.75155 14.4224 1.68214 14.5258 1.63476 14.6397C1.58737 14.7537 1.56294 14.8758 1.56287 14.9992C1.5628 15.1226 1.58708 15.2448 1.63433 15.3588C1.68158 15.4728 1.75087 15.5763 1.83822 15.6634Z" fill="white"/>
</svg>
