<svg width="30" height="30" viewBox="0 0 30 30" fill="none" xmlns="http://www.w3.org/2000/svg">
<path d="M5.56452 13.65H7.37903V19.05H6.29032C6.00158 19.05 5.72466 19.1923 5.52049 19.4454C5.31632 19.6986 5.20161 20.042 5.20161 20.4C5.20161 20.7581 5.31632 21.1014 5.52049 21.3546C5.72466 21.6078 6.00158 21.75 6.29032 21.75H23.7097C23.9984 21.75 24.2753 21.6078 24.4795 21.3546C24.6837 21.1014 24.7984 20.7581 24.7984 20.4C24.7984 20.042 24.6837 19.6986 24.4795 19.4454C24.2753 19.1923 23.9984 19.05 23.7097 19.05H22.621V13.65H24.4355C24.6725 13.6501 24.9031 13.5541 25.0922 13.3769C25.2813 13.1996 25.4186 12.9506 25.4831 12.6677C25.5477 12.3849 25.536 12.0837 25.45 11.8098C25.3639 11.5359 25.208 11.3044 25.0061 11.1503L15.5707 3.95032C15.3991 3.81935 15.2015 3.75 15 3.75C14.7985 3.75 14.6009 3.81935 14.4293 3.95032L4.99385 11.1503C4.79196 11.3044 4.63613 11.5359 4.55004 11.8098C4.46395 12.0837 4.45231 12.3849 4.51688 12.6677C4.58145 12.9506 4.7187 13.1996 4.90779 13.3769C5.09687 13.5541 5.32746 13.6501 5.56452 13.65ZM9.55645 13.65H11.7339V19.05H9.55645V13.65ZM16.0887 13.65V19.05H13.9113V13.65H16.0887ZM20.4435 19.05H18.2661V13.65H20.4435V19.05ZM15 6.68518L20.5887 10.95H9.41129L15 6.68518ZM26.25 24.9C26.25 25.258 26.1353 25.6014 25.9311 25.8546C25.727 26.1078 25.45 26.25 25.1613 26.25H4.83871C4.54997 26.25 4.27305 26.1078 4.06888 25.8546C3.8647 25.6014 3.75 25.258 3.75 24.9C3.75 24.542 3.8647 24.1986 4.06888 23.9454C4.27305 23.6922 4.54997 23.55 4.83871 23.55H25.1613C25.45 23.55 25.727 23.6922 25.9311 23.9454C26.1353 24.1986 26.25 24.542 26.25 24.9Z" fill="#595CA3"/>
</svg>
