<svg width="30" height="30" viewBox="0 0 30 30" fill="none" xmlns="http://www.w3.org/2000/svg">
<path d="M27.1875 14.0621V14.9996C27.1875 16.6037 26.8708 18.1921 26.2556 19.6736C25.6405 21.1551 24.7389 22.5006 23.6025 23.6328C22.4662 24.7651 21.1176 25.6619 19.6339 26.2719C18.1502 26.8818 16.5608 27.1928 14.9566 27.1871C8.62852 27.1648 3.47227 22.2582 2.87227 16.0801C2.86576 15.9996 2.88015 15.9188 2.91405 15.8455C2.94795 15.7722 3.0002 15.709 3.06574 15.6618C3.13129 15.6146 3.2079 15.5852 3.28815 15.5764C3.36841 15.5675 3.44959 15.5796 3.52383 15.6113C4.36706 15.9653 5.30259 16.0352 6.18906 15.8105C7.07552 15.5857 7.86476 15.0786 8.4375 14.3656C8.81277 14.8323 9.2833 15.2136 9.81767 15.4839C10.352 15.7542 10.9379 15.9075 11.5362 15.9333C12.1345 15.9591 12.7315 15.857 13.2871 15.6338C13.8428 15.4105 14.3445 15.0713 14.7586 14.6387C15.1381 15.2552 15.6541 15.7764 16.2668 16.1621C15.5812 16.6866 15.0258 17.362 14.6435 18.1359C14.2612 18.9098 14.0624 19.7614 14.0625 20.6246C14.062 20.7546 14.0886 20.8833 14.1406 21.0025C14.1925 21.1217 14.2687 21.2287 14.3642 21.3169C14.4598 21.4051 14.5726 21.4724 14.6956 21.5146C14.8186 21.5568 14.949 21.573 15.0785 21.5621C15.3164 21.5365 15.5363 21.4231 15.6951 21.2441C15.8539 21.0652 15.9403 20.8334 15.9375 20.5941C15.9455 19.6049 16.3442 18.6588 17.0466 17.9622C17.749 17.2655 18.6982 16.8746 19.6875 16.8746C19.816 16.8749 19.9432 16.8487 20.0612 16.7978C20.1792 16.7468 20.2855 16.6722 20.3734 16.5784C20.4613 16.4847 20.529 16.3739 20.5723 16.2529C20.6156 16.1319 20.6335 16.0032 20.625 15.875C20.604 15.634 20.4927 15.4099 20.3134 15.2475C20.1341 15.0852 19.9001 14.9966 19.6582 14.9996H18.75C18.0041 14.9996 17.2887 14.7033 16.7613 14.1758C16.2338 13.6484 15.9375 12.933 15.9375 12.1871V10.3121H23.4375C24.4321 10.3121 25.3859 10.7072 26.0891 11.4105C26.7924 12.1137 27.1875 13.0675 27.1875 14.0621ZM5.2418 14.0621C6.51211 14.0152 7.5 12.9336 7.5 11.6621V8.9668C7.5 7.69062 6.51211 6.60898 5.2418 6.56211C4.92689 6.55061 4.61289 6.60273 4.31859 6.71535C4.02428 6.82797 3.75571 6.99879 3.52893 7.21758C3.30215 7.43638 3.12182 7.69866 2.99873 7.98874C2.87563 8.27882 2.81229 8.59074 2.8125 8.90586V11.7184C2.81229 12.0335 2.87563 12.3454 2.99873 12.6355C3.12182 12.9256 3.30215 13.1878 3.52893 13.4066C3.75571 13.6254 4.02428 13.7962 4.31859 13.9089C4.61289 14.0215 4.92689 14.0736 5.2418 14.0621ZM11.8043 14.0621C13.0746 14.0164 14.0625 12.9348 14.0625 11.6633V6.15547C14.0625 4.88398 13.0746 3.80234 11.8043 3.75664C11.49 3.74516 11.1766 3.79706 10.8827 3.90925C10.5889 4.02144 10.3206 4.19163 10.094 4.40967C9.86728 4.62772 9.6868 4.88915 9.56329 5.17841C9.43977 5.46767 9.37573 5.77883 9.375 6.09336V11.7184C9.37479 12.0335 9.43813 12.3454 9.56123 12.6355C9.68432 12.9256 9.86465 13.1878 10.0914 13.4066C10.3182 13.6254 10.5868 13.7962 10.8811 13.9089C11.1754 14.0215 11.4894 14.0736 11.8043 14.0621ZM20.625 6.09336C20.6252 5.77824 20.5619 5.46632 20.4388 5.17623C20.3157 4.88615 20.1353 4.62388 19.9086 4.40508C19.6818 4.18629 19.4132 4.01547 19.1189 3.90285C18.8246 3.79023 18.5106 3.73811 18.1957 3.74961C16.9254 3.79648 15.9375 4.87812 15.9375 6.14961V8.43711H20.1562C20.2806 8.43711 20.3998 8.38772 20.4877 8.29982C20.5756 8.21191 20.625 8.09268 20.625 7.96836V6.09336Z" fill="#595CA3"/>
</svg>
