<svg width="56" height="56" viewBox="0 0 56 56" fill="none" xmlns="http://www.w3.org/2000/svg">
<g clip-path="url(#clip0_2132_6228)">
<path d="M56 41.5669V14.4331C56 6.46193 49.5381 0 41.5669 0H14.4331C6.46193 0 0 6.46193 0 14.4331V41.5669C0 49.5381 6.46193 56 14.4331 56H41.5669C49.5381 56 56 49.5381 56 41.5669Z" fill="url(#paint0_linear_2132_6228)"/>
<path d="M55.9996 38.5V41.562C55.9996 45.391 54.4785 49.0633 51.7709 51.7708C49.0634 54.4784 45.3911 55.9995 41.5621 55.9995H29.4849L17.0304 40V32.9695L17.0303 26L39 23.5L55.9996 38.5Z" fill="url(#paint1_linear_2132_6228)"/>
<path d="M41.3082 25.2545L30.4583 15.9188C29.7692 15.3253 28.8987 15 27.9994 15C27.1002 15 26.2296 15.3253 25.5406 15.9188L14.6916 25.2545C13.3149 26.4395 14.1316 28.7442 15.9264 28.7442H16.9101V39.0337C16.9101 39.5552 17.1118 40.0553 17.4708 40.4241C17.8298 40.7928 18.3167 41 18.8244 41H24.3086V34.3544C24.3085 33.8564 24.4039 33.3633 24.5893 32.9033C24.7748 32.4432 25.0467 32.0251 25.3895 31.673C25.7323 31.3209 26.1393 31.0416 26.5872 30.8511C27.0351 30.6606 27.5151 30.5627 27.9999 30.5628C28.4847 30.5628 28.9647 30.6609 29.4125 30.8514C29.8604 31.0419 30.2673 31.3212 30.6101 31.6733C30.9528 32.0254 31.2247 32.4434 31.4102 32.9034C31.5957 33.3634 31.6912 33.8565 31.6912 34.3544V41H37.1755C37.6831 41 38.17 40.7928 38.529 40.4241C38.888 40.0553 39.0897 39.5552 39.0897 39.0337V28.7442H40.0725C41.8692 28.7442 42.6849 26.4395 41.3082 25.2545Z" fill="white"/>
</g>
<defs>
<linearGradient id="paint0_linear_2132_6228" x1="4.22734" y1="4.22734" x2="51.7727" y2="51.7727" gradientUnits="userSpaceOnUse">
<stop stop-color="#549EFF"/>
<stop offset="1" stop-color="#006DB0"/>
</linearGradient>
<linearGradient id="paint1_linear_2132_6228" x1="18.3327" y1="22.2266" x2="49.8262" y2="53.719" gradientUnits="userSpaceOnUse">
<stop stop-opacity="0.35"/>
<stop offset="1" stop-opacity="0"/>
</linearGradient>
<clipPath id="clip0_2132_6228">
<rect width="56" height="56" fill="white"/>
</clipPath>
</defs>
</svg>
