<svg width="30" height="30" viewBox="0 0 30 30" fill="none" xmlns="http://www.w3.org/2000/svg">
<path d="M27.1734 20.517C26.9645 22.1049 26.1847 23.5624 24.9796 24.6174C23.7745 25.6724 22.2266 26.2526 20.625 26.2498C11.3203 26.2498 3.75001 18.6795 3.75001 9.37476C3.74714 7.77315 4.32738 6.22526 5.38235 5.02019C6.43733 3.81512 7.8949 3.03528 9.48282 2.82633C9.88437 2.7773 10.291 2.85944 10.642 3.06051C10.993 3.26158 11.2696 3.57078 11.4305 3.94195L13.9055 9.46734V9.4814C14.0286 9.76553 14.0795 10.0757 14.0535 10.3843C14.0275 10.6929 13.9256 10.9902 13.7567 11.2498C13.7356 11.2814 13.7133 11.3107 13.6899 11.34L11.25 14.2322C12.1277 16.0158 13.9934 17.865 15.8004 18.7451L18.6527 16.3181C18.6808 16.2946 18.7101 16.2727 18.7406 16.2525C19 16.0795 19.2983 15.974 19.6087 15.9453C19.9191 15.9167 20.2318 15.9659 20.5184 16.0884L20.5336 16.0955L26.0543 18.5693C26.4261 18.7296 26.7361 19.0059 26.9378 19.357C27.1395 19.7081 27.2222 20.115 27.1734 20.517Z" fill="#595CA3"/>
</svg>
