<?xml version="1.0" standalone="no"?>
<!DOCTYPE svg PUBLIC "-//W3C//DTD SVG 1.1//EN" "http://www.w3.org/Graphics/SVG/1.1/DTD/svg11.dtd" >
<svg xmlns="http://www.w3.org/2000/svg" xmlns:xlink="http://www.w3.org/1999/xlink" version="1.1">
<metadata>
Created by FontForge 20201107 at Mon Feb 12 18:26:37 2024
 By www-data
Copyright 2019-2022 Google LLC. All Rights Reserved.
</metadata>
<defs>
<font id="NotoKufiArabic-Regular" horiz-adv-x="0" >
  <font-face 
    font-family="Noto Kufi Arabic"
    font-weight="400"
    font-stretch="normal"
    units-per-em="1000"
    panose-1="0 0 0 0 0 0 0 0 0 0"
    ascent="800"
    descent="-200"
    x-height="536"
    cap-height="714"
    bbox="-493 -650 10104 1507"
    underline-thickness="50"
    underline-position="-125"
    unicode-range="U+000D-10EFF"
  />
<missing-glyph horiz-adv-x="600" 
d="M50 -177v882h500v-882h-500zM106 -121h388v770h-388v-770z" />
    <glyph glyph-name="uniFDF2" unicode="&#xfe8d;&#xfedf;&#xfee0;&#x651;&#x670;&#xfeea;" horiz-adv-x="1569" arabic-form="isolated" 
d="M319 0q-80 0 -137 27.5t-87 79.5t-30 124q0 79 33.5 135.5t95 87.5t145.5 31h66v63h85v-470h236v532h89v-532h252v532h89v-610h-837zM405 78v329h-63q-90 0 -139 -46t-49 -129q0 -75 42.5 -114.5t120.5 -39.5h88zM1380 760h89v-760h-89v760zM680 654q-39 0 -60.5 25
t-21.5 72v63h52v-54q0 -27 8 -41t32 -14q22 0 33 11.5t11 34.5v88h47v-68q0 -26 9 -36t29 -10q27 0 36.5 12.5t9.5 42.5v74h52v-83q0 -47 -22 -72t-64 -25q-46 0 -70 30q-24 -50 -81 -50zM729 1055h57v-165h-57v165z" />
    <glyph glyph-name="uni0621" unicode="&#x621;" horiz-adv-x="490" arabic-form="isolated" 
d="M65 64q22 5 45 9t44 7q-28 19 -46 56t-18 81q0 59 26 103q26 43 72.5 66t108.5 23q36 0 66 -7.5t55 -21.5l-22 -75q-25 13 -49 19.5t-48 6.5q-58 0 -88.5 -30.5t-30.5 -89.5q0 -38 17.5 -68.5t45.5 -44.5l22 3q51 7 88 11t61.5 6t35.5 2v-81q-20 0 -58.5 -3.5t-86 -9
t-95.5 -12t-86.5 -12.5t-58.5 -11v73z" />
    <glyph glyph-name="uni0622" unicode="&#x622;" horiz-adv-x="289" arabic-form="isolated" 
d="M100 700h89v-700h-89v700zM-8 765q5 48 27.5 75.5t64.5 27.5q18 0 37.5 -6.5t37.5 -17.5q16 -9 30.5 -14.5t25.5 -5.5q20 0 30 10.5t17 34.5h45q-5 -48 -27.5 -75.5t-64.5 -27.5q-17 0 -35.5 7.5t-36.5 16.5q-16 8 -31 14t-28 6q-21 0 -30.5 -10.5t-16.5 -34.5h-45z" />
    <glyph glyph-name="uni0623" unicode="&#x623;" horiz-adv-x="289" arabic-form="isolated" 
d="M100 700h89v-700h-89v700zM41 798l47 7q-17 11 -26 27t-9 36q0 43 28 66.5t74 23.5q39 0 66 -15l-15 -45q-10 6 -22.5 9t-27.5 3q-22 0 -37 -12.5t-15 -38.5q0 -17 8.5 -29t21.5 -18q20 4 40 6.5t36.5 4.5t23.5 2v-49q-19 -1 -41 -3.5t-47 -5.5t-51.5 -7t-53.5 -8v46z
" />
    <glyph glyph-name="uni0624" unicode="&#x624;" horiz-adv-x="561" arabic-form="isolated" 
d="M245 -240q-51 0 -96 13t-84 38l40 67q32 -17 66.5 -28.5t75.5 -11.5q68 0 106.5 36.5t38.5 96.5v29h-98q-107 0 -165 58.5t-58 169.5q0 79 33.5 136.5t95.5 89t145 31.5h131v-509q0 -102 -60.5 -159t-170.5 -57zM391 78v329h-43q-89 0 -138.5 -47t-49.5 -131
q0 -78 34 -114.5t103 -36.5h94zM210 604l47 7q-17 11 -26 27t-9 36q0 43 28 66.5t74 23.5q39 0 66 -15l-15 -45q-10 6 -22.5 9t-27.5 3q-22 0 -37 -12.5t-15 -38.5q0 -17 8.5 -29t21.5 -18q20 4 40 6.5t36.5 4.5t23.5 2v-49q-19 -1 -41 -3.5t-47 -5.5t-51.5 -7t-53.5 -8v46z
" />
    <glyph glyph-name="uni0625" unicode="&#x625;" horiz-adv-x="289" arabic-form="isolated" 
d="M100 760h89v-760h-89v760zM47 -215l47 7q-14 9 -24.5 25t-10.5 38q0 42 27 66t75 24q20 0 36.5 -3.5t29.5 -11.5l-15 -45q-10 6 -22.5 9t-27.5 3q-22 0 -37 -12.5t-15 -38.5q0 -16 7.5 -27.5t22.5 -19.5q7 2 28.5 5t43.5 5.5t28 2.5v-49q-11 0 -37 -2.5t-57 -6.5
t-58.5 -8t-40.5 -7v46z" />
    <glyph glyph-name="uni0626" unicode="&#x626;" horiz-adv-x="839" arabic-form="isolated" 
d="M266 -240q-62 0 -107.5 29.5t-69.5 83.5t-24 128q0 52 8.5 94t26.5 86h83q-16 -42 -22 -81.5t-6 -92.5q0 -54 15 -91.5t44 -57.5t71 -20h196q52 0 89 13t57 36t20 53q0 23 -18 44t-45.5 39.5t-56.5 35.5q-30 18 -51 32.5t-33 24.5q-16 14 -27 28t-16.5 30t-5.5 33
q0 30 11 61.5t33 64.5q30 44 69.5 78.5t83 54t84.5 19.5q23 0 48 -6.5t47 -15.5t34 -18l-36 -67q-8 4 -24 8t-32 6.5t-28 2.5q-21 0 -43 -7.5t-41 -19.5q-30 -19 -54 -43.5t-38.5 -50.5t-14.5 -50q0 -11 8.5 -24t25 -26.5t41.5 -28.5q37 -22 63 -41t42 -33q32 -29 48.5 -63
t16.5 -70q0 -84 -67 -131t-190 -47h-215zM116 370l47 7q-17 11 -26 27t-9 36q0 43 28 66.5t74 23.5q39 0 66 -15l-15 -45q-10 6 -22.5 9t-27.5 3q-22 0 -37 -12.5t-15 -38.5q0 -17 8.5 -29t21.5 -18q20 4 40 6.5t36.5 4.5t23.5 2v-49q-19 -1 -41 -3.5t-47 -5.5t-51.5 -7
t-53.5 -8v46z" />
    <glyph glyph-name="uni0627" unicode="&#x627;" horiz-adv-x="289" arabic-form="isolated" 
d="M100 760h89v-760h-89v760z" />
    <glyph glyph-name="uni0628" unicode="&#x628;" horiz-adv-x="778" arabic-form="isolated" 
d="M252 0q-86 0 -136.5 52t-50.5 142q0 22 3 49.5t9 54t13 46.5h80q-7 -36 -11 -72t-4 -71q0 -55 26 -89t68 -34h359v407h85v-485h-441zM391 -184q-26 0 -41 15.5t-15 44.5t15 44.5t41 15.5q27 0 41.5 -16.5t14.5 -43.5t-14.5 -43.5t-41.5 -16.5z" />
    <glyph glyph-name="uni0629" unicode="&#x629;" horiz-adv-x="597" arabic-form="isolated" 
d="M297 -10q-110 0 -171 60.5t-61 171.5q0 37 7.5 71t23.5 66q30 63 84 99.5t120 36.5q31 0 60 -9t56 -28q36 -25 62 -62.5t40 -82t14 -91.5q0 -113 -59 -172.5t-176 -59.5zM299 67q71 0 107 38.5t36 115.5q0 61 -17 105t-49 68t-78 24q-40 0 -72.5 -25t-51.5 -69t-19 -103
q0 -77 36 -115.5t108 -38.5zM191 587q-23 0 -39.5 14t-16.5 46t16.5 46t39.5 14q26 0 41 -15.5t15 -44.5t-15 -44.5t-41 -15.5zM364 587q-26 0 -41 15.5t-15 44.5t15 44.5t41 15.5q27 0 41.5 -16.5t14.5 -43.5t-14.5 -43.5t-41.5 -16.5z" />
    <glyph glyph-name="uni062A" unicode="&#x62a;" horiz-adv-x="778" arabic-form="isolated" 
d="M252 0q-86 0 -136.5 52t-50.5 142q0 22 3 49.5t9 54t13 46.5h80q-7 -36 -11 -72t-4 -71q0 -55 26 -89t68 -34h359v407h85v-485h-441zM294 495q-23 0 -39.5 14t-16.5 46t16.5 46t39.5 14q26 0 41 -15.5t15 -44.5t-15 -44.5t-41 -15.5zM467 495q-26 0 -41 15.5t-15 44.5
t15 44.5t41 15.5q27 0 41.5 -16.5t14.5 -43.5t-14.5 -43.5t-41.5 -16.5z" />
    <glyph glyph-name="uni062B" unicode="&#x62b;" horiz-adv-x="778" arabic-form="isolated" 
d="M252 0q-86 0 -136.5 52t-50.5 142q0 22 3 49.5t9 54t13 46.5h80q-7 -36 -11 -72t-4 -71q0 -55 26 -89t68 -34h359v407h85v-485h-441zM382 619q-22 0 -37 13t-15 42t15 42t37 13q21 0 36.5 -13.5t15.5 -41.5q0 -29 -15.5 -42t-36.5 -13zM296 484q-23 0 -39.5 14t-16.5 46
t16.5 46t39.5 14q27 0 41.5 -16.5t14.5 -43.5t-14.5 -43.5t-41.5 -16.5zM469 484q-26 0 -41 15.5t-15 44.5t15 44.5t41 15.5q27 0 41.5 -16.5t14.5 -43.5t-14.5 -43.5t-41.5 -16.5z" />
    <glyph glyph-name="uni062C" unicode="&#x62c;" horiz-adv-x="644" arabic-form="isolated" 
d="M253 -321q-64 0 -111 22.5t-72 66t-25 104.5q0 32 9.5 61t27.5 55q25 36 67 66.5t108.5 59.5t162.5 57q-4 13 -9 35.5t-10 54.5q-13 79 -49 117.5t-97 38.5q-36 0 -86 -14.5t-89 -35.5l-35 69q38 25 96.5 42t114.5 17q95 0 151.5 -52.5t72.5 -158.5q8 -52 21 -91
t32.5 -66.5t45.5 -45.5l-53 -69q-27 22 -46 42t-33 46q-56 -15 -101.5 -31t-79.5 -32.5t-58 -34.5q-36 -26 -54 -56.5t-18 -65.5q0 -64 37 -94t116 -30q25 0 61.5 4t85.5 12l11 -69q-47 -10 -80.5 -15t-60 -7t-53.5 -2zM339 -169q-26 0 -41 15.5t-15 44.5t15 44.5t41 15.5
q27 0 41.5 -16.5t14.5 -43.5t-14.5 -43.5t-41.5 -16.5z" />
    <glyph glyph-name="uni062D" unicode="&#x62d;" horiz-adv-x="644" arabic-form="isolated" 
d="M253 -321q-64 0 -111 22.5t-72 66t-25 104.5q0 32 9.5 61t27.5 55q25 36 67 66.5t108.5 59.5t162.5 57q-4 13 -9 35.5t-10 54.5q-13 79 -49 117.5t-97 38.5q-36 0 -86 -14.5t-89 -35.5l-35 69q38 25 96.5 42t114.5 17q95 0 151.5 -52.5t72.5 -158.5q8 -52 21 -91
t32.5 -66.5t45.5 -45.5l-53 -69q-27 22 -46 42t-33 46q-56 -15 -101.5 -31t-79.5 -32.5t-58 -34.5q-36 -26 -54 -56.5t-18 -65.5q0 -64 37 -94t116 -30q25 0 61.5 4t85.5 12l11 -69q-47 -10 -80.5 -15t-60 -7t-53.5 -2z" />
    <glyph glyph-name="uni062E" unicode="&#x62e;" horiz-adv-x="644" arabic-form="isolated" 
d="M253 -321q-64 0 -111 22.5t-72 66t-25 104.5q0 32 9.5 61t27.5 55q25 36 67 66.5t108.5 59.5t162.5 57q-4 13 -9 35.5t-10 54.5q-13 79 -49 117.5t-97 38.5q-36 0 -86 -14.5t-89 -35.5l-35 69q38 25 96.5 42t114.5 17q95 0 151.5 -52.5t72.5 -158.5q8 -52 21 -91
t32.5 -66.5t45.5 -45.5l-53 -69q-27 22 -46 42t-33 46q-56 -15 -101.5 -31t-79.5 -32.5t-58 -34.5q-36 -26 -54 -56.5t-18 -65.5q0 -64 37 -94t116 -30q25 0 61.5 4t85.5 12l11 -69q-47 -10 -80.5 -15t-60 -7t-53.5 -2zM240 600q-26 0 -41 15.5t-15 44.5t15 44.5t41 15.5
q27 0 41.5 -16.5t14.5 -43.5t-14.5 -43.5t-41.5 -16.5z" />
    <glyph glyph-name="uni062F" unicode="&#x62f;" horiz-adv-x="509" arabic-form="isolated" 
d="M45 78h333q-5 38 -13.5 72t-19.5 65q-28 80 -76.5 143t-122.5 112l32 76q77 -40 134.5 -106t96 -157t55.5 -207v-76h-419v78z" />
    <glyph glyph-name="uni0630" unicode="&#x630;" horiz-adv-x="509" arabic-form="isolated" 
d="M45 78h333q-5 38 -13.5 72t-19.5 65q-28 80 -76.5 143t-122.5 112l32 76q77 -40 134.5 -106t96 -157t55.5 -207v-76h-419v78zM174 630q-26 0 -41 15.5t-15 44.5t15 44.5t41 15.5q27 0 41.5 -16.5t14.5 -43.5t-14.5 -43.5t-41.5 -16.5z" />
    <glyph glyph-name="uni0631" unicode="&#x631;" horiz-adv-x="325" arabic-form="isolated" 
d="M62 -240q-24 0 -49.5 7t-52.5 21l26 67q24 -11 40 -14t34 -3q45 0 70.5 36.5t25.5 96.5v514h84v-509q0 -67 -20.5 -115.5t-60 -74.5t-97.5 -26z" />
    <glyph glyph-name="uni0632" unicode="&#x632;" horiz-adv-x="325" arabic-form="isolated" 
d="M62 -240q-24 0 -49.5 7t-52.5 21l26 67q24 -11 40 -14t34 -3q45 0 70.5 36.5t25.5 96.5v514h84v-509q0 -67 -20.5 -115.5t-60 -74.5t-97.5 -26zM196 604q-26 0 -41 15.5t-15 44.5t15 44.5t41 15.5q27 0 41.5 -16.5t14.5 -43.5t-14.5 -43.5t-41.5 -16.5z" />
    <glyph glyph-name="uni0633" unicode="&#x633;" horiz-adv-x="1242" arabic-form="isolated" 
d="M1011 0q-45 0 -82.5 15t-78.5 54q-23 -31 -59.5 -50t-86.5 -19h-117q0 -118 -60 -179t-189 -61h-72q-62 0 -107 30.5t-69.5 88t-24.5 137.5q0 62 10.5 125t30.5 111h83q-17 -43 -25.5 -102t-8.5 -134q0 -85 34 -131.5t96 -46.5h49q87 0 127.5 39.5t40.5 119.5v410h85
v-329h108q48 0 75 32t27 84v213h85v-235v-8t-1 -8q25 -44 55 -61t75 -17h61v407h85v-485h-146z" />
    <glyph glyph-name="uni0634" unicode="&#x634;" horiz-adv-x="1242" arabic-form="isolated" 
d="M1011 0q-45 0 -82.5 15t-78.5 54q-23 -31 -59.5 -50t-86.5 -19h-117q0 -118 -60 -179t-189 -61h-72q-62 0 -107 30.5t-69.5 88t-24.5 137.5q0 62 10.5 125t30.5 111h83q-17 -43 -25.5 -102t-8.5 -134q0 -85 34 -131.5t96 -46.5h49q87 0 127.5 39.5t40.5 119.5v410h85
v-329h108q48 0 75 32t27 84v213h85v-235v-8t-1 -8q25 -44 55 -61t75 -17h61v407h85v-485h-146zM832 645q-22 0 -37 13t-15 42t15 42t37 13q21 0 36.5 -13.5t15.5 -41.5q0 -29 -15.5 -42t-36.5 -13zM746 510q-23 0 -39.5 14t-16.5 46t16.5 46t39.5 14q27 0 41.5 -16.5
t14.5 -43.5t-14.5 -43.5t-41.5 -16.5zM919 510q-26 0 -41 15.5t-15 44.5t15 44.5t41 15.5q27 0 41.5 -16.5t14.5 -43.5t-14.5 -43.5t-41.5 -16.5z" />
    <glyph glyph-name="uni0635" unicode="&#x635;" horiz-adv-x="1168" arabic-form="isolated" 
d="M266 -240q-62 0 -107 30.5t-69.5 88t-24.5 137.5q0 62 10.5 125t30.5 111h83q-17 -43 -25.5 -102t-8.5 -134q0 -85 34 -131.5t96 -46.5h49q87 0 127.5 39.5t40.5 119.5v488h85v-215q32 75 73.5 125t93 75t110.5 25q113 0 171 -61.5t58 -192.5v-241h-506
q0 -121 -60 -180.5t-189 -59.5h-72zM1008 78v159q0 92 -40 135.5t-122 43.5q-51 0 -97.5 -28.5t-86.5 -84.5t-75 -141v-84h421z" />
    <glyph glyph-name="uni0636" unicode="&#x636;" horiz-adv-x="1168" arabic-form="isolated" 
d="M266 -240q-62 0 -107 30.5t-69.5 88t-24.5 137.5q0 62 10.5 125t30.5 111h83q-17 -43 -25.5 -102t-8.5 -134q0 -85 34 -131.5t96 -46.5h49q87 0 127.5 39.5t40.5 119.5v488h85v-215q32 75 73.5 125t93 75t110.5 25q113 0 171 -61.5t58 -192.5v-241h-506
q0 -121 -60 -180.5t-189 -59.5h-72zM1008 78v159q0 92 -40 135.5t-122 43.5q-51 0 -97.5 -28.5t-86.5 -84.5t-75 -141v-84h421zM835 620q-26 0 -41 15.5t-15 44.5t15 44.5t41 15.5q27 0 41.5 -16.5t14.5 -43.5t-14.5 -43.5t-41.5 -16.5z" />
    <glyph glyph-name="uni0637" unicode="&#x637;" horiz-adv-x="803" arabic-form="isolated" 
d="M25 0q-5 0 -5 5v69q0 4 5 4h122v682h85v-490q32 75 73.5 125t93 75t110.5 25q113 0 171 -61.5t58 -192.5v-241h-713zM232 78h421v159q0 92 -40 135.5t-122 43.5q-50 0 -96 -28t-86.5 -85t-76.5 -143v-82z" />
    <glyph glyph-name="uni0638" unicode="&#x638;" horiz-adv-x="803" arabic-form="isolated" 
d="M25 0q-5 0 -5 5v69q0 4 5 4h122v682h85v-490q32 75 73.5 125t93 75t110.5 25q113 0 171 -61.5t58 -192.5v-241h-713zM232 78h421v159q0 92 -40 135.5t-122 43.5q-50 0 -96 -28t-86.5 -85t-76.5 -143v-82zM523 590q-26 0 -41 15.5t-15 44.5t15 44.5t41 15.5
q27 0 41.5 -16.5t14.5 -43.5t-14.5 -43.5t-41.5 -16.5z" />
    <glyph glyph-name="uni0639" unicode="&#x639;" horiz-adv-x="535" arabic-form="isolated" 
d="M273 -321q-64 0 -111 22.5t-72 66t-25 104.5q0 37 14.5 71.5t43 66t71.5 59.5q-29 26 -49 56.5t-30 66.5t-10 76q0 72 32.5 122.5t88 77.5t125.5 27q29 0 54.5 -4t47.5 -10.5t37 -14.5l-27 -75q-31 13 -60 19.5t-57 6.5q-48 0 -81.5 -17t-51 -50t-17.5 -81q0 -34 7.5 -65
t21.5 -56t32 -42q41 20 84.5 37.5t87.5 30.5l24 -74q-44 -11 -83.5 -25.5t-74.5 -32.5q-70 -36 -104.5 -77t-34.5 -85q0 -65 37.5 -94.5t115.5 -29.5q17 0 38.5 1.5t49 5.5t59.5 9l11 -69q-47 -10 -80.5 -15t-60 -7t-53.5 -2z" />
    <glyph glyph-name="uni063A" unicode="&#x63a;" horiz-adv-x="535" arabic-form="isolated" 
d="M273 -321q-64 0 -111 22.5t-72 66t-25 104.5q0 37 14.5 71.5t43 66t71.5 59.5q-29 26 -49 56.5t-30 66.5t-10 76q0 72 32.5 122.5t88 77.5t125.5 27q29 0 54.5 -4t47.5 -10.5t37 -14.5l-27 -75q-31 13 -60 19.5t-57 6.5q-48 0 -81.5 -17t-51 -50t-17.5 -81q0 -34 7.5 -65
t21.5 -56t32 -42q41 20 84.5 37.5t87.5 30.5l24 -74q-44 -11 -83.5 -25.5t-74.5 -32.5q-70 -36 -104.5 -77t-34.5 -85q0 -65 37.5 -94.5t115.5 -29.5q17 0 38.5 1.5t49 5.5t59.5 9l11 -69q-47 -10 -80.5 -15t-60 -7t-53.5 -2zM309 588q-26 0 -41 15.5t-15 44.5t15 44.5
t41 15.5q27 0 41.5 -16.5t14.5 -43.5t-14.5 -43.5t-41.5 -16.5z" />
    <glyph glyph-name="uni0641" unicode="&#x641;" horiz-adv-x="1012" arabic-form="isolated" 
d="M252 0q-86 0 -136.5 52t-50.5 142q0 22 3 49.5t9 54t13 46.5h80q-7 -36 -11 -72t-4 -71q0 -55 26 -89t68 -34h325q-15 18 -27 42.5t-18.5 52.5t-6.5 56q0 78 33.5 135.5t95 89t145.5 31.5h131v-485h-675zM842 78v329h-43q-59 0 -101.5 -21t-64.5 -60.5t-22 -95.5
q0 -50 15.5 -84t46 -51t75.5 -17h94zM741 595q-26 0 -41 15.5t-15 44.5t15 44.5t41 15.5q27 0 41.5 -16.5t14.5 -43.5t-14.5 -43.5t-41.5 -16.5z" />
    <glyph glyph-name="uni0642" unicode="&#x642;" horiz-adv-x="876" arabic-form="isolated" 
d="M302 -240q-55 0 -99 16.5t-74.5 48.5t-47 76.5t-16.5 99.5q0 64 10.5 122.5t30.5 113.5h83q-17 -48 -25.5 -105.5t-8.5 -124.5q0 -81 43 -125t122 -44h202q98 0 141 38t43 117v7h-92q-74 0 -125 26t-77 77t-26 125q0 80 34 137.5t96 88.5t144 31h131v-491
q0 -117 -63 -175.5t-190 -58.5h-236zM706 78v329h-43q-59 0 -101.5 -21t-64.5 -61t-22 -96q0 -52 15 -85.5t45.5 -49.5t76.5 -16h94zM498 612q-23 0 -39.5 14t-16.5 46t16.5 46t39.5 14q26 0 41 -15.5t15 -44.5t-15 -44.5t-41 -15.5zM671 612q-26 0 -41 15.5t-15 44.5
t15 44.5t41 15.5q27 0 41.5 -16.5t14.5 -43.5t-14.5 -43.5t-41.5 -16.5z" />
    <glyph glyph-name="uni0643" unicode="&#x643;" horiz-adv-x="793" arabic-form="isolated" 
d="M252 0q-91 0 -139 46.5t-48 132.5q0 23 2.5 45.5t8.5 45t14 44.5h75q-7 -35 -11 -67t-4 -61q0 -50 26.5 -79t72.5 -29h359v682h85v-760h-441zM304 314v44h140v5q0 13 -7.5 18.5t-27.5 5.5h-85v36q14 32 45.5 59t62.5 36l17 -41q-17 -4 -36.5 -17.5t-33.5 -28.5h30
q38 0 59 -16.5t21 -48.5v-52h-185z" />
    <glyph glyph-name="uni0644" unicode="&#x644;" horiz-adv-x="687" arabic-form="isolated" 
d="M266 -240q-62 0 -107 30.5t-69.5 88t-24.5 137.5q0 42 4.5 84t14 81t22.5 71h83q-17 -43 -25.5 -102t-8.5 -134q0 -85 34 -131.5t96 -46.5h49q87 0 127.5 39.5t40.5 119.5v763h85v-756q0 -121 -60 -182.5t-189 -61.5h-72z" />
    <glyph glyph-name="uni0645" unicode="&#x645;" horiz-adv-x="649" arabic-form="isolated" 
d="M65 -58q0 42 13.5 72.5t41.5 47t71 16.5h3q-19 47 -28 90t-9 81q0 44 9 84t27 75q37 31 84.5 49t98.5 18q31 0 59 -6.5t51 -20.5q47 -28 72.5 -79t25.5 -115q0 -40 -7 -73.5t-21 -62.5q-28 -57 -80.5 -87.5t-119.5 -30.5h-136q-35 0 -53 -18t-18 -55v-247h-84v262z
M247 266q0 -46 8 -91t30 -97h71q45 0 75.5 20.5t46.5 60t16 96.5q0 63 -34.5 103t-83.5 40q-31 0 -60.5 -10.5t-56.5 -30.5q-9 -21 -10.5 -43t-1.5 -48z" />
    <glyph glyph-name="uni0646" unicode="&#x646;" horiz-adv-x="672" arabic-form="isolated" 
d="M266 -240q-39 0 -71 11.5t-57 33.5q-35 31 -54 81t-19 115q0 60 10.5 115.5t30.5 105.5h83q-17 -43 -25.5 -96.5t-8.5 -118.5q0 -81 33.5 -125t96.5 -44h49q87 0 127.5 39.5t40.5 119.5v488h85v-481q0 -121 -60 -182.5t-189 -61.5h-72zM325 451q-26 0 -41 15.5t-15 44.5
t15 44.5t41 15.5q27 0 41.5 -16.5t14.5 -43.5t-14.5 -43.5t-41.5 -16.5z" />
    <glyph glyph-name="uni0648" unicode="&#x648;" horiz-adv-x="561" arabic-form="isolated" 
d="M245 -240q-51 0 -96 13t-84 38l40 67q32 -17 66.5 -28.5t75.5 -11.5q68 0 106.5 36.5t38.5 96.5v29h-98q-107 0 -165 58.5t-58 169.5q0 79 33.5 136.5t95.5 89t145 31.5h131v-509q0 -102 -60.5 -159t-170.5 -57zM391 78v329h-43q-89 0 -138.5 -47t-49.5 -131
q0 -78 34 -114.5t103 -36.5h94z" />
    <glyph glyph-name="uni0649" unicode="&#x649;" horiz-adv-x="839" arabic-form="isolated" 
d="M266 -240q-62 0 -107.5 29.5t-69.5 83.5t-24 128q0 52 8.5 94t26.5 86h83q-16 -42 -22 -81.5t-6 -92.5q0 -54 15 -91.5t44 -57.5t71 -20h196q52 0 89 13t57 36t20 53q0 23 -18 44t-45.5 39.5t-56.5 35.5q-30 18 -51 32.5t-33 24.5q-16 14 -27 28t-16.5 30t-5.5 33
q0 30 11 61.5t33 64.5q30 44 69.5 78.5t83 54t84.5 19.5q23 0 48 -6.5t47 -15.5t34 -18l-36 -67q-8 4 -24 8t-32 6.5t-28 2.5q-21 0 -43 -7.5t-41 -19.5q-30 -19 -54 -43.5t-38.5 -50.5t-14.5 -50q0 -11 8.5 -24t25 -26.5t41.5 -28.5q37 -22 63 -41t42 -33q32 -29 48.5 -63
t16.5 -70q0 -84 -67 -131t-190 -47h-215z" />
    <glyph glyph-name="uni064A" unicode="&#x64a;" horiz-adv-x="839" arabic-form="isolated" 
d="M266 -240q-62 0 -107.5 29.5t-69.5 83.5t-24 128q0 52 8.5 94t26.5 86h83q-16 -42 -22 -81.5t-6 -92.5q0 -54 15 -91.5t44 -57.5t71 -20h196q52 0 89 13t57 36t20 53q0 23 -18 44t-45.5 39.5t-56.5 35.5q-30 18 -51 32.5t-33 24.5q-16 14 -27 28t-16.5 30t-5.5 33
q0 30 11 61.5t33 64.5q30 44 69.5 78.5t83 54t84.5 19.5q23 0 48 -6.5t47 -15.5t34 -18l-36 -67q-8 4 -24 8t-32 6.5t-28 2.5q-21 0 -43 -7.5t-41 -19.5q-30 -19 -54 -43.5t-38.5 -50.5t-14.5 -50q0 -11 8.5 -24t25 -26.5t41.5 -28.5q37 -22 63 -41t42 -33q32 -29 48.5 -63
t16.5 -70q0 -84 -67 -131t-190 -47h-215zM303 -448q-23 0 -39.5 14t-16.5 46t16.5 46t39.5 14q26 0 41 -15.5t15 -44.5t-15 -44.5t-41 -15.5zM476 -448q-26 0 -41 15.5t-15 44.5t15 44.5t41 15.5q27 0 41.5 -16.5t14.5 -43.5t-14.5 -43.5t-41.5 -16.5z" />
    <glyph glyph-name="uni0671" unicode="&#x671;" horiz-adv-x="289" arabic-form="isolated" 
d="M100 700h89v-700h-89v700zM10 824h46q17 51 45.5 76.5t66.5 25.5q41 0 63.5 -27t22.5 -75v-46h-244v46zM203 824q0 29 -8.5 42t-26.5 13t-33.5 -15.5t-23.5 -39.5h92z" />
    <glyph glyph-name="uni0677" unicode="&#x677;" horiz-adv-x="1051" arabic-form="isolated" 
d="M626 314q22 5 45 9t44 7q-28 19 -46 56t-18 81q0 59 26 103q26 43 72.5 66t108.5 23q36 0 66 -7.5t55 -21.5l-22 -75q-25 13 -49 19.5t-48 6.5q-58 0 -88.5 -30.5t-30.5 -89.5q0 -38 17.5 -68.5t45.5 -44.5l22 3q51 7 88 11t61.5 6t35.5 2v-81q-20 0 -58.5 -3.5t-86 -9
t-95.5 -12t-86.5 -12.5t-58.5 -11v73zM245 -240q-51 0 -96 13t-84 38l40 67q32 -17 66.5 -28.5t75.5 -11.5q68 0 106.5 36.5t38.5 96.5v29h-98q-107 0 -165 58.5t-58 169.5q0 79 33.5 136.5t95.5 89t145 31.5h131v-509q0 -102 -60.5 -159t-170.5 -57zM391 78v329h-43
q-89 0 -138.5 -47t-49.5 -131q0 -78 34 -114.5t103 -36.5h94zM260 556l-23 34q23 14 42 26.5t33.5 23.5t21.5 20q-33 11 -54 33.5t-21 47.5q0 29 24 51.5t55 22.5q28 0 45 -23.5t17 -57.5q0 -31 -10.5 -56.5t-29.5 -47.5t-44.5 -40t-55.5 -34z" />
    <glyph glyph-name="uni0679" unicode="&#x679;" horiz-adv-x="778" arabic-form="isolated" 
d="M252 0q-86 0 -136.5 52t-50.5 142q0 22 3 49.5t9 54t13 46.5h80q-7 -36 -11 -72t-4 -71q0 -55 26 -89t68 -34h359v407h85v-485h-441zM278 549h15v182h40v-127q12 29 30.5 47t47.5 18q37 0 55.5 -21.5t18.5 -65.5v-76h-207v43zM445 549v25q0 26 -9 39t-30 13
q-23 0 -41 -16t-32 -51v-10h112z" />
    <glyph glyph-name="uni067A" unicode="&#x67a;" horiz-adv-x="778" arabic-form="isolated" 
d="M252 0q-86 0 -136.5 52t-50.5 142q0 22 3 49.5t9 54t13 46.5h80q-7 -36 -11 -72t-4 -71q0 -55 26 -89t68 -34h359v407h85v-485h-441zM382 473q-26 0 -41 15.5t-15 44.5t15 44.5t41 15.5q27 0 41.5 -16.5t14.5 -43.5t-14.5 -43.5t-41.5 -16.5zM382 654q-26 0 -41 15.5
t-15 44.5t15 44.5t41 15.5q27 0 41.5 -16.5t14.5 -43.5t-14.5 -43.5t-41.5 -16.5z" />
    <glyph glyph-name="uni067B" unicode="&#x67b;" horiz-adv-x="778" arabic-form="isolated" 
d="M252 0q-86 0 -136.5 52t-50.5 142q0 22 3 49.5t9 54t13 46.5h80q-7 -36 -11 -72t-4 -71q0 -55 26 -89t68 -34h359v407h85v-485h-441zM391 -354q-26 0 -41 15.5t-15 44.5t15 44.5t41 15.5t41 -16t15 -44q0 -27 -14.5 -43.5t-41.5 -16.5zM391 -173q-26 0 -41 15.5t-15 44.5
t15 44.5t41 15.5q27 0 41.5 -16.5t14.5 -43.5t-14.5 -43.5t-41.5 -16.5z" />
    <glyph glyph-name="uni067E" unicode="&#x67e;" horiz-adv-x="778" arabic-form="isolated" 
d="M252 0q-86 0 -136.5 52t-50.5 142q0 22 3 49.5t9 54t13 46.5h80q-7 -36 -11 -72t-4 -71q0 -55 26 -89t68 -34h359v407h85v-485h-441zM394 -371q-22 0 -37 13t-15 42t15 42t37 13q21 0 36.5 -13t15.5 -42t-15.5 -42t-36.5 -13zM308 -249q-23 0 -39.5 14t-16.5 46
q0 31 16.5 45.5t39.5 14.5q26 0 41 -16t15 -44q0 -27 -14.5 -43.5t-41.5 -16.5zM481 -249q-26 0 -41 15.5t-15 44.5t15 44.5t41 15.5t41 -16t15 -44q0 -27 -14.5 -43.5t-41.5 -16.5z" />
    <glyph glyph-name="uni067F" unicode="&#x67f;" horiz-adv-x="778" arabic-form="isolated" 
d="M252 0q-86 0 -136.5 52t-50.5 142q0 22 3 49.5t9 54t13 46.5h80q-7 -36 -11 -72t-4 -71q0 -55 26 -89t68 -34h359v407h85v-485h-441zM303 469q-24 0 -37.5 14t-13.5 40q0 28 15 41t36 13q20 0 35 -12.5t15 -41.5q0 -26 -13.5 -40t-36.5 -14zM458 469q-21 0 -35.5 12.5
t-14.5 41.5t14.5 41.5t35.5 12.5q23 0 37 -14.5t14 -39.5t-13.5 -39.5t-37.5 -14.5zM303 636q-24 0 -37.5 14t-13.5 40q0 28 15 41t36 13q20 0 35 -12.5t15 -41.5q0 -26 -13.5 -40t-36.5 -14zM458 636q-21 0 -35.5 12.5t-14.5 41.5t14.5 41.5t35.5 12.5q23 0 37 -14.5
t14 -39.5t-13.5 -39.5t-37.5 -14.5z" />
    <glyph glyph-name="uni0680" unicode="&#x680;" horiz-adv-x="778" arabic-form="isolated" 
d="M252 0q-86 0 -136.5 52t-50.5 142q0 22 3 49.5t9 54t13 46.5h80q-7 -36 -11 -72t-4 -71q0 -55 26 -89t68 -34h359v407h85v-485h-441zM312 -365q-24 0 -37.5 14t-13.5 40q0 28 15 41t36 13q20 0 35 -12.5t15 -41.5q0 -26 -13.5 -40t-36.5 -14zM467 -365q-21 0 -35.5 12.5
t-14.5 41.5t14.5 41.5t35.5 12.5q23 0 37 -14.5t14 -39.5t-13.5 -39.5t-37.5 -14.5zM312 -198q-24 0 -37.5 14t-13.5 40q0 28 15 41t36 13q20 0 35 -12.5t15 -41.5q0 -26 -13.5 -40t-36.5 -14zM467 -198q-21 0 -35.5 12.5t-14.5 41.5t14.5 41.5t35.5 12.5q23 0 37 -14.5
t14 -39.5t-13.5 -39.5t-37.5 -14.5z" />
    <glyph glyph-name="uni0683" unicode="&#x683;" horiz-adv-x="644" arabic-form="isolated" 
d="M526 12q-27 22 -46 42t-33 46q-84 -22 -144 -47t-95 -51q-36 -26 -54 -56.5t-18 -65.5q0 -62 34 -93t102 -31l-19 -77q-64 0 -111 22.5t-72 66t-25 104.5q0 32 9.5 61t27.5 55q25 36 67 66.5t108.5 59.5t162.5 57q-4 13 -9 35.5t-10 54.5q-13 79 -49 117.5t-97 38.5
q-36 0 -86 -14.5t-89 -35.5l-35 69q38 25 96.5 42t114.5 17q95 0 151.5 -52.5t72.5 -158.5q8 -52 21 -91t32.5 -66.5t45.5 -45.5zM352 -239q-23 0 -39.5 14t-16.5 46t16.5 46t39.5 14q26 0 41 -15.5t15 -44.5t-15 -44.5t-41 -15.5zM525 -239q-26 0 -41 15.5t-15 44.5
t15 44.5t41 15.5q27 0 41.5 -16.5t14.5 -43.5t-14.5 -43.5t-41.5 -16.5z" />
    <glyph glyph-name="uni0684" unicode="&#x684;" horiz-adv-x="644" arabic-form="isolated" 
d="M526 12q-27 22 -46 42t-33 46q-84 -22 -144 -47t-95 -51q-36 -26 -54 -56.5t-18 -65.5q0 -62 34 -93t102 -31l-19 -77q-64 0 -111 22.5t-72 66t-25 104.5q0 32 9.5 61t27.5 55q25 36 67 66.5t108.5 59.5t162.5 57q-4 13 -9 35.5t-10 54.5q-13 79 -49 117.5t-97 38.5
q-36 0 -86 -14.5t-89 -35.5l-35 69q38 25 96.5 42t114.5 17q95 0 151.5 -52.5t72.5 -158.5q8 -52 21 -91t32.5 -66.5t45.5 -45.5zM439 -330q-26 0 -41 15.5t-15 44.5t15 44.5t41 15.5q27 0 41.5 -16.5t14.5 -43.5t-14.5 -43.5t-41.5 -16.5zM439 -149q-26 0 -41 15.5
t-15 44.5t15 44.5t41 15.5q27 0 41.5 -16.5t14.5 -43.5t-14.5 -43.5t-41.5 -16.5z" />
    <glyph glyph-name="uni0686" unicode="&#x686;" horiz-adv-x="644" arabic-form="isolated" 
d="M526 12q-27 22 -46 42t-33 46q-84 -22 -144 -47t-95 -51q-36 -26 -54 -56.5t-18 -65.5q0 -62 34 -93t102 -31l-19 -77q-64 0 -111 22.5t-72 66t-25 104.5q0 32 9.5 61t27.5 55q25 36 67 66.5t108.5 59.5t162.5 57q-4 13 -9 35.5t-10 54.5q-13 79 -49 117.5t-97 38.5
q-36 0 -86 -14.5t-89 -35.5l-35 69q38 25 96.5 42t114.5 17q95 0 151.5 -52.5t72.5 -158.5q8 -52 21 -91t32.5 -66.5t45.5 -45.5zM439 -192q22 0 37 -13t15 -42t-15 -42t-37 -13q-21 0 -36.5 13t-15.5 42t15.5 42t36.5 13zM525 -57q23 0 39.5 -14t16.5 -46t-16.5 -46
t-39.5 -14q-27 0 -41.5 16.5t-14.5 43.5q0 28 14.5 44t41.5 16zM352 -57q26 0 41 -15.5t15 -44.5t-15 -44.5t-41 -15.5t-41 15.5t-15 44.5t15 44.5t41 15.5z" />
    <glyph glyph-name="uni0687" unicode="&#x687;" horiz-adv-x="644" arabic-form="isolated" 
d="M526 12q-27 22 -46 42t-33 46q-84 -22 -144 -47t-95 -51q-36 -26 -54 -56.5t-18 -65.5q0 -62 34 -93t102 -31l-19 -77q-64 0 -111 22.5t-72 66t-25 104.5q0 32 9.5 61t27.5 55q25 36 67 66.5t108.5 59.5t162.5 57q-4 13 -9 35.5t-10 54.5q-13 79 -49 117.5t-97 38.5
q-36 0 -86 -14.5t-89 -35.5l-35 69q38 25 96.5 42t114.5 17q95 0 151.5 -52.5t72.5 -158.5q8 -52 21 -91t32.5 -66.5t45.5 -45.5zM361 -317q-24 0 -37.5 14t-13.5 40q0 28 15 41t36 13q20 0 35 -12.5t15 -41.5q0 -26 -13.5 -40t-36.5 -14zM516 -317q-21 0 -35.5 12.5
t-14.5 41.5t14.5 41.5t35.5 12.5q23 0 37 -14.5t14 -39.5t-13.5 -39.5t-37.5 -14.5zM361 -150q-24 0 -37.5 14t-13.5 40q0 28 15 41t36 13q20 0 35 -12.5t15 -41.5q0 -26 -13.5 -40t-36.5 -14zM516 -150q-21 0 -35.5 12.5t-14.5 41.5t14.5 41.5t35.5 12.5q23 0 37 -14.5
t14 -39.5t-13.5 -39.5t-37.5 -14.5z" />
    <glyph glyph-name="uni0688" unicode="&#x688;" horiz-adv-x="509" arabic-form="isolated" 
d="M45 78h333q-5 38 -13.5 72t-19.5 65q-28 80 -76.5 143t-122.5 112l32 76q77 -40 134.5 -106t96 -157t55.5 -207v-76h-419v78zM65 696h15v182h40v-127q12 29 30.5 47t47.5 18q37 0 55.5 -21.5t18.5 -65.5v-76h-207v43zM232 696v25q0 26 -9 39t-30 13q-23 0 -41 -16
t-32 -51v-10h112z" />
    <glyph glyph-name="uni068C" unicode="&#x68c;" horiz-adv-x="509" arabic-form="isolated" 
d="M45 78h333q-5 38 -13.5 72t-19.5 65q-28 80 -76.5 143t-122.5 112l32 76q77 -40 134.5 -106t96 -157t55.5 -207v-76h-419v78zM81 642q-23 0 -39.5 14t-16.5 46t16.5 46t39.5 14q26 0 41 -15.5t15 -44.5t-15 -44.5t-41 -15.5zM254 642q-26 0 -41 15.5t-15 44.5t15 44.5
t41 15.5q27 0 41.5 -16.5t14.5 -43.5t-14.5 -43.5t-41.5 -16.5z" />
    <glyph glyph-name="uni068D" unicode="&#x68d;" horiz-adv-x="509" arabic-form="isolated" 
d="M45 78h333q-5 38 -13.5 72t-19.5 65q-28 80 -76.5 143t-122.5 112l32 76q77 -40 134.5 -106t96 -157t55.5 -207v-76h-419v78zM180 -204q-23 0 -39.5 14t-16.5 46t16.5 46t39.5 14q26 0 41 -15.5t15 -44.5t-15 -44.5t-41 -15.5zM353 -204q-26 0 -41 15.5t-15 44.5t15 44.5
t41 15.5q27 0 41.5 -16.5t14.5 -43.5t-14.5 -43.5t-41.5 -16.5z" />
    <glyph glyph-name="uni068E" unicode="&#x68e;" horiz-adv-x="509" arabic-form="isolated" 
d="M45 78h333q-5 38 -13.5 72t-19.5 65q-28 80 -76.5 143t-122.5 112l32 76q77 -40 134.5 -106t96 -157t55.5 -207v-76h-419v78zM169 766q-22 0 -37 13t-15 42t15 42t37 13q21 0 36.5 -13.5t15.5 -41.5q0 -29 -15.5 -42t-36.5 -13zM83 631q-23 0 -39.5 14t-16.5 46t16.5 46
t39.5 14q27 0 41.5 -16.5t14.5 -43.5t-14.5 -43.5t-41.5 -16.5zM256 631q-26 0 -41 15.5t-15 44.5t15 44.5t41 15.5q27 0 41.5 -16.5t14.5 -43.5t-14.5 -43.5t-41.5 -16.5z" />
    <glyph glyph-name="uni0691" unicode="&#x691;" horiz-adv-x="325" arabic-form="isolated" 
d="M62 -240q-24 0 -49.5 7t-52.5 21l26 67q24 -11 40 -14t34 -3q45 0 70.5 36.5t25.5 96.5v514h84v-509q0 -67 -20.5 -115.5t-60 -74.5t-97.5 -26zM87 670h15v182h40v-127q12 29 30.5 47t47.5 18q37 0 55.5 -21.5t18.5 -65.5v-76h-207v43zM254 670v25q0 26 -9 39t-30 13
q-23 0 -41 -16t-32 -51v-10h112z" />
    <glyph glyph-name="uni0698" unicode="&#x698;" horiz-adv-x="325" arabic-form="isolated" 
d="M62 -240q-24 0 -49.5 7t-52.5 21l26 67q24 -11 40 -14t34 -3q45 0 70.5 36.5t25.5 96.5v514h84v-509q0 -67 -20.5 -115.5t-60 -74.5t-97.5 -26zM191 740q-22 0 -37 13t-15 42t15 42t37 13q21 0 36.5 -13.5t15.5 -41.5q0 -29 -15.5 -42t-36.5 -13zM105 605q-23 0 -39.5 14
t-16.5 46t16.5 46t39.5 14q27 0 41.5 -16.5t14.5 -43.5t-14.5 -43.5t-41.5 -16.5zM278 605q-26 0 -41 15.5t-15 44.5t15 44.5t41 15.5q27 0 41.5 -16.5t14.5 -43.5t-14.5 -43.5t-41.5 -16.5z" />
    <glyph glyph-name="uni06A4" unicode="&#x6a4;" horiz-adv-x="1012" arabic-form="isolated" 
d="M252 0q-86 0 -136.5 52t-50.5 142q0 22 3 49.5t9 54t13 46.5h80q-7 -36 -11 -72t-4 -71q0 -55 26 -89t68 -34h325q-15 18 -27 42.5t-18.5 52.5t-6.5 56q0 78 33.5 135.5t95 89t145.5 31.5h131v-485h-675zM842 78v329h-43q-59 0 -101.5 -21t-64.5 -60.5t-22 -95.5
q0 -50 15.5 -84t46 -51t75.5 -17h94zM736 731q-22 0 -37 13t-15 42t15 42t37 13q21 0 36.5 -13.5t15.5 -41.5q0 -29 -15.5 -42t-36.5 -13zM650 596q-23 0 -39.5 14t-16.5 46t16.5 46t39.5 14q27 0 41.5 -16.5t14.5 -43.5t-14.5 -43.5t-41.5 -16.5zM823 596q-26 0 -41 15.5
t-15 44.5t15 44.5t41 15.5q27 0 41.5 -16.5t14.5 -43.5t-14.5 -43.5t-41.5 -16.5z" />
    <glyph glyph-name="uni06A6" unicode="&#x6a6;" horiz-adv-x="1012" arabic-form="isolated" 
d="M252 0q-86 0 -136.5 52t-50.5 142q0 22 3 49.5t9 54t13 46.5h80q-7 -36 -11 -72t-4 -71q0 -55 26 -89t68 -34h325q-15 18 -27 42.5t-18.5 52.5t-6.5 56q0 78 33.5 135.5t95 89t145.5 31.5h131v-485h-675zM842 78v329h-43q-59 0 -101.5 -21t-64.5 -60.5t-22 -95.5
q0 -50 15.5 -84t46 -51t75.5 -17h94zM657 581q-24 0 -37.5 14t-13.5 40q0 28 15 41t36 13q20 0 35 -12.5t15 -41.5q0 -26 -13.5 -40t-36.5 -14zM812 581q-21 0 -35.5 12.5t-14.5 41.5t14.5 41.5t35.5 12.5q23 0 37 -14.5t14 -39.5t-13.5 -39.5t-37.5 -14.5zM657 748
q-24 0 -37.5 14t-13.5 40q0 28 15 41t36 13q20 0 35 -12.5t15 -41.5q0 -26 -13.5 -40t-36.5 -14zM812 748q-21 0 -35.5 12.5t-14.5 41.5t14.5 41.5t35.5 12.5q23 0 37 -14.5t14 -39.5t-13.5 -39.5t-37.5 -14.5z" />
    <glyph glyph-name="uni06A9" unicode="&#x6a9;" horiz-adv-x="808" arabic-form="isolated" 
d="M252 0q-91 0 -139 46.5t-48 132.5q0 26 5.5 63.5t14.5 71.5h80q-7 -41 -11 -72.5t-4 -52.5q0 -52 26.5 -81.5t72.5 -29.5h399v184q0 75 -45 110t-139 35h-170v82q33 68 89 132.5t124.5 115.5t138.5 77l32 -76q-45 -18 -91.5 -46t-87.5 -63t-73 -72t-49 -72h87
q131 0 200 -54t69 -154v-277h-481z" />
    <glyph glyph-name="uni06AD" unicode="&#x6ad;" horiz-adv-x="793" arabic-form="isolated" 
d="M252 0q-91 0 -139 46.5t-48 132.5q0 23 2.5 45.5t8.5 45t14 44.5h75q-7 -35 -11 -67t-4 -61q0 -50 26.5 -79t72.5 -29h359v682h85v-760h-441zM304 314v44h140v5q0 13 -7.5 18.5t-27.5 5.5h-85v36q14 32 45.5 59t62.5 36l17 -41q-17 -4 -36.5 -17.5t-33.5 -28.5h30
q38 0 59 -16.5t21 -48.5v-52h-185zM399 706q-16 0 -27 9t-11 31q0 21 11 30.5t27 9.5t27 -10t11 -30q0 -22 -11 -31t-27 -9zM336 591q-16 0 -28 10.5t-12 33.5t12 33.5t28 10.5q20 0 30.5 -12t10.5 -32q0 -19 -10.5 -31.5t-30.5 -12.5zM463 591q-19 0 -30 11.5t-11 32.5
t11 32.5t30 11.5q20 0 30 -12t10 -32q0 -19 -10 -31.5t-30 -12.5z" />
    <glyph glyph-name="uni06AF" unicode="&#x6af;" horiz-adv-x="808" arabic-form="isolated" 
d="M252 0q-91 0 -139 46.5t-48 132.5q0 26 5.5 63.5t14.5 71.5h80q-7 -41 -11 -72.5t-4 -52.5q0 -52 26.5 -81.5t72.5 -29.5h399v184q0 75 -45 110t-139 35h-170v82q33 68 89 132.5t124.5 115.5t138.5 77l32 -76q-45 -18 -91.5 -46t-87.5 -63t-73 -72t-49 -72h87
q131 0 200 -54t69 -154v-277h-481zM268 639q17 33 51 73t79 80t95 73t98 53l29 -67q-45 -16 -93 -46.5t-93.5 -69.5t-82 -79t-56.5 -76z" />
    <glyph glyph-name="uni06B1" unicode="&#x6b1;" horiz-adv-x="808" arabic-form="isolated" 
d="M252 0q-91 0 -139 46.5t-48 132.5q0 26 5.5 63.5t14.5 71.5h80q-7 -41 -11 -72.5t-4 -52.5q0 -52 26.5 -81.5t72.5 -29.5h399v184q0 75 -45 110t-139 35h-170v82q33 68 89 132.5t124.5 115.5t138.5 77l32 -76q-45 -18 -91.5 -46t-87.5 -63t-73 -72t-49 -72h87
q131 0 200 -54t69 -154v-277h-481zM268 639q17 33 51 73t79 80t95 73t98 53l29 -67q-45 -16 -93 -46.5t-93.5 -69.5t-82 -79t-56.5 -76zM274 772q-11 0 -20 4.5t-14 14t-5 23.5q0 22 11 32t28 10q11 0 19.5 -4.5t14 -13.5t5.5 -24q0 -22 -11.5 -32t-27.5 -10zM375 855
q-10 0 -19 4.5t-14.5 14t-5.5 23.5q0 22 11.5 32t27.5 10t27.5 -10t11.5 -32t-11.5 -32t-27.5 -10z" />
    <glyph glyph-name="uni06B3" unicode="&#x6b3;" horiz-adv-x="808" arabic-form="isolated" 
d="M252 0q-91 0 -139 46.5t-48 132.5q0 26 5.5 63.5t14.5 71.5h80q-7 -41 -11 -72.5t-4 -52.5q0 -52 26.5 -81.5t72.5 -29.5h399v184q0 75 -45 110t-139 35h-170v82q33 68 89 132.5t124.5 115.5t138.5 77l32 -76q-45 -18 -91.5 -46t-87.5 -63t-73 -72t-49 -72h87
q131 0 200 -54t69 -154v-277h-481zM268 639q17 33 51 73t79 80t95 73t98 53l29 -67q-45 -16 -93 -46.5t-93.5 -69.5t-82 -79t-56.5 -76zM401 -379q-26 0 -41 15.5t-15 44.5t15 44.5t41 15.5t41 -16t15 -44q0 -27 -14.5 -43.5t-41.5 -16.5zM401 -198q-26 0 -41 15.5t-15 44.5
t15 44.5t41 15.5q27 0 41.5 -16.5t14.5 -43.5t-14.5 -43.5t-41.5 -16.5z" />
    <glyph glyph-name="uni06BA" unicode="&#x6ba;" horiz-adv-x="672" arabic-form="isolated" 
d="M266 -240q-39 0 -71 11.5t-57 33.5q-35 31 -54 81t-19 115q0 60 10.5 115.5t30.5 105.5h83q-17 -43 -25.5 -96.5t-8.5 -118.5q0 -81 33.5 -125t96.5 -44h49q87 0 127.5 39.5t40.5 119.5v488h85v-481q0 -121 -60 -182.5t-189 -61.5h-72z" />
    <glyph glyph-name="uni06BB" unicode="&#x6bb;" horiz-adv-x="672" arabic-form="isolated" 
d="M266 -240q-39 0 -71 11.5t-57 33.5q-35 31 -54 81t-19 115q0 60 10.5 115.5t30.5 105.5h83q-17 -43 -25.5 -96.5t-8.5 -118.5q0 -81 33.5 -125t96.5 -44h49q87 0 127.5 39.5t40.5 119.5v488h85v-481q0 -121 -60 -182.5t-189 -61.5h-72zM216 517h15v182h40v-127
q12 29 30.5 47t47.5 18q37 0 55.5 -21.5t18.5 -65.5v-76h-207v43zM383 517v25q0 26 -9 39t-30 13q-23 0 -41 -16t-32 -51v-10h112z" />
    <glyph glyph-name="uni06BE" unicode="&#x6be;" horiz-adv-x="806" arabic-form="isolated" 
d="M65 0v78h115q-32 21 -51 58.5t-19 84.5q0 31 7 57.5t20 49.5q26 46 72.5 71.5t101.5 25.5q65 0 108 -24t64.5 -71.5t21.5 -119.5v-132h131v196q0 137 -62 201t-193 64q-48 0 -94.5 -7.5t-90.5 -21.5l-23 77q32 11 65.5 17.5t69 10t73.5 3.5q162 0 251 -87.5t89 -248.5
v-282h-656zM338 78h82v117q0 73 -28 107.5t-85 34.5q-51 0 -79.5 -31t-28.5 -88q0 -42 17.5 -73.5t48.5 -49t73 -17.5z" />
    <glyph glyph-name="uni06C0" unicode="&#x6c0;" horiz-adv-x="597" arabic-form="isolated" 
d="M297 -10q-110 0 -171 60.5t-61 171.5q0 37 7.5 71t23.5 66q30 63 84 99.5t120 36.5q31 0 60 -9t56 -28q36 -25 62 -62.5t40 -82t14 -91.5q0 -113 -59 -172.5t-176 -59.5zM299 67q71 0 107 38.5t36 115.5q0 61 -17 105t-49 68t-78 24q-40 0 -72.5 -25t-51.5 -69t-19 -103
q0 -77 36 -115.5t108 -38.5zM170 589l47 7q-17 11 -26 27t-9 36q0 43 28 66.5t74 23.5q39 0 66 -15l-15 -45q-10 6 -22.5 9t-27.5 3q-22 0 -37 -12.5t-15 -38.5q0 -17 8.5 -29t21.5 -18q20 4 40 6.5t36.5 4.5t23.5 2v-49q-19 -1 -41 -3.5t-47 -5.5t-51.5 -7t-53.5 -8v46z
" />
    <glyph glyph-name="uni06C1" unicode="&#x6c1;" horiz-adv-x="597" arabic-form="isolated" 
d="M297 -10q-110 0 -171 60.5t-61 171.5q0 37 7.5 71t23.5 66q30 63 84 99.5t120 36.5q31 0 60 -9t56 -28q36 -25 62 -62.5t40 -82t14 -91.5q0 -113 -59 -172.5t-176 -59.5zM299 67q71 0 107 38.5t36 115.5q0 61 -17 105t-49 68t-78 24q-40 0 -72.5 -25t-51.5 -69t-19 -103
q0 -77 36 -115.5t108 -38.5z" />
    <glyph glyph-name="uni06C5" unicode="&#x6c5;" horiz-adv-x="561" arabic-form="isolated" 
d="M391 78v329h-43q-89 0 -138.5 -47t-49.5 -131q0 -78 34 -114.5t103 -36.5h94zM259 -257q29 23 60 56t52 71.5t21 79.5v50h-98q-107 0 -165 58.5t-58 169.5q0 79 33.5 136.5t95.5 89t145 31.5h131v-529q0 -47 -17 -91.5t-52.5 -89.5t-92.5 -95zM374 -156l-41 15
q-28 11 -45 15.5t-34 4.5q-10 0 -24 -3.5t-31 -11.5l-25 37q26 20 43.5 28t37.5 8q12 0 27.5 -3.5t34.5 -10.5q29 -10 48 -16t27 -7z" />
    <glyph glyph-name="uni06C6" unicode="&#x6c6;" horiz-adv-x="561" arabic-form="isolated" 
d="M245 -240q-51 0 -96 13t-84 38l40 67q32 -17 66.5 -28.5t75.5 -11.5q68 0 106.5 36.5t38.5 96.5v29h-98q-107 0 -165 58.5t-58 169.5q0 79 33.5 136.5t95.5 89t145 31.5h131v-509q0 -102 -60.5 -159t-170.5 -57zM391 78v329h-43q-89 0 -138.5 -47t-49.5 -131
q0 -78 34 -114.5t103 -36.5h94zM460 775l-110 -199h-62l-111 199h78l63 -129l65 129h77z" />
    <glyph glyph-name="uni06C7" unicode="&#x6c7;" horiz-adv-x="561" arabic-form="isolated" 
d="M245 -240q-51 0 -96 13t-84 38l40 67q32 -17 66.5 -28.5t75.5 -11.5q68 0 106.5 36.5t38.5 96.5v29h-98q-107 0 -165 58.5t-58 169.5q0 79 33.5 136.5t95.5 89t145 31.5h131v-509q0 -102 -60.5 -159t-170.5 -57zM391 78v329h-43q-89 0 -138.5 -47t-49.5 -131
q0 -78 34 -114.5t103 -36.5h94zM260 556l-23 34q23 14 42 26.5t33.5 23.5t21.5 20q-33 11 -54 33.5t-21 47.5q0 29 24 51.5t55 22.5q28 0 45 -23.5t17 -57.5q0 -31 -10.5 -56.5t-29.5 -47.5t-44.5 -40t-55.5 -34z" />
    <glyph glyph-name="uni06C8" unicode="&#x6c8;" horiz-adv-x="561" arabic-form="isolated" 
d="M245 -240q-51 0 -96 13t-84 38l40 67q32 -17 66.5 -28.5t75.5 -11.5q68 0 106.5 36.5t38.5 96.5v29h-98q-107 0 -165 58.5t-58 169.5q0 79 33.5 136.5t95.5 89t145 31.5h131v-509q0 -102 -60.5 -159t-170.5 -57zM391 78v329h-43q-89 0 -138.5 -47t-49.5 -131
q0 -78 34 -114.5t103 -36.5h94zM260 760h57v-194h-57v194z" />
    <glyph glyph-name="uni06C9" unicode="&#x6c9;" horiz-adv-x="561" arabic-form="isolated" 
d="M245 -240q-51 0 -96 13t-84 38l40 67q32 -17 66.5 -28.5t75.5 -11.5q68 0 106.5 36.5t38.5 96.5v29h-98q-107 0 -165 58.5t-58 169.5q0 79 33.5 136.5t95.5 89t145 31.5h131v-509q0 -102 -60.5 -159t-170.5 -57zM391 78v329h-43q-89 0 -138.5 -47t-49.5 -131
q0 -78 34 -114.5t103 -36.5h94zM188 576l110 199h42l111 -199h-68l-63 129l-65 -129h-67z" />
    <glyph glyph-name="uni06CB" unicode="&#x6cb;" horiz-adv-x="561" arabic-form="isolated" 
d="M245 -240q-51 0 -96 13t-84 38l40 67q32 -17 66.5 -28.5t75.5 -11.5q68 0 106.5 36.5t38.5 96.5v29h-98q-107 0 -165 58.5t-58 169.5q0 79 33.5 136.5t95.5 89t145 31.5h131v-509q0 -102 -60.5 -159t-170.5 -57zM391 78v329h-43q-89 0 -138.5 -47t-49.5 -131
q0 -78 34 -114.5t103 -36.5h94zM319 726q-22 0 -37 13t-15 42t15 42t37 13q21 0 36.5 -13.5t15.5 -41.5q0 -29 -15.5 -42t-36.5 -13zM233 591q-23 0 -39.5 14t-16.5 46t16.5 46t39.5 14q27 0 41.5 -16.5t14.5 -43.5t-14.5 -43.5t-41.5 -16.5zM406 591q-26 0 -41 15.5
t-15 44.5t15 44.5t41 15.5q27 0 41.5 -16.5t14.5 -43.5t-14.5 -43.5t-41.5 -16.5z" />
    <glyph glyph-name="uni06CC" unicode="&#x6cc;" horiz-adv-x="839" arabic-form="isolated" 
d="M266 -240q-62 0 -107.5 29.5t-69.5 83.5t-24 128q0 52 8.5 94t26.5 86h83q-16 -42 -22 -81.5t-6 -92.5q0 -54 15 -91.5t44 -57.5t71 -20h196q52 0 89 13t57 36t20 53q0 23 -18 44t-45.5 39.5t-56.5 35.5q-30 18 -51 32.5t-33 24.5q-16 14 -27 28t-16.5 30t-5.5 33
q0 30 11 61.5t33 64.5q30 44 69.5 78.5t83 54t84.5 19.5q23 0 48 -6.5t47 -15.5t34 -18l-36 -67q-8 4 -24 8t-32 6.5t-28 2.5q-21 0 -43 -7.5t-41 -19.5q-30 -19 -54 -43.5t-38.5 -50.5t-14.5 -50q0 -11 8.5 -24t25 -26.5t41.5 -28.5q37 -22 63 -41t42 -33q32 -29 48.5 -63
t16.5 -70q0 -84 -67 -131t-190 -47h-215z" />
    <glyph glyph-name="uni06D0" unicode="&#x6d0;" horiz-adv-x="839" arabic-form="isolated" 
d="M266 -240q-62 0 -107.5 29.5t-69.5 83.5t-24 128q0 52 8.5 94t26.5 86h83q-16 -42 -22 -81.5t-6 -92.5q0 -54 15 -91.5t44 -57.5t71 -20h196q52 0 89 13t57 36t20 53q0 23 -18 44t-45.5 39.5t-56.5 35.5q-30 18 -51 32.5t-33 24.5q-16 14 -27 28t-16.5 30t-5.5 33
q0 30 11 61.5t33 64.5q30 44 69.5 78.5t83 54t84.5 19.5q23 0 48 -6.5t47 -15.5t34 -18l-36 -67q-8 4 -24 8t-32 6.5t-28 2.5q-21 0 -43 -7.5t-41 -19.5q-30 -19 -54 -43.5t-38.5 -50.5t-14.5 -50q0 -11 8.5 -24t25 -26.5t41.5 -28.5q37 -22 63 -41t42 -33q32 -29 48.5 -63
t16.5 -70q0 -84 -67 -131t-190 -47h-215zM391 -633q-26 0 -41 15.5t-15 44.5t15 44.5t41 15.5t41 -16t15 -44q0 -27 -14.5 -43.5t-41.5 -16.5zM391 -452q-26 0 -41 15.5t-15 44.5t15 44.5t41 15.5q27 0 41.5 -16.5t14.5 -43.5t-14.5 -43.5t-41.5 -16.5z" />
    <glyph glyph-name="uni06D2" unicode="&#x6d2;" horiz-adv-x="577" arabic-form="isolated" 
d="M196 -203q-72 0 -111.5 33.5t-39.5 95.5q0 20 4.5 37.5t14.5 32.5q15 23 39 42t59.5 37t83.5 37q38 16 64 28.5t40 22.5q27 19 37.5 43t10.5 70v39h89v-39q0 -58 -15 -94q-10 -24 -28.5 -44t-52.5 -40t-93 -44q-43 -17 -71 -29.5t-42 -21.5q-28 -18 -39.5 -34t-11.5 -43
q0 -22 16.5 -36.5t43.5 -14.5h468v-78h-466z" />
    <glyph glyph-name="uni06D3" unicode="&#x6d3;" horiz-adv-x="577" arabic-form="isolated" 
d="M196 -203q-72 0 -111.5 33.5t-39.5 95.5q0 20 4.5 37.5t14.5 32.5q15 23 39 42t59.5 37t83.5 37q38 16 64 28.5t40 22.5q27 19 37.5 43t10.5 70v39h89v-39q0 -58 -15 -94q-10 -24 -28.5 -44t-52.5 -40t-93 -44q-43 -17 -71 -29.5t-42 -21.5q-28 -18 -39.5 -34t-11.5 -43
q0 -22 16.5 -36.5t43.5 -14.5h468v-78h-466zM184 439l47 7q-17 11 -26 27t-9 36q0 43 28 66.5t74 23.5q39 0 66 -15l-15 -45q-10 6 -22.5 9t-27.5 3q-22 0 -37 -12.5t-15 -38.5q0 -17 8.5 -29t21.5 -18q20 4 40 6.5t36.5 4.5t23.5 2v-49q-19 -1 -41 -3.5t-47 -5.5t-51.5 -7
t-53.5 -8v46z" />
    <glyph glyph-name="uni06D5" unicode="&#x647;" horiz-adv-x="597" arabic-form="isolated" 
d="M297 -10q-110 0 -171 60.5t-61 171.5q0 37 7.5 71t23.5 66q30 63 84 99.5t120 36.5q31 0 60 -9t56 -28q36 -25 62 -62.5t40 -82t14 -91.5q0 -113 -59 -172.5t-176 -59.5zM299 67q71 0 107 38.5t36 115.5q0 61 -17 105t-49 68t-78 24q-40 0 -72.5 -25t-51.5 -69t-19 -103
q0 -77 36 -115.5t108 -38.5z" />
    <glyph glyph-name="uniFB51" unicode="&#x671;" horiz-adv-x="316" arabic-form="final" 
d="M321 78q5 0 5 -4v-69q0 -5 -5 -5h-221v760h89v-682h132zM6 894h46q17 51 45.5 76.5t66.5 25.5q41 0 63.5 -27t22.5 -75v-46h-244v46zM199 894q0 29 -8.5 42t-26.5 13t-33.5 -15.5t-23.5 -39.5h92z" />
    <glyph glyph-name="uniFB53" unicode="&#x67b;" horiz-adv-x="821" arabic-form="final" 
d="M252 0q-86 0 -136.5 52t-50.5 142q0 22 3 49.5t9 54t13 46.5h80q-7 -36 -11 -72t-4 -71q0 -55 26 -89t68 -34h359v407h85v-407h133q5 0 5 -4v-69q0 -5 -5 -5h-574zM391 -389q-26 0 -41 15.5t-15 44.5t15 44.5t41 15.5t41 -16t15 -44q0 -27 -14.5 -43.5t-41.5 -16.5z
M391 -208q-26 0 -41 15.5t-15 44.5t15 44.5t41 15.5q27 0 41.5 -16.5t14.5 -43.5t-14.5 -43.5t-41.5 -16.5z" />
    <glyph glyph-name="uniFB54" unicode="&#x67b;" horiz-adv-x="301" arabic-form="initial" 
d="M-5 0q-5 0 -5 5v69q0 4 5 4h132v407h89v-485h-221zM127 -389q-26 0 -41 15.5t-15 44.5t15 44.5t41 15.5t41 -16t15 -44q0 -27 -14.5 -43.5t-41.5 -16.5zM127 -208q-26 0 -41 15.5t-15 44.5t15 44.5t41 15.5q27 0 41.5 -16.5t14.5 -43.5t-14.5 -43.5t-41.5 -16.5z" />
    <glyph glyph-name="uniFB55" unicode="&#x67b;" horiz-adv-x="341" arabic-form="medial" 
d="M-5 0q-5 0 -5 5v69q0 4 5 4h132v407h89v-407h130q5 0 5 -4v-69q0 -5 -5 -5h-351zM166 -389q-26 0 -41 15.5t-15 44.5t15 44.5t41 15.5t41 -16t15 -44q0 -27 -14.5 -43.5t-41.5 -16.5zM166 -208q-26 0 -41 15.5t-15 44.5t15 44.5t41 15.5q27 0 41.5 -16.5t14.5 -43.5
t-14.5 -43.5t-41.5 -16.5z" />
    <glyph glyph-name="uniFB57" unicode="&#x67e;" horiz-adv-x="821" arabic-form="final" 
d="M252 0q-86 0 -136.5 52t-50.5 142q0 22 3 49.5t9 54t13 46.5h80q-7 -36 -11 -72t-4 -71q0 -55 26 -89t68 -34h359v407h85v-407h133q5 0 5 -4v-69q0 -5 -5 -5h-574zM394 -406q-22 0 -37 13t-15 42t15 42t37 13q21 0 36.5 -13t15.5 -42t-15.5 -42t-36.5 -13zM308 -284
q-23 0 -39.5 14t-16.5 46q0 31 16.5 45.5t39.5 14.5q26 0 41 -16t15 -44q0 -27 -14.5 -43.5t-41.5 -16.5zM481 -284q-26 0 -41 15.5t-15 44.5t15 44.5t41 15.5t41 -16t15 -44q0 -27 -14.5 -43.5t-41.5 -16.5z" />
    <glyph glyph-name="uniFB58" unicode="&#x67e;" horiz-adv-x="374" arabic-form="initial" 
d="M-5 0q-5 0 -5 5v69q0 4 5 4h192v407h89v-485h-281zM190 -406q-22 0 -37 13t-15 42t15 42t37 13q21 0 36.5 -13t15.5 -42t-15.5 -42t-36.5 -13zM104 -284q-23 0 -39.5 14t-16.5 46q0 31 16.5 45.5t39.5 14.5q26 0 41 -16t15 -44q0 -27 -14.5 -43.5t-41.5 -16.5zM277 -284
q-26 0 -41 15.5t-15 44.5t15 44.5t41 15.5t41 -16t15 -44q0 -27 -14.5 -43.5t-41.5 -16.5z" />
    <glyph glyph-name="uniFB59" unicode="&#x67e;" horiz-adv-x="391" arabic-form="medial" 
d="M-5 0q-5 0 -5 5v69q0 4 5 4h162v407h89v-407h150q5 0 5 -4v-69q0 -5 -5 -5h-401zM197 -406q-22 0 -37 13t-15 42t15 42t37 13q21 0 36.5 -13t15.5 -42t-15.5 -42t-36.5 -13zM111 -284q-23 0 -39.5 14t-16.5 46q0 31 16.5 45.5t39.5 14.5q26 0 41 -16t15 -44
q0 -27 -14.5 -43.5t-41.5 -16.5zM284 -284q-26 0 -41 15.5t-15 44.5t15 44.5t41 15.5t41 -16t15 -44q0 -27 -14.5 -43.5t-41.5 -16.5z" />
    <glyph glyph-name="uniFB5B" unicode="&#x680;" horiz-adv-x="821" arabic-form="final" 
d="M252 0q-86 0 -136.5 52t-50.5 142q0 22 3 49.5t9 54t13 46.5h80q-7 -36 -11 -72t-4 -71q0 -55 26 -89t68 -34h359v407h85v-407h133q5 0 5 -4v-69q0 -5 -5 -5h-574zM312 -400q-24 0 -37.5 14t-13.5 40q0 28 15 41t36 13q20 0 35 -12.5t15 -41.5q0 -26 -13.5 -40t-36.5 -14
zM467 -400q-21 0 -35.5 12.5t-14.5 41.5t14.5 41.5t35.5 12.5q23 0 37 -14.5t14 -39.5t-13.5 -39.5t-37.5 -14.5zM312 -233q-24 0 -37.5 14t-13.5 40q0 28 15 41t36 13q20 0 35 -12.5t15 -41.5q0 -26 -13.5 -40t-36.5 -14zM467 -233q-21 0 -35.5 12.5t-14.5 41.5t14.5 41.5
t35.5 12.5q23 0 37 -14.5t14 -39.5t-13.5 -39.5t-37.5 -14.5z" />
    <glyph glyph-name="uniFB5C" unicode="&#x680;" horiz-adv-x="374" arabic-form="initial" 
d="M-5 0q-5 0 -5 5v69q0 4 5 4h192v407h89v-485h-281zM108 -400q-24 0 -37.5 14t-13.5 40q0 28 15 41t36 13q20 0 35 -12.5t15 -41.5q0 -26 -13.5 -40t-36.5 -14zM263 -400q-21 0 -35.5 12.5t-14.5 41.5t14.5 41.5t35.5 12.5q23 0 37 -14.5t14 -39.5t-13.5 -39.5
t-37.5 -14.5zM108 -233q-24 0 -37.5 14t-13.5 40q0 28 15 41t36 13q20 0 35 -12.5t15 -41.5q0 -26 -13.5 -40t-36.5 -14zM263 -233q-21 0 -35.5 12.5t-14.5 41.5t14.5 41.5t35.5 12.5q23 0 37 -14.5t14 -39.5t-13.5 -39.5t-37.5 -14.5z" />
    <glyph glyph-name="uniFB5D" unicode="&#x680;" horiz-adv-x="391" arabic-form="medial" 
d="M-5 0q-5 0 -5 5v69q0 4 5 4h162v407h89v-407h150q5 0 5 -4v-69q0 -5 -5 -5h-401zM115 -400q-24 0 -37.5 14t-13.5 40q0 28 15 41t36 13q20 0 35 -12.5t15 -41.5q0 -26 -13.5 -40t-36.5 -14zM270 -400q-21 0 -35.5 12.5t-14.5 41.5t14.5 41.5t35.5 12.5q23 0 37 -14.5
t14 -39.5t-13.5 -39.5t-37.5 -14.5zM115 -233q-24 0 -37.5 14t-13.5 40q0 28 15 41t36 13q20 0 35 -12.5t15 -41.5q0 -26 -13.5 -40t-36.5 -14zM270 -233q-21 0 -35.5 12.5t-14.5 41.5t14.5 41.5t35.5 12.5q23 0 37 -14.5t14 -39.5t-13.5 -39.5t-37.5 -14.5z" />
    <glyph glyph-name="uniFB5F" unicode="&#x67a;" horiz-adv-x="821" arabic-form="final" 
d="M252 0q-86 0 -136.5 52t-50.5 142q0 22 3 49.5t9 54t13 46.5h80q-7 -36 -11 -72t-4 -71q0 -55 26 -89t68 -34h359v407h85v-407h133q5 0 5 -4v-69q0 -5 -5 -5h-574zM385 331q-26 0 -41 15.5t-15 44.5t15 44.5t41 15.5q27 0 41.5 -16.5t14.5 -43.5t-14.5 -43.5t-41.5 -16.5
zM385 512q-26 0 -41 15.5t-15 44.5t15 44.5t41 15.5q27 0 41.5 -16.5t14.5 -43.5t-14.5 -43.5t-41.5 -16.5z" />
    <glyph glyph-name="uniFB60" unicode="&#x67a;" horiz-adv-x="374" arabic-form="initial" 
d="M-5 0q-5 0 -5 5v69q0 4 5 4h192v407h89v-485h-281zM206 561q-26 0 -41 15.5t-15 44.5t15 44.5t41 15.5q27 0 41.5 -16.5t14.5 -43.5t-14.5 -43.5t-41.5 -16.5zM206 742q-26 0 -41 15.5t-15 44.5t15 44.5t41 15.5q27 0 41.5 -16.5t14.5 -43.5t-14.5 -43.5t-41.5 -16.5z
" />
    <glyph glyph-name="uniFB61" unicode="&#x67a;" horiz-adv-x="391" arabic-form="medial" 
d="M-5 0q-5 0 -5 5v69q0 4 5 4h162v407h89v-407h150q5 0 5 -4v-69q0 -5 -5 -5h-401zM174 581q-26 0 -41 15.5t-15 44.5t15 44.5t41 15.5q27 0 41.5 -16.5t14.5 -43.5t-14.5 -43.5t-41.5 -16.5zM174 762q-26 0 -41 15.5t-15 44.5t15 44.5t41 15.5q27 0 41.5 -16.5t14.5 -43.5
t-14.5 -43.5t-41.5 -16.5z" />
    <glyph glyph-name="uniFB63" unicode="&#x67f;" horiz-adv-x="821" arabic-form="final" 
d="M252 0q-86 0 -136.5 52t-50.5 142q0 22 3 49.5t9 54t13 46.5h80q-7 -36 -11 -72t-4 -71q0 -55 26 -89t68 -34h359v407h85v-407h133q5 0 5 -4v-69q0 -5 -5 -5h-574zM306 327q-24 0 -37.5 14t-13.5 40q0 28 15 41t36 13q20 0 35 -12.5t15 -41.5q0 -26 -13.5 -40t-36.5 -14z
M461 327q-21 0 -35.5 12.5t-14.5 41.5t14.5 41.5t35.5 12.5q23 0 37 -14.5t14 -39.5t-13.5 -39.5t-37.5 -14.5zM306 494q-24 0 -37.5 14t-13.5 40q0 28 15 41t36 13q20 0 35 -12.5t15 -41.5q0 -26 -13.5 -40t-36.5 -14zM461 494q-21 0 -35.5 12.5t-14.5 41.5t14.5 41.5
t35.5 12.5q23 0 37 -14.5t14 -39.5t-13.5 -39.5t-37.5 -14.5z" />
    <glyph glyph-name="uniFB64" unicode="&#x67f;" horiz-adv-x="374" arabic-form="initial" 
d="M-5 0q-5 0 -5 5v69q0 4 5 4h192v407h89v-485h-281zM127 557q-24 0 -37.5 14t-13.5 40q0 28 15 41t36 13q20 0 35 -12.5t15 -41.5q0 -26 -13.5 -40t-36.5 -14zM282 557q-21 0 -35.5 12.5t-14.5 41.5t14.5 41.5t35.5 12.5q23 0 37 -14.5t14 -39.5t-13.5 -39.5t-37.5 -14.5z
M127 724q-24 0 -37.5 14t-13.5 40q0 28 15 41t36 13q20 0 35 -12.5t15 -41.5q0 -26 -13.5 -40t-36.5 -14zM282 724q-21 0 -35.5 12.5t-14.5 41.5t14.5 41.5t35.5 12.5q23 0 37 -14.5t14 -39.5t-13.5 -39.5t-37.5 -14.5z" />
    <glyph glyph-name="uniFB65" unicode="&#x67f;" horiz-adv-x="391" arabic-form="medial" 
d="M-5 0q-5 0 -5 5v69q0 4 5 4h162v407h89v-407h150q5 0 5 -4v-69q0 -5 -5 -5h-401zM95 577q-24 0 -37.5 14t-13.5 40q0 28 15 41t36 13q20 0 35 -12.5t15 -41.5q0 -26 -13.5 -40t-36.5 -14zM250 577q-21 0 -35.5 12.5t-14.5 41.5t14.5 41.5t35.5 12.5q23 0 37 -14.5
t14 -39.5t-13.5 -39.5t-37.5 -14.5zM95 744q-24 0 -37.5 14t-13.5 40q0 28 15 41t36 13q20 0 35 -12.5t15 -41.5q0 -26 -13.5 -40t-36.5 -14zM250 744q-21 0 -35.5 12.5t-14.5 41.5t14.5 41.5t35.5 12.5q23 0 37 -14.5t14 -39.5t-13.5 -39.5t-37.5 -14.5z" />
    <glyph glyph-name="uniFB67" unicode="&#x679;" horiz-adv-x="821" arabic-form="final" 
d="M252 0q-86 0 -136.5 52t-50.5 142q0 22 3 49.5t9 54t13 46.5h80q-7 -36 -11 -72t-4 -71q0 -55 26 -89t68 -34h359v407h85v-407h133q5 0 5 -4v-69q0 -5 -5 -5h-574zM281 407h15v182h40v-127q12 29 30.5 47t47.5 18q37 0 55.5 -21.5t18.5 -65.5v-76h-207v43zM448 407v25
q0 26 -9 39t-30 13q-23 0 -41 -16t-32 -51v-10h112z" />
    <glyph glyph-name="uniFB68" unicode="&#x6bb;" horiz-adv-x="301" arabic-form="initial" 
d="M-5 0q-5 0 -5 5v69q0 4 5 4h132v407h89v-485h-221zM42 637h15v182h40v-127q12 29 30.5 47t47.5 18q37 0 55.5 -21.5t18.5 -65.5v-76h-207v43zM209 637v25q0 26 -9 39t-30 13q-23 0 -41 -16t-32 -51v-10h112z" />
    <glyph glyph-name="uniFB69" unicode="&#x6bb;" horiz-adv-x="391" arabic-form="medial" 
d="M-5 0q-5 0 -5 5v69q0 4 5 4h162v407h89v-407h150q5 0 5 -4v-69q0 -5 -5 -5h-401zM70 657h15v182h40v-127q12 29 30.5 47t47.5 18q37 0 55.5 -21.5t18.5 -65.5v-76h-207v43zM237 657v25q0 26 -9 39t-30 13q-23 0 -41 -16t-32 -51v-10h112z" />
    <glyph glyph-name="uniFB6B" unicode="&#x6a4;" horiz-adv-x="1032" arabic-form="final" 
d="M252 0q-86 0 -136.5 52t-50.5 142q0 22 3 49.5t9 54t13 46.5h80q-7 -36 -11 -72t-4 -71q0 -55 26 -89t68 -34h325q-15 18 -27 42.5t-18.5 52.5t-6.5 56q0 78 33.5 135.5t95 89t145.5 31.5h131v-407h110q5 0 5 -4v-69q0 -5 -5 -5h-785zM748 78h94v329h-43
q-59 0 -101.5 -21t-64.5 -60.5t-22 -95.5q0 -50 15.5 -84t46 -51t75.5 -17zM732 736q-22 0 -37 13t-15 42t15 42t37 13q21 0 36.5 -13.5t15.5 -41.5q0 -29 -15.5 -42t-36.5 -13zM646 601q-23 0 -39.5 14t-16.5 46t16.5 46t39.5 14q27 0 41.5 -16.5t14.5 -43.5t-14.5 -43.5
t-41.5 -16.5zM819 601q-26 0 -41 15.5t-15 44.5t15 44.5t41 15.5q27 0 41.5 -16.5t14.5 -43.5t-14.5 -43.5t-41.5 -16.5z" />
    <glyph glyph-name="uniFB6C" unicode="&#x6a4;" horiz-adv-x="585" arabic-form="initial" 
d="M-5 0q-5 0 -5 5v69q0 4 5 4h152q-16 20 -28 45t-18 52.5t-6 53.5q0 78 33.5 135.5t95 89t145.5 31.5h131v-485h-505zM321 78h94v329h-43q-59 0 -101.5 -21t-64.5 -60.5t-22 -95.5q0 -50 15.5 -84t46 -51t75.5 -17zM311 736q-22 0 -37 13t-15 42t15 42t37 13
q21 0 36.5 -13.5t15.5 -41.5q0 -29 -15.5 -42t-36.5 -13zM225 601q-23 0 -39.5 14t-16.5 46t16.5 46t39.5 14q27 0 41.5 -16.5t14.5 -43.5t-14.5 -43.5t-41.5 -16.5zM398 601q-26 0 -41 15.5t-15 44.5t15 44.5t41 15.5q27 0 41.5 -16.5t14.5 -43.5t-14.5 -43.5t-41.5 -16.5z
" />
    <glyph glyph-name="uniFB6D" unicode="&#x6a4;" horiz-adv-x="601" arabic-form="medial" 
d="M606 78q5 0 5 -5v-69q0 -4 -5 -4h-611q-5 0 -5 5v69q0 4 5 4h152q-16 20 -28 45t-18 52.5t-6 53.5q0 80 33.5 137t95 88t145.5 31h131v-407h106zM415 78v329h-43q-59 0 -101.5 -21t-64.5 -61t-22 -96q0 -50 15.5 -84t46 -50.5t75.5 -16.5h94zM311 736q-22 0 -37 13
t-15 42t15 42t37 13q21 0 36.5 -13.5t15.5 -41.5q0 -29 -15.5 -42t-36.5 -13zM225 601q-23 0 -39.5 14t-16.5 46t16.5 46t39.5 14q27 0 41.5 -16.5t14.5 -43.5t-14.5 -43.5t-41.5 -16.5zM398 601q-26 0 -41 15.5t-15 44.5t15 44.5t41 15.5q27 0 41.5 -16.5t14.5 -43.5
t-14.5 -43.5t-41.5 -16.5z" />
    <glyph glyph-name="uniFB6F" unicode="&#x6a6;" horiz-adv-x="1032" arabic-form="final" 
d="M252 0q-86 0 -136.5 52t-50.5 142q0 22 3 49.5t9 54t13 46.5h80q-7 -36 -11 -72t-4 -71q0 -55 26 -89t68 -34h325q-15 18 -27 42.5t-18.5 52.5t-6.5 56q0 78 33.5 135.5t95 89t145.5 31.5h131v-407h110q5 0 5 -4v-69q0 -5 -5 -5h-785zM748 78h94v329h-43
q-59 0 -101.5 -21t-64.5 -60.5t-22 -95.5q0 -50 15.5 -84t46 -51t75.5 -17zM653 586q-24 0 -37.5 14t-13.5 40q0 28 15 41t36 13q20 0 35 -12.5t15 -41.5q0 -26 -13.5 -40t-36.5 -14zM808 586q-21 0 -35.5 12.5t-14.5 41.5t14.5 41.5t35.5 12.5q23 0 37 -14.5t14 -39.5
t-13.5 -39.5t-37.5 -14.5zM653 753q-24 0 -37.5 14t-13.5 40q0 28 15 41t36 13q20 0 35 -12.5t15 -41.5q0 -26 -13.5 -40t-36.5 -14zM808 753q-21 0 -35.5 12.5t-14.5 41.5t14.5 41.5t35.5 12.5q23 0 37 -14.5t14 -39.5t-13.5 -39.5t-37.5 -14.5z" />
    <glyph glyph-name="uniFB70" unicode="&#x6a6;" horiz-adv-x="585" arabic-form="initial" 
d="M-5 0q-5 0 -5 5v69q0 4 5 4h152q-16 20 -28 45t-18 52.5t-6 53.5q0 78 33.5 135.5t95 89t145.5 31.5h131v-485h-505zM321 78h94v329h-43q-59 0 -101.5 -21t-64.5 -60.5t-22 -95.5q0 -50 15.5 -84t46 -51t75.5 -17zM232 586q-24 0 -37.5 14t-13.5 40q0 28 15 41t36 13
q20 0 35 -12.5t15 -41.5q0 -26 -13.5 -40t-36.5 -14zM387 586q-21 0 -35.5 12.5t-14.5 41.5t14.5 41.5t35.5 12.5q23 0 37 -14.5t14 -39.5t-13.5 -39.5t-37.5 -14.5zM232 753q-24 0 -37.5 14t-13.5 40q0 28 15 41t36 13q20 0 35 -12.5t15 -41.5q0 -26 -13.5 -40t-36.5 -14z
M387 753q-21 0 -35.5 12.5t-14.5 41.5t14.5 41.5t35.5 12.5q23 0 37 -14.5t14 -39.5t-13.5 -39.5t-37.5 -14.5z" />
    <glyph glyph-name="uniFB71" unicode="&#x6a6;" horiz-adv-x="601" arabic-form="medial" 
d="M606 78q5 0 5 -5v-69q0 -4 -5 -4h-611q-5 0 -5 5v69q0 4 5 4h152q-16 20 -28 45t-18 52.5t-6 53.5q0 80 33.5 137t95 88t145.5 31h131v-407h106zM415 78v329h-43q-59 0 -101.5 -21t-64.5 -61t-22 -96q0 -50 15.5 -84t46 -50.5t75.5 -16.5h94zM232 586q-24 0 -37.5 14
t-13.5 40q0 28 15 41t36 13q20 0 35 -12.5t15 -41.5q0 -26 -13.5 -40t-36.5 -14zM387 586q-21 0 -35.5 12.5t-14.5 41.5t14.5 41.5t35.5 12.5q23 0 37 -14.5t14 -39.5t-13.5 -39.5t-37.5 -14.5zM232 753q-24 0 -37.5 14t-13.5 40q0 28 15 41t36 13q20 0 35 -12.5t15 -41.5
q0 -26 -13.5 -40t-36.5 -14zM387 753q-21 0 -35.5 12.5t-14.5 41.5t14.5 41.5t35.5 12.5q23 0 37 -14.5t14 -39.5t-13.5 -39.5t-37.5 -14.5z" />
    <glyph glyph-name="uniFB73" unicode="&#x684;" horiz-adv-x="614" arabic-form="final" 
d="M253 -321q-64 0 -111 22.5t-72 66t-25 104.5q0 32 9.5 61.5t28.5 55.5q25 36 68.5 67t109.5 59.5t160 55.5q-5 17 -10 39.5t-10 50.5q-8 53 -27 87.5t-48.5 51.5t-70.5 17q-36 0 -86 -14.5t-89 -35.5l-35 69q26 17 61 30t74 21t76 8q64 0 110 -23t74.5 -70t39.5 -118
q8 -48 16 -81t15 -51q15 -37 39.5 -55.5t63.5 -18.5h5q5 0 5 -4v-69q0 -5 -5 -5h-5q-36 0 -66.5 10t-54.5 32.5t-44 57.5q-59 -16 -106 -32.5t-79 -32.5q-66 -33 -97 -71.5t-31 -83.5q0 -62 34 -93t102 -31zM439 -330q-26 0 -41 15.5t-15 44.5t15 44.5t41 15.5
q27 0 41.5 -16.5t14.5 -43.5t-14.5 -43.5t-41.5 -16.5zM439 -149q-26 0 -41 15.5t-15 44.5t15 44.5t41 15.5q27 0 41.5 -16.5t14.5 -43.5t-14.5 -43.5t-41.5 -16.5z" />
    <glyph glyph-name="uniFB74" unicode="&#x684;" horiz-adv-x="580" arabic-form="initial" 
d="M-5 0q-5 0 -5 5v69q0 4 5 4h429q-19 19 -34.5 64.5t-28.5 118.5q-10 58 -25 92t-39 49t-62 15q-34 0 -70.5 -10t-74.5 -30l-35 69q43 28 87 38.5t94 10.5q31 0 56.5 -5.5t45.5 -16.5q42 -22 65.5 -64.5t36.5 -124.5q10 -59 21 -100t24.5 -67t29.5 -41v-76h-520zM244 -389
q-26 0 -41 15.5t-15 44.5t15 44.5t41 15.5t41 -16t15 -44q0 -27 -14.5 -43.5t-41.5 -16.5zM244 -208q-26 0 -41 15.5t-15 44.5t15 44.5t41 15.5q27 0 41.5 -16.5t14.5 -43.5t-14.5 -43.5t-41.5 -16.5z" />
    <glyph glyph-name="uniFB75" unicode="&#x684;" horiz-adv-x="574" arabic-form="medial" 
d="M-5 0q-5 0 -5 5v69q0 4 5 4h429q-13 13 -24.5 37.5t-21 61t-17.5 84.5q-7 42 -17.5 72t-25 48.5t-35.5 27t-48 8.5q-34 0 -70.5 -10t-74.5 -30l-35 69q43 28 87 38.5t94 10.5q31 0 56.5 -5.5t45.5 -16.5q27 -15 47 -38.5t33 -60t22 -90.5q8 -52 18.5 -92.5t24 -69
t29.5 -44.5h67q5 0 5 -4v-69q0 -5 -5 -5h-584zM244 -389q-26 0 -41 15.5t-15 44.5t15 44.5t41 15.5t41 -16t15 -44q0 -27 -14.5 -43.5t-41.5 -16.5zM244 -208q-26 0 -41 15.5t-15 44.5t15 44.5t41 15.5q27 0 41.5 -16.5t14.5 -43.5t-14.5 -43.5t-41.5 -16.5z" />
    <glyph glyph-name="uniFB77" unicode="&#x683;" horiz-adv-x="614" arabic-form="final" 
d="M253 -321q-64 0 -111 22.5t-72 66t-25 104.5q0 32 9.5 61.5t28.5 55.5q25 36 68.5 67t109.5 59.5t160 55.5q-5 17 -10 39.5t-10 50.5q-8 53 -27 87.5t-48.5 51.5t-70.5 17q-36 0 -86 -14.5t-89 -35.5l-35 69q26 17 61 30t74 21t76 8q64 0 110 -23t74.5 -70t39.5 -118
q8 -48 16 -81t15 -51q15 -37 39.5 -55.5t63.5 -18.5h5q5 0 5 -4v-69q0 -5 -5 -5h-5q-36 0 -66.5 10t-54.5 32.5t-44 57.5q-59 -16 -106 -32.5t-79 -32.5q-66 -33 -97 -71.5t-31 -83.5q0 -62 34 -93t102 -31zM352 -239q-23 0 -39.5 14t-16.5 46t16.5 46t39.5 14
q26 0 41 -15.5t15 -44.5t-15 -44.5t-41 -15.5zM525 -239q-26 0 -41 15.5t-15 44.5t15 44.5t41 15.5q27 0 41.5 -16.5t14.5 -43.5t-14.5 -43.5t-41.5 -16.5z" />
    <glyph glyph-name="uniFB78" unicode="&#x683;" horiz-adv-x="580" arabic-form="initial" 
d="M-5 0q-5 0 -5 5v69q0 4 5 4h429q-19 19 -34.5 64.5t-28.5 118.5q-10 58 -25 92t-39 49t-62 15q-34 0 -70.5 -10t-74.5 -30l-35 69q43 28 87 38.5t94 10.5q31 0 56.5 -5.5t45.5 -16.5q42 -22 65.5 -64.5t36.5 -124.5q10 -59 21 -100t24.5 -67t29.5 -41v-76h-520zM156 -204
q-23 0 -39.5 14t-16.5 46t16.5 46t39.5 14q26 0 41 -15.5t15 -44.5t-15 -44.5t-41 -15.5zM329 -204q-26 0 -41 15.5t-15 44.5t15 44.5t41 15.5q27 0 41.5 -16.5t14.5 -43.5t-14.5 -43.5t-41.5 -16.5z" />
    <glyph glyph-name="uniFB79" unicode="&#x683;" horiz-adv-x="574" arabic-form="medial" 
d="M-5 0q-5 0 -5 5v69q0 4 5 4h429q-13 13 -24.5 37.5t-21 61t-17.5 84.5q-7 42 -17.5 72t-25 48.5t-35.5 27t-48 8.5q-34 0 -70.5 -10t-74.5 -30l-35 69q43 28 87 38.5t94 10.5q31 0 56.5 -5.5t45.5 -16.5q27 -15 47 -38.5t33 -60t22 -90.5q8 -52 18.5 -92.5t24 -69
t29.5 -44.5h67q5 0 5 -4v-69q0 -5 -5 -5h-584zM156 -204q-23 0 -39.5 14t-16.5 46t16.5 46t39.5 14q26 0 41 -15.5t15 -44.5t-15 -44.5t-41 -15.5zM329 -204q-26 0 -41 15.5t-15 44.5t15 44.5t41 15.5q27 0 41.5 -16.5t14.5 -43.5t-14.5 -43.5t-41.5 -16.5z" />
    <glyph glyph-name="uniFB7B" unicode="&#x686;" horiz-adv-x="614" arabic-form="final" 
d="M253 -321q-64 0 -111 22.5t-72 66t-25 104.5q0 32 9.5 61.5t28.5 55.5q25 36 68.5 67t109.5 59.5t160 55.5q-5 17 -10 39.5t-10 50.5q-8 53 -27 87.5t-48.5 51.5t-70.5 17q-36 0 -86 -14.5t-89 -35.5l-35 69q26 17 61 30t74 21t76 8q64 0 110 -23t74.5 -70t39.5 -118
q8 -48 16 -81t15 -51q15 -37 39.5 -55.5t63.5 -18.5h5q5 0 5 -4v-69q0 -5 -5 -5h-5q-36 0 -66.5 10t-54.5 32.5t-44 57.5q-59 -16 -106 -32.5t-79 -32.5q-66 -33 -97 -71.5t-31 -83.5q0 -62 34 -93t102 -31zM439 -192q22 0 37 -13t15 -42t-15 -42t-37 -13q-21 0 -36.5 13
t-15.5 42t15.5 42t36.5 13zM525 -57q23 0 39.5 -14t16.5 -46t-16.5 -46t-39.5 -14q-27 0 -41.5 16.5t-14.5 43.5q0 28 14.5 44t41.5 16zM352 -57q26 0 41 -15.5t15 -44.5t-15 -44.5t-41 -15.5t-41 15.5t-15 44.5t15 44.5t41 15.5z" />
    <glyph glyph-name="uniFB7C" unicode="&#x686;" horiz-adv-x="580" arabic-form="initial" 
d="M-5 0q-5 0 -5 5v69q0 4 5 4h429q-19 19 -34.5 64.5t-28.5 118.5q-10 58 -25 92t-39 49t-62 15q-34 0 -70.5 -10t-74.5 -30l-35 69q43 28 87 38.5t94 10.5q31 0 56.5 -5.5t45.5 -16.5q42 -22 65.5 -64.5t36.5 -124.5q10 -59 21 -100t24.5 -67t29.5 -41v-76h-520zM247 -406
q-22 0 -37 13t-15 42t15 42t37 13q21 0 36.5 -13t15.5 -42t-15.5 -42t-36.5 -13zM161 -284q-23 0 -39.5 14t-16.5 46q0 31 16.5 45.5t39.5 14.5q26 0 41 -16t15 -44q0 -27 -14.5 -43.5t-41.5 -16.5zM334 -284q-26 0 -41 15.5t-15 44.5t15 44.5t41 15.5t41 -16t15 -44
q0 -27 -14.5 -43.5t-41.5 -16.5z" />
    <glyph glyph-name="uniFB7D" unicode="&#x686;" horiz-adv-x="574" arabic-form="medial" 
d="M-5 0q-5 0 -5 5v69q0 4 5 4h429q-13 13 -24.5 37.5t-21 61t-17.5 84.5q-7 42 -17.5 72t-25 48.5t-35.5 27t-48 8.5q-34 0 -70.5 -10t-74.5 -30l-35 69q43 28 87 38.5t94 10.5q31 0 56.5 -5.5t45.5 -16.5q27 -15 47 -38.5t33 -60t22 -90.5q8 -52 18.5 -92.5t24 -69
t29.5 -44.5h67q5 0 5 -4v-69q0 -5 -5 -5h-584zM247 -406q-22 0 -37 13t-15 42t15 42t37 13q21 0 36.5 -13t15.5 -42t-15.5 -42t-36.5 -13zM161 -284q-23 0 -39.5 14t-16.5 46q0 31 16.5 45.5t39.5 14.5q26 0 41 -16t15 -44q0 -27 -14.5 -43.5t-41.5 -16.5zM334 -284
q-26 0 -41 15.5t-15 44.5t15 44.5t41 15.5t41 -16t15 -44q0 -27 -14.5 -43.5t-41.5 -16.5z" />
    <glyph glyph-name="uniFB7F" unicode="&#x687;" horiz-adv-x="614" arabic-form="final" 
d="M253 -321q-64 0 -111 22.5t-72 66t-25 104.5q0 32 9.5 61.5t28.5 55.5q25 36 68.5 67t109.5 59.5t160 55.5q-5 17 -10 39.5t-10 50.5q-8 53 -27 87.5t-48.5 51.5t-70.5 17q-36 0 -86 -14.5t-89 -35.5l-35 69q26 17 61 30t74 21t76 8q64 0 110 -23t74.5 -70t39.5 -118
q8 -48 16 -81t15 -51q15 -37 39.5 -55.5t63.5 -18.5h5q5 0 5 -4v-69q0 -5 -5 -5h-5q-36 0 -66.5 10t-54.5 32.5t-44 57.5q-59 -16 -106 -32.5t-79 -32.5q-66 -33 -97 -71.5t-31 -83.5q0 -62 34 -93t102 -31zM361 -317q-24 0 -37.5 14t-13.5 40q0 28 15 41t36 13
q20 0 35 -12.5t15 -41.5q0 -26 -13.5 -40t-36.5 -14zM516 -317q-21 0 -35.5 12.5t-14.5 41.5t14.5 41.5t35.5 12.5q23 0 37 -14.5t14 -39.5t-13.5 -39.5t-37.5 -14.5zM361 -150q-24 0 -37.5 14t-13.5 40q0 28 15 41t36 13q20 0 35 -12.5t15 -41.5q0 -26 -13.5 -40t-36.5 -14
zM516 -150q-21 0 -35.5 12.5t-14.5 41.5t14.5 41.5t35.5 12.5q23 0 37 -14.5t14 -39.5t-13.5 -39.5t-37.5 -14.5z" />
    <glyph glyph-name="uniFB80" unicode="&#x687;" horiz-adv-x="580" arabic-form="initial" 
d="M-5 0q-5 0 -5 5v69q0 4 5 4h429q-19 19 -34.5 64.5t-28.5 118.5q-10 58 -25 92t-39 49t-62 15q-34 0 -70.5 -10t-74.5 -30l-35 69q43 28 87 38.5t94 10.5q31 0 56.5 -5.5t45.5 -16.5q42 -22 65.5 -64.5t36.5 -124.5q10 -59 21 -100t24.5 -67t29.5 -41v-76h-520zM165 -400
q-24 0 -37.5 14t-13.5 40q0 28 15 41t36 13q20 0 35 -12.5t15 -41.5q0 -26 -13.5 -40t-36.5 -14zM320 -400q-21 0 -35.5 12.5t-14.5 41.5t14.5 41.5t35.5 12.5q23 0 37 -14.5t14 -39.5t-13.5 -39.5t-37.5 -14.5zM165 -233q-24 0 -37.5 14t-13.5 40q0 28 15 41t36 13
q20 0 35 -12.5t15 -41.5q0 -26 -13.5 -40t-36.5 -14zM320 -233q-21 0 -35.5 12.5t-14.5 41.5t14.5 41.5t35.5 12.5q23 0 37 -14.5t14 -39.5t-13.5 -39.5t-37.5 -14.5z" />
    <glyph glyph-name="uniFB81" unicode="&#x687;" horiz-adv-x="574" arabic-form="medial" 
d="M-5 0q-5 0 -5 5v69q0 4 5 4h429q-13 13 -24.5 37.5t-21 61t-17.5 84.5q-7 42 -17.5 72t-25 48.5t-35.5 27t-48 8.5q-34 0 -70.5 -10t-74.5 -30l-35 69q43 28 87 38.5t94 10.5q31 0 56.5 -5.5t45.5 -16.5q27 -15 47 -38.5t33 -60t22 -90.5q8 -52 18.5 -92.5t24 -69
t29.5 -44.5h67q5 0 5 -4v-69q0 -5 -5 -5h-584zM165 -400q-24 0 -37.5 14t-13.5 40q0 28 15 41t36 13q20 0 35 -12.5t15 -41.5q0 -26 -13.5 -40t-36.5 -14zM320 -400q-21 0 -35.5 12.5t-14.5 41.5t14.5 41.5t35.5 12.5q23 0 37 -14.5t14 -39.5t-13.5 -39.5t-37.5 -14.5z
M165 -233q-24 0 -37.5 14t-13.5 40q0 28 15 41t36 13q20 0 35 -12.5t15 -41.5q0 -26 -13.5 -40t-36.5 -14zM320 -233q-21 0 -35.5 12.5t-14.5 41.5t14.5 41.5t35.5 12.5q23 0 37 -14.5t14 -39.5t-13.5 -39.5t-37.5 -14.5z" />
    <glyph glyph-name="uniFB83" unicode="&#x68d;" horiz-adv-x="569" arabic-form="final" 
d="M45 78h333q-7 47 -18 89t-27 79q-29 69 -75 124t-112 100l32 76q77 -40 135 -106.5t96 -157t54 -204.5h111q5 0 5 -4v-69q0 -5 -5 -5h-529v78zM142 -184q-23 0 -39.5 14t-16.5 46t16.5 46t39.5 14q26 0 41 -15.5t15 -44.5t-15 -44.5t-41 -15.5zM315 -184q-26 0 -41 15.5
t-15 44.5t15 44.5t41 15.5q27 0 41.5 -16.5t14.5 -43.5t-14.5 -43.5t-41.5 -16.5z" />
    <glyph glyph-name="uniFB85" unicode="&#x68c;" horiz-adv-x="569" arabic-form="final" 
d="M45 78h333q-7 47 -18 89t-27 79q-29 69 -75 124t-112 100l32 76q77 -40 135 -106.5t96 -157t54 -204.5h111q5 0 5 -4v-69q0 -5 -5 -5h-529v78zM83 632q-23 0 -39.5 14t-16.5 46t16.5 46t39.5 14q26 0 41 -15.5t15 -44.5t-15 -44.5t-41 -15.5zM256 632q-26 0 -41 15.5
t-15 44.5t15 44.5t41 15.5q27 0 41.5 -16.5t14.5 -43.5t-14.5 -43.5t-41.5 -16.5z" />
    <glyph glyph-name="uniFB87" unicode="&#x68e;" horiz-adv-x="569" arabic-form="final" 
d="M45 78h333q-7 47 -18 89t-27 79q-29 69 -75 124t-112 100l32 76q77 -40 135 -106.5t96 -157t54 -204.5h111q5 0 5 -4v-69q0 -5 -5 -5h-529v78zM171 756q-22 0 -37 13t-15 42t15 42t37 13q21 0 36.5 -13.5t15.5 -41.5q0 -29 -15.5 -42t-36.5 -13zM85 621q-23 0 -39.5 14
t-16.5 46t16.5 46t39.5 14q27 0 41.5 -16.5t14.5 -43.5t-14.5 -43.5t-41.5 -16.5zM258 621q-26 0 -41 15.5t-15 44.5t15 44.5t41 15.5q27 0 41.5 -16.5t14.5 -43.5t-14.5 -43.5t-41.5 -16.5z" />
    <glyph glyph-name="uniFB89" unicode="&#x688;" horiz-adv-x="569" arabic-form="final" 
d="M45 78h333q-7 47 -18 89t-27 79q-29 69 -75 124t-112 100l32 76q77 -40 135 -106.5t96 -157t54 -204.5h111q5 0 5 -4v-69q0 -5 -5 -5h-529v78zM67 686h15v182h40v-127q12 29 30.5 47t47.5 18q37 0 55.5 -21.5t18.5 -65.5v-76h-207v43zM234 686v25q0 26 -9 39t-30 13
q-23 0 -41 -16t-32 -51v-10h112z" />
    <glyph glyph-name="uniFB8B" unicode="&#x698;" horiz-adv-x="359" arabic-form="final" 
d="M240 0v-24q0 -67 -20.5 -115.5t-60 -74.5t-97.5 -26q-24 0 -49.5 7t-52.5 21l26 67q24 -11 40 -14t34 -3q45 0 70.5 36.5t25.5 96.5v514h84v-407h124q5 0 5 -4v-69q0 -5 -5 -5h-124zM188 718q-22 0 -37 13t-15 42t15 42t37 13q21 0 36.5 -13.5t15.5 -41.5
q0 -29 -15.5 -42t-36.5 -13zM102 583q-23 0 -39.5 14t-16.5 46t16.5 46t39.5 14q27 0 41.5 -16.5t14.5 -43.5t-14.5 -43.5t-41.5 -16.5zM275 583q-26 0 -41 15.5t-15 44.5t15 44.5t41 15.5q27 0 41.5 -16.5t14.5 -43.5t-14.5 -43.5t-41.5 -16.5z" />
    <glyph glyph-name="uniFB8D" unicode="&#x691;" horiz-adv-x="359" arabic-form="final" 
d="M240 0v-24q0 -67 -20.5 -115.5t-60 -74.5t-97.5 -26q-24 0 -49.5 7t-52.5 21l26 67q24 -11 40 -14t34 -3q45 0 70.5 36.5t25.5 96.5v514h84v-407h124q5 0 5 -4v-69q0 -5 -5 -5h-124zM84 648h15v182h40v-127q12 29 30.5 47t47.5 18q37 0 55.5 -21.5t18.5 -65.5v-76h-207
v43zM251 648v25q0 26 -9 39t-30 13q-23 0 -41 -16t-32 -51v-10h112z" />
    <glyph glyph-name="uni06A9.fina" unicode="&#x6a9;" horiz-adv-x="858" arabic-form="final" 
d="M252 0q-91 0 -139 46.5t-48 132.5q0 26 5.5 63.5t14.5 71.5h80q-7 -41 -11 -72.5t-4 -52.5q0 -52 26.5 -81.5t72.5 -29.5h399v184q0 75 -45 110t-139 35h-170v82q16 34 38.5 67t50.5 66q56 65 126.5 116t136.5 76l32 -76q-45 -18 -91.5 -46t-87.5 -63t-73 -72t-49 -72h87
q131 0 200 -54t69 -154v-199h130q5 0 5 -4v-69q0 -5 -5 -5h-611z" />
    <glyph glyph-name="uniFB90" unicode="&#x6a9;" horiz-adv-x="576" arabic-form="initial" 
d="M-5 0q-5 0 -5 5v69q0 4 5 4h421v184q0 75 -45 110t-139 35h-170v82q16 34 38.5 67t50.5 66q57 65 127 116t136 76l32 -76q-46 -18 -92.5 -46.5t-87.5 -63t-72.5 -71.5t-48.5 -72h87q131 0 200 -54t69 -154v-277h-506z" />
    <glyph glyph-name="uniFB91" unicode="&#x6a9;" horiz-adv-x="626" arabic-form="medial" 
d="M-5 0q-5 0 -5 5v69q0 4 5 4h421v184q0 75 -45 110t-139 35h-170v82q16 34 38.5 67t50.5 66q57 65 127 116t136 76l32 -76q-46 -18 -92.5 -46.5t-87.5 -63t-72.5 -71.5t-48.5 -72h87q131 0 200 -54t69 -154v-199h130q5 0 5 -4v-69q0 -5 -5 -5h-636z" />
    <glyph glyph-name="uniFB93" unicode="&#x6af;" horiz-adv-x="858" arabic-form="final" 
d="M252 0q-91 0 -139 46.5t-48 132.5q0 26 5.5 63.5t14.5 71.5h80q-7 -41 -11 -72.5t-4 -52.5q0 -52 26.5 -81.5t72.5 -29.5h399v184q0 75 -45 110t-139 35h-170v82q16 34 38.5 67t50.5 66q56 65 126.5 116t136.5 76l32 -76q-45 -18 -91.5 -46t-87.5 -63t-73 -72t-49 -72h87
q131 0 200 -54t69 -154v-199h130q5 0 5 -4v-69q0 -5 -5 -5h-611zM268 639q17 33 51 73t79 80t95 73t98 53l29 -67q-45 -16 -93 -46.5t-93.5 -69.5t-82 -79t-56.5 -76z" />
    <glyph glyph-name="uniFB94" unicode="&#x6af;" horiz-adv-x="576" arabic-form="initial" 
d="M-5 0q-5 0 -5 5v69q0 4 5 4h421v184q0 75 -45 110t-139 35h-170v82q16 34 38.5 67t50.5 66q57 65 127 116t136 76l32 -76q-46 -18 -92.5 -46.5t-87.5 -63t-72.5 -71.5t-48.5 -72h87q131 0 200 -54t69 -154v-277h-506zM36 639q17 33 51 73t79 80t95 73t98 53l29 -67
q-45 -16 -93 -46.5t-93.5 -69.5t-82 -79t-56.5 -76z" />
    <glyph glyph-name="uniFB95" unicode="&#x6af;" horiz-adv-x="626" arabic-form="medial" 
d="M-5 0q-5 0 -5 5v69q0 4 5 4h421v184q0 75 -45 110t-139 35h-170v82q16 34 38.5 67t50.5 66q57 65 127 116t136 76l32 -76q-46 -18 -92.5 -46.5t-87.5 -63t-72.5 -71.5t-48.5 -72h87q131 0 200 -54t69 -154v-199h130q5 0 5 -4v-69q0 -5 -5 -5h-636zM36 639q17 33 51 73
t79 80t95 73t98 53l29 -67q-45 -16 -93 -46.5t-93.5 -69.5t-82 -79t-56.5 -76z" />
    <glyph glyph-name="uniFB97" unicode="&#x6b3;" horiz-adv-x="858" arabic-form="final" 
d="M252 0q-91 0 -139 46.5t-48 132.5q0 26 5.5 63.5t14.5 71.5h80q-7 -41 -11 -72.5t-4 -52.5q0 -52 26.5 -81.5t72.5 -29.5h399v184q0 75 -45 110t-139 35h-170v82q16 34 38.5 67t50.5 66q56 65 126.5 116t136.5 76l32 -76q-45 -18 -91.5 -46t-87.5 -63t-73 -72t-49 -72h87
q131 0 200 -54t69 -154v-199h130q5 0 5 -4v-69q0 -5 -5 -5h-611zM268 639q17 33 51 73t79 80t95 73t98 53l29 -67q-45 -16 -93 -46.5t-93.5 -69.5t-82 -79t-56.5 -76zM391 -389q-26 0 -41 15.5t-15 44.5t15 44.5t41 15.5t41 -16t15 -44q0 -27 -14.5 -43.5t-41.5 -16.5z
M391 -208q-26 0 -41 15.5t-15 44.5t15 44.5t41 15.5q27 0 41.5 -16.5t14.5 -43.5t-14.5 -43.5t-41.5 -16.5z" />
    <glyph glyph-name="uniFB98" unicode="&#x6b3;" horiz-adv-x="576" arabic-form="initial" 
d="M-5 0q-5 0 -5 5v69q0 4 5 4h421v184q0 75 -45 110t-139 35h-170v82q16 34 38.5 67t50.5 66q57 65 127 116t136 76l32 -76q-46 -18 -92.5 -46.5t-87.5 -63t-72.5 -71.5t-48.5 -72h87q131 0 200 -54t69 -154v-277h-506zM36 639q17 33 51 73t79 80t95 73t98 53l29 -67
q-45 -16 -93 -46.5t-93.5 -69.5t-82 -79t-56.5 -76zM288 -389q-26 0 -41 15.5t-15 44.5t15 44.5t41 15.5t41 -16t15 -44q0 -27 -14.5 -43.5t-41.5 -16.5zM288 -208q-26 0 -41 15.5t-15 44.5t15 44.5t41 15.5q27 0 41.5 -16.5t14.5 -43.5t-14.5 -43.5t-41.5 -16.5z" />
    <glyph glyph-name="uniFB99" unicode="&#x6b3;" horiz-adv-x="626" arabic-form="medial" 
d="M-5 0q-5 0 -5 5v69q0 4 5 4h421v184q0 75 -45 110t-139 35h-170v82q16 34 38.5 67t50.5 66q57 65 127 116t136 76l32 -76q-46 -18 -92.5 -46.5t-87.5 -63t-72.5 -71.5t-48.5 -72h87q131 0 200 -54t69 -154v-199h130q5 0 5 -4v-69q0 -5 -5 -5h-636zM36 639q17 33 51 73
t79 80t95 73t98 53l29 -67q-45 -16 -93 -46.5t-93.5 -69.5t-82 -79t-56.5 -76zM313 -389q-26 0 -41 15.5t-15 44.5t15 44.5t41 15.5t41 -16t15 -44q0 -27 -14.5 -43.5t-41.5 -16.5zM313 -208q-26 0 -41 15.5t-15 44.5t15 44.5t41 15.5q27 0 41.5 -16.5t14.5 -43.5
t-14.5 -43.5t-41.5 -16.5z" />
    <glyph glyph-name="uniFB9B" unicode="&#x6b1;" horiz-adv-x="858" arabic-form="final" 
d="M252 0q-91 0 -139 46.5t-48 132.5q0 26 5.5 63.5t14.5 71.5h80q-7 -41 -11 -72.5t-4 -52.5q0 -52 26.5 -81.5t72.5 -29.5h399v184q0 75 -45 110t-139 35h-170v82q16 34 38.5 67t50.5 66q56 65 126.5 116t136.5 76l32 -76q-45 -18 -91.5 -46t-87.5 -63t-73 -72t-49 -72h87
q131 0 200 -54t69 -154v-199h130q5 0 5 -4v-69q0 -5 -5 -5h-611zM268 639q17 33 51 73t79 80t95 73t98 53l29 -67q-45 -16 -93 -46.5t-93.5 -69.5t-82 -79t-56.5 -76zM274 772q-11 0 -20 4.5t-14 14t-5 23.5q0 22 11 32t28 10q11 0 19.5 -4.5t14 -13.5t5.5 -24
q0 -22 -11.5 -32t-27.5 -10zM375 855q-10 0 -19 4.5t-14.5 14t-5.5 23.5q0 22 11.5 32t27.5 10t27.5 -10t11.5 -32t-11.5 -32t-27.5 -10z" />
    <glyph glyph-name="uniFB9C" unicode="&#x6b1;" horiz-adv-x="576" arabic-form="initial" 
d="M-5 0q-5 0 -5 5v69q0 4 5 4h421v184q0 75 -45 110t-139 35h-170v82q16 34 38.5 67t50.5 66q57 65 127 116t136 76l32 -76q-46 -18 -92.5 -46.5t-87.5 -63t-72.5 -71.5t-48.5 -72h87q131 0 200 -54t69 -154v-277h-506zM36 639q17 33 51 73t79 80t95 73t98 53l29 -67
q-45 -16 -93 -46.5t-93.5 -69.5t-82 -79t-56.5 -76zM42 772q-11 0 -20 4.5t-14 14t-5 23.5q0 22 11 32t28 10q11 0 19.5 -4.5t14 -13.5t5.5 -24q0 -22 -11.5 -32t-27.5 -10zM143 855q-10 0 -19 4.5t-14.5 14t-5.5 23.5q0 22 11.5 32t27.5 10t27.5 -10t11.5 -32t-11.5 -32
t-27.5 -10z" />
    <glyph glyph-name="uniFB9D" unicode="&#x6b1;" horiz-adv-x="626" arabic-form="medial" 
d="M-5 0q-5 0 -5 5v69q0 4 5 4h421v184q0 75 -45 110t-139 35h-170v82q16 34 38.5 67t50.5 66q57 65 127 116t136 76l32 -76q-46 -18 -92.5 -46.5t-87.5 -63t-72.5 -71.5t-48.5 -72h87q131 0 200 -54t69 -154v-199h130q5 0 5 -4v-69q0 -5 -5 -5h-636zM36 639q17 33 51 73
t79 80t95 73t98 53l29 -67q-45 -16 -93 -46.5t-93.5 -69.5t-82 -79t-56.5 -76zM42 772q-11 0 -20 4.5t-14 14t-5 23.5q0 22 11 32t28 10q11 0 19.5 -4.5t14 -13.5t5.5 -24q0 -22 -11.5 -32t-27.5 -10zM143 855q-10 0 -19 4.5t-14.5 14t-5.5 23.5q0 22 11.5 32t27.5 10
t27.5 -10t11.5 -32t-11.5 -32t-27.5 -10z" />
    <glyph glyph-name="uni06BA.fina" unicode="&#x6ba;" horiz-adv-x="692" arabic-form="final" 
d="M587 0q0 -119 -61 -179.5t-188 -60.5h-72q-37 0 -67.5 10.5t-54.5 29.5q-38 31 -58.5 82.5t-20.5 118.5q0 60 10.5 115.5t30.5 105.5h83q-17 -43 -25.5 -96.5t-8.5 -118.5q0 -81 33.5 -125t96.5 -44h49q58 0 95 17.5t55 53t18 89.5v487h85v-407h110q5 0 5 -4v-69
q0 -5 -5 -5h-110z" />
    <glyph glyph-name="uniFBA1" unicode="&#x6bb;" horiz-adv-x="692" arabic-form="final" 
d="M587 0q0 -119 -61 -179.5t-188 -60.5h-72q-37 0 -67.5 10.5t-54.5 29.5q-38 31 -58.5 82.5t-20.5 118.5q0 60 10.5 115.5t30.5 105.5h83q-17 -43 -25.5 -96.5t-8.5 -118.5q0 -81 33.5 -125t96.5 -44h49q58 0 95 17.5t55 53t18 89.5v487h85v-407h110q5 0 5 -4v-69
q0 -5 -5 -5h-110zM216 517h15v182h40v-127q12 29 30.5 47t47.5 18q37 0 55.5 -21.5t18.5 -65.5v-76h-207v43zM383 517v25q0 26 -9 39t-30 13q-23 0 -41 -16t-32 -51v-10h112z" />
    <glyph glyph-name="uniFBA5" unicode="&#x6c0;" horiz-adv-x="599" arabic-form="final" 
d="M319 0q-80 0 -137 27.5t-87 79.5t-30 124q0 79 33.5 135.5t95 87.5t145.5 31h66v63h85v-470h114q5 0 5 -4v-69q0 -5 -5 -5h-285zM405 78v329h-63q-90 0 -139 -46t-49 -129q0 -75 42.5 -114.5t120.5 -39.5h88zM184 663l47 7q-17 11 -26 27t-9 36q0 43 28 66.5t74 23.5
q39 0 66 -15l-15 -45q-10 6 -22.5 9t-27.5 3q-22 0 -37 -12.5t-15 -38.5q0 -17 8.5 -29t21.5 -18q20 4 40 6.5t36.5 4.5t23.5 2v-49q-19 -1 -41 -3.5t-47 -5.5t-51.5 -7t-53.5 -8v46z" />
    <glyph glyph-name="uni06C1.fina" unicode="&#x6c1;" horiz-adv-x="652" arabic-form="final" 
d="M50 0q25 48 47.5 87t42.5 70t37 53q52 68 113 110t141 65h94v-307h132q5 0 5 -4v-69q0 -5 -5 -5h-221v303q-32 -13 -59.5 -26.5t-48.5 -30.5q-28 -22 -53.5 -51t-53.5 -75t-64 -120h-107z" />
    <glyph glyph-name="uni06C1.init" unicode="&#x6c1;" horiz-adv-x="311" arabic-form="initial" 
d="M139 -203q-42 0 -68.5 25t-26.5 63q0 17 4.5 34t16 37t31.5 44h-101q-5 0 -5 5v69q0 4 5 4h132v407h89v-485h-44q-49 -61 -49 -92q0 -12 9 -22.5t26 -10.5h68v-78h-87z" />
    <glyph glyph-name="uni06C1.medi" unicode="&#x6c1;" horiz-adv-x="571" arabic-form="medial" 
d="M576 78q5 0 5 -4v-69q0 -5 -5 -5h-132v-248h-94q-98 0 -160.5 62.5t-84.5 185.5h-110q-5 0 -5 5v69q0 4 5 4h174q6 -42 14.5 -76.5t21.5 -62.5q26 -55 63 -82t87 -27v248h221z" />
    <glyph glyph-name="uni06BE.fina" unicode="&#x6be;" horiz-adv-x="846" arabic-form="final" 
d="M180 78q-32 21 -51 58.5t-19 84.5q0 61 26.5 107t72 71.5t102.5 25.5q65 0 108 -24t64.5 -71.5t21.5 -119.5v-132h131v196q0 137 -62 201t-193 64q-48 0 -94.5 -7.5t-90.5 -21.5l-23 77q32 11 65.5 17.5t69 10t73.5 3.5q162 0 251 -87.5t89 -248.5v-204h130q5 0 5 -4v-69
q0 -5 -5 -5h-786v78h115zM420 78v117q0 73 -28 107.5t-85 34.5q-51 0 -79.5 -31t-28.5 -88q0 -42 17.5 -73.5t48.5 -49t73 -17.5h82z" />
    <glyph glyph-name="uniFBAC" unicode="&#x6be;" horiz-adv-x="776" arabic-form="initial" 
d="M150 78q-32 20 -51 58t-19 85q0 61 26.5 106.5t72 71.5t102.5 26q65 0 108 -24t64.5 -71.5t21.5 -119.5v-132h131v196q0 136 -61.5 200.5t-193.5 64.5q-49 0 -95 -7.5t-90 -21.5l-23 77q32 11 65.5 17.5t69 10t73.5 3.5q163 0 251.5 -88t88.5 -248v-282h-696q-5 0 -5 5
v69q0 4 5 4h155zM308 78h82v117q0 74 -28.5 108t-84.5 34q-51 0 -79.5 -31t-28.5 -88q0 -42 17.5 -73.5t49 -49t72.5 -17.5z" />
    <glyph glyph-name="uni06BE.medi" unicode="&#x6be;" horiz-adv-x="816" arabic-form="medial" 
d="M150 78q-32 20 -51 58t-19 85q0 61 26.5 106.5t72 71.5t102.5 26q65 0 108 -24t64.5 -71.5t21.5 -119.5v-132h131v196q0 136 -61.5 200.5t-193.5 64.5q-49 0 -95 -7.5t-90 -21.5l-23 77q32 11 65.5 17.5t69 10t73.5 3.5q163 0 251.5 -88t88.5 -248v-204h130q5 0 5 -4v-69
q0 -5 -5 -5h-826q-5 0 -5 5v69q0 4 5 4h155zM308 78h82v117q0 74 -28.5 108t-84.5 34q-51 0 -79.5 -31t-28.5 -88q0 -42 17.5 -73.5t49 -49t72.5 -17.5z" />
    <glyph glyph-name="uni06D2.fina" unicode="&#x6d2;" horiz-adv-x="388" arabic-form="final" 
d="M397 78q5 0 5 -4v-69q0 -5 -5 -5h-144q-53 0 -86 -21t-33 -53q0 -24 16 -37.5t44 -13.5h468v-78h-466q-48 0 -82 15t-51.5 44t-17.5 70q0 43 30 77q29 35 81 55t110 20h131z" />
    <glyph glyph-name="uniFBB1" unicode="&#x6d3;" horiz-adv-x="388" arabic-form="final" 
d="M397 78q5 0 5 -4v-69q0 -5 -5 -5h-144q-53 0 -86 -21t-33 -53q0 -24 16 -37.5t44 -13.5h468v-78h-466q-48 0 -82 15t-51.5 44t-17.5 70q0 43 30 77q29 35 81 55t110 20h131zM135 234l47 7q-17 11 -26 27t-9 36q0 43 28 66.5t74 23.5q39 0 66 -15l-15 -45q-10 6 -22.5 9
t-27.5 3q-22 0 -37 -12.5t-15 -38.5q0 -17 8.5 -29t21.5 -18q20 4 40 6.5t36.5 4.5t23.5 2v-49q-19 -1 -41 -3.5t-47 -5.5t-51.5 -7t-53.5 -8v46z" />
    <glyph glyph-name="uniFBD4" unicode="&#x6ad;" horiz-adv-x="821" arabic-form="final" 
d="M252 0q-91 0 -139 46.5t-48 132.5q0 23 2.5 45.5t8.5 45t14 44.5h75q-7 -35 -11 -67t-4 -61q0 -50 26.5 -79t72.5 -29h359v682h85v-682h133q5 0 5 -4v-69q0 -5 -5 -5h-574zM304 314v44h140v5q0 13 -7.5 18.5t-27.5 5.5h-85v36q14 32 45.5 59t62.5 36l17 -41
q-17 -4 -36.5 -17.5t-33.5 -28.5h30q38 0 59 -16.5t21 -48.5v-52h-185zM399 706q-16 0 -27 9t-11 31q0 21 11 30.5t27 9.5t27 -10t11 -30q0 -22 -11 -31t-27 -9zM336 591q-16 0 -28 10.5t-12 33.5t12 33.5t28 10.5q20 0 30.5 -12t10.5 -32q0 -19 -10.5 -31.5t-30.5 -12.5z
M463 591q-19 0 -30 11.5t-11 32.5t11 32.5t30 11.5q20 0 30 -12t10 -32q0 -19 -10 -31.5t-30 -12.5z" />
    <glyph glyph-name="uniFBD5" unicode="&#x6ad;" horiz-adv-x="576" arabic-form="initial" 
d="M-5 0q-5 0 -5 5v69q0 4 5 4h421v184q0 75 -45 110t-139 35h-170v82q16 34 38.5 67t50.5 66q57 65 127 116t136 76l32 -76q-46 -18 -92.5 -46.5t-87.5 -63t-72.5 -71.5t-48.5 -72h87q131 0 200 -54t69 -154v-277h-506zM35 659q-11 0 -20 4.5t-14 14t-5 23.5q0 22 11 32
t28 10q11 0 19.5 -4.5t14 -13.5t5.5 -24q0 -22 -11.5 -32t-27.5 -10zM18 788q-17 0 -28 10t-11 32t11 32t28 10q11 0 19.5 -4.5t14 -13.5t5.5 -24q0 -22 -11.5 -32t-27.5 -10zM136 742q-10 0 -19 4.5t-14.5 14t-5.5 23.5q0 22 11.5 32t27.5 10t27.5 -10t11.5 -32t-11.5 -32
t-27.5 -10z" />
    <glyph glyph-name="uniFBD6" unicode="&#x6ad;" horiz-adv-x="626" arabic-form="medial" 
d="M-5 0q-5 0 -5 5v69q0 4 5 4h421v184q0 75 -45 110t-139 35h-170v82q16 34 38.5 67t50.5 66q57 65 127 116t136 76l32 -76q-46 -18 -92.5 -46.5t-87.5 -63t-72.5 -71.5t-48.5 -72h87q131 0 200 -54t69 -154v-199h130q5 0 5 -4v-69q0 -5 -5 -5h-636zM35 659q-11 0 -20 4.5
t-14 14t-5 23.5q0 22 11 32t28 10q11 0 19.5 -4.5t14 -13.5t5.5 -24q0 -22 -11.5 -32t-27.5 -10zM18 788q-17 0 -28 10t-11 32t11 32t28 10q11 0 19.5 -4.5t14 -13.5t5.5 -24q0 -22 -11.5 -32t-27.5 -10zM136 742q-10 0 -19 4.5t-14.5 14t-5.5 23.5q0 22 11.5 32t27.5 10
t27.5 -10t11.5 -32t-11.5 -32t-27.5 -10z" />
    <glyph glyph-name="uniFBD8" unicode="&#x6c7;" horiz-adv-x="553" arabic-form="final" 
d="M558 78q5 0 5 -4v-69q0 -5 -5 -5h-181q-5 0 -5 5v69q0 4 5 4h181zM245 -240q-51 0 -96 13t-84 38l40 67q32 -17 66.5 -28.5t75.5 -11.5q68 0 106.5 36.5t38.5 96.5v29h-98q-107 0 -165 58.5t-58 169.5q0 79 33.5 136.5t95.5 89t145 31.5h131v-509q0 -102 -60.5 -159
t-170.5 -57zM391 78v329h-43q-89 0 -138.5 -47t-49.5 -131q0 -78 34 -114.5t103 -36.5h94zM214 566l-23 34q23 14 42 26.5t33.5 23.5t21.5 20q-33 11 -54 33.5t-21 47.5q0 29 24 51.5t55 22.5q28 0 45 -23.5t17 -57.5q0 -31 -10.5 -56.5t-29.5 -47.5t-44.5 -40t-55.5 -34z
" />
    <glyph glyph-name="uniFBDA" unicode="&#x6c6;" horiz-adv-x="553" arabic-form="final" 
d="M558 78q5 0 5 -4v-69q0 -5 -5 -5h-181q-5 0 -5 5v69q0 4 5 4h181zM245 -240q-51 0 -96 13t-84 38l40 67q32 -17 66.5 -28.5t75.5 -11.5q68 0 106.5 36.5t38.5 96.5v29h-98q-107 0 -165 58.5t-58 169.5q0 79 33.5 136.5t95.5 89t145 31.5h131v-509q0 -102 -60.5 -159
t-170.5 -57zM391 78v329h-43q-89 0 -138.5 -47t-49.5 -131q0 -78 34 -114.5t103 -36.5h94zM414 785l-110 -199h-62l-111 199h78l63 -129l65 129h77z" />
    <glyph glyph-name="uniFBDC" unicode="&#x6c8;" horiz-adv-x="553" arabic-form="final" 
d="M558 78q5 0 5 -4v-69q0 -5 -5 -5h-181q-5 0 -5 5v69q0 4 5 4h181zM245 -240q-51 0 -96 13t-84 38l40 67q32 -17 66.5 -28.5t75.5 -11.5q68 0 106.5 36.5t38.5 96.5v29h-98q-107 0 -165 58.5t-58 169.5q0 79 33.5 136.5t95.5 89t145 31.5h131v-509q0 -102 -60.5 -159
t-170.5 -57zM391 78v329h-43q-89 0 -138.5 -47t-49.5 -131q0 -78 34 -114.5t103 -36.5h94zM244 770h57v-194h-57v194z" />
    <glyph glyph-name="uniFBDF" unicode="&#x6cb;" horiz-adv-x="553" arabic-form="final" 
d="M558 78q5 0 5 -4v-69q0 -5 -5 -5h-181q-5 0 -5 5v69q0 4 5 4h181zM245 -240q-51 0 -96 13t-84 38l40 67q32 -17 66.5 -28.5t75.5 -11.5q68 0 106.5 36.5t38.5 96.5v29h-98q-107 0 -165 58.5t-58 169.5q0 79 33.5 136.5t95.5 89t145 31.5h131v-509q0 -102 -60.5 -159
t-170.5 -57zM391 78v329h-43q-89 0 -138.5 -47t-49.5 -131q0 -78 34 -114.5t103 -36.5h94zM273 736q-22 0 -37 13t-15 42t15 42t37 13q21 0 36.5 -13.5t15.5 -41.5q0 -29 -15.5 -42t-36.5 -13zM187 601q-23 0 -39.5 14t-16.5 46t16.5 46t39.5 14q27 0 41.5 -16.5t14.5 -43.5
t-14.5 -43.5t-41.5 -16.5zM360 601q-26 0 -41 15.5t-15 44.5t15 44.5t41 15.5q27 0 41.5 -16.5t14.5 -43.5t-14.5 -43.5t-41.5 -16.5z" />
    <glyph glyph-name="uni06C5.fina" unicode="&#x6c5;" horiz-adv-x="553" arabic-form="final" 
d="M558 78q5 0 5 -4v-69q0 -5 -5 -5h-181q-5 0 -5 5v69q0 4 5 4h181zM391 78v329h-43q-89 0 -138.5 -47t-49.5 -131q0 -78 34 -114.5t103 -36.5h94zM259 -257q29 23 60 56t52 71.5t21 79.5v50h-98q-107 0 -165 58.5t-58 169.5q0 79 33.5 136.5t95.5 89t145 31.5h131v-529
q0 -47 -17 -91.5t-52.5 -89.5t-92.5 -95zM374 -156l-41 15q-28 11 -45 15.5t-34 4.5q-10 0 -24 -3.5t-31 -11.5l-25 37q26 20 43.5 28t37.5 8q12 0 27.5 -3.5t34.5 -10.5q29 -10 48 -16t27 -7z" />
    <glyph glyph-name="uniFBE3" unicode="&#x6c9;" horiz-adv-x="553" arabic-form="final" 
d="M558 78q5 0 5 -4v-69q0 -5 -5 -5h-181q-5 0 -5 5v69q0 4 5 4h181zM245 -240q-51 0 -96 13t-84 38l40 67q32 -17 66.5 -28.5t75.5 -11.5q68 0 106.5 36.5t38.5 96.5v29h-98q-107 0 -165 58.5t-58 169.5q0 79 33.5 136.5t95.5 89t145 31.5h131v-509q0 -102 -60.5 -159
t-170.5 -57zM391 78v329h-43q-89 0 -138.5 -47t-49.5 -131q0 -78 34 -114.5t103 -36.5h94zM142 586l110 199h42l111 -199h-68l-63 129l-65 -129h-67z" />
    <glyph glyph-name="uniFBE5" unicode="&#x6d0;" horiz-adv-x="964" arabic-form="final" 
d="M266 -240q-62 0 -107.5 29.5t-69.5 83.5t-24 128q0 52 8.5 94t26.5 86h83q-16 -42 -22 -81.5t-6 -92.5q0 -54 15 -91.5t44 -57.5t71 -20h186q48 0 85 12.5t58.5 33t21.5 44.5q0 21 -18 35.5t-56 25.5q-49 15 -85.5 29.5t-56.5 39t-20 65.5q0 29 9 57t26 55q23 36 55.5 63
t69.5 42t73 15q17 0 32 -3t28 -9q26 -12 49 -35.5t57 -77.5q32 -52 56 -83t43 -45q15 -11 31 -17.5t35 -6.5h5q5 0 5 -4v-69q0 -5 -5 -5h-5q-28 0 -54.5 8.5t-52.5 26.5t-54 46q-5 6 -18 23.5t-33 45.5q-24 34 -43 56.5t-33 35.5q-13 12 -27 17.5t-27 5.5q-21 0 -44 -12.5
t-43 -32.5t-32.5 -42.5t-12.5 -42.5q0 -14 10.5 -24.5t28 -17.5t36.5 -13q37 -10 62 -19t40 -17q30 -16 45.5 -37.5t15.5 -48.5q0 -99 -64.5 -148.5t-192.5 -49.5h-205zM391 -633q-26 0 -41 15.5t-15 44.5t15 44.5t41 15.5t41 -16t15 -44q0 -27 -14.5 -43.5t-41.5 -16.5z
M391 -452q-26 0 -41 15.5t-15 44.5t15 44.5t41 15.5q27 0 41.5 -16.5t14.5 -43.5t-14.5 -43.5t-41.5 -16.5z" />
    <glyph glyph-name="uniFBE6" unicode="&#x6d0;" horiz-adv-x="374" arabic-form="initial" 
d="M-5 0q-5 0 -5 5v69q0 4 5 4h192v407h89v-485h-281zM187 -389q-26 0 -41 15.5t-15 44.5t15 44.5t41 15.5t41 -16t15 -44q0 -27 -14.5 -43.5t-41.5 -16.5zM187 -208q-26 0 -41 15.5t-15 44.5t15 44.5t41 15.5q27 0 41.5 -16.5t14.5 -43.5t-14.5 -43.5t-41.5 -16.5z" />
    <glyph glyph-name="uniFBE7" unicode="&#x6d0;" horiz-adv-x="391" arabic-form="medial" 
d="M-5 0q-5 0 -5 5v69q0 4 5 4h162v407h89v-407h150q5 0 5 -4v-69q0 -5 -5 -5h-401zM194 -389q-26 0 -41 15.5t-15 44.5t15 44.5t41 15.5t41 -16t15 -44q0 -27 -14.5 -43.5t-41.5 -16.5zM194 -208q-26 0 -41 15.5t-15 44.5t15 44.5t41 15.5q27 0 41.5 -16.5t14.5 -43.5
t-14.5 -43.5t-41.5 -16.5z" />
    <glyph glyph-name="uniFBE8" unicode="&#x649;" horiz-adv-x="301" arabic-form="initial" 
d="M-5 0q-5 0 -5 5v69q0 4 5 4h132v407h89v-485h-221z" />
    <glyph glyph-name="uniFBE9" unicode="&#x649;" horiz-adv-x="341" arabic-form="medial" 
d="M-5 0q-5 0 -5 5v69q0 4 5 4h132v407h89v-407h130q5 0 5 -4v-69q0 -5 -5 -5h-351z" />
    <glyph glyph-name="uniFBEA" unicode="&#xfbea;" horiz-adv-x="617" arabic-form="isolated" 
d="M311 0q-5 0 -5 5v69q0 4 5 4h132v407h89v-485h-221zM353 585l47 7q-17 11 -26 27t-9 36q0 43 28 66.5t74 23.5q39 0 66 -15l-15 -45q-10 6 -22.5 9t-27.5 3q-22 0 -37 -12.5t-15 -38.5q0 -17 8.5 -29t21.5 -18q20 4 40 6.5t36.5 4.5t23.5 2v-49q-19 -1 -41 -3.5t-47 -5.5
t-51.5 -7t-53.5 -8v46zM321 78q5 0 5 -4v-69q0 -5 -5 -5h-221v760h89v-682h132z" />
    <glyph glyph-name="uniFBEB" unicode="&#xfbeb;" horiz-adv-x="657" arabic-form="final" 
d="M311 0q-5 0 -5 5v69q0 4 5 4h132v407h89v-407h130q5 0 5 -4v-69q0 -5 -5 -5h-351zM353 605l47 7q-17 11 -26 27t-9 36q0 43 28 66.5t74 23.5q39 0 66 -15l-15 -45q-10 6 -22.5 9t-27.5 3q-22 0 -37 -12.5t-15 -38.5q0 -17 8.5 -29t21.5 -18q20 4 40 6.5t36.5 4.5t23.5 2
v-49q-19 -1 -41 -3.5t-47 -5.5t-51.5 -7t-53.5 -8v46zM321 78q5 0 5 -4v-69q0 -5 -5 -5h-221v760h89v-682h132z" />
    <glyph glyph-name="uniFBEC" unicode="&#xfbec;" horiz-adv-x="953" arabic-form="isolated" 
d="M647 0q-5 0 -5 5v69q0 4 5 4h132v407h89v-485h-221zM689 585l47 7q-17 11 -26 27t-9 36q0 43 28 66.5t74 23.5q39 0 66 -15l-15 -45q-10 6 -22.5 9t-27.5 3q-22 0 -37 -12.5t-15 -38.5q0 -17 8.5 -29t21.5 -18q20 4 40 6.5t36.5 4.5t23.5 2v-49q-19 -1 -41 -3.5t-47 -5.5
t-51.5 -7t-53.5 -8v46zM50 0q25 48 47.5 87t42.5 70t37 53q52 68 113 110t141 65h94v-307h132q5 0 5 -4v-69q0 -5 -5 -5h-221v303q-32 -13 -59.5 -26.5t-48.5 -30.5q-28 -22 -53.5 -51t-53.5 -75t-64 -120h-107z" />
    <glyph glyph-name="uniFBED" unicode="&#xfbed;" horiz-adv-x="993" arabic-form="final" 
d="M647 0q-5 0 -5 5v69q0 4 5 4h132v407h89v-407h130q5 0 5 -4v-69q0 -5 -5 -5h-351zM689 605l47 7q-17 11 -26 27t-9 36q0 43 28 66.5t74 23.5q39 0 66 -15l-15 -45q-10 6 -22.5 9t-27.5 3q-22 0 -37 -12.5t-15 -38.5q0 -17 8.5 -29t21.5 -18q20 4 40 6.5t36.5 4.5t23.5 2
v-49q-19 -1 -41 -3.5t-47 -5.5t-51.5 -7t-53.5 -8v46zM50 0q25 48 47.5 87t42.5 70t37 53q52 68 113 110t141 65h94v-307h132q5 0 5 -4v-69q0 -5 -5 -5h-221v303q-32 -13 -59.5 -26.5t-48.5 -30.5q-28 -22 -53.5 -51t-53.5 -75t-64 -120h-107z" />
    <glyph glyph-name="uniFBEE" unicode="&#xfbee;" horiz-adv-x="854" arabic-form="isolated" 
d="M548 0q-5 0 -5 5v69q0 4 5 4h132v407h89v-485h-221zM590 585l47 7q-17 11 -26 27t-9 36q0 43 28 66.5t74 23.5q39 0 66 -15l-15 -45q-10 6 -22.5 9t-27.5 3q-22 0 -37 -12.5t-15 -38.5q0 -17 8.5 -29t21.5 -18q20 4 40 6.5t36.5 4.5t23.5 2v-49q-19 -1 -41 -3.5t-47 -5.5
t-51.5 -7t-53.5 -8v46zM558 78q5 0 5 -4v-69q0 -5 -5 -5h-181q-5 0 -5 5v69q0 4 5 4h181zM245 -240q-51 0 -96 13t-84 38l40 67q32 -17 66.5 -28.5t75.5 -11.5q68 0 106.5 36.5t38.5 96.5v29h-98q-107 0 -165 58.5t-58 169.5q0 79 33.5 136.5t95.5 89t145 31.5h131v-509
q0 -102 -60.5 -159t-170.5 -57zM391 78v329h-43q-89 0 -138.5 -47t-49.5 -131q0 -78 34 -114.5t103 -36.5h94z" />
    <glyph glyph-name="uniFBEF" unicode="&#xfbef;" horiz-adv-x="894" arabic-form="final" 
d="M548 0q-5 0 -5 5v69q0 4 5 4h132v407h89v-407h130q5 0 5 -4v-69q0 -5 -5 -5h-351zM590 605l47 7q-17 11 -26 27t-9 36q0 43 28 66.5t74 23.5q39 0 66 -15l-15 -45q-10 6 -22.5 9t-27.5 3q-22 0 -37 -12.5t-15 -38.5q0 -17 8.5 -29t21.5 -18q20 4 40 6.5t36.5 4.5t23.5 2
v-49q-19 -1 -41 -3.5t-47 -5.5t-51.5 -7t-53.5 -8v46zM558 78q5 0 5 -4v-69q0 -5 -5 -5h-181q-5 0 -5 5v69q0 4 5 4h181zM245 -240q-51 0 -96 13t-84 38l40 67q32 -17 66.5 -28.5t75.5 -11.5q68 0 106.5 36.5t38.5 96.5v29h-98q-107 0 -165 58.5t-58 169.5q0 79 33.5 136.5
t95.5 89t145 31.5h131v-509q0 -102 -60.5 -159t-170.5 -57zM391 78v329h-43q-89 0 -138.5 -47t-49.5 -131q0 -78 34 -114.5t103 -36.5h94z" />
    <glyph glyph-name="uniFBF0" unicode="&#xfbf0;" horiz-adv-x="854" arabic-form="isolated" 
d="M548 0q-5 0 -5 5v69q0 4 5 4h132v407h89v-485h-221zM590 585l47 7q-17 11 -26 27t-9 36q0 43 28 66.5t74 23.5q39 0 66 -15l-15 -45q-10 6 -22.5 9t-27.5 3q-22 0 -37 -12.5t-15 -38.5q0 -17 8.5 -29t21.5 -18q20 4 40 6.5t36.5 4.5t23.5 2v-49q-19 -1 -41 -3.5t-47 -5.5
t-51.5 -7t-53.5 -8v46zM558 78q5 0 5 -4v-69q0 -5 -5 -5h-181q-5 0 -5 5v69q0 4 5 4h181zM245 -240q-51 0 -96 13t-84 38l40 67q32 -17 66.5 -28.5t75.5 -11.5q68 0 106.5 36.5t38.5 96.5v29h-98q-107 0 -165 58.5t-58 169.5q0 79 33.5 136.5t95.5 89t145 31.5h131v-509
q0 -102 -60.5 -159t-170.5 -57zM391 78v329h-43q-89 0 -138.5 -47t-49.5 -131q0 -78 34 -114.5t103 -36.5h94zM214 566l-23 34q23 14 42 26.5t33.5 23.5t21.5 20q-33 11 -54 33.5t-21 47.5q0 29 24 51.5t55 22.5q28 0 45 -23.5t17 -57.5q0 -31 -10.5 -56.5t-29.5 -47.5
t-44.5 -40t-55.5 -34z" />
    <glyph glyph-name="uniFBF1" unicode="&#xfbf1;" horiz-adv-x="894" arabic-form="final" 
d="M548 0q-5 0 -5 5v69q0 4 5 4h132v407h89v-407h130q5 0 5 -4v-69q0 -5 -5 -5h-351zM590 605l47 7q-17 11 -26 27t-9 36q0 43 28 66.5t74 23.5q39 0 66 -15l-15 -45q-10 6 -22.5 9t-27.5 3q-22 0 -37 -12.5t-15 -38.5q0 -17 8.5 -29t21.5 -18q20 4 40 6.5t36.5 4.5t23.5 2
v-49q-19 -1 -41 -3.5t-47 -5.5t-51.5 -7t-53.5 -8v46zM558 78q5 0 5 -4v-69q0 -5 -5 -5h-181q-5 0 -5 5v69q0 4 5 4h181zM245 -240q-51 0 -96 13t-84 38l40 67q32 -17 66.5 -28.5t75.5 -11.5q68 0 106.5 36.5t38.5 96.5v29h-98q-107 0 -165 58.5t-58 169.5q0 79 33.5 136.5
t95.5 89t145 31.5h131v-509q0 -102 -60.5 -159t-170.5 -57zM391 78v329h-43q-89 0 -138.5 -47t-49.5 -131q0 -78 34 -114.5t103 -36.5h94zM214 566l-23 34q23 14 42 26.5t33.5 23.5t21.5 20q-33 11 -54 33.5t-21 47.5q0 29 24 51.5t55 22.5q28 0 45 -23.5t17 -57.5
q0 -31 -10.5 -56.5t-29.5 -47.5t-44.5 -40t-55.5 -34z" />
    <glyph glyph-name="uniFBF2" unicode="&#xfbf2;" horiz-adv-x="854" arabic-form="isolated" 
d="M548 0q-5 0 -5 5v69q0 4 5 4h132v407h89v-485h-221zM590 585l47 7q-17 11 -26 27t-9 36q0 43 28 66.5t74 23.5q39 0 66 -15l-15 -45q-10 6 -22.5 9t-27.5 3q-22 0 -37 -12.5t-15 -38.5q0 -17 8.5 -29t21.5 -18q20 4 40 6.5t36.5 4.5t23.5 2v-49q-19 -1 -41 -3.5t-47 -5.5
t-51.5 -7t-53.5 -8v46zM558 78q5 0 5 -4v-69q0 -5 -5 -5h-181q-5 0 -5 5v69q0 4 5 4h181zM245 -240q-51 0 -96 13t-84 38l40 67q32 -17 66.5 -28.5t75.5 -11.5q68 0 106.5 36.5t38.5 96.5v29h-98q-107 0 -165 58.5t-58 169.5q0 79 33.5 136.5t95.5 89t145 31.5h131v-509
q0 -102 -60.5 -159t-170.5 -57zM391 78v329h-43q-89 0 -138.5 -47t-49.5 -131q0 -78 34 -114.5t103 -36.5h94zM414 785l-110 -199h-62l-111 199h78l63 -129l65 129h77z" />
    <glyph glyph-name="uniFBF3" unicode="&#xfbf3;" horiz-adv-x="894" arabic-form="final" 
d="M548 0q-5 0 -5 5v69q0 4 5 4h132v407h89v-407h130q5 0 5 -4v-69q0 -5 -5 -5h-351zM590 605l47 7q-17 11 -26 27t-9 36q0 43 28 66.5t74 23.5q39 0 66 -15l-15 -45q-10 6 -22.5 9t-27.5 3q-22 0 -37 -12.5t-15 -38.5q0 -17 8.5 -29t21.5 -18q20 4 40 6.5t36.5 4.5t23.5 2
v-49q-19 -1 -41 -3.5t-47 -5.5t-51.5 -7t-53.5 -8v46zM558 78q5 0 5 -4v-69q0 -5 -5 -5h-181q-5 0 -5 5v69q0 4 5 4h181zM245 -240q-51 0 -96 13t-84 38l40 67q32 -17 66.5 -28.5t75.5 -11.5q68 0 106.5 36.5t38.5 96.5v29h-98q-107 0 -165 58.5t-58 169.5q0 79 33.5 136.5
t95.5 89t145 31.5h131v-509q0 -102 -60.5 -159t-170.5 -57zM391 78v329h-43q-89 0 -138.5 -47t-49.5 -131q0 -78 34 -114.5t103 -36.5h94zM414 785l-110 -199h-62l-111 199h78l63 -129l65 129h77z" />
    <glyph glyph-name="uniFBF4" unicode="&#xfbf4;" horiz-adv-x="854" arabic-form="isolated" 
d="M548 0q-5 0 -5 5v69q0 4 5 4h132v407h89v-485h-221zM590 585l47 7q-17 11 -26 27t-9 36q0 43 28 66.5t74 23.5q39 0 66 -15l-15 -45q-10 6 -22.5 9t-27.5 3q-22 0 -37 -12.5t-15 -38.5q0 -17 8.5 -29t21.5 -18q20 4 40 6.5t36.5 4.5t23.5 2v-49q-19 -1 -41 -3.5t-47 -5.5
t-51.5 -7t-53.5 -8v46zM558 78q5 0 5 -4v-69q0 -5 -5 -5h-181q-5 0 -5 5v69q0 4 5 4h181zM245 -240q-51 0 -96 13t-84 38l40 67q32 -17 66.5 -28.5t75.5 -11.5q68 0 106.5 36.5t38.5 96.5v29h-98q-107 0 -165 58.5t-58 169.5q0 79 33.5 136.5t95.5 89t145 31.5h131v-509
q0 -102 -60.5 -159t-170.5 -57zM391 78v329h-43q-89 0 -138.5 -47t-49.5 -131q0 -78 34 -114.5t103 -36.5h94zM244 770h57v-194h-57v194z" />
    <glyph glyph-name="uniFBF5" unicode="&#xfbf5;" horiz-adv-x="894" arabic-form="final" 
d="M548 0q-5 0 -5 5v69q0 4 5 4h132v407h89v-407h130q5 0 5 -4v-69q0 -5 -5 -5h-351zM590 605l47 7q-17 11 -26 27t-9 36q0 43 28 66.5t74 23.5q39 0 66 -15l-15 -45q-10 6 -22.5 9t-27.5 3q-22 0 -37 -12.5t-15 -38.5q0 -17 8.5 -29t21.5 -18q20 4 40 6.5t36.5 4.5t23.5 2
v-49q-19 -1 -41 -3.5t-47 -5.5t-51.5 -7t-53.5 -8v46zM558 78q5 0 5 -4v-69q0 -5 -5 -5h-181q-5 0 -5 5v69q0 4 5 4h181zM245 -240q-51 0 -96 13t-84 38l40 67q32 -17 66.5 -28.5t75.5 -11.5q68 0 106.5 36.5t38.5 96.5v29h-98q-107 0 -165 58.5t-58 169.5q0 79 33.5 136.5
t95.5 89t145 31.5h131v-509q0 -102 -60.5 -159t-170.5 -57zM391 78v329h-43q-89 0 -138.5 -47t-49.5 -131q0 -78 34 -114.5t103 -36.5h94zM244 770h57v-194h-57v194z" />
    <glyph glyph-name="uniFBF6" unicode="&#xfbf6;" horiz-adv-x="1265" arabic-form="isolated" 
d="M959 0q-5 0 -5 5v69q0 4 5 4h132v407h89v-485h-221zM1001 585l47 7q-17 11 -26 27t-9 36q0 43 28 66.5t74 23.5q39 0 66 -15l-15 -45q-10 6 -22.5 9t-27.5 3q-22 0 -37 -12.5t-15 -38.5q0 -17 8.5 -29t21.5 -18q20 4 40 6.5t36.5 4.5t23.5 2v-49q-19 -1 -41 -3.5
t-47 -5.5t-51.5 -7t-53.5 -8v46zM266 -240q-62 0 -107.5 29.5t-69.5 83.5t-24 128q0 52 8.5 94t26.5 86h83q-16 -42 -22 -81.5t-6 -92.5q0 -54 15 -91.5t44 -57.5t71 -20h186q48 0 85 12.5t58.5 33t21.5 44.5q0 21 -18 35.5t-56 25.5q-49 15 -85.5 29.5t-56.5 39t-20 65.5
q0 29 9 57t26 55q23 36 55.5 63t69.5 42t73 15q17 0 32 -3t28 -9q26 -12 49 -35.5t57 -77.5q32 -52 56 -83t43 -45q15 -11 31 -17.5t35 -6.5h5q5 0 5 -4v-69q0 -5 -5 -5h-5q-28 0 -54.5 8.5t-52.5 26.5t-54 46q-5 6 -18 23.5t-33 45.5q-24 34 -43 56.5t-33 35.5
q-13 12 -27 17.5t-27 5.5q-21 0 -44 -12.5t-43 -32.5t-32.5 -42.5t-12.5 -42.5q0 -14 10.5 -24.5t28 -17.5t36.5 -13q37 -10 62 -19t40 -17q30 -16 45.5 -37.5t15.5 -48.5q0 -99 -64.5 -148.5t-192.5 -49.5h-205zM391 -633q-26 0 -41 15.5t-15 44.5t15 44.5t41 15.5t41 -16
t15 -44q0 -27 -14.5 -43.5t-41.5 -16.5zM391 -452q-26 0 -41 15.5t-15 44.5t15 44.5t41 15.5q27 0 41.5 -16.5t14.5 -43.5t-14.5 -43.5t-41.5 -16.5z" />
    <glyph glyph-name="uniFBF7" unicode="&#xfbf7;" horiz-adv-x="1305" arabic-form="final" 
d="M959 0q-5 0 -5 5v69q0 4 5 4h132v407h89v-407h130q5 0 5 -4v-69q0 -5 -5 -5h-351zM1001 605l47 7q-17 11 -26 27t-9 36q0 43 28 66.5t74 23.5q39 0 66 -15l-15 -45q-10 6 -22.5 9t-27.5 3q-22 0 -37 -12.5t-15 -38.5q0 -17 8.5 -29t21.5 -18q20 4 40 6.5t36.5 4.5t23.5 2
v-49q-19 -1 -41 -3.5t-47 -5.5t-51.5 -7t-53.5 -8v46zM266 -240q-62 0 -107.5 29.5t-69.5 83.5t-24 128q0 52 8.5 94t26.5 86h83q-16 -42 -22 -81.5t-6 -92.5q0 -54 15 -91.5t44 -57.5t71 -20h186q48 0 85 12.5t58.5 33t21.5 44.5q0 21 -18 35.5t-56 25.5q-49 15 -85.5 29.5
t-56.5 39t-20 65.5q0 29 9 57t26 55q23 36 55.5 63t69.5 42t73 15q17 0 32 -3t28 -9q26 -12 49 -35.5t57 -77.5q32 -52 56 -83t43 -45q15 -11 31 -17.5t35 -6.5h5q5 0 5 -4v-69q0 -5 -5 -5h-5q-28 0 -54.5 8.5t-52.5 26.5t-54 46q-5 6 -18 23.5t-33 45.5q-24 34 -43 56.5
t-33 35.5q-13 12 -27 17.5t-27 5.5q-21 0 -44 -12.5t-43 -32.5t-32.5 -42.5t-12.5 -42.5q0 -14 10.5 -24.5t28 -17.5t36.5 -13q37 -10 62 -19t40 -17q30 -16 45.5 -37.5t15.5 -48.5q0 -99 -64.5 -148.5t-192.5 -49.5h-205zM391 -633q-26 0 -41 15.5t-15 44.5t15 44.5
t41 15.5t41 -16t15 -44q0 -27 -14.5 -43.5t-41.5 -16.5zM391 -452q-26 0 -41 15.5t-15 44.5t15 44.5t41 15.5q27 0 41.5 -16.5t14.5 -43.5t-14.5 -43.5t-41.5 -16.5z" />
    <glyph glyph-name="uniFBF8" unicode="&#xfbf8;" horiz-adv-x="692" arabic-form="initial" 
d="M386 0q-5 0 -5 5v69q0 4 5 4h132v407h89v-485h-221zM428 585l47 7q-17 11 -26 27t-9 36q0 43 28 66.5t74 23.5q39 0 66 -15l-15 -45q-10 6 -22.5 9t-27.5 3q-22 0 -37 -12.5t-15 -38.5q0 -17 8.5 -29t21.5 -18q20 4 40 6.5t36.5 4.5t23.5 2v-49q-19 -1 -41 -3.5t-47 -5.5
t-51.5 -7t-53.5 -8v46zM-5 0q-5 0 -5 5v69q0 4 5 4h162v407h89v-407h150q5 0 5 -4v-69q0 -5 -5 -5h-401zM194 -389q-26 0 -41 15.5t-15 44.5t15 44.5t41 15.5t41 -16t15 -44q0 -27 -14.5 -43.5t-41.5 -16.5zM194 -208q-26 0 -41 15.5t-15 44.5t15 44.5t41 15.5
q27 0 41.5 -16.5t14.5 -43.5t-14.5 -43.5t-41.5 -16.5z" />
    <glyph glyph-name="uniFBF9" unicode="&#xfbf9;" horiz-adv-x="1265" arabic-form="isolated" 
d="M959 0q-5 0 -5 5v69q0 4 5 4h132v407h89v-485h-221zM1001 585l47 7q-17 11 -26 27t-9 36q0 43 28 66.5t74 23.5q39 0 66 -15l-15 -45q-10 6 -22.5 9t-27.5 3q-22 0 -37 -12.5t-15 -38.5q0 -17 8.5 -29t21.5 -18q20 4 40 6.5t36.5 4.5t23.5 2v-49q-19 -1 -41 -3.5
t-47 -5.5t-51.5 -7t-53.5 -8v46zM266 -240q-62 0 -107.5 29.5t-69.5 83.5t-24 128q0 52 8.5 94t26.5 86h83q-16 -42 -22 -81.5t-6 -92.5q0 -54 15 -91.5t44 -57.5t71 -20h186q48 0 85 12.5t58.5 33t21.5 44.5q0 21 -18 35.5t-56 25.5q-49 15 -85.5 29.5t-56.5 39t-20 65.5
q0 29 9 57t26 55q23 36 55.5 63t69.5 42t73 15q17 0 32 -3t28 -9q26 -12 49 -35.5t57 -77.5q32 -52 56 -83t43 -45q15 -11 31 -17.5t35 -6.5h5q5 0 5 -4v-69q0 -5 -5 -5h-5q-28 0 -54.5 8.5t-52.5 26.5t-54 46q-5 6 -18 23.5t-33 45.5q-24 34 -43 56.5t-33 35.5
q-13 12 -27 17.5t-27 5.5q-21 0 -44 -12.5t-43 -32.5t-32.5 -42.5t-12.5 -42.5q0 -14 10.5 -24.5t28 -17.5t36.5 -13q37 -10 62 -19t40 -17q30 -16 45.5 -37.5t15.5 -48.5q0 -99 -64.5 -148.5t-192.5 -49.5h-205z" />
    <glyph glyph-name="uniFBFA" unicode="&#xfbfa;" horiz-adv-x="1305" arabic-form="final" 
d="M959 0q-5 0 -5 5v69q0 4 5 4h132v407h89v-407h130q5 0 5 -4v-69q0 -5 -5 -5h-351zM1001 605l47 7q-17 11 -26 27t-9 36q0 43 28 66.5t74 23.5q39 0 66 -15l-15 -45q-10 6 -22.5 9t-27.5 3q-22 0 -37 -12.5t-15 -38.5q0 -17 8.5 -29t21.5 -18q20 4 40 6.5t36.5 4.5t23.5 2
v-49q-19 -1 -41 -3.5t-47 -5.5t-51.5 -7t-53.5 -8v46zM266 -240q-62 0 -107.5 29.5t-69.5 83.5t-24 128q0 52 8.5 94t26.5 86h83q-16 -42 -22 -81.5t-6 -92.5q0 -54 15 -91.5t44 -57.5t71 -20h186q48 0 85 12.5t58.5 33t21.5 44.5q0 21 -18 35.5t-56 25.5q-49 15 -85.5 29.5
t-56.5 39t-20 65.5q0 29 9 57t26 55q23 36 55.5 63t69.5 42t73 15q17 0 32 -3t28 -9q26 -12 49 -35.5t57 -77.5q32 -52 56 -83t43 -45q15 -11 31 -17.5t35 -6.5h5q5 0 5 -4v-69q0 -5 -5 -5h-5q-28 0 -54.5 8.5t-52.5 26.5t-54 46q-5 6 -18 23.5t-33 45.5q-24 34 -43 56.5
t-33 35.5q-13 12 -27 17.5t-27 5.5q-21 0 -44 -12.5t-43 -32.5t-32.5 -42.5t-12.5 -42.5q0 -14 10.5 -24.5t28 -17.5t36.5 -13q37 -10 62 -19t40 -17q30 -16 45.5 -37.5t15.5 -48.5q0 -99 -64.5 -148.5t-192.5 -49.5h-205z" />
    <glyph glyph-name="uniFBFB" unicode="&#xfbfb;" horiz-adv-x="642" arabic-form="initial" 
d="M336 0q-5 0 -5 5v69q0 4 5 4h132v407h89v-485h-221zM378 585l47 7q-17 11 -26 27t-9 36q0 43 28 66.5t74 23.5q39 0 66 -15l-15 -45q-10 6 -22.5 9t-27.5 3q-22 0 -37 -12.5t-15 -38.5q0 -17 8.5 -29t21.5 -18q20 4 40 6.5t36.5 4.5t23.5 2v-49q-19 -1 -41 -3.5t-47 -5.5
t-51.5 -7t-53.5 -8v46zM-5 0q-5 0 -5 5v69q0 4 5 4h132v407h89v-407h130q5 0 5 -4v-69q0 -5 -5 -5h-351z" />
    <glyph glyph-name="uni0649.fina" unicode="&#x649;" horiz-adv-x="964" arabic-form="final" 
d="M266 -240q-62 0 -107.5 29.5t-69.5 83.5t-24 128q0 52 8.5 94t26.5 86h83q-16 -42 -22 -81.5t-6 -92.5q0 -54 15 -91.5t44 -57.5t71 -20h186q48 0 85 12.5t58.5 33t21.5 44.5q0 21 -18 35.5t-56 25.5q-49 15 -85.5 29.5t-56.5 39t-20 65.5q0 29 9 57t26 55q23 36 55.5 63
t69.5 42t73 15q17 0 32 -3t28 -9q26 -12 49 -35.5t57 -77.5q32 -52 56 -83t43 -45q15 -11 31 -17.5t35 -6.5h5q5 0 5 -4v-69q0 -5 -5 -5h-5q-28 0 -54.5 8.5t-52.5 26.5t-54 46q-5 6 -18 23.5t-33 45.5q-24 34 -43 56.5t-33 35.5q-13 12 -27 17.5t-27 5.5q-21 0 -44 -12.5
t-43 -32.5t-32.5 -42.5t-12.5 -42.5q0 -14 10.5 -24.5t28 -17.5t36.5 -13q37 -10 62 -19t40 -17q30 -16 45.5 -37.5t15.5 -48.5q0 -99 -64.5 -148.5t-192.5 -49.5h-205z" />
    <glyph glyph-name="uniFEF3" unicode="&#x64a;" horiz-adv-x="374" arabic-form="initial" 
d="M-5 0q-5 0 -5 5v69q0 4 5 4h192v407h89v-485h-281zM99 -204q-23 0 -39.5 14t-16.5 46t16.5 46t39.5 14q26 0 41 -15.5t15 -44.5t-15 -44.5t-41 -15.5zM272 -204q-26 0 -41 15.5t-15 44.5t15 44.5t41 15.5q27 0 41.5 -16.5t14.5 -43.5t-14.5 -43.5t-41.5 -16.5z" />
    <glyph glyph-name="uniFEF4" unicode="&#x64a;" horiz-adv-x="391" arabic-form="medial" 
d="M-5 0q-5 0 -5 5v69q0 4 5 4h162v407h89v-407h150q5 0 5 -4v-69q0 -5 -5 -5h-401zM106 -204q-23 0 -39.5 14t-16.5 46t16.5 46t39.5 14q26 0 41 -15.5t15 -44.5t-15 -44.5t-41 -15.5zM279 -204q-26 0 -41 15.5t-15 44.5t15 44.5t41 15.5q27 0 41.5 -16.5t14.5 -43.5
t-14.5 -43.5t-41.5 -16.5z" />
    <glyph glyph-name="uniFC00" unicode="&#xfc00;" horiz-adv-x="915" arabic-form="isolated" 
d="M609 0q-5 0 -5 5v69q0 4 5 4h132v407h89v-485h-221zM651 585l47 7q-17 11 -26 27t-9 36q0 43 28 66.5t74 23.5q39 0 66 -15l-15 -45q-10 6 -22.5 9t-27.5 3q-22 0 -37 -12.5t-15 -38.5q0 -17 8.5 -29t21.5 -18q20 4 40 6.5t36.5 4.5t23.5 2v-49q-19 -1 -41 -3.5t-47 -5.5
t-51.5 -7t-53.5 -8v46zM253 -321q-64 0 -111 22.5t-72 66t-25 104.5q0 32 9.5 61.5t28.5 55.5q25 36 68.5 67t109.5 59.5t160 55.5q-5 17 -10 39.5t-10 50.5q-8 53 -27 87.5t-48.5 51.5t-70.5 17q-36 0 -86 -14.5t-89 -35.5l-35 69q26 17 61 30t74 21t76 8q64 0 110 -23
t74.5 -70t39.5 -118q8 -48 16 -81t15 -51q15 -37 39.5 -55.5t63.5 -18.5h5q5 0 5 -4v-69q0 -5 -5 -5h-5q-36 0 -66.5 10t-54.5 32.5t-44 57.5q-59 -16 -106 -32.5t-79 -32.5q-66 -33 -97 -71.5t-31 -83.5q0 -62 34 -93t102 -31zM439 -239q-26 0 -41 15.5t-15 44.5t15 44.5
t41 15.5q27 0 41.5 -16.5t14.5 -43.5t-14.5 -43.5t-41.5 -16.5z" />
    <glyph glyph-name="uniFC01" unicode="&#xfc01;" horiz-adv-x="915" arabic-form="isolated" 
d="M609 0q-5 0 -5 5v69q0 4 5 4h132v407h89v-485h-221zM651 585l47 7q-17 11 -26 27t-9 36q0 43 28 66.5t74 23.5q39 0 66 -15l-15 -45q-10 6 -22.5 9t-27.5 3q-22 0 -37 -12.5t-15 -38.5q0 -17 8.5 -29t21.5 -18q20 4 40 6.5t36.5 4.5t23.5 2v-49q-19 -1 -41 -3.5t-47 -5.5
t-51.5 -7t-53.5 -8v46zM614 0q-36 0 -66.5 10t-54.5 32.5t-44 57.5q-39 -11 -73 -21.5t-62 -21.5t-50 -22q-66 -34 -97 -72t-31 -83q0 -42 16.5 -69.5t50.5 -41t86 -13.5q25 0 61.5 4t85.5 12l11 -69q-51 -11 -102.5 -17.5t-91.5 -6.5q-64 0 -111 22.5t-72 66t-25 104.5
q0 32 9.5 61.5t28.5 55.5q25 36 68.5 67t109.5 59.5t160 55.5q-5 17 -10 39.5t-10 50.5q-8 53 -27 87.5t-48.5 51.5t-70.5 17q-36 0 -86 -14.5t-89 -35.5l-35 69q38 25 96.5 42t114.5 17q64 0 110 -23t74.5 -70t39.5 -118q8 -48 16 -81t15 -51q15 -37 39.5 -55.5t63.5 -18.5
h5q5 0 5 -4v-69q0 -5 -5 -5h-5z" />
    <glyph glyph-name="uniFC02" unicode="&#xfc02;" horiz-adv-x="982" arabic-form="isolated" 
d="M676 0q-5 0 -5 5v69q0 4 5 4h132v407h89v-485h-221zM718 585l47 7q-17 11 -26 27t-9 36q0 43 28 66.5t74 23.5q39 0 66 -15l-15 -45q-10 6 -22.5 9t-27.5 3q-22 0 -37 -12.5t-15 -38.5q0 -17 8.5 -29t21.5 -18q20 4 40 6.5t36.5 4.5t23.5 2v-49q-19 -1 -41 -3.5t-47 -5.5
t-51.5 -7t-53.5 -8v46zM220 0q-35 0 -53 -18t-18 -55v-247h-84v262q0 42 15.5 72.5t43 47t63.5 16.5h7q-19 47 -28 90t-9 81q0 44 9 84t27 75q37 31 84.5 49t98.5 18q31 0 59 -6.5t51 -20.5q47 -28 72.5 -79t25.5 -115q0 -32 -5 -61.5t-16 -56.5q22 -33 49 -45.5t69 -12.5h5
q5 0 5 -4v-69q0 -5 -5 -5h-5q-53 0 -90.5 14.5t-72.5 50.5q-32 -33 -74 -49t-88 -16h-136zM247 266q0 -46 8 -91t30 -97h71q45 0 75.5 20.5t46.5 60t16 96.5q0 63 -34.5 103t-83.5 40q-31 0 -60.5 -10.5t-56.5 -30.5q-9 -21 -10.5 -43t-1.5 -48z" />
    <glyph glyph-name="uniFC03" unicode="&#xfc03;" horiz-adv-x="1265" arabic-form="isolated" 
d="M959 0q-5 0 -5 5v69q0 4 5 4h132v407h89v-485h-221zM1001 585l47 7q-17 11 -26 27t-9 36q0 43 28 66.5t74 23.5q39 0 66 -15l-15 -45q-10 6 -22.5 9t-27.5 3q-22 0 -37 -12.5t-15 -38.5q0 -17 8.5 -29t21.5 -18q20 4 40 6.5t36.5 4.5t23.5 2v-49q-19 -1 -41 -3.5
t-47 -5.5t-51.5 -7t-53.5 -8v46zM266 -240q-62 0 -107.5 29.5t-69.5 83.5t-24 128q0 52 8.5 94t26.5 86h83q-16 -42 -22 -81.5t-6 -92.5q0 -54 15 -91.5t44 -57.5t71 -20h186q48 0 85 12.5t58.5 33t21.5 44.5q0 21 -18 35.5t-56 25.5q-49 15 -85.5 29.5t-56.5 39t-20 65.5
q0 29 9 57t26 55q23 36 55.5 63t69.5 42t73 15q17 0 32 -3t28 -9q26 -12 49 -35.5t57 -77.5q32 -52 56 -83t43 -45q15 -11 31 -17.5t35 -6.5h5q5 0 5 -4v-69q0 -5 -5 -5h-5q-28 0 -54.5 8.5t-52.5 26.5t-54 46q-5 6 -18 23.5t-33 45.5q-24 34 -43 56.5t-33 35.5
q-13 12 -27 17.5t-27 5.5q-21 0 -44 -12.5t-43 -32.5t-32.5 -42.5t-12.5 -42.5q0 -14 10.5 -24.5t28 -17.5t36.5 -13q37 -10 62 -19t40 -17q30 -16 45.5 -37.5t15.5 -48.5q0 -99 -64.5 -148.5t-192.5 -49.5h-205z" />
    <glyph glyph-name="uniFC04" unicode="&#xfc04;" horiz-adv-x="1265" arabic-form="isolated" 
d="M959 0q-5 0 -5 5v69q0 4 5 4h132v407h89v-485h-221zM1001 585l47 7q-17 11 -26 27t-9 36q0 43 28 66.5t74 23.5q39 0 66 -15l-15 -45q-10 6 -22.5 9t-27.5 3q-22 0 -37 -12.5t-15 -38.5q0 -17 8.5 -29t21.5 -18q20 4 40 6.5t36.5 4.5t23.5 2v-49q-19 -1 -41 -3.5
t-47 -5.5t-51.5 -7t-53.5 -8v46zM266 -240q-62 0 -107.5 29.5t-69.5 83.5t-24 128q0 52 8.5 94t26.5 86h83q-16 -42 -22 -81.5t-6 -92.5q0 -54 15 -91.5t44 -57.5t71 -20h186q48 0 85 12.5t58.5 33t21.5 44.5q0 21 -18 35.5t-56 25.5q-49 15 -85.5 29.5t-56.5 39t-20 65.5
q0 29 9 57t26 55q23 36 55.5 63t69.5 42t73 15q17 0 32 -3t28 -9q26 -12 49 -35.5t57 -77.5q32 -52 56 -83t43 -45q15 -11 31 -17.5t35 -6.5h5q5 0 5 -4v-69q0 -5 -5 -5h-5q-28 0 -54.5 8.5t-52.5 26.5t-54 46q-5 6 -18 23.5t-33 45.5q-24 34 -43 56.5t-33 35.5
q-13 12 -27 17.5t-27 5.5q-21 0 -44 -12.5t-43 -32.5t-32.5 -42.5t-12.5 -42.5q0 -14 10.5 -24.5t28 -17.5t36.5 -13q37 -10 62 -19t40 -17q30 -16 45.5 -37.5t15.5 -48.5q0 -99 -64.5 -148.5t-192.5 -49.5h-205zM303 -448q-23 0 -39.5 14t-16.5 46t16.5 46t39.5 14
q26 0 41 -15.5t15 -44.5t-15 -44.5t-41 -15.5zM476 -448q-26 0 -41 15.5t-15 44.5t15 44.5t41 15.5q27 0 41.5 -16.5t14.5 -43.5t-14.5 -43.5t-41.5 -16.5z" />
    <glyph glyph-name="uniFC05" unicode="&#xfc05;" horiz-adv-x="915" arabic-form="isolated" 
d="M609 0q-5 0 -5 5v69q0 4 5 4h132v407h89v-485h-221zM741 -219q-26 0 -41 15.5t-15 44.5t15 44.5t41 15.5q27 0 41.5 -16.5t14.5 -43.5t-14.5 -43.5t-41.5 -16.5zM253 -321q-64 0 -111 22.5t-72 66t-25 104.5q0 32 9.5 61.5t28.5 55.5q25 36 68.5 67t109.5 59.5t160 55.5
q-5 17 -10 39.5t-10 50.5q-8 53 -27 87.5t-48.5 51.5t-70.5 17q-36 0 -86 -14.5t-89 -35.5l-35 69q26 17 61 30t74 21t76 8q64 0 110 -23t74.5 -70t39.5 -118q8 -48 16 -81t15 -51q15 -37 39.5 -55.5t63.5 -18.5h5q5 0 5 -4v-69q0 -5 -5 -5h-5q-36 0 -66.5 10t-54.5 32.5
t-44 57.5q-59 -16 -106 -32.5t-79 -32.5q-66 -33 -97 -71.5t-31 -83.5q0 -62 34 -93t102 -31zM439 -239q-26 0 -41 15.5t-15 44.5t15 44.5t41 15.5q27 0 41.5 -16.5t14.5 -43.5t-14.5 -43.5t-41.5 -16.5z" />
    <glyph glyph-name="uniFC06" unicode="&#xfc06;" horiz-adv-x="915" arabic-form="isolated" 
d="M609 0q-5 0 -5 5v69q0 4 5 4h132v407h89v-485h-221zM741 -219q-26 0 -41 15.5t-15 44.5t15 44.5t41 15.5q27 0 41.5 -16.5t14.5 -43.5t-14.5 -43.5t-41.5 -16.5zM614 0q-36 0 -66.5 10t-54.5 32.5t-44 57.5q-39 -11 -73 -21.5t-62 -21.5t-50 -22q-66 -34 -97 -72t-31 -83
q0 -42 16.5 -69.5t50.5 -41t86 -13.5q25 0 61.5 4t85.5 12l11 -69q-51 -11 -102.5 -17.5t-91.5 -6.5q-64 0 -111 22.5t-72 66t-25 104.5q0 32 9.5 61.5t28.5 55.5q25 36 68.5 67t109.5 59.5t160 55.5q-5 17 -10 39.5t-10 50.5q-8 53 -27 87.5t-48.5 51.5t-70.5 17
q-36 0 -86 -14.5t-89 -35.5l-35 69q38 25 96.5 42t114.5 17q64 0 110 -23t74.5 -70t39.5 -118q8 -48 16 -81t15 -51q15 -37 39.5 -55.5t63.5 -18.5h5q5 0 5 -4v-69q0 -5 -5 -5h-5z" />
    <glyph glyph-name="uniFC07" unicode="&#xfc07;" horiz-adv-x="915" arabic-form="isolated" 
d="M609 0q-5 0 -5 5v69q0 4 5 4h132v407h89v-485h-221zM741 -219q-26 0 -41 15.5t-15 44.5t15 44.5t41 15.5q27 0 41.5 -16.5t14.5 -43.5t-14.5 -43.5t-41.5 -16.5zM614 0q-36 0 -66.5 10t-54.5 32.5t-44 57.5q-39 -11 -73 -21.5t-62 -21.5t-50 -22q-66 -34 -97 -72t-31 -83
q0 -42 16.5 -69.5t50.5 -41t86 -13.5q25 0 61.5 4t85.5 12l11 -69q-51 -11 -102.5 -17.5t-91.5 -6.5q-64 0 -111 22.5t-72 66t-25 104.5q0 32 9.5 61.5t28.5 55.5q25 36 68.5 67t109.5 59.5t160 55.5q-5 17 -10 39.5t-10 50.5q-8 53 -27 87.5t-48.5 51.5t-70.5 17
q-36 0 -86 -14.5t-89 -35.5l-35 69q38 25 96.5 42t114.5 17q64 0 110 -23t74.5 -70t39.5 -118q8 -48 16 -81t15 -51q15 -37 39.5 -55.5t63.5 -18.5h5q5 0 5 -4v-69q0 -5 -5 -5h-5zM240 600q-26 0 -41 15.5t-15 44.5t15 44.5t41 15.5q27 0 41.5 -16.5t14.5 -43.5t-14.5 -43.5
t-41.5 -16.5z" />
    <glyph glyph-name="uniFC08" unicode="&#xfc08;" horiz-adv-x="982" arabic-form="isolated" 
d="M676 0q-5 0 -5 5v69q0 4 5 4h132v407h89v-485h-221zM808 -219q-26 0 -41 15.5t-15 44.5t15 44.5t41 15.5q27 0 41.5 -16.5t14.5 -43.5t-14.5 -43.5t-41.5 -16.5zM220 0q-35 0 -53 -18t-18 -55v-247h-84v262q0 42 15.5 72.5t43 47t63.5 16.5h7q-19 47 -28 90t-9 81
q0 44 9 84t27 75q37 31 84.5 49t98.5 18q31 0 59 -6.5t51 -20.5q47 -28 72.5 -79t25.5 -115q0 -32 -5 -61.5t-16 -56.5q22 -33 49 -45.5t69 -12.5h5q5 0 5 -4v-69q0 -5 -5 -5h-5q-53 0 -90.5 14.5t-72.5 50.5q-32 -33 -74 -49t-88 -16h-136zM247 266q0 -46 8 -91t30 -97h71
q45 0 75.5 20.5t46.5 60t16 96.5q0 63 -34.5 103t-83.5 40q-31 0 -60.5 -10.5t-56.5 -30.5q-9 -21 -10.5 -43t-1.5 -48z" />
    <glyph glyph-name="uniFC09" unicode="&#xfc09;" horiz-adv-x="1265" arabic-form="isolated" 
d="M959 0q-5 0 -5 5v69q0 4 5 4h132v407h89v-485h-221zM1091 -219q-26 0 -41 15.5t-15 44.5t15 44.5t41 15.5q27 0 41.5 -16.5t14.5 -43.5t-14.5 -43.5t-41.5 -16.5zM266 -240q-62 0 -107.5 29.5t-69.5 83.5t-24 128q0 52 8.5 94t26.5 86h83q-16 -42 -22 -81.5t-6 -92.5
q0 -54 15 -91.5t44 -57.5t71 -20h186q48 0 85 12.5t58.5 33t21.5 44.5q0 21 -18 35.5t-56 25.5q-49 15 -85.5 29.5t-56.5 39t-20 65.5q0 29 9 57t26 55q23 36 55.5 63t69.5 42t73 15q17 0 32 -3t28 -9q26 -12 49 -35.5t57 -77.5q32 -52 56 -83t43 -45q15 -11 31 -17.5
t35 -6.5h5q5 0 5 -4v-69q0 -5 -5 -5h-5q-28 0 -54.5 8.5t-52.5 26.5t-54 46q-5 6 -18 23.5t-33 45.5q-24 34 -43 56.5t-33 35.5q-13 12 -27 17.5t-27 5.5q-21 0 -44 -12.5t-43 -32.5t-32.5 -42.5t-12.5 -42.5q0 -14 10.5 -24.5t28 -17.5t36.5 -13q37 -10 62 -19t40 -17
q30 -16 45.5 -37.5t15.5 -48.5q0 -99 -64.5 -148.5t-192.5 -49.5h-205z" />
    <glyph glyph-name="uniFC0A" unicode="&#xfc0a;" horiz-adv-x="1265" arabic-form="isolated" 
d="M959 0q-5 0 -5 5v69q0 4 5 4h132v407h89v-485h-221zM1091 -219q-26 0 -41 15.5t-15 44.5t15 44.5t41 15.5q27 0 41.5 -16.5t14.5 -43.5t-14.5 -43.5t-41.5 -16.5zM266 -240q-62 0 -107.5 29.5t-69.5 83.5t-24 128q0 52 8.5 94t26.5 86h83q-16 -42 -22 -81.5t-6 -92.5
q0 -54 15 -91.5t44 -57.5t71 -20h186q48 0 85 12.5t58.5 33t21.5 44.5q0 21 -18 35.5t-56 25.5q-49 15 -85.5 29.5t-56.5 39t-20 65.5q0 29 9 57t26 55q23 36 55.5 63t69.5 42t73 15q17 0 32 -3t28 -9q26 -12 49 -35.5t57 -77.5q32 -52 56 -83t43 -45q15 -11 31 -17.5
t35 -6.5h5q5 0 5 -4v-69q0 -5 -5 -5h-5q-28 0 -54.5 8.5t-52.5 26.5t-54 46q-5 6 -18 23.5t-33 45.5q-24 34 -43 56.5t-33 35.5q-13 12 -27 17.5t-27 5.5q-21 0 -44 -12.5t-43 -32.5t-32.5 -42.5t-12.5 -42.5q0 -14 10.5 -24.5t28 -17.5t36.5 -13q37 -10 62 -19t40 -17
q30 -16 45.5 -37.5t15.5 -48.5q0 -99 -64.5 -148.5t-192.5 -49.5h-205zM303 -448q-23 0 -39.5 14t-16.5 46t16.5 46t39.5 14q26 0 41 -15.5t15 -44.5t-15 -44.5t-41 -15.5zM476 -448q-26 0 -41 15.5t-15 44.5t15 44.5t41 15.5q27 0 41.5 -16.5t14.5 -43.5t-14.5 -43.5
t-41.5 -16.5z" />
    <glyph glyph-name="uniFC0B" unicode="&#xfc0b;" horiz-adv-x="915" arabic-form="isolated" 
d="M609 0q-5 0 -5 5v69q0 4 5 4h132v407h89v-485h-221zM672 583q-23 0 -39.5 14t-16.5 46t16.5 46t39.5 14q26 0 41 -15.5t15 -44.5t-15 -44.5t-41 -15.5zM845 583q-26 0 -41 15.5t-15 44.5t15 44.5t41 15.5q27 0 41.5 -16.5t14.5 -43.5t-14.5 -43.5t-41.5 -16.5zM253 -321
q-64 0 -111 22.5t-72 66t-25 104.5q0 32 9.5 61.5t28.5 55.5q25 36 68.5 67t109.5 59.5t160 55.5q-5 17 -10 39.5t-10 50.5q-8 53 -27 87.5t-48.5 51.5t-70.5 17q-36 0 -86 -14.5t-89 -35.5l-35 69q26 17 61 30t74 21t76 8q64 0 110 -23t74.5 -70t39.5 -118q8 -48 16 -81
t15 -51q15 -37 39.5 -55.5t63.5 -18.5h5q5 0 5 -4v-69q0 -5 -5 -5h-5q-36 0 -66.5 10t-54.5 32.5t-44 57.5q-59 -16 -106 -32.5t-79 -32.5q-66 -33 -97 -71.5t-31 -83.5q0 -62 34 -93t102 -31zM439 -239q-26 0 -41 15.5t-15 44.5t15 44.5t41 15.5q27 0 41.5 -16.5
t14.5 -43.5t-14.5 -43.5t-41.5 -16.5z" />
    <glyph glyph-name="uniFC0C" unicode="&#xfc0c;" horiz-adv-x="915" arabic-form="isolated" 
d="M609 0q-5 0 -5 5v69q0 4 5 4h132v407h89v-485h-221zM672 583q-23 0 -39.5 14t-16.5 46t16.5 46t39.5 14q26 0 41 -15.5t15 -44.5t-15 -44.5t-41 -15.5zM845 583q-26 0 -41 15.5t-15 44.5t15 44.5t41 15.5q27 0 41.5 -16.5t14.5 -43.5t-14.5 -43.5t-41.5 -16.5zM614 0
q-36 0 -66.5 10t-54.5 32.5t-44 57.5q-39 -11 -73 -21.5t-62 -21.5t-50 -22q-66 -34 -97 -72t-31 -83q0 -42 16.5 -69.5t50.5 -41t86 -13.5q25 0 61.5 4t85.5 12l11 -69q-51 -11 -102.5 -17.5t-91.5 -6.5q-64 0 -111 22.5t-72 66t-25 104.5q0 32 9.5 61.5t28.5 55.5
q25 36 68.5 67t109.5 59.5t160 55.5q-5 17 -10 39.5t-10 50.5q-8 53 -27 87.5t-48.5 51.5t-70.5 17q-36 0 -86 -14.5t-89 -35.5l-35 69q38 25 96.5 42t114.5 17q64 0 110 -23t74.5 -70t39.5 -118q8 -48 16 -81t15 -51q15 -37 39.5 -55.5t63.5 -18.5h5q5 0 5 -4v-69
q0 -5 -5 -5h-5z" />
    <glyph glyph-name="uniFC0D" unicode="&#xfc0d;" horiz-adv-x="915" arabic-form="isolated" 
d="M609 0q-5 0 -5 5v69q0 4 5 4h132v407h89v-485h-221zM672 583q-23 0 -39.5 14t-16.5 46t16.5 46t39.5 14q26 0 41 -15.5t15 -44.5t-15 -44.5t-41 -15.5zM845 583q-26 0 -41 15.5t-15 44.5t15 44.5t41 15.5q27 0 41.5 -16.5t14.5 -43.5t-14.5 -43.5t-41.5 -16.5zM614 0
q-36 0 -66.5 10t-54.5 32.5t-44 57.5q-39 -11 -73 -21.5t-62 -21.5t-50 -22q-66 -34 -97 -72t-31 -83q0 -42 16.5 -69.5t50.5 -41t86 -13.5q25 0 61.5 4t85.5 12l11 -69q-51 -11 -102.5 -17.5t-91.5 -6.5q-64 0 -111 22.5t-72 66t-25 104.5q0 32 9.5 61.5t28.5 55.5
q25 36 68.5 67t109.5 59.5t160 55.5q-5 17 -10 39.5t-10 50.5q-8 53 -27 87.5t-48.5 51.5t-70.5 17q-36 0 -86 -14.5t-89 -35.5l-35 69q38 25 96.5 42t114.5 17q64 0 110 -23t74.5 -70t39.5 -118q8 -48 16 -81t15 -51q15 -37 39.5 -55.5t63.5 -18.5h5q5 0 5 -4v-69
q0 -5 -5 -5h-5zM240 600q-26 0 -41 15.5t-15 44.5t15 44.5t41 15.5q27 0 41.5 -16.5t14.5 -43.5t-14.5 -43.5t-41.5 -16.5z" />
    <glyph glyph-name="uniFC0E" unicode="&#xfc0e;" horiz-adv-x="982" arabic-form="isolated" 
d="M676 0q-5 0 -5 5v69q0 4 5 4h132v407h89v-485h-221zM739 583q-23 0 -39.5 14t-16.5 46t16.5 46t39.5 14q26 0 41 -15.5t15 -44.5t-15 -44.5t-41 -15.5zM912 583q-26 0 -41 15.5t-15 44.5t15 44.5t41 15.5q27 0 41.5 -16.5t14.5 -43.5t-14.5 -43.5t-41.5 -16.5zM220 0
q-35 0 -53 -18t-18 -55v-247h-84v262q0 42 15.5 72.5t43 47t63.5 16.5h7q-19 47 -28 90t-9 81q0 44 9 84t27 75q37 31 84.5 49t98.5 18q31 0 59 -6.5t51 -20.5q47 -28 72.5 -79t25.5 -115q0 -32 -5 -61.5t-16 -56.5q22 -33 49 -45.5t69 -12.5h5q5 0 5 -4v-69q0 -5 -5 -5h-5
q-53 0 -90.5 14.5t-72.5 50.5q-32 -33 -74 -49t-88 -16h-136zM247 266q0 -46 8 -91t30 -97h71q45 0 75.5 20.5t46.5 60t16 96.5q0 63 -34.5 103t-83.5 40q-31 0 -60.5 -10.5t-56.5 -30.5q-9 -21 -10.5 -43t-1.5 -48z" />
    <glyph glyph-name="uniFC0F" unicode="&#xfc0f;" horiz-adv-x="1265" arabic-form="isolated" 
d="M959 0q-5 0 -5 5v69q0 4 5 4h132v407h89v-485h-221zM1022 583q-23 0 -39.5 14t-16.5 46t16.5 46t39.5 14q26 0 41 -15.5t15 -44.5t-15 -44.5t-41 -15.5zM1195 583q-26 0 -41 15.5t-15 44.5t15 44.5t41 15.5q27 0 41.5 -16.5t14.5 -43.5t-14.5 -43.5t-41.5 -16.5z
M266 -240q-62 0 -107.5 29.5t-69.5 83.5t-24 128q0 52 8.5 94t26.5 86h83q-16 -42 -22 -81.5t-6 -92.5q0 -54 15 -91.5t44 -57.5t71 -20h186q48 0 85 12.5t58.5 33t21.5 44.5q0 21 -18 35.5t-56 25.5q-49 15 -85.5 29.5t-56.5 39t-20 65.5q0 29 9 57t26 55q23 36 55.5 63
t69.5 42t73 15q17 0 32 -3t28 -9q26 -12 49 -35.5t57 -77.5q32 -52 56 -83t43 -45q15 -11 31 -17.5t35 -6.5h5q5 0 5 -4v-69q0 -5 -5 -5h-5q-28 0 -54.5 8.5t-52.5 26.5t-54 46q-5 6 -18 23.5t-33 45.5q-24 34 -43 56.5t-33 35.5q-13 12 -27 17.5t-27 5.5q-21 0 -44 -12.5
t-43 -32.5t-32.5 -42.5t-12.5 -42.5q0 -14 10.5 -24.5t28 -17.5t36.5 -13q37 -10 62 -19t40 -17q30 -16 45.5 -37.5t15.5 -48.5q0 -99 -64.5 -148.5t-192.5 -49.5h-205z" />
    <glyph glyph-name="uniFC10" unicode="&#xfc10;" horiz-adv-x="1265" arabic-form="isolated" 
d="M959 0q-5 0 -5 5v69q0 4 5 4h132v407h89v-485h-221zM1022 583q-23 0 -39.5 14t-16.5 46t16.5 46t39.5 14q26 0 41 -15.5t15 -44.5t-15 -44.5t-41 -15.5zM1195 583q-26 0 -41 15.5t-15 44.5t15 44.5t41 15.5q27 0 41.5 -16.5t14.5 -43.5t-14.5 -43.5t-41.5 -16.5z
M266 -240q-62 0 -107.5 29.5t-69.5 83.5t-24 128q0 52 8.5 94t26.5 86h83q-16 -42 -22 -81.5t-6 -92.5q0 -54 15 -91.5t44 -57.5t71 -20h186q48 0 85 12.5t58.5 33t21.5 44.5q0 21 -18 35.5t-56 25.5q-49 15 -85.5 29.5t-56.5 39t-20 65.5q0 29 9 57t26 55q23 36 55.5 63
t69.5 42t73 15q17 0 32 -3t28 -9q26 -12 49 -35.5t57 -77.5q32 -52 56 -83t43 -45q15 -11 31 -17.5t35 -6.5h5q5 0 5 -4v-69q0 -5 -5 -5h-5q-28 0 -54.5 8.5t-52.5 26.5t-54 46q-5 6 -18 23.5t-33 45.5q-24 34 -43 56.5t-33 35.5q-13 12 -27 17.5t-27 5.5q-21 0 -44 -12.5
t-43 -32.5t-32.5 -42.5t-12.5 -42.5q0 -14 10.5 -24.5t28 -17.5t36.5 -13q37 -10 62 -19t40 -17q30 -16 45.5 -37.5t15.5 -48.5q0 -99 -64.5 -148.5t-192.5 -49.5h-205zM303 -448q-23 0 -39.5 14t-16.5 46t16.5 46t39.5 14q26 0 41 -15.5t15 -44.5t-15 -44.5t-41 -15.5z
M476 -448q-26 0 -41 15.5t-15 44.5t15 44.5t41 15.5q27 0 41.5 -16.5t14.5 -43.5t-14.5 -43.5t-41.5 -16.5z" />
    <glyph glyph-name="uniFC11" unicode="&#xfc11;" horiz-adv-x="915" arabic-form="isolated" 
d="M609 0q-5 0 -5 5v69q0 4 5 4h132v407h89v-485h-221zM760 707q-22 0 -37 13t-15 42t15 42t37 13q21 0 36.5 -13.5t15.5 -41.5q0 -29 -15.5 -42t-36.5 -13zM674 572q-23 0 -39.5 14t-16.5 46t16.5 46t39.5 14q27 0 41.5 -16.5t14.5 -43.5t-14.5 -43.5t-41.5 -16.5zM847 572
q-26 0 -41 15.5t-15 44.5t15 44.5t41 15.5q27 0 41.5 -16.5t14.5 -43.5t-14.5 -43.5t-41.5 -16.5zM253 -321q-64 0 -111 22.5t-72 66t-25 104.5q0 32 9.5 61.5t28.5 55.5q25 36 68.5 67t109.5 59.5t160 55.5q-5 17 -10 39.5t-10 50.5q-8 53 -27 87.5t-48.5 51.5t-70.5 17
q-36 0 -86 -14.5t-89 -35.5l-35 69q26 17 61 30t74 21t76 8q64 0 110 -23t74.5 -70t39.5 -118q8 -48 16 -81t15 -51q15 -37 39.5 -55.5t63.5 -18.5h5q5 0 5 -4v-69q0 -5 -5 -5h-5q-36 0 -66.5 10t-54.5 32.5t-44 57.5q-59 -16 -106 -32.5t-79 -32.5q-66 -33 -97 -71.5
t-31 -83.5q0 -62 34 -93t102 -31zM439 -239q-26 0 -41 15.5t-15 44.5t15 44.5t41 15.5q27 0 41.5 -16.5t14.5 -43.5t-14.5 -43.5t-41.5 -16.5z" />
    <glyph glyph-name="uniFC12" unicode="&#xfc12;" horiz-adv-x="982" arabic-form="isolated" 
d="M676 0q-5 0 -5 5v69q0 4 5 4h132v407h89v-485h-221zM827 707q-22 0 -37 13t-15 42t15 42t37 13q21 0 36.5 -13.5t15.5 -41.5q0 -29 -15.5 -42t-36.5 -13zM741 572q-23 0 -39.5 14t-16.5 46t16.5 46t39.5 14q27 0 41.5 -16.5t14.5 -43.5t-14.5 -43.5t-41.5 -16.5zM914 572
q-26 0 -41 15.5t-15 44.5t15 44.5t41 15.5q27 0 41.5 -16.5t14.5 -43.5t-14.5 -43.5t-41.5 -16.5zM220 0q-35 0 -53 -18t-18 -55v-247h-84v262q0 42 15.5 72.5t43 47t63.5 16.5h7q-19 47 -28 90t-9 81q0 44 9 84t27 75q37 31 84.5 49t98.5 18q31 0 59 -6.5t51 -20.5
q47 -28 72.5 -79t25.5 -115q0 -32 -5 -61.5t-16 -56.5q22 -33 49 -45.5t69 -12.5h5q5 0 5 -4v-69q0 -5 -5 -5h-5q-53 0 -90.5 14.5t-72.5 50.5q-32 -33 -74 -49t-88 -16h-136zM247 266q0 -46 8 -91t30 -97h71q45 0 75.5 20.5t46.5 60t16 96.5q0 63 -34.5 103t-83.5 40
q-31 0 -60.5 -10.5t-56.5 -30.5q-9 -21 -10.5 -43t-1.5 -48z" />
    <glyph glyph-name="uniFC13" unicode="&#xfc13;" horiz-adv-x="1265" arabic-form="isolated" 
d="M959 0q-5 0 -5 5v69q0 4 5 4h132v407h89v-485h-221zM1110 707q-22 0 -37 13t-15 42t15 42t37 13q21 0 36.5 -13.5t15.5 -41.5q0 -29 -15.5 -42t-36.5 -13zM1024 572q-23 0 -39.5 14t-16.5 46t16.5 46t39.5 14q27 0 41.5 -16.5t14.5 -43.5t-14.5 -43.5t-41.5 -16.5z
M1197 572q-26 0 -41 15.5t-15 44.5t15 44.5t41 15.5q27 0 41.5 -16.5t14.5 -43.5t-14.5 -43.5t-41.5 -16.5zM266 -240q-62 0 -107.5 29.5t-69.5 83.5t-24 128q0 52 8.5 94t26.5 86h83q-16 -42 -22 -81.5t-6 -92.5q0 -54 15 -91.5t44 -57.5t71 -20h186q48 0 85 12.5t58.5 33
t21.5 44.5q0 21 -18 35.5t-56 25.5q-49 15 -85.5 29.5t-56.5 39t-20 65.5q0 29 9 57t26 55q23 36 55.5 63t69.5 42t73 15q17 0 32 -3t28 -9q26 -12 49 -35.5t57 -77.5q32 -52 56 -83t43 -45q15 -11 31 -17.5t35 -6.5h5q5 0 5 -4v-69q0 -5 -5 -5h-5q-28 0 -54.5 8.5
t-52.5 26.5t-54 46q-5 6 -18 23.5t-33 45.5q-24 34 -43 56.5t-33 35.5q-13 12 -27 17.5t-27 5.5q-21 0 -44 -12.5t-43 -32.5t-32.5 -42.5t-12.5 -42.5q0 -14 10.5 -24.5t28 -17.5t36.5 -13q37 -10 62 -19t40 -17q30 -16 45.5 -37.5t15.5 -48.5q0 -99 -64.5 -148.5
t-192.5 -49.5h-205z" />
    <glyph glyph-name="uniFC14" unicode="&#xfc14;" horiz-adv-x="1265" arabic-form="isolated" 
d="M959 0q-5 0 -5 5v69q0 4 5 4h132v407h89v-485h-221zM1110 707q-22 0 -37 13t-15 42t15 42t37 13q21 0 36.5 -13.5t15.5 -41.5q0 -29 -15.5 -42t-36.5 -13zM1024 572q-23 0 -39.5 14t-16.5 46t16.5 46t39.5 14q27 0 41.5 -16.5t14.5 -43.5t-14.5 -43.5t-41.5 -16.5z
M1197 572q-26 0 -41 15.5t-15 44.5t15 44.5t41 15.5q27 0 41.5 -16.5t14.5 -43.5t-14.5 -43.5t-41.5 -16.5zM266 -240q-62 0 -107.5 29.5t-69.5 83.5t-24 128q0 52 8.5 94t26.5 86h83q-16 -42 -22 -81.5t-6 -92.5q0 -54 15 -91.5t44 -57.5t71 -20h186q48 0 85 12.5t58.5 33
t21.5 44.5q0 21 -18 35.5t-56 25.5q-49 15 -85.5 29.5t-56.5 39t-20 65.5q0 29 9 57t26 55q23 36 55.5 63t69.5 42t73 15q17 0 32 -3t28 -9q26 -12 49 -35.5t57 -77.5q32 -52 56 -83t43 -45q15 -11 31 -17.5t35 -6.5h5q5 0 5 -4v-69q0 -5 -5 -5h-5q-28 0 -54.5 8.5
t-52.5 26.5t-54 46q-5 6 -18 23.5t-33 45.5q-24 34 -43 56.5t-33 35.5q-13 12 -27 17.5t-27 5.5q-21 0 -44 -12.5t-43 -32.5t-32.5 -42.5t-12.5 -42.5q0 -14 10.5 -24.5t28 -17.5t36.5 -13q37 -10 62 -19t40 -17q30 -16 45.5 -37.5t15.5 -48.5q0 -99 -64.5 -148.5
t-192.5 -49.5h-205zM303 -448q-23 0 -39.5 14t-16.5 46t16.5 46t39.5 14q26 0 41 -15.5t15 -44.5t-15 -44.5t-41 -15.5zM476 -448q-26 0 -41 15.5t-15 44.5t15 44.5t41 15.5q27 0 41.5 -16.5t14.5 -43.5t-14.5 -43.5t-41.5 -16.5z" />
    <glyph glyph-name="uniFC15" unicode="&#xfc15;" horiz-adv-x="1194" arabic-form="isolated" 
d="M609 0q-5 0 -5 5v69q0 4 5 4h429q-19 19 -34.5 64.5t-28.5 118.5q-10 58 -25 92t-39 49t-62 15q-34 0 -70.5 -10t-74.5 -30l-35 69q43 28 87 38.5t94 10.5q31 0 56.5 -5.5t45.5 -16.5q42 -22 65.5 -64.5t36.5 -124.5q10 -59 21 -100t24.5 -67t29.5 -41v-76h-520z
M858 -219q-26 0 -41 15.5t-15 44.5t15 44.5t41 15.5q27 0 41.5 -16.5t14.5 -43.5t-14.5 -43.5t-41.5 -16.5zM614 0q-36 0 -66.5 10t-54.5 32.5t-44 57.5q-39 -11 -73 -21.5t-62 -21.5t-50 -22q-66 -34 -97 -72t-31 -83q0 -42 16.5 -69.5t50.5 -41t86 -13.5q25 0 61.5 4
t85.5 12l11 -69q-51 -11 -102.5 -17.5t-91.5 -6.5q-64 0 -111 22.5t-72 66t-25 104.5q0 32 9.5 61.5t28.5 55.5q25 36 68.5 67t109.5 59.5t160 55.5q-5 17 -10 39.5t-10 50.5q-8 53 -27 87.5t-48.5 51.5t-70.5 17q-36 0 -86 -14.5t-89 -35.5l-35 69q38 25 96.5 42t114.5 17
q64 0 110 -23t74.5 -70t39.5 -118q8 -48 16 -81t15 -51q15 -37 39.5 -55.5t63.5 -18.5h5q5 0 5 -4v-69q0 -5 -5 -5h-5z" />
    <glyph glyph-name="uniFC16" unicode="&#xfc16;" horiz-adv-x="1261" arabic-form="isolated" 
d="M676 0q-5 0 -5 5v69q0 4 5 4h429q-19 19 -34.5 64.5t-28.5 118.5q-10 58 -25 92t-39 49t-62 15q-34 0 -70.5 -10t-74.5 -30l-35 69q43 28 87 38.5t94 10.5q31 0 56.5 -5.5t45.5 -16.5q42 -22 65.5 -64.5t36.5 -124.5q10 -59 21 -100t24.5 -67t29.5 -41v-76h-520z
M925 -219q-26 0 -41 15.5t-15 44.5t15 44.5t41 15.5q27 0 41.5 -16.5t14.5 -43.5t-14.5 -43.5t-41.5 -16.5zM220 0q-35 0 -53 -18t-18 -55v-247h-84v262q0 42 15.5 72.5t43 47t63.5 16.5h7q-19 47 -28 90t-9 81q0 44 9 84t27 75q37 31 84.5 49t98.5 18q31 0 59 -6.5
t51 -20.5q47 -28 72.5 -79t25.5 -115q0 -32 -5 -61.5t-16 -56.5q22 -33 49 -45.5t69 -12.5h5q5 0 5 -4v-69q0 -5 -5 -5h-5q-53 0 -90.5 14.5t-72.5 50.5q-32 -33 -74 -49t-88 -16h-136zM247 266q0 -46 8 -91t30 -97h71q45 0 75.5 20.5t46.5 60t16 96.5q0 63 -34.5 103
t-83.5 40q-31 0 -60.5 -10.5t-56.5 -30.5q-9 -21 -10.5 -43t-1.5 -48z" />
    <glyph glyph-name="uniFC17" unicode="&#xfc17;" horiz-adv-x="1194" arabic-form="isolated" 
d="M609 0q-5 0 -5 5v69q0 4 5 4h429q-19 19 -34.5 64.5t-28.5 118.5q-10 58 -25 92t-39 49t-62 15q-34 0 -70.5 -10t-74.5 -30l-35 69q43 28 87 38.5t94 10.5q31 0 56.5 -5.5t45.5 -16.5q42 -22 65.5 -64.5t36.5 -124.5q10 -59 21 -100t24.5 -67t29.5 -41v-76h-520z
M253 -321q-64 0 -111 22.5t-72 66t-25 104.5q0 32 9.5 61.5t28.5 55.5q25 36 68.5 67t109.5 59.5t160 55.5q-5 17 -10 39.5t-10 50.5q-8 53 -27 87.5t-48.5 51.5t-70.5 17q-36 0 -86 -14.5t-89 -35.5l-35 69q26 17 61 30t74 21t76 8q64 0 110 -23t74.5 -70t39.5 -118
q8 -48 16 -81t15 -51q15 -37 39.5 -55.5t63.5 -18.5h5q5 0 5 -4v-69q0 -5 -5 -5h-5q-36 0 -66.5 10t-54.5 32.5t-44 57.5q-59 -16 -106 -32.5t-79 -32.5q-66 -33 -97 -71.5t-31 -83.5q0 -62 34 -93t102 -31zM439 -239q-26 0 -41 15.5t-15 44.5t15 44.5t41 15.5
q27 0 41.5 -16.5t14.5 -43.5t-14.5 -43.5t-41.5 -16.5z" />
    <glyph glyph-name="uniFC18" unicode="&#xfc18;" horiz-adv-x="1261" arabic-form="isolated" 
d="M676 0q-5 0 -5 5v69q0 4 5 4h429q-19 19 -34.5 64.5t-28.5 118.5q-10 58 -25 92t-39 49t-62 15q-34 0 -70.5 -10t-74.5 -30l-35 69q43 28 87 38.5t94 10.5q31 0 56.5 -5.5t45.5 -16.5q42 -22 65.5 -64.5t36.5 -124.5q10 -59 21 -100t24.5 -67t29.5 -41v-76h-520zM220 0
q-35 0 -53 -18t-18 -55v-247h-84v262q0 42 15.5 72.5t43 47t63.5 16.5h7q-19 47 -28 90t-9 81q0 44 9 84t27 75q37 31 84.5 49t98.5 18q31 0 59 -6.5t51 -20.5q47 -28 72.5 -79t25.5 -115q0 -32 -5 -61.5t-16 -56.5q22 -33 49 -45.5t69 -12.5h5q5 0 5 -4v-69q0 -5 -5 -5h-5
q-53 0 -90.5 14.5t-72.5 50.5q-32 -33 -74 -49t-88 -16h-136zM247 266q0 -46 8 -91t30 -97h71q45 0 75.5 20.5t46.5 60t16 96.5q0 63 -34.5 103t-83.5 40q-31 0 -60.5 -10.5t-56.5 -30.5q-9 -21 -10.5 -43t-1.5 -48z" />
    <glyph glyph-name="uniFC19" unicode="&#xfc19;" horiz-adv-x="1194" arabic-form="isolated" 
d="M609 0q-5 0 -5 5v69q0 4 5 4h429q-19 19 -34.5 64.5t-28.5 118.5q-10 58 -25 92t-39 49t-62 15q-34 0 -70.5 -10t-74.5 -30l-35 69q43 28 87 38.5t94 10.5q31 0 56.5 -5.5t45.5 -16.5q42 -22 65.5 -64.5t36.5 -124.5q10 -59 21 -100t24.5 -67t29.5 -41v-76h-520zM824 610
q-26 0 -41 15.5t-15 44.5t15 44.5t41 15.5q27 0 41.5 -16.5t14.5 -43.5t-14.5 -43.5t-41.5 -16.5zM253 -321q-64 0 -111 22.5t-72 66t-25 104.5q0 32 9.5 61.5t28.5 55.5q25 36 68.5 67t109.5 59.5t160 55.5q-5 17 -10 39.5t-10 50.5q-8 53 -27 87.5t-48.5 51.5t-70.5 17
q-36 0 -86 -14.5t-89 -35.5l-35 69q26 17 61 30t74 21t76 8q64 0 110 -23t74.5 -70t39.5 -118q8 -48 16 -81t15 -51q15 -37 39.5 -55.5t63.5 -18.5h5q5 0 5 -4v-69q0 -5 -5 -5h-5q-36 0 -66.5 10t-54.5 32.5t-44 57.5q-59 -16 -106 -32.5t-79 -32.5q-66 -33 -97 -71.5
t-31 -83.5q0 -62 34 -93t102 -31zM439 -239q-26 0 -41 15.5t-15 44.5t15 44.5t41 15.5q27 0 41.5 -16.5t14.5 -43.5t-14.5 -43.5t-41.5 -16.5z" />
    <glyph glyph-name="uniFC1A" unicode="&#xfc1a;" horiz-adv-x="1194" arabic-form="isolated" 
d="M609 0q-5 0 -5 5v69q0 4 5 4h429q-19 19 -34.5 64.5t-28.5 118.5q-10 58 -25 92t-39 49t-62 15q-34 0 -70.5 -10t-74.5 -30l-35 69q43 28 87 38.5t94 10.5q31 0 56.5 -5.5t45.5 -16.5q42 -22 65.5 -64.5t36.5 -124.5q10 -59 21 -100t24.5 -67t29.5 -41v-76h-520zM824 610
q-26 0 -41 15.5t-15 44.5t15 44.5t41 15.5q27 0 41.5 -16.5t14.5 -43.5t-14.5 -43.5t-41.5 -16.5zM614 0q-36 0 -66.5 10t-54.5 32.5t-44 57.5q-39 -11 -73 -21.5t-62 -21.5t-50 -22q-66 -34 -97 -72t-31 -83q0 -42 16.5 -69.5t50.5 -41t86 -13.5q25 0 61.5 4t85.5 12
l11 -69q-51 -11 -102.5 -17.5t-91.5 -6.5q-64 0 -111 22.5t-72 66t-25 104.5q0 32 9.5 61.5t28.5 55.5q25 36 68.5 67t109.5 59.5t160 55.5q-5 17 -10 39.5t-10 50.5q-8 53 -27 87.5t-48.5 51.5t-70.5 17q-36 0 -86 -14.5t-89 -35.5l-35 69q38 25 96.5 42t114.5 17
q64 0 110 -23t74.5 -70t39.5 -118q8 -48 16 -81t15 -51q15 -37 39.5 -55.5t63.5 -18.5h5q5 0 5 -4v-69q0 -5 -5 -5h-5z" />
    <glyph glyph-name="uniFC1B" unicode="&#xfc1b;" horiz-adv-x="1261" arabic-form="isolated" 
d="M676 0q-5 0 -5 5v69q0 4 5 4h429q-19 19 -34.5 64.5t-28.5 118.5q-10 58 -25 92t-39 49t-62 15q-34 0 -70.5 -10t-74.5 -30l-35 69q43 28 87 38.5t94 10.5q31 0 56.5 -5.5t45.5 -16.5q42 -22 65.5 -64.5t36.5 -124.5q10 -59 21 -100t24.5 -67t29.5 -41v-76h-520zM891 610
q-26 0 -41 15.5t-15 44.5t15 44.5t41 15.5q27 0 41.5 -16.5t14.5 -43.5t-14.5 -43.5t-41.5 -16.5zM220 0q-35 0 -53 -18t-18 -55v-247h-84v262q0 42 15.5 72.5t43 47t63.5 16.5h7q-19 47 -28 90t-9 81q0 44 9 84t27 75q37 31 84.5 49t98.5 18q31 0 59 -6.5t51 -20.5
q47 -28 72.5 -79t25.5 -115q0 -32 -5 -61.5t-16 -56.5q22 -33 49 -45.5t69 -12.5h5q5 0 5 -4v-69q0 -5 -5 -5h-5q-53 0 -90.5 14.5t-72.5 50.5q-32 -33 -74 -49t-88 -16h-136zM247 266q0 -46 8 -91t30 -97h71q45 0 75.5 20.5t46.5 60t16 96.5q0 63 -34.5 103t-83.5 40
q-31 0 -60.5 -10.5t-56.5 -30.5q-9 -21 -10.5 -43t-1.5 -48z" />
    <glyph glyph-name="uniFC1C" unicode="&#xfc1c;" horiz-adv-x="1492" arabic-form="isolated" 
d="M1261 0q-45 0 -83 15t-78 55q-22 -31 -58.5 -50.5t-87.5 -19.5h-345q-5 0 -5 5v69q0 4 5 4h143v329h85v-329h108q48 0 75 32t27 84v213h85v-218v-16.5t-1 -16.5q25 -43 54.5 -60.5t75.5 -17.5h61v407h85v-485h-146zM253 -321q-64 0 -111 22.5t-72 66t-25 104.5
q0 32 9.5 61.5t28.5 55.5q25 36 68.5 67t109.5 59.5t160 55.5q-5 17 -10 39.5t-10 50.5q-8 53 -27 87.5t-48.5 51.5t-70.5 17q-36 0 -86 -14.5t-89 -35.5l-35 69q26 17 61 30t74 21t76 8q64 0 110 -23t74.5 -70t39.5 -118q8 -48 16 -81t15 -51q15 -37 39.5 -55.5t63.5 -18.5
h5q5 0 5 -4v-69q0 -5 -5 -5h-5q-36 0 -66.5 10t-54.5 32.5t-44 57.5q-59 -16 -106 -32.5t-79 -32.5q-66 -33 -97 -71.5t-31 -83.5q0 -62 34 -93t102 -31zM439 -239q-26 0 -41 15.5t-15 44.5t15 44.5t41 15.5q27 0 41.5 -16.5t14.5 -43.5t-14.5 -43.5t-41.5 -16.5z" />
    <glyph glyph-name="uniFC1D" unicode="&#xfc1d;" horiz-adv-x="1492" arabic-form="isolated" 
d="M1261 0q-45 0 -83 15t-78 55q-22 -31 -58.5 -50.5t-87.5 -19.5h-345q-5 0 -5 5v69q0 4 5 4h143v329h85v-329h108q48 0 75 32t27 84v213h85v-218v-16.5t-1 -16.5q25 -43 54.5 -60.5t75.5 -17.5h61v407h85v-485h-146zM614 0q-36 0 -66.5 10t-54.5 32.5t-44 57.5
q-39 -11 -73 -21.5t-62 -21.5t-50 -22q-66 -34 -97 -72t-31 -83q0 -42 16.5 -69.5t50.5 -41t86 -13.5q25 0 61.5 4t85.5 12l11 -69q-51 -11 -102.5 -17.5t-91.5 -6.5q-64 0 -111 22.5t-72 66t-25 104.5q0 32 9.5 61.5t28.5 55.5q25 36 68.5 67t109.5 59.5t160 55.5
q-5 17 -10 39.5t-10 50.5q-8 53 -27 87.5t-48.5 51.5t-70.5 17q-36 0 -86 -14.5t-89 -35.5l-35 69q38 25 96.5 42t114.5 17q64 0 110 -23t74.5 -70t39.5 -118q8 -48 16 -81t15 -51q15 -37 39.5 -55.5t63.5 -18.5h5q5 0 5 -4v-69q0 -5 -5 -5h-5z" />
    <glyph glyph-name="uniFC1E" unicode="&#xfc1e;" horiz-adv-x="1492" arabic-form="isolated" 
d="M1261 0q-45 0 -83 15t-78 55q-22 -31 -58.5 -50.5t-87.5 -19.5h-345q-5 0 -5 5v69q0 4 5 4h143v329h85v-329h108q48 0 75 32t27 84v213h85v-218v-16.5t-1 -16.5q25 -43 54.5 -60.5t75.5 -17.5h61v407h85v-485h-146zM614 0q-36 0 -66.5 10t-54.5 32.5t-44 57.5
q-39 -11 -73 -21.5t-62 -21.5t-50 -22q-66 -34 -97 -72t-31 -83q0 -42 16.5 -69.5t50.5 -41t86 -13.5q25 0 61.5 4t85.5 12l11 -69q-51 -11 -102.5 -17.5t-91.5 -6.5q-64 0 -111 22.5t-72 66t-25 104.5q0 32 9.5 61.5t28.5 55.5q25 36 68.5 67t109.5 59.5t160 55.5
q-5 17 -10 39.5t-10 50.5q-8 53 -27 87.5t-48.5 51.5t-70.5 17q-36 0 -86 -14.5t-89 -35.5l-35 69q38 25 96.5 42t114.5 17q64 0 110 -23t74.5 -70t39.5 -118q8 -48 16 -81t15 -51q15 -37 39.5 -55.5t63.5 -18.5h5q5 0 5 -4v-69q0 -5 -5 -5h-5zM240 600q-26 0 -41 15.5
t-15 44.5t15 44.5t41 15.5q27 0 41.5 -16.5t14.5 -43.5t-14.5 -43.5t-41.5 -16.5z" />
    <glyph glyph-name="uniFC1F" unicode="&#xfc1f;" horiz-adv-x="1559" arabic-form="isolated" 
d="M1328 0q-45 0 -83 15t-78 55q-22 -31 -58.5 -50.5t-87.5 -19.5h-345q-5 0 -5 5v69q0 4 5 4h143v329h85v-329h108q48 0 75 32t27 84v213h85v-218v-16.5t-1 -16.5q25 -43 54.5 -60.5t75.5 -17.5h61v407h85v-485h-146zM220 0q-35 0 -53 -18t-18 -55v-247h-84v262
q0 42 15.5 72.5t43 47t63.5 16.5h7q-19 47 -28 90t-9 81q0 44 9 84t27 75q37 31 84.5 49t98.5 18q31 0 59 -6.5t51 -20.5q47 -28 72.5 -79t25.5 -115q0 -32 -5 -61.5t-16 -56.5q22 -33 49 -45.5t69 -12.5h5q5 0 5 -4v-69q0 -5 -5 -5h-5q-53 0 -90.5 14.5t-72.5 50.5
q-32 -33 -74 -49t-88 -16h-136zM247 266q0 -46 8 -91t30 -97h71q45 0 75.5 20.5t46.5 60t16 96.5q0 63 -34.5 103t-83.5 40q-31 0 -60.5 -10.5t-56.5 -30.5q-9 -21 -10.5 -43t-1.5 -48z" />
    <glyph glyph-name="uniFC20" unicode="&#xfc20;" horiz-adv-x="1397" arabic-form="isolated" 
d="M609 0q-5 0 -5 5v69q0 4 5 4h122v377h85v-185q32 75 74 125t93.5 75t109.5 25q113 0 171 -61.5t58 -192.5v-241h-713zM1237 78v159q0 92 -40.5 135.5t-121.5 43.5q-51 0 -97 -28.5t-86.5 -85t-75.5 -142.5v-82h421zM614 0q-36 0 -66.5 10t-54.5 32.5t-44 57.5
q-39 -11 -73 -21.5t-62 -21.5t-50 -22q-66 -34 -97 -72t-31 -83q0 -42 16.5 -69.5t50.5 -41t86 -13.5q25 0 61.5 4t85.5 12l11 -69q-51 -11 -102.5 -17.5t-91.5 -6.5q-64 0 -111 22.5t-72 66t-25 104.5q0 32 9.5 61.5t28.5 55.5q25 36 68.5 67t109.5 59.5t160 55.5
q-5 17 -10 39.5t-10 50.5q-8 53 -27 87.5t-48.5 51.5t-70.5 17q-36 0 -86 -14.5t-89 -35.5l-35 69q38 25 96.5 42t114.5 17q64 0 110 -23t74.5 -70t39.5 -118q8 -48 16 -81t15 -51q15 -37 39.5 -55.5t63.5 -18.5h5q5 0 5 -4v-69q0 -5 -5 -5h-5z" />
    <glyph glyph-name="uniFC21" unicode="&#xfc21;" horiz-adv-x="1464" arabic-form="isolated" 
d="M676 0q-5 0 -5 5v69q0 4 5 4h122v377h85v-185q32 75 74 125t93.5 75t109.5 25q113 0 171 -61.5t58 -192.5v-241h-713zM1304 78v159q0 92 -40.5 135.5t-121.5 43.5q-51 0 -97 -28.5t-86.5 -85t-75.5 -142.5v-82h421zM220 0q-35 0 -53 -18t-18 -55v-247h-84v262
q0 42 15.5 72.5t43 47t63.5 16.5h7q-19 47 -28 90t-9 81q0 44 9 84t27 75q37 31 84.5 49t98.5 18q31 0 59 -6.5t51 -20.5q47 -28 72.5 -79t25.5 -115q0 -32 -5 -61.5t-16 -56.5q22 -33 49 -45.5t69 -12.5h5q5 0 5 -4v-69q0 -5 -5 -5h-5q-53 0 -90.5 14.5t-72.5 50.5
q-32 -33 -74 -49t-88 -16h-136zM247 266q0 -46 8 -91t30 -97h71q45 0 75.5 20.5t46.5 60t16 96.5q0 63 -34.5 103t-83.5 40q-31 0 -60.5 -10.5t-56.5 -30.5q-9 -21 -10.5 -43t-1.5 -48z" />
    <glyph glyph-name="uniFC22" unicode="&#xfc22;" horiz-adv-x="1397" arabic-form="isolated" 
d="M609 0q-5 0 -5 5v69q0 4 5 4h122v377h85v-185q32 75 74 125t93.5 75t109.5 25q113 0 171 -61.5t58 -192.5v-241h-713zM1237 78v159q0 92 -40.5 135.5t-121.5 43.5q-51 0 -97 -28.5t-86.5 -85t-75.5 -142.5v-82h421zM1039 620q-26 0 -41 15.5t-15 44.5t15 44.5t41 15.5
q27 0 41.5 -16.5t14.5 -43.5t-14.5 -43.5t-41.5 -16.5zM253 -321q-64 0 -111 22.5t-72 66t-25 104.5q0 32 9.5 61.5t28.5 55.5q25 36 68.5 67t109.5 59.5t160 55.5q-5 17 -10 39.5t-10 50.5q-8 53 -27 87.5t-48.5 51.5t-70.5 17q-36 0 -86 -14.5t-89 -35.5l-35 69
q26 17 61 30t74 21t76 8q64 0 110 -23t74.5 -70t39.5 -118q8 -48 16 -81t15 -51q15 -37 39.5 -55.5t63.5 -18.5h5q5 0 5 -4v-69q0 -5 -5 -5h-5q-36 0 -66.5 10t-54.5 32.5t-44 57.5q-59 -16 -106 -32.5t-79 -32.5q-66 -33 -97 -71.5t-31 -83.5q0 -62 34 -93t102 -31z
M439 -239q-26 0 -41 15.5t-15 44.5t15 44.5t41 15.5q27 0 41.5 -16.5t14.5 -43.5t-14.5 -43.5t-41.5 -16.5z" />
    <glyph glyph-name="uniFC23" unicode="&#xfc23;" horiz-adv-x="1397" arabic-form="isolated" 
d="M609 0q-5 0 -5 5v69q0 4 5 4h122v377h85v-185q32 75 74 125t93.5 75t109.5 25q113 0 171 -61.5t58 -192.5v-241h-713zM1237 78v159q0 92 -40.5 135.5t-121.5 43.5q-51 0 -97 -28.5t-86.5 -85t-75.5 -142.5v-82h421zM1039 620q-26 0 -41 15.5t-15 44.5t15 44.5t41 15.5
q27 0 41.5 -16.5t14.5 -43.5t-14.5 -43.5t-41.5 -16.5zM614 0q-36 0 -66.5 10t-54.5 32.5t-44 57.5q-39 -11 -73 -21.5t-62 -21.5t-50 -22q-66 -34 -97 -72t-31 -83q0 -42 16.5 -69.5t50.5 -41t86 -13.5q25 0 61.5 4t85.5 12l11 -69q-51 -11 -102.5 -17.5t-91.5 -6.5
q-64 0 -111 22.5t-72 66t-25 104.5q0 32 9.5 61.5t28.5 55.5q25 36 68.5 67t109.5 59.5t160 55.5q-5 17 -10 39.5t-10 50.5q-8 53 -27 87.5t-48.5 51.5t-70.5 17q-36 0 -86 -14.5t-89 -35.5l-35 69q38 25 96.5 42t114.5 17q64 0 110 -23t74.5 -70t39.5 -118q8 -48 16 -81
t15 -51q15 -37 39.5 -55.5t63.5 -18.5h5q5 0 5 -4v-69q0 -5 -5 -5h-5z" />
    <glyph glyph-name="uniFC24" unicode="&#xfc24;" horiz-adv-x="1397" arabic-form="isolated" 
d="M609 0q-5 0 -5 5v69q0 4 5 4h122v377h85v-185q32 75 74 125t93.5 75t109.5 25q113 0 171 -61.5t58 -192.5v-241h-713zM1237 78v159q0 92 -40.5 135.5t-121.5 43.5q-51 0 -97 -28.5t-86.5 -85t-75.5 -142.5v-82h421zM1039 620q-26 0 -41 15.5t-15 44.5t15 44.5t41 15.5
q27 0 41.5 -16.5t14.5 -43.5t-14.5 -43.5t-41.5 -16.5zM614 0q-36 0 -66.5 10t-54.5 32.5t-44 57.5q-39 -11 -73 -21.5t-62 -21.5t-50 -22q-66 -34 -97 -72t-31 -83q0 -42 16.5 -69.5t50.5 -41t86 -13.5q25 0 61.5 4t85.5 12l11 -69q-51 -11 -102.5 -17.5t-91.5 -6.5
q-64 0 -111 22.5t-72 66t-25 104.5q0 32 9.5 61.5t28.5 55.5q25 36 68.5 67t109.5 59.5t160 55.5q-5 17 -10 39.5t-10 50.5q-8 53 -27 87.5t-48.5 51.5t-70.5 17q-36 0 -86 -14.5t-89 -35.5l-35 69q38 25 96.5 42t114.5 17q64 0 110 -23t74.5 -70t39.5 -118q8 -48 16 -81
t15 -51q15 -37 39.5 -55.5t63.5 -18.5h5q5 0 5 -4v-69q0 -5 -5 -5h-5zM240 600q-26 0 -41 15.5t-15 44.5t15 44.5t41 15.5q27 0 41.5 -16.5t14.5 -43.5t-14.5 -43.5t-41.5 -16.5z" />
    <glyph glyph-name="uniFC25" unicode="&#xfc25;" horiz-adv-x="1464" arabic-form="isolated" 
d="M676 0q-5 0 -5 5v69q0 4 5 4h122v377h85v-185q32 75 74 125t93.5 75t109.5 25q113 0 171 -61.5t58 -192.5v-241h-713zM1304 78v159q0 92 -40.5 135.5t-121.5 43.5q-51 0 -97 -28.5t-86.5 -85t-75.5 -142.5v-82h421zM1106 620q-26 0 -41 15.5t-15 44.5t15 44.5t41 15.5
q27 0 41.5 -16.5t14.5 -43.5t-14.5 -43.5t-41.5 -16.5zM220 0q-35 0 -53 -18t-18 -55v-247h-84v262q0 42 15.5 72.5t43 47t63.5 16.5h7q-19 47 -28 90t-9 81q0 44 9 84t27 75q37 31 84.5 49t98.5 18q31 0 59 -6.5t51 -20.5q47 -28 72.5 -79t25.5 -115q0 -32 -5 -61.5
t-16 -56.5q22 -33 49 -45.5t69 -12.5h5q5 0 5 -4v-69q0 -5 -5 -5h-5q-53 0 -90.5 14.5t-72.5 50.5q-32 -33 -74 -49t-88 -16h-136zM247 266q0 -46 8 -91t30 -97h71q45 0 75.5 20.5t46.5 60t16 96.5q0 63 -34.5 103t-83.5 40q-31 0 -60.5 -10.5t-56.5 -30.5q-9 -21 -10.5 -43
t-1.5 -48z" />
    <glyph glyph-name="uniFC26" unicode="&#xfc26;" horiz-adv-x="1387" arabic-form="isolated" 
d="M609 0q-5 0 -5 5v69q0 4 5 4h122v682h85v-490q32 75 74 125t93.5 75t109.5 25q113 0 171 -61.5t58 -192.5v-241h-713zM1237 78v159q0 92 -40.5 135.5t-121.5 43.5q-51 0 -97 -28.5t-86.5 -85t-75.5 -142.5v-82h421zM614 0q-36 0 -66.5 10t-54.5 32.5t-44 57.5
q-39 -11 -73 -21.5t-62 -21.5t-50 -22q-66 -34 -97 -72t-31 -83q0 -42 16.5 -69.5t50.5 -41t86 -13.5q25 0 61.5 4t85.5 12l11 -69q-51 -11 -102.5 -17.5t-91.5 -6.5q-64 0 -111 22.5t-72 66t-25 104.5q0 32 9.5 61.5t28.5 55.5q25 36 68.5 67t109.5 59.5t160 55.5
q-5 17 -10 39.5t-10 50.5q-8 53 -27 87.5t-48.5 51.5t-70.5 17q-36 0 -86 -14.5t-89 -35.5l-35 69q38 25 96.5 42t114.5 17q64 0 110 -23t74.5 -70t39.5 -118q8 -48 16 -81t15 -51q15 -37 39.5 -55.5t63.5 -18.5h5q5 0 5 -4v-69q0 -5 -5 -5h-5z" />
    <glyph glyph-name="uniFC27" unicode="&#xfc27;" horiz-adv-x="1454" arabic-form="isolated" 
d="M676 0q-5 0 -5 5v69q0 4 5 4h122v682h85v-490q32 75 74 125t93.5 75t109.5 25q113 0 171 -61.5t58 -192.5v-241h-713zM1304 78v159q0 92 -40.5 135.5t-121.5 43.5q-51 0 -97 -28.5t-86.5 -85t-75.5 -142.5v-82h421zM220 0q-35 0 -53 -18t-18 -55v-247h-84v262
q0 42 15.5 72.5t43 47t63.5 16.5h7q-19 47 -28 90t-9 81q0 44 9 84t27 75q37 31 84.5 49t98.5 18q31 0 59 -6.5t51 -20.5q47 -28 72.5 -79t25.5 -115q0 -32 -5 -61.5t-16 -56.5q22 -33 49 -45.5t69 -12.5h5q5 0 5 -4v-69q0 -5 -5 -5h-5q-53 0 -90.5 14.5t-72.5 50.5
q-32 -33 -74 -49t-88 -16h-136zM247 266q0 -46 8 -91t30 -97h71q45 0 75.5 20.5t46.5 60t16 96.5q0 63 -34.5 103t-83.5 40q-31 0 -60.5 -10.5t-56.5 -30.5q-9 -21 -10.5 -43t-1.5 -48z" />
    <glyph glyph-name="uniFC28" unicode="&#xfc28;" horiz-adv-x="1454" arabic-form="isolated" 
d="M676 0q-5 0 -5 5v69q0 4 5 4h122v682h85v-490q32 75 74 125t93.5 75t109.5 25q113 0 171 -61.5t58 -192.5v-241h-713zM1304 78v159q0 92 -40.5 135.5t-121.5 43.5q-51 0 -97 -28.5t-86.5 -85t-75.5 -142.5v-82h421zM1147 639q-26 0 -41 15.5t-15 44.5t15 44.5t41 15.5
q27 0 41.5 -16.5t14.5 -43.5t-14.5 -43.5t-41.5 -16.5zM220 0q-35 0 -53 -18t-18 -55v-247h-84v262q0 42 15.5 72.5t43 47t63.5 16.5h7q-19 47 -28 90t-9 81q0 44 9 84t27 75q37 31 84.5 49t98.5 18q31 0 59 -6.5t51 -20.5q47 -28 72.5 -79t25.5 -115q0 -32 -5 -61.5
t-16 -56.5q22 -33 49 -45.5t69 -12.5h5q5 0 5 -4v-69q0 -5 -5 -5h-5q-53 0 -90.5 14.5t-72.5 50.5q-32 -33 -74 -49t-88 -16h-136zM247 266q0 -46 8 -91t30 -97h71q45 0 75.5 20.5t46.5 60t16 96.5q0 63 -34.5 103t-83.5 40q-31 0 -60.5 -10.5t-56.5 -30.5q-9 -21 -10.5 -43
t-1.5 -48z" />
    <glyph glyph-name="uniFC29" unicode="&#xfc29;" horiz-adv-x="1129" arabic-form="isolated" 
d="M609 0q-5 0 -5 5v69q0 4 5 4h154q-22 18 -37.5 45t-24.5 61t-9 72q0 76 29.5 129t83 81.5t125.5 28.5q43 0 79.5 -8.5t59.5 -20.5l-27 -75q-31 13 -60 19.5t-57 6.5q-47 0 -79 -18.5t-47.5 -55t-15.5 -91.5q0 -52 15.5 -91t43.5 -61t64 -22h178v-78h-475zM253 -321
q-64 0 -111 22.5t-72 66t-25 104.5q0 32 9.5 61.5t28.5 55.5q25 36 68.5 67t109.5 59.5t160 55.5q-5 17 -10 39.5t-10 50.5q-8 53 -27 87.5t-48.5 51.5t-70.5 17q-36 0 -86 -14.5t-89 -35.5l-35 69q26 17 61 30t74 21t76 8q64 0 110 -23t74.5 -70t39.5 -118q8 -48 16 -81
t15 -51q15 -37 39.5 -55.5t63.5 -18.5h5q5 0 5 -4v-69q0 -5 -5 -5h-5q-36 0 -66.5 10t-54.5 32.5t-44 57.5q-59 -16 -106 -32.5t-79 -32.5q-66 -33 -97 -71.5t-31 -83.5q0 -62 34 -93t102 -31zM439 -239q-26 0 -41 15.5t-15 44.5t15 44.5t41 15.5q27 0 41.5 -16.5
t14.5 -43.5t-14.5 -43.5t-41.5 -16.5z" />
    <glyph glyph-name="uniFC2A" unicode="&#xfc2a;" horiz-adv-x="1196" arabic-form="isolated" 
d="M676 0q-5 0 -5 5v69q0 4 5 4h154q-22 18 -37.5 45t-24.5 61t-9 72q0 76 29.5 129t83 81.5t125.5 28.5q43 0 79.5 -8.5t59.5 -20.5l-27 -75q-31 13 -60 19.5t-57 6.5q-47 0 -79 -18.5t-47.5 -55t-15.5 -91.5q0 -52 15.5 -91t43.5 -61t64 -22h178v-78h-475zM220 0
q-35 0 -53 -18t-18 -55v-247h-84v262q0 42 15.5 72.5t43 47t63.5 16.5h7q-19 47 -28 90t-9 81q0 44 9 84t27 75q37 31 84.5 49t98.5 18q31 0 59 -6.5t51 -20.5q47 -28 72.5 -79t25.5 -115q0 -32 -5 -61.5t-16 -56.5q22 -33 49 -45.5t69 -12.5h5q5 0 5 -4v-69q0 -5 -5 -5h-5
q-53 0 -90.5 14.5t-72.5 50.5q-32 -33 -74 -49t-88 -16h-136zM247 266q0 -46 8 -91t30 -97h71q45 0 75.5 20.5t46.5 60t16 96.5q0 63 -34.5 103t-83.5 40q-31 0 -60.5 -10.5t-56.5 -30.5q-9 -21 -10.5 -43t-1.5 -48z" />
    <glyph glyph-name="uniFC2B" unicode="&#xfc2b;" horiz-adv-x="1129" arabic-form="isolated" 
d="M609 0q-5 0 -5 5v69q0 4 5 4h154q-22 18 -37.5 45t-24.5 61t-9 72q0 76 29.5 129t83 81.5t125.5 28.5q43 0 79.5 -8.5t59.5 -20.5l-27 -75q-31 13 -60 19.5t-57 6.5q-47 0 -79 -18.5t-47.5 -55t-15.5 -91.5q0 -52 15.5 -91t43.5 -61t64 -22h178v-78h-475zM892 585
q-26 0 -41 15.5t-15 44.5t15 44.5t41 15.5q27 0 41.5 -16.5t14.5 -43.5t-14.5 -43.5t-41.5 -16.5zM253 -321q-64 0 -111 22.5t-72 66t-25 104.5q0 32 9.5 61.5t28.5 55.5q25 36 68.5 67t109.5 59.5t160 55.5q-5 17 -10 39.5t-10 50.5q-8 53 -27 87.5t-48.5 51.5t-70.5 17
q-36 0 -86 -14.5t-89 -35.5l-35 69q26 17 61 30t74 21t76 8q64 0 110 -23t74.5 -70t39.5 -118q8 -48 16 -81t15 -51q15 -37 39.5 -55.5t63.5 -18.5h5q5 0 5 -4v-69q0 -5 -5 -5h-5q-36 0 -66.5 10t-54.5 32.5t-44 57.5q-59 -16 -106 -32.5t-79 -32.5q-66 -33 -97 -71.5
t-31 -83.5q0 -62 34 -93t102 -31zM439 -239q-26 0 -41 15.5t-15 44.5t15 44.5t41 15.5q27 0 41.5 -16.5t14.5 -43.5t-14.5 -43.5t-41.5 -16.5z" />
    <glyph glyph-name="uniFC2C" unicode="&#xfc2c;" horiz-adv-x="1196" arabic-form="isolated" 
d="M676 0q-5 0 -5 5v69q0 4 5 4h154q-22 18 -37.5 45t-24.5 61t-9 72q0 76 29.5 129t83 81.5t125.5 28.5q43 0 79.5 -8.5t59.5 -20.5l-27 -75q-31 13 -60 19.5t-57 6.5q-47 0 -79 -18.5t-47.5 -55t-15.5 -91.5q0 -52 15.5 -91t43.5 -61t64 -22h178v-78h-475zM959 585
q-26 0 -41 15.5t-15 44.5t15 44.5t41 15.5q27 0 41.5 -16.5t14.5 -43.5t-14.5 -43.5t-41.5 -16.5zM220 0q-35 0 -53 -18t-18 -55v-247h-84v262q0 42 15.5 72.5t43 47t63.5 16.5h7q-19 47 -28 90t-9 81q0 44 9 84t27 75q37 31 84.5 49t98.5 18q31 0 59 -6.5t51 -20.5
q47 -28 72.5 -79t25.5 -115q0 -32 -5 -61.5t-16 -56.5q22 -33 49 -45.5t69 -12.5h5q5 0 5 -4v-69q0 -5 -5 -5h-5q-53 0 -90.5 14.5t-72.5 50.5q-32 -33 -74 -49t-88 -16h-136zM247 266q0 -46 8 -91t30 -97h71q45 0 75.5 20.5t46.5 60t16 96.5q0 63 -34.5 103t-83.5 40
q-31 0 -60.5 -10.5t-56.5 -30.5q-9 -21 -10.5 -43t-1.5 -48z" />
    <glyph glyph-name="uniFC2D" unicode="&#xfc2d;" horiz-adv-x="1199" arabic-form="isolated" 
d="M609 0q-5 0 -5 5v69q0 4 5 4h152q-16 20 -28 45t-18 52.5t-6 53.5q0 78 33.5 135.5t95 89t145.5 31.5h131v-485h-505zM935 78h94v329h-43q-59 0 -101.5 -21t-64.5 -60.5t-22 -95.5q0 -50 15.5 -84t46 -51t75.5 -17zM930 600q-26 0 -41 15.5t-15 44.5t15 44.5t41 15.5
q27 0 41.5 -16.5t14.5 -43.5t-14.5 -43.5t-41.5 -16.5zM253 -321q-64 0 -111 22.5t-72 66t-25 104.5q0 32 9.5 61.5t28.5 55.5q25 36 68.5 67t109.5 59.5t160 55.5q-5 17 -10 39.5t-10 50.5q-8 53 -27 87.5t-48.5 51.5t-70.5 17q-36 0 -86 -14.5t-89 -35.5l-35 69
q26 17 61 30t74 21t76 8q64 0 110 -23t74.5 -70t39.5 -118q8 -48 16 -81t15 -51q15 -37 39.5 -55.5t63.5 -18.5h5q5 0 5 -4v-69q0 -5 -5 -5h-5q-36 0 -66.5 10t-54.5 32.5t-44 57.5q-59 -16 -106 -32.5t-79 -32.5q-66 -33 -97 -71.5t-31 -83.5q0 -62 34 -93t102 -31z
M439 -239q-26 0 -41 15.5t-15 44.5t15 44.5t41 15.5q27 0 41.5 -16.5t14.5 -43.5t-14.5 -43.5t-41.5 -16.5z" />
    <glyph glyph-name="uniFC2E" unicode="&#xfc2e;" horiz-adv-x="1199" arabic-form="isolated" 
d="M609 0q-5 0 -5 5v69q0 4 5 4h152q-16 20 -28 45t-18 52.5t-6 53.5q0 78 33.5 135.5t95 89t145.5 31.5h131v-485h-505zM935 78h94v329h-43q-59 0 -101.5 -21t-64.5 -60.5t-22 -95.5q0 -50 15.5 -84t46 -51t75.5 -17zM930 600q-26 0 -41 15.5t-15 44.5t15 44.5t41 15.5
q27 0 41.5 -16.5t14.5 -43.5t-14.5 -43.5t-41.5 -16.5zM614 0q-36 0 -66.5 10t-54.5 32.5t-44 57.5q-39 -11 -73 -21.5t-62 -21.5t-50 -22q-66 -34 -97 -72t-31 -83q0 -42 16.5 -69.5t50.5 -41t86 -13.5q25 0 61.5 4t85.5 12l11 -69q-51 -11 -102.5 -17.5t-91.5 -6.5
q-64 0 -111 22.5t-72 66t-25 104.5q0 32 9.5 61.5t28.5 55.5q25 36 68.5 67t109.5 59.5t160 55.5q-5 17 -10 39.5t-10 50.5q-8 53 -27 87.5t-48.5 51.5t-70.5 17q-36 0 -86 -14.5t-89 -35.5l-35 69q38 25 96.5 42t114.5 17q64 0 110 -23t74.5 -70t39.5 -118q8 -48 16 -81
t15 -51q15 -37 39.5 -55.5t63.5 -18.5h5q5 0 5 -4v-69q0 -5 -5 -5h-5z" />
    <glyph glyph-name="uniFC2F" unicode="&#xfc2f;" horiz-adv-x="1199" arabic-form="isolated" 
d="M609 0q-5 0 -5 5v69q0 4 5 4h152q-16 20 -28 45t-18 52.5t-6 53.5q0 78 33.5 135.5t95 89t145.5 31.5h131v-485h-505zM935 78h94v329h-43q-59 0 -101.5 -21t-64.5 -60.5t-22 -95.5q0 -50 15.5 -84t46 -51t75.5 -17zM930 600q-26 0 -41 15.5t-15 44.5t15 44.5t41 15.5
q27 0 41.5 -16.5t14.5 -43.5t-14.5 -43.5t-41.5 -16.5zM614 0q-36 0 -66.5 10t-54.5 32.5t-44 57.5q-39 -11 -73 -21.5t-62 -21.5t-50 -22q-66 -34 -97 -72t-31 -83q0 -42 16.5 -69.5t50.5 -41t86 -13.5q25 0 61.5 4t85.5 12l11 -69q-51 -11 -102.5 -17.5t-91.5 -6.5
q-64 0 -111 22.5t-72 66t-25 104.5q0 32 9.5 61.5t28.5 55.5q25 36 68.5 67t109.5 59.5t160 55.5q-5 17 -10 39.5t-10 50.5q-8 53 -27 87.5t-48.5 51.5t-70.5 17q-36 0 -86 -14.5t-89 -35.5l-35 69q38 25 96.5 42t114.5 17q64 0 110 -23t74.5 -70t39.5 -118q8 -48 16 -81
t15 -51q15 -37 39.5 -55.5t63.5 -18.5h5q5 0 5 -4v-69q0 -5 -5 -5h-5zM240 600q-26 0 -41 15.5t-15 44.5t15 44.5t41 15.5q27 0 41.5 -16.5t14.5 -43.5t-14.5 -43.5t-41.5 -16.5z" />
    <glyph glyph-name="uniFC30" unicode="&#xfc30;" horiz-adv-x="1266" arabic-form="isolated" 
d="M676 0q-5 0 -5 5v69q0 4 5 4h152q-16 20 -28 45t-18 52.5t-6 53.5q0 78 33.5 135.5t95 89t145.5 31.5h131v-485h-505zM1002 78h94v329h-43q-59 0 -101.5 -21t-64.5 -60.5t-22 -95.5q0 -50 15.5 -84t46 -51t75.5 -17zM997 600q-26 0 -41 15.5t-15 44.5t15 44.5t41 15.5
q27 0 41.5 -16.5t14.5 -43.5t-14.5 -43.5t-41.5 -16.5zM220 0q-35 0 -53 -18t-18 -55v-247h-84v262q0 42 15.5 72.5t43 47t63.5 16.5h7q-19 47 -28 90t-9 81q0 44 9 84t27 75q37 31 84.5 49t98.5 18q31 0 59 -6.5t51 -20.5q47 -28 72.5 -79t25.5 -115q0 -32 -5 -61.5
t-16 -56.5q22 -33 49 -45.5t69 -12.5h5q5 0 5 -4v-69q0 -5 -5 -5h-5q-53 0 -90.5 14.5t-72.5 50.5q-32 -33 -74 -49t-88 -16h-136zM247 266q0 -46 8 -91t30 -97h71q45 0 75.5 20.5t46.5 60t16 96.5q0 63 -34.5 103t-83.5 40q-31 0 -60.5 -10.5t-56.5 -30.5q-9 -21 -10.5 -43
t-1.5 -48z" />
    <glyph glyph-name="uniFC31" unicode="&#xfc31;" horiz-adv-x="1549" arabic-form="isolated" 
d="M959 0q-5 0 -5 5v69q0 4 5 4h152q-16 20 -28 45t-18 52.5t-6 53.5q0 78 33.5 135.5t95 89t145.5 31.5h131v-485h-505zM1285 78h94v329h-43q-59 0 -101.5 -21t-64.5 -60.5t-22 -95.5q0 -50 15.5 -84t46 -51t75.5 -17zM1280 600q-26 0 -41 15.5t-15 44.5t15 44.5t41 15.5
q27 0 41.5 -16.5t14.5 -43.5t-14.5 -43.5t-41.5 -16.5zM266 -240q-62 0 -107.5 29.5t-69.5 83.5t-24 128q0 52 8.5 94t26.5 86h83q-16 -42 -22 -81.5t-6 -92.5q0 -54 15 -91.5t44 -57.5t71 -20h186q48 0 85 12.5t58.5 33t21.5 44.5q0 21 -18 35.5t-56 25.5
q-49 15 -85.5 29.5t-56.5 39t-20 65.5q0 29 9 57t26 55q23 36 55.5 63t69.5 42t73 15q17 0 32 -3t28 -9q26 -12 49 -35.5t57 -77.5q32 -52 56 -83t43 -45q15 -11 31 -17.5t35 -6.5h5q5 0 5 -4v-69q0 -5 -5 -5h-5q-28 0 -54.5 8.5t-52.5 26.5t-54 46q-5 6 -18 23.5t-33 45.5
q-24 34 -43 56.5t-33 35.5q-13 12 -27 17.5t-27 5.5q-21 0 -44 -12.5t-43 -32.5t-32.5 -42.5t-12.5 -42.5q0 -14 10.5 -24.5t28 -17.5t36.5 -13q37 -10 62 -19t40 -17q30 -16 45.5 -37.5t15.5 -48.5q0 -99 -64.5 -148.5t-192.5 -49.5h-205z" />
    <glyph glyph-name="uniFC32" unicode="&#xfc32;" horiz-adv-x="1549" arabic-form="isolated" 
d="M959 0q-5 0 -5 5v69q0 4 5 4h152q-16 20 -28 45t-18 52.5t-6 53.5q0 78 33.5 135.5t95 89t145.5 31.5h131v-485h-505zM1285 78h94v329h-43q-59 0 -101.5 -21t-64.5 -60.5t-22 -95.5q0 -50 15.5 -84t46 -51t75.5 -17zM1280 600q-26 0 -41 15.5t-15 44.5t15 44.5t41 15.5
q27 0 41.5 -16.5t14.5 -43.5t-14.5 -43.5t-41.5 -16.5zM266 -240q-62 0 -107.5 29.5t-69.5 83.5t-24 128q0 52 8.5 94t26.5 86h83q-16 -42 -22 -81.5t-6 -92.5q0 -54 15 -91.5t44 -57.5t71 -20h186q48 0 85 12.5t58.5 33t21.5 44.5q0 21 -18 35.5t-56 25.5
q-49 15 -85.5 29.5t-56.5 39t-20 65.5q0 29 9 57t26 55q23 36 55.5 63t69.5 42t73 15q17 0 32 -3t28 -9q26 -12 49 -35.5t57 -77.5q32 -52 56 -83t43 -45q15 -11 31 -17.5t35 -6.5h5q5 0 5 -4v-69q0 -5 -5 -5h-5q-28 0 -54.5 8.5t-52.5 26.5t-54 46q-5 6 -18 23.5t-33 45.5
q-24 34 -43 56.5t-33 35.5q-13 12 -27 17.5t-27 5.5q-21 0 -44 -12.5t-43 -32.5t-32.5 -42.5t-12.5 -42.5q0 -14 10.5 -24.5t28 -17.5t36.5 -13q37 -10 62 -19t40 -17q30 -16 45.5 -37.5t15.5 -48.5q0 -99 -64.5 -148.5t-192.5 -49.5h-205zM303 -448q-23 0 -39.5 14
t-16.5 46t16.5 46t39.5 14q26 0 41 -15.5t15 -44.5t-15 -44.5t-41 -15.5zM476 -448q-26 0 -41 15.5t-15 44.5t15 44.5t41 15.5q27 0 41.5 -16.5t14.5 -43.5t-14.5 -43.5t-41.5 -16.5z" />
    <glyph glyph-name="uniFC33" unicode="&#xfc33;" horiz-adv-x="1199" arabic-form="isolated" 
d="M609 0q-5 0 -5 5v69q0 4 5 4h152q-16 20 -28 45t-18 52.5t-6 53.5q0 78 33.5 135.5t95 89t145.5 31.5h131v-485h-505zM935 78h94v329h-43q-59 0 -101.5 -21t-64.5 -60.5t-22 -95.5q0 -50 15.5 -84t46 -51t75.5 -17zM837 612q-23 0 -39.5 14t-16.5 46t16.5 46t39.5 14
q26 0 41 -15.5t15 -44.5t-15 -44.5t-41 -15.5zM1010 612q-26 0 -41 15.5t-15 44.5t15 44.5t41 15.5q27 0 41.5 -16.5t14.5 -43.5t-14.5 -43.5t-41.5 -16.5zM614 0q-36 0 -66.5 10t-54.5 32.5t-44 57.5q-39 -11 -73 -21.5t-62 -21.5t-50 -22q-66 -34 -97 -72t-31 -83
q0 -42 16.5 -69.5t50.5 -41t86 -13.5q25 0 61.5 4t85.5 12l11 -69q-51 -11 -102.5 -17.5t-91.5 -6.5q-64 0 -111 22.5t-72 66t-25 104.5q0 32 9.5 61.5t28.5 55.5q25 36 68.5 67t109.5 59.5t160 55.5q-5 17 -10 39.5t-10 50.5q-8 53 -27 87.5t-48.5 51.5t-70.5 17
q-36 0 -86 -14.5t-89 -35.5l-35 69q38 25 96.5 42t114.5 17q64 0 110 -23t74.5 -70t39.5 -118q8 -48 16 -81t15 -51q15 -37 39.5 -55.5t63.5 -18.5h5q5 0 5 -4v-69q0 -5 -5 -5h-5z" />
    <glyph glyph-name="uniFC34" unicode="&#xfc34;" horiz-adv-x="1266" arabic-form="isolated" 
d="M676 0q-5 0 -5 5v69q0 4 5 4h152q-16 20 -28 45t-18 52.5t-6 53.5q0 78 33.5 135.5t95 89t145.5 31.5h131v-485h-505zM1002 78h94v329h-43q-59 0 -101.5 -21t-64.5 -60.5t-22 -95.5q0 -50 15.5 -84t46 -51t75.5 -17zM904 612q-23 0 -39.5 14t-16.5 46t16.5 46t39.5 14
q26 0 41 -15.5t15 -44.5t-15 -44.5t-41 -15.5zM1077 612q-26 0 -41 15.5t-15 44.5t15 44.5t41 15.5q27 0 41.5 -16.5t14.5 -43.5t-14.5 -43.5t-41.5 -16.5zM220 0q-35 0 -53 -18t-18 -55v-247h-84v262q0 42 15.5 72.5t43 47t63.5 16.5h7q-19 47 -28 90t-9 81q0 44 9 84
t27 75q37 31 84.5 49t98.5 18q31 0 59 -6.5t51 -20.5q47 -28 72.5 -79t25.5 -115q0 -32 -5 -61.5t-16 -56.5q22 -33 49 -45.5t69 -12.5h5q5 0 5 -4v-69q0 -5 -5 -5h-5q-53 0 -90.5 14.5t-72.5 50.5q-32 -33 -74 -49t-88 -16h-136zM247 266q0 -46 8 -91t30 -97h71
q45 0 75.5 20.5t46.5 60t16 96.5q0 63 -34.5 103t-83.5 40q-31 0 -60.5 -10.5t-56.5 -30.5q-9 -21 -10.5 -43t-1.5 -48z" />
    <glyph glyph-name="uniFC35" unicode="&#xfc35;" horiz-adv-x="1549" arabic-form="isolated" 
d="M959 0q-5 0 -5 5v69q0 4 5 4h152q-16 20 -28 45t-18 52.5t-6 53.5q0 78 33.5 135.5t95 89t145.5 31.5h131v-485h-505zM1285 78h94v329h-43q-59 0 -101.5 -21t-64.5 -60.5t-22 -95.5q0 -50 15.5 -84t46 -51t75.5 -17zM1187 612q-23 0 -39.5 14t-16.5 46t16.5 46t39.5 14
q26 0 41 -15.5t15 -44.5t-15 -44.5t-41 -15.5zM1360 612q-26 0 -41 15.5t-15 44.5t15 44.5t41 15.5q27 0 41.5 -16.5t14.5 -43.5t-14.5 -43.5t-41.5 -16.5zM266 -240q-62 0 -107.5 29.5t-69.5 83.5t-24 128q0 52 8.5 94t26.5 86h83q-16 -42 -22 -81.5t-6 -92.5
q0 -54 15 -91.5t44 -57.5t71 -20h186q48 0 85 12.5t58.5 33t21.5 44.5q0 21 -18 35.5t-56 25.5q-49 15 -85.5 29.5t-56.5 39t-20 65.5q0 29 9 57t26 55q23 36 55.5 63t69.5 42t73 15q17 0 32 -3t28 -9q26 -12 49 -35.5t57 -77.5q32 -52 56 -83t43 -45q15 -11 31 -17.5
t35 -6.5h5q5 0 5 -4v-69q0 -5 -5 -5h-5q-28 0 -54.5 8.5t-52.5 26.5t-54 46q-5 6 -18 23.5t-33 45.5q-24 34 -43 56.5t-33 35.5q-13 12 -27 17.5t-27 5.5q-21 0 -44 -12.5t-43 -32.5t-32.5 -42.5t-12.5 -42.5q0 -14 10.5 -24.5t28 -17.5t36.5 -13q37 -10 62 -19t40 -17
q30 -16 45.5 -37.5t15.5 -48.5q0 -99 -64.5 -148.5t-192.5 -49.5h-205z" />
    <glyph glyph-name="uniFC36" unicode="&#xfc36;" horiz-adv-x="1549" arabic-form="isolated" 
d="M959 0q-5 0 -5 5v69q0 4 5 4h152q-16 20 -28 45t-18 52.5t-6 53.5q0 78 33.5 135.5t95 89t145.5 31.5h131v-485h-505zM1285 78h94v329h-43q-59 0 -101.5 -21t-64.5 -60.5t-22 -95.5q0 -50 15.5 -84t46 -51t75.5 -17zM1187 612q-23 0 -39.5 14t-16.5 46t16.5 46t39.5 14
q26 0 41 -15.5t15 -44.5t-15 -44.5t-41 -15.5zM1360 612q-26 0 -41 15.5t-15 44.5t15 44.5t41 15.5q27 0 41.5 -16.5t14.5 -43.5t-14.5 -43.5t-41.5 -16.5zM266 -240q-62 0 -107.5 29.5t-69.5 83.5t-24 128q0 52 8.5 94t26.5 86h83q-16 -42 -22 -81.5t-6 -92.5
q0 -54 15 -91.5t44 -57.5t71 -20h186q48 0 85 12.5t58.5 33t21.5 44.5q0 21 -18 35.5t-56 25.5q-49 15 -85.5 29.5t-56.5 39t-20 65.5q0 29 9 57t26 55q23 36 55.5 63t69.5 42t73 15q17 0 32 -3t28 -9q26 -12 49 -35.5t57 -77.5q32 -52 56 -83t43 -45q15 -11 31 -17.5
t35 -6.5h5q5 0 5 -4v-69q0 -5 -5 -5h-5q-28 0 -54.5 8.5t-52.5 26.5t-54 46q-5 6 -18 23.5t-33 45.5q-24 34 -43 56.5t-33 35.5q-13 12 -27 17.5t-27 5.5q-21 0 -44 -12.5t-43 -32.5t-32.5 -42.5t-12.5 -42.5q0 -14 10.5 -24.5t28 -17.5t36.5 -13q37 -10 62 -19t40 -17
q30 -16 45.5 -37.5t15.5 -48.5q0 -99 -64.5 -148.5t-192.5 -49.5h-205zM303 -448q-23 0 -39.5 14t-16.5 46t16.5 46t39.5 14q26 0 41 -15.5t15 -44.5t-15 -44.5t-41 -15.5zM476 -448q-26 0 -41 15.5t-15 44.5t15 44.5t41 15.5q27 0 41.5 -16.5t14.5 -43.5t-14.5 -43.5
t-41.5 -16.5z" />
    <glyph glyph-name="uniFC37" unicode="&#xfc37;" horiz-adv-x="892" arabic-form="isolated" 
d="M311 0q-5 0 -5 5v69q0 4 5 4h421v184q0 75 -45 110t-139 35h-170v82q16 34 38.5 67t50.5 66q57 65 127 116t136 76l32 -76q-46 -18 -92.5 -46.5t-87.5 -63t-72.5 -71.5t-48.5 -72h87q131 0 200 -54t69 -154v-277h-506zM321 78q5 0 5 -4v-69q0 -5 -5 -5h-221v760h89v-682
h132z" />
    <glyph glyph-name="uniFC38" unicode="&#xfc38;" horiz-adv-x="1190" arabic-form="isolated" 
d="M609 0q-5 0 -5 5v69q0 4 5 4h421v184q0 75 -45 110t-139 35h-170v82q16 34 38.5 67t50.5 66q57 65 127 116t136 76l32 -76q-46 -18 -92.5 -46.5t-87.5 -63t-72.5 -71.5t-48.5 -72h87q131 0 200 -54t69 -154v-277h-506zM253 -321q-64 0 -111 22.5t-72 66t-25 104.5
q0 32 9.5 61.5t28.5 55.5q25 36 68.5 67t109.5 59.5t160 55.5q-5 17 -10 39.5t-10 50.5q-8 53 -27 87.5t-48.5 51.5t-70.5 17q-36 0 -86 -14.5t-89 -35.5l-35 69q26 17 61 30t74 21t76 8q64 0 110 -23t74.5 -70t39.5 -118q8 -48 16 -81t15 -51q15 -37 39.5 -55.5t63.5 -18.5
h5q5 0 5 -4v-69q0 -5 -5 -5h-5q-36 0 -66.5 10t-54.5 32.5t-44 57.5q-59 -16 -106 -32.5t-79 -32.5q-66 -33 -97 -71.5t-31 -83.5q0 -62 34 -93t102 -31zM439 -239q-26 0 -41 15.5t-15 44.5t15 44.5t41 15.5q27 0 41.5 -16.5t14.5 -43.5t-14.5 -43.5t-41.5 -16.5z" />
    <glyph glyph-name="uniFC39" unicode="&#xfc39;" horiz-adv-x="1190" arabic-form="isolated" 
d="M609 0q-5 0 -5 5v69q0 4 5 4h421v184q0 75 -45 110t-139 35h-170v82q16 34 38.5 67t50.5 66q57 65 127 116t136 76l32 -76q-46 -18 -92.5 -46.5t-87.5 -63t-72.5 -71.5t-48.5 -72h87q131 0 200 -54t69 -154v-277h-506zM614 0q-36 0 -66.5 10t-54.5 32.5t-44 57.5
q-39 -11 -73 -21.5t-62 -21.5t-50 -22q-66 -34 -97 -72t-31 -83q0 -42 16.5 -69.5t50.5 -41t86 -13.5q25 0 61.5 4t85.5 12l11 -69q-51 -11 -102.5 -17.5t-91.5 -6.5q-64 0 -111 22.5t-72 66t-25 104.5q0 32 9.5 61.5t28.5 55.5q25 36 68.5 67t109.5 59.5t160 55.5
q-5 17 -10 39.5t-10 50.5q-8 53 -27 87.5t-48.5 51.5t-70.5 17q-36 0 -86 -14.5t-89 -35.5l-35 69q38 25 96.5 42t114.5 17q64 0 110 -23t74.5 -70t39.5 -118q8 -48 16 -81t15 -51q15 -37 39.5 -55.5t63.5 -18.5h5q5 0 5 -4v-69q0 -5 -5 -5h-5z" />
    <glyph glyph-name="uniFC3A" unicode="&#xfc3a;" horiz-adv-x="1190" arabic-form="isolated" 
d="M609 0q-5 0 -5 5v69q0 4 5 4h421v184q0 75 -45 110t-139 35h-170v82q16 34 38.5 67t50.5 66q57 65 127 116t136 76l32 -76q-46 -18 -92.5 -46.5t-87.5 -63t-72.5 -71.5t-48.5 -72h87q131 0 200 -54t69 -154v-277h-506zM614 0q-36 0 -66.5 10t-54.5 32.5t-44 57.5
q-39 -11 -73 -21.5t-62 -21.5t-50 -22q-66 -34 -97 -72t-31 -83q0 -42 16.5 -69.5t50.5 -41t86 -13.5q25 0 61.5 4t85.5 12l11 -69q-51 -11 -102.5 -17.5t-91.5 -6.5q-64 0 -111 22.5t-72 66t-25 104.5q0 32 9.5 61.5t28.5 55.5q25 36 68.5 67t109.5 59.5t160 55.5
q-5 17 -10 39.5t-10 50.5q-8 53 -27 87.5t-48.5 51.5t-70.5 17q-36 0 -86 -14.5t-89 -35.5l-35 69q38 25 96.5 42t114.5 17q64 0 110 -23t74.5 -70t39.5 -118q8 -48 16 -81t15 -51q15 -37 39.5 -55.5t63.5 -18.5h5q5 0 5 -4v-69q0 -5 -5 -5h-5zM240 600q-26 0 -41 15.5
t-15 44.5t15 44.5t41 15.5q27 0 41.5 -16.5t14.5 -43.5t-14.5 -43.5t-41.5 -16.5z" />
    <glyph glyph-name="uniFC3B" unicode="&#xfc3b;" horiz-adv-x="1268" arabic-form="isolated" 
d="M687 0q-5 0 -5 5v69q0 4 5 4h421v184q0 75 -45 110t-139 35h-170v82q16 34 38.5 67t50.5 66q57 65 127 116t136 76l32 -76q-46 -18 -92.5 -46.5t-87.5 -63t-72.5 -71.5t-48.5 -72h87q131 0 200 -54t69 -154v-277h-506zM587 0q0 -119 -61 -179.5t-188 -60.5h-72
q-34 0 -63.5 9t-52.5 28q-40 32 -62.5 87.5t-22.5 131.5q0 42 4.5 84t14 81t22.5 71h83q-17 -43 -25.5 -102t-8.5 -134q0 -85 34 -131.5t96 -46.5h49q58 0 95 17.5t55 53.5t18 91v760h85v-682h110q5 0 5 -4v-69q0 -5 -5 -5h-110z" />
    <glyph glyph-name="uniFC3C" unicode="&#xfc3c;" horiz-adv-x="1257" arabic-form="isolated" 
d="M676 0q-5 0 -5 5v69q0 4 5 4h421v184q0 75 -45 110t-139 35h-170v82q16 34 38.5 67t50.5 66q57 65 127 116t136 76l32 -76q-46 -18 -92.5 -46.5t-87.5 -63t-72.5 -71.5t-48.5 -72h87q131 0 200 -54t69 -154v-277h-506zM220 0q-35 0 -53 -18t-18 -55v-247h-84v262
q0 42 15.5 72.5t43 47t63.5 16.5h7q-19 47 -28 90t-9 81q0 44 9 84t27 75q37 31 84.5 49t98.5 18q31 0 59 -6.5t51 -20.5q47 -28 72.5 -79t25.5 -115q0 -32 -5 -61.5t-16 -56.5q22 -33 49 -45.5t69 -12.5h5q5 0 5 -4v-69q0 -5 -5 -5h-5q-53 0 -90.5 14.5t-72.5 50.5
q-32 -33 -74 -49t-88 -16h-136zM247 266q0 -46 8 -91t30 -97h71q45 0 75.5 20.5t46.5 60t16 96.5q0 63 -34.5 103t-83.5 40q-31 0 -60.5 -10.5t-56.5 -30.5q-9 -21 -10.5 -43t-1.5 -48z" />
    <glyph glyph-name="uniFC3D" unicode="&#xfc3d;" horiz-adv-x="1540" arabic-form="isolated" 
d="M959 0q-5 0 -5 5v69q0 4 5 4h421v184q0 75 -45 110t-139 35h-170v82q16 34 38.5 67t50.5 66q57 65 127 116t136 76l32 -76q-46 -18 -92.5 -46.5t-87.5 -63t-72.5 -71.5t-48.5 -72h87q131 0 200 -54t69 -154v-277h-506zM266 -240q-62 0 -107.5 29.5t-69.5 83.5t-24 128
q0 52 8.5 94t26.5 86h83q-16 -42 -22 -81.5t-6 -92.5q0 -54 15 -91.5t44 -57.5t71 -20h186q48 0 85 12.5t58.5 33t21.5 44.5q0 21 -18 35.5t-56 25.5q-49 15 -85.5 29.5t-56.5 39t-20 65.5q0 29 9 57t26 55q23 36 55.5 63t69.5 42t73 15q17 0 32 -3t28 -9q26 -12 49 -35.5
t57 -77.5q32 -52 56 -83t43 -45q15 -11 31 -17.5t35 -6.5h5q5 0 5 -4v-69q0 -5 -5 -5h-5q-28 0 -54.5 8.5t-52.5 26.5t-54 46q-5 6 -18 23.5t-33 45.5q-24 34 -43 56.5t-33 35.5q-13 12 -27 17.5t-27 5.5q-21 0 -44 -12.5t-43 -32.5t-32.5 -42.5t-12.5 -42.5
q0 -14 10.5 -24.5t28 -17.5t36.5 -13q37 -10 62 -19t40 -17q30 -16 45.5 -37.5t15.5 -48.5q0 -99 -64.5 -148.5t-192.5 -49.5h-205z" />
    <glyph glyph-name="uniFC3E" unicode="&#xfc3e;" horiz-adv-x="1540" arabic-form="isolated" 
d="M959 0q-5 0 -5 5v69q0 4 5 4h421v184q0 75 -45 110t-139 35h-170v82q16 34 38.5 67t50.5 66q57 65 127 116t136 76l32 -76q-46 -18 -92.5 -46.5t-87.5 -63t-72.5 -71.5t-48.5 -72h87q131 0 200 -54t69 -154v-277h-506zM266 -240q-62 0 -107.5 29.5t-69.5 83.5t-24 128
q0 52 8.5 94t26.5 86h83q-16 -42 -22 -81.5t-6 -92.5q0 -54 15 -91.5t44 -57.5t71 -20h186q48 0 85 12.5t58.5 33t21.5 44.5q0 21 -18 35.5t-56 25.5q-49 15 -85.5 29.5t-56.5 39t-20 65.5q0 29 9 57t26 55q23 36 55.5 63t69.5 42t73 15q17 0 32 -3t28 -9q26 -12 49 -35.5
t57 -77.5q32 -52 56 -83t43 -45q15 -11 31 -17.5t35 -6.5h5q5 0 5 -4v-69q0 -5 -5 -5h-5q-28 0 -54.5 8.5t-52.5 26.5t-54 46q-5 6 -18 23.5t-33 45.5q-24 34 -43 56.5t-33 35.5q-13 12 -27 17.5t-27 5.5q-21 0 -44 -12.5t-43 -32.5t-32.5 -42.5t-12.5 -42.5
q0 -14 10.5 -24.5t28 -17.5t36.5 -13q37 -10 62 -19t40 -17q30 -16 45.5 -37.5t15.5 -48.5q0 -99 -64.5 -148.5t-192.5 -49.5h-205zM303 -448q-23 0 -39.5 14t-16.5 46t16.5 46t39.5 14q26 0 41 -15.5t15 -44.5t-15 -44.5t-41 -15.5zM476 -448q-26 0 -41 15.5t-15 44.5
t15 44.5t41 15.5q27 0 41.5 -16.5t14.5 -43.5t-14.5 -43.5t-41.5 -16.5z" />
    <glyph glyph-name="uniFC3F" unicode="&#xfc3f;" horiz-adv-x="930" arabic-form="isolated" 
d="M609 0q-5 0 -5 5v69q0 4 5 4h132v682h89v-760h-221zM253 -321q-64 0 -111 22.5t-72 66t-25 104.5q0 32 9.5 61.5t28.5 55.5q25 36 68.5 67t109.5 59.5t160 55.5q-5 17 -10 39.5t-10 50.5q-8 53 -27 87.5t-48.5 51.5t-70.5 17q-36 0 -86 -14.5t-89 -35.5l-35 69
q26 17 61 30t74 21t76 8q64 0 110 -23t74.5 -70t39.5 -118q8 -48 16 -81t15 -51q15 -37 39.5 -55.5t63.5 -18.5h5q5 0 5 -4v-69q0 -5 -5 -5h-5q-36 0 -66.5 10t-54.5 32.5t-44 57.5q-59 -16 -106 -32.5t-79 -32.5q-66 -33 -97 -71.5t-31 -83.5q0 -62 34 -93t102 -31z
M439 -239q-26 0 -41 15.5t-15 44.5t15 44.5t41 15.5q27 0 41.5 -16.5t14.5 -43.5t-14.5 -43.5t-41.5 -16.5z" />
    <glyph glyph-name="uniFC40" unicode="&#xfc40;" horiz-adv-x="930" arabic-form="isolated" 
d="M609 0q-5 0 -5 5v69q0 4 5 4h132v682h89v-760h-221zM614 0q-36 0 -66.5 10t-54.5 32.5t-44 57.5q-39 -11 -73 -21.5t-62 -21.5t-50 -22q-66 -34 -97 -72t-31 -83q0 -42 16.5 -69.5t50.5 -41t86 -13.5q25 0 61.5 4t85.5 12l11 -69q-51 -11 -102.5 -17.5t-91.5 -6.5
q-64 0 -111 22.5t-72 66t-25 104.5q0 32 9.5 61.5t28.5 55.5q25 36 68.5 67t109.5 59.5t160 55.5q-5 17 -10 39.5t-10 50.5q-8 53 -27 87.5t-48.5 51.5t-70.5 17q-36 0 -86 -14.5t-89 -35.5l-35 69q38 25 96.5 42t114.5 17q64 0 110 -23t74.5 -70t39.5 -118q8 -48 16 -81
t15 -51q15 -37 39.5 -55.5t63.5 -18.5h5q5 0 5 -4v-69q0 -5 -5 -5h-5z" />
    <glyph glyph-name="uniFC41" unicode="&#xfc41;" horiz-adv-x="930" arabic-form="isolated" 
d="M609 0q-5 0 -5 5v69q0 4 5 4h132v682h89v-760h-221zM614 0q-36 0 -66.5 10t-54.5 32.5t-44 57.5q-39 -11 -73 -21.5t-62 -21.5t-50 -22q-66 -34 -97 -72t-31 -83q0 -42 16.5 -69.5t50.5 -41t86 -13.5q25 0 61.5 4t85.5 12l11 -69q-51 -11 -102.5 -17.5t-91.5 -6.5
q-64 0 -111 22.5t-72 66t-25 104.5q0 32 9.5 61.5t28.5 55.5q25 36 68.5 67t109.5 59.5t160 55.5q-5 17 -10 39.5t-10 50.5q-8 53 -27 87.5t-48.5 51.5t-70.5 17q-36 0 -86 -14.5t-89 -35.5l-35 69q38 25 96.5 42t114.5 17q64 0 110 -23t74.5 -70t39.5 -118q8 -48 16 -81
t15 -51q15 -37 39.5 -55.5t63.5 -18.5h5q5 0 5 -4v-69q0 -5 -5 -5h-5zM240 600q-26 0 -41 15.5t-15 44.5t15 44.5t41 15.5q27 0 41.5 -16.5t14.5 -43.5t-14.5 -43.5t-41.5 -16.5z" />
    <glyph glyph-name="uniFC42" unicode="&#xfc42;" horiz-adv-x="997" arabic-form="isolated" 
d="M676 0q-5 0 -5 5v69q0 4 5 4h132v682h89v-760h-221zM220 0q-35 0 -53 -18t-18 -55v-247h-84v262q0 42 15.5 72.5t43 47t63.5 16.5h7q-19 47 -28 90t-9 81q0 44 9 84t27 75q37 31 84.5 49t98.5 18q31 0 59 -6.5t51 -20.5q47 -28 72.5 -79t25.5 -115q0 -32 -5 -61.5
t-16 -56.5q22 -33 49 -45.5t69 -12.5h5q5 0 5 -4v-69q0 -5 -5 -5h-5q-53 0 -90.5 14.5t-72.5 50.5q-32 -33 -74 -49t-88 -16h-136zM247 266q0 -46 8 -91t30 -97h71q45 0 75.5 20.5t46.5 60t16 96.5q0 63 -34.5 103t-83.5 40q-31 0 -60.5 -10.5t-56.5 -30.5q-9 -21 -10.5 -43
t-1.5 -48z" />
    <glyph glyph-name="uniFC43" unicode="&#xfc43;" horiz-adv-x="1280" arabic-form="isolated" 
d="M959 0q-5 0 -5 5v69q0 4 5 4h132v682h89v-760h-221zM266 -240q-62 0 -107.5 29.5t-69.5 83.5t-24 128q0 52 8.5 94t26.5 86h83q-16 -42 -22 -81.5t-6 -92.5q0 -54 15 -91.5t44 -57.5t71 -20h186q48 0 85 12.5t58.5 33t21.5 44.5q0 21 -18 35.5t-56 25.5
q-49 15 -85.5 29.5t-56.5 39t-20 65.5q0 29 9 57t26 55q23 36 55.5 63t69.5 42t73 15q17 0 32 -3t28 -9q26 -12 49 -35.5t57 -77.5q32 -52 56 -83t43 -45q15 -11 31 -17.5t35 -6.5h5q5 0 5 -4v-69q0 -5 -5 -5h-5q-28 0 -54.5 8.5t-52.5 26.5t-54 46q-5 6 -18 23.5t-33 45.5
q-24 34 -43 56.5t-33 35.5q-13 12 -27 17.5t-27 5.5q-21 0 -44 -12.5t-43 -32.5t-32.5 -42.5t-12.5 -42.5q0 -14 10.5 -24.5t28 -17.5t36.5 -13q37 -10 62 -19t40 -17q30 -16 45.5 -37.5t15.5 -48.5q0 -99 -64.5 -148.5t-192.5 -49.5h-205z" />
    <glyph glyph-name="uniFC44" unicode="&#xfc44;" horiz-adv-x="1280" arabic-form="isolated" 
d="M959 0q-5 0 -5 5v69q0 4 5 4h132v682h89v-760h-221zM266 -240q-62 0 -107.5 29.5t-69.5 83.5t-24 128q0 52 8.5 94t26.5 86h83q-16 -42 -22 -81.5t-6 -92.5q0 -54 15 -91.5t44 -57.5t71 -20h186q48 0 85 12.5t58.5 33t21.5 44.5q0 21 -18 35.5t-56 25.5
q-49 15 -85.5 29.5t-56.5 39t-20 65.5q0 29 9 57t26 55q23 36 55.5 63t69.5 42t73 15q17 0 32 -3t28 -9q26 -12 49 -35.5t57 -77.5q32 -52 56 -83t43 -45q15 -11 31 -17.5t35 -6.5h5q5 0 5 -4v-69q0 -5 -5 -5h-5q-28 0 -54.5 8.5t-52.5 26.5t-54 46q-5 6 -18 23.5t-33 45.5
q-24 34 -43 56.5t-33 35.5q-13 12 -27 17.5t-27 5.5q-21 0 -44 -12.5t-43 -32.5t-32.5 -42.5t-12.5 -42.5q0 -14 10.5 -24.5t28 -17.5t36.5 -13q37 -10 62 -19t40 -17q30 -16 45.5 -37.5t15.5 -48.5q0 -99 -64.5 -148.5t-192.5 -49.5h-205zM303 -448q-23 0 -39.5 14
t-16.5 46t16.5 46t39.5 14q26 0 41 -15.5t15 -44.5t-15 -44.5t-41 -15.5zM476 -448q-26 0 -41 15.5t-15 44.5t15 44.5t41 15.5q27 0 41.5 -16.5t14.5 -43.5t-14.5 -43.5t-41.5 -16.5z" />
    <glyph glyph-name="uniFC45" unicode="&#xfc45;" horiz-adv-x="1188" arabic-form="isolated" 
d="M609 0q-5 0 -5 5v69q0 4 5 4h124q-19 49 -28 91.5t-9 79.5q0 44 9 84t27 75q37 31 84.5 49t98.5 18q31 0 59 -6.5t51 -20.5q47 -28 72.5 -79t25.5 -115q0 -40 -7 -73.5t-21 -62.5q-28 -57 -80.5 -87.5t-119.5 -30.5h-286zM786 266q0 -46 8 -91t30 -97h71q45 0 75.5 20.5
t46.5 60t16 96.5q0 63 -34.5 103t-83.5 40q-32 0 -62.5 -11.5t-54.5 -29.5q-8 -21 -10 -43t-2 -48zM253 -321q-64 0 -111 22.5t-72 66t-25 104.5q0 32 9.5 61.5t28.5 55.5q25 36 68.5 67t109.5 59.5t160 55.5q-5 17 -10 39.5t-10 50.5q-8 53 -27 87.5t-48.5 51.5t-70.5 17
q-36 0 -86 -14.5t-89 -35.5l-35 69q26 17 61 30t74 21t76 8q64 0 110 -23t74.5 -70t39.5 -118q8 -48 16 -81t15 -51q15 -37 39.5 -55.5t63.5 -18.5h5q5 0 5 -4v-69q0 -5 -5 -5h-5q-36 0 -66.5 10t-54.5 32.5t-44 57.5q-59 -16 -106 -32.5t-79 -32.5q-66 -33 -97 -71.5
t-31 -83.5q0 -62 34 -93t102 -31zM439 -239q-26 0 -41 15.5t-15 44.5t15 44.5t41 15.5q27 0 41.5 -16.5t14.5 -43.5t-14.5 -43.5t-41.5 -16.5z" />
    <glyph glyph-name="uniFC46" unicode="&#xfc46;" horiz-adv-x="1188" arabic-form="isolated" 
d="M609 0q-5 0 -5 5v69q0 4 5 4h124q-19 49 -28 91.5t-9 79.5q0 44 9 84t27 75q37 31 84.5 49t98.5 18q31 0 59 -6.5t51 -20.5q47 -28 72.5 -79t25.5 -115q0 -40 -7 -73.5t-21 -62.5q-28 -57 -80.5 -87.5t-119.5 -30.5h-286zM786 266q0 -46 8 -91t30 -97h71q45 0 75.5 20.5
t46.5 60t16 96.5q0 63 -34.5 103t-83.5 40q-32 0 -62.5 -11.5t-54.5 -29.5q-8 -21 -10 -43t-2 -48zM614 0q-36 0 -66.5 10t-54.5 32.5t-44 57.5q-39 -11 -73 -21.5t-62 -21.5t-50 -22q-66 -34 -97 -72t-31 -83q0 -42 16.5 -69.5t50.5 -41t86 -13.5q25 0 61.5 4t85.5 12
l11 -69q-51 -11 -102.5 -17.5t-91.5 -6.5q-64 0 -111 22.5t-72 66t-25 104.5q0 32 9.5 61.5t28.5 55.5q25 36 68.5 67t109.5 59.5t160 55.5q-5 17 -10 39.5t-10 50.5q-8 53 -27 87.5t-48.5 51.5t-70.5 17q-36 0 -86 -14.5t-89 -35.5l-35 69q38 25 96.5 42t114.5 17
q64 0 110 -23t74.5 -70t39.5 -118q8 -48 16 -81t15 -51q15 -37 39.5 -55.5t63.5 -18.5h5q5 0 5 -4v-69q0 -5 -5 -5h-5z" />
    <glyph glyph-name="uniFC47" unicode="&#xfc47;" horiz-adv-x="1188" arabic-form="isolated" 
d="M609 0q-5 0 -5 5v69q0 4 5 4h124q-19 49 -28 91.5t-9 79.5q0 44 9 84t27 75q37 31 84.5 49t98.5 18q31 0 59 -6.5t51 -20.5q47 -28 72.5 -79t25.5 -115q0 -40 -7 -73.5t-21 -62.5q-28 -57 -80.5 -87.5t-119.5 -30.5h-286zM786 266q0 -46 8 -91t30 -97h71q45 0 75.5 20.5
t46.5 60t16 96.5q0 63 -34.5 103t-83.5 40q-32 0 -62.5 -11.5t-54.5 -29.5q-8 -21 -10 -43t-2 -48zM614 0q-36 0 -66.5 10t-54.5 32.5t-44 57.5q-39 -11 -73 -21.5t-62 -21.5t-50 -22q-66 -34 -97 -72t-31 -83q0 -42 16.5 -69.5t50.5 -41t86 -13.5q25 0 61.5 4t85.5 12
l11 -69q-51 -11 -102.5 -17.5t-91.5 -6.5q-64 0 -111 22.5t-72 66t-25 104.5q0 32 9.5 61.5t28.5 55.5q25 36 68.5 67t109.5 59.5t160 55.5q-5 17 -10 39.5t-10 50.5q-8 53 -27 87.5t-48.5 51.5t-70.5 17q-36 0 -86 -14.5t-89 -35.5l-35 69q38 25 96.5 42t114.5 17
q64 0 110 -23t74.5 -70t39.5 -118q8 -48 16 -81t15 -51q15 -37 39.5 -55.5t63.5 -18.5h5q5 0 5 -4v-69q0 -5 -5 -5h-5zM240 600q-26 0 -41 15.5t-15 44.5t15 44.5t41 15.5q27 0 41.5 -16.5t14.5 -43.5t-14.5 -43.5t-41.5 -16.5z" />
    <glyph glyph-name="uniFC48" unicode="&#xfc48;" horiz-adv-x="1255" arabic-form="isolated" 
d="M676 0q-5 0 -5 5v69q0 4 5 4h124q-19 49 -28 91.5t-9 79.5q0 44 9 84t27 75q37 31 84.5 49t98.5 18q31 0 59 -6.5t51 -20.5q47 -28 72.5 -79t25.5 -115q0 -40 -7 -73.5t-21 -62.5q-28 -57 -80.5 -87.5t-119.5 -30.5h-286zM853 266q0 -46 8 -91t30 -97h71q45 0 75.5 20.5
t46.5 60t16 96.5q0 63 -34.5 103t-83.5 40q-32 0 -62.5 -11.5t-54.5 -29.5q-8 -21 -10 -43t-2 -48zM220 0q-35 0 -53 -18t-18 -55v-247h-84v262q0 42 15.5 72.5t43 47t63.5 16.5h7q-19 47 -28 90t-9 81q0 44 9 84t27 75q37 31 84.5 49t98.5 18q31 0 59 -6.5t51 -20.5
q47 -28 72.5 -79t25.5 -115q0 -32 -5 -61.5t-16 -56.5q22 -33 49 -45.5t69 -12.5h5q5 0 5 -4v-69q0 -5 -5 -5h-5q-53 0 -90.5 14.5t-72.5 50.5q-32 -33 -74 -49t-88 -16h-136zM247 266q0 -46 8 -91t30 -97h71q45 0 75.5 20.5t46.5 60t16 96.5q0 63 -34.5 103t-83.5 40
q-31 0 -60.5 -10.5t-56.5 -30.5q-9 -21 -10.5 -43t-1.5 -48z" />
    <glyph glyph-name="uniFC49" unicode="&#xfc49;" horiz-adv-x="1538" arabic-form="isolated" 
d="M959 0q-5 0 -5 5v69q0 4 5 4h124q-19 49 -28 91.5t-9 79.5q0 44 9 84t27 75q37 31 84.5 49t98.5 18q31 0 59 -6.5t51 -20.5q47 -28 72.5 -79t25.5 -115q0 -40 -7 -73.5t-21 -62.5q-28 -57 -80.5 -87.5t-119.5 -30.5h-286zM1136 266q0 -46 8 -91t30 -97h71q45 0 75.5 20.5
t46.5 60t16 96.5q0 63 -34.5 103t-83.5 40q-32 0 -62.5 -11.5t-54.5 -29.5q-8 -21 -10 -43t-2 -48zM266 -240q-62 0 -107.5 29.5t-69.5 83.5t-24 128q0 52 8.5 94t26.5 86h83q-16 -42 -22 -81.5t-6 -92.5q0 -54 15 -91.5t44 -57.5t71 -20h186q48 0 85 12.5t58.5 33
t21.5 44.5q0 21 -18 35.5t-56 25.5q-49 15 -85.5 29.5t-56.5 39t-20 65.5q0 29 9 57t26 55q23 36 55.5 63t69.5 42t73 15q17 0 32 -3t28 -9q26 -12 49 -35.5t57 -77.5q32 -52 56 -83t43 -45q15 -11 31 -17.5t35 -6.5h5q5 0 5 -4v-69q0 -5 -5 -5h-5q-28 0 -54.5 8.5
t-52.5 26.5t-54 46q-5 6 -18 23.5t-33 45.5q-24 34 -43 56.5t-33 35.5q-13 12 -27 17.5t-27 5.5q-21 0 -44 -12.5t-43 -32.5t-32.5 -42.5t-12.5 -42.5q0 -14 10.5 -24.5t28 -17.5t36.5 -13q37 -10 62 -19t40 -17q30 -16 45.5 -37.5t15.5 -48.5q0 -99 -64.5 -148.5
t-192.5 -49.5h-205z" />
    <glyph glyph-name="uniFC4A" unicode="&#xfc4a;" horiz-adv-x="1538" arabic-form="isolated" 
d="M959 0q-5 0 -5 5v69q0 4 5 4h124q-19 49 -28 91.5t-9 79.5q0 44 9 84t27 75q37 31 84.5 49t98.5 18q31 0 59 -6.5t51 -20.5q47 -28 72.5 -79t25.5 -115q0 -40 -7 -73.5t-21 -62.5q-28 -57 -80.5 -87.5t-119.5 -30.5h-286zM1136 266q0 -46 8 -91t30 -97h71q45 0 75.5 20.5
t46.5 60t16 96.5q0 63 -34.5 103t-83.5 40q-32 0 -62.5 -11.5t-54.5 -29.5q-8 -21 -10 -43t-2 -48zM266 -240q-62 0 -107.5 29.5t-69.5 83.5t-24 128q0 52 8.5 94t26.5 86h83q-16 -42 -22 -81.5t-6 -92.5q0 -54 15 -91.5t44 -57.5t71 -20h186q48 0 85 12.5t58.5 33
t21.5 44.5q0 21 -18 35.5t-56 25.5q-49 15 -85.5 29.5t-56.5 39t-20 65.5q0 29 9 57t26 55q23 36 55.5 63t69.5 42t73 15q17 0 32 -3t28 -9q26 -12 49 -35.5t57 -77.5q32 -52 56 -83t43 -45q15 -11 31 -17.5t35 -6.5h5q5 0 5 -4v-69q0 -5 -5 -5h-5q-28 0 -54.5 8.5
t-52.5 26.5t-54 46q-5 6 -18 23.5t-33 45.5q-24 34 -43 56.5t-33 35.5q-13 12 -27 17.5t-27 5.5q-21 0 -44 -12.5t-43 -32.5t-32.5 -42.5t-12.5 -42.5q0 -14 10.5 -24.5t28 -17.5t36.5 -13q37 -10 62 -19t40 -17q30 -16 45.5 -37.5t15.5 -48.5q0 -99 -64.5 -148.5
t-192.5 -49.5h-205zM303 -448q-23 0 -39.5 14t-16.5 46t16.5 46t39.5 14q26 0 41 -15.5t15 -44.5t-15 -44.5t-41 -15.5zM476 -448q-26 0 -41 15.5t-15 44.5t15 44.5t41 15.5q27 0 41.5 -16.5t14.5 -43.5t-14.5 -43.5t-41.5 -16.5z" />
    <glyph glyph-name="uniFC4B" unicode="&#xfc4b;" horiz-adv-x="915" arabic-form="isolated" 
d="M609 0q-5 0 -5 5v69q0 4 5 4h132v407h89v-485h-221zM765 571q-26 0 -41 15.5t-15 44.5t15 44.5t41 15.5q27 0 41.5 -16.5t14.5 -43.5t-14.5 -43.5t-41.5 -16.5zM253 -321q-64 0 -111 22.5t-72 66t-25 104.5q0 32 9.5 61.5t28.5 55.5q25 36 68.5 67t109.5 59.5t160 55.5
q-5 17 -10 39.5t-10 50.5q-8 53 -27 87.5t-48.5 51.5t-70.5 17q-36 0 -86 -14.5t-89 -35.5l-35 69q26 17 61 30t74 21t76 8q64 0 110 -23t74.5 -70t39.5 -118q8 -48 16 -81t15 -51q15 -37 39.5 -55.5t63.5 -18.5h5q5 0 5 -4v-69q0 -5 -5 -5h-5q-36 0 -66.5 10t-54.5 32.5
t-44 57.5q-59 -16 -106 -32.5t-79 -32.5q-66 -33 -97 -71.5t-31 -83.5q0 -62 34 -93t102 -31zM439 -239q-26 0 -41 15.5t-15 44.5t15 44.5t41 15.5q27 0 41.5 -16.5t14.5 -43.5t-14.5 -43.5t-41.5 -16.5z" />
    <glyph glyph-name="uniFC4C" unicode="&#xfc4c;" horiz-adv-x="915" arabic-form="isolated" 
d="M609 0q-5 0 -5 5v69q0 4 5 4h132v407h89v-485h-221zM765 571q-26 0 -41 15.5t-15 44.5t15 44.5t41 15.5q27 0 41.5 -16.5t14.5 -43.5t-14.5 -43.5t-41.5 -16.5zM614 0q-36 0 -66.5 10t-54.5 32.5t-44 57.5q-39 -11 -73 -21.5t-62 -21.5t-50 -22q-66 -34 -97 -72t-31 -83
q0 -42 16.5 -69.5t50.5 -41t86 -13.5q25 0 61.5 4t85.5 12l11 -69q-51 -11 -102.5 -17.5t-91.5 -6.5q-64 0 -111 22.5t-72 66t-25 104.5q0 32 9.5 61.5t28.5 55.5q25 36 68.5 67t109.5 59.5t160 55.5q-5 17 -10 39.5t-10 50.5q-8 53 -27 87.5t-48.5 51.5t-70.5 17
q-36 0 -86 -14.5t-89 -35.5l-35 69q38 25 96.5 42t114.5 17q64 0 110 -23t74.5 -70t39.5 -118q8 -48 16 -81t15 -51q15 -37 39.5 -55.5t63.5 -18.5h5q5 0 5 -4v-69q0 -5 -5 -5h-5z" />
    <glyph glyph-name="uniFC4D" unicode="&#xfc4d;" horiz-adv-x="915" arabic-form="isolated" 
d="M609 0q-5 0 -5 5v69q0 4 5 4h132v407h89v-485h-221zM765 571q-26 0 -41 15.5t-15 44.5t15 44.5t41 15.5q27 0 41.5 -16.5t14.5 -43.5t-14.5 -43.5t-41.5 -16.5zM614 0q-36 0 -66.5 10t-54.5 32.5t-44 57.5q-39 -11 -73 -21.5t-62 -21.5t-50 -22q-66 -34 -97 -72t-31 -83
q0 -42 16.5 -69.5t50.5 -41t86 -13.5q25 0 61.5 4t85.5 12l11 -69q-51 -11 -102.5 -17.5t-91.5 -6.5q-64 0 -111 22.5t-72 66t-25 104.5q0 32 9.5 61.5t28.5 55.5q25 36 68.5 67t109.5 59.5t160 55.5q-5 17 -10 39.5t-10 50.5q-8 53 -27 87.5t-48.5 51.5t-70.5 17
q-36 0 -86 -14.5t-89 -35.5l-35 69q38 25 96.5 42t114.5 17q64 0 110 -23t74.5 -70t39.5 -118q8 -48 16 -81t15 -51q15 -37 39.5 -55.5t63.5 -18.5h5q5 0 5 -4v-69q0 -5 -5 -5h-5zM240 600q-26 0 -41 15.5t-15 44.5t15 44.5t41 15.5q27 0 41.5 -16.5t14.5 -43.5t-14.5 -43.5
t-41.5 -16.5z" />
    <glyph glyph-name="uniFC4E" unicode="&#xfc4e;" horiz-adv-x="982" arabic-form="isolated" 
d="M676 0q-5 0 -5 5v69q0 4 5 4h132v407h89v-485h-221zM832 571q-26 0 -41 15.5t-15 44.5t15 44.5t41 15.5q27 0 41.5 -16.5t14.5 -43.5t-14.5 -43.5t-41.5 -16.5zM220 0q-35 0 -53 -18t-18 -55v-247h-84v262q0 42 15.5 72.5t43 47t63.5 16.5h7q-19 47 -28 90t-9 81
q0 44 9 84t27 75q37 31 84.5 49t98.5 18q31 0 59 -6.5t51 -20.5q47 -28 72.5 -79t25.5 -115q0 -32 -5 -61.5t-16 -56.5q22 -33 49 -45.5t69 -12.5h5q5 0 5 -4v-69q0 -5 -5 -5h-5q-53 0 -90.5 14.5t-72.5 50.5q-32 -33 -74 -49t-88 -16h-136zM247 266q0 -46 8 -91t30 -97h71
q45 0 75.5 20.5t46.5 60t16 96.5q0 63 -34.5 103t-83.5 40q-31 0 -60.5 -10.5t-56.5 -30.5q-9 -21 -10.5 -43t-1.5 -48z" />
    <glyph glyph-name="uniFC4F" unicode="&#xfc4f;" horiz-adv-x="1265" arabic-form="isolated" 
d="M959 0q-5 0 -5 5v69q0 4 5 4h132v407h89v-485h-221zM1115 571q-26 0 -41 15.5t-15 44.5t15 44.5t41 15.5q27 0 41.5 -16.5t14.5 -43.5t-14.5 -43.5t-41.5 -16.5zM266 -240q-62 0 -107.5 29.5t-69.5 83.5t-24 128q0 52 8.5 94t26.5 86h83q-16 -42 -22 -81.5t-6 -92.5
q0 -54 15 -91.5t44 -57.5t71 -20h186q48 0 85 12.5t58.5 33t21.5 44.5q0 21 -18 35.5t-56 25.5q-49 15 -85.5 29.5t-56.5 39t-20 65.5q0 29 9 57t26 55q23 36 55.5 63t69.5 42t73 15q17 0 32 -3t28 -9q26 -12 49 -35.5t57 -77.5q32 -52 56 -83t43 -45q15 -11 31 -17.5
t35 -6.5h5q5 0 5 -4v-69q0 -5 -5 -5h-5q-28 0 -54.5 8.5t-52.5 26.5t-54 46q-5 6 -18 23.5t-33 45.5q-24 34 -43 56.5t-33 35.5q-13 12 -27 17.5t-27 5.5q-21 0 -44 -12.5t-43 -32.5t-32.5 -42.5t-12.5 -42.5q0 -14 10.5 -24.5t28 -17.5t36.5 -13q37 -10 62 -19t40 -17
q30 -16 45.5 -37.5t15.5 -48.5q0 -99 -64.5 -148.5t-192.5 -49.5h-205z" />
    <glyph glyph-name="uniFC50" unicode="&#xfc50;" horiz-adv-x="1265" arabic-form="isolated" 
d="M959 0q-5 0 -5 5v69q0 4 5 4h132v407h89v-485h-221zM1115 571q-26 0 -41 15.5t-15 44.5t15 44.5t41 15.5q27 0 41.5 -16.5t14.5 -43.5t-14.5 -43.5t-41.5 -16.5zM266 -240q-62 0 -107.5 29.5t-69.5 83.5t-24 128q0 52 8.5 94t26.5 86h83q-16 -42 -22 -81.5t-6 -92.5
q0 -54 15 -91.5t44 -57.5t71 -20h186q48 0 85 12.5t58.5 33t21.5 44.5q0 21 -18 35.5t-56 25.5q-49 15 -85.5 29.5t-56.5 39t-20 65.5q0 29 9 57t26 55q23 36 55.5 63t69.5 42t73 15q17 0 32 -3t28 -9q26 -12 49 -35.5t57 -77.5q32 -52 56 -83t43 -45q15 -11 31 -17.5
t35 -6.5h5q5 0 5 -4v-69q0 -5 -5 -5h-5q-28 0 -54.5 8.5t-52.5 26.5t-54 46q-5 6 -18 23.5t-33 45.5q-24 34 -43 56.5t-33 35.5q-13 12 -27 17.5t-27 5.5q-21 0 -44 -12.5t-43 -32.5t-32.5 -42.5t-12.5 -42.5q0 -14 10.5 -24.5t28 -17.5t36.5 -13q37 -10 62 -19t40 -17
q30 -16 45.5 -37.5t15.5 -48.5q0 -99 -64.5 -148.5t-192.5 -49.5h-205zM303 -448q-23 0 -39.5 14t-16.5 46t16.5 46t39.5 14q26 0 41 -15.5t15 -44.5t-15 -44.5t-41 -15.5zM476 -448q-26 0 -41 15.5t-15 44.5t15 44.5t41 15.5q27 0 41.5 -16.5t14.5 -43.5t-14.5 -43.5
t-41.5 -16.5z" />
    <glyph glyph-name="uniFC51" unicode="&#xfc51;" horiz-adv-x="1390" arabic-form="isolated" 
d="M764 78q-32 20 -51 58t-19 85q0 61 26.5 106.5t72 71.5t102.5 26q65 0 108 -24t64.5 -71.5t21.5 -119.5v-132h131v196q0 136 -61.5 200.5t-193.5 64.5q-49 0 -95 -7.5t-90 -21.5l-23 77q32 11 65.5 17.5t69 10t73.5 3.5q163 0 251.5 -88t88.5 -248v-282h-696q-5 0 -5 5
v69q0 4 5 4h155zM922 78h82v117q0 74 -28.5 108t-84.5 34q-51 0 -79.5 -31t-28.5 -88q0 -42 17.5 -73.5t49 -49t72.5 -17.5zM253 -321q-64 0 -111 22.5t-72 66t-25 104.5q0 32 9.5 61.5t28.5 55.5q25 36 68.5 67t109.5 59.5t160 55.5q-5 17 -10 39.5t-10 50.5
q-8 53 -27 87.5t-48.5 51.5t-70.5 17q-36 0 -86 -14.5t-89 -35.5l-35 69q26 17 61 30t74 21t76 8q64 0 110 -23t74.5 -70t39.5 -118q8 -48 16 -81t15 -51q15 -37 39.5 -55.5t63.5 -18.5h5q5 0 5 -4v-69q0 -5 -5 -5h-5q-36 0 -66.5 10t-54.5 32.5t-44 57.5
q-59 -16 -106 -32.5t-79 -32.5q-66 -33 -97 -71.5t-31 -83.5q0 -62 34 -93t102 -31zM439 -239q-26 0 -41 15.5t-15 44.5t15 44.5t41 15.5q27 0 41.5 -16.5t14.5 -43.5t-14.5 -43.5t-41.5 -16.5z" />
    <glyph glyph-name="uniFC52" unicode="&#xfc52;" horiz-adv-x="1457" arabic-form="isolated" 
d="M831 78q-32 20 -51 58t-19 85q0 61 26.5 106.5t72 71.5t102.5 26q65 0 108 -24t64.5 -71.5t21.5 -119.5v-132h131v196q0 136 -61.5 200.5t-193.5 64.5q-49 0 -95 -7.5t-90 -21.5l-23 77q32 11 65.5 17.5t69 10t73.5 3.5q163 0 251.5 -88t88.5 -248v-282h-696q-5 0 -5 5
v69q0 4 5 4h155zM989 78h82v117q0 74 -28.5 108t-84.5 34q-51 0 -79.5 -31t-28.5 -88q0 -42 17.5 -73.5t49 -49t72.5 -17.5zM220 0q-35 0 -53 -18t-18 -55v-247h-84v262q0 42 15.5 72.5t43 47t63.5 16.5h7q-19 47 -28 90t-9 81q0 44 9 84t27 75q37 31 84.5 49t98.5 18
q31 0 59 -6.5t51 -20.5q47 -28 72.5 -79t25.5 -115q0 -32 -5 -61.5t-16 -56.5q22 -33 49 -45.5t69 -12.5h5q5 0 5 -4v-69q0 -5 -5 -5h-5q-53 0 -90.5 14.5t-72.5 50.5q-32 -33 -74 -49t-88 -16h-136zM247 266q0 -46 8 -91t30 -97h71q45 0 75.5 20.5t46.5 60t16 96.5
q0 63 -34.5 103t-83.5 40q-31 0 -60.5 -10.5t-56.5 -30.5q-9 -21 -10.5 -43t-1.5 -48z" />
    <glyph glyph-name="uniFC53" unicode="&#xfc53;" horiz-adv-x="1740" arabic-form="isolated" 
d="M1114 78q-32 20 -51 58t-19 85q0 61 26.5 106.5t72 71.5t102.5 26q65 0 108 -24t64.5 -71.5t21.5 -119.5v-132h131v196q0 136 -61.5 200.5t-193.5 64.5q-49 0 -95 -7.5t-90 -21.5l-23 77q32 11 65.5 17.5t69 10t73.5 3.5q163 0 251.5 -88t88.5 -248v-282h-696q-5 0 -5 5
v69q0 4 5 4h155zM1272 78h82v117q0 74 -28.5 108t-84.5 34q-51 0 -79.5 -31t-28.5 -88q0 -42 17.5 -73.5t49 -49t72.5 -17.5zM266 -240q-62 0 -107.5 29.5t-69.5 83.5t-24 128q0 52 8.5 94t26.5 86h83q-16 -42 -22 -81.5t-6 -92.5q0 -54 15 -91.5t44 -57.5t71 -20h186
q48 0 85 12.5t58.5 33t21.5 44.5q0 21 -18 35.5t-56 25.5q-49 15 -85.5 29.5t-56.5 39t-20 65.5q0 29 9 57t26 55q23 36 55.5 63t69.5 42t73 15q17 0 32 -3t28 -9q26 -12 49 -35.5t57 -77.5q32 -52 56 -83t43 -45q15 -11 31 -17.5t35 -6.5h5q5 0 5 -4v-69q0 -5 -5 -5h-5
q-28 0 -54.5 8.5t-52.5 26.5t-54 46q-5 6 -18 23.5t-33 45.5q-24 34 -43 56.5t-33 35.5q-13 12 -27 17.5t-27 5.5q-21 0 -44 -12.5t-43 -32.5t-32.5 -42.5t-12.5 -42.5q0 -14 10.5 -24.5t28 -17.5t36.5 -13q37 -10 62 -19t40 -17q30 -16 45.5 -37.5t15.5 -48.5
q0 -99 -64.5 -148.5t-192.5 -49.5h-205z" />
    <glyph glyph-name="uniFC54" unicode="&#xfc54;" horiz-adv-x="1740" arabic-form="isolated" 
d="M1114 78q-32 20 -51 58t-19 85q0 61 26.5 106.5t72 71.5t102.5 26q65 0 108 -24t64.5 -71.5t21.5 -119.5v-132h131v196q0 136 -61.5 200.5t-193.5 64.5q-49 0 -95 -7.5t-90 -21.5l-23 77q32 11 65.5 17.5t69 10t73.5 3.5q163 0 251.5 -88t88.5 -248v-282h-696q-5 0 -5 5
v69q0 4 5 4h155zM1272 78h82v117q0 74 -28.5 108t-84.5 34q-51 0 -79.5 -31t-28.5 -88q0 -42 17.5 -73.5t49 -49t72.5 -17.5zM266 -240q-62 0 -107.5 29.5t-69.5 83.5t-24 128q0 52 8.5 94t26.5 86h83q-16 -42 -22 -81.5t-6 -92.5q0 -54 15 -91.5t44 -57.5t71 -20h186
q48 0 85 12.5t58.5 33t21.5 44.5q0 21 -18 35.5t-56 25.5q-49 15 -85.5 29.5t-56.5 39t-20 65.5q0 29 9 57t26 55q23 36 55.5 63t69.5 42t73 15q17 0 32 -3t28 -9q26 -12 49 -35.5t57 -77.5q32 -52 56 -83t43 -45q15 -11 31 -17.5t35 -6.5h5q5 0 5 -4v-69q0 -5 -5 -5h-5
q-28 0 -54.5 8.5t-52.5 26.5t-54 46q-5 6 -18 23.5t-33 45.5q-24 34 -43 56.5t-33 35.5q-13 12 -27 17.5t-27 5.5q-21 0 -44 -12.5t-43 -32.5t-32.5 -42.5t-12.5 -42.5q0 -14 10.5 -24.5t28 -17.5t36.5 -13q37 -10 62 -19t40 -17q30 -16 45.5 -37.5t15.5 -48.5
q0 -99 -64.5 -148.5t-192.5 -49.5h-205zM303 -448q-23 0 -39.5 14t-16.5 46t16.5 46t39.5 14q26 0 41 -15.5t15 -44.5t-15 -44.5t-41 -15.5zM476 -448q-26 0 -41 15.5t-15 44.5t15 44.5t41 15.5q27 0 41.5 -16.5t14.5 -43.5t-14.5 -43.5t-41.5 -16.5z" />
    <glyph glyph-name="uniFC55" unicode="&#xfc55;" horiz-adv-x="988" arabic-form="isolated" 
d="M609 0q-5 0 -5 5v69q0 4 5 4h192v407h89v-485h-281zM713 -204q-23 0 -39.5 14t-16.5 46t16.5 46t39.5 14q26 0 41 -15.5t15 -44.5t-15 -44.5t-41 -15.5zM886 -204q-26 0 -41 15.5t-15 44.5t15 44.5t41 15.5q27 0 41.5 -16.5t14.5 -43.5t-14.5 -43.5t-41.5 -16.5z
M253 -321q-64 0 -111 22.5t-72 66t-25 104.5q0 32 9.5 61.5t28.5 55.5q25 36 68.5 67t109.5 59.5t160 55.5q-5 17 -10 39.5t-10 50.5q-8 53 -27 87.5t-48.5 51.5t-70.5 17q-36 0 -86 -14.5t-89 -35.5l-35 69q26 17 61 30t74 21t76 8q64 0 110 -23t74.5 -70t39.5 -118
q8 -48 16 -81t15 -51q15 -37 39.5 -55.5t63.5 -18.5h5q5 0 5 -4v-69q0 -5 -5 -5h-5q-36 0 -66.5 10t-54.5 32.5t-44 57.5q-59 -16 -106 -32.5t-79 -32.5q-66 -33 -97 -71.5t-31 -83.5q0 -62 34 -93t102 -31zM439 -239q-26 0 -41 15.5t-15 44.5t15 44.5t41 15.5
q27 0 41.5 -16.5t14.5 -43.5t-14.5 -43.5t-41.5 -16.5z" />
    <glyph glyph-name="uniFC56" unicode="&#xfc56;" horiz-adv-x="988" arabic-form="isolated" 
d="M609 0q-5 0 -5 5v69q0 4 5 4h192v407h89v-485h-281zM713 -204q-23 0 -39.5 14t-16.5 46t16.5 46t39.5 14q26 0 41 -15.5t15 -44.5t-15 -44.5t-41 -15.5zM886 -204q-26 0 -41 15.5t-15 44.5t15 44.5t41 15.5q27 0 41.5 -16.5t14.5 -43.5t-14.5 -43.5t-41.5 -16.5zM614 0
q-36 0 -66.5 10t-54.5 32.5t-44 57.5q-39 -11 -73 -21.5t-62 -21.5t-50 -22q-66 -34 -97 -72t-31 -83q0 -42 16.5 -69.5t50.5 -41t86 -13.5q25 0 61.5 4t85.5 12l11 -69q-51 -11 -102.5 -17.5t-91.5 -6.5q-64 0 -111 22.5t-72 66t-25 104.5q0 32 9.5 61.5t28.5 55.5
q25 36 68.5 67t109.5 59.5t160 55.5q-5 17 -10 39.5t-10 50.5q-8 53 -27 87.5t-48.5 51.5t-70.5 17q-36 0 -86 -14.5t-89 -35.5l-35 69q38 25 96.5 42t114.5 17q64 0 110 -23t74.5 -70t39.5 -118q8 -48 16 -81t15 -51q15 -37 39.5 -55.5t63.5 -18.5h5q5 0 5 -4v-69
q0 -5 -5 -5h-5z" />
    <glyph glyph-name="uniFC57" unicode="&#xfc57;" horiz-adv-x="988" arabic-form="isolated" 
d="M609 0q-5 0 -5 5v69q0 4 5 4h192v407h89v-485h-281zM713 -204q-23 0 -39.5 14t-16.5 46t16.5 46t39.5 14q26 0 41 -15.5t15 -44.5t-15 -44.5t-41 -15.5zM886 -204q-26 0 -41 15.5t-15 44.5t15 44.5t41 15.5q27 0 41.5 -16.5t14.5 -43.5t-14.5 -43.5t-41.5 -16.5zM614 0
q-36 0 -66.5 10t-54.5 32.5t-44 57.5q-39 -11 -73 -21.5t-62 -21.5t-50 -22q-66 -34 -97 -72t-31 -83q0 -42 16.5 -69.5t50.5 -41t86 -13.5q25 0 61.5 4t85.5 12l11 -69q-51 -11 -102.5 -17.5t-91.5 -6.5q-64 0 -111 22.5t-72 66t-25 104.5q0 32 9.5 61.5t28.5 55.5
q25 36 68.5 67t109.5 59.5t160 55.5q-5 17 -10 39.5t-10 50.5q-8 53 -27 87.5t-48.5 51.5t-70.5 17q-36 0 -86 -14.5t-89 -35.5l-35 69q38 25 96.5 42t114.5 17q64 0 110 -23t74.5 -70t39.5 -118q8 -48 16 -81t15 -51q15 -37 39.5 -55.5t63.5 -18.5h5q5 0 5 -4v-69
q0 -5 -5 -5h-5zM240 600q-26 0 -41 15.5t-15 44.5t15 44.5t41 15.5q27 0 41.5 -16.5t14.5 -43.5t-14.5 -43.5t-41.5 -16.5z" />
    <glyph glyph-name="uniFC58" unicode="&#xfc58;" horiz-adv-x="1055" arabic-form="isolated" 
d="M676 0q-5 0 -5 5v69q0 4 5 4h192v407h89v-485h-281zM780 -204q-23 0 -39.5 14t-16.5 46t16.5 46t39.5 14q26 0 41 -15.5t15 -44.5t-15 -44.5t-41 -15.5zM953 -204q-26 0 -41 15.5t-15 44.5t15 44.5t41 15.5q27 0 41.5 -16.5t14.5 -43.5t-14.5 -43.5t-41.5 -16.5zM220 0
q-35 0 -53 -18t-18 -55v-247h-84v262q0 42 15.5 72.5t43 47t63.5 16.5h7q-19 47 -28 90t-9 81q0 44 9 84t27 75q37 31 84.5 49t98.5 18q31 0 59 -6.5t51 -20.5q47 -28 72.5 -79t25.5 -115q0 -32 -5 -61.5t-16 -56.5q22 -33 49 -45.5t69 -12.5h5q5 0 5 -4v-69q0 -5 -5 -5h-5
q-53 0 -90.5 14.5t-72.5 50.5q-32 -33 -74 -49t-88 -16h-136zM247 266q0 -46 8 -91t30 -97h71q45 0 75.5 20.5t46.5 60t16 96.5q0 63 -34.5 103t-83.5 40q-31 0 -60.5 -10.5t-56.5 -30.5q-9 -21 -10.5 -43t-1.5 -48z" />
    <glyph glyph-name="uniFC59" unicode="&#xfc59;" horiz-adv-x="1338" arabic-form="isolated" 
d="M959 0q-5 0 -5 5v69q0 4 5 4h192v407h89v-485h-281zM1063 -204q-23 0 -39.5 14t-16.5 46t16.5 46t39.5 14q26 0 41 -15.5t15 -44.5t-15 -44.5t-41 -15.5zM1236 -204q-26 0 -41 15.5t-15 44.5t15 44.5t41 15.5q27 0 41.5 -16.5t14.5 -43.5t-14.5 -43.5t-41.5 -16.5z
M266 -240q-62 0 -107.5 29.5t-69.5 83.5t-24 128q0 52 8.5 94t26.5 86h83q-16 -42 -22 -81.5t-6 -92.5q0 -54 15 -91.5t44 -57.5t71 -20h186q48 0 85 12.5t58.5 33t21.5 44.5q0 21 -18 35.5t-56 25.5q-49 15 -85.5 29.5t-56.5 39t-20 65.5q0 29 9 57t26 55q23 36 55.5 63
t69.5 42t73 15q17 0 32 -3t28 -9q26 -12 49 -35.5t57 -77.5q32 -52 56 -83t43 -45q15 -11 31 -17.5t35 -6.5h5q5 0 5 -4v-69q0 -5 -5 -5h-5q-28 0 -54.5 8.5t-52.5 26.5t-54 46q-5 6 -18 23.5t-33 45.5q-24 34 -43 56.5t-33 35.5q-13 12 -27 17.5t-27 5.5q-21 0 -44 -12.5
t-43 -32.5t-32.5 -42.5t-12.5 -42.5q0 -14 10.5 -24.5t28 -17.5t36.5 -13q37 -10 62 -19t40 -17q30 -16 45.5 -37.5t15.5 -48.5q0 -99 -64.5 -148.5t-192.5 -49.5h-205z" />
    <glyph glyph-name="uniFC5A" unicode="&#xfc5a;" horiz-adv-x="1338" arabic-form="isolated" 
d="M959 0q-5 0 -5 5v69q0 4 5 4h192v407h89v-485h-281zM1063 -204q-23 0 -39.5 14t-16.5 46t16.5 46t39.5 14q26 0 41 -15.5t15 -44.5t-15 -44.5t-41 -15.5zM1236 -204q-26 0 -41 15.5t-15 44.5t15 44.5t41 15.5q27 0 41.5 -16.5t14.5 -43.5t-14.5 -43.5t-41.5 -16.5z
M266 -240q-62 0 -107.5 29.5t-69.5 83.5t-24 128q0 52 8.5 94t26.5 86h83q-16 -42 -22 -81.5t-6 -92.5q0 -54 15 -91.5t44 -57.5t71 -20h186q48 0 85 12.5t58.5 33t21.5 44.5q0 21 -18 35.5t-56 25.5q-49 15 -85.5 29.5t-56.5 39t-20 65.5q0 29 9 57t26 55q23 36 55.5 63
t69.5 42t73 15q17 0 32 -3t28 -9q26 -12 49 -35.5t57 -77.5q32 -52 56 -83t43 -45q15 -11 31 -17.5t35 -6.5h5q5 0 5 -4v-69q0 -5 -5 -5h-5q-28 0 -54.5 8.5t-52.5 26.5t-54 46q-5 6 -18 23.5t-33 45.5q-24 34 -43 56.5t-33 35.5q-13 12 -27 17.5t-27 5.5q-21 0 -44 -12.5
t-43 -32.5t-32.5 -42.5t-12.5 -42.5q0 -14 10.5 -24.5t28 -17.5t36.5 -13q37 -10 62 -19t40 -17q30 -16 45.5 -37.5t15.5 -48.5q0 -99 -64.5 -148.5t-192.5 -49.5h-205zM303 -448q-23 0 -39.5 14t-16.5 46t16.5 46t39.5 14q26 0 41 -15.5t15 -44.5t-15 -44.5t-41 -15.5z
M476 -448q-26 0 -41 15.5t-15 44.5t15 44.5t41 15.5q27 0 41.5 -16.5t14.5 -43.5t-14.5 -43.5t-41.5 -16.5z" />
    <glyph glyph-name="uniFC5B" unicode="&#xfc5b;" horiz-adv-x="509" arabic-form="isolated" 
d="M45 78h333q-5 38 -13.5 72t-19.5 65q-28 80 -76.5 143t-122.5 112l32 76q77 -40 134.5 -106t96 -157t55.5 -207v-76h-419v78zM174 630q-26 0 -41 15.5t-15 44.5t15 44.5t41 15.5q27 0 41.5 -16.5t14.5 -43.5t-14.5 -43.5t-41.5 -16.5zM143 1005h57v-194h-57v194z" />
    <glyph glyph-name="uniFC5C" unicode="&#xfc5c;" horiz-adv-x="325" arabic-form="isolated" 
d="M62 -240q-24 0 -49.5 7t-52.5 21l26 67q24 -11 40 -14t34 -3q45 0 70.5 36.5t25.5 96.5v514h84v-509q0 -67 -20.5 -115.5t-60 -74.5t-97.5 -26zM162 774h57v-194h-57v194z" />
    <glyph glyph-name="uniFC5D" unicode="&#xfc5d;" horiz-adv-x="839" arabic-form="isolated" 
d="M266 -240q-62 0 -107.5 29.5t-69.5 83.5t-24 128q0 52 8.5 94t26.5 86h83q-16 -42 -22 -81.5t-6 -92.5q0 -54 15 -91.5t44 -57.5t71 -20h196q52 0 89 13t57 36t20 53q0 23 -18 44t-45.5 39.5t-56.5 35.5q-30 18 -51 32.5t-33 24.5q-16 14 -27 28t-16.5 30t-5.5 33
q0 30 11 61.5t33 64.5q30 44 69.5 78.5t83 54t84.5 19.5q23 0 48 -6.5t47 -15.5t34 -18l-36 -67q-8 4 -24 8t-32 6.5t-28 2.5q-21 0 -43 -7.5t-41 -19.5q-30 -19 -54 -43.5t-38.5 -50.5t-14.5 -50q0 -11 8.5 -24t25 -26.5t41.5 -28.5q37 -22 63 -41t42 -33q32 -29 48.5 -63
t16.5 -70q0 -84 -67 -131t-190 -47h-215zM196 526h57v-194h-57v194z" />
    <glyph glyph-name="uniFC5E" unicode="&#xfc5e;" horiz-adv-x="319" arabic-form="isolated" 
d="M82 806q-40 0 -61 24.5t-21 72.5v63h52v-54q0 -30 9 -42.5t31 -12.5t33 11.5t11 34.5v88h47v-68q0 -27 9 -36.5t29 -9.5q27 0 36.5 13t9.5 42v74h52v-83q0 -47 -21.5 -72t-64.5 -25q-23 0 -41 7.5t-29 22.5q-12 -25 -32 -37.5t-49 -12.5zM165 1043q-36 0 -59 11t-52 36
l-41 -33l-32 38l78 71q26 -35 53 -54t49 -19q10 0 17 1.5t11 3.5q-14 18 -23.5 41.5t-9.5 45.5q0 38 25 60.5t65 22.5q39 0 62.5 -22t23.5 -57q0 -42 -23 -74q-16 -22 -38.5 -38.5t-49 -25t-56.5 -8.5zM235 1114q23 13 34 30.5t11 40.5q0 15 -10 25t-26 10q-15 0 -26 -10
t-11 -30q0 -14 7 -30.5t21 -35.5z" />
    <glyph glyph-name="uniFC5F" unicode="&#xfc5f;" arabic-form="isolated" 
d="M82 846q-40 0 -61 24.5t-21 72.5v63h52v-54q0 -30 9 -42.5t31 -12.5t33 11.5t11 34.5v88h47v-68q0 -27 9 -36.5t29 -9.5q27 0 36.5 13t9.5 42v74h52v-83q0 -47 -21.5 -72t-64.5 -25q-23 0 -41 7.5t-29 22.5q-12 -25 -32 -37.5t-49 -12.5zM46 618l234 87v-54l-234 -88v55z
M46 731l234 87v-54l-234 -88v55z" />
    <glyph glyph-name="uniFC60" unicode="&#xfc60;" arabic-form="isolated" 
d="M82 806q-40 0 -61 24.5t-21 72.5v63h52v-54q0 -30 9 -42.5t31 -12.5t33 11.5t11 34.5v88h47v-68q0 -27 9 -36.5t29 -9.5q27 0 36.5 13t9.5 42v74h52v-83q0 -47 -21.5 -72t-64.5 -25q-23 0 -41 7.5t-29 22.5q-12 -25 -32 -37.5t-49 -12.5zM43 1070l234 87v-54l-234 -88v55
z" />
    <glyph glyph-name="uniFC61" unicode="&#xfc61;" arabic-form="isolated" 
d="M82 806q-40 0 -61 24.5t-21 72.5v63h52v-54q0 -30 9 -42.5t31 -12.5t33 11.5t11 34.5v88h47v-68q0 -27 9 -36.5t29 -9.5q27 0 36.5 13t9.5 42v74h52v-83q0 -47 -21.5 -72t-64.5 -25q-23 0 -41 7.5t-29 22.5q-12 -25 -32 -37.5t-49 -12.5zM115 1042q-28 0 -53.5 8.5
t-48.5 24.5l29 42q19 -13 36.5 -19t34.5 -6q14 0 27 1.5t23 5.5q-32 41 -32 85q0 38 25 60.5t65 22.5t63 -23t23 -56q0 -18 -6 -35.5t-20 -34.5q-28 -34 -72.5 -55t-93.5 -21zM207 1116q26 14 37 32.5t11 35.5q0 15 -10 25t-26 10q-15 0 -26 -10t-11 -30q0 -16 6 -31.5
t19 -31.5z" />
    <glyph glyph-name="uniFC62" unicode="&#xfc62;" arabic-form="isolated" 
d="M82 818q-40 0 -61 24.5t-21 72.5v63h52v-54q0 -30 9 -42.5t31 -12.5t33 11.5t11 34.5v88h47v-68q0 -27 9 -36.5t29 -9.5q27 0 36.5 13t9.5 42v74h52v-83q0 -47 -21.5 -72t-64.5 -25q-23 0 -41 7.5t-29 22.5q-12 -25 -32 -37.5t-49 -12.5zM35 706l234 87v-54l-234 -88v55z
" />
    <glyph glyph-name="uniFC63" unicode="&#xfc63;" arabic-form="isolated" 
d="M82 806q-40 0 -61 24.5t-21 72.5v63h52v-54q0 -30 9 -42.5t31 -12.5t33 11.5t11 34.5v88h47v-68q0 -27 9 -36.5t29 -9.5q27 0 36.5 13t9.5 42v74h52v-83q0 -47 -21.5 -72t-64.5 -25q-23 0 -41 7.5t-29 22.5q-12 -25 -32 -37.5t-49 -12.5zM131 1224h57v-194h-57v194z" />
    <glyph glyph-name="uniFC64" unicode="&#xfc64;" horiz-adv-x="700" arabic-form="final" 
d="M354 0q-5 0 -5 5v69q0 4 5 4h132v407h89v-407h130q5 0 5 -4v-69q0 -5 -5 -5h-351zM396 605l47 7q-17 11 -26 27t-9 36q0 43 28 66.5t74 23.5q39 0 66 -15l-15 -45q-10 6 -22.5 9t-27.5 3q-22 0 -37 -12.5t-15 -38.5q0 -17 8.5 -29t21.5 -18q20 4 40 6.5t36.5 4.5t23.5 2
v-49q-19 -1 -41 -3.5t-47 -5.5t-51.5 -7t-53.5 -8v46zM240 0v-24q0 -67 -20.5 -115.5t-60 -74.5t-97.5 -26q-24 0 -49.5 7t-52.5 21l26 67q24 -11 40 -14t34 -3q45 0 70.5 36.5t25.5 96.5v514h84v-407h124q5 0 5 -4v-69q0 -5 -5 -5h-124z" />
    <glyph glyph-name="uniFC65" unicode="&#xfc65;" horiz-adv-x="700" arabic-form="final" 
d="M354 0q-5 0 -5 5v69q0 4 5 4h132v407h89v-407h130q5 0 5 -4v-69q0 -5 -5 -5h-351zM396 605l47 7q-17 11 -26 27t-9 36q0 43 28 66.5t74 23.5q39 0 66 -15l-15 -45q-10 6 -22.5 9t-27.5 3q-22 0 -37 -12.5t-15 -38.5q0 -17 8.5 -29t21.5 -18q20 4 40 6.5t36.5 4.5t23.5 2
v-49q-19 -1 -41 -3.5t-47 -5.5t-51.5 -7t-53.5 -8v46zM240 0v-24q0 -67 -20.5 -115.5t-60 -74.5t-97.5 -26q-24 0 -49.5 7t-52.5 21l26 67q24 -11 40 -14t34 -3q45 0 70.5 36.5t25.5 96.5v514h84v-407h124q5 0 5 -4v-69q0 -5 -5 -5h-124zM193 582q-26 0 -41 15.5t-15 44.5
t15 44.5t41 15.5q27 0 41.5 -16.5t14.5 -43.5t-14.5 -43.5t-41.5 -16.5z" />
    <glyph glyph-name="uniFC66" unicode="&#xfc66;" horiz-adv-x="1022" arabic-form="final" 
d="M676 0q-5 0 -5 5v69q0 4 5 4h132v407h89v-407h130q5 0 5 -4v-69q0 -5 -5 -5h-351zM718 605l47 7q-17 11 -26 27t-9 36q0 43 28 66.5t74 23.5q39 0 66 -15l-15 -45q-10 6 -22.5 9t-27.5 3q-22 0 -37 -12.5t-15 -38.5q0 -17 8.5 -29t21.5 -18q20 4 40 6.5t36.5 4.5t23.5 2
v-49q-19 -1 -41 -3.5t-47 -5.5t-51.5 -7t-53.5 -8v46zM220 0q-35 0 -53 -18t-18 -55v-247h-84v262q0 42 15.5 72.5t43 47t63.5 16.5h7q-19 47 -28 90t-9 81q0 44 9 84t27 75q37 31 84.5 49t98.5 18q31 0 59 -6.5t51 -20.5q47 -28 72.5 -79t25.5 -115q0 -32 -5 -61.5
t-16 -56.5q22 -33 49 -45.5t69 -12.5h5q5 0 5 -4v-69q0 -5 -5 -5h-5q-53 0 -90.5 14.5t-72.5 50.5q-32 -33 -74 -49t-88 -16h-136zM247 266q0 -46 8 -91t30 -97h71q45 0 75.5 20.5t46.5 60t16 96.5q0 63 -34.5 103t-83.5 40q-31 0 -60.5 -10.5t-56.5 -30.5q-9 -21 -10.5 -43
t-1.5 -48z" />
    <glyph glyph-name="uniFC67" unicode="&#xfc67;" horiz-adv-x="1033" arabic-form="final" 
d="M687 0q-5 0 -5 5v69q0 4 5 4h132v407h89v-407h130q5 0 5 -4v-69q0 -5 -5 -5h-351zM729 605l47 7q-17 11 -26 27t-9 36q0 43 28 66.5t74 23.5q39 0 66 -15l-15 -45q-10 6 -22.5 9t-27.5 3q-22 0 -37 -12.5t-15 -38.5q0 -17 8.5 -29t21.5 -18q20 4 40 6.5t36.5 4.5t23.5 2
v-49q-19 -1 -41 -3.5t-47 -5.5t-51.5 -7t-53.5 -8v46zM587 0q0 -119 -61 -179.5t-188 -60.5h-72q-37 0 -67.5 10.5t-54.5 29.5q-38 31 -58.5 82.5t-20.5 118.5q0 60 10.5 115.5t30.5 105.5h83q-17 -43 -25.5 -96.5t-8.5 -118.5q0 -81 33.5 -125t96.5 -44h49q58 0 95 17.5
t55 53t18 89.5v487h85v-407h110q5 0 5 -4v-69q0 -5 -5 -5h-110zM325 451q-26 0 -41 15.5t-15 44.5t15 44.5t41 15.5q27 0 41.5 -16.5t14.5 -43.5t-14.5 -43.5t-41.5 -16.5z" />
    <glyph glyph-name="uniFC68" unicode="&#xfc68;" horiz-adv-x="1305" arabic-form="final" 
d="M959 0q-5 0 -5 5v69q0 4 5 4h132v407h89v-407h130q5 0 5 -4v-69q0 -5 -5 -5h-351zM1001 605l47 7q-17 11 -26 27t-9 36q0 43 28 66.5t74 23.5q39 0 66 -15l-15 -45q-10 6 -22.5 9t-27.5 3q-22 0 -37 -12.5t-15 -38.5q0 -17 8.5 -29t21.5 -18q20 4 40 6.5t36.5 4.5t23.5 2
v-49q-19 -1 -41 -3.5t-47 -5.5t-51.5 -7t-53.5 -8v46zM266 -240q-62 0 -107.5 29.5t-69.5 83.5t-24 128q0 52 8.5 94t26.5 86h83q-16 -42 -22 -81.5t-6 -92.5q0 -54 15 -91.5t44 -57.5t71 -20h186q48 0 85 12.5t58.5 33t21.5 44.5q0 21 -18 35.5t-56 25.5q-49 15 -85.5 29.5
t-56.5 39t-20 65.5q0 29 9 57t26 55q23 36 55.5 63t69.5 42t73 15q17 0 32 -3t28 -9q26 -12 49 -35.5t57 -77.5q32 -52 56 -83t43 -45q15 -11 31 -17.5t35 -6.5h5q5 0 5 -4v-69q0 -5 -5 -5h-5q-28 0 -54.5 8.5t-52.5 26.5t-54 46q-5 6 -18 23.5t-33 45.5q-24 34 -43 56.5
t-33 35.5q-13 12 -27 17.5t-27 5.5q-21 0 -44 -12.5t-43 -32.5t-32.5 -42.5t-12.5 -42.5q0 -14 10.5 -24.5t28 -17.5t36.5 -13q37 -10 62 -19t40 -17q30 -16 45.5 -37.5t15.5 -48.5q0 -99 -64.5 -148.5t-192.5 -49.5h-205z" />
    <glyph glyph-name="uniFC69" unicode="&#xfc69;" horiz-adv-x="1305" arabic-form="final" 
d="M959 0q-5 0 -5 5v69q0 4 5 4h132v407h89v-407h130q5 0 5 -4v-69q0 -5 -5 -5h-351zM1001 605l47 7q-17 11 -26 27t-9 36q0 43 28 66.5t74 23.5q39 0 66 -15l-15 -45q-10 6 -22.5 9t-27.5 3q-22 0 -37 -12.5t-15 -38.5q0 -17 8.5 -29t21.5 -18q20 4 40 6.5t36.5 4.5t23.5 2
v-49q-19 -1 -41 -3.5t-47 -5.5t-51.5 -7t-53.5 -8v46zM266 -240q-62 0 -107.5 29.5t-69.5 83.5t-24 128q0 52 8.5 94t26.5 86h83q-16 -42 -22 -81.5t-6 -92.5q0 -54 15 -91.5t44 -57.5t71 -20h186q48 0 85 12.5t58.5 33t21.5 44.5q0 21 -18 35.5t-56 25.5q-49 15 -85.5 29.5
t-56.5 39t-20 65.5q0 29 9 57t26 55q23 36 55.5 63t69.5 42t73 15q17 0 32 -3t28 -9q26 -12 49 -35.5t57 -77.5q32 -52 56 -83t43 -45q15 -11 31 -17.5t35 -6.5h5q5 0 5 -4v-69q0 -5 -5 -5h-5q-28 0 -54.5 8.5t-52.5 26.5t-54 46q-5 6 -18 23.5t-33 45.5q-24 34 -43 56.5
t-33 35.5q-13 12 -27 17.5t-27 5.5q-21 0 -44 -12.5t-43 -32.5t-32.5 -42.5t-12.5 -42.5q0 -14 10.5 -24.5t28 -17.5t36.5 -13q37 -10 62 -19t40 -17q30 -16 45.5 -37.5t15.5 -48.5q0 -99 -64.5 -148.5t-192.5 -49.5h-205zM303 -448q-23 0 -39.5 14t-16.5 46t16.5 46
t39.5 14q26 0 41 -15.5t15 -44.5t-15 -44.5t-41 -15.5zM476 -448q-26 0 -41 15.5t-15 44.5t15 44.5t41 15.5q27 0 41.5 -16.5t14.5 -43.5t-14.5 -43.5t-41.5 -16.5z" />
    <glyph glyph-name="uniFC6A" unicode="&#xfc6a;" horiz-adv-x="700" arabic-form="final" 
d="M354 0q-5 0 -5 5v69q0 4 5 4h132v407h89v-407h130q5 0 5 -4v-69q0 -5 -5 -5h-351zM525 -219q-26 0 -41 15.5t-15 44.5t15 44.5t41 15.5q27 0 41.5 -16.5t14.5 -43.5t-14.5 -43.5t-41.5 -16.5zM240 0v-24q0 -67 -20.5 -115.5t-60 -74.5t-97.5 -26q-24 0 -49.5 7t-52.5 21
l26 67q24 -11 40 -14t34 -3q45 0 70.5 36.5t25.5 96.5v514h84v-407h124q5 0 5 -4v-69q0 -5 -5 -5h-124z" />
    <glyph glyph-name="uniFC6B" unicode="&#xfc6b;" horiz-adv-x="700" arabic-form="final" 
d="M354 0q-5 0 -5 5v69q0 4 5 4h132v407h89v-407h130q5 0 5 -4v-69q0 -5 -5 -5h-351zM525 -219q-26 0 -41 15.5t-15 44.5t15 44.5t41 15.5q27 0 41.5 -16.5t14.5 -43.5t-14.5 -43.5t-41.5 -16.5zM240 0v-24q0 -67 -20.5 -115.5t-60 -74.5t-97.5 -26q-24 0 -49.5 7t-52.5 21
l26 67q24 -11 40 -14t34 -3q45 0 70.5 36.5t25.5 96.5v514h84v-407h124q5 0 5 -4v-69q0 -5 -5 -5h-124zM193 582q-26 0 -41 15.5t-15 44.5t15 44.5t41 15.5q27 0 41.5 -16.5t14.5 -43.5t-14.5 -43.5t-41.5 -16.5z" />
    <glyph glyph-name="uniFC6C" unicode="&#xfc6c;" horiz-adv-x="1022" arabic-form="final" 
d="M676 0q-5 0 -5 5v69q0 4 5 4h132v407h89v-407h130q5 0 5 -4v-69q0 -5 -5 -5h-351zM847 -219q-26 0 -41 15.5t-15 44.5t15 44.5t41 15.5q27 0 41.5 -16.5t14.5 -43.5t-14.5 -43.5t-41.5 -16.5zM220 0q-35 0 -53 -18t-18 -55v-247h-84v262q0 42 15.5 72.5t43 47t63.5 16.5
h7q-19 47 -28 90t-9 81q0 44 9 84t27 75q37 31 84.5 49t98.5 18q31 0 59 -6.5t51 -20.5q47 -28 72.5 -79t25.5 -115q0 -32 -5 -61.5t-16 -56.5q22 -33 49 -45.5t69 -12.5h5q5 0 5 -4v-69q0 -5 -5 -5h-5q-53 0 -90.5 14.5t-72.5 50.5q-32 -33 -74 -49t-88 -16h-136zM247 266
q0 -46 8 -91t30 -97h71q45 0 75.5 20.5t46.5 60t16 96.5q0 63 -34.5 103t-83.5 40q-31 0 -60.5 -10.5t-56.5 -30.5q-9 -21 -10.5 -43t-1.5 -48z" />
    <glyph glyph-name="uniFC6D" unicode="&#xfc6d;" horiz-adv-x="1033" arabic-form="final" 
d="M687 0q-5 0 -5 5v69q0 4 5 4h132v407h89v-407h130q5 0 5 -4v-69q0 -5 -5 -5h-351zM858 -219q-26 0 -41 15.5t-15 44.5t15 44.5t41 15.5q27 0 41.5 -16.5t14.5 -43.5t-14.5 -43.5t-41.5 -16.5zM587 0q0 -119 -61 -179.5t-188 -60.5h-72q-37 0 -67.5 10.5t-54.5 29.5
q-38 31 -58.5 82.5t-20.5 118.5q0 60 10.5 115.5t30.5 105.5h83q-17 -43 -25.5 -96.5t-8.5 -118.5q0 -81 33.5 -125t96.5 -44h49q58 0 95 17.5t55 53t18 89.5v487h85v-407h110q5 0 5 -4v-69q0 -5 -5 -5h-110zM325 451q-26 0 -41 15.5t-15 44.5t15 44.5t41 15.5
q27 0 41.5 -16.5t14.5 -43.5t-14.5 -43.5t-41.5 -16.5z" />
    <glyph glyph-name="uniFC6E" unicode="&#xfc6e;" horiz-adv-x="1305" arabic-form="final" 
d="M959 0q-5 0 -5 5v69q0 4 5 4h132v407h89v-407h130q5 0 5 -4v-69q0 -5 -5 -5h-351zM1130 -219q-26 0 -41 15.5t-15 44.5t15 44.5t41 15.5q27 0 41.5 -16.5t14.5 -43.5t-14.5 -43.5t-41.5 -16.5zM266 -240q-62 0 -107.5 29.5t-69.5 83.5t-24 128q0 52 8.5 94t26.5 86h83
q-16 -42 -22 -81.5t-6 -92.5q0 -54 15 -91.5t44 -57.5t71 -20h186q48 0 85 12.5t58.5 33t21.5 44.5q0 21 -18 35.5t-56 25.5q-49 15 -85.5 29.5t-56.5 39t-20 65.5q0 29 9 57t26 55q23 36 55.5 63t69.5 42t73 15q17 0 32 -3t28 -9q26 -12 49 -35.5t57 -77.5q32 -52 56 -83
t43 -45q15 -11 31 -17.5t35 -6.5h5q5 0 5 -4v-69q0 -5 -5 -5h-5q-28 0 -54.5 8.5t-52.5 26.5t-54 46q-5 6 -18 23.5t-33 45.5q-24 34 -43 56.5t-33 35.5q-13 12 -27 17.5t-27 5.5q-21 0 -44 -12.5t-43 -32.5t-32.5 -42.5t-12.5 -42.5q0 -14 10.5 -24.5t28 -17.5t36.5 -13
q37 -10 62 -19t40 -17q30 -16 45.5 -37.5t15.5 -48.5q0 -99 -64.5 -148.5t-192.5 -49.5h-205z" />
    <glyph glyph-name="uniFC6F" unicode="&#xfc6f;" horiz-adv-x="1305" arabic-form="final" 
d="M959 0q-5 0 -5 5v69q0 4 5 4h132v407h89v-407h130q5 0 5 -4v-69q0 -5 -5 -5h-351zM1130 -219q-26 0 -41 15.5t-15 44.5t15 44.5t41 15.5q27 0 41.5 -16.5t14.5 -43.5t-14.5 -43.5t-41.5 -16.5zM266 -240q-62 0 -107.5 29.5t-69.5 83.5t-24 128q0 52 8.5 94t26.5 86h83
q-16 -42 -22 -81.5t-6 -92.5q0 -54 15 -91.5t44 -57.5t71 -20h186q48 0 85 12.5t58.5 33t21.5 44.5q0 21 -18 35.5t-56 25.5q-49 15 -85.5 29.5t-56.5 39t-20 65.5q0 29 9 57t26 55q23 36 55.5 63t69.5 42t73 15q17 0 32 -3t28 -9q26 -12 49 -35.5t57 -77.5q32 -52 56 -83
t43 -45q15 -11 31 -17.5t35 -6.5h5q5 0 5 -4v-69q0 -5 -5 -5h-5q-28 0 -54.5 8.5t-52.5 26.5t-54 46q-5 6 -18 23.5t-33 45.5q-24 34 -43 56.5t-33 35.5q-13 12 -27 17.5t-27 5.5q-21 0 -44 -12.5t-43 -32.5t-32.5 -42.5t-12.5 -42.5q0 -14 10.5 -24.5t28 -17.5t36.5 -13
q37 -10 62 -19t40 -17q30 -16 45.5 -37.5t15.5 -48.5q0 -99 -64.5 -148.5t-192.5 -49.5h-205zM303 -448q-23 0 -39.5 14t-16.5 46t16.5 46t39.5 14q26 0 41 -15.5t15 -44.5t-15 -44.5t-41 -15.5zM476 -448q-26 0 -41 15.5t-15 44.5t15 44.5t41 15.5q27 0 41.5 -16.5
t14.5 -43.5t-14.5 -43.5t-41.5 -16.5z" />
    <glyph glyph-name="uniFC70" unicode="&#xfc70;" horiz-adv-x="750" arabic-form="final" 
d="M354 0q-5 0 -5 5v69q0 4 5 4h162v407h89v-407h150q5 0 5 -4v-69q0 -5 -5 -5h-401zM445 603q-23 0 -39.5 14t-16.5 46t16.5 46t39.5 14q26 0 41 -15.5t15 -44.5t-15 -44.5t-41 -15.5zM618 603q-26 0 -41 15.5t-15 44.5t15 44.5t41 15.5q27 0 41.5 -16.5t14.5 -43.5
t-14.5 -43.5t-41.5 -16.5zM240 0v-24q0 -67 -20.5 -115.5t-60 -74.5t-97.5 -26q-24 0 -49.5 7t-52.5 21l26 67q24 -11 40 -14t34 -3q45 0 70.5 36.5t25.5 96.5v514h84v-407h124q5 0 5 -4v-69q0 -5 -5 -5h-124z" />
    <glyph glyph-name="uniFC71" unicode="&#xfc71;" horiz-adv-x="750" arabic-form="final" 
d="M354 0q-5 0 -5 5v69q0 4 5 4h162v407h89v-407h150q5 0 5 -4v-69q0 -5 -5 -5h-401zM445 603q-23 0 -39.5 14t-16.5 46t16.5 46t39.5 14q26 0 41 -15.5t15 -44.5t-15 -44.5t-41 -15.5zM618 603q-26 0 -41 15.5t-15 44.5t15 44.5t41 15.5q27 0 41.5 -16.5t14.5 -43.5
t-14.5 -43.5t-41.5 -16.5zM240 0v-24q0 -67 -20.5 -115.5t-60 -74.5t-97.5 -26q-24 0 -49.5 7t-52.5 21l26 67q24 -11 40 -14t34 -3q45 0 70.5 36.5t25.5 96.5v514h84v-407h124q5 0 5 -4v-69q0 -5 -5 -5h-124zM193 582q-26 0 -41 15.5t-15 44.5t15 44.5t41 15.5
q27 0 41.5 -16.5t14.5 -43.5t-14.5 -43.5t-41.5 -16.5z" />
    <glyph glyph-name="uniFC72" unicode="&#xfc72;" horiz-adv-x="1072" arabic-form="final" 
d="M676 0q-5 0 -5 5v69q0 4 5 4h162v407h89v-407h150q5 0 5 -4v-69q0 -5 -5 -5h-401zM767 603q-23 0 -39.5 14t-16.5 46t16.5 46t39.5 14q26 0 41 -15.5t15 -44.5t-15 -44.5t-41 -15.5zM940 603q-26 0 -41 15.5t-15 44.5t15 44.5t41 15.5q27 0 41.5 -16.5t14.5 -43.5
t-14.5 -43.5t-41.5 -16.5zM220 0q-35 0 -53 -18t-18 -55v-247h-84v262q0 42 15.5 72.5t43 47t63.5 16.5h7q-19 47 -28 90t-9 81q0 44 9 84t27 75q37 31 84.5 49t98.5 18q31 0 59 -6.5t51 -20.5q47 -28 72.5 -79t25.5 -115q0 -32 -5 -61.5t-16 -56.5q22 -33 49 -45.5
t69 -12.5h5q5 0 5 -4v-69q0 -5 -5 -5h-5q-53 0 -90.5 14.5t-72.5 50.5q-32 -33 -74 -49t-88 -16h-136zM247 266q0 -46 8 -91t30 -97h71q45 0 75.5 20.5t46.5 60t16 96.5q0 63 -34.5 103t-83.5 40q-31 0 -60.5 -10.5t-56.5 -30.5q-9 -21 -10.5 -43t-1.5 -48z" />
    <glyph glyph-name="uniFC73" unicode="&#xfc73;" horiz-adv-x="1083" arabic-form="final" 
d="M687 0q-5 0 -5 5v69q0 4 5 4h162v407h89v-407h150q5 0 5 -4v-69q0 -5 -5 -5h-401zM778 603q-23 0 -39.5 14t-16.5 46t16.5 46t39.5 14q26 0 41 -15.5t15 -44.5t-15 -44.5t-41 -15.5zM951 603q-26 0 -41 15.5t-15 44.5t15 44.5t41 15.5q27 0 41.5 -16.5t14.5 -43.5
t-14.5 -43.5t-41.5 -16.5zM587 0q0 -119 -61 -179.5t-188 -60.5h-72q-37 0 -67.5 10.5t-54.5 29.5q-38 31 -58.5 82.5t-20.5 118.5q0 60 10.5 115.5t30.5 105.5h83q-17 -43 -25.5 -96.5t-8.5 -118.5q0 -81 33.5 -125t96.5 -44h49q58 0 95 17.5t55 53t18 89.5v487h85v-407
h110q5 0 5 -4v-69q0 -5 -5 -5h-110zM325 451q-26 0 -41 15.5t-15 44.5t15 44.5t41 15.5q27 0 41.5 -16.5t14.5 -43.5t-14.5 -43.5t-41.5 -16.5z" />
    <glyph glyph-name="uniFC74" unicode="&#xfc74;" horiz-adv-x="1355" arabic-form="final" 
d="M959 0q-5 0 -5 5v69q0 4 5 4h162v407h89v-407h150q5 0 5 -4v-69q0 -5 -5 -5h-401zM1050 603q-23 0 -39.5 14t-16.5 46t16.5 46t39.5 14q26 0 41 -15.5t15 -44.5t-15 -44.5t-41 -15.5zM1223 603q-26 0 -41 15.5t-15 44.5t15 44.5t41 15.5q27 0 41.5 -16.5t14.5 -43.5
t-14.5 -43.5t-41.5 -16.5zM266 -240q-62 0 -107.5 29.5t-69.5 83.5t-24 128q0 52 8.5 94t26.5 86h83q-16 -42 -22 -81.5t-6 -92.5q0 -54 15 -91.5t44 -57.5t71 -20h186q48 0 85 12.5t58.5 33t21.5 44.5q0 21 -18 35.5t-56 25.5q-49 15 -85.5 29.5t-56.5 39t-20 65.5
q0 29 9 57t26 55q23 36 55.5 63t69.5 42t73 15q17 0 32 -3t28 -9q26 -12 49 -35.5t57 -77.5q32 -52 56 -83t43 -45q15 -11 31 -17.5t35 -6.5h5q5 0 5 -4v-69q0 -5 -5 -5h-5q-28 0 -54.5 8.5t-52.5 26.5t-54 46q-5 6 -18 23.5t-33 45.5q-24 34 -43 56.5t-33 35.5
q-13 12 -27 17.5t-27 5.5q-21 0 -44 -12.5t-43 -32.5t-32.5 -42.5t-12.5 -42.5q0 -14 10.5 -24.5t28 -17.5t36.5 -13q37 -10 62 -19t40 -17q30 -16 45.5 -37.5t15.5 -48.5q0 -99 -64.5 -148.5t-192.5 -49.5h-205z" />
    <glyph glyph-name="uniFC75" unicode="&#xfc75;" horiz-adv-x="1355" arabic-form="final" 
d="M959 0q-5 0 -5 5v69q0 4 5 4h162v407h89v-407h150q5 0 5 -4v-69q0 -5 -5 -5h-401zM1050 603q-23 0 -39.5 14t-16.5 46t16.5 46t39.5 14q26 0 41 -15.5t15 -44.5t-15 -44.5t-41 -15.5zM1223 603q-26 0 -41 15.5t-15 44.5t15 44.5t41 15.5q27 0 41.5 -16.5t14.5 -43.5
t-14.5 -43.5t-41.5 -16.5zM266 -240q-62 0 -107.5 29.5t-69.5 83.5t-24 128q0 52 8.5 94t26.5 86h83q-16 -42 -22 -81.5t-6 -92.5q0 -54 15 -91.5t44 -57.5t71 -20h186q48 0 85 12.5t58.5 33t21.5 44.5q0 21 -18 35.5t-56 25.5q-49 15 -85.5 29.5t-56.5 39t-20 65.5
q0 29 9 57t26 55q23 36 55.5 63t69.5 42t73 15q17 0 32 -3t28 -9q26 -12 49 -35.5t57 -77.5q32 -52 56 -83t43 -45q15 -11 31 -17.5t35 -6.5h5q5 0 5 -4v-69q0 -5 -5 -5h-5q-28 0 -54.5 8.5t-52.5 26.5t-54 46q-5 6 -18 23.5t-33 45.5q-24 34 -43 56.5t-33 35.5
q-13 12 -27 17.5t-27 5.5q-21 0 -44 -12.5t-43 -32.5t-32.5 -42.5t-12.5 -42.5q0 -14 10.5 -24.5t28 -17.5t36.5 -13q37 -10 62 -19t40 -17q30 -16 45.5 -37.5t15.5 -48.5q0 -99 -64.5 -148.5t-192.5 -49.5h-205zM303 -448q-23 0 -39.5 14t-16.5 46t16.5 46t39.5 14
q26 0 41 -15.5t15 -44.5t-15 -44.5t-41 -15.5zM476 -448q-26 0 -41 15.5t-15 44.5t15 44.5t41 15.5q27 0 41.5 -16.5t14.5 -43.5t-14.5 -43.5t-41.5 -16.5z" />
    </font>
</defs>
</svg>
