<?xml version="1.0" standalone="no"?>
<!DOCTYPE svg PUBLIC "-//W3C//DTD SVG 1.1//EN" "http://www.w3.org/Graphics/SVG/1.1/DTD/svg11.dtd" >
<svg xmlns="http://www.w3.org/2000/svg" xmlns:xlink="http://www.w3.org/1999/xlink" version="1.1">
<metadata>
Created by FontForge 20201107 at Mon Feb 12 18:26:37 2024
 By www-data
Copyright 2019-2022 Google LLC. All Rights Reserved.
</metadata>
<defs>
<font id="NotoKufiArabic-ExtraLight" horiz-adv-x="0" >
  <font-face 
    font-family="Noto Kufi Arabic ExtraLight"
    font-weight="250"
    font-stretch="normal"
    units-per-em="1000"
    panose-1="0 0 0 0 0 0 0 0 0 0"
    ascent="800"
    descent="-200"
    x-height="530"
    cap-height="714"
    bbox="-475 -603 8767 1506"
    underline-thickness="50"
    underline-position="-125"
    unicode-range="U+000D-10EFF"
  />
<missing-glyph horiz-adv-x="600" 
d="M50 -177v882h500v-882h-500zM106 -121h388v770h-388v-770z" />
    <glyph glyph-name="uniFDF2" unicode="&#xfe8d;&#xfedf;&#xfee0;&#x651;&#x670;&#xfeea;" horiz-adv-x="1545" arabic-form="isolated" 
d="M294 0q-72 0 -123 26.5t-78.5 76t-27.5 119.5q0 77 30.5 134.5t89 89.5t142.5 32h91v53h44v-489h262v555h46v-555h295v555h46v-597h-817zM418 42v394h-88q-105 0 -162 -56.5t-57 -155.5q0 -86 47 -134t132 -48h128zM1393 760h45v-760h-45v760zM665 649q-37 0 -58 25
t-21 72v63h33v-58q0 -33 10.5 -51t41.5 -18q26 0 41 17t15 43v92h31v-72q0 -34 14 -47t36 -13q33 0 45 17.5t12 49.5v80h33v-83q0 -47 -21 -72t-65 -25q-42 0 -66 30q-24 -50 -81 -50zM725 1052h35v-173h-35v173z" />
    <glyph glyph-name="uni0621" unicode="&#x621;" horiz-adv-x="466" arabic-form="isolated" 
d="M65 46q19 4 43 8l48 8q-28 19 -47.5 57.5t-19.5 86.5q0 49 20 89q24 45 67.5 71t101.5 26q32 0 60 -8t51 -21l-16 -39q-23 12 -47 19t-49 7q-65 0 -103.5 -40t-38.5 -107q0 -44 18.5 -79t48.5 -53l36 5q45 7 85.5 11t69.5 6.5t36 2.5v-42q-20 -1 -54 -4t-75 -8.5
t-84.5 -11t-82.5 -12t-68 -12.5v40z" />
    <glyph glyph-name="uni0622" unicode="&#x622;" horiz-adv-x="246" arabic-form="isolated" 
d="M100 700h46v-700h-46v700zM-5 800q5 35 20 55.5t49 20.5q17 0 36 -7t37 -17q14 -7 27 -12.5t23 -5.5q17 0 25.5 10.5t13.5 30.5h28q-4 -32 -19.5 -53.5t-46.5 -21.5q-16 0 -33.5 7.5t-34.5 15.5q-16 8 -30.5 13.5t-25.5 5.5q-19 0 -27.5 -10.5t-14.5 -31.5h-27z" />
    <glyph glyph-name="uni0623" unicode="&#x623;" horiz-adv-x="246" arabic-form="isolated" 
d="M100 700h46v-700h-46v700zM17 806l46 7q-18 11 -26 28t-8 34q0 40 27 64t70 24q33 0 55 -14l-12 -28q-8 5 -19.5 8.5t-25.5 3.5q-25 0 -44.5 -16t-19.5 -44q0 -20 11 -34t26 -20q16 3 36 5.5t38 4.5t27 2v-30q-19 -2 -39.5 -4.5t-43 -5t-47 -6.5t-51.5 -9v30z" />
    <glyph glyph-name="uni0624" unicode="&#x624;" horiz-adv-x="517" arabic-form="isolated" 
d="M223 -240q-48 0 -88 15t-70 38l22 34q33 -21 66 -33t75 -12q74 0 117 43t43 111v44h-101q-103 0 -160 57t-57 168q0 75 29.5 131.5t87 89t139.5 32.5h106v-516q0 -94 -55 -148t-154 -54zM388 42v394h-63q-95 0 -152 -54.5t-57 -157.5q0 -91 43.5 -136.5t130.5 -45.5h98z
M177 579l46 7q-18 11 -26 28t-8 34q0 40 27 64t70 24q33 0 55 -14l-12 -28q-8 5 -19.5 8.5t-25.5 3.5q-25 0 -44.5 -16t-19.5 -44q0 -20 11 -34t26 -20q16 3 36 5.5t38 4.5t27 2v-30q-19 -2 -39.5 -4.5t-43 -5t-47 -6.5t-51.5 -9v30z" />
    <glyph glyph-name="uni0625" unicode="&#x625;" horiz-adv-x="246" arabic-form="isolated" 
d="M100 760h46v-760h-46v760zM33 -207l43 7q-15 10 -23 26.5t-8 34.5q0 39 26.5 63.5t70.5 24.5q16 0 30 -3.5t25 -10.5l-12 -28q-8 4 -19.5 8t-25.5 4q-25 0 -44.5 -16t-19.5 -45q0 -19 10.5 -33t26.5 -20q10 2 30 4t40.5 4.5t30.5 3.5v-31q-17 -1 -39 -3.5t-46 -5.5
t-49 -7t-47 -9v32z" />
    <glyph glyph-name="uni0626" unicode="&#x626;" horiz-adv-x="810" arabic-form="isolated" 
d="M266 -240q-64 0 -109 29t-68.5 84.5t-23.5 136.5q0 44 8 86t29 85h43q-19 -41 -26.5 -83t-7.5 -85q0 -71 18.5 -117.5t54.5 -70t88 -23.5h196q62 0 102.5 18.5t60.5 49t20 65.5q0 32 -22.5 59.5t-54 50t-58.5 38.5q-32 19 -51 31t-31 21q-12 10 -21.5 21t-15.5 26t-6 34
q0 26 9.5 55.5t28.5 59.5q26 40 61 72t76 50.5t84 18.5q24 0 47 -6.5t42.5 -15t30.5 -16.5l-22 -35q-7 4 -23 10.5t-34.5 11.5t-35.5 5q-24 0 -49 -7.5t-47 -20.5q-31 -19 -58.5 -48t-44 -62.5t-16.5 -66.5q0 -19 12.5 -35t34 -29.5t46.5 -28.5q43 -24 68 -43.5t41 -34.5
q22 -21 38.5 -50t16.5 -65q0 -79 -60.5 -127t-169.5 -48h-201zM117 358l46 7q-18 11 -26 28t-8 34q0 40 27 64t70 24q33 0 55 -14l-12 -28q-8 5 -19.5 8.5t-25.5 3.5q-25 0 -44.5 -16t-19.5 -44q0 -20 11 -34t26 -20q16 3 36 5.5t38 4.5t27 2v-30q-19 -2 -39.5 -4.5t-43 -5
t-47 -6.5t-51.5 -9v30z" />
    <glyph glyph-name="uni0627" unicode="&#x627;" horiz-adv-x="246" arabic-form="isolated" 
d="M100 760h46v-760h-46v760z" />
    <glyph glyph-name="uni0628" unicode="&#x628;" horiz-adv-x="719" arabic-form="isolated" 
d="M247 0q-84 0 -133 51.5t-49 137.5q0 20 2.5 47t8.5 54t13 47h41q-9 -34 -13.5 -69t-4.5 -74q0 -67 33.5 -109.5t106.5 -42.5h337v436h45v-478h-387zM362 -147q-17 0 -26.5 10t-9.5 29t9.5 29t26.5 10q18 0 27.5 -11t9.5 -28q0 -18 -9.5 -28.5t-27.5 -10.5z" />
    <glyph glyph-name="uni0629" unicode="&#x629;" horiz-adv-x="574" arabic-form="isolated" 
d="M286 -10q-102 0 -161.5 62t-59.5 171q0 35 7 68t23 64q30 62 81.5 97.5t112.5 35.5q29 0 58 -8.5t58 -30.5q34 -24 57 -61t35 -81t12 -89q0 -108 -55.5 -168t-167.5 -60zM290 32q83 0 128 47t45 135q0 65 -21 117.5t-60.5 84t-92.5 31.5q-49 0 -89.5 -29t-64.5 -80
t-24 -120q0 -89 47 -137.5t132 -48.5zM210 597q-14 0 -25.5 8t-11.5 31q0 22 11.5 30.5t25.5 8.5q17 0 26.5 -10t9.5 -30q0 -18 -9.5 -28t-26.5 -10zM338 597q-18 0 -27.5 10t-9.5 28q0 20 10 30t27 10t26.5 -11t9.5 -29q0 -17 -9 -27.5t-27 -10.5z" />
    <glyph glyph-name="uni062A" unicode="&#x62a;" horiz-adv-x="719" arabic-form="isolated" 
d="M247 0q-84 0 -133 51.5t-49 137.5q0 20 2.5 47t8.5 54t13 47h41q-9 -34 -13.5 -69t-4.5 -74q0 -67 33.5 -109.5t106.5 -42.5h337v436h45v-478h-387zM293 494q-14 0 -25.5 8t-11.5 31q0 22 11.5 30.5t25.5 8.5q17 0 26.5 -10t9.5 -30q0 -18 -9.5 -28t-26.5 -10zM421 494
q-18 0 -27.5 10t-9.5 28q0 20 10 30t27 10t26.5 -11t9.5 -29q0 -17 -9 -27.5t-27 -10.5z" />
    <glyph glyph-name="uni062B" unicode="&#x62b;" horiz-adv-x="719" arabic-form="isolated" 
d="M247 0q-84 0 -133 51.5t-49 137.5q0 20 2.5 47t8.5 54t13 47h41q-9 -34 -13.5 -69t-4.5 -74q0 -67 33.5 -109.5t106.5 -42.5h337v436h45v-478h-387zM356 562q-16 0 -25.5 9.5t-9.5 27.5t9.5 27.5t25.5 9.5t25.5 -9t9.5 -28t-10 -28t-25 -9zM293 461q-16 0 -26.5 10
t-10.5 29t10 28.5t27 9.5t26.5 -10t9.5 -29q0 -18 -9.5 -28t-26.5 -10zM421 461q-17 0 -27 10.5t-10 28.5t9.5 28t27.5 10q17 0 26.5 -10t9.5 -29q0 -18 -9.5 -28t-26.5 -10z" />
    <glyph glyph-name="uni062C" unicode="&#x62c;" horiz-adv-x="618" arabic-form="isolated" 
d="M253 -326q-65 0 -112 22t-71.5 63t-24.5 98q0 34 9 62.5t25 53.5q29 44 80 77t121.5 60.5t154.5 52.5q-2 7 -8.5 30.5t-12.5 62.5q-13 91 -55.5 140.5t-120.5 49.5q-46 0 -90.5 -14.5t-82.5 -37.5l-21 36q32 24 87 41t110 17q88 0 144.5 -55t71.5 -167q6 -45 19 -84
t32.5 -68t44.5 -44l-27 -37q-26 18 -46 43t-30 49q-72 -21 -134.5 -44.5t-109.5 -51.5t-74 -64q-21 -23 -31 -48.5t-10 -56.5q0 -70 44.5 -107.5t135.5 -37.5q33 0 69 6t87 16l7 -39q-39 -9 -72 -14.5t-60 -7.5t-49 -2zM310 -147q-16 0 -26 9.5t-10 29.5q0 19 10 28.5
t26 9.5q15 0 25.5 -9t10.5 -29t-9.5 -29.5t-26.5 -9.5z" />
    <glyph glyph-name="uni062D" unicode="&#x62d;" horiz-adv-x="618" arabic-form="isolated" 
d="M253 -326q-65 0 -112 22t-71.5 63t-24.5 98q0 34 9 62.5t25 53.5q29 44 80 77t121.5 60.5t154.5 52.5q-2 7 -8.5 30.5t-12.5 62.5q-13 91 -55.5 140.5t-120.5 49.5q-46 0 -90.5 -14.5t-82.5 -37.5l-21 36q32 24 87 41t110 17q88 0 144.5 -55t71.5 -167q6 -45 19 -84
t32.5 -68t44.5 -44l-27 -37q-26 18 -46 43t-30 49q-72 -21 -134.5 -44.5t-109.5 -51.5t-74 -64q-21 -23 -31 -48.5t-10 -56.5q0 -70 44.5 -107.5t135.5 -37.5q33 0 69 6t87 16l7 -39q-39 -9 -72 -14.5t-60 -7.5t-49 -2z" />
    <glyph glyph-name="uni062E" unicode="&#x62e;" horiz-adv-x="618" arabic-form="isolated" 
d="M253 -326q-65 0 -112 22t-71.5 63t-24.5 98q0 34 9 62.5t25 53.5q29 44 80 77t121.5 60.5t154.5 52.5q-2 7 -8.5 30.5t-12.5 62.5q-13 91 -55.5 140.5t-120.5 49.5q-46 0 -90.5 -14.5t-82.5 -37.5l-21 36q32 24 87 41t110 17q88 0 144.5 -55t71.5 -167q6 -45 19 -84
t32.5 -68t44.5 -44l-27 -37q-26 18 -46 43t-30 49q-72 -21 -134.5 -44.5t-109.5 -51.5t-74 -64q-21 -23 -31 -48.5t-10 -56.5q0 -70 44.5 -107.5t135.5 -37.5q33 0 69 6t87 16l7 -39q-39 -9 -72 -14.5t-60 -7.5t-49 -2zM216 599q-16 0 -26 9.5t-10 29.5q0 19 10 28.5t26 9.5
q15 0 25.5 -9t10.5 -29t-9.5 -29.5t-26.5 -9.5z" />
    <glyph glyph-name="uni062F" unicode="&#x62f;" horiz-adv-x="465" arabic-form="isolated" 
d="M45 42h330q-2 37 -9 74.5t-19 74.5q-29 94 -77 168.5t-123 126.5l18 39q70 -42 123.5 -114t87.5 -166t44 -204v-41h-375v42z" />
    <glyph glyph-name="uni0630" unicode="&#x630;" horiz-adv-x="465" arabic-form="isolated" 
d="M45 42h330q-2 37 -9 74.5t-19 74.5q-29 94 -77 168.5t-123 126.5l18 39q70 -42 123.5 -114t87.5 -166t44 -204v-41h-375v42zM169 633q-16 0 -26 9.5t-10 29.5q0 19 10 28.5t26 9.5q15 0 25.5 -9t10.5 -29t-9.5 -29.5t-26.5 -9.5z" />
    <glyph glyph-name="uni0631" unicode="&#x631;" horiz-adv-x="292" arabic-form="isolated" 
d="M50 -241q-25 0 -45.5 6.5t-40.5 17.5l18 35q14 -7 30.5 -12t36.5 -5q54 0 79 39.5t25 111.5v526h44v-521q0 -65 -16.5 -109t-49 -66.5t-81.5 -22.5z" />
    <glyph glyph-name="uni0632" unicode="&#x632;" horiz-adv-x="292" arabic-form="isolated" 
d="M50 -241q-25 0 -45.5 6.5t-40.5 17.5l18 35q14 -7 30.5 -12t36.5 -5q54 0 79 39.5t25 111.5v526h44v-521q0 -65 -16.5 -109t-49 -66.5t-81.5 -22.5zM173 603q-16 0 -26 9.5t-10 29.5q0 19 10 28.5t26 9.5q15 0 25.5 -9t10.5 -29t-9.5 -29.5t-26.5 -9.5z" />
    <glyph glyph-name="uni0633" unicode="&#x633;" horiz-adv-x="1129" arabic-form="isolated" 
d="M940 0q-45 0 -86.5 13.5t-72.5 53.5q-18 -30 -52.5 -48.5t-84.5 -18.5h-114q0 -119 -50 -179.5t-169 -60.5h-47q-67 0 -112 29t-67.5 83.5t-22.5 131.5q0 62 10.5 124t28.5 108h44q-19 -45 -28 -104.5t-9 -126.5q0 -100 40 -151.5t118 -51.5h44q91 0 133 45t42 145v408
h45v-358h118q50 0 80 30.5t30 80.5v247h45v-265q0 -5 -1 -12t-3 -13q26 -39 60 -53.5t83 -14.5h58v436h44v-478h-104z" />
    <glyph glyph-name="uni0634" unicode="&#x634;" horiz-adv-x="1129" arabic-form="isolated" 
d="M940 0q-45 0 -86.5 13.5t-72.5 53.5q-18 -30 -52.5 -48.5t-84.5 -18.5h-114q0 -119 -50 -179.5t-169 -60.5h-47q-67 0 -112 29t-67.5 83.5t-22.5 131.5q0 62 10.5 124t28.5 108h44q-19 -45 -28 -104.5t-9 -126.5q0 -100 40 -151.5t118 -51.5h44q91 0 133 45t42 145v408
h45v-358h118q50 0 80 30.5t30 80.5v247h45v-265q0 -5 -1 -12t-3 -13q26 -39 60 -53.5t83 -14.5h58v436h44v-478h-104zM772 603q-16 0 -25.5 9.5t-9.5 27.5t9.5 27.5t25.5 9.5t25.5 -9t9.5 -28t-10 -28t-25 -9zM709 502q-16 0 -26.5 10t-10.5 29t10 28.5t27 9.5t26.5 -10
t9.5 -29q0 -18 -9.5 -28t-26.5 -10zM837 502q-17 0 -27 10.5t-10 28.5t9.5 28t27.5 10q17 0 26.5 -10t9.5 -29q0 -18 -9.5 -28t-26.5 -10z" />
    <glyph glyph-name="uni0635" unicode="&#x635;" horiz-adv-x="1100" arabic-form="isolated" 
d="M264 -240q-67 0 -112 29t-67.5 83.5t-22.5 131.5q0 62 10.5 124t28.5 108h44q-19 -45 -28 -104.5t-9 -126.5q2 -102 41.5 -152.5t118.5 -50.5h42q91 0 133 44t42 140v500h45v-265q28 92 73.5 151t100.5 87.5t112 28.5q101 0 155 -57.5t54 -178.5v-252h-495
q1 -122 -49.5 -181t-169.5 -59h-47zM981 42v202q0 104 -42 153t-128 49q-54 0 -106 -31t-97 -98t-78 -176v-99h451z" />
    <glyph glyph-name="uni0636" unicode="&#x636;" horiz-adv-x="1100" arabic-form="isolated" 
d="M264 -240q-67 0 -112 29t-67.5 83.5t-22.5 131.5q0 62 10.5 124t28.5 108h44q-19 -45 -28 -104.5t-9 -126.5q2 -102 41.5 -152.5t118.5 -50.5h42q91 0 133 44t42 140v500h45v-265q28 92 73.5 151t100.5 87.5t112 28.5q101 0 155 -57.5t54 -178.5v-252h-495
q1 -122 -49.5 -181t-169.5 -59h-47zM981 42v202q0 104 -42 153t-128 49q-54 0 -106 -31t-97 -98t-78 -176v-99h451zM804 632q-16 0 -26 9.5t-10 29.5q0 19 10 28.5t26 9.5q15 0 25.5 -9t10.5 -29t-9.5 -29.5t-26.5 -9.5z" />
    <glyph glyph-name="uni0637" unicode="&#x637;" horiz-adv-x="745" arabic-form="isolated" 
d="M25 0q-5 0 -5 5v33q0 4 5 4h122v718h44v-539q29 92 74 151t100.5 87.5t112.5 28.5q101 0 155 -57.5t54 -178.5v-252h-662zM191 42h451v202q0 104 -42 153t-127 49q-54 0 -106 -30.5t-97 -98t-79 -176.5v-99z" />
    <glyph glyph-name="uni0638" unicode="&#x638;" horiz-adv-x="745" arabic-form="isolated" 
d="M25 0q-5 0 -5 5v33q0 4 5 4h122v718h44v-539q29 92 74 151t100.5 87.5t112.5 28.5q101 0 155 -57.5t54 -178.5v-252h-662zM191 42h451v202q0 104 -42 153t-127 49q-54 0 -106 -30.5t-97 -98t-79 -176.5v-99zM496 591q-16 0 -26 9.5t-10 29.5q0 19 10 28.5t26 9.5
q15 0 25.5 -9t10.5 -29t-9.5 -29.5t-26.5 -9.5z" />
    <glyph glyph-name="uni0639" unicode="&#x639;" horiz-adv-x="496" arabic-form="isolated" 
d="M263 -318q-60 0 -104.5 20.5t-69 61t-24.5 99.5q0 39 15 74.5t44.5 68t72.5 60.5q-26 22 -47 50.5t-32.5 66.5t-11.5 86q0 70 31.5 119t83 74.5t111.5 25.5q25 0 46.5 -3.5t40 -9t32.5 -12.5l-17 -39q-23 9 -49.5 15.5t-57.5 6.5q-52 0 -91.5 -22t-61.5 -62t-22 -92
q0 -45 12 -81.5t30.5 -62.5t37.5 -38q41 22 84.5 40.5t90.5 31.5l14 -39q-35 -9 -70 -22.5t-66 -29.5q-80 -38 -127 -90t-47 -110q0 -79 44 -112t127 -33q22 0 45 2t48.5 5t51.5 7l7 -38q-29 -6 -58 -10t-57 -6t-56 -2z" />
    <glyph glyph-name="uni063A" unicode="&#x63a;" horiz-adv-x="496" arabic-form="isolated" 
d="M263 -318q-60 0 -104.5 20.5t-69 61t-24.5 99.5q0 39 15 74.5t44.5 68t72.5 60.5q-26 22 -47 50.5t-32.5 66.5t-11.5 86q0 70 31.5 119t83 74.5t111.5 25.5q25 0 46.5 -3.5t40 -9t32.5 -12.5l-17 -39q-23 9 -49.5 15.5t-57.5 6.5q-52 0 -91.5 -22t-61.5 -62t-22 -92
q0 -45 12 -81.5t30.5 -62.5t37.5 -38q41 22 84.5 40.5t90.5 31.5l14 -39q-35 -9 -70 -22.5t-66 -29.5q-80 -38 -127 -90t-47 -110q0 -79 44 -112t127 -33q22 0 45 2t48.5 5t51.5 7l7 -38q-29 -6 -58 -10t-57 -6t-56 -2zM285 594q-16 0 -26 9.5t-10 29.5q0 19 10 28.5t26 9.5
q15 0 25.5 -9t10.5 -29t-9.5 -29.5t-26.5 -9.5z" />
    <glyph glyph-name="uni0641" unicode="&#x641;" horiz-adv-x="970" arabic-form="isolated" 
d="M253 0q-92 0 -140 51.5t-48 141.5q0 18 2.5 44.5t8 53t12.5 46.5h41q-9 -32 -13.5 -72t-4.5 -73q0 -67 35.5 -108.5t102.5 -41.5h345q-24 16 -39.5 44t-23.5 62t-8 66q0 80 32.5 139.5t91.5 92t138 32.5h100v-478h-632zM841 42v394h-53q-67 0 -116.5 -27t-76 -76.5
t-26.5 -115.5q0 -58 17 -97t46.5 -58.5t66.5 -19.5h142zM728 596q-16 0 -26 9.5t-10 29.5q0 19 10 28.5t26 9.5q15 0 25.5 -9t10.5 -29t-9.5 -29.5t-26.5 -9.5z" />
    <glyph glyph-name="uni0642" unicode="&#x642;" horiz-adv-x="819" arabic-form="isolated" 
d="M277 -240q-52 0 -92 14t-67 43t-41 72t-14 101q0 56 9 113.5t27 117.5h43q-13 -49 -23 -105.5t-10 -118.5q0 -102 42.5 -148.5t134.5 -46.5h219q86 0 135 41t49 126v31h-112q-71 0 -116.5 27.5t-67 75.5t-21.5 107q0 79 32.5 139.5t91.5 94.5t137 34h101v-505
q0 -101 -57 -157t-171 -56h-229zM689 42v394h-54q-68 0 -117 -29t-74.5 -79t-25.5 -114q0 -49 16 -88t50.5 -61.5t91.5 -22.5h113zM522 621q-14 0 -25.5 8t-11.5 31q0 22 11.5 30.5t25.5 8.5q17 0 26.5 -10t9.5 -30q0 -18 -9.5 -28t-26.5 -10zM650 621q-18 0 -27.5 10
t-9.5 28q0 20 10 30t27 10t26.5 -11t9.5 -29q0 -17 -9 -27.5t-27 -10.5z" />
    <glyph glyph-name="uni0643" unicode="&#x643;" horiz-adv-x="734" arabic-form="isolated" 
d="M244 0q-91 0 -135 42t-44 122q0 21 2 40t6.5 39t11.5 44h40q-7 -31 -11.5 -58.5t-4.5 -59.5q0 -59 30 -93t100 -34h350v718h45v-760h-390zM274 321v30h146v8q0 18 -9 24t-31 6h-90v22q13 33 41.5 60t59.5 38l10 -28q-22 -9 -42.5 -26.5t-32.5 -36.5h54q33 0 51.5 -13.5
t18.5 -43.5v-40h-176z" />
    <glyph glyph-name="uni0644" unicode="&#x644;" horiz-adv-x="628" arabic-form="isolated" 
d="M251 -240q-63 0 -104.5 29t-61.5 84.5t-20 136.5q0 39 4 81t13 82.5t22 72.5l42 -1q-16 -42 -25.5 -102.5t-9.5 -127.5q0 -105 34 -159t115 -54h53q88 0 129 41t41 137v780h45v-777q0 -111 -50 -167t-165 -56h-62z" />
    <glyph glyph-name="uni0645" unicode="&#x645;" horiz-adv-x="605" arabic-form="isolated" 
d="M65 -73q0 38 9.5 63.5t34 38.5t68.5 13h16q-22 60 -33.5 113t-11.5 104q0 30 6 64t21 65q32 34 75 54t98 20q29 0 54.5 -6.5t45.5 -20.5q42 -26 63.5 -75t21.5 -109q0 -41 -5.5 -75t-17.5 -62q-24 -56 -66.5 -85t-105.5 -29h-151q-46 0 -62 -16.5t-16 -55.5v-248h-44v247
zM194 268q0 -52 11 -108t35 -118h102q47 0 79 24t49 71.5t17 114.5q0 75 -37.5 121.5t-99.5 46.5q-40 0 -74 -13.5t-66 -41.5q-7 -14 -11.5 -41t-4.5 -56z" />
    <glyph glyph-name="uni0646" unicode="&#x646;" horiz-adv-x="613" arabic-form="isolated" 
d="M243 -240q-32 0 -57.5 8t-46.5 24q-37 29 -55.5 82.5t-18.5 130.5q0 48 9 99t29 93l42 -1q-16 -35 -25 -83t-9 -101q0 -104 32.5 -157t108.5 -53h61q88 0 129 41t41 137v498h45v-495q0 -111 -50 -167t-165 -56h-70zM290 422q-16 0 -26 9.5t-10 29.5q0 19 10 28.5t26 9.5
q15 0 25.5 -9t10.5 -29t-9.5 -29.5t-26.5 -9.5z" />
    <glyph glyph-name="uni0648" unicode="&#x648;" horiz-adv-x="517" arabic-form="isolated" 
d="M223 -240q-48 0 -88 15t-70 38l22 34q33 -21 66 -33t75 -12q74 0 117 43t43 111v44h-101q-103 0 -160 57t-57 168q0 75 29.5 131.5t87 89t139.5 32.5h106v-516q0 -94 -55 -148t-154 -54zM388 42v394h-63q-95 0 -152 -54.5t-57 -157.5q0 -91 43.5 -136.5t130.5 -45.5h98z
" />
    <glyph glyph-name="uni0649" unicode="&#x649;" horiz-adv-x="810" arabic-form="isolated" 
d="M266 -240q-64 0 -109 29t-68.5 84.5t-23.5 136.5q0 44 8 86t29 85h43q-19 -41 -26.5 -83t-7.5 -85q0 -71 18.5 -117.5t54.5 -70t88 -23.5h196q62 0 102.5 18.5t60.5 49t20 65.5q0 32 -22.5 59.5t-54 50t-58.5 38.5q-32 19 -51 31t-31 21q-12 10 -21.5 21t-15.5 26t-6 34
q0 26 9.5 55.5t28.5 59.5q26 40 61 72t76 50.5t84 18.5q24 0 47 -6.5t42.5 -15t30.5 -16.5l-22 -35q-7 4 -23 10.5t-34.5 11.5t-35.5 5q-24 0 -49 -7.5t-47 -20.5q-31 -19 -58.5 -48t-44 -62.5t-16.5 -66.5q0 -19 12.5 -35t34 -29.5t46.5 -28.5q43 -24 68 -43.5t41 -34.5
q22 -21 38.5 -50t16.5 -65q0 -79 -60.5 -127t-169.5 -48h-201z" />
    <glyph glyph-name="uni064A" unicode="&#x64a;" horiz-adv-x="810" arabic-form="isolated" 
d="M266 -240q-64 0 -109 29t-68.5 84.5t-23.5 136.5q0 44 8 86t29 85h43q-19 -41 -26.5 -83t-7.5 -85q0 -71 18.5 -117.5t54.5 -70t88 -23.5h196q62 0 102.5 18.5t60.5 49t20 65.5q0 32 -22.5 59.5t-54 50t-58.5 38.5q-32 19 -51 31t-31 21q-12 10 -21.5 21t-15.5 26t-6 34
q0 26 9.5 55.5t28.5 59.5q26 40 61 72t76 50.5t84 18.5q24 0 47 -6.5t42.5 -15t30.5 -16.5l-22 -35q-7 4 -23 10.5t-34.5 11.5t-35.5 5q-24 0 -49 -7.5t-47 -20.5q-31 -19 -58.5 -48t-44 -62.5t-16.5 -66.5q0 -19 12.5 -35t34 -29.5t46.5 -28.5q43 -24 68 -43.5t41 -34.5
q22 -21 38.5 -50t16.5 -65q0 -79 -60.5 -127t-169.5 -48h-201zM315 -403q-15 0 -25.5 9t-10.5 30q0 20 10.5 29t25.5 9q14 0 25 -8.5t11 -29.5t-10 -30t-26 -9zM448 -403q-17 0 -26.5 9.5t-9.5 29.5q0 19 9.5 28.5t26.5 9.5q16 0 26 -9.5t10 -28.5t-10 -29t-26 -10z" />
    <glyph glyph-name="uni0671" unicode="&#x671;" horiz-adv-x="246" arabic-form="isolated" 
d="M100 700h46v-700h-46v700zM-3 828h43q15 52 41.5 79t61.5 27q36 0 56.5 -25.5t20.5 -70.5v-37h-223v27zM191 828q0 41 -12 60t-37 19q-24 0 -42.5 -22t-28.5 -57h120z" />
    <glyph glyph-name="uni0677" unicode="&#x677;" horiz-adv-x="983" arabic-form="isolated" 
d="M582 296q19 4 43 8l48 8q-28 19 -47.5 57.5t-19.5 86.5q0 49 20 89q24 45 67.5 71t101.5 26q32 0 60 -8t51 -21l-16 -39q-23 12 -47 19t-49 7q-65 0 -103.5 -40t-38.5 -107q0 -44 18.5 -79t48.5 -53l36 5q45 7 85.5 11t69.5 6.5t36 2.5v-42q-20 -1 -54 -4t-75 -8.5
t-84.5 -11t-82.5 -12t-68 -12.5v40zM223 -240q-48 0 -88 15t-70 38l22 34q33 -21 66 -33t75 -12q74 0 117 43t43 111v44h-101q-103 0 -160 57t-57 168q0 75 29.5 131.5t87 89t139.5 32.5h106v-516q0 -94 -55 -148t-154 -54zM388 42v394h-63q-95 0 -152 -54.5t-57 -157.5
q0 -91 43.5 -136.5t130.5 -45.5h98zM227 542l-18 26q24 12 43 26.5t32.5 27t17.5 19.5q-34 12 -55.5 34.5t-21.5 47.5q0 29 20 48.5t54 19.5q28 0 45 -23t17 -56t-13 -60t-34 -48.5t-44 -36.5t-43 -25z" />
    <glyph glyph-name="uni0679" unicode="&#x679;" horiz-adv-x="719" arabic-form="isolated" 
d="M247 0q-84 0 -133 51.5t-49 137.5q0 20 2.5 47t8.5 54t13 47h41q-9 -34 -13.5 -69t-4.5 -74q0 -67 33.5 -109.5t106.5 -42.5h337v436h45v-478h-387zM261 517h17v173h25v-124q11 27 30.5 48t50.5 21q30 0 47 -20.5t17 -62.5v-61h-187v26zM423 517v29q0 32 -10 47t-33 15
q-22 0 -41.5 -18.5t-35.5 -61.5v-11h120z" />
    <glyph glyph-name="uni067A" unicode="&#x67a;" horiz-adv-x="719" arabic-form="isolated" 
d="M247 0q-84 0 -133 51.5t-49 137.5q0 20 2.5 47t8.5 54t13 47h41q-9 -34 -13.5 -69t-4.5 -74q0 -67 33.5 -109.5t106.5 -42.5h337v436h45v-478h-387zM356 461q-17 0 -26.5 10t-9.5 29t9.5 29t26.5 10q19 0 27.5 -10.5t8.5 -28.5q0 -16 -8.5 -27.5t-27.5 -11.5zM356 594
q-17 0 -26.5 10t-9.5 29t9.5 29t26.5 10q19 0 27.5 -10.5t8.5 -28.5q0 -17 -8.5 -28t-27.5 -11z" />
    <glyph glyph-name="uni067B" unicode="&#x67b;" horiz-adv-x="719" arabic-form="isolated" 
d="M247 0q-84 0 -133 51.5t-49 137.5q0 20 2.5 47t8.5 54t13 47h41q-9 -34 -13.5 -69t-4.5 -74q0 -67 33.5 -109.5t106.5 -42.5h337v436h45v-478h-387zM363 -273q-18 0 -27 10.5t-9 29.5q0 18 9.5 28.5t26.5 10.5q18 0 27 -11t9 -29q0 -17 -8.5 -28t-27.5 -11zM363 -141
q-18 0 -27 10.5t-9 29.5t9.5 29t26.5 10q19 0 27.5 -11t8.5 -28t-8.5 -28.5t-27.5 -11.5z" />
    <glyph glyph-name="uni067E" unicode="&#x67e;" horiz-adv-x="719" arabic-form="isolated" 
d="M247 0q-84 0 -133 51.5t-49 137.5q0 20 2.5 47t8.5 54t13 47h41q-9 -34 -13.5 -69t-4.5 -74q0 -67 33.5 -109.5t106.5 -42.5h337v436h45v-478h-387zM363 -293q-16 0 -25.5 9t-9.5 28t10 28t25 9q16 0 25.5 -9.5t9.5 -27.5t-9.5 -27.5t-25.5 -9.5zM299 -196q-16 0 -26 9
t-10 29t10 29.5t26 9.5q18 0 27.5 -10.5t9.5 -28.5q0 -17 -9.5 -27.5t-27.5 -10.5zM427 -196q-18 0 -27 9.5t-9 28.5t9.5 29t26.5 10q18 0 27 -10.5t9 -28.5q0 -17 -9 -27.5t-27 -10.5z" />
    <glyph glyph-name="uni067F" unicode="&#x67f;" horiz-adv-x="719" arabic-form="isolated" 
d="M247 0q-84 0 -133 51.5t-49 137.5q0 20 2.5 47t8.5 54t13 47h41q-9 -34 -13.5 -69t-4.5 -74q0 -67 33.5 -109.5t106.5 -42.5h337v436h45v-478h-387zM296 464q-16 0 -25.5 10t-9.5 26q0 19 10.5 28t23.5 9t24 -8.5t11 -28.5t-10.5 -28t-23.5 -8zM417 464q-14 0 -24.5 8.5
t-10.5 27.5t10 28t25 9q17 0 25.5 -10.5t8.5 -26.5q0 -15 -9 -25.5t-25 -10.5zM294 591q-15 0 -24 10.5t-9 27.5q0 18 10.5 26.5t23.5 8.5t24 -7.5t11 -28.5q0 -20 -10.5 -28.5t-25.5 -8.5zM418 591q-15 0 -25 8.5t-10 28.5q0 19 10 27.5t25 8.5q17 0 25.5 -10.5t8.5 -25.5
q0 -17 -9 -27t-25 -10z" />
    <glyph glyph-name="uni0680" unicode="&#x680;" horiz-adv-x="719" arabic-form="isolated" 
d="M247 0q-84 0 -133 51.5t-49 137.5q0 20 2.5 47t8.5 54t13 47h41q-9 -34 -13.5 -69t-4.5 -74q0 -67 33.5 -109.5t106.5 -42.5h337v436h45v-478h-387zM301 -292q-16 0 -25.5 10t-9.5 26q0 19 10.5 28t23.5 9t24 -8.5t11 -28.5t-10.5 -28t-23.5 -8zM422 -292
q-14 0 -24.5 8.5t-10.5 27.5t10 28t25 9q17 0 25.5 -10.5t8.5 -26.5q0 -15 -9 -25.5t-25 -10.5zM299 -165q-15 0 -24 10.5t-9 27.5q0 18 10.5 26.5t23.5 8.5t24 -7.5t11 -28.5q0 -20 -10.5 -28.5t-25.5 -8.5zM423 -165q-15 0 -25 8.5t-10 28.5q0 19 10 27.5t25 8.5
q17 0 25.5 -10.5t8.5 -25.5q0 -17 -9 -27t-25 -10z" />
    <glyph glyph-name="uni0683" unicode="&#x683;" horiz-adv-x="618" arabic-form="isolated" 
d="M526 33q-26 18 -46 43t-30 49q-84 -24 -153 -51t-117 -61q-45 -30 -67 -67t-22 -86q0 -68 40.5 -105.5t117.5 -39.5l-11 -41q-59 1 -102.5 23t-67 63t-23.5 97q0 34 9 62.5t25 53.5q29 44 80 77t121.5 60.5t154.5 52.5q-2 8 -8.5 31.5t-12.5 61.5q-13 91 -55.5 140.5
t-120.5 49.5q-46 0 -90 -15.5t-83 -36.5l-21 35q32 24 87 41.5t110 17.5q88 0 144.5 -55t71.5 -167q6 -45 19 -84t32.5 -68t44.5 -44zM327 -191q-14 0 -25.5 8t-11.5 31q0 22 11.5 30.5t25.5 8.5q17 0 26.5 -10t9.5 -30q0 -18 -9.5 -28t-26.5 -10zM455 -191q-18 0 -27.5 10
t-9.5 28q0 20 10 30t27 10t26.5 -11t9.5 -29q0 -17 -9 -27.5t-27 -10.5z" />
    <glyph glyph-name="uni0684" unicode="&#x684;" horiz-adv-x="618" arabic-form="isolated" 
d="M526 33q-26 18 -46 43t-30 49q-84 -24 -153 -51t-117 -61q-45 -30 -67 -67t-22 -86q0 -68 40.5 -105.5t117.5 -39.5l-11 -41q-59 1 -102.5 23t-67 63t-23.5 97q0 34 9 62.5t25 53.5q29 44 80 77t121.5 60.5t154.5 52.5q-2 8 -8.5 31.5t-12.5 61.5q-13 91 -55.5 140.5
t-120.5 49.5q-46 0 -90 -15.5t-83 -36.5l-21 35q32 24 87 41.5t110 17.5q88 0 144.5 -55t71.5 -167q6 -45 19 -84t32.5 -68t44.5 -44zM390 -258q-17 0 -26.5 10t-9.5 29t9.5 29t26.5 10q19 0 27.5 -10.5t8.5 -28.5q0 -16 -8.5 -27.5t-27.5 -11.5zM390 -125q-17 0 -26.5 10
t-9.5 29t9.5 29t26.5 10q19 0 27.5 -10.5t8.5 -28.5q0 -17 -8.5 -28t-27.5 -11z" />
    <glyph glyph-name="uni0686" unicode="&#x686;" horiz-adv-x="618" arabic-form="isolated" 
d="M526 33q-26 18 -46 43t-30 49q-84 -24 -153 -51t-117 -61q-45 -30 -67 -67t-22 -86q0 -68 40.5 -105.5t117.5 -39.5l-11 -41q-59 1 -102.5 23t-67 63t-23.5 97q0 34 9 62.5t25 53.5q29 44 80 77t121.5 60.5t154.5 52.5q-2 8 -8.5 31.5t-12.5 61.5q-13 91 -55.5 140.5
t-120.5 49.5q-46 0 -90 -15.5t-83 -36.5l-21 35q32 24 87 41.5t110 17.5q88 0 144.5 -55t71.5 -167q6 -45 19 -84t32.5 -68t44.5 -44zM390 -165q17 0 26 -10t9 -27q0 -19 -9 -28t-26 -9q-16 0 -25.5 9t-9.5 28t10 28t25 9zM453 -64q17 0 27 -10t10 -29t-10 -29t-27 -10
t-26.5 10.5t-9.5 28.5q0 19 9.5 29t26.5 10zM326 -64q18 0 27 -10.5t9 -28.5t-9 -28.5t-27 -10.5t-27 10t-9 29t9.5 29t26.5 10z" />
    <glyph glyph-name="uni0687" unicode="&#x687;" horiz-adv-x="618" arabic-form="isolated" 
d="M526 33q-26 18 -46 43t-30 49q-84 -24 -153 -51t-117 -61q-45 -30 -67 -67t-22 -86q0 -68 40.5 -105.5t117.5 -39.5l-11 -41q-59 1 -102.5 23t-67 63t-23.5 97q0 34 9 62.5t25 53.5q29 44 80 77t121.5 60.5t154.5 52.5q-2 8 -8.5 31.5t-12.5 61.5q-13 91 -55.5 140.5
t-120.5 49.5q-46 0 -90 -15.5t-83 -36.5l-21 35q32 24 87 41.5t110 17.5q88 0 144.5 -55t71.5 -167q6 -45 19 -84t32.5 -68t44.5 -44zM330 -252q-16 0 -25.5 10t-9.5 26q0 19 10.5 28t23.5 9t24 -8.5t11 -28.5t-10.5 -28t-23.5 -8zM451 -252q-14 0 -24.5 8.5t-10.5 27.5
t10 28t25 9q17 0 25.5 -10.5t8.5 -26.5q0 -15 -9 -25.5t-25 -10.5zM328 -125q-15 0 -24 10.5t-9 27.5q0 18 10.5 26.5t23.5 8.5t24 -7.5t11 -28.5q0 -20 -10.5 -28.5t-25.5 -8.5zM452 -125q-15 0 -25 8.5t-10 28.5q0 19 10 27.5t25 8.5q17 0 25.5 -10.5t8.5 -25.5
q0 -17 -9 -27t-25 -10z" />
    <glyph glyph-name="uni0688" unicode="&#x688;" horiz-adv-x="465" arabic-form="isolated" 
d="M45 42h330q-2 37 -9 74.5t-19 74.5q-29 94 -77 168.5t-123 126.5l18 39q70 -42 123.5 -114t87.5 -166t44 -204v-41h-375v42zM72 665h17v173h25v-124q11 27 30.5 48t50.5 21q30 0 47 -20.5t17 -62.5v-61h-187v26zM234 665v29q0 32 -10 47t-33 15q-22 0 -41.5 -18.5
t-35.5 -61.5v-11h120z" />
    <glyph glyph-name="uni068C" unicode="&#x68c;" horiz-adv-x="465" arabic-form="isolated" 
d="M45 42h330q-2 37 -9 74.5t-19 74.5q-29 94 -77 168.5t-123 126.5l18 39q70 -42 123.5 -114t87.5 -166t44 -204v-41h-375v42zM104 642q-14 0 -25.5 8t-11.5 31q0 22 11.5 30.5t25.5 8.5q17 0 26.5 -10t9.5 -30q0 -18 -9.5 -28t-26.5 -10zM232 642q-18 0 -27.5 10t-9.5 28
q0 20 10 30t27 10t26.5 -11t9.5 -29q0 -17 -9 -27.5t-27 -10.5z" />
    <glyph glyph-name="uni068D" unicode="&#x68d;" horiz-adv-x="465" arabic-form="isolated" 
d="M45 42h330q-2 37 -9 74.5t-19 74.5q-29 94 -77 168.5t-123 126.5l18 39q70 -42 123.5 -114t87.5 -166t44 -204v-41h-375v42zM167 -159q-15 0 -25.5 9t-10.5 30q0 20 10.5 29t25.5 9q14 0 25 -8.5t11 -29.5t-10 -30t-26 -9zM300 -159q-17 0 -26.5 9.5t-9.5 29.5
q0 19 9.5 28.5t26.5 9.5q16 0 26 -9.5t10 -28.5t-10 -29t-26 -10z" />
    <glyph glyph-name="uni068E" unicode="&#x68e;" horiz-adv-x="465" arabic-form="isolated" 
d="M45 42h330q-2 37 -9 74.5t-19 74.5q-29 94 -77 168.5t-123 126.5l18 39q70 -42 123.5 -114t87.5 -166t44 -204v-41h-375v42zM167 710q-16 0 -25.5 9.5t-9.5 27.5t9.5 27.5t25.5 9.5t25.5 -9t9.5 -28t-10 -28t-25 -9zM104 609q-16 0 -26.5 10t-10.5 29t10 28.5t27 9.5
t26.5 -10t9.5 -29q0 -18 -9.5 -28t-26.5 -10zM232 609q-17 0 -27 10.5t-10 28.5t9.5 28t27.5 10q17 0 26.5 -10t9.5 -29q0 -18 -9.5 -28t-26.5 -10z" />
    <glyph glyph-name="uni0691" unicode="&#x691;" horiz-adv-x="292" arabic-form="isolated" 
d="M50 -241q-25 0 -45.5 6.5t-40.5 17.5l18 35q14 -7 30.5 -12t36.5 -5q54 0 79 39.5t25 111.5v526h44v-521q0 -65 -16.5 -109t-49 -66.5t-81.5 -22.5zM76 636h17v173h25v-124q11 27 30.5 48t50.5 21q30 0 47 -20.5t17 -62.5v-61h-187v26zM238 636v29q0 32 -10 47t-33 15
q-22 0 -41.5 -18.5t-35.5 -61.5v-11h120z" />
    <glyph glyph-name="uni0698" unicode="&#x698;" horiz-adv-x="292" arabic-form="isolated" 
d="M50 -241q-25 0 -45.5 6.5t-40.5 17.5l18 35q14 -7 30.5 -12t36.5 -5q54 0 79 39.5t25 111.5v526h44v-521q0 -65 -16.5 -109t-49 -66.5t-81.5 -22.5zM171 680q-16 0 -25.5 9.5t-9.5 27.5t9.5 27.5t25.5 9.5t25.5 -9t9.5 -28t-10 -28t-25 -9zM108 579q-16 0 -26.5 10
t-10.5 29t10 28.5t27 9.5t26.5 -10t9.5 -29q0 -18 -9.5 -28t-26.5 -10zM236 579q-17 0 -27 10.5t-10 28.5t9.5 28t27.5 10q17 0 26.5 -10t9.5 -29q0 -18 -9.5 -28t-26.5 -10z" />
    <glyph glyph-name="uni06A4" unicode="&#x6a4;" horiz-adv-x="970" arabic-form="isolated" 
d="M253 0q-92 0 -140 51.5t-48 141.5q0 18 2.5 44.5t8 53t12.5 46.5h41q-9 -32 -13.5 -72t-4.5 -73q0 -67 35.5 -108.5t102.5 -41.5h345q-24 16 -39.5 44t-23.5 62t-8 66q0 80 32.5 139.5t91.5 92t138 32.5h100v-478h-632zM841 42v394h-53q-67 0 -116.5 -27t-76 -76.5
t-26.5 -115.5q0 -58 17 -97t46.5 -58.5t66.5 -19.5h142zM726 673q-16 0 -25.5 9.5t-9.5 27.5t9.5 27.5t25.5 9.5t25.5 -9t9.5 -28t-10 -28t-25 -9zM663 572q-16 0 -26.5 10t-10.5 29t10 28.5t27 9.5t26.5 -10t9.5 -29q0 -18 -9.5 -28t-26.5 -10zM791 572q-17 0 -27 10.5
t-10 28.5t9.5 28t27.5 10q17 0 26.5 -10t9.5 -29q0 -18 -9.5 -28t-26.5 -10z" />
    <glyph glyph-name="uni06A6" unicode="&#x6a6;" horiz-adv-x="970" arabic-form="isolated" 
d="M253 0q-92 0 -140 51.5t-48 141.5q0 18 2.5 44.5t8 53t12.5 46.5h41q-9 -32 -13.5 -72t-4.5 -73q0 -67 35.5 -108.5t102.5 -41.5h345q-24 16 -39.5 44t-23.5 62t-8 66q0 80 32.5 139.5t91.5 92t138 32.5h100v-478h-632zM841 42v394h-53q-67 0 -116.5 -27t-76 -76.5
t-26.5 -115.5q0 -58 17 -97t46.5 -58.5t66.5 -19.5h142zM666 576q-16 0 -25.5 10t-9.5 26q0 19 10.5 28t23.5 9t24 -8.5t11 -28.5t-10.5 -28t-23.5 -8zM787 576q-14 0 -24.5 8.5t-10.5 27.5t10 28t25 9q17 0 25.5 -10.5t8.5 -26.5q0 -15 -9 -25.5t-25 -10.5zM664 703
q-15 0 -24 10.5t-9 27.5q0 18 10.5 26.5t23.5 8.5t24 -7.5t11 -28.5q0 -20 -10.5 -28.5t-25.5 -8.5zM788 703q-15 0 -25 8.5t-10 28.5q0 19 10 27.5t25 8.5q17 0 25.5 -10.5t8.5 -25.5q0 -17 -9 -27t-25 -10z" />
    <glyph glyph-name="uni06A9" unicode="&#x6a9;" horiz-adv-x="755" arabic-form="isolated" 
d="M219 0q-73 0 -113.5 41t-40.5 123q0 28 4 59.5t13 63.5h42q-7 -32 -11 -62t-4 -57q0 -61 27.5 -93.5t81.5 -32.5h419v213q0 87 -48 122t-147 35h-174v43q31 72 84 138.5t119 119t135 82.5l17 -40q-47 -21 -94.5 -54.5t-90.5 -74.5t-75.5 -85.5t-49.5 -86.5h129
q117 0 178 -45.5t61 -146.5v-262h-462z" />
    <glyph glyph-name="uni06AD" unicode="&#x6ad;" horiz-adv-x="734" arabic-form="isolated" 
d="M244 0q-91 0 -135 42t-44 122q0 21 2 40t6.5 39t11.5 44h40q-7 -31 -11.5 -58.5t-4.5 -59.5q0 -59 30 -93t100 -34h350v718h45v-760h-390zM274 321v30h146v8q0 18 -9 24t-31 6h-90v22q13 33 41.5 60t59.5 38l10 -28q-22 -9 -42.5 -26.5t-32.5 -36.5h54q33 0 51.5 -13.5
t18.5 -43.5v-40h-176zM360 644q-14 0 -22.5 8.5t-8.5 23.5q0 16 8 24t23 8q14 0 22 -8t8 -24q0 -17 -8.5 -24.5t-21.5 -7.5zM304 550q-14 0 -22.5 8.5t-8.5 24.5t8.5 24.5t22.5 8.5q16 0 23.5 -8.5t7.5 -24.5t-8 -24.5t-23 -8.5zM417 550q-15 0 -23.5 9t-8.5 24q0 16 8 24.5
t24 8.5q15 0 22.5 -8.5t7.5 -24.5t-8 -24.5t-22 -8.5z" />
    <glyph glyph-name="uni06AF" unicode="&#x6af;" horiz-adv-x="755" arabic-form="isolated" 
d="M219 0q-73 0 -113.5 41t-40.5 123q0 28 4 59.5t13 63.5h42q-7 -32 -11 -62t-4 -57q0 -61 27.5 -93.5t81.5 -32.5h419v213q0 87 -48 122t-147 35h-174v43q31 72 84 138.5t119 119t135 82.5l17 -40q-47 -21 -94.5 -54.5t-90.5 -74.5t-75.5 -85.5t-49.5 -86.5h129
q117 0 178 -45.5t61 -146.5v-262h-462zM248 594q24 42 58 83.5t75 79t86 68t90 50.5l14 -35q-42 -18 -86.5 -48.5t-86 -68.5t-76 -79.5t-57.5 -81.5z" />
    <glyph glyph-name="uni06B1" unicode="&#x6b1;" horiz-adv-x="755" arabic-form="isolated" 
d="M219 0q-73 0 -113.5 41t-40.5 123q0 28 4 59.5t13 63.5h42q-7 -32 -11 -62t-4 -57q0 -61 27.5 -93.5t81.5 -32.5h419v213q0 87 -48 122t-147 35h-174v43q31 72 84 138.5t119 119t135 82.5l17 -40q-47 -21 -94.5 -54.5t-90.5 -74.5t-75.5 -85.5t-49.5 -86.5h129
q117 0 178 -45.5t61 -146.5v-262h-462zM248 594q24 42 58 83.5t75 79t86 68t90 50.5l14 -35q-42 -18 -86.5 -48.5t-86 -68.5t-76 -79.5t-57.5 -81.5zM249 705q-9 0 -17 5.5t-12.5 14t-4.5 16.5q0 14 10 22.5t22 8.5q9 0 16.5 -5t12 -12.5t4.5 -15.5q0 -14 -10 -24t-21 -10z
M341 786q-9 0 -16 5t-11.5 13t-4.5 16q0 14 10.5 23t21.5 9q12 0 22 -10t10 -25t-10.5 -23t-21.5 -8z" />
    <glyph glyph-name="uni06B3" unicode="&#x6b3;" horiz-adv-x="755" arabic-form="isolated" 
d="M219 0q-73 0 -113.5 41t-40.5 123q0 28 4 59.5t13 63.5h42q-7 -32 -11 -62t-4 -57q0 -61 27.5 -93.5t81.5 -32.5h419v213q0 87 -48 122t-147 35h-174v43q31 72 84 138.5t119 119t135 82.5l17 -40q-47 -21 -94.5 -54.5t-90.5 -74.5t-75.5 -85.5t-49.5 -86.5h129
q117 0 178 -45.5t61 -146.5v-262h-462zM248 594q24 42 58 83.5t75 79t86 68t90 50.5l14 -35q-42 -18 -86.5 -48.5t-86 -68.5t-76 -79.5t-57.5 -81.5zM411 -295q-18 0 -27 10.5t-9 29.5q0 18 9.5 28.5t26.5 10.5q18 0 27 -11t9 -29q0 -17 -8.5 -28t-27.5 -11zM411 -163
q-18 0 -27 10.5t-9 29.5t9.5 29t26.5 10q19 0 27.5 -11t8.5 -28t-8.5 -28.5t-27.5 -11.5z" />
    <glyph glyph-name="uni06BA" unicode="&#x6ba;" horiz-adv-x="613" arabic-form="isolated" 
d="M243 -240q-32 0 -57.5 8t-46.5 24q-37 29 -55.5 82.5t-18.5 130.5q0 48 9 99t29 93l42 -1q-16 -35 -25 -83t-9 -101q0 -104 32.5 -157t108.5 -53h61q88 0 129 41t41 137v498h45v-495q0 -111 -50 -167t-165 -56h-70z" />
    <glyph glyph-name="uni06BB" unicode="&#x6bb;" horiz-adv-x="613" arabic-form="isolated" 
d="M243 -240q-32 0 -57.5 8t-46.5 24q-37 29 -55.5 82.5t-18.5 130.5q0 48 9 99t29 93l42 -1q-16 -35 -25 -83t-9 -101q0 -104 32.5 -157t108.5 -53h61q88 0 129 41t41 137v498h45v-495q0 -111 -50 -167t-165 -56h-70zM193 454h17v173h25v-124q11 27 30.5 48t50.5 21
q30 0 47 -20.5t17 -62.5v-61h-187v26zM355 454v29q0 32 -10 47t-33 15q-22 0 -41.5 -18.5t-35.5 -61.5v-11h120z" />
    <glyph glyph-name="uni06BE" unicode="&#x6be;" horiz-adv-x="728" arabic-form="isolated" 
d="M65 0v42h116q-40 22 -62 65.5t-22 97.5q0 26 5 48.5t14 41.5q22 44 63.5 68.5t97.5 24.5t95 -23t59.5 -70.5t20.5 -119.5v-133h123v205q0 147 -63 214.5t-196 67.5q-31 0 -71 -5t-77 -15l-14 40q22 7 48 12t55 7.5t59 2.5q154 0 229 -81t75 -238v-252h-555zM289 42h118
v122q0 95 -33 137t-102 42q-62 0 -96 -37t-34 -105q0 -46 18.5 -81.5t51.5 -56.5t77 -21z" />
    <glyph glyph-name="uni06C0" unicode="&#x6c0;" horiz-adv-x="574" arabic-form="isolated" 
d="M286 -10q-102 0 -161.5 62t-59.5 171q0 35 7 68t23 64q30 62 81.5 97.5t112.5 35.5q29 0 58 -8.5t58 -30.5q34 -24 57 -61t35 -81t12 -89q0 -108 -55.5 -168t-167.5 -60zM290 32q83 0 128 47t45 135q0 65 -21 117.5t-60.5 84t-92.5 31.5q-49 0 -89.5 -29t-64.5 -80
t-24 -120q0 -89 47 -137.5t132 -48.5zM165 578l46 7q-18 11 -26 28t-8 34q0 40 27 64t70 24q33 0 55 -14l-12 -28q-8 5 -19.5 8.5t-25.5 3.5q-25 0 -44.5 -16t-19.5 -44q0 -20 11 -34t26 -20q16 3 36 5.5t38 4.5t27 2v-30q-19 -2 -39.5 -4.5t-43 -5t-47 -6.5t-51.5 -9v30z
" />
    <glyph glyph-name="uni06C1" unicode="&#x6c1;" horiz-adv-x="574" arabic-form="isolated" 
d="M286 -10q-102 0 -161.5 62t-59.5 171q0 35 7 68t23 64q30 62 81.5 97.5t112.5 35.5q29 0 58 -8.5t58 -30.5q34 -24 57 -61t35 -81t12 -89q0 -108 -55.5 -168t-167.5 -60zM290 32q83 0 128 47t45 135q0 65 -21 117.5t-60.5 84t-92.5 31.5q-49 0 -89.5 -29t-64.5 -80
t-24 -120q0 -89 47 -137.5t132 -48.5z" />
    <glyph glyph-name="uni06C5" unicode="&#x6c5;" horiz-adv-x="522" arabic-form="isolated" 
d="M391 42v394h-66q-93 0 -149.5 -54.5t-56.5 -157.5q0 -91 42.5 -136.5t126.5 -45.5h103zM266 -268q37 31 65.5 60t44 63t15.5 77v68h-98q-105 0 -162 57t-57 168q0 75 29.5 131.5t88.5 89t144 32.5h99v-535q0 -47 -13 -86.5t-44.5 -78t-84.5 -80.5zM389 -143l-52 20
q-32 12 -50 17.5t-31 5.5q-10 0 -22 -4t-31 -16l-16 21q21 19 36 26.5t33 7.5q15 0 31.5 -4.5t38.5 -13.5q23 -9 40.5 -15t27.5 -9z" />
    <glyph glyph-name="uni06C6" unicode="&#x6c6;" horiz-adv-x="517" arabic-form="isolated" 
d="M223 -240q-48 0 -88 15t-70 38l22 34q33 -21 66 -33t75 -12q74 0 117 43t43 111v44h-101q-103 0 -160 57t-57 168q0 75 29.5 131.5t87 89t139.5 32.5h106v-516q0 -94 -55 -148t-154 -54zM388 42v394h-63q-95 0 -152 -54.5t-57 -157.5q0 -91 43.5 -136.5t130.5 -45.5h98z
M413 748l-110 -186h-35l-111 186h44l84 -147l85 147h43z" />
    <glyph glyph-name="uni06C7" unicode="&#x6c7;" horiz-adv-x="517" arabic-form="isolated" 
d="M223 -240q-48 0 -88 15t-70 38l22 34q33 -21 66 -33t75 -12q74 0 117 43t43 111v44h-101q-103 0 -160 57t-57 168q0 75 29.5 131.5t87 89t139.5 32.5h106v-516q0 -94 -55 -148t-154 -54zM388 42v394h-63q-95 0 -152 -54.5t-57 -157.5q0 -91 43.5 -136.5t130.5 -45.5h98z
M227 542l-18 26q24 12 43 26.5t32.5 27t17.5 19.5q-34 12 -55.5 34.5t-21.5 47.5q0 29 20 48.5t54 19.5q28 0 45 -23t17 -56t-13 -60t-34 -48.5t-44 -36.5t-43 -25z" />
    <glyph glyph-name="uni06C8" unicode="&#x6c8;" horiz-adv-x="517" arabic-form="isolated" 
d="M223 -240q-48 0 -88 15t-70 38l22 34q33 -21 66 -33t75 -12q74 0 117 43t43 111v44h-101q-103 0 -160 57t-57 168q0 75 29.5 131.5t87 89t139.5 32.5h106v-516q0 -94 -55 -148t-154 -54zM388 42v394h-63q-95 0 -152 -54.5t-57 -157.5q0 -91 43.5 -136.5t130.5 -45.5h98z
M258 747h34v-194h-34v194z" />
    <glyph glyph-name="uni06C9" unicode="&#x6c9;" horiz-adv-x="517" arabic-form="isolated" 
d="M223 -240q-48 0 -88 15t-70 38l22 34q33 -21 66 -33t75 -12q74 0 117 43t43 111v44h-101q-103 0 -160 57t-57 168q0 75 29.5 131.5t87 89t139.5 32.5h106v-516q0 -94 -55 -148t-154 -54zM388 42v394h-63q-95 0 -152 -54.5t-57 -157.5q0 -91 43.5 -136.5t130.5 -45.5h98z
M156 563l117 186h29l117 -186h-41l-90 147l-92 -147h-40z" />
    <glyph glyph-name="uni06CB" unicode="&#x6cb;" horiz-adv-x="517" arabic-form="isolated" 
d="M223 -240q-48 0 -88 15t-70 38l22 34q33 -21 66 -33t75 -12q74 0 117 43t43 111v44h-101q-103 0 -160 57t-57 168q0 75 29.5 131.5t87 89t139.5 32.5h106v-516q0 -94 -55 -148t-154 -54zM388 42v394h-63q-95 0 -152 -54.5t-57 -157.5q0 -91 43.5 -136.5t130.5 -45.5h98z
M285 666q-16 0 -25.5 9.5t-9.5 27.5t9.5 27.5t25.5 9.5t25.5 -9t9.5 -28t-10 -28t-25 -9zM222 565q-16 0 -26.5 10t-10.5 29t10 28.5t27 9.5t26.5 -10t9.5 -29q0 -18 -9.5 -28t-26.5 -10zM350 565q-17 0 -27 10.5t-10 28.5t9.5 28t27.5 10q17 0 26.5 -10t9.5 -29
q0 -18 -9.5 -28t-26.5 -10z" />
    <glyph glyph-name="uni06CC" unicode="&#x6cc;" horiz-adv-x="810" arabic-form="isolated" 
d="M266 -240q-64 0 -109 29t-68.5 84.5t-23.5 136.5q0 44 8 86t29 85h43q-19 -41 -26.5 -83t-7.5 -85q0 -71 18.5 -117.5t54.5 -70t88 -23.5h196q62 0 102.5 18.5t60.5 49t20 65.5q0 32 -22.5 59.5t-54 50t-58.5 38.5q-32 19 -51 31t-31 21q-12 10 -21.5 21t-15.5 26t-6 34
q0 26 9.5 55.5t28.5 59.5q26 40 61 72t76 50.5t84 18.5q24 0 47 -6.5t42.5 -15t30.5 -16.5l-22 -35q-7 4 -23 10.5t-34.5 11.5t-35.5 5q-24 0 -49 -7.5t-47 -20.5q-31 -19 -58.5 -48t-44 -62.5t-16.5 -66.5q0 -19 12.5 -35t34 -29.5t46.5 -28.5q43 -24 68 -43.5t41 -34.5
q22 -21 38.5 -50t16.5 -65q0 -79 -60.5 -127t-169.5 -48h-201z" />
    <glyph glyph-name="uni06D0" unicode="&#x6d0;" horiz-adv-x="810" arabic-form="isolated" 
d="M266 -240q-64 0 -109 29t-68.5 84.5t-23.5 136.5q0 44 8 86t29 85h43q-19 -41 -26.5 -83t-7.5 -85q0 -71 18.5 -117.5t54.5 -70t88 -23.5h196q62 0 102.5 18.5t60.5 49t20 65.5q0 32 -22.5 59.5t-54 50t-58.5 38.5q-32 19 -51 31t-31 21q-12 10 -21.5 21t-15.5 26t-6 34
q0 26 9.5 55.5t28.5 59.5q26 40 61 72t76 50.5t84 18.5q24 0 47 -6.5t42.5 -15t30.5 -16.5l-22 -35q-7 4 -23 10.5t-34.5 11.5t-35.5 5q-24 0 -49 -7.5t-47 -20.5q-31 -19 -58.5 -48t-44 -62.5t-16.5 -66.5q0 -19 12.5 -35t34 -29.5t46.5 -28.5q43 -24 68 -43.5t41 -34.5
q22 -21 38.5 -50t16.5 -65q0 -79 -60.5 -127t-169.5 -48h-201zM385 -550q-18 0 -27 10.5t-9 29.5q0 18 9.5 28.5t26.5 10.5q18 0 27 -11t9 -29q0 -17 -8.5 -28t-27.5 -11zM385 -418q-18 0 -27 10.5t-9 29.5t9.5 29t26.5 10q19 0 27.5 -11t8.5 -28t-8.5 -28.5t-27.5 -11.5z
" />
    <glyph glyph-name="uni06D2" unicode="&#x6d2;" horiz-adv-x="577" arabic-form="isolated" 
d="M156 -178q-52 0 -81.5 28.5t-29.5 78.5q0 20 6 37.5t14 29.5q15 22 41 40t60 34.5t71 31.5q45 19 71.5 32.5t40.5 23.5q28 19 40 46t12 71v40h46v-38q0 -53 -14 -86q-11 -24 -30 -43t-55.5 -39t-102.5 -48q-36 -15 -63.5 -28.5t-39.5 -21.5q-26 -17 -38.5 -35t-12.5 -47
q0 -28 17 -46.5t47 -18.5h467v-42h-466z" />
    <glyph glyph-name="uni06D3" unicode="&#x6d3;" horiz-adv-x="577" arabic-form="isolated" 
d="M156 -178q-52 0 -81.5 28.5t-29.5 78.5q0 20 6 37.5t14 29.5q15 22 41 40t60 34.5t71 31.5q45 19 71.5 32.5t40.5 23.5q28 19 40 46t12 71v40h46v-38q0 -53 -14 -86q-11 -24 -30 -43t-55.5 -39t-102.5 -48q-36 -15 -63.5 -28.5t-39.5 -21.5q-26 -17 -38.5 -35t-12.5 -47
q0 -28 17 -46.5t47 -18.5h467v-42h-466zM181 407l46 7q-18 11 -26 28t-8 34q0 40 27 64t70 24q33 0 55 -14l-12 -28q-8 5 -19.5 8.5t-25.5 3.5q-25 0 -44.5 -16t-19.5 -44q0 -20 11 -34t26 -20q16 3 36 5.5t38 4.5t27 2v-30q-19 -2 -39.5 -4.5t-43 -5t-47 -6.5t-51.5 -9v30z
" />
    <glyph glyph-name="uni06D5" unicode="&#x647;" horiz-adv-x="574" arabic-form="isolated" 
d="M286 -10q-102 0 -161.5 62t-59.5 171q0 35 7 68t23 64q30 62 81.5 97.5t112.5 35.5q29 0 58 -8.5t58 -30.5q34 -24 57 -61t35 -81t12 -89q0 -108 -55.5 -168t-167.5 -60zM290 32q83 0 128 47t45 135q0 65 -21 117.5t-60.5 84t-92.5 31.5q-49 0 -89.5 -29t-64.5 -80
t-24 -120q0 -89 47 -137.5t132 -48.5z" />
    <glyph glyph-name="uniFB51" unicode="&#x671;" horiz-adv-x="281" arabic-form="final" 
d="M285 42q6 0 6 -4v-33q0 -5 -5 -5h-186v760h46v-718h139zM-5 885h43q15 52 41.5 79t61.5 27q36 0 56.5 -25.5t20.5 -70.5v-37h-223v27zM189 885q0 41 -12 60t-37 19q-24 0 -42.5 -22t-28.5 -57h120z" />
    <glyph glyph-name="uniFB53" unicode="&#x67b;" horiz-adv-x="764" arabic-form="final" 
d="M247 0q-84 0 -133 51.5t-49 137.5q0 20 2.5 47t8.5 54t13 47h41q-9 -34 -13.5 -69t-4.5 -74q0 -67 33.5 -109.5t106.5 -42.5h337v436h45v-436h135q5 0 5 -4v-33q0 -5 -5 -5h-522zM391 -306q-18 0 -27 10.5t-9 29.5q0 18 9.5 28.5t26.5 10.5q18 0 27 -11t9 -29
q0 -17 -8.5 -28t-27.5 -11zM391 -174q-18 0 -27 10.5t-9 29.5t9.5 29t26.5 10q19 0 27.5 -11t8.5 -28t-8.5 -28.5t-27.5 -11.5z" />
    <glyph glyph-name="uniFB54" unicode="&#x67b;" horiz-adv-x="266" arabic-form="initial" 
d="M-5 0q-5 0 -5 5v33q0 4 5 4h140v436h46v-478h-186zM127 -292q-18 0 -27 10.5t-9 29.5q0 18 9.5 28.5t26.5 10.5q18 0 27 -11t9 -29q0 -17 -8.5 -28t-27.5 -11zM127 -160q-18 0 -27 10.5t-9 29.5t9.5 29t26.5 10q19 0 27.5 -11t8.5 -28t-8.5 -28.5t-27.5 -11.5z" />
    <glyph glyph-name="uniFB55" unicode="&#x67b;" horiz-adv-x="292" arabic-form="medial" 
d="M-5 0q-5 0 -5 5v33q0 4 5 4h131v436h46v-436h126q4 0 4 -4v-33q0 -5 -5 -5h-302zM146 -292q-18 0 -27 10.5t-9 29.5q0 18 9.5 28.5t26.5 10.5q18 0 27 -11t9 -29q0 -17 -8.5 -28t-27.5 -11zM146 -160q-18 0 -27 10.5t-9 29.5t9.5 29t26.5 10q19 0 27.5 -11t8.5 -28
t-8.5 -28.5t-27.5 -11.5z" />
    <glyph glyph-name="uniFB57" unicode="&#x67e;" horiz-adv-x="764" arabic-form="final" 
d="M247 0q-84 0 -133 51.5t-49 137.5q0 20 2.5 47t8.5 54t13 47h41q-9 -34 -13.5 -69t-4.5 -74q0 -67 33.5 -109.5t106.5 -42.5h337v436h45v-436h135q5 0 5 -4v-33q0 -5 -5 -5h-522zM391 -326q-16 0 -25.5 9t-9.5 28t10 28t25 9q16 0 25.5 -9.5t9.5 -27.5t-9.5 -27.5
t-25.5 -9.5zM327 -229q-16 0 -26 9t-10 29t10 29.5t26 9.5q18 0 27.5 -10.5t9.5 -28.5q0 -17 -9.5 -27.5t-27.5 -10.5zM455 -229q-18 0 -27 9.5t-9 28.5t9.5 29t26.5 10q18 0 27 -10.5t9 -28.5q0 -17 -9 -27.5t-27 -10.5z" />
    <glyph glyph-name="uniFB58" unicode="&#x67e;" horiz-adv-x="361" arabic-form="initial" 
d="M-5 0q-5 0 -5 5v33q0 4 5 4h213v436h46v-478h-259zM167 -313q-16 0 -25.5 9t-9.5 28t10 28t25 9q16 0 25.5 -9.5t9.5 -27.5t-9.5 -27.5t-25.5 -9.5zM103 -216q-16 0 -26 9t-10 29t10 29.5t26 9.5q18 0 27.5 -10.5t9.5 -28.5q0 -17 -9.5 -27.5t-27.5 -10.5zM231 -216
q-18 0 -27 9.5t-9 28.5t9.5 29t26.5 10q18 0 27 -10.5t9 -28.5q0 -17 -9 -27.5t-27 -10.5z" />
    <glyph glyph-name="uniFB59" unicode="&#x67e;" horiz-adv-x="356" arabic-form="medial" 
d="M-5 0q-5 0 -5 5v33q0 4 5 4h169v436h45v-436h152q5 0 5 -4v-33q0 -5 -5 -5h-366zM184 -313q-16 0 -25.5 9t-9.5 28t10 28t25 9q16 0 25.5 -9.5t9.5 -27.5t-9.5 -27.5t-25.5 -9.5zM120 -216q-16 0 -26 9t-10 29t10 29.5t26 9.5q18 0 27.5 -10.5t9.5 -28.5
q0 -17 -9.5 -27.5t-27.5 -10.5zM248 -216q-18 0 -27 9.5t-9 28.5t9.5 29t26.5 10q18 0 27 -10.5t9 -28.5q0 -17 -9 -27.5t-27 -10.5z" />
    <glyph glyph-name="uniFB5B" unicode="&#x680;" horiz-adv-x="764" arabic-form="final" 
d="M247 0q-84 0 -133 51.5t-49 137.5q0 20 2.5 47t8.5 54t13 47h41q-9 -34 -13.5 -69t-4.5 -74q0 -67 33.5 -109.5t106.5 -42.5h337v436h45v-436h135q5 0 5 -4v-33q0 -5 -5 -5h-522zM330 -325q-16 0 -25.5 10t-9.5 26q0 19 10.5 28t23.5 9t24 -8.5t11 -28.5t-10.5 -28
t-23.5 -8zM451 -325q-14 0 -24.5 8.5t-10.5 27.5t10 28t25 9q17 0 25.5 -10.5t8.5 -26.5q0 -15 -9 -25.5t-25 -10.5zM328 -198q-15 0 -24 10.5t-9 27.5q0 18 10.5 26.5t23.5 8.5t24 -7.5t11 -28.5q0 -20 -10.5 -28.5t-25.5 -8.5zM452 -198q-15 0 -25 8.5t-10 28.5
q0 19 10 27.5t25 8.5q17 0 25.5 -10.5t8.5 -25.5q0 -17 -9 -27t-25 -10z" />
    <glyph glyph-name="uniFB5C" unicode="&#x680;" horiz-adv-x="361" arabic-form="initial" 
d="M-5 0q-5 0 -5 5v33q0 4 5 4h213v436h46v-478h-259zM106 -312q-16 0 -25.5 10t-9.5 26q0 19 10.5 28t23.5 9t24 -8.5t11 -28.5t-10.5 -28t-23.5 -8zM227 -312q-14 0 -24.5 8.5t-10.5 27.5t10 28t25 9q17 0 25.5 -10.5t8.5 -26.5q0 -15 -9 -25.5t-25 -10.5zM104 -185
q-15 0 -24 10.5t-9 27.5q0 18 10.5 26.5t23.5 8.5t24 -7.5t11 -28.5q0 -20 -10.5 -28.5t-25.5 -8.5zM228 -185q-15 0 -25 8.5t-10 28.5q0 19 10 27.5t25 8.5q17 0 25.5 -10.5t8.5 -25.5q0 -17 -9 -27t-25 -10z" />
    <glyph glyph-name="uniFB5D" unicode="&#x680;" horiz-adv-x="356" arabic-form="medial" 
d="M-5 0q-5 0 -5 5v33q0 4 5 4h169v436h45v-436h152q5 0 5 -4v-33q0 -5 -5 -5h-366zM123 -312q-16 0 -25.5 10t-9.5 26q0 19 10.5 28t23.5 9t24 -8.5t11 -28.5t-10.5 -28t-23.5 -8zM244 -312q-14 0 -24.5 8.5t-10.5 27.5t10 28t25 9q17 0 25.5 -10.5t8.5 -26.5
q0 -15 -9 -25.5t-25 -10.5zM121 -185q-15 0 -24 10.5t-9 27.5q0 18 10.5 26.5t23.5 8.5t24 -7.5t11 -28.5q0 -20 -10.5 -28.5t-25.5 -8.5zM245 -185q-15 0 -25 8.5t-10 28.5q0 19 10 27.5t25 8.5q17 0 25.5 -10.5t8.5 -25.5q0 -17 -9 -27t-25 -10z" />
    <glyph glyph-name="uniFB5F" unicode="&#x67a;" horiz-adv-x="764" arabic-form="final" 
d="M247 0q-84 0 -133 51.5t-49 137.5q0 20 2.5 47t8.5 54t13 47h41q-9 -34 -13.5 -69t-4.5 -74q0 -67 33.5 -109.5t106.5 -42.5h337v436h45v-436h135q5 0 5 -4v-33q0 -5 -5 -5h-522zM368 329q-17 0 -26.5 10t-9.5 29t9.5 29t26.5 10q19 0 27.5 -10.5t8.5 -28.5
q0 -16 -8.5 -27.5t-27.5 -11.5zM368 462q-17 0 -26.5 10t-9.5 29t9.5 29t26.5 10q19 0 27.5 -10.5t8.5 -28.5q0 -17 -8.5 -28t-27.5 -11z" />
    <glyph glyph-name="uniFB60" unicode="&#x67a;" horiz-adv-x="361" arabic-form="initial" 
d="M-5 0q-5 0 -5 5v33q0 4 5 4h213v436h46v-478h-259zM218 553q-17 0 -26.5 10t-9.5 29t9.5 29t26.5 10q19 0 27.5 -10.5t8.5 -28.5q0 -16 -8.5 -27.5t-27.5 -11.5zM218 686q-17 0 -26.5 10t-9.5 29t9.5 29t26.5 10q19 0 27.5 -10.5t8.5 -28.5q0 -17 -8.5 -28t-27.5 -11z
" />
    <glyph glyph-name="uniFB61" unicode="&#x67a;" horiz-adv-x="356" arabic-form="medial" 
d="M-5 0q-5 0 -5 5v33q0 4 5 4h169v436h45v-436h152q5 0 5 -4v-33q0 -5 -5 -5h-366zM176 573q-17 0 -26.5 10t-9.5 29t9.5 29t26.5 10q19 0 27.5 -10.5t8.5 -28.5q0 -16 -8.5 -27.5t-27.5 -11.5zM176 706q-17 0 -26.5 10t-9.5 29t9.5 29t26.5 10q19 0 27.5 -10.5t8.5 -28.5
q0 -17 -8.5 -28t-27.5 -11z" />
    <glyph glyph-name="uniFB63" unicode="&#x67f;" horiz-adv-x="764" arabic-form="final" 
d="M247 0q-84 0 -133 51.5t-49 137.5q0 20 2.5 47t8.5 54t13 47h41q-9 -34 -13.5 -69t-4.5 -74q0 -67 33.5 -109.5t106.5 -42.5h337v436h45v-436h135q5 0 5 -4v-33q0 -5 -5 -5h-522zM308 332q-16 0 -25.5 10t-9.5 26q0 19 10.5 28t23.5 9t24 -8.5t11 -28.5t-10.5 -28
t-23.5 -8zM429 332q-14 0 -24.5 8.5t-10.5 27.5t10 28t25 9q17 0 25.5 -10.5t8.5 -26.5q0 -15 -9 -25.5t-25 -10.5zM306 459q-15 0 -24 10.5t-9 27.5q0 18 10.5 26.5t23.5 8.5t24 -7.5t11 -28.5q0 -20 -10.5 -28.5t-25.5 -8.5zM430 459q-15 0 -25 8.5t-10 28.5q0 19 10 27.5
t25 8.5q17 0 25.5 -10.5t8.5 -25.5q0 -17 -9 -27t-25 -10z" />
    <glyph glyph-name="uniFB64" unicode="&#x67f;" horiz-adv-x="361" arabic-form="initial" 
d="M-5 0q-5 0 -5 5v33q0 4 5 4h213v436h46v-478h-259zM158 556q-16 0 -25.5 10t-9.5 26q0 19 10.5 28t23.5 9t24 -8.5t11 -28.5t-10.5 -28t-23.5 -8zM279 556q-14 0 -24.5 8.5t-10.5 27.5t10 28t25 9q17 0 25.5 -10.5t8.5 -26.5q0 -15 -9 -25.5t-25 -10.5zM156 683
q-15 0 -24 10.5t-9 27.5q0 18 10.5 26.5t23.5 8.5t24 -7.5t11 -28.5q0 -20 -10.5 -28.5t-25.5 -8.5zM280 683q-15 0 -25 8.5t-10 28.5q0 19 10 27.5t25 8.5q17 0 25.5 -10.5t8.5 -25.5q0 -17 -9 -27t-25 -10z" />
    <glyph glyph-name="uniFB65" unicode="&#x67f;" horiz-adv-x="356" arabic-form="medial" 
d="M-5 0q-5 0 -5 5v33q0 4 5 4h169v436h45v-436h152q5 0 5 -4v-33q0 -5 -5 -5h-366zM116 576q-16 0 -25.5 10t-9.5 26q0 19 10.5 28t23.5 9t24 -8.5t11 -28.5t-10.5 -28t-23.5 -8zM237 576q-14 0 -24.5 8.5t-10.5 27.5t10 28t25 9q17 0 25.5 -10.5t8.5 -26.5q0 -15 -9 -25.5
t-25 -10.5zM114 703q-15 0 -24 10.5t-9 27.5q0 18 10.5 26.5t23.5 8.5t24 -7.5t11 -28.5q0 -20 -10.5 -28.5t-25.5 -8.5zM238 703q-15 0 -25 8.5t-10 28.5q0 19 10 27.5t25 8.5q17 0 25.5 -10.5t8.5 -25.5q0 -17 -9 -27t-25 -10z" />
    <glyph glyph-name="uniFB67" unicode="&#x679;" horiz-adv-x="764" arabic-form="final" 
d="M247 0q-84 0 -133 51.5t-49 137.5q0 20 2.5 47t8.5 54t13 47h41q-9 -34 -13.5 -69t-4.5 -74q0 -67 33.5 -109.5t106.5 -42.5h337v436h45v-436h135q5 0 5 -4v-33q0 -5 -5 -5h-522zM273 385h17v173h25v-124q11 27 30.5 48t50.5 21q30 0 47 -20.5t17 -62.5v-61h-187v26z
M435 385v29q0 32 -10 47t-33 15q-22 0 -41.5 -18.5t-35.5 -61.5v-11h120z" />
    <glyph glyph-name="uniFB68" unicode="&#x6bb;" horiz-adv-x="266" arabic-form="initial" 
d="M-5 0q-5 0 -5 5v33q0 4 5 4h140v436h46v-478h-186zM50 609h17v173h25v-124q11 27 30.5 48t50.5 21q30 0 47 -20.5t17 -62.5v-61h-187v26zM212 609v29q0 32 -10 47t-33 15q-22 0 -41.5 -18.5t-35.5 -61.5v-11h120z" />
    <glyph glyph-name="uniFB69" unicode="&#x6bb;" horiz-adv-x="356" arabic-form="medial" 
d="M-5 0q-5 0 -5 5v33q0 4 5 4h169v436h45v-436h152q5 0 5 -4v-33q0 -5 -5 -5h-366zM81 629h17v173h25v-124q11 27 30.5 48t50.5 21q30 0 47 -20.5t17 -62.5v-61h-187v26zM243 629v29q0 32 -10 47t-33 15q-22 0 -41.5 -18.5t-35.5 -61.5v-11h120z" />
    <glyph glyph-name="uniFB6B" unicode="&#x6a4;" horiz-adv-x="980" arabic-form="final" 
d="M253 0q-92 0 -140 51.5t-48 141.5q0 18 2.5 44.5t8 53t12.5 46.5h41q-9 -32 -13.5 -72t-4.5 -73q0 -67 35.5 -108.5t102.5 -41.5h345q-24 16 -39.5 44t-23.5 62t-8 66q0 80 32.5 139.5t91.5 92t138 32.5h100v-436h100q5 0 5 -4v-33q0 -5 -5 -5h-732zM699 42h142v394h-53
q-67 0 -116.5 -27t-76 -76.5t-26.5 -115.5q0 -58 17 -97t46.5 -58.5t66.5 -19.5zM731 682q-16 0 -25.5 9.5t-9.5 27.5t9.5 27.5t25.5 9.5t25.5 -9t9.5 -28t-10 -28t-25 -9zM668 581q-16 0 -26.5 10t-10.5 29t10 28.5t27 9.5t26.5 -10t9.5 -29q0 -18 -9.5 -28t-26.5 -10z
M796 581q-17 0 -27 10.5t-10 28.5t9.5 28t27.5 10q17 0 26.5 -10t9.5 -29q0 -18 -9.5 -28t-26.5 -10z" />
    <glyph glyph-name="uniFB6C" unicode="&#x6a4;" horiz-adv-x="545" arabic-form="initial" 
d="M-5 0q-5 0 -5 5v33q0 4 5 4h175q-24 17 -40 45t-23.5 62t-7.5 65q0 80 32 139.5t91.5 92t138.5 32.5h100v-478h-466zM274 42h142v394h-52q-68 0 -117.5 -27t-75.5 -76.5t-26 -115.5q0 -58 16.5 -97t46 -58.5t66.5 -19.5zM321 696q-16 0 -25.5 9.5t-9.5 27.5t9.5 27.5
t25.5 9.5t25.5 -9t9.5 -28t-10 -28t-25 -9zM258 595q-16 0 -26.5 10t-10.5 29t10 28.5t27 9.5t26.5 -10t9.5 -29q0 -18 -9.5 -28t-26.5 -10zM386 595q-17 0 -27 10.5t-10 28.5t9.5 28t27.5 10q17 0 26.5 -10t9.5 -29q0 -18 -9.5 -28t-26.5 -10z" />
    <glyph glyph-name="uniFB6D" unicode="&#x6a4;" horiz-adv-x="548" arabic-form="medial" 
d="M553 42q5 0 5 -4v-35q0 -3 -5 -3h-558q-5 0 -5 5v33q0 4 5 4h175q-24 17 -40 45t-23.5 62t-7.5 65q0 81 32 140t91.5 91.5t138.5 32.5h100v-436h92zM416 42v394h-52q-68 0 -117.5 -27t-75.5 -76.5t-26 -115.5q0 -58 16.5 -97.5t46 -58.5t66.5 -19h142zM321 696
q-16 0 -25.5 9.5t-9.5 27.5t9.5 27.5t25.5 9.5t25.5 -9t9.5 -28t-10 -28t-25 -9zM258 595q-16 0 -26.5 10t-10.5 29t10 28.5t27 9.5t26.5 -10t9.5 -29q0 -18 -9.5 -28t-26.5 -10zM386 595q-17 0 -27 10.5t-10 28.5t9.5 28t27.5 10q17 0 26.5 -10t9.5 -29q0 -18 -9.5 -28
t-26.5 -10z" />
    <glyph glyph-name="uniFB6F" unicode="&#x6a6;" horiz-adv-x="980" arabic-form="final" 
d="M253 0q-92 0 -140 51.5t-48 141.5q0 18 2.5 44.5t8 53t12.5 46.5h41q-9 -32 -13.5 -72t-4.5 -73q0 -67 35.5 -108.5t102.5 -41.5h345q-24 16 -39.5 44t-23.5 62t-8 66q0 80 32.5 139.5t91.5 92t138 32.5h100v-436h100q5 0 5 -4v-33q0 -5 -5 -5h-732zM699 42h142v394h-53
q-67 0 -116.5 -27t-76 -76.5t-26.5 -115.5q0 -58 17 -97t46.5 -58.5t66.5 -19.5zM671 585q-16 0 -25.5 10t-9.5 26q0 19 10.5 28t23.5 9t24 -8.5t11 -28.5t-10.5 -28t-23.5 -8zM792 585q-14 0 -24.5 8.5t-10.5 27.5t10 28t25 9q17 0 25.5 -10.5t8.5 -26.5q0 -15 -9 -25.5
t-25 -10.5zM669 712q-15 0 -24 10.5t-9 27.5q0 18 10.5 26.5t23.5 8.5t24 -7.5t11 -28.5q0 -20 -10.5 -28.5t-25.5 -8.5zM793 712q-15 0 -25 8.5t-10 28.5q0 19 10 27.5t25 8.5q17 0 25.5 -10.5t8.5 -25.5q0 -17 -9 -27t-25 -10z" />
    <glyph glyph-name="uniFB70" unicode="&#x6a6;" horiz-adv-x="545" arabic-form="initial" 
d="M-5 0q-5 0 -5 5v33q0 4 5 4h175q-24 17 -40 45t-23.5 62t-7.5 65q0 80 32 139.5t91.5 92t138.5 32.5h100v-478h-466zM274 42h142v394h-52q-68 0 -117.5 -27t-75.5 -76.5t-26 -115.5q0 -58 16.5 -97t46 -58.5t66.5 -19.5zM261 598q-16 0 -25.5 10t-9.5 26q0 19 10.5 28
t23.5 9t24 -8.5t11 -28.5t-10.5 -28t-23.5 -8zM382 598q-14 0 -24.5 8.5t-10.5 27.5t10 28t25 9q17 0 25.5 -10.5t8.5 -26.5q0 -15 -9 -25.5t-25 -10.5zM259 725q-15 0 -24 10.5t-9 27.5q0 18 10.5 26.5t23.5 8.5t24 -7.5t11 -28.5q0 -20 -10.5 -28.5t-25.5 -8.5zM383 725
q-15 0 -25 8.5t-10 28.5q0 19 10 27.5t25 8.5q17 0 25.5 -10.5t8.5 -25.5q0 -17 -9 -27t-25 -10z" />
    <glyph glyph-name="uniFB71" unicode="&#x6a6;" horiz-adv-x="548" arabic-form="medial" 
d="M553 42q5 0 5 -4v-35q0 -3 -5 -3h-558q-5 0 -5 5v33q0 4 5 4h175q-24 17 -40 45t-23.5 62t-7.5 65q0 81 32 140t91.5 91.5t138.5 32.5h100v-436h92zM416 42v394h-52q-68 0 -117.5 -27t-75.5 -76.5t-26 -115.5q0 -58 16.5 -97.5t46 -58.5t66.5 -19h142zM261 598
q-16 0 -25.5 10t-9.5 26q0 19 10.5 28t23.5 9t24 -8.5t11 -28.5t-10.5 -28t-23.5 -8zM382 598q-14 0 -24.5 8.5t-10.5 27.5t10 28t25 9q17 0 25.5 -10.5t8.5 -26.5q0 -15 -9 -25.5t-25 -10.5zM259 725q-15 0 -24 10.5t-9 27.5q0 18 10.5 26.5t23.5 8.5t24 -7.5t11 -28.5
q0 -20 -10.5 -28.5t-25.5 -8.5zM383 725q-15 0 -25 8.5t-10 28.5q0 19 10 27.5t25 8.5q17 0 25.5 -10.5t8.5 -25.5q0 -17 -9 -27t-25 -10z" />
    <glyph glyph-name="uniFB73" unicode="&#x684;" horiz-adv-x="593" arabic-form="final" 
d="M236 -326q-57 0 -100 22t-67 63t-24 98q0 34 9 62.5t26 53.5q29 44 80.5 77.5t121.5 60.5t154 52q-4 12 -8.5 30.5t-8.5 41.5q-9 62 -29 109.5t-55 74.5t-90 27q-51 0 -96 -15.5t-84 -36.5l-19 37q21 15 52.5 28t68.5 21t74 8q60 0 104 -23.5t73 -76.5t43 -141
q6 -34 14 -66t19 -58q17 -35 40.5 -58t59.5 -23h4q5 0 5 -4v-33q0 -5 -5 -5h-4q-37 0 -64.5 17t-46.5 45.5t-34 62.5q-86 -26 -159.5 -55t-118.5 -68q-42 -31 -61 -66.5t-19 -75.5q0 -69 41.5 -107t114.5 -38zM390 -258q-17 0 -26.5 10t-9.5 29t9.5 29t26.5 10
q19 0 27.5 -10.5t8.5 -28.5q0 -16 -8.5 -27.5t-27.5 -11.5zM390 -125q-17 0 -26.5 10t-9.5 29t9.5 29t26.5 10q19 0 27.5 -10.5t8.5 -28.5q0 -17 -8.5 -28t-27.5 -11z" />
    <glyph glyph-name="uniFB74" unicode="&#x684;" horiz-adv-x="558" arabic-form="initial" 
d="M-5 0q-5 0 -5 5v33q0 4 5 4h444q-25 34 -39.5 89.5t-27.5 128.5q-10 58 -24.5 100.5t-41.5 65.5t-78 23q-33 0 -66.5 -11t-74.5 -35l-20 37q40 26 80 38.5t84 12.5q31 0 56.5 -8t45.5 -25q34 -24 51 -68t31 -125q13 -73 24 -116.5t24 -68t30 -41.5v-39h-498zM244 -306
q-18 0 -27 10.5t-9 29.5q0 18 9.5 28.5t26.5 10.5q18 0 27 -11t9 -29q0 -17 -8.5 -28t-27.5 -11zM244 -174q-18 0 -27 10.5t-9 29.5t9.5 29t26.5 10q19 0 27.5 -11t8.5 -28t-8.5 -28.5t-27.5 -11.5z" />
    <glyph glyph-name="uniFB75" unicode="&#x684;" horiz-adv-x="551" arabic-form="medial" 
d="M-5 0q-5 0 -5 5v33q0 4 5 4h444q-17 22 -28.5 50.5t-20 69.5t-18.5 98q-8 43 -17 78t-24 60t-39.5 38t-63.5 13q-32 0 -65.5 -10.5t-74.5 -33.5l-21 35q40 26 80 38.5t84 12.5q31 0 56.5 -7.5t45.5 -23.5q23 -18 37.5 -42t24.5 -60.5t20 -92.5q11 -68 22 -111.5t23.5 -69
t28.5 -42.5h67q5 0 5 -4v-33q0 -5 -5 -5h-561zM244 -306q-18 0 -27 10.5t-9 29.5q0 18 9.5 28.5t26.5 10.5q18 0 27 -11t9 -29q0 -17 -8.5 -28t-27.5 -11zM244 -174q-18 0 -27 10.5t-9 29.5t9.5 29t26.5 10q19 0 27.5 -11t8.5 -28t-8.5 -28.5t-27.5 -11.5z" />
    <glyph glyph-name="uniFB77" unicode="&#x683;" horiz-adv-x="593" arabic-form="final" 
d="M236 -326q-57 0 -100 22t-67 63t-24 98q0 34 9 62.5t26 53.5q29 44 80.5 77.5t121.5 60.5t154 52q-4 12 -8.5 30.5t-8.5 41.5q-9 62 -29 109.5t-55 74.5t-90 27q-51 0 -96 -15.5t-84 -36.5l-19 37q21 15 52.5 28t68.5 21t74 8q60 0 104 -23.5t73 -76.5t43 -141
q6 -34 14 -66t19 -58q17 -35 40.5 -58t59.5 -23h4q5 0 5 -4v-33q0 -5 -5 -5h-4q-37 0 -64.5 17t-46.5 45.5t-34 62.5q-86 -26 -159.5 -55t-118.5 -68q-42 -31 -61 -66.5t-19 -75.5q0 -69 41.5 -107t114.5 -38zM327 -191q-14 0 -25.5 8t-11.5 31q0 22 11.5 30.5t25.5 8.5
q17 0 26.5 -10t9.5 -30q0 -18 -9.5 -28t-26.5 -10zM455 -191q-18 0 -27.5 10t-9.5 28q0 20 10 30t27 10t26.5 -11t9.5 -29q0 -17 -9 -27.5t-27 -10.5z" />
    <glyph glyph-name="uniFB78" unicode="&#x683;" horiz-adv-x="558" arabic-form="initial" 
d="M-5 0q-5 0 -5 5v33q0 4 5 4h444q-25 34 -39.5 89.5t-27.5 128.5q-10 58 -24.5 100.5t-41.5 65.5t-78 23q-33 0 -66.5 -11t-74.5 -35l-20 37q40 26 80 38.5t84 12.5q31 0 56.5 -8t45.5 -25q34 -24 51 -68t31 -125q13 -73 24 -116.5t24 -68t30 -41.5v-39h-498zM175 -159
q-15 0 -25.5 9t-10.5 30q0 20 10.5 29t25.5 9q14 0 25 -8.5t11 -29.5t-10 -30t-26 -9zM308 -159q-17 0 -26.5 9.5t-9.5 29.5q0 19 9.5 28.5t26.5 9.5q16 0 26 -9.5t10 -28.5t-10 -29t-26 -10z" />
    <glyph glyph-name="uniFB79" unicode="&#x683;" horiz-adv-x="551" arabic-form="medial" 
d="M-5 0q-5 0 -5 5v33q0 4 5 4h444q-17 22 -28.5 50.5t-20 69.5t-18.5 98q-8 43 -17 78t-24 60t-39.5 38t-63.5 13q-32 0 -65.5 -10.5t-74.5 -33.5l-21 35q40 26 80 38.5t84 12.5q31 0 56.5 -7.5t45.5 -23.5q23 -18 37.5 -42t24.5 -60.5t20 -92.5q11 -68 22 -111.5t23.5 -69
t28.5 -42.5h67q5 0 5 -4v-33q0 -5 -5 -5h-561zM175 -159q-15 0 -25.5 9t-10.5 30q0 20 10.5 29t25.5 9q14 0 25 -8.5t11 -29.5t-10 -30t-26 -9zM308 -159q-17 0 -26.5 9.5t-9.5 29.5q0 19 9.5 28.5t26.5 9.5q16 0 26 -9.5t10 -28.5t-10 -29t-26 -10z" />
    <glyph glyph-name="uniFB7B" unicode="&#x686;" horiz-adv-x="593" arabic-form="final" 
d="M236 -326q-57 0 -100 22t-67 63t-24 98q0 34 9 62.5t26 53.5q29 44 80.5 77.5t121.5 60.5t154 52q-4 12 -8.5 30.5t-8.5 41.5q-9 62 -29 109.5t-55 74.5t-90 27q-51 0 -96 -15.5t-84 -36.5l-19 37q21 15 52.5 28t68.5 21t74 8q60 0 104 -23.5t73 -76.5t43 -141
q6 -34 14 -66t19 -58q17 -35 40.5 -58t59.5 -23h4q5 0 5 -4v-33q0 -5 -5 -5h-4q-37 0 -64.5 17t-46.5 45.5t-34 62.5q-86 -26 -159.5 -55t-118.5 -68q-42 -31 -61 -66.5t-19 -75.5q0 -69 41.5 -107t114.5 -38zM390 -165q17 0 26 -10t9 -27q0 -19 -9 -28t-26 -9
q-16 0 -25.5 9t-9.5 28t10 28t25 9zM453 -64q17 0 27 -10t10 -29t-10 -29t-27 -10t-26.5 10.5t-9.5 28.5q0 19 9.5 29t26.5 10zM326 -64q18 0 27 -10.5t9 -28.5t-9 -28.5t-27 -10.5t-27 10t-9 29t9.5 29t26.5 10z" />
    <glyph glyph-name="uniFB7C" unicode="&#x686;" horiz-adv-x="558" arabic-form="initial" 
d="M-5 0q-5 0 -5 5v33q0 4 5 4h444q-25 34 -39.5 89.5t-27.5 128.5q-10 58 -24.5 100.5t-41.5 65.5t-78 23q-33 0 -66.5 -11t-74.5 -35l-20 37q40 26 80 38.5t84 12.5q31 0 56.5 -8t45.5 -25q34 -24 51 -68t31 -125q13 -73 24 -116.5t24 -68t30 -41.5v-39h-498zM244 -326
q-16 0 -25.5 9t-9.5 28t10 28t25 9q16 0 25.5 -9.5t9.5 -27.5t-9.5 -27.5t-25.5 -9.5zM180 -229q-16 0 -26 9t-10 29t10 29.5t26 9.5q18 0 27.5 -10.5t9.5 -28.5q0 -17 -9.5 -27.5t-27.5 -10.5zM308 -229q-18 0 -27 9.5t-9 28.5t9.5 29t26.5 10q18 0 27 -10.5t9 -28.5
q0 -17 -9 -27.5t-27 -10.5z" />
    <glyph glyph-name="uniFB7D" unicode="&#x686;" horiz-adv-x="551" arabic-form="medial" 
d="M-5 0q-5 0 -5 5v33q0 4 5 4h444q-17 22 -28.5 50.5t-20 69.5t-18.5 98q-8 43 -17 78t-24 60t-39.5 38t-63.5 13q-32 0 -65.5 -10.5t-74.5 -33.5l-21 35q40 26 80 38.5t84 12.5q31 0 56.5 -7.5t45.5 -23.5q23 -18 37.5 -42t24.5 -60.5t20 -92.5q11 -68 22 -111.5t23.5 -69
t28.5 -42.5h67q5 0 5 -4v-33q0 -5 -5 -5h-561zM244 -326q-16 0 -25.5 9t-9.5 28t10 28t25 9q16 0 25.5 -9.5t9.5 -27.5t-9.5 -27.5t-25.5 -9.5zM180 -229q-16 0 -26 9t-10 29t10 29.5t26 9.5q18 0 27.5 -10.5t9.5 -28.5q0 -17 -9.5 -27.5t-27.5 -10.5zM308 -229
q-18 0 -27 9.5t-9 28.5t9.5 29t26.5 10q18 0 27 -10.5t9 -28.5q0 -17 -9 -27.5t-27 -10.5z" />
    <glyph glyph-name="uniFB7F" unicode="&#x687;" horiz-adv-x="593" arabic-form="final" 
d="M236 -326q-57 0 -100 22t-67 63t-24 98q0 34 9 62.5t26 53.5q29 44 80.5 77.5t121.5 60.5t154 52q-4 12 -8.5 30.5t-8.5 41.5q-9 62 -29 109.5t-55 74.5t-90 27q-51 0 -96 -15.5t-84 -36.5l-19 37q21 15 52.5 28t68.5 21t74 8q60 0 104 -23.5t73 -76.5t43 -141
q6 -34 14 -66t19 -58q17 -35 40.5 -58t59.5 -23h4q5 0 5 -4v-33q0 -5 -5 -5h-4q-37 0 -64.5 17t-46.5 45.5t-34 62.5q-86 -26 -159.5 -55t-118.5 -68q-42 -31 -61 -66.5t-19 -75.5q0 -69 41.5 -107t114.5 -38zM330 -252q-16 0 -25.5 10t-9.5 26q0 19 10.5 28t23.5 9t24 -8.5
t11 -28.5t-10.5 -28t-23.5 -8zM451 -252q-14 0 -24.5 8.5t-10.5 27.5t10 28t25 9q17 0 25.5 -10.5t8.5 -26.5q0 -15 -9 -25.5t-25 -10.5zM328 -125q-15 0 -24 10.5t-9 27.5q0 18 10.5 26.5t23.5 8.5t24 -7.5t11 -28.5q0 -20 -10.5 -28.5t-25.5 -8.5zM452 -125q-15 0 -25 8.5
t-10 28.5q0 19 10 27.5t25 8.5q17 0 25.5 -10.5t8.5 -25.5q0 -17 -9 -27t-25 -10z" />
    <glyph glyph-name="uniFB80" unicode="&#x687;" horiz-adv-x="558" arabic-form="initial" 
d="M-5 0q-5 0 -5 5v33q0 4 5 4h444q-25 34 -39.5 89.5t-27.5 128.5q-10 58 -24.5 100.5t-41.5 65.5t-78 23q-33 0 -66.5 -11t-74.5 -35l-20 37q40 26 80 38.5t84 12.5q31 0 56.5 -8t45.5 -25q34 -24 51 -68t31 -125q13 -73 24 -116.5t24 -68t30 -41.5v-39h-498zM183 -325
q-16 0 -25.5 10t-9.5 26q0 19 10.5 28t23.5 9t24 -8.5t11 -28.5t-10.5 -28t-23.5 -8zM304 -325q-14 0 -24.5 8.5t-10.5 27.5t10 28t25 9q17 0 25.5 -10.5t8.5 -26.5q0 -15 -9 -25.5t-25 -10.5zM181 -198q-15 0 -24 10.5t-9 27.5q0 18 10.5 26.5t23.5 8.5t24 -7.5t11 -28.5
q0 -20 -10.5 -28.5t-25.5 -8.5zM305 -198q-15 0 -25 8.5t-10 28.5q0 19 10 27.5t25 8.5q17 0 25.5 -10.5t8.5 -25.5q0 -17 -9 -27t-25 -10z" />
    <glyph glyph-name="uniFB81" unicode="&#x687;" horiz-adv-x="551" arabic-form="medial" 
d="M-5 0q-5 0 -5 5v33q0 4 5 4h444q-17 22 -28.5 50.5t-20 69.5t-18.5 98q-8 43 -17 78t-24 60t-39.5 38t-63.5 13q-32 0 -65.5 -10.5t-74.5 -33.5l-21 35q40 26 80 38.5t84 12.5q31 0 56.5 -7.5t45.5 -23.5q23 -18 37.5 -42t24.5 -60.5t20 -92.5q11 -68 22 -111.5t23.5 -69
t28.5 -42.5h67q5 0 5 -4v-33q0 -5 -5 -5h-561zM183 -325q-16 0 -25.5 10t-9.5 26q0 19 10.5 28t23.5 9t24 -8.5t11 -28.5t-10.5 -28t-23.5 -8zM304 -325q-14 0 -24.5 8.5t-10.5 27.5t10 28t25 9q17 0 25.5 -10.5t8.5 -26.5q0 -15 -9 -25.5t-25 -10.5zM181 -198
q-15 0 -24 10.5t-9 27.5q0 18 10.5 26.5t23.5 8.5t24 -7.5t11 -28.5q0 -20 -10.5 -28.5t-25.5 -8.5zM305 -198q-15 0 -25 8.5t-10 28.5q0 19 10 27.5t25 8.5q17 0 25.5 -10.5t8.5 -25.5q0 -17 -9 -27t-25 -10z" />
    <glyph glyph-name="uniFB83" unicode="&#x68d;" horiz-adv-x="512" arabic-form="final" 
d="M45 42h330q-3 40 -11 80t-21 79q-29 91 -76.5 162t-119.5 124l18 38q71 -43 124 -115t87 -166t44 -202h97q5 0 5 -4v-33q0 -5 -5 -5h-472v42zM161 -139q-15 0 -25.5 9t-10.5 30q0 20 10.5 29t25.5 9q14 0 25 -8.5t11 -29.5t-10 -30t-26 -9zM294 -139q-17 0 -26.5 9.5
t-9.5 29.5q0 19 9.5 28.5t26.5 9.5q16 0 26 -9.5t10 -28.5t-10 -29t-26 -10z" />
    <glyph glyph-name="uniFB85" unicode="&#x68c;" horiz-adv-x="512" arabic-form="final" 
d="M45 42h330q-3 40 -11 80t-21 79q-29 91 -76.5 162t-119.5 124l18 38q71 -43 124 -115t87 -166t44 -202h97q5 0 5 -4v-33q0 -5 -5 -5h-472v42zM125 632q-14 0 -25.5 8t-11.5 31q0 22 11.5 30.5t25.5 8.5q17 0 26.5 -10t9.5 -30q0 -18 -9.5 -28t-26.5 -10zM253 632
q-18 0 -27.5 10t-9.5 28q0 20 10 30t27 10t26.5 -11t9.5 -29q0 -17 -9 -27.5t-27 -10.5z" />
    <glyph glyph-name="uniFB87" unicode="&#x68e;" horiz-adv-x="512" arabic-form="final" 
d="M45 42h330q-3 40 -11 80t-21 79q-29 91 -76.5 162t-119.5 124l18 38q71 -43 124 -115t87 -166t44 -202h97q5 0 5 -4v-33q0 -5 -5 -5h-472v42zM188 700q-16 0 -25.5 9.5t-9.5 27.5t9.5 27.5t25.5 9.5t25.5 -9t9.5 -28t-10 -28t-25 -9zM125 599q-16 0 -26.5 10t-10.5 29
t10 28.5t27 9.5t26.5 -10t9.5 -29q0 -18 -9.5 -28t-26.5 -10zM253 599q-17 0 -27 10.5t-10 28.5t9.5 28t27.5 10q17 0 26.5 -10t9.5 -29q0 -18 -9.5 -28t-26.5 -10z" />
    <glyph glyph-name="uniFB89" unicode="&#x688;" horiz-adv-x="512" arabic-form="final" 
d="M45 42h330q-3 40 -11 80t-21 79q-29 91 -76.5 162t-119.5 124l18 38q71 -43 124 -115t87 -166t44 -202h97q5 0 5 -4v-33q0 -5 -5 -5h-472v42zM93 655h17v173h25v-124q11 27 30.5 48t50.5 21q30 0 47 -20.5t17 -62.5v-61h-187v26zM255 655v29q0 32 -10 47t-33 15
q-22 0 -41.5 -18.5t-35.5 -61.5v-11h120z" />
    <glyph glyph-name="uniFB8B" unicode="&#x698;" horiz-adv-x="312" arabic-form="final" 
d="M198 0v-43q0 -65 -16.5 -109t-49.5 -66.5t-81 -22.5q-25 0 -45.5 6.5t-40.5 17.5l18 35q14 -7 30 -12t37 -5q54 0 79 39.5t25 111.5v526h44v-436h119q5 0 5 -4v-33q0 -5 -5 -5h-119zM164 673q-16 0 -25.5 9.5t-9.5 27.5t9.5 27.5t25.5 9.5t25.5 -9t9.5 -28t-10 -28
t-25 -9zM101 572q-16 0 -26.5 10t-10.5 29t10 28.5t27 9.5t26.5 -10t9.5 -29q0 -18 -9.5 -28t-26.5 -10zM229 572q-17 0 -27 10.5t-10 28.5t9.5 28t27.5 10q17 0 26.5 -10t9.5 -29q0 -18 -9.5 -28t-26.5 -10z" />
    <glyph glyph-name="uniFB8D" unicode="&#x691;" horiz-adv-x="312" arabic-form="final" 
d="M198 0v-43q0 -65 -16.5 -109t-49.5 -66.5t-81 -22.5q-25 0 -45.5 6.5t-40.5 17.5l18 35q14 -7 30 -12t37 -5q54 0 79 39.5t25 111.5v526h44v-436h119q5 0 5 -4v-33q0 -5 -5 -5h-119zM69 628h17v173h25v-124q11 27 30.5 48t50.5 21q30 0 47 -20.5t17 -62.5v-61h-187v26z
M231 628v29q0 32 -10 47t-33 15q-22 0 -41.5 -18.5t-35.5 -61.5v-11h120z" />
    <glyph glyph-name="uni06A9.fina" unicode="&#x6a9;" horiz-adv-x="805" arabic-form="final" 
d="M219 0q-73 0 -113.5 41t-40.5 123q0 28 4 59.5t13 63.5h42q-7 -32 -11 -62t-4 -57q0 -61 27.5 -93.5t81.5 -32.5h419v213q0 87 -48 122t-147 35h-174v43q17 39 38.5 74.5t51.5 73.5q56 68 124 118t124 74l17 -40q-47 -21 -95 -54.5t-90.5 -74.5t-75.5 -85.5t-49 -86.5
h129q117 0 178 -45.5t61 -146.5v-220h129q5 0 5 -4v-33q0 -5 -5 -5h-591z" />
    <glyph glyph-name="uniFB90" unicode="&#x6a9;" horiz-adv-x="553" arabic-form="initial" 
d="M-5 0q-5 0 -5 5v33q0 4 5 4h439v214q0 86 -48 121t-147 35h-174v43q17 39 38.5 74.5t52.5 73.5q56 68 123.5 118t123.5 74l17 -40q-47 -21 -95 -54.5t-90.5 -74.5t-75 -85.5t-49.5 -86.5h129q117 0 178 -45.5t61 -146.5v-262h-483z" />
    <glyph glyph-name="uniFB91" unicode="&#x6a9;" horiz-adv-x="603" arabic-form="medial" 
d="M-5 0q-5 0 -5 5v33q0 4 5 4h439v215q0 85 -48 120t-147 35h-174v43q17 39 38.5 74.5t52.5 73.5q56 68 123.5 118t123.5 74l17 -40q-47 -21 -95 -54.5t-90.5 -74.5t-75 -85.5t-49.5 -86.5h129q117 0 178 -45.5t61 -146.5v-220h130q5 0 5 -4v-33q0 -5 -5 -5h-613z" />
    <glyph glyph-name="uniFB93" unicode="&#x6af;" horiz-adv-x="805" arabic-form="final" 
d="M219 0q-73 0 -113.5 41t-40.5 123q0 28 4 59.5t13 63.5h42q-7 -32 -11 -62t-4 -57q0 -61 27.5 -93.5t81.5 -32.5h419v213q0 87 -48 122t-147 35h-174v43q17 39 38.5 74.5t51.5 73.5q56 68 124 118t124 74l17 -40q-47 -21 -95 -54.5t-90.5 -74.5t-75.5 -85.5t-49 -86.5
h129q117 0 178 -45.5t61 -146.5v-220h129q5 0 5 -4v-33q0 -5 -5 -5h-591zM248 594q24 42 58 83.5t75 79t86 68t90 50.5l14 -35q-42 -18 -86.5 -48.5t-86 -68.5t-76 -79.5t-57.5 -81.5z" />
    <glyph glyph-name="uniFB94" unicode="&#x6af;" horiz-adv-x="553" arabic-form="initial" 
d="M-5 0q-5 0 -5 5v33q0 4 5 4h439v214q0 86 -48 121t-147 35h-174v43q17 39 38.5 74.5t52.5 73.5q56 68 123.5 118t123.5 74l17 -40q-47 -21 -95 -54.5t-90.5 -74.5t-75 -85.5t-49.5 -86.5h129q117 0 178 -45.5t61 -146.5v-262h-483zM45 594q24 42 58 83.5t75 79t86 68
t90 50.5l14 -35q-42 -18 -86.5 -48.5t-86 -68.5t-76 -79.5t-57.5 -81.5z" />
    <glyph glyph-name="uniFB95" unicode="&#x6af;" horiz-adv-x="603" arabic-form="medial" 
d="M-5 0q-5 0 -5 5v33q0 4 5 4h439v215q0 85 -48 120t-147 35h-174v43q17 39 38.5 74.5t52.5 73.5q56 68 123.5 118t123.5 74l17 -40q-47 -21 -95 -54.5t-90.5 -74.5t-75 -85.5t-49.5 -86.5h129q117 0 178 -45.5t61 -146.5v-220h130q5 0 5 -4v-33q0 -5 -5 -5h-613zM45 594
q24 42 58 83.5t75 79t86 68t90 50.5l14 -35q-42 -18 -86.5 -48.5t-86 -68.5t-76 -79.5t-57.5 -81.5z" />
    <glyph glyph-name="uniFB97" unicode="&#x6b3;" horiz-adv-x="805" arabic-form="final" 
d="M219 0q-73 0 -113.5 41t-40.5 123q0 28 4 59.5t13 63.5h42q-7 -32 -11 -62t-4 -57q0 -61 27.5 -93.5t81.5 -32.5h419v213q0 87 -48 122t-147 35h-174v43q17 39 38.5 74.5t51.5 73.5q56 68 124 118t124 74l17 -40q-47 -21 -95 -54.5t-90.5 -74.5t-75.5 -85.5t-49 -86.5
h129q117 0 178 -45.5t61 -146.5v-220h129q5 0 5 -4v-33q0 -5 -5 -5h-591zM248 594q24 42 58 83.5t75 79t86 68t90 50.5l14 -35q-42 -18 -86.5 -48.5t-86 -68.5t-76 -79.5t-57.5 -81.5zM387 -306q-18 0 -27 10.5t-9 29.5q0 18 9.5 28.5t26.5 10.5q18 0 27 -11t9 -29
q0 -17 -8.5 -28t-27.5 -11zM387 -174q-18 0 -27 10.5t-9 29.5t9.5 29t26.5 10q19 0 27.5 -11t8.5 -28t-8.5 -28.5t-27.5 -11.5z" />
    <glyph glyph-name="uniFB98" unicode="&#x6b3;" horiz-adv-x="553" arabic-form="initial" 
d="M-5 0q-5 0 -5 5v33q0 4 5 4h439v214q0 86 -48 121t-147 35h-174v43q17 39 38.5 74.5t52.5 73.5q56 68 123.5 118t123.5 74l17 -40q-47 -21 -95 -54.5t-90.5 -74.5t-75 -85.5t-49.5 -86.5h129q117 0 178 -45.5t61 -146.5v-262h-483zM45 594q24 42 58 83.5t75 79t86 68
t90 50.5l14 -35q-42 -18 -86.5 -48.5t-86 -68.5t-76 -79.5t-57.5 -81.5zM277 -306q-18 0 -27 10.5t-9 29.5q0 18 9.5 28.5t26.5 10.5q18 0 27 -11t9 -29q0 -17 -8.5 -28t-27.5 -11zM277 -174q-18 0 -27 10.5t-9 29.5t9.5 29t26.5 10q19 0 27.5 -11t8.5 -28t-8.5 -28.5
t-27.5 -11.5z" />
    <glyph glyph-name="uniFB99" unicode="&#x6b3;" horiz-adv-x="603" arabic-form="medial" 
d="M-5 0q-5 0 -5 5v33q0 4 5 4h439v215q0 85 -48 120t-147 35h-174v43q17 39 38.5 74.5t52.5 73.5q56 68 123.5 118t123.5 74l17 -40q-47 -21 -95 -54.5t-90.5 -74.5t-75 -85.5t-49.5 -86.5h129q117 0 178 -45.5t61 -146.5v-220h130q5 0 5 -4v-33q0 -5 -5 -5h-613zM45 594
q24 42 58 83.5t75 79t86 68t90 50.5l14 -35q-42 -18 -86.5 -48.5t-86 -68.5t-76 -79.5t-57.5 -81.5zM279 -306q-18 0 -27 10.5t-9 29.5q0 18 9.5 28.5t26.5 10.5q18 0 27 -11t9 -29q0 -17 -8.5 -28t-27.5 -11zM279 -174q-18 0 -27 10.5t-9 29.5t9.5 29t26.5 10
q19 0 27.5 -11t8.5 -28t-8.5 -28.5t-27.5 -11.5z" />
    <glyph glyph-name="uniFB9B" unicode="&#x6b1;" horiz-adv-x="805" arabic-form="final" 
d="M219 0q-73 0 -113.5 41t-40.5 123q0 28 4 59.5t13 63.5h42q-7 -32 -11 -62t-4 -57q0 -61 27.5 -93.5t81.5 -32.5h419v213q0 87 -48 122t-147 35h-174v43q17 39 38.5 74.5t51.5 73.5q56 68 124 118t124 74l17 -40q-47 -21 -95 -54.5t-90.5 -74.5t-75.5 -85.5t-49 -86.5
h129q117 0 178 -45.5t61 -146.5v-220h129q5 0 5 -4v-33q0 -5 -5 -5h-591zM248 594q24 42 58 83.5t75 79t86 68t90 50.5l14 -35q-42 -18 -86.5 -48.5t-86 -68.5t-76 -79.5t-57.5 -81.5zM249 705q-9 0 -17 5.5t-12.5 14t-4.5 16.5q0 14 10 22.5t22 8.5q9 0 16.5 -5t12 -12.5
t4.5 -15.5q0 -14 -10 -24t-21 -10zM341 786q-9 0 -16 5t-11.5 13t-4.5 16q0 14 10.5 23t21.5 9q12 0 22 -10t10 -25t-10.5 -23t-21.5 -8z" />
    <glyph glyph-name="uniFB9C" unicode="&#x6b1;" horiz-adv-x="553" arabic-form="initial" 
d="M-5 0q-5 0 -5 5v33q0 4 5 4h439v214q0 86 -48 121t-147 35h-174v43q17 39 38.5 74.5t52.5 73.5q56 68 123.5 118t123.5 74l17 -40q-47 -21 -95 -54.5t-90.5 -74.5t-75 -85.5t-49.5 -86.5h129q117 0 178 -45.5t61 -146.5v-262h-483zM45 594q24 42 58 83.5t75 79t86 68
t90 50.5l14 -35q-42 -18 -86.5 -48.5t-86 -68.5t-76 -79.5t-57.5 -81.5zM46 705q-9 0 -17 5.5t-12.5 14t-4.5 16.5q0 14 10 22.5t22 8.5q9 0 16.5 -5t12 -12.5t4.5 -15.5q0 -14 -10 -24t-21 -10zM138 786q-9 0 -16 5t-11.5 13t-4.5 16q0 14 10.5 23t21.5 9q12 0 22 -10
t10 -25t-10.5 -23t-21.5 -8z" />
    <glyph glyph-name="uniFB9D" unicode="&#x6b1;" horiz-adv-x="603" arabic-form="medial" 
d="M-5 0q-5 0 -5 5v33q0 4 5 4h439v215q0 85 -48 120t-147 35h-174v43q17 39 38.5 74.5t52.5 73.5q56 68 123.5 118t123.5 74l17 -40q-47 -21 -95 -54.5t-90.5 -74.5t-75 -85.5t-49.5 -86.5h129q117 0 178 -45.5t61 -146.5v-220h130q5 0 5 -4v-33q0 -5 -5 -5h-613zM45 594
q24 42 58 83.5t75 79t86 68t90 50.5l14 -35q-42 -18 -86.5 -48.5t-86 -68.5t-76 -79.5t-57.5 -81.5zM46 705q-9 0 -17 5.5t-12.5 14t-4.5 16.5q0 14 10 22.5t22 8.5q9 0 16.5 -5t12 -12.5t4.5 -15.5q0 -14 -10 -24t-21 -10zM138 786q-9 0 -16 5t-11.5 13t-4.5 16
q0 14 10.5 23t21.5 9q12 0 22 -10t10 -25t-10.5 -23t-21.5 -8z" />
    <glyph glyph-name="uni06BA.fina" unicode="&#x6ba;" horiz-adv-x="620" arabic-form="final" 
d="M528 0q0 -126 -50.5 -183t-164.5 -57h-70q-33 0 -59 9t-46 24q-37 30 -55 82.5t-18 129.5q0 48 9 99t29 93l42 -1q-16 -35 -25 -83t-9 -101q0 -104 32.5 -157t108.5 -53h61q58 0 96 19t56 62t18 116v479h45v-436h97q5 0 5 -4v-33q0 -5 -5 -5h-97z" />
    <glyph glyph-name="uniFBA1" unicode="&#x6bb;" horiz-adv-x="620" arabic-form="final" 
d="M528 0q0 -126 -50.5 -183t-164.5 -57h-70q-33 0 -59 9t-46 24q-37 30 -55 82.5t-18 129.5q0 48 9 99t29 93l42 -1q-16 -35 -25 -83t-9 -101q0 -104 32.5 -157t108.5 -53h61q58 0 96 19t56 62t18 116v479h45v-436h97q5 0 5 -4v-33q0 -5 -5 -5h-97zM193 454h17v173h25v-124
q11 27 30.5 48t50.5 21q30 0 47 -20.5t17 -62.5v-61h-187v26zM355 454v29q0 32 -10 47t-33 15q-22 0 -41.5 -18.5t-35.5 -61.5v-11h120z" />
    <glyph glyph-name="uniFBA5" unicode="&#x6c0;" horiz-adv-x="562" arabic-form="final" 
d="M294 0q-72 0 -123 26.5t-78.5 76t-27.5 119.5q0 77 30.5 134.5t89 89.5t142.5 32h89v73h44v-509h107q5 0 5 -4v-33q0 -5 -5 -5h-273zM416 42v394h-89q-102 0 -159 -56.5t-57 -155.5q0 -88 47.5 -135t133.5 -47h124zM177 625l46 7q-18 11 -26 28t-8 34q0 40 27 64t70 24
q33 0 55 -14l-12 -28q-8 5 -19.5 8.5t-25.5 3.5q-25 0 -44.5 -16t-19.5 -44q0 -20 11 -34t26 -20q16 3 36 5.5t38 4.5t27 2v-30q-19 -2 -39.5 -4.5t-43 -5t-47 -6.5t-51.5 -9v30z" />
    <glyph glyph-name="uni06C1.fina" unicode="&#x6c1;" horiz-adv-x="557" arabic-form="final" 
d="M55 0q16 35 31 65t30 55t30 46q45 61 102 98t120 54h46v-276h148q5 0 5 -4v-33q0 -5 -5 -5h-194v274q-33 -11 -62.5 -26.5t-53.5 -34.5q-28 -22 -52 -51t-46.5 -68.5t-46.5 -93.5h-52z" />
    <glyph glyph-name="uni06C1.init" unicode="&#x6c1;" horiz-adv-x="285" arabic-form="initial" 
d="M118 -186q-36 0 -61 21t-25 54q0 15 4.5 30t18.5 34.5t42 46.5h-102q-5 0 -5 5v33q0 4 5 4h140v436h46v-478h-38q-69 -65 -69 -100q0 -19 12.5 -31.5t42.5 -12.5h64v-42h-75z" />
    <glyph glyph-name="uni06C1.medi" unicode="&#x6c1;" horiz-adv-x="530" arabic-form="medial" 
d="M535 42q5 0 5 -4v-33q0 -5 -5 -5h-139v-265h-44q-93 0 -156.5 67.5t-77.5 197.5h-123q-5 0 -5 5v33q0 4 5 4h159q2 -37 9.5 -73.5t22.5 -70.5q24 -57 67.5 -89t96.5 -32v265h185z" />
    <glyph glyph-name="uni06BE.fina" unicode="&#x6be;" horiz-adv-x="791" arabic-form="final" 
d="M181 42q-40 22 -62 65.5t-22 97.5q0 56 22.5 97t63 63.5t94.5 22.5q56 0 95 -23t59.5 -70.5t20.5 -119.5v-133h123v205q0 147 -63 214.5t-196 67.5q-31 0 -71 -5t-77 -15l-14 40q22 7 48 12t55 7.5t59 2.5q154 0 229 -81t75 -238v-210h176q5 0 5 -4v-33q0 -5 -5 -5h-731
v42h116zM407 42v122q0 95 -33 137t-102 42q-62 0 -96 -37t-34 -105q0 -46 18.5 -81.5t51.5 -56.5t77 -21h118z" />
    <glyph glyph-name="uniFBAC" unicode="&#x6be;" horiz-adv-x="701" arabic-form="initial" 
d="M171 42q-40 21 -62 65t-22 98q0 56 22.5 97t63 63.5t94.5 22.5q56 0 95 -23t59.5 -70.5t20.5 -119.5v-133h123v205q0 147 -62.5 214.5t-196.5 67.5q-31 0 -71 -5t-77 -15l-14 40q22 7 48 12t55 7.5t59 2.5q154 0 229 -81t75 -238v-252h-615q-5 0 -5 5v33q0 4 5 4h176z
M279 42h118v122q0 96 -33.5 137.5t-101.5 41.5q-62 0 -96 -37t-34 -105q0 -46 18.5 -81.5t52 -56.5t76.5 -21z" />
    <glyph glyph-name="uni06BE.medi" unicode="&#x6be;" horiz-adv-x="738" arabic-form="medial" 
d="M171 42q-40 21 -62 65t-22 98q0 56 22.5 97t63 63.5t94.5 22.5q56 0 95 -23t59.5 -70.5t20.5 -119.5v-133h123v205q0 147 -62.5 214.5t-196.5 67.5q-31 0 -71 -5t-77 -15l-14 40q22 7 48 12t55 7.5t59 2.5q154 0 229 -81t75 -238v-210h133q5 0 5 -4v-33q0 -5 -5 -5h-748
q-5 0 -5 5v33q0 4 5 4h176zM279 42h118v122q0 96 -33.5 137.5t-101.5 41.5q-62 0 -96 -37t-34 -105q0 -46 18.5 -81.5t52 -56.5t76.5 -21z" />
    <glyph glyph-name="uni06D2.fina" unicode="&#x6d2;" horiz-adv-x="367" arabic-form="final" 
d="M373 42q5 0 5 -4v-33q0 -5 -5 -5h-139q-70 0 -106.5 -24t-36.5 -57q0 -27 20.5 -41t67.5 -14h460v-42h-458q-46 0 -76 10.5t-45 32t-15 54.5q0 36 25 63q25 29 69.5 44.5t98.5 15.5h135z" />
    <glyph glyph-name="uniFBB1" unicode="&#x6d3;" horiz-adv-x="367" arabic-form="final" 
d="M373 42q5 0 5 -4v-33q0 -5 -5 -5h-139q-70 0 -106.5 -24t-36.5 -57q0 -27 20.5 -41t67.5 -14h460v-42h-458q-46 0 -76 10.5t-45 32t-15 54.5q0 36 25 63q25 29 69.5 44.5t98.5 15.5h135zM108 182l46 7q-18 11 -26 28t-8 34q0 40 27 64t70 24q33 0 55 -14l-12 -28
q-8 5 -19.5 8.5t-25.5 3.5q-25 0 -44.5 -16t-19.5 -44q0 -20 11 -34t26 -20q16 3 36 5.5t38 4.5t27 2v-30q-19 -2 -39.5 -4.5t-43 -5t-47 -6.5t-51.5 -9v30z" />
    <glyph glyph-name="uniFBD4" unicode="&#x6ad;" horiz-adv-x="764" arabic-form="final" 
d="M244 0q-90 0 -134.5 42t-44.5 122q0 21 2 40t6.5 39t11.5 44h40q-7 -31 -11.5 -58.5t-4.5 -59.5q0 -59 30 -93t100 -34h350v718h45v-718h135q5 0 5 -4v-33q0 -5 -5 -5h-525zM294 322v30h146v8q0 18 -9 24t-31 6h-90v22q13 33 41.5 60t59.5 38l10 -28q-22 -9 -42.5 -26.5
t-32.5 -36.5h54q33 0 51.5 -13.5t18.5 -43.5v-40h-176zM380 645q-14 0 -22.5 8.5t-8.5 23.5q0 16 8 24t23 8q14 0 22 -8t8 -24q0 -17 -8.5 -24.5t-21.5 -7.5zM324 551q-14 0 -22.5 8.5t-8.5 24.5t8.5 24.5t22.5 8.5q16 0 23.5 -8.5t7.5 -24.5t-8 -24.5t-23 -8.5zM437 551
q-15 0 -23.5 9t-8.5 24q0 16 8 24.5t24 8.5q15 0 22.5 -8.5t7.5 -24.5t-8 -24.5t-22 -8.5z" />
    <glyph glyph-name="uniFBD5" unicode="&#x6ad;" horiz-adv-x="553" arabic-form="initial" 
d="M-5 0q-5 0 -5 5v33q0 4 5 4h439v214q0 86 -48 121t-147 35h-174v43q17 39 38.5 74.5t52.5 73.5q56 68 123.5 118t123.5 74l17 -40q-47 -21 -95 -54.5t-90.5 -74.5t-75 -85.5t-49.5 -86.5h129q117 0 178 -45.5t61 -146.5v-262h-483zM64 654q-9 0 -17 5.5t-12.5 14
t-4.5 16.5q0 14 10 22.5t22 8.5q9 0 16.5 -5t12 -12.5t4.5 -15.5q0 -14 -10 -24t-21 -10zM46 775q-14 0 -23.5 11t-9.5 23q0 16 11.5 24.5t21.5 8.5q8 0 15 -5t12 -13t5 -17q0 -14 -9.5 -23t-22.5 -9zM156 735q-9 0 -16 5t-11.5 13t-4.5 16q0 14 10.5 23t21.5 9q12 0 22 -10
t10 -25t-10.5 -23t-21.5 -8z" />
    <glyph glyph-name="uniFBD6" unicode="&#x6ad;" horiz-adv-x="603" arabic-form="medial" 
d="M-5 0q-5 0 -5 5v33q0 4 5 4h439v215q0 85 -48 120t-147 35h-174v43q17 39 38.5 74.5t52.5 73.5q56 68 123.5 118t123.5 74l17 -40q-47 -21 -95 -54.5t-90.5 -74.5t-75 -85.5t-49.5 -86.5h129q117 0 178 -45.5t61 -146.5v-220h130q5 0 5 -4v-33q0 -5 -5 -5h-613zM64 654
q-9 0 -17 5.5t-12.5 14t-4.5 16.5q0 14 10 22.5t22 8.5q9 0 16.5 -5t12 -12.5t4.5 -15.5q0 -14 -10 -24t-21 -10zM46 775q-14 0 -23.5 11t-9.5 23q0 16 11.5 24.5t21.5 8.5q8 0 15 -5t12 -13t5 -17q0 -14 -9.5 -23t-22.5 -9zM156 735q-9 0 -16 5t-11.5 13t-4.5 16
q0 14 10.5 23t21.5 9q12 0 22 -10t10 -25t-10.5 -23t-21.5 -8z" />
    <glyph glyph-name="uniFBD8" unicode="&#x6c7;" horiz-adv-x="527" arabic-form="final" 
d="M532 42q5 0 5 -4v-33q0 -5 -5 -5h-181q-5 0 -5 5v33q0 4 5 4h181zM223 -240q-48 0 -88 15t-70 38l22 34q33 -21 66 -33t75 -12q74 0 117 43t43 111v44h-101q-103 0 -160 57t-57 168q0 75 29.5 131.5t87 89t139.5 32.5h106v-516q0 -94 -55 -148t-154 -54zM388 42v394h-63
q-95 0 -152 -54.5t-57 -157.5q0 -91 43.5 -136.5t130.5 -45.5h98zM193 552l-18 26q24 12 43 26.5t32.5 27t17.5 19.5q-34 12 -55.5 34.5t-21.5 47.5q0 29 20 48.5t54 19.5q28 0 45 -23t17 -56t-13 -60t-34 -48.5t-44 -36.5t-43 -25z" />
    <glyph glyph-name="uniFBDA" unicode="&#x6c6;" horiz-adv-x="527" arabic-form="final" 
d="M532 42q5 0 5 -4v-33q0 -5 -5 -5h-181q-5 0 -5 5v33q0 4 5 4h181zM223 -240q-48 0 -88 15t-70 38l22 34q33 -21 66 -33t75 -12q74 0 117 43t43 111v44h-101q-103 0 -160 57t-57 168q0 75 29.5 131.5t87 89t139.5 32.5h106v-516q0 -94 -55 -148t-154 -54zM388 42v394h-63
q-95 0 -152 -54.5t-57 -157.5q0 -91 43.5 -136.5t130.5 -45.5h98zM379 758l-110 -186h-35l-111 186h44l84 -147l85 147h43z" />
    <glyph glyph-name="uniFBDC" unicode="&#x6c8;" horiz-adv-x="527" arabic-form="final" 
d="M532 42q5 0 5 -4v-33q0 -5 -5 -5h-181q-5 0 -5 5v33q0 4 5 4h181zM223 -240q-48 0 -88 15t-70 38l22 34q33 -21 66 -33t75 -12q74 0 117 43t43 111v44h-101q-103 0 -160 57t-57 168q0 75 29.5 131.5t87 89t139.5 32.5h106v-516q0 -94 -55 -148t-154 -54zM388 42v394h-63
q-95 0 -152 -54.5t-57 -157.5q0 -91 43.5 -136.5t130.5 -45.5h98zM234 757h34v-194h-34v194z" />
    <glyph glyph-name="uniFBDF" unicode="&#x6cb;" horiz-adv-x="527" arabic-form="final" 
d="M532 42q5 0 5 -4v-33q0 -5 -5 -5h-181q-5 0 -5 5v33q0 4 5 4h181zM223 -240q-48 0 -88 15t-70 38l22 34q33 -21 66 -33t75 -12q74 0 117 43t43 111v44h-101q-103 0 -160 57t-57 168q0 75 29.5 131.5t87 89t139.5 32.5h106v-516q0 -94 -55 -148t-154 -54zM388 42v394h-63
q-95 0 -152 -54.5t-57 -157.5q0 -91 43.5 -136.5t130.5 -45.5h98zM251 676q-16 0 -25.5 9.5t-9.5 27.5t9.5 27.5t25.5 9.5t25.5 -9t9.5 -28t-10 -28t-25 -9zM188 575q-16 0 -26.5 10t-10.5 29t10 28.5t27 9.5t26.5 -10t9.5 -29q0 -18 -9.5 -28t-26.5 -10zM316 575
q-17 0 -27 10.5t-10 28.5t9.5 28t27.5 10q17 0 26.5 -10t9.5 -29q0 -18 -9.5 -28t-26.5 -10z" />
    <glyph glyph-name="uni06C5.fina" unicode="&#x6c5;" horiz-adv-x="527" arabic-form="final" 
d="M532 42q5 0 5 -4v-33q0 -5 -5 -5h-181q-5 0 -5 5v33q0 4 5 4h181zM391 42v394h-66q-93 0 -149.5 -54.5t-56.5 -157.5q0 -91 42.5 -136.5t126.5 -45.5h103zM266 -268q37 31 65.5 60t44 63t15.5 77v68h-98q-105 0 -162 57t-57 168q0 75 29.5 131.5t88.5 89t144 32.5h99
v-535q0 -47 -13 -86.5t-44.5 -78t-84.5 -80.5zM389 -143l-52 20q-32 12 -50 17.5t-31 5.5q-10 0 -22 -4t-31 -16l-16 21q21 19 36 26.5t33 7.5q15 0 31.5 -4.5t38.5 -13.5q23 -9 40.5 -15t27.5 -9z" />
    <glyph glyph-name="uniFBE3" unicode="&#x6c9;" horiz-adv-x="527" arabic-form="final" 
d="M532 42q5 0 5 -4v-33q0 -5 -5 -5h-181q-5 0 -5 5v33q0 4 5 4h181zM223 -240q-48 0 -88 15t-70 38l22 34q33 -21 66 -33t75 -12q74 0 117 43t43 111v44h-101q-103 0 -160 57t-57 168q0 75 29.5 131.5t87 89t139.5 32.5h106v-516q0 -94 -55 -148t-154 -54zM388 42v394h-63
q-95 0 -152 -54.5t-57 -157.5q0 -91 43.5 -136.5t130.5 -45.5h98zM122 573l117 186h29l117 -186h-41l-90 147l-92 -147h-40z" />
    <glyph glyph-name="uniFBE5" unicode="&#x6d0;" horiz-adv-x="937" arabic-form="final" 
d="M279 -240q-74 0 -121.5 26t-70.5 79t-23 135q0 55 10.5 99.5t23.5 81.5h42q-12 -39 -21 -81.5t-9 -93.5q0 -71 17 -116t55 -66.5t100 -21.5h170q66 0 107.5 18.5t61.5 46.5t20 56q0 30 -25 45t-77 29q-46 13 -81 26t-54 35t-19 60q0 31 8 56t22 47q22 35 51.5 61t64 40
t69.5 14q22 0 42 -5t36 -15q28 -16 46 -44t39 -71q19 -40 40.5 -74t51.5 -58q23 -17 42 -22t40 -5h5q5 0 5 -4v-33q0 -5 -5 -5h-5q-24 0 -45 5t-41 17t-41 31q-25 21 -42.5 49.5t-32.5 58.5q-18 37 -34 63t-36 42q-13 11 -31 17.5t-39 6.5q-31 0 -61 -15.5t-53 -40.5
t-36.5 -54.5t-13.5 -57.5q0 -22 14.5 -36.5t36 -22.5t41.5 -14q28 -8 51 -15t42 -15q34 -12 52.5 -32.5t18.5 -50.5q0 -80 -60.5 -128t-176.5 -48h-171zM391 -550q-18 0 -27 10.5t-9 29.5q0 18 9.5 28.5t26.5 10.5q18 0 27 -11t9 -29q0 -17 -8.5 -28t-27.5 -11zM391 -418
q-18 0 -27 10.5t-9 29.5t9.5 29t26.5 10q19 0 27.5 -11t8.5 -28t-8.5 -28.5t-27.5 -11.5z" />
    <glyph glyph-name="uniFBE6" unicode="&#x6d0;" horiz-adv-x="361" arabic-form="initial" 
d="M-5 0q-5 0 -5 5v33q0 4 5 4h213v436h46v-478h-259zM167 -292q-18 0 -27 10.5t-9 29.5q0 18 9.5 28.5t26.5 10.5q18 0 27 -11t9 -29q0 -17 -8.5 -28t-27.5 -11zM167 -160q-18 0 -27 10.5t-9 29.5t9.5 29t26.5 10q19 0 27.5 -11t8.5 -28t-8.5 -28.5t-27.5 -11.5z" />
    <glyph glyph-name="uniFBE7" unicode="&#x6d0;" horiz-adv-x="356" arabic-form="medial" 
d="M-5 0q-5 0 -5 5v33q0 4 5 4h169v436h45v-436h152q5 0 5 -4v-33q0 -5 -5 -5h-366zM184 -292q-18 0 -27 10.5t-9 29.5q0 18 9.5 28.5t26.5 10.5q18 0 27 -11t9 -29q0 -17 -8.5 -28t-27.5 -11zM184 -160q-18 0 -27 10.5t-9 29.5t9.5 29t26.5 10q19 0 27.5 -11t8.5 -28
t-8.5 -28.5t-27.5 -11.5z" />
    <glyph glyph-name="uniFBE8" unicode="&#x649;" horiz-adv-x="266" arabic-form="initial" 
d="M-5 0q-5 0 -5 5v33q0 4 5 4h140v436h46v-478h-186z" />
    <glyph glyph-name="uniFBE9" unicode="&#x649;" horiz-adv-x="292" arabic-form="medial" 
d="M-5 0q-5 0 -5 5v33q0 4 5 4h131v436h46v-436h126q4 0 4 -4v-33q0 -5 -5 -5h-302z" />
    <glyph glyph-name="uniFBEA" unicode="&#xfbea;" horiz-adv-x="546" arabic-form="isolated" 
d="M276 0q-5 0 -5 5v33q0 4 5 4h140v436h46v-478h-186zM318 567l46 7q-18 11 -26 28t-8 34q0 40 27 64t70 24q33 0 55 -14l-12 -28q-8 5 -19.5 8.5t-25.5 3.5q-25 0 -44.5 -16t-19.5 -44q0 -20 11 -34t26 -20q16 3 36 5.5t38 4.5t27 2v-30q-19 -2 -39.5 -4.5t-43 -5
t-47 -6.5t-51.5 -9v30zM285 42q6 0 6 -4v-33q0 -5 -5 -5h-186v760h46v-718h139z" />
    <glyph glyph-name="uniFBEB" unicode="&#xfbeb;" horiz-adv-x="573" arabic-form="final" 
d="M276 0q-5 0 -5 5v33q0 4 5 4h131v436h46v-436h126q4 0 4 -4v-33q0 -5 -5 -5h-302zM311 587l46 7q-18 11 -26 28t-8 34q0 40 27 64t70 24q33 0 55 -14l-12 -28q-8 5 -19.5 8.5t-25.5 3.5q-25 0 -44.5 -16t-19.5 -44q0 -20 11 -34t26 -20q16 3 36 5.5t38 4.5t27 2v-30
q-19 -2 -39.5 -4.5t-43 -5t-47 -6.5t-51.5 -9v30zM285 42q6 0 6 -4v-33q0 -5 -5 -5h-186v760h46v-718h139z" />
    <glyph glyph-name="uniFBEC" unicode="&#xfbec;" horiz-adv-x="822" arabic-form="isolated" 
d="M552 0q-5 0 -5 5v33q0 4 5 4h140v436h46v-478h-186zM594 567l46 7q-18 11 -26 28t-8 34q0 40 27 64t70 24q33 0 55 -14l-12 -28q-8 5 -19.5 8.5t-25.5 3.5q-25 0 -44.5 -16t-19.5 -44q0 -20 11 -34t26 -20q16 3 36 5.5t38 4.5t27 2v-30q-19 -2 -39.5 -4.5t-43 -5
t-47 -6.5t-51.5 -9v30zM55 0q16 35 31 65t30 55t30 46q45 61 102 98t120 54h46v-276h148q5 0 5 -4v-33q0 -5 -5 -5h-194v274q-33 -11 -62.5 -26.5t-53.5 -34.5q-28 -22 -52 -51t-46.5 -68.5t-46.5 -93.5h-52z" />
    <glyph glyph-name="uniFBED" unicode="&#xfbed;" horiz-adv-x="849" arabic-form="final" 
d="M552 0q-5 0 -5 5v33q0 4 5 4h131v436h46v-436h126q4 0 4 -4v-33q0 -5 -5 -5h-302zM587 587l46 7q-18 11 -26 28t-8 34q0 40 27 64t70 24q33 0 55 -14l-12 -28q-8 5 -19.5 8.5t-25.5 3.5q-25 0 -44.5 -16t-19.5 -44q0 -20 11 -34t26 -20q16 3 36 5.5t38 4.5t27 2v-30
q-19 -2 -39.5 -4.5t-43 -5t-47 -6.5t-51.5 -9v30zM55 0q16 35 31 65t30 55t30 46q45 61 102 98t120 54h46v-276h148q5 0 5 -4v-33q0 -5 -5 -5h-194v274q-33 -11 -62.5 -26.5t-53.5 -34.5q-28 -22 -52 -51t-46.5 -68.5t-46.5 -93.5h-52z" />
    <glyph glyph-name="uniFBEE" unicode="&#xfbee;" horiz-adv-x="793" arabic-form="isolated" 
d="M522 0q-5 0 -5 5v33q0 4 5 4h140v436h46v-478h-186zM564 567l46 7q-18 11 -26 28t-8 34q0 40 27 64t70 24q33 0 55 -14l-12 -28q-8 5 -19.5 8.5t-25.5 3.5q-25 0 -44.5 -16t-19.5 -44q0 -20 11 -34t26 -20q16 3 36 5.5t38 4.5t27 2v-30q-19 -2 -39.5 -4.5t-43 -5
t-47 -6.5t-51.5 -9v30zM532 42q5 0 5 -4v-33q0 -5 -5 -5h-181q-5 0 -5 5v33q0 4 5 4h181zM223 -240q-48 0 -88 15t-70 38l22 34q33 -21 66 -33t75 -12q74 0 117 43t43 111v44h-101q-103 0 -160 57t-57 168q0 75 29.5 131.5t87 89t139.5 32.5h106v-516q0 -94 -55 -148
t-154 -54zM388 42v394h-63q-95 0 -152 -54.5t-57 -157.5q0 -91 43.5 -136.5t130.5 -45.5h98z" />
    <glyph glyph-name="uniFBEF" unicode="&#xfbef;" horiz-adv-x="819" arabic-form="final" 
d="M522 0q-5 0 -5 5v33q0 4 5 4h131v436h46v-436h126q4 0 4 -4v-33q0 -5 -5 -5h-302zM557 587l46 7q-18 11 -26 28t-8 34q0 40 27 64t70 24q33 0 55 -14l-12 -28q-8 5 -19.5 8.5t-25.5 3.5q-25 0 -44.5 -16t-19.5 -44q0 -20 11 -34t26 -20q16 3 36 5.5t38 4.5t27 2v-30
q-19 -2 -39.5 -4.5t-43 -5t-47 -6.5t-51.5 -9v30zM532 42q5 0 5 -4v-33q0 -5 -5 -5h-181q-5 0 -5 5v33q0 4 5 4h181zM223 -240q-48 0 -88 15t-70 38l22 34q33 -21 66 -33t75 -12q74 0 117 43t43 111v44h-101q-103 0 -160 57t-57 168q0 75 29.5 131.5t87 89t139.5 32.5h106
v-516q0 -94 -55 -148t-154 -54zM388 42v394h-63q-95 0 -152 -54.5t-57 -157.5q0 -91 43.5 -136.5t130.5 -45.5h98z" />
    <glyph glyph-name="uniFBF0" unicode="&#xfbf0;" horiz-adv-x="793" arabic-form="isolated" 
d="M522 0q-5 0 -5 5v33q0 4 5 4h140v436h46v-478h-186zM564 567l46 7q-18 11 -26 28t-8 34q0 40 27 64t70 24q33 0 55 -14l-12 -28q-8 5 -19.5 8.5t-25.5 3.5q-25 0 -44.5 -16t-19.5 -44q0 -20 11 -34t26 -20q16 3 36 5.5t38 4.5t27 2v-30q-19 -2 -39.5 -4.5t-43 -5
t-47 -6.5t-51.5 -9v30zM532 42q5 0 5 -4v-33q0 -5 -5 -5h-181q-5 0 -5 5v33q0 4 5 4h181zM223 -240q-48 0 -88 15t-70 38l22 34q33 -21 66 -33t75 -12q74 0 117 43t43 111v44h-101q-103 0 -160 57t-57 168q0 75 29.5 131.5t87 89t139.5 32.5h106v-516q0 -94 -55 -148
t-154 -54zM388 42v394h-63q-95 0 -152 -54.5t-57 -157.5q0 -91 43.5 -136.5t130.5 -45.5h98zM193 552l-18 26q24 12 43 26.5t32.5 27t17.5 19.5q-34 12 -55.5 34.5t-21.5 47.5q0 29 20 48.5t54 19.5q28 0 45 -23t17 -56t-13 -60t-34 -48.5t-44 -36.5t-43 -25z" />
    <glyph glyph-name="uniFBF1" unicode="&#xfbf1;" horiz-adv-x="819" arabic-form="final" 
d="M522 0q-5 0 -5 5v33q0 4 5 4h131v436h46v-436h126q4 0 4 -4v-33q0 -5 -5 -5h-302zM557 587l46 7q-18 11 -26 28t-8 34q0 40 27 64t70 24q33 0 55 -14l-12 -28q-8 5 -19.5 8.5t-25.5 3.5q-25 0 -44.5 -16t-19.5 -44q0 -20 11 -34t26 -20q16 3 36 5.5t38 4.5t27 2v-30
q-19 -2 -39.5 -4.5t-43 -5t-47 -6.5t-51.5 -9v30zM532 42q5 0 5 -4v-33q0 -5 -5 -5h-181q-5 0 -5 5v33q0 4 5 4h181zM223 -240q-48 0 -88 15t-70 38l22 34q33 -21 66 -33t75 -12q74 0 117 43t43 111v44h-101q-103 0 -160 57t-57 168q0 75 29.5 131.5t87 89t139.5 32.5h106
v-516q0 -94 -55 -148t-154 -54zM388 42v394h-63q-95 0 -152 -54.5t-57 -157.5q0 -91 43.5 -136.5t130.5 -45.5h98zM193 552l-18 26q24 12 43 26.5t32.5 27t17.5 19.5q-34 12 -55.5 34.5t-21.5 47.5q0 29 20 48.5t54 19.5q28 0 45 -23t17 -56t-13 -60t-34 -48.5t-44 -36.5
t-43 -25z" />
    <glyph glyph-name="uniFBF2" unicode="&#xfbf2;" horiz-adv-x="793" arabic-form="isolated" 
d="M522 0q-5 0 -5 5v33q0 4 5 4h140v436h46v-478h-186zM564 567l46 7q-18 11 -26 28t-8 34q0 40 27 64t70 24q33 0 55 -14l-12 -28q-8 5 -19.5 8.5t-25.5 3.5q-25 0 -44.5 -16t-19.5 -44q0 -20 11 -34t26 -20q16 3 36 5.5t38 4.5t27 2v-30q-19 -2 -39.5 -4.5t-43 -5
t-47 -6.5t-51.5 -9v30zM532 42q5 0 5 -4v-33q0 -5 -5 -5h-181q-5 0 -5 5v33q0 4 5 4h181zM223 -240q-48 0 -88 15t-70 38l22 34q33 -21 66 -33t75 -12q74 0 117 43t43 111v44h-101q-103 0 -160 57t-57 168q0 75 29.5 131.5t87 89t139.5 32.5h106v-516q0 -94 -55 -148
t-154 -54zM388 42v394h-63q-95 0 -152 -54.5t-57 -157.5q0 -91 43.5 -136.5t130.5 -45.5h98zM379 758l-110 -186h-35l-111 186h44l84 -147l85 147h43z" />
    <glyph glyph-name="uniFBF3" unicode="&#xfbf3;" horiz-adv-x="819" arabic-form="final" 
d="M522 0q-5 0 -5 5v33q0 4 5 4h131v436h46v-436h126q4 0 4 -4v-33q0 -5 -5 -5h-302zM557 587l46 7q-18 11 -26 28t-8 34q0 40 27 64t70 24q33 0 55 -14l-12 -28q-8 5 -19.5 8.5t-25.5 3.5q-25 0 -44.5 -16t-19.5 -44q0 -20 11 -34t26 -20q16 3 36 5.5t38 4.5t27 2v-30
q-19 -2 -39.5 -4.5t-43 -5t-47 -6.5t-51.5 -9v30zM532 42q5 0 5 -4v-33q0 -5 -5 -5h-181q-5 0 -5 5v33q0 4 5 4h181zM223 -240q-48 0 -88 15t-70 38l22 34q33 -21 66 -33t75 -12q74 0 117 43t43 111v44h-101q-103 0 -160 57t-57 168q0 75 29.5 131.5t87 89t139.5 32.5h106
v-516q0 -94 -55 -148t-154 -54zM388 42v394h-63q-95 0 -152 -54.5t-57 -157.5q0 -91 43.5 -136.5t130.5 -45.5h98zM379 758l-110 -186h-35l-111 186h44l84 -147l85 147h43z" />
    <glyph glyph-name="uniFBF4" unicode="&#xfbf4;" horiz-adv-x="793" arabic-form="isolated" 
d="M522 0q-5 0 -5 5v33q0 4 5 4h140v436h46v-478h-186zM564 567l46 7q-18 11 -26 28t-8 34q0 40 27 64t70 24q33 0 55 -14l-12 -28q-8 5 -19.5 8.5t-25.5 3.5q-25 0 -44.5 -16t-19.5 -44q0 -20 11 -34t26 -20q16 3 36 5.5t38 4.5t27 2v-30q-19 -2 -39.5 -4.5t-43 -5
t-47 -6.5t-51.5 -9v30zM532 42q5 0 5 -4v-33q0 -5 -5 -5h-181q-5 0 -5 5v33q0 4 5 4h181zM223 -240q-48 0 -88 15t-70 38l22 34q33 -21 66 -33t75 -12q74 0 117 43t43 111v44h-101q-103 0 -160 57t-57 168q0 75 29.5 131.5t87 89t139.5 32.5h106v-516q0 -94 -55 -148
t-154 -54zM388 42v394h-63q-95 0 -152 -54.5t-57 -157.5q0 -91 43.5 -136.5t130.5 -45.5h98zM234 757h34v-194h-34v194z" />
    <glyph glyph-name="uniFBF5" unicode="&#xfbf5;" horiz-adv-x="819" arabic-form="final" 
d="M522 0q-5 0 -5 5v33q0 4 5 4h131v436h46v-436h126q4 0 4 -4v-33q0 -5 -5 -5h-302zM557 587l46 7q-18 11 -26 28t-8 34q0 40 27 64t70 24q33 0 55 -14l-12 -28q-8 5 -19.5 8.5t-25.5 3.5q-25 0 -44.5 -16t-19.5 -44q0 -20 11 -34t26 -20q16 3 36 5.5t38 4.5t27 2v-30
q-19 -2 -39.5 -4.5t-43 -5t-47 -6.5t-51.5 -9v30zM532 42q5 0 5 -4v-33q0 -5 -5 -5h-181q-5 0 -5 5v33q0 4 5 4h181zM223 -240q-48 0 -88 15t-70 38l22 34q33 -21 66 -33t75 -12q74 0 117 43t43 111v44h-101q-103 0 -160 57t-57 168q0 75 29.5 131.5t87 89t139.5 32.5h106
v-516q0 -94 -55 -148t-154 -54zM388 42v394h-63q-95 0 -152 -54.5t-57 -157.5q0 -91 43.5 -136.5t130.5 -45.5h98zM234 757h34v-194h-34v194z" />
    <glyph glyph-name="uniFBF6" unicode="&#xfbf6;" horiz-adv-x="1202" arabic-form="isolated" 
d="M932 0q-5 0 -5 5v33q0 4 5 4h140v436h46v-478h-186zM974 567l46 7q-18 11 -26 28t-8 34q0 40 27 64t70 24q33 0 55 -14l-12 -28q-8 5 -19.5 8.5t-25.5 3.5q-25 0 -44.5 -16t-19.5 -44q0 -20 11 -34t26 -20q16 3 36 5.5t38 4.5t27 2v-30q-19 -2 -39.5 -4.5t-43 -5
t-47 -6.5t-51.5 -9v30zM279 -240q-74 0 -121.5 26t-70.5 79t-23 135q0 55 10.5 99.5t23.5 81.5h42q-12 -39 -21 -81.5t-9 -93.5q0 -71 17 -116t55 -66.5t100 -21.5h170q66 0 107.5 18.5t61.5 46.5t20 56q0 30 -25 45t-77 29q-46 13 -81 26t-54 35t-19 60q0 31 8 56t22 47
q22 35 51.5 61t64 40t69.5 14q22 0 42 -5t36 -15q28 -16 46 -44t39 -71q19 -40 40.5 -74t51.5 -58q23 -17 42 -22t40 -5h5q5 0 5 -4v-33q0 -5 -5 -5h-5q-24 0 -45 5t-41 17t-41 31q-25 21 -42.5 49.5t-32.5 58.5q-18 37 -34 63t-36 42q-13 11 -31 17.5t-39 6.5
q-31 0 -61 -15.5t-53 -40.5t-36.5 -54.5t-13.5 -57.5q0 -22 14.5 -36.5t36 -22.5t41.5 -14q28 -8 51 -15t42 -15q34 -12 52.5 -32.5t18.5 -50.5q0 -80 -60.5 -128t-176.5 -48h-171zM391 -550q-18 0 -27 10.5t-9 29.5q0 18 9.5 28.5t26.5 10.5q18 0 27 -11t9 -29
q0 -17 -8.5 -28t-27.5 -11zM391 -418q-18 0 -27 10.5t-9 29.5t9.5 29t26.5 10q19 0 27.5 -11t8.5 -28t-8.5 -28.5t-27.5 -11.5z" />
    <glyph glyph-name="uniFBF7" unicode="&#xfbf7;" horiz-adv-x="1229" arabic-form="final" 
d="M932 0q-5 0 -5 5v33q0 4 5 4h131v436h46v-436h126q4 0 4 -4v-33q0 -5 -5 -5h-302zM967 587l46 7q-18 11 -26 28t-8 34q0 40 27 64t70 24q33 0 55 -14l-12 -28q-8 5 -19.5 8.5t-25.5 3.5q-25 0 -44.5 -16t-19.5 -44q0 -20 11 -34t26 -20q16 3 36 5.5t38 4.5t27 2v-30
q-19 -2 -39.5 -4.5t-43 -5t-47 -6.5t-51.5 -9v30zM279 -240q-74 0 -121.5 26t-70.5 79t-23 135q0 55 10.5 99.5t23.5 81.5h42q-12 -39 -21 -81.5t-9 -93.5q0 -71 17 -116t55 -66.5t100 -21.5h170q66 0 107.5 18.5t61.5 46.5t20 56q0 30 -25 45t-77 29q-46 13 -81 26t-54 35
t-19 60q0 31 8 56t22 47q22 35 51.5 61t64 40t69.5 14q22 0 42 -5t36 -15q28 -16 46 -44t39 -71q19 -40 40.5 -74t51.5 -58q23 -17 42 -22t40 -5h5q5 0 5 -4v-33q0 -5 -5 -5h-5q-24 0 -45 5t-41 17t-41 31q-25 21 -42.5 49.5t-32.5 58.5q-18 37 -34 63t-36 42
q-13 11 -31 17.5t-39 6.5q-31 0 -61 -15.5t-53 -40.5t-36.5 -54.5t-13.5 -57.5q0 -22 14.5 -36.5t36 -22.5t41.5 -14q28 -8 51 -15t42 -15q34 -12 52.5 -32.5t18.5 -50.5q0 -80 -60.5 -128t-176.5 -48h-171zM391 -550q-18 0 -27 10.5t-9 29.5q0 18 9.5 28.5t26.5 10.5
q18 0 27 -11t9 -29q0 -17 -8.5 -28t-27.5 -11zM391 -418q-18 0 -27 10.5t-9 29.5t9.5 29t26.5 10q19 0 27.5 -11t8.5 -28t-8.5 -28.5t-27.5 -11.5z" />
    <glyph glyph-name="uniFBF8" unicode="&#xfbf8;" horiz-adv-x="621" arabic-form="initial" 
d="M351 0q-5 0 -5 5v33q0 4 5 4h140v436h46v-478h-186zM393 567l46 7q-18 11 -26 28t-8 34q0 40 27 64t70 24q33 0 55 -14l-12 -28q-8 5 -19.5 8.5t-25.5 3.5q-25 0 -44.5 -16t-19.5 -44q0 -20 11 -34t26 -20q16 3 36 5.5t38 4.5t27 2v-30q-19 -2 -39.5 -4.5t-43 -5
t-47 -6.5t-51.5 -9v30zM-5 0q-5 0 -5 5v33q0 4 5 4h169v436h45v-436h152q5 0 5 -4v-33q0 -5 -5 -5h-366zM184 -292q-18 0 -27 10.5t-9 29.5q0 18 9.5 28.5t26.5 10.5q18 0 27 -11t9 -29q0 -17 -8.5 -28t-27.5 -11zM184 -160q-18 0 -27 10.5t-9 29.5t9.5 29t26.5 10
q19 0 27.5 -11t8.5 -28t-8.5 -28.5t-27.5 -11.5z" />
    <glyph glyph-name="uniFBF9" unicode="&#xfbf9;" horiz-adv-x="1202" arabic-form="isolated" 
d="M932 0q-5 0 -5 5v33q0 4 5 4h140v436h46v-478h-186zM974 567l46 7q-18 11 -26 28t-8 34q0 40 27 64t70 24q33 0 55 -14l-12 -28q-8 5 -19.5 8.5t-25.5 3.5q-25 0 -44.5 -16t-19.5 -44q0 -20 11 -34t26 -20q16 3 36 5.5t38 4.5t27 2v-30q-19 -2 -39.5 -4.5t-43 -5
t-47 -6.5t-51.5 -9v30zM279 -240q-74 0 -121.5 26t-70.5 79t-23 135q0 55 10.5 99.5t23.5 81.5h42q-12 -39 -21 -81.5t-9 -93.5q0 -71 17 -116t55 -66.5t100 -21.5h170q66 0 107.5 18.5t61.5 46.5t20 56q0 30 -25 45t-77 29q-46 13 -81 26t-54 35t-19 60q0 31 8 56t22 47
q22 35 51.5 61t64 40t69.5 14q22 0 42 -5t36 -15q28 -16 46 -44t39 -71q19 -40 40.5 -74t51.5 -58q23 -17 42 -22t40 -5h5q5 0 5 -4v-33q0 -5 -5 -5h-5q-24 0 -45 5t-41 17t-41 31q-25 21 -42.5 49.5t-32.5 58.5q-18 37 -34 63t-36 42q-13 11 -31 17.5t-39 6.5
q-31 0 -61 -15.5t-53 -40.5t-36.5 -54.5t-13.5 -57.5q0 -22 14.5 -36.5t36 -22.5t41.5 -14q28 -8 51 -15t42 -15q34 -12 52.5 -32.5t18.5 -50.5q0 -80 -60.5 -128t-176.5 -48h-171z" />
    <glyph glyph-name="uniFBFA" unicode="&#xfbfa;" horiz-adv-x="1229" arabic-form="final" 
d="M932 0q-5 0 -5 5v33q0 4 5 4h131v436h46v-436h126q4 0 4 -4v-33q0 -5 -5 -5h-302zM967 587l46 7q-18 11 -26 28t-8 34q0 40 27 64t70 24q33 0 55 -14l-12 -28q-8 5 -19.5 8.5t-25.5 3.5q-25 0 -44.5 -16t-19.5 -44q0 -20 11 -34t26 -20q16 3 36 5.5t38 4.5t27 2v-30
q-19 -2 -39.5 -4.5t-43 -5t-47 -6.5t-51.5 -9v30zM279 -240q-74 0 -121.5 26t-70.5 79t-23 135q0 55 10.5 99.5t23.5 81.5h42q-12 -39 -21 -81.5t-9 -93.5q0 -71 17 -116t55 -66.5t100 -21.5h170q66 0 107.5 18.5t61.5 46.5t20 56q0 30 -25 45t-77 29q-46 13 -81 26t-54 35
t-19 60q0 31 8 56t22 47q22 35 51.5 61t64 40t69.5 14q22 0 42 -5t36 -15q28 -16 46 -44t39 -71q19 -40 40.5 -74t51.5 -58q23 -17 42 -22t40 -5h5q5 0 5 -4v-33q0 -5 -5 -5h-5q-24 0 -45 5t-41 17t-41 31q-25 21 -42.5 49.5t-32.5 58.5q-18 37 -34 63t-36 42
q-13 11 -31 17.5t-39 6.5q-31 0 -61 -15.5t-53 -40.5t-36.5 -54.5t-13.5 -57.5q0 -22 14.5 -36.5t36 -22.5t41.5 -14q28 -8 51 -15t42 -15q34 -12 52.5 -32.5t18.5 -50.5q0 -80 -60.5 -128t-176.5 -48h-171z" />
    <glyph glyph-name="uniFBFB" unicode="&#xfbfb;" horiz-adv-x="558" arabic-form="initial" 
d="M287 0q-5 0 -5 5v33q0 4 5 4h140v436h46v-478h-186zM329 567l46 7q-18 11 -26 28t-8 34q0 40 27 64t70 24q33 0 55 -14l-12 -28q-8 5 -19.5 8.5t-25.5 3.5q-25 0 -44.5 -16t-19.5 -44q0 -20 11 -34t26 -20q16 3 36 5.5t38 4.5t27 2v-30q-19 -2 -39.5 -4.5t-43 -5
t-47 -6.5t-51.5 -9v30zM-5 0q-5 0 -5 5v33q0 4 5 4h131v436h46v-436h126q4 0 4 -4v-33q0 -5 -5 -5h-302z" />
    <glyph glyph-name="uni0649.fina" unicode="&#x649;" horiz-adv-x="937" arabic-form="final" 
d="M279 -240q-74 0 -121.5 26t-70.5 79t-23 135q0 55 10.5 99.5t23.5 81.5h42q-12 -39 -21 -81.5t-9 -93.5q0 -71 17 -116t55 -66.5t100 -21.5h170q66 0 107.5 18.5t61.5 46.5t20 56q0 30 -25 45t-77 29q-46 13 -81 26t-54 35t-19 60q0 31 8 56t22 47q22 35 51.5 61t64 40
t69.5 14q22 0 42 -5t36 -15q28 -16 46 -44t39 -71q19 -40 40.5 -74t51.5 -58q23 -17 42 -22t40 -5h5q5 0 5 -4v-33q0 -5 -5 -5h-5q-24 0 -45 5t-41 17t-41 31q-25 21 -42.5 49.5t-32.5 58.5q-18 37 -34 63t-36 42q-13 11 -31 17.5t-39 6.5q-31 0 -61 -15.5t-53 -40.5
t-36.5 -54.5t-13.5 -57.5q0 -22 14.5 -36.5t36 -22.5t41.5 -14q28 -8 51 -15t42 -15q34 -12 52.5 -32.5t18.5 -50.5q0 -80 -60.5 -128t-176.5 -48h-171z" />
    <glyph glyph-name="uniFEF3" unicode="&#x64a;" horiz-adv-x="361" arabic-form="initial" 
d="M-5 0q-5 0 -5 5v33q0 4 5 4h213v436h46v-478h-259zM98 -146q-15 0 -25.5 9t-10.5 30q0 20 10.5 29t25.5 9q14 0 25 -8.5t11 -29.5t-10 -30t-26 -9zM231 -146q-17 0 -26.5 9.5t-9.5 29.5q0 19 9.5 28.5t26.5 9.5q16 0 26 -9.5t10 -28.5t-10 -29t-26 -10z" />
    <glyph glyph-name="uniFEF4" unicode="&#x64a;" horiz-adv-x="356" arabic-form="medial" 
d="M-5 0q-5 0 -5 5v33q0 4 5 4h169v436h45v-436h152q5 0 5 -4v-33q0 -5 -5 -5h-366zM115 -146q-15 0 -25.5 9t-10.5 30q0 20 10.5 29t25.5 9q14 0 25 -8.5t11 -29.5t-10 -30t-26 -9zM248 -146q-17 0 -26.5 9.5t-9.5 29.5q0 19 9.5 28.5t26.5 9.5q16 0 26 -9.5t10 -28.5
t-10 -29t-26 -10z" />
    <glyph glyph-name="uniFC00" unicode="&#xfc00;" horiz-adv-x="859" arabic-form="isolated" 
d="M588 0q-5 0 -5 5v33q0 4 5 4h140v436h46v-478h-186zM630 567l46 7q-18 11 -26 28t-8 34q0 40 27 64t70 24q33 0 55 -14l-12 -28q-8 5 -19.5 8.5t-25.5 3.5q-25 0 -44.5 -16t-19.5 -44q0 -20 11 -34t26 -20q16 3 36 5.5t38 4.5t27 2v-30q-19 -2 -39.5 -4.5t-43 -5
t-47 -6.5t-51.5 -9v30zM236 -326q-57 0 -100 22t-67 63t-24 98q0 34 9 62.5t26 53.5q29 44 80.5 77.5t121.5 60.5t154 52q-4 12 -8.5 30.5t-8.5 41.5q-9 62 -29 109.5t-55 74.5t-90 27q-51 0 -96 -15.5t-84 -36.5l-19 37q21 15 52.5 28t68.5 21t74 8q60 0 104 -23.5
t73 -76.5t43 -141q6 -34 14 -66t19 -58q17 -35 40.5 -58t59.5 -23h4q5 0 5 -4v-33q0 -5 -5 -5h-4q-37 0 -64.5 17t-46.5 45.5t-34 62.5q-86 -26 -159.5 -55t-118.5 -68q-42 -31 -61 -66.5t-19 -75.5q0 -69 41.5 -107t114.5 -38zM390 -190q-16 0 -26 9.5t-10 29.5
q0 19 10 28.5t26 9.5q15 0 25.5 -9t10.5 -29t-9.5 -29.5t-26.5 -9.5z" />
    <glyph glyph-name="uniFC01" unicode="&#xfc01;" horiz-adv-x="859" arabic-form="isolated" 
d="M588 0q-5 0 -5 5v33q0 4 5 4h140v436h46v-478h-186zM630 567l46 7q-18 11 -26 28t-8 34q0 40 27 64t70 24q33 0 55 -14l-12 -28q-8 5 -19.5 8.5t-25.5 3.5q-25 0 -44.5 -16t-19.5 -44q0 -20 11 -34t26 -20q16 3 36 5.5t38 4.5t27 2v-30q-19 -2 -39.5 -4.5t-43 -5
t-47 -6.5t-51.5 -9v30zM594 0q-37 0 -64 17t-46.5 45.5t-34.5 62.5q-65 -20 -123.5 -41.5t-103.5 -47.5t-71 -60q-31 -26 -45.5 -54t-14.5 -62q0 -47 20 -79t60 -49t100 -17q33 0 69 6t87 16l7 -39q-51 -12 -100 -18t-81 -6q-65 0 -112 22t-71.5 63t-24.5 98q0 34 9 62.5
t26 53.5q29 44 80.5 77.5t121.5 60.5t154 52q-4 13 -8.5 31t-8.5 41q-9 62 -29.5 109.5t-55.5 74.5t-91 27q-45 0 -93 -14.5t-87 -39.5l-19 37q32 24 86.5 41.5t108.5 17.5q61 0 105.5 -23.5t73.5 -76.5t43 -141q6 -35 15 -69.5t22 -60.5q15 -33 38.5 -54t57.5 -21h4
q5 0 5 -4v-33q0 -5 -5 -5h-4z" />
    <glyph glyph-name="uniFC02" unicode="&#xfc02;" horiz-adv-x="906" arabic-form="isolated" 
d="M635 0q-5 0 -5 5v33q0 4 5 4h140v436h46v-478h-186zM677 567l46 7q-18 11 -26 28t-8 34q0 40 27 64t70 24q33 0 55 -14l-12 -28q-8 5 -19.5 8.5t-25.5 3.5q-25 0 -44.5 -16t-19.5 -44q0 -20 11 -34t26 -20q16 3 36 5.5t38 4.5t27 2v-30q-19 -2 -39.5 -4.5t-43 -5
t-47 -6.5t-51.5 -9v30zM187 0q-41 0 -59.5 -17t-18.5 -55v-248h-44v247q0 38 10.5 63.5t36.5 38.5t71 13h10q-22 60 -33.5 113t-11.5 104q0 30 6 64t21 65q32 34 75 54t98 20q29 0 54.5 -6.5t45.5 -20.5q42 -26 63.5 -75t21.5 -109q0 -40 -7 -80t-21 -67q24 -34 55 -48
t80 -14h5q5 0 5 -4v-33q0 -5 -5 -5h-5q-52 0 -88.5 14.5t-69.5 52.5q-27 -34 -63 -50.5t-81 -16.5h-151zM194 268q0 -52 11 -108t35 -118h102q47 0 79 24t49 71.5t17 114.5q0 75 -37.5 121.5t-99.5 46.5q-40 0 -74 -13.5t-66 -41.5q-7 -14 -11.5 -41t-4.5 -56z" />
    <glyph glyph-name="uniFC03" unicode="&#xfc03;" horiz-adv-x="1202" arabic-form="isolated" 
d="M932 0q-5 0 -5 5v33q0 4 5 4h140v436h46v-478h-186zM974 567l46 7q-18 11 -26 28t-8 34q0 40 27 64t70 24q33 0 55 -14l-12 -28q-8 5 -19.5 8.5t-25.5 3.5q-25 0 -44.5 -16t-19.5 -44q0 -20 11 -34t26 -20q16 3 36 5.5t38 4.5t27 2v-30q-19 -2 -39.5 -4.5t-43 -5
t-47 -6.5t-51.5 -9v30zM279 -240q-74 0 -121.5 26t-70.5 79t-23 135q0 55 10.5 99.5t23.5 81.5h42q-12 -39 -21 -81.5t-9 -93.5q0 -71 17 -116t55 -66.5t100 -21.5h170q66 0 107.5 18.5t61.5 46.5t20 56q0 30 -25 45t-77 29q-46 13 -81 26t-54 35t-19 60q0 31 8 56t22 47
q22 35 51.5 61t64 40t69.5 14q22 0 42 -5t36 -15q28 -16 46 -44t39 -71q19 -40 40.5 -74t51.5 -58q23 -17 42 -22t40 -5h5q5 0 5 -4v-33q0 -5 -5 -5h-5q-24 0 -45 5t-41 17t-41 31q-25 21 -42.5 49.5t-32.5 58.5q-18 37 -34 63t-36 42q-13 11 -31 17.5t-39 6.5
q-31 0 -61 -15.5t-53 -40.5t-36.5 -54.5t-13.5 -57.5q0 -22 14.5 -36.5t36 -22.5t41.5 -14q28 -8 51 -15t42 -15q34 -12 52.5 -32.5t18.5 -50.5q0 -80 -60.5 -128t-176.5 -48h-171z" />
    <glyph glyph-name="uniFC04" unicode="&#xfc04;" horiz-adv-x="1202" arabic-form="isolated" 
d="M932 0q-5 0 -5 5v33q0 4 5 4h140v436h46v-478h-186zM974 567l46 7q-18 11 -26 28t-8 34q0 40 27 64t70 24q33 0 55 -14l-12 -28q-8 5 -19.5 8.5t-25.5 3.5q-25 0 -44.5 -16t-19.5 -44q0 -20 11 -34t26 -20q16 3 36 5.5t38 4.5t27 2v-30q-19 -2 -39.5 -4.5t-43 -5
t-47 -6.5t-51.5 -9v30zM279 -240q-74 0 -121.5 26t-70.5 79t-23 135q0 55 10.5 99.5t23.5 81.5h42q-12 -39 -21 -81.5t-9 -93.5q0 -71 17 -116t55 -66.5t100 -21.5h170q66 0 107.5 18.5t61.5 46.5t20 56q0 30 -25 45t-77 29q-46 13 -81 26t-54 35t-19 60q0 31 8 56t22 47
q22 35 51.5 61t64 40t69.5 14q22 0 42 -5t36 -15q28 -16 46 -44t39 -71q19 -40 40.5 -74t51.5 -58q23 -17 42 -22t40 -5h5q5 0 5 -4v-33q0 -5 -5 -5h-5q-24 0 -45 5t-41 17t-41 31q-25 21 -42.5 49.5t-32.5 58.5q-18 37 -34 63t-36 42q-13 11 -31 17.5t-39 6.5
q-31 0 -61 -15.5t-53 -40.5t-36.5 -54.5t-13.5 -57.5q0 -22 14.5 -36.5t36 -22.5t41.5 -14q28 -8 51 -15t42 -15q34 -12 52.5 -32.5t18.5 -50.5q0 -80 -60.5 -128t-176.5 -48h-171zM322 -403q-15 0 -25.5 9t-10.5 30q0 20 10.5 29t25.5 9q14 0 25 -8.5t11 -29.5t-10 -30
t-26 -9zM455 -403q-17 0 -26.5 9.5t-9.5 29.5q0 19 9.5 28.5t26.5 9.5q16 0 26 -9.5t10 -28.5t-10 -29t-26 -10z" />
    <glyph glyph-name="uniFC05" unicode="&#xfc05;" horiz-adv-x="859" arabic-form="isolated" 
d="M588 0q-5 0 -5 5v33q0 4 5 4h140v436h46v-478h-186zM720 -167q-17 0 -26.5 10t-9.5 29t9.5 29t26.5 10q18 0 27.5 -11t9.5 -28q0 -18 -9.5 -28.5t-27.5 -10.5zM236 -326q-57 0 -100 22t-67 63t-24 98q0 34 9 62.5t26 53.5q29 44 80.5 77.5t121.5 60.5t154 52
q-4 12 -8.5 30.5t-8.5 41.5q-9 62 -29 109.5t-55 74.5t-90 27q-51 0 -96 -15.5t-84 -36.5l-19 37q21 15 52.5 28t68.5 21t74 8q60 0 104 -23.5t73 -76.5t43 -141q6 -34 14 -66t19 -58q17 -35 40.5 -58t59.5 -23h4q5 0 5 -4v-33q0 -5 -5 -5h-4q-37 0 -64.5 17t-46.5 45.5
t-34 62.5q-86 -26 -159.5 -55t-118.5 -68q-42 -31 -61 -66.5t-19 -75.5q0 -69 41.5 -107t114.5 -38zM390 -190q-16 0 -26 9.5t-10 29.5q0 19 10 28.5t26 9.5q15 0 25.5 -9t10.5 -29t-9.5 -29.5t-26.5 -9.5z" />
    <glyph glyph-name="uniFC06" unicode="&#xfc06;" horiz-adv-x="859" arabic-form="isolated" 
d="M588 0q-5 0 -5 5v33q0 4 5 4h140v436h46v-478h-186zM720 -167q-17 0 -26.5 10t-9.5 29t9.5 29t26.5 10q18 0 27.5 -11t9.5 -28q0 -18 -9.5 -28.5t-27.5 -10.5zM594 0q-37 0 -64 17t-46.5 45.5t-34.5 62.5q-65 -20 -123.5 -41.5t-103.5 -47.5t-71 -60q-31 -26 -45.5 -54
t-14.5 -62q0 -47 20 -79t60 -49t100 -17q33 0 69 6t87 16l7 -39q-51 -12 -100 -18t-81 -6q-65 0 -112 22t-71.5 63t-24.5 98q0 34 9 62.5t26 53.5q29 44 80.5 77.5t121.5 60.5t154 52q-4 13 -8.5 31t-8.5 41q-9 62 -29.5 109.5t-55.5 74.5t-91 27q-45 0 -93 -14.5t-87 -39.5
l-19 37q32 24 86.5 41.5t108.5 17.5q61 0 105.5 -23.5t73.5 -76.5t43 -141q6 -35 15 -69.5t22 -60.5q15 -33 38.5 -54t57.5 -21h4q5 0 5 -4v-33q0 -5 -5 -5h-4z" />
    <glyph glyph-name="uniFC07" unicode="&#xfc07;" horiz-adv-x="859" arabic-form="isolated" 
d="M588 0q-5 0 -5 5v33q0 4 5 4h140v436h46v-478h-186zM720 -167q-17 0 -26.5 10t-9.5 29t9.5 29t26.5 10q18 0 27.5 -11t9.5 -28q0 -18 -9.5 -28.5t-27.5 -10.5zM594 0q-37 0 -64 17t-46.5 45.5t-34.5 62.5q-65 -20 -123.5 -41.5t-103.5 -47.5t-71 -60q-31 -26 -45.5 -54
t-14.5 -62q0 -47 20 -79t60 -49t100 -17q33 0 69 6t87 16l7 -39q-51 -12 -100 -18t-81 -6q-65 0 -112 22t-71.5 63t-24.5 98q0 34 9 62.5t26 53.5q29 44 80.5 77.5t121.5 60.5t154 52q-4 13 -8.5 31t-8.5 41q-9 62 -29.5 109.5t-55.5 74.5t-91 27q-45 0 -93 -14.5t-87 -39.5
l-19 37q32 24 86.5 41.5t108.5 17.5q61 0 105.5 -23.5t73.5 -76.5t43 -141q6 -35 15 -69.5t22 -60.5q15 -33 38.5 -54t57.5 -21h4q5 0 5 -4v-33q0 -5 -5 -5h-4zM216 599q-16 0 -26 9.5t-10 29.5q0 19 10 28.5t26 9.5q15 0 25.5 -9t10.5 -29t-9.5 -29.5t-26.5 -9.5z" />
    <glyph glyph-name="uniFC08" unicode="&#xfc08;" horiz-adv-x="906" arabic-form="isolated" 
d="M635 0q-5 0 -5 5v33q0 4 5 4h140v436h46v-478h-186zM767 -167q-17 0 -26.5 10t-9.5 29t9.5 29t26.5 10q18 0 27.5 -11t9.5 -28q0 -18 -9.5 -28.5t-27.5 -10.5zM187 0q-41 0 -59.5 -17t-18.5 -55v-248h-44v247q0 38 10.5 63.5t36.5 38.5t71 13h10q-22 60 -33.5 113
t-11.5 104q0 30 6 64t21 65q32 34 75 54t98 20q29 0 54.5 -6.5t45.5 -20.5q42 -26 63.5 -75t21.5 -109q0 -40 -7 -80t-21 -67q24 -34 55 -48t80 -14h5q5 0 5 -4v-33q0 -5 -5 -5h-5q-52 0 -88.5 14.5t-69.5 52.5q-27 -34 -63 -50.5t-81 -16.5h-151zM194 268q0 -52 11 -108
t35 -118h102q47 0 79 24t49 71.5t17 114.5q0 75 -37.5 121.5t-99.5 46.5q-40 0 -74 -13.5t-66 -41.5q-7 -14 -11.5 -41t-4.5 -56z" />
    <glyph glyph-name="uniFC09" unicode="&#xfc09;" horiz-adv-x="1202" arabic-form="isolated" 
d="M932 0q-5 0 -5 5v33q0 4 5 4h140v436h46v-478h-186zM1064 -167q-17 0 -26.5 10t-9.5 29t9.5 29t26.5 10q18 0 27.5 -11t9.5 -28q0 -18 -9.5 -28.5t-27.5 -10.5zM279 -240q-74 0 -121.5 26t-70.5 79t-23 135q0 55 10.5 99.5t23.5 81.5h42q-12 -39 -21 -81.5t-9 -93.5
q0 -71 17 -116t55 -66.5t100 -21.5h170q66 0 107.5 18.5t61.5 46.5t20 56q0 30 -25 45t-77 29q-46 13 -81 26t-54 35t-19 60q0 31 8 56t22 47q22 35 51.5 61t64 40t69.5 14q22 0 42 -5t36 -15q28 -16 46 -44t39 -71q19 -40 40.5 -74t51.5 -58q23 -17 42 -22t40 -5h5
q5 0 5 -4v-33q0 -5 -5 -5h-5q-24 0 -45 5t-41 17t-41 31q-25 21 -42.5 49.5t-32.5 58.5q-18 37 -34 63t-36 42q-13 11 -31 17.5t-39 6.5q-31 0 -61 -15.5t-53 -40.5t-36.5 -54.5t-13.5 -57.5q0 -22 14.5 -36.5t36 -22.5t41.5 -14q28 -8 51 -15t42 -15q34 -12 52.5 -32.5
t18.5 -50.5q0 -80 -60.5 -128t-176.5 -48h-171z" />
    <glyph glyph-name="uniFC0A" unicode="&#xfc0a;" horiz-adv-x="1202" arabic-form="isolated" 
d="M932 0q-5 0 -5 5v33q0 4 5 4h140v436h46v-478h-186zM1064 -167q-17 0 -26.5 10t-9.5 29t9.5 29t26.5 10q18 0 27.5 -11t9.5 -28q0 -18 -9.5 -28.5t-27.5 -10.5zM279 -240q-74 0 -121.5 26t-70.5 79t-23 135q0 55 10.5 99.5t23.5 81.5h42q-12 -39 -21 -81.5t-9 -93.5
q0 -71 17 -116t55 -66.5t100 -21.5h170q66 0 107.5 18.5t61.5 46.5t20 56q0 30 -25 45t-77 29q-46 13 -81 26t-54 35t-19 60q0 31 8 56t22 47q22 35 51.5 61t64 40t69.5 14q22 0 42 -5t36 -15q28 -16 46 -44t39 -71q19 -40 40.5 -74t51.5 -58q23 -17 42 -22t40 -5h5
q5 0 5 -4v-33q0 -5 -5 -5h-5q-24 0 -45 5t-41 17t-41 31q-25 21 -42.5 49.5t-32.5 58.5q-18 37 -34 63t-36 42q-13 11 -31 17.5t-39 6.5q-31 0 -61 -15.5t-53 -40.5t-36.5 -54.5t-13.5 -57.5q0 -22 14.5 -36.5t36 -22.5t41.5 -14q28 -8 51 -15t42 -15q34 -12 52.5 -32.5
t18.5 -50.5q0 -80 -60.5 -128t-176.5 -48h-171zM322 -403q-15 0 -25.5 9t-10.5 30q0 20 10.5 29t25.5 9q14 0 25 -8.5t11 -29.5t-10 -30t-26 -9zM455 -403q-17 0 -26.5 9.5t-9.5 29.5q0 19 9.5 28.5t26.5 9.5q16 0 26 -9.5t10 -28.5t-10 -29t-26 -10z" />
    <glyph glyph-name="uniFC0B" unicode="&#xfc0b;" horiz-adv-x="859" arabic-form="isolated" 
d="M588 0q-5 0 -5 5v33q0 4 5 4h140v436h46v-478h-186zM675 586q-14 0 -25.5 8t-11.5 31q0 22 11.5 30.5t25.5 8.5q17 0 26.5 -10t9.5 -30q0 -18 -9.5 -28t-26.5 -10zM803 586q-18 0 -27.5 10t-9.5 28q0 20 10 30t27 10t26.5 -11t9.5 -29q0 -17 -9 -27.5t-27 -10.5z
M236 -326q-57 0 -100 22t-67 63t-24 98q0 34 9 62.5t26 53.5q29 44 80.5 77.5t121.5 60.5t154 52q-4 12 -8.5 30.5t-8.5 41.5q-9 62 -29 109.5t-55 74.5t-90 27q-51 0 -96 -15.5t-84 -36.5l-19 37q21 15 52.5 28t68.5 21t74 8q60 0 104 -23.5t73 -76.5t43 -141q6 -34 14 -66
t19 -58q17 -35 40.5 -58t59.5 -23h4q5 0 5 -4v-33q0 -5 -5 -5h-4q-37 0 -64.5 17t-46.5 45.5t-34 62.5q-86 -26 -159.5 -55t-118.5 -68q-42 -31 -61 -66.5t-19 -75.5q0 -69 41.5 -107t114.5 -38zM390 -190q-16 0 -26 9.5t-10 29.5q0 19 10 28.5t26 9.5q15 0 25.5 -9
t10.5 -29t-9.5 -29.5t-26.5 -9.5z" />
    <glyph glyph-name="uniFC0C" unicode="&#xfc0c;" horiz-adv-x="859" arabic-form="isolated" 
d="M588 0q-5 0 -5 5v33q0 4 5 4h140v436h46v-478h-186zM675 586q-14 0 -25.5 8t-11.5 31q0 22 11.5 30.5t25.5 8.5q17 0 26.5 -10t9.5 -30q0 -18 -9.5 -28t-26.5 -10zM803 586q-18 0 -27.5 10t-9.5 28q0 20 10 30t27 10t26.5 -11t9.5 -29q0 -17 -9 -27.5t-27 -10.5zM594 0
q-37 0 -64 17t-46.5 45.5t-34.5 62.5q-65 -20 -123.5 -41.5t-103.5 -47.5t-71 -60q-31 -26 -45.5 -54t-14.5 -62q0 -47 20 -79t60 -49t100 -17q33 0 69 6t87 16l7 -39q-51 -12 -100 -18t-81 -6q-65 0 -112 22t-71.5 63t-24.5 98q0 34 9 62.5t26 53.5q29 44 80.5 77.5
t121.5 60.5t154 52q-4 13 -8.5 31t-8.5 41q-9 62 -29.5 109.5t-55.5 74.5t-91 27q-45 0 -93 -14.5t-87 -39.5l-19 37q32 24 86.5 41.5t108.5 17.5q61 0 105.5 -23.5t73.5 -76.5t43 -141q6 -35 15 -69.5t22 -60.5q15 -33 38.5 -54t57.5 -21h4q5 0 5 -4v-33q0 -5 -5 -5h-4z
" />
    <glyph glyph-name="uniFC0D" unicode="&#xfc0d;" horiz-adv-x="859" arabic-form="isolated" 
d="M588 0q-5 0 -5 5v33q0 4 5 4h140v436h46v-478h-186zM675 586q-14 0 -25.5 8t-11.5 31q0 22 11.5 30.5t25.5 8.5q17 0 26.5 -10t9.5 -30q0 -18 -9.5 -28t-26.5 -10zM803 586q-18 0 -27.5 10t-9.5 28q0 20 10 30t27 10t26.5 -11t9.5 -29q0 -17 -9 -27.5t-27 -10.5zM594 0
q-37 0 -64 17t-46.5 45.5t-34.5 62.5q-65 -20 -123.5 -41.5t-103.5 -47.5t-71 -60q-31 -26 -45.5 -54t-14.5 -62q0 -47 20 -79t60 -49t100 -17q33 0 69 6t87 16l7 -39q-51 -12 -100 -18t-81 -6q-65 0 -112 22t-71.5 63t-24.5 98q0 34 9 62.5t26 53.5q29 44 80.5 77.5
t121.5 60.5t154 52q-4 13 -8.5 31t-8.5 41q-9 62 -29.5 109.5t-55.5 74.5t-91 27q-45 0 -93 -14.5t-87 -39.5l-19 37q32 24 86.5 41.5t108.5 17.5q61 0 105.5 -23.5t73.5 -76.5t43 -141q6 -35 15 -69.5t22 -60.5q15 -33 38.5 -54t57.5 -21h4q5 0 5 -4v-33q0 -5 -5 -5h-4z
M216 599q-16 0 -26 9.5t-10 29.5q0 19 10 28.5t26 9.5q15 0 25.5 -9t10.5 -29t-9.5 -29.5t-26.5 -9.5z" />
    <glyph glyph-name="uniFC0E" unicode="&#xfc0e;" horiz-adv-x="906" arabic-form="isolated" 
d="M635 0q-5 0 -5 5v33q0 4 5 4h140v436h46v-478h-186zM722 586q-14 0 -25.5 8t-11.5 31q0 22 11.5 30.5t25.5 8.5q17 0 26.5 -10t9.5 -30q0 -18 -9.5 -28t-26.5 -10zM850 586q-18 0 -27.5 10t-9.5 28q0 20 10 30t27 10t26.5 -11t9.5 -29q0 -17 -9 -27.5t-27 -10.5zM187 0
q-41 0 -59.5 -17t-18.5 -55v-248h-44v247q0 38 10.5 63.5t36.5 38.5t71 13h10q-22 60 -33.5 113t-11.5 104q0 30 6 64t21 65q32 34 75 54t98 20q29 0 54.5 -6.5t45.5 -20.5q42 -26 63.5 -75t21.5 -109q0 -40 -7 -80t-21 -67q24 -34 55 -48t80 -14h5q5 0 5 -4v-33q0 -5 -5 -5
h-5q-52 0 -88.5 14.5t-69.5 52.5q-27 -34 -63 -50.5t-81 -16.5h-151zM194 268q0 -52 11 -108t35 -118h102q47 0 79 24t49 71.5t17 114.5q0 75 -37.5 121.5t-99.5 46.5q-40 0 -74 -13.5t-66 -41.5q-7 -14 -11.5 -41t-4.5 -56z" />
    <glyph glyph-name="uniFC0F" unicode="&#xfc0f;" horiz-adv-x="1202" arabic-form="isolated" 
d="M932 0q-5 0 -5 5v33q0 4 5 4h140v436h46v-478h-186zM1019 586q-14 0 -25.5 8t-11.5 31q0 22 11.5 30.5t25.5 8.5q17 0 26.5 -10t9.5 -30q0 -18 -9.5 -28t-26.5 -10zM1147 586q-18 0 -27.5 10t-9.5 28q0 20 10 30t27 10t26.5 -11t9.5 -29q0 -17 -9 -27.5t-27 -10.5z
M279 -240q-74 0 -121.5 26t-70.5 79t-23 135q0 55 10.5 99.5t23.5 81.5h42q-12 -39 -21 -81.5t-9 -93.5q0 -71 17 -116t55 -66.5t100 -21.5h170q66 0 107.5 18.5t61.5 46.5t20 56q0 30 -25 45t-77 29q-46 13 -81 26t-54 35t-19 60q0 31 8 56t22 47q22 35 51.5 61t64 40
t69.5 14q22 0 42 -5t36 -15q28 -16 46 -44t39 -71q19 -40 40.5 -74t51.5 -58q23 -17 42 -22t40 -5h5q5 0 5 -4v-33q0 -5 -5 -5h-5q-24 0 -45 5t-41 17t-41 31q-25 21 -42.5 49.5t-32.5 58.5q-18 37 -34 63t-36 42q-13 11 -31 17.5t-39 6.5q-31 0 -61 -15.5t-53 -40.5
t-36.5 -54.5t-13.5 -57.5q0 -22 14.5 -36.5t36 -22.5t41.5 -14q28 -8 51 -15t42 -15q34 -12 52.5 -32.5t18.5 -50.5q0 -80 -60.5 -128t-176.5 -48h-171z" />
    <glyph glyph-name="uniFC10" unicode="&#xfc10;" horiz-adv-x="1202" arabic-form="isolated" 
d="M932 0q-5 0 -5 5v33q0 4 5 4h140v436h46v-478h-186zM1019 586q-14 0 -25.5 8t-11.5 31q0 22 11.5 30.5t25.5 8.5q17 0 26.5 -10t9.5 -30q0 -18 -9.5 -28t-26.5 -10zM1147 586q-18 0 -27.5 10t-9.5 28q0 20 10 30t27 10t26.5 -11t9.5 -29q0 -17 -9 -27.5t-27 -10.5z
M279 -240q-74 0 -121.5 26t-70.5 79t-23 135q0 55 10.5 99.5t23.5 81.5h42q-12 -39 -21 -81.5t-9 -93.5q0 -71 17 -116t55 -66.5t100 -21.5h170q66 0 107.5 18.5t61.5 46.5t20 56q0 30 -25 45t-77 29q-46 13 -81 26t-54 35t-19 60q0 31 8 56t22 47q22 35 51.5 61t64 40
t69.5 14q22 0 42 -5t36 -15q28 -16 46 -44t39 -71q19 -40 40.5 -74t51.5 -58q23 -17 42 -22t40 -5h5q5 0 5 -4v-33q0 -5 -5 -5h-5q-24 0 -45 5t-41 17t-41 31q-25 21 -42.5 49.5t-32.5 58.5q-18 37 -34 63t-36 42q-13 11 -31 17.5t-39 6.5q-31 0 -61 -15.5t-53 -40.5
t-36.5 -54.5t-13.5 -57.5q0 -22 14.5 -36.5t36 -22.5t41.5 -14q28 -8 51 -15t42 -15q34 -12 52.5 -32.5t18.5 -50.5q0 -80 -60.5 -128t-176.5 -48h-171zM322 -403q-15 0 -25.5 9t-10.5 30q0 20 10.5 29t25.5 9q14 0 25 -8.5t11 -29.5t-10 -30t-26 -9zM455 -403
q-17 0 -26.5 9.5t-9.5 29.5q0 19 9.5 28.5t26.5 9.5q16 0 26 -9.5t10 -28.5t-10 -29t-26 -10z" />
    <glyph glyph-name="uniFC11" unicode="&#xfc11;" horiz-adv-x="859" arabic-form="isolated" 
d="M588 0q-5 0 -5 5v33q0 4 5 4h140v436h46v-478h-186zM738 654q-16 0 -25.5 9.5t-9.5 27.5t9.5 27.5t25.5 9.5t25.5 -9t9.5 -28t-10 -28t-25 -9zM675 553q-16 0 -26.5 10t-10.5 29t10 28.5t27 9.5t26.5 -10t9.5 -29q0 -18 -9.5 -28t-26.5 -10zM803 553q-17 0 -27 10.5
t-10 28.5t9.5 28t27.5 10q17 0 26.5 -10t9.5 -29q0 -18 -9.5 -28t-26.5 -10zM236 -326q-57 0 -100 22t-67 63t-24 98q0 34 9 62.5t26 53.5q29 44 80.5 77.5t121.5 60.5t154 52q-4 12 -8.5 30.5t-8.5 41.5q-9 62 -29 109.5t-55 74.5t-90 27q-51 0 -96 -15.5t-84 -36.5l-19 37
q21 15 52.5 28t68.5 21t74 8q60 0 104 -23.5t73 -76.5t43 -141q6 -34 14 -66t19 -58q17 -35 40.5 -58t59.5 -23h4q5 0 5 -4v-33q0 -5 -5 -5h-4q-37 0 -64.5 17t-46.5 45.5t-34 62.5q-86 -26 -159.5 -55t-118.5 -68q-42 -31 -61 -66.5t-19 -75.5q0 -69 41.5 -107t114.5 -38z
M390 -190q-16 0 -26 9.5t-10 29.5q0 19 10 28.5t26 9.5q15 0 25.5 -9t10.5 -29t-9.5 -29.5t-26.5 -9.5z" />
    <glyph glyph-name="uniFC12" unicode="&#xfc12;" horiz-adv-x="906" arabic-form="isolated" 
d="M635 0q-5 0 -5 5v33q0 4 5 4h140v436h46v-478h-186zM785 654q-16 0 -25.5 9.5t-9.5 27.5t9.5 27.5t25.5 9.5t25.5 -9t9.5 -28t-10 -28t-25 -9zM722 553q-16 0 -26.5 10t-10.5 29t10 28.5t27 9.5t26.5 -10t9.5 -29q0 -18 -9.5 -28t-26.5 -10zM850 553q-17 0 -27 10.5
t-10 28.5t9.5 28t27.5 10q17 0 26.5 -10t9.5 -29q0 -18 -9.5 -28t-26.5 -10zM187 0q-41 0 -59.5 -17t-18.5 -55v-248h-44v247q0 38 10.5 63.5t36.5 38.5t71 13h10q-22 60 -33.5 113t-11.5 104q0 30 6 64t21 65q32 34 75 54t98 20q29 0 54.5 -6.5t45.5 -20.5q42 -26 63.5 -75
t21.5 -109q0 -40 -7 -80t-21 -67q24 -34 55 -48t80 -14h5q5 0 5 -4v-33q0 -5 -5 -5h-5q-52 0 -88.5 14.5t-69.5 52.5q-27 -34 -63 -50.5t-81 -16.5h-151zM194 268q0 -52 11 -108t35 -118h102q47 0 79 24t49 71.5t17 114.5q0 75 -37.5 121.5t-99.5 46.5q-40 0 -74 -13.5
t-66 -41.5q-7 -14 -11.5 -41t-4.5 -56z" />
    <glyph glyph-name="uniFC13" unicode="&#xfc13;" horiz-adv-x="1202" arabic-form="isolated" 
d="M932 0q-5 0 -5 5v33q0 4 5 4h140v436h46v-478h-186zM1082 654q-16 0 -25.5 9.5t-9.5 27.5t9.5 27.5t25.5 9.5t25.5 -9t9.5 -28t-10 -28t-25 -9zM1019 553q-16 0 -26.5 10t-10.5 29t10 28.5t27 9.5t26.5 -10t9.5 -29q0 -18 -9.5 -28t-26.5 -10zM1147 553q-17 0 -27 10.5
t-10 28.5t9.5 28t27.5 10q17 0 26.5 -10t9.5 -29q0 -18 -9.5 -28t-26.5 -10zM279 -240q-74 0 -121.5 26t-70.5 79t-23 135q0 55 10.5 99.5t23.5 81.5h42q-12 -39 -21 -81.5t-9 -93.5q0 -71 17 -116t55 -66.5t100 -21.5h170q66 0 107.5 18.5t61.5 46.5t20 56q0 30 -25 45
t-77 29q-46 13 -81 26t-54 35t-19 60q0 31 8 56t22 47q22 35 51.5 61t64 40t69.5 14q22 0 42 -5t36 -15q28 -16 46 -44t39 -71q19 -40 40.5 -74t51.5 -58q23 -17 42 -22t40 -5h5q5 0 5 -4v-33q0 -5 -5 -5h-5q-24 0 -45 5t-41 17t-41 31q-25 21 -42.5 49.5t-32.5 58.5
q-18 37 -34 63t-36 42q-13 11 -31 17.5t-39 6.5q-31 0 -61 -15.5t-53 -40.5t-36.5 -54.5t-13.5 -57.5q0 -22 14.5 -36.5t36 -22.5t41.5 -14q28 -8 51 -15t42 -15q34 -12 52.5 -32.5t18.5 -50.5q0 -80 -60.5 -128t-176.5 -48h-171z" />
    <glyph glyph-name="uniFC14" unicode="&#xfc14;" horiz-adv-x="1202" arabic-form="isolated" 
d="M932 0q-5 0 -5 5v33q0 4 5 4h140v436h46v-478h-186zM1082 654q-16 0 -25.5 9.5t-9.5 27.5t9.5 27.5t25.5 9.5t25.5 -9t9.5 -28t-10 -28t-25 -9zM1019 553q-16 0 -26.5 10t-10.5 29t10 28.5t27 9.5t26.5 -10t9.5 -29q0 -18 -9.5 -28t-26.5 -10zM1147 553q-17 0 -27 10.5
t-10 28.5t9.5 28t27.5 10q17 0 26.5 -10t9.5 -29q0 -18 -9.5 -28t-26.5 -10zM279 -240q-74 0 -121.5 26t-70.5 79t-23 135q0 55 10.5 99.5t23.5 81.5h42q-12 -39 -21 -81.5t-9 -93.5q0 -71 17 -116t55 -66.5t100 -21.5h170q66 0 107.5 18.5t61.5 46.5t20 56q0 30 -25 45
t-77 29q-46 13 -81 26t-54 35t-19 60q0 31 8 56t22 47q22 35 51.5 61t64 40t69.5 14q22 0 42 -5t36 -15q28 -16 46 -44t39 -71q19 -40 40.5 -74t51.5 -58q23 -17 42 -22t40 -5h5q5 0 5 -4v-33q0 -5 -5 -5h-5q-24 0 -45 5t-41 17t-41 31q-25 21 -42.5 49.5t-32.5 58.5
q-18 37 -34 63t-36 42q-13 11 -31 17.5t-39 6.5q-31 0 -61 -15.5t-53 -40.5t-36.5 -54.5t-13.5 -57.5q0 -22 14.5 -36.5t36 -22.5t41.5 -14q28 -8 51 -15t42 -15q34 -12 52.5 -32.5t18.5 -50.5q0 -80 -60.5 -128t-176.5 -48h-171zM322 -403q-15 0 -25.5 9t-10.5 30
q0 20 10.5 29t25.5 9q14 0 25 -8.5t11 -29.5t-10 -30t-26 -9zM455 -403q-17 0 -26.5 9.5t-9.5 29.5q0 19 9.5 28.5t26.5 9.5q16 0 26 -9.5t10 -28.5t-10 -29t-26 -10z" />
    <glyph glyph-name="uniFC15" unicode="&#xfc15;" horiz-adv-x="1151" arabic-form="isolated" 
d="M588 0q-5 0 -5 5v33q0 4 5 4h444q-25 34 -39.5 89.5t-27.5 128.5q-10 58 -24.5 100.5t-41.5 65.5t-78 23q-33 0 -66.5 -11t-74.5 -35l-20 37q40 26 80 38.5t84 12.5q31 0 56.5 -8t45.5 -25q34 -24 51 -68t31 -125q13 -73 24 -116.5t24 -68t30 -41.5v-39h-498zM837 -180
q-17 0 -26.5 10t-9.5 29t9.5 29t26.5 10q18 0 27.5 -11t9.5 -28q0 -18 -9.5 -28.5t-27.5 -10.5zM594 0q-37 0 -64 17t-46.5 45.5t-34.5 62.5q-65 -20 -123.5 -41.5t-103.5 -47.5t-71 -60q-31 -26 -45.5 -54t-14.5 -62q0 -47 20 -79t60 -49t100 -17q33 0 69 6t87 16l7 -39
q-51 -12 -100 -18t-81 -6q-65 0 -112 22t-71.5 63t-24.5 98q0 34 9 62.5t26 53.5q29 44 80.5 77.5t121.5 60.5t154 52q-4 13 -8.5 31t-8.5 41q-9 62 -29.5 109.5t-55.5 74.5t-91 27q-45 0 -93 -14.5t-87 -39.5l-19 37q32 24 86.5 41.5t108.5 17.5q61 0 105.5 -23.5
t73.5 -76.5t43 -141q6 -35 15 -69.5t22 -60.5q15 -33 38.5 -54t57.5 -21h4q5 0 5 -4v-33q0 -5 -5 -5h-4z" />
    <glyph glyph-name="uniFC16" unicode="&#xfc16;" horiz-adv-x="1198" arabic-form="isolated" 
d="M635 0q-5 0 -5 5v33q0 4 5 4h444q-25 34 -39.5 89.5t-27.5 128.5q-10 58 -24.5 100.5t-41.5 65.5t-78 23q-33 0 -66.5 -11t-74.5 -35l-20 37q40 26 80 38.5t84 12.5q31 0 56.5 -8t45.5 -25q34 -24 51 -68t31 -125q13 -73 24 -116.5t24 -68t30 -41.5v-39h-498zM884 -180
q-17 0 -26.5 10t-9.5 29t9.5 29t26.5 10q18 0 27.5 -11t9.5 -28q0 -18 -9.5 -28.5t-27.5 -10.5zM187 0q-41 0 -59.5 -17t-18.5 -55v-248h-44v247q0 38 10.5 63.5t36.5 38.5t71 13h10q-22 60 -33.5 113t-11.5 104q0 30 6 64t21 65q32 34 75 54t98 20q29 0 54.5 -6.5
t45.5 -20.5q42 -26 63.5 -75t21.5 -109q0 -40 -7 -80t-21 -67q24 -34 55 -48t80 -14h5q5 0 5 -4v-33q0 -5 -5 -5h-5q-52 0 -88.5 14.5t-69.5 52.5q-27 -34 -63 -50.5t-81 -16.5h-151zM194 268q0 -52 11 -108t35 -118h102q47 0 79 24t49 71.5t17 114.5q0 75 -37.5 121.5
t-99.5 46.5q-40 0 -74 -13.5t-66 -41.5q-7 -14 -11.5 -41t-4.5 -56z" />
    <glyph glyph-name="uniFC17" unicode="&#xfc17;" horiz-adv-x="1151" arabic-form="isolated" 
d="M588 0q-5 0 -5 5v33q0 4 5 4h444q-25 34 -39.5 89.5t-27.5 128.5q-10 58 -24.5 100.5t-41.5 65.5t-78 23q-33 0 -66.5 -11t-74.5 -35l-20 37q40 26 80 38.5t84 12.5q31 0 56.5 -8t45.5 -25q34 -24 51 -68t31 -125q13 -73 24 -116.5t24 -68t30 -41.5v-39h-498zM236 -326
q-57 0 -100 22t-67 63t-24 98q0 34 9 62.5t26 53.5q29 44 80.5 77.5t121.5 60.5t154 52q-4 12 -8.5 30.5t-8.5 41.5q-9 62 -29 109.5t-55 74.5t-90 27q-51 0 -96 -15.5t-84 -36.5l-19 37q21 15 52.5 28t68.5 21t74 8q60 0 104 -23.5t73 -76.5t43 -141q6 -34 14 -66t19 -58
q17 -35 40.5 -58t59.5 -23h4q5 0 5 -4v-33q0 -5 -5 -5h-4q-37 0 -64.5 17t-46.5 45.5t-34 62.5q-86 -26 -159.5 -55t-118.5 -68q-42 -31 -61 -66.5t-19 -75.5q0 -69 41.5 -107t114.5 -38zM390 -190q-16 0 -26 9.5t-10 29.5q0 19 10 28.5t26 9.5q15 0 25.5 -9t10.5 -29
t-9.5 -29.5t-26.5 -9.5z" />
    <glyph glyph-name="uniFC18" unicode="&#xfc18;" horiz-adv-x="1198" arabic-form="isolated" 
d="M635 0q-5 0 -5 5v33q0 4 5 4h444q-25 34 -39.5 89.5t-27.5 128.5q-10 58 -24.5 100.5t-41.5 65.5t-78 23q-33 0 -66.5 -11t-74.5 -35l-20 37q40 26 80 38.5t84 12.5q31 0 56.5 -8t45.5 -25q34 -24 51 -68t31 -125q13 -73 24 -116.5t24 -68t30 -41.5v-39h-498zM187 0
q-41 0 -59.5 -17t-18.5 -55v-248h-44v247q0 38 10.5 63.5t36.5 38.5t71 13h10q-22 60 -33.5 113t-11.5 104q0 30 6 64t21 65q32 34 75 54t98 20q29 0 54.5 -6.5t45.5 -20.5q42 -26 63.5 -75t21.5 -109q0 -40 -7 -80t-21 -67q24 -34 55 -48t80 -14h5q5 0 5 -4v-33q0 -5 -5 -5
h-5q-52 0 -88.5 14.5t-69.5 52.5q-27 -34 -63 -50.5t-81 -16.5h-151zM194 268q0 -52 11 -108t35 -118h102q47 0 79 24t49 71.5t17 114.5q0 75 -37.5 121.5t-99.5 46.5q-40 0 -74 -13.5t-66 -41.5q-7 -14 -11.5 -41t-4.5 -56z" />
    <glyph glyph-name="uniFC19" unicode="&#xfc19;" horiz-adv-x="1151" arabic-form="isolated" 
d="M588 0q-5 0 -5 5v33q0 4 5 4h444q-25 34 -39.5 89.5t-27.5 128.5q-10 58 -24.5 100.5t-41.5 65.5t-78 23q-33 0 -66.5 -11t-74.5 -35l-20 37q40 26 80 38.5t84 12.5q31 0 56.5 -8t45.5 -25q34 -24 51 -68t31 -125q13 -73 24 -116.5t24 -68t30 -41.5v-39h-498zM806 609
q-16 0 -26 9.5t-10 29.5q0 19 10 28.5t26 9.5q15 0 25.5 -9t10.5 -29t-9.5 -29.5t-26.5 -9.5zM236 -326q-57 0 -100 22t-67 63t-24 98q0 34 9 62.5t26 53.5q29 44 80.5 77.5t121.5 60.5t154 52q-4 12 -8.5 30.5t-8.5 41.5q-9 62 -29 109.5t-55 74.5t-90 27q-51 0 -96 -15.5
t-84 -36.5l-19 37q21 15 52.5 28t68.5 21t74 8q60 0 104 -23.5t73 -76.5t43 -141q6 -34 14 -66t19 -58q17 -35 40.5 -58t59.5 -23h4q5 0 5 -4v-33q0 -5 -5 -5h-4q-37 0 -64.5 17t-46.5 45.5t-34 62.5q-86 -26 -159.5 -55t-118.5 -68q-42 -31 -61 -66.5t-19 -75.5
q0 -69 41.5 -107t114.5 -38zM390 -190q-16 0 -26 9.5t-10 29.5q0 19 10 28.5t26 9.5q15 0 25.5 -9t10.5 -29t-9.5 -29.5t-26.5 -9.5z" />
    <glyph glyph-name="uniFC1A" unicode="&#xfc1a;" horiz-adv-x="1151" arabic-form="isolated" 
d="M588 0q-5 0 -5 5v33q0 4 5 4h444q-25 34 -39.5 89.5t-27.5 128.5q-10 58 -24.5 100.5t-41.5 65.5t-78 23q-33 0 -66.5 -11t-74.5 -35l-20 37q40 26 80 38.5t84 12.5q31 0 56.5 -8t45.5 -25q34 -24 51 -68t31 -125q13 -73 24 -116.5t24 -68t30 -41.5v-39h-498zM806 609
q-16 0 -26 9.5t-10 29.5q0 19 10 28.5t26 9.5q15 0 25.5 -9t10.5 -29t-9.5 -29.5t-26.5 -9.5zM594 0q-37 0 -64 17t-46.5 45.5t-34.5 62.5q-65 -20 -123.5 -41.5t-103.5 -47.5t-71 -60q-31 -26 -45.5 -54t-14.5 -62q0 -47 20 -79t60 -49t100 -17q33 0 69 6t87 16l7 -39
q-51 -12 -100 -18t-81 -6q-65 0 -112 22t-71.5 63t-24.5 98q0 34 9 62.5t26 53.5q29 44 80.5 77.5t121.5 60.5t154 52q-4 13 -8.5 31t-8.5 41q-9 62 -29.5 109.5t-55.5 74.5t-91 27q-45 0 -93 -14.5t-87 -39.5l-19 37q32 24 86.5 41.5t108.5 17.5q61 0 105.5 -23.5
t73.5 -76.5t43 -141q6 -35 15 -69.5t22 -60.5q15 -33 38.5 -54t57.5 -21h4q5 0 5 -4v-33q0 -5 -5 -5h-4z" />
    <glyph glyph-name="uniFC1B" unicode="&#xfc1b;" horiz-adv-x="1198" arabic-form="isolated" 
d="M635 0q-5 0 -5 5v33q0 4 5 4h444q-25 34 -39.5 89.5t-27.5 128.5q-10 58 -24.5 100.5t-41.5 65.5t-78 23q-33 0 -66.5 -11t-74.5 -35l-20 37q40 26 80 38.5t84 12.5q31 0 56.5 -8t45.5 -25q34 -24 51 -68t31 -125q13 -73 24 -116.5t24 -68t30 -41.5v-39h-498zM853 609
q-16 0 -26 9.5t-10 29.5q0 19 10 28.5t26 9.5q15 0 25.5 -9t10.5 -29t-9.5 -29.5t-26.5 -9.5zM187 0q-41 0 -59.5 -17t-18.5 -55v-248h-44v247q0 38 10.5 63.5t36.5 38.5t71 13h10q-22 60 -33.5 113t-11.5 104q0 30 6 64t21 65q32 34 75 54t98 20q29 0 54.5 -6.5t45.5 -20.5
q42 -26 63.5 -75t21.5 -109q0 -40 -7 -80t-21 -67q24 -34 55 -48t80 -14h5q5 0 5 -4v-33q0 -5 -5 -5h-5q-52 0 -88.5 14.5t-69.5 52.5q-27 -34 -63 -50.5t-81 -16.5h-151zM194 268q0 -52 11 -108t35 -118h102q47 0 79 24t49 71.5t17 114.5q0 75 -37.5 121.5t-99.5 46.5
q-40 0 -74 -13.5t-66 -41.5q-7 -14 -11.5 -41t-4.5 -56z" />
    <glyph glyph-name="uniFC1C" unicode="&#xfc1c;" horiz-adv-x="1380" arabic-form="isolated" 
d="M1198 0q-44 0 -86 13.5t-73 53.5q-17 -30 -51.5 -48.5t-85.5 -18.5h-314q-5 0 -5 5v33q0 4 5 4h156v358h44v-358h119q49 0 79.5 30.5t30.5 80.5v247h44v-259q0 -7 -1 -15.5t-3 -15.5q27 -39 63 -53.5t80 -14.5h50v435l45 1v-478h-97zM236 -326q-57 0 -100 22t-67 63
t-24 98q0 34 9 62.5t26 53.5q29 44 80.5 77.5t121.5 60.5t154 52q-4 12 -8.5 30.5t-8.5 41.5q-9 62 -29 109.5t-55 74.5t-90 27q-51 0 -96 -15.5t-84 -36.5l-19 37q21 15 52.5 28t68.5 21t74 8q60 0 104 -23.5t73 -76.5t43 -141q6 -34 14 -66t19 -58q17 -35 40.5 -58
t59.5 -23h4q5 0 5 -4v-33q0 -5 -5 -5h-4q-37 0 -64.5 17t-46.5 45.5t-34 62.5q-86 -26 -159.5 -55t-118.5 -68q-42 -31 -61 -66.5t-19 -75.5q0 -69 41.5 -107t114.5 -38zM390 -190q-16 0 -26 9.5t-10 29.5q0 19 10 28.5t26 9.5q15 0 25.5 -9t10.5 -29t-9.5 -29.5t-26.5 -9.5
z" />
    <glyph glyph-name="uniFC1D" unicode="&#xfc1d;" horiz-adv-x="1380" arabic-form="isolated" 
d="M1198 0q-44 0 -86 13.5t-73 53.5q-17 -30 -51.5 -48.5t-85.5 -18.5h-314q-5 0 -5 5v33q0 4 5 4h156v358h44v-358h119q49 0 79.5 30.5t30.5 80.5v247h44v-259q0 -7 -1 -15.5t-3 -15.5q27 -39 63 -53.5t80 -14.5h50v435l45 1v-478h-97zM594 0q-37 0 -64 17t-46.5 45.5
t-34.5 62.5q-65 -20 -123.5 -41.5t-103.5 -47.5t-71 -60q-31 -26 -45.5 -54t-14.5 -62q0 -47 20 -79t60 -49t100 -17q33 0 69 6t87 16l7 -39q-51 -12 -100 -18t-81 -6q-65 0 -112 22t-71.5 63t-24.5 98q0 34 9 62.5t26 53.5q29 44 80.5 77.5t121.5 60.5t154 52
q-4 13 -8.5 31t-8.5 41q-9 62 -29.5 109.5t-55.5 74.5t-91 27q-45 0 -93 -14.5t-87 -39.5l-19 37q32 24 86.5 41.5t108.5 17.5q61 0 105.5 -23.5t73.5 -76.5t43 -141q6 -35 15 -69.5t22 -60.5q15 -33 38.5 -54t57.5 -21h4q5 0 5 -4v-33q0 -5 -5 -5h-4z" />
    <glyph glyph-name="uniFC1E" unicode="&#xfc1e;" horiz-adv-x="1380" arabic-form="isolated" 
d="M1198 0q-44 0 -86 13.5t-73 53.5q-17 -30 -51.5 -48.5t-85.5 -18.5h-314q-5 0 -5 5v33q0 4 5 4h156v358h44v-358h119q49 0 79.5 30.5t30.5 80.5v247h44v-259q0 -7 -1 -15.5t-3 -15.5q27 -39 63 -53.5t80 -14.5h50v435l45 1v-478h-97zM594 0q-37 0 -64 17t-46.5 45.5
t-34.5 62.5q-65 -20 -123.5 -41.5t-103.5 -47.5t-71 -60q-31 -26 -45.5 -54t-14.5 -62q0 -47 20 -79t60 -49t100 -17q33 0 69 6t87 16l7 -39q-51 -12 -100 -18t-81 -6q-65 0 -112 22t-71.5 63t-24.5 98q0 34 9 62.5t26 53.5q29 44 80.5 77.5t121.5 60.5t154 52
q-4 13 -8.5 31t-8.5 41q-9 62 -29.5 109.5t-55.5 74.5t-91 27q-45 0 -93 -14.5t-87 -39.5l-19 37q32 24 86.5 41.5t108.5 17.5q61 0 105.5 -23.5t73.5 -76.5t43 -141q6 -35 15 -69.5t22 -60.5q15 -33 38.5 -54t57.5 -21h4q5 0 5 -4v-33q0 -5 -5 -5h-4zM216 599
q-16 0 -26 9.5t-10 29.5q0 19 10 28.5t26 9.5q15 0 25.5 -9t10.5 -29t-9.5 -29.5t-26.5 -9.5z" />
    <glyph glyph-name="uniFC1F" unicode="&#xfc1f;" horiz-adv-x="1427" arabic-form="isolated" 
d="M1245 0q-44 0 -86 13.5t-73 53.5q-17 -30 -51.5 -48.5t-85.5 -18.5h-314q-5 0 -5 5v33q0 4 5 4h156v358h44v-358h119q49 0 79.5 30.5t30.5 80.5v247h44v-259q0 -7 -1 -15.5t-3 -15.5q27 -39 63 -53.5t80 -14.5h50v435l45 1v-478h-97zM187 0q-41 0 -59.5 -17t-18.5 -55
v-248h-44v247q0 38 10.5 63.5t36.5 38.5t71 13h10q-22 60 -33.5 113t-11.5 104q0 30 6 64t21 65q32 34 75 54t98 20q29 0 54.5 -6.5t45.5 -20.5q42 -26 63.5 -75t21.5 -109q0 -40 -7 -80t-21 -67q24 -34 55 -48t80 -14h5q5 0 5 -4v-33q0 -5 -5 -5h-5q-52 0 -88.5 14.5
t-69.5 52.5q-27 -34 -63 -50.5t-81 -16.5h-151zM194 268q0 -52 11 -108t35 -118h102q47 0 79 24t49 71.5t17 114.5q0 75 -37.5 121.5t-99.5 46.5q-40 0 -74 -13.5t-66 -41.5q-7 -14 -11.5 -41t-4.5 -56z" />
    <glyph glyph-name="uniFC20" unicode="&#xfc20;" horiz-adv-x="1328" arabic-form="isolated" 
d="M588 0q-5 0 -5 5v33q0 4 5 4h122v386h44v-207q29 92 74.5 151t100.5 87.5t112 28.5q101 0 155 -57.5t54 -178.5v-252h-662zM1205 42v202q0 104 -42 153t-127 49q-54 0 -106 -31t-97 -98t-79 -176v-99h451zM594 0q-37 0 -64 17t-46.5 45.5t-34.5 62.5
q-65 -20 -123.5 -41.5t-103.5 -47.5t-71 -60q-31 -26 -45.5 -54t-14.5 -62q0 -47 20 -79t60 -49t100 -17q33 0 69 6t87 16l7 -39q-51 -12 -100 -18t-81 -6q-65 0 -112 22t-71.5 63t-24.5 98q0 34 9 62.5t26 53.5q29 44 80.5 77.5t121.5 60.5t154 52q-4 13 -8.5 31t-8.5 41
q-9 62 -29.5 109.5t-55.5 74.5t-91 27q-45 0 -93 -14.5t-87 -39.5l-19 37q32 24 86.5 41.5t108.5 17.5q61 0 105.5 -23.5t73.5 -76.5t43 -141q6 -35 15 -69.5t22 -60.5q15 -33 38.5 -54t57.5 -21h4q5 0 5 -4v-33q0 -5 -5 -5h-4z" />
    <glyph glyph-name="uniFC21" unicode="&#xfc21;" horiz-adv-x="1375" arabic-form="isolated" 
d="M635 0q-5 0 -5 5v33q0 4 5 4h122v386h44v-207q29 92 74.5 151t100.5 87.5t112 28.5q101 0 155 -57.5t54 -178.5v-252h-662zM1252 42v202q0 104 -42 153t-127 49q-54 0 -106 -31t-97 -98t-79 -176v-99h451zM187 0q-41 0 -59.5 -17t-18.5 -55v-248h-44v247q0 38 10.5 63.5
t36.5 38.5t71 13h10q-22 60 -33.5 113t-11.5 104q0 30 6 64t21 65q32 34 75 54t98 20q29 0 54.5 -6.5t45.5 -20.5q42 -26 63.5 -75t21.5 -109q0 -40 -7 -80t-21 -67q24 -34 55 -48t80 -14h5q5 0 5 -4v-33q0 -5 -5 -5h-5q-52 0 -88.5 14.5t-69.5 52.5q-27 -34 -63 -50.5
t-81 -16.5h-151zM194 268q0 -52 11 -108t35 -118h102q47 0 79 24t49 71.5t17 114.5q0 75 -37.5 121.5t-99.5 46.5q-40 0 -74 -13.5t-66 -41.5q-7 -14 -11.5 -41t-4.5 -56z" />
    <glyph glyph-name="uniFC22" unicode="&#xfc22;" horiz-adv-x="1328" arabic-form="isolated" 
d="M588 0q-5 0 -5 5v33q0 4 5 4h122v386h44v-207q29 92 74.5 151t100.5 87.5t112 28.5q101 0 155 -57.5t54 -178.5v-252h-662zM1205 42v202q0 104 -42 153t-127 49q-54 0 -106 -31t-97 -98t-79 -176v-99h451zM1014 632q-16 0 -26 9.5t-10 29.5q0 19 10 28.5t26 9.5
q15 0 25.5 -9t10.5 -29t-9.5 -29.5t-26.5 -9.5zM236 -326q-57 0 -100 22t-67 63t-24 98q0 34 9 62.5t26 53.5q29 44 80.5 77.5t121.5 60.5t154 52q-4 12 -8.5 30.5t-8.5 41.5q-9 62 -29 109.5t-55 74.5t-90 27q-51 0 -96 -15.5t-84 -36.5l-19 37q21 15 52.5 28t68.5 21t74 8
q60 0 104 -23.5t73 -76.5t43 -141q6 -34 14 -66t19 -58q17 -35 40.5 -58t59.5 -23h4q5 0 5 -4v-33q0 -5 -5 -5h-4q-37 0 -64.5 17t-46.5 45.5t-34 62.5q-86 -26 -159.5 -55t-118.5 -68q-42 -31 -61 -66.5t-19 -75.5q0 -69 41.5 -107t114.5 -38zM390 -190q-16 0 -26 9.5
t-10 29.5q0 19 10 28.5t26 9.5q15 0 25.5 -9t10.5 -29t-9.5 -29.5t-26.5 -9.5z" />
    <glyph glyph-name="uniFC23" unicode="&#xfc23;" horiz-adv-x="1328" arabic-form="isolated" 
d="M588 0q-5 0 -5 5v33q0 4 5 4h122v386h44v-207q29 92 74.5 151t100.5 87.5t112 28.5q101 0 155 -57.5t54 -178.5v-252h-662zM1205 42v202q0 104 -42 153t-127 49q-54 0 -106 -31t-97 -98t-79 -176v-99h451zM1014 632q-16 0 -26 9.5t-10 29.5q0 19 10 28.5t26 9.5
q15 0 25.5 -9t10.5 -29t-9.5 -29.5t-26.5 -9.5zM594 0q-37 0 -64 17t-46.5 45.5t-34.5 62.5q-65 -20 -123.5 -41.5t-103.5 -47.5t-71 -60q-31 -26 -45.5 -54t-14.5 -62q0 -47 20 -79t60 -49t100 -17q33 0 69 6t87 16l7 -39q-51 -12 -100 -18t-81 -6q-65 0 -112 22t-71.5 63
t-24.5 98q0 34 9 62.5t26 53.5q29 44 80.5 77.5t121.5 60.5t154 52q-4 13 -8.5 31t-8.5 41q-9 62 -29.5 109.5t-55.5 74.5t-91 27q-45 0 -93 -14.5t-87 -39.5l-19 37q32 24 86.5 41.5t108.5 17.5q61 0 105.5 -23.5t73.5 -76.5t43 -141q6 -35 15 -69.5t22 -60.5
q15 -33 38.5 -54t57.5 -21h4q5 0 5 -4v-33q0 -5 -5 -5h-4z" />
    <glyph glyph-name="uniFC24" unicode="&#xfc24;" horiz-adv-x="1328" arabic-form="isolated" 
d="M588 0q-5 0 -5 5v33q0 4 5 4h122v386h44v-207q29 92 74.5 151t100.5 87.5t112 28.5q101 0 155 -57.5t54 -178.5v-252h-662zM1205 42v202q0 104 -42 153t-127 49q-54 0 -106 -31t-97 -98t-79 -176v-99h451zM1014 632q-16 0 -26 9.5t-10 29.5q0 19 10 28.5t26 9.5
q15 0 25.5 -9t10.5 -29t-9.5 -29.5t-26.5 -9.5zM594 0q-37 0 -64 17t-46.5 45.5t-34.5 62.5q-65 -20 -123.5 -41.5t-103.5 -47.5t-71 -60q-31 -26 -45.5 -54t-14.5 -62q0 -47 20 -79t60 -49t100 -17q33 0 69 6t87 16l7 -39q-51 -12 -100 -18t-81 -6q-65 0 -112 22t-71.5 63
t-24.5 98q0 34 9 62.5t26 53.5q29 44 80.5 77.5t121.5 60.5t154 52q-4 13 -8.5 31t-8.5 41q-9 62 -29.5 109.5t-55.5 74.5t-91 27q-45 0 -93 -14.5t-87 -39.5l-19 37q32 24 86.5 41.5t108.5 17.5q61 0 105.5 -23.5t73.5 -76.5t43 -141q6 -35 15 -69.5t22 -60.5
q15 -33 38.5 -54t57.5 -21h4q5 0 5 -4v-33q0 -5 -5 -5h-4zM216 599q-16 0 -26 9.5t-10 29.5q0 19 10 28.5t26 9.5q15 0 25.5 -9t10.5 -29t-9.5 -29.5t-26.5 -9.5z" />
    <glyph glyph-name="uniFC25" unicode="&#xfc25;" horiz-adv-x="1375" arabic-form="isolated" 
d="M635 0q-5 0 -5 5v33q0 4 5 4h122v386h44v-207q29 92 74.5 151t100.5 87.5t112 28.5q101 0 155 -57.5t54 -178.5v-252h-662zM1252 42v202q0 104 -42 153t-127 49q-54 0 -106 -31t-97 -98t-79 -176v-99h451zM1061 632q-16 0 -26 9.5t-10 29.5q0 19 10 28.5t26 9.5
q15 0 25.5 -9t10.5 -29t-9.5 -29.5t-26.5 -9.5zM187 0q-41 0 -59.5 -17t-18.5 -55v-248h-44v247q0 38 10.5 63.5t36.5 38.5t71 13h10q-22 60 -33.5 113t-11.5 104q0 30 6 64t21 65q32 34 75 54t98 20q29 0 54.5 -6.5t45.5 -20.5q42 -26 63.5 -75t21.5 -109q0 -40 -7 -80
t-21 -67q24 -34 55 -48t80 -14h5q5 0 5 -4v-33q0 -5 -5 -5h-5q-52 0 -88.5 14.5t-69.5 52.5q-27 -34 -63 -50.5t-81 -16.5h-151zM194 268q0 -52 11 -108t35 -118h102q47 0 79 24t49 71.5t17 114.5q0 75 -37.5 121.5t-99.5 46.5q-40 0 -74 -13.5t-66 -41.5q-7 -14 -11.5 -41
t-4.5 -56z" />
    <glyph glyph-name="uniFC26" unicode="&#xfc26;" horiz-adv-x="1291" arabic-form="isolated" 
d="M588 0q-5 0 -5 5v33q0 4 5 4h104v718h44v-539q29 92 74.5 151t100.5 87.5t112 28.5q101 0 155 -57.5t54 -178.5v-252h-644zM1187 42v202q0 104 -42 153t-127 49q-54 0 -106 -31t-97 -98t-79 -176v-99h451zM594 0q-37 0 -64 17t-46.5 45.5t-34.5 62.5
q-65 -20 -123.5 -41.5t-103.5 -47.5t-71 -60q-31 -26 -45.5 -54t-14.5 -62q0 -47 20 -79t60 -49t100 -17q33 0 69 6t87 16l7 -39q-51 -12 -100 -18t-81 -6q-65 0 -112 22t-71.5 63t-24.5 98q0 34 9 62.5t26 53.5q29 44 80.5 77.5t121.5 60.5t154 52q-4 13 -8.5 31t-8.5 41
q-9 62 -29.5 109.5t-55.5 74.5t-91 27q-45 0 -93 -14.5t-87 -39.5l-19 37q32 24 86.5 41.5t108.5 17.5q61 0 105.5 -23.5t73.5 -76.5t43 -141q6 -35 15 -69.5t22 -60.5q15 -33 38.5 -54t57.5 -21h4q5 0 5 -4v-33q0 -5 -5 -5h-4z" />
    <glyph glyph-name="uniFC27" unicode="&#xfc27;" horiz-adv-x="1338" arabic-form="isolated" 
d="M635 0q-5 0 -5 5v33q0 4 5 4h104v718h44v-539q29 92 74.5 151t100.5 87.5t112 28.5q101 0 155 -57.5t54 -178.5v-252h-644zM1234 42v202q0 104 -42 153t-127 49q-54 0 -106 -31t-97 -98t-79 -176v-99h451zM187 0q-41 0 -59.5 -17t-18.5 -55v-248h-44v247q0 38 10.5 63.5
t36.5 38.5t71 13h10q-22 60 -33.5 113t-11.5 104q0 30 6 64t21 65q32 34 75 54t98 20q29 0 54.5 -6.5t45.5 -20.5q42 -26 63.5 -75t21.5 -109q0 -40 -7 -80t-21 -67q24 -34 55 -48t80 -14h5q5 0 5 -4v-33q0 -5 -5 -5h-5q-52 0 -88.5 14.5t-69.5 52.5q-27 -34 -63 -50.5
t-81 -16.5h-151zM194 268q0 -52 11 -108t35 -118h102q47 0 79 24t49 71.5t17 114.5q0 75 -37.5 121.5t-99.5 46.5q-40 0 -74 -13.5t-66 -41.5q-7 -14 -11.5 -41t-4.5 -56z" />
    <glyph glyph-name="uniFC28" unicode="&#xfc28;" horiz-adv-x="1338" arabic-form="isolated" 
d="M635 0q-5 0 -5 5v33q0 4 5 4h104v718h44v-539q29 92 74.5 151t100.5 87.5t112 28.5q101 0 155 -57.5t54 -178.5v-252h-644zM1234 42v202q0 104 -42 153t-127 49q-54 0 -106 -31t-97 -98t-79 -176v-99h451zM1061 625q-16 0 -26 9.5t-10 29.5q0 19 10 28.5t26 9.5
q15 0 25.5 -9t10.5 -29t-9.5 -29.5t-26.5 -9.5zM187 0q-41 0 -59.5 -17t-18.5 -55v-248h-44v247q0 38 10.5 63.5t36.5 38.5t71 13h10q-22 60 -33.5 113t-11.5 104q0 30 6 64t21 65q32 34 75 54t98 20q29 0 54.5 -6.5t45.5 -20.5q42 -26 63.5 -75t21.5 -109q0 -40 -7 -80
t-21 -67q24 -34 55 -48t80 -14h5q5 0 5 -4v-33q0 -5 -5 -5h-5q-52 0 -88.5 14.5t-69.5 52.5q-27 -34 -63 -50.5t-81 -16.5h-151zM194 268q0 -52 11 -108t35 -118h102q47 0 79 24t49 71.5t17 114.5q0 75 -37.5 121.5t-99.5 46.5q-40 0 -74 -13.5t-66 -41.5q-7 -14 -11.5 -41
t-4.5 -56z" />
    <glyph glyph-name="uniFC29" unicode="&#xfc29;" horiz-adv-x="1074" arabic-form="isolated" 
d="M588 0q-5 0 -5 5v33q0 4 5 4h176q-29 21 -49 53t-30.5 72t-10.5 84q0 75 28 128t77 81t111 28q37 0 68.5 -8t51.5 -18l-17 -39q-25 11 -51.5 17t-53.5 6q-51 0 -89 -23.5t-58.5 -68t-20.5 -106.5q0 -61 19.5 -107t51.5 -72.5t69 -26.5h168v-42h-440zM236 -326
q-57 0 -100 22t-67 63t-24 98q0 34 9 62.5t26 53.5q29 44 80.5 77.5t121.5 60.5t154 52q-4 12 -8.5 30.5t-8.5 41.5q-9 62 -29 109.5t-55 74.5t-90 27q-51 0 -96 -15.5t-84 -36.5l-19 37q21 15 52.5 28t68.5 21t74 8q60 0 104 -23.5t73 -76.5t43 -141q6 -34 14 -66t19 -58
q17 -35 40.5 -58t59.5 -23h4q5 0 5 -4v-33q0 -5 -5 -5h-4q-37 0 -64.5 17t-46.5 45.5t-34 62.5q-86 -26 -159.5 -55t-118.5 -68q-42 -31 -61 -66.5t-19 -75.5q0 -69 41.5 -107t114.5 -38zM390 -190q-16 0 -26 9.5t-10 29.5q0 19 10 28.5t26 9.5q15 0 25.5 -9t10.5 -29
t-9.5 -29.5t-26.5 -9.5z" />
    <glyph glyph-name="uniFC2A" unicode="&#xfc2a;" horiz-adv-x="1121" arabic-form="isolated" 
d="M635 0q-5 0 -5 5v33q0 4 5 4h176q-29 21 -49 53t-30.5 72t-10.5 84q0 75 28 128t77 81t111 28q37 0 68.5 -8t51.5 -18l-17 -39q-25 11 -51.5 17t-53.5 6q-51 0 -89 -23.5t-58.5 -68t-20.5 -106.5q0 -61 19.5 -107t51.5 -72.5t69 -26.5h168v-42h-440zM187 0
q-41 0 -59.5 -17t-18.5 -55v-248h-44v247q0 38 10.5 63.5t36.5 38.5t71 13h10q-22 60 -33.5 113t-11.5 104q0 30 6 64t21 65q32 34 75 54t98 20q29 0 54.5 -6.5t45.5 -20.5q42 -26 63.5 -75t21.5 -109q0 -40 -7 -80t-21 -67q24 -34 55 -48t80 -14h5q5 0 5 -4v-33q0 -5 -5 -5
h-5q-52 0 -88.5 14.5t-69.5 52.5q-27 -34 -63 -50.5t-81 -16.5h-151zM194 268q0 -52 11 -108t35 -118h102q47 0 79 24t49 71.5t17 114.5q0 75 -37.5 121.5t-99.5 46.5q-40 0 -74 -13.5t-66 -41.5q-7 -14 -11.5 -41t-4.5 -56z" />
    <glyph glyph-name="uniFC2B" unicode="&#xfc2b;" horiz-adv-x="1074" arabic-form="isolated" 
d="M588 0q-5 0 -5 5v33q0 4 5 4h176q-29 21 -49 53t-30.5 72t-10.5 84q0 75 28 128t77 81t111 28q37 0 68.5 -8t51.5 -18l-17 -39q-25 11 -51.5 17t-53.5 6q-51 0 -89 -23.5t-58.5 -68t-20.5 -106.5q0 -61 19.5 -107t51.5 -72.5t69 -26.5h168v-42h-440zM867 596
q-16 0 -26 9.5t-10 29.5q0 19 10 28.5t26 9.5q15 0 25.5 -9t10.5 -29t-9.5 -29.5t-26.5 -9.5zM236 -326q-57 0 -100 22t-67 63t-24 98q0 34 9 62.5t26 53.5q29 44 80.5 77.5t121.5 60.5t154 52q-4 12 -8.5 30.5t-8.5 41.5q-9 62 -29 109.5t-55 74.5t-90 27q-51 0 -96 -15.5
t-84 -36.5l-19 37q21 15 52.5 28t68.5 21t74 8q60 0 104 -23.5t73 -76.5t43 -141q6 -34 14 -66t19 -58q17 -35 40.5 -58t59.5 -23h4q5 0 5 -4v-33q0 -5 -5 -5h-4q-37 0 -64.5 17t-46.5 45.5t-34 62.5q-86 -26 -159.5 -55t-118.5 -68q-42 -31 -61 -66.5t-19 -75.5
q0 -69 41.5 -107t114.5 -38zM390 -190q-16 0 -26 9.5t-10 29.5q0 19 10 28.5t26 9.5q15 0 25.5 -9t10.5 -29t-9.5 -29.5t-26.5 -9.5z" />
    <glyph glyph-name="uniFC2C" unicode="&#xfc2c;" horiz-adv-x="1121" arabic-form="isolated" 
d="M635 0q-5 0 -5 5v33q0 4 5 4h176q-29 21 -49 53t-30.5 72t-10.5 84q0 75 28 128t77 81t111 28q37 0 68.5 -8t51.5 -18l-17 -39q-25 11 -51.5 17t-53.5 6q-51 0 -89 -23.5t-58.5 -68t-20.5 -106.5q0 -61 19.5 -107t51.5 -72.5t69 -26.5h168v-42h-440zM914 596
q-16 0 -26 9.5t-10 29.5q0 19 10 28.5t26 9.5q15 0 25.5 -9t10.5 -29t-9.5 -29.5t-26.5 -9.5zM187 0q-41 0 -59.5 -17t-18.5 -55v-248h-44v247q0 38 10.5 63.5t36.5 38.5t71 13h10q-22 60 -33.5 113t-11.5 104q0 30 6 64t21 65q32 34 75 54t98 20q29 0 54.5 -6.5t45.5 -20.5
q42 -26 63.5 -75t21.5 -109q0 -40 -7 -80t-21 -67q24 -34 55 -48t80 -14h5q5 0 5 -4v-33q0 -5 -5 -5h-5q-52 0 -88.5 14.5t-69.5 52.5q-27 -34 -63 -50.5t-81 -16.5h-151zM194 268q0 -52 11 -108t35 -118h102q47 0 79 24t49 71.5t17 114.5q0 75 -37.5 121.5t-99.5 46.5
q-40 0 -74 -13.5t-66 -41.5q-7 -14 -11.5 -41t-4.5 -56z" />
    <glyph glyph-name="uniFC2D" unicode="&#xfc2d;" horiz-adv-x="1138" arabic-form="isolated" 
d="M588 0q-5 0 -5 5v33q0 4 5 4h175q-24 17 -40 45t-23.5 62t-7.5 65q0 80 32 139.5t91.5 92t138.5 32.5h100v-478h-466zM867 42h142v394h-52q-68 0 -117.5 -27t-75.5 -76.5t-26 -115.5q0 -58 16.5 -97t46 -58.5t66.5 -19.5zM916 619q-16 0 -26 9.5t-10 29.5q0 19 10 28.5
t26 9.5q15 0 25.5 -9t10.5 -29t-9.5 -29.5t-26.5 -9.5zM236 -326q-57 0 -100 22t-67 63t-24 98q0 34 9 62.5t26 53.5q29 44 80.5 77.5t121.5 60.5t154 52q-4 12 -8.5 30.5t-8.5 41.5q-9 62 -29 109.5t-55 74.5t-90 27q-51 0 -96 -15.5t-84 -36.5l-19 37q21 15 52.5 28
t68.5 21t74 8q60 0 104 -23.5t73 -76.5t43 -141q6 -34 14 -66t19 -58q17 -35 40.5 -58t59.5 -23h4q5 0 5 -4v-33q0 -5 -5 -5h-4q-37 0 -64.5 17t-46.5 45.5t-34 62.5q-86 -26 -159.5 -55t-118.5 -68q-42 -31 -61 -66.5t-19 -75.5q0 -69 41.5 -107t114.5 -38zM390 -190
q-16 0 -26 9.5t-10 29.5q0 19 10 28.5t26 9.5q15 0 25.5 -9t10.5 -29t-9.5 -29.5t-26.5 -9.5z" />
    <glyph glyph-name="uniFC2E" unicode="&#xfc2e;" horiz-adv-x="1138" arabic-form="isolated" 
d="M588 0q-5 0 -5 5v33q0 4 5 4h175q-24 17 -40 45t-23.5 62t-7.5 65q0 80 32 139.5t91.5 92t138.5 32.5h100v-478h-466zM867 42h142v394h-52q-68 0 -117.5 -27t-75.5 -76.5t-26 -115.5q0 -58 16.5 -97t46 -58.5t66.5 -19.5zM916 619q-16 0 -26 9.5t-10 29.5q0 19 10 28.5
t26 9.5q15 0 25.5 -9t10.5 -29t-9.5 -29.5t-26.5 -9.5zM594 0q-37 0 -64 17t-46.5 45.5t-34.5 62.5q-65 -20 -123.5 -41.5t-103.5 -47.5t-71 -60q-31 -26 -45.5 -54t-14.5 -62q0 -47 20 -79t60 -49t100 -17q33 0 69 6t87 16l7 -39q-51 -12 -100 -18t-81 -6q-65 0 -112 22
t-71.5 63t-24.5 98q0 34 9 62.5t26 53.5q29 44 80.5 77.5t121.5 60.5t154 52q-4 13 -8.5 31t-8.5 41q-9 62 -29.5 109.5t-55.5 74.5t-91 27q-45 0 -93 -14.5t-87 -39.5l-19 37q32 24 86.5 41.5t108.5 17.5q61 0 105.5 -23.5t73.5 -76.5t43 -141q6 -35 15 -69.5t22 -60.5
q15 -33 38.5 -54t57.5 -21h4q5 0 5 -4v-33q0 -5 -5 -5h-4z" />
    <glyph glyph-name="uniFC2F" unicode="&#xfc2f;" horiz-adv-x="1138" arabic-form="isolated" 
d="M588 0q-5 0 -5 5v33q0 4 5 4h175q-24 17 -40 45t-23.5 62t-7.5 65q0 80 32 139.5t91.5 92t138.5 32.5h100v-478h-466zM867 42h142v394h-52q-68 0 -117.5 -27t-75.5 -76.5t-26 -115.5q0 -58 16.5 -97t46 -58.5t66.5 -19.5zM916 619q-16 0 -26 9.5t-10 29.5q0 19 10 28.5
t26 9.5q15 0 25.5 -9t10.5 -29t-9.5 -29.5t-26.5 -9.5zM594 0q-37 0 -64 17t-46.5 45.5t-34.5 62.5q-65 -20 -123.5 -41.5t-103.5 -47.5t-71 -60q-31 -26 -45.5 -54t-14.5 -62q0 -47 20 -79t60 -49t100 -17q33 0 69 6t87 16l7 -39q-51 -12 -100 -18t-81 -6q-65 0 -112 22
t-71.5 63t-24.5 98q0 34 9 62.5t26 53.5q29 44 80.5 77.5t121.5 60.5t154 52q-4 13 -8.5 31t-8.5 41q-9 62 -29.5 109.5t-55.5 74.5t-91 27q-45 0 -93 -14.5t-87 -39.5l-19 37q32 24 86.5 41.5t108.5 17.5q61 0 105.5 -23.5t73.5 -76.5t43 -141q6 -35 15 -69.5t22 -60.5
q15 -33 38.5 -54t57.5 -21h4q5 0 5 -4v-33q0 -5 -5 -5h-4zM216 599q-16 0 -26 9.5t-10 29.5q0 19 10 28.5t26 9.5q15 0 25.5 -9t10.5 -29t-9.5 -29.5t-26.5 -9.5z" />
    <glyph glyph-name="uniFC30" unicode="&#xfc30;" horiz-adv-x="1185" arabic-form="isolated" 
d="M635 0q-5 0 -5 5v33q0 4 5 4h175q-24 17 -40 45t-23.5 62t-7.5 65q0 80 32 139.5t91.5 92t138.5 32.5h100v-478h-466zM914 42h142v394h-52q-68 0 -117.5 -27t-75.5 -76.5t-26 -115.5q0 -58 16.5 -97t46 -58.5t66.5 -19.5zM963 619q-16 0 -26 9.5t-10 29.5q0 19 10 28.5
t26 9.5q15 0 25.5 -9t10.5 -29t-9.5 -29.5t-26.5 -9.5zM187 0q-41 0 -59.5 -17t-18.5 -55v-248h-44v247q0 38 10.5 63.5t36.5 38.5t71 13h10q-22 60 -33.5 113t-11.5 104q0 30 6 64t21 65q32 34 75 54t98 20q29 0 54.5 -6.5t45.5 -20.5q42 -26 63.5 -75t21.5 -109
q0 -40 -7 -80t-21 -67q24 -34 55 -48t80 -14h5q5 0 5 -4v-33q0 -5 -5 -5h-5q-52 0 -88.5 14.5t-69.5 52.5q-27 -34 -63 -50.5t-81 -16.5h-151zM194 268q0 -52 11 -108t35 -118h102q47 0 79 24t49 71.5t17 114.5q0 75 -37.5 121.5t-99.5 46.5q-40 0 -74 -13.5t-66 -41.5
q-7 -14 -11.5 -41t-4.5 -56z" />
    <glyph glyph-name="uniFC31" unicode="&#xfc31;" horiz-adv-x="1482" arabic-form="isolated" 
d="M932 0q-5 0 -5 5v33q0 4 5 4h175q-24 17 -40 45t-23.5 62t-7.5 65q0 80 32 139.5t91.5 92t138.5 32.5h100v-478h-466zM1211 42h142v394h-52q-68 0 -117.5 -27t-75.5 -76.5t-26 -115.5q0 -58 16.5 -97t46 -58.5t66.5 -19.5zM1260 619q-16 0 -26 9.5t-10 29.5q0 19 10 28.5
t26 9.5q15 0 25.5 -9t10.5 -29t-9.5 -29.5t-26.5 -9.5zM279 -240q-74 0 -121.5 26t-70.5 79t-23 135q0 55 10.5 99.5t23.5 81.5h42q-12 -39 -21 -81.5t-9 -93.5q0 -71 17 -116t55 -66.5t100 -21.5h170q66 0 107.5 18.5t61.5 46.5t20 56q0 30 -25 45t-77 29q-46 13 -81 26
t-54 35t-19 60q0 31 8 56t22 47q22 35 51.5 61t64 40t69.5 14q22 0 42 -5t36 -15q28 -16 46 -44t39 -71q19 -40 40.5 -74t51.5 -58q23 -17 42 -22t40 -5h5q5 0 5 -4v-33q0 -5 -5 -5h-5q-24 0 -45 5t-41 17t-41 31q-25 21 -42.5 49.5t-32.5 58.5q-18 37 -34 63t-36 42
q-13 11 -31 17.5t-39 6.5q-31 0 -61 -15.5t-53 -40.5t-36.5 -54.5t-13.5 -57.5q0 -22 14.5 -36.5t36 -22.5t41.5 -14q28 -8 51 -15t42 -15q34 -12 52.5 -32.5t18.5 -50.5q0 -80 -60.5 -128t-176.5 -48h-171z" />
    <glyph glyph-name="uniFC32" unicode="&#xfc32;" horiz-adv-x="1482" arabic-form="isolated" 
d="M932 0q-5 0 -5 5v33q0 4 5 4h175q-24 17 -40 45t-23.5 62t-7.5 65q0 80 32 139.5t91.5 92t138.5 32.5h100v-478h-466zM1211 42h142v394h-52q-68 0 -117.5 -27t-75.5 -76.5t-26 -115.5q0 -58 16.5 -97t46 -58.5t66.5 -19.5zM1260 619q-16 0 -26 9.5t-10 29.5q0 19 10 28.5
t26 9.5q15 0 25.5 -9t10.5 -29t-9.5 -29.5t-26.5 -9.5zM279 -240q-74 0 -121.5 26t-70.5 79t-23 135q0 55 10.5 99.5t23.5 81.5h42q-12 -39 -21 -81.5t-9 -93.5q0 -71 17 -116t55 -66.5t100 -21.5h170q66 0 107.5 18.5t61.5 46.5t20 56q0 30 -25 45t-77 29q-46 13 -81 26
t-54 35t-19 60q0 31 8 56t22 47q22 35 51.5 61t64 40t69.5 14q22 0 42 -5t36 -15q28 -16 46 -44t39 -71q19 -40 40.5 -74t51.5 -58q23 -17 42 -22t40 -5h5q5 0 5 -4v-33q0 -5 -5 -5h-5q-24 0 -45 5t-41 17t-41 31q-25 21 -42.5 49.5t-32.5 58.5q-18 37 -34 63t-36 42
q-13 11 -31 17.5t-39 6.5q-31 0 -61 -15.5t-53 -40.5t-36.5 -54.5t-13.5 -57.5q0 -22 14.5 -36.5t36 -22.5t41.5 -14q28 -8 51 -15t42 -15q34 -12 52.5 -32.5t18.5 -50.5q0 -80 -60.5 -128t-176.5 -48h-171zM322 -403q-15 0 -25.5 9t-10.5 30q0 20 10.5 29t25.5 9
q14 0 25 -8.5t11 -29.5t-10 -30t-26 -9zM455 -403q-17 0 -26.5 9.5t-9.5 29.5q0 19 9.5 28.5t26.5 9.5q16 0 26 -9.5t10 -28.5t-10 -29t-26 -10z" />
    <glyph glyph-name="uniFC33" unicode="&#xfc33;" horiz-adv-x="1138" arabic-form="isolated" 
d="M588 0q-5 0 -5 5v33q0 4 5 4h175q-24 17 -40 45t-23.5 62t-7.5 65q0 80 32 139.5t91.5 92t138.5 32.5h100v-478h-466zM867 42h142v394h-52q-68 0 -117.5 -27t-75.5 -76.5t-26 -115.5q0 -58 16.5 -97t46 -58.5t66.5 -19.5zM852 628q-14 0 -25.5 8t-11.5 31q0 22 11.5 30.5
t25.5 8.5q17 0 26.5 -10t9.5 -30q0 -18 -9.5 -28t-26.5 -10zM980 628q-18 0 -27.5 10t-9.5 28q0 20 10 30t27 10t26.5 -11t9.5 -29q0 -17 -9 -27.5t-27 -10.5zM594 0q-37 0 -64 17t-46.5 45.5t-34.5 62.5q-65 -20 -123.5 -41.5t-103.5 -47.5t-71 -60q-31 -26 -45.5 -54
t-14.5 -62q0 -47 20 -79t60 -49t100 -17q33 0 69 6t87 16l7 -39q-51 -12 -100 -18t-81 -6q-65 0 -112 22t-71.5 63t-24.5 98q0 34 9 62.5t26 53.5q29 44 80.5 77.5t121.5 60.5t154 52q-4 13 -8.5 31t-8.5 41q-9 62 -29.5 109.5t-55.5 74.5t-91 27q-45 0 -93 -14.5t-87 -39.5
l-19 37q32 24 86.5 41.5t108.5 17.5q61 0 105.5 -23.5t73.5 -76.5t43 -141q6 -35 15 -69.5t22 -60.5q15 -33 38.5 -54t57.5 -21h4q5 0 5 -4v-33q0 -5 -5 -5h-4z" />
    <glyph glyph-name="uniFC34" unicode="&#xfc34;" horiz-adv-x="1185" arabic-form="isolated" 
d="M635 0q-5 0 -5 5v33q0 4 5 4h175q-24 17 -40 45t-23.5 62t-7.5 65q0 80 32 139.5t91.5 92t138.5 32.5h100v-478h-466zM914 42h142v394h-52q-68 0 -117.5 -27t-75.5 -76.5t-26 -115.5q0 -58 16.5 -97t46 -58.5t66.5 -19.5zM899 628q-14 0 -25.5 8t-11.5 31q0 22 11.5 30.5
t25.5 8.5q17 0 26.5 -10t9.5 -30q0 -18 -9.5 -28t-26.5 -10zM1027 628q-18 0 -27.5 10t-9.5 28q0 20 10 30t27 10t26.5 -11t9.5 -29q0 -17 -9 -27.5t-27 -10.5zM187 0q-41 0 -59.5 -17t-18.5 -55v-248h-44v247q0 38 10.5 63.5t36.5 38.5t71 13h10q-22 60 -33.5 113
t-11.5 104q0 30 6 64t21 65q32 34 75 54t98 20q29 0 54.5 -6.5t45.5 -20.5q42 -26 63.5 -75t21.5 -109q0 -40 -7 -80t-21 -67q24 -34 55 -48t80 -14h5q5 0 5 -4v-33q0 -5 -5 -5h-5q-52 0 -88.5 14.5t-69.5 52.5q-27 -34 -63 -50.5t-81 -16.5h-151zM194 268q0 -52 11 -108
t35 -118h102q47 0 79 24t49 71.5t17 114.5q0 75 -37.5 121.5t-99.5 46.5q-40 0 -74 -13.5t-66 -41.5q-7 -14 -11.5 -41t-4.5 -56z" />
    <glyph glyph-name="uniFC35" unicode="&#xfc35;" horiz-adv-x="1482" arabic-form="isolated" 
d="M932 0q-5 0 -5 5v33q0 4 5 4h175q-24 17 -40 45t-23.5 62t-7.5 65q0 80 32 139.5t91.5 92t138.5 32.5h100v-478h-466zM1211 42h142v394h-52q-68 0 -117.5 -27t-75.5 -76.5t-26 -115.5q0 -58 16.5 -97t46 -58.5t66.5 -19.5zM1195 628q-14 0 -25.5 8t-11.5 31
q0 22 11.5 30.5t25.5 8.5q17 0 26.5 -10t9.5 -30q0 -18 -9.5 -28t-26.5 -10zM1323 628q-18 0 -27.5 10t-9.5 28q0 20 10 30t27 10t26.5 -11t9.5 -29q0 -17 -9 -27.5t-27 -10.5zM279 -240q-74 0 -121.5 26t-70.5 79t-23 135q0 55 10.5 99.5t23.5 81.5h42q-12 -39 -21 -81.5
t-9 -93.5q0 -71 17 -116t55 -66.5t100 -21.5h170q66 0 107.5 18.5t61.5 46.5t20 56q0 30 -25 45t-77 29q-46 13 -81 26t-54 35t-19 60q0 31 8 56t22 47q22 35 51.5 61t64 40t69.5 14q22 0 42 -5t36 -15q28 -16 46 -44t39 -71q19 -40 40.5 -74t51.5 -58q23 -17 42 -22t40 -5
h5q5 0 5 -4v-33q0 -5 -5 -5h-5q-24 0 -45 5t-41 17t-41 31q-25 21 -42.5 49.5t-32.5 58.5q-18 37 -34 63t-36 42q-13 11 -31 17.5t-39 6.5q-31 0 -61 -15.5t-53 -40.5t-36.5 -54.5t-13.5 -57.5q0 -22 14.5 -36.5t36 -22.5t41.5 -14q28 -8 51 -15t42 -15q34 -12 52.5 -32.5
t18.5 -50.5q0 -80 -60.5 -128t-176.5 -48h-171z" />
    <glyph glyph-name="uniFC36" unicode="&#xfc36;" horiz-adv-x="1482" arabic-form="isolated" 
d="M932 0q-5 0 -5 5v33q0 4 5 4h175q-24 17 -40 45t-23.5 62t-7.5 65q0 80 32 139.5t91.5 92t138.5 32.5h100v-478h-466zM1211 42h142v394h-52q-68 0 -117.5 -27t-75.5 -76.5t-26 -115.5q0 -58 16.5 -97t46 -58.5t66.5 -19.5zM1195 628q-14 0 -25.5 8t-11.5 31
q0 22 11.5 30.5t25.5 8.5q17 0 26.5 -10t9.5 -30q0 -18 -9.5 -28t-26.5 -10zM1323 628q-18 0 -27.5 10t-9.5 28q0 20 10 30t27 10t26.5 -11t9.5 -29q0 -17 -9 -27.5t-27 -10.5zM279 -240q-74 0 -121.5 26t-70.5 79t-23 135q0 55 10.5 99.5t23.5 81.5h42q-12 -39 -21 -81.5
t-9 -93.5q0 -71 17 -116t55 -66.5t100 -21.5h170q66 0 107.5 18.5t61.5 46.5t20 56q0 30 -25 45t-77 29q-46 13 -81 26t-54 35t-19 60q0 31 8 56t22 47q22 35 51.5 61t64 40t69.5 14q22 0 42 -5t36 -15q28 -16 46 -44t39 -71q19 -40 40.5 -74t51.5 -58q23 -17 42 -22t40 -5
h5q5 0 5 -4v-33q0 -5 -5 -5h-5q-24 0 -45 5t-41 17t-41 31q-25 21 -42.5 49.5t-32.5 58.5q-18 37 -34 63t-36 42q-13 11 -31 17.5t-39 6.5q-31 0 -61 -15.5t-53 -40.5t-36.5 -54.5t-13.5 -57.5q0 -22 14.5 -36.5t36 -22.5t41.5 -14q28 -8 51 -15t42 -15q34 -12 52.5 -32.5
t18.5 -50.5q0 -80 -60.5 -128t-176.5 -48h-171zM322 -403q-15 0 -25.5 9t-10.5 30q0 20 10.5 29t25.5 9q14 0 25 -8.5t11 -29.5t-10 -30t-26 -9zM455 -403q-17 0 -26.5 9.5t-9.5 29.5q0 19 9.5 28.5t26.5 9.5q16 0 26 -9.5t10 -28.5t-10 -29t-26 -10z" />
    <glyph glyph-name="uniFC37" unicode="&#xfc37;" horiz-adv-x="834" arabic-form="isolated" 
d="M276 0q-5 0 -5 5v33q0 4 5 4h439v214q0 86 -48 121t-147 35h-174v43q17 39 38.5 74.5t52.5 73.5q56 68 123.5 118t123.5 74l17 -40q-47 -21 -95 -54.5t-90.5 -74.5t-75 -85.5t-49.5 -86.5h129q117 0 178 -45.5t61 -146.5v-262h-483zM285 42q6 0 6 -4v-33q0 -5 -5 -5h-186
v760h46v-718h139z" />
    <glyph glyph-name="uniFC38" unicode="&#xfc38;" horiz-adv-x="1147" arabic-form="isolated" 
d="M588 0q-5 0 -5 5v33q0 4 5 4h439v214q0 86 -48 121t-147 35h-174v43q17 39 38.5 74.5t52.5 73.5q56 68 123.5 118t123.5 74l17 -40q-47 -21 -95 -54.5t-90.5 -74.5t-75 -85.5t-49.5 -86.5h129q117 0 178 -45.5t61 -146.5v-262h-483zM236 -326q-57 0 -100 22t-67 63
t-24 98q0 34 9 62.5t26 53.5q29 44 80.5 77.5t121.5 60.5t154 52q-4 12 -8.5 30.5t-8.5 41.5q-9 62 -29 109.5t-55 74.5t-90 27q-51 0 -96 -15.5t-84 -36.5l-19 37q21 15 52.5 28t68.5 21t74 8q60 0 104 -23.5t73 -76.5t43 -141q6 -34 14 -66t19 -58q17 -35 40.5 -58
t59.5 -23h4q5 0 5 -4v-33q0 -5 -5 -5h-4q-37 0 -64.5 17t-46.5 45.5t-34 62.5q-86 -26 -159.5 -55t-118.5 -68q-42 -31 -61 -66.5t-19 -75.5q0 -69 41.5 -107t114.5 -38zM390 -190q-16 0 -26 9.5t-10 29.5q0 19 10 28.5t26 9.5q15 0 25.5 -9t10.5 -29t-9.5 -29.5t-26.5 -9.5
z" />
    <glyph glyph-name="uniFC39" unicode="&#xfc39;" horiz-adv-x="1147" arabic-form="isolated" 
d="M588 0q-5 0 -5 5v33q0 4 5 4h439v214q0 86 -48 121t-147 35h-174v43q17 39 38.5 74.5t52.5 73.5q56 68 123.5 118t123.5 74l17 -40q-47 -21 -95 -54.5t-90.5 -74.5t-75 -85.5t-49.5 -86.5h129q117 0 178 -45.5t61 -146.5v-262h-483zM594 0q-37 0 -64 17t-46.5 45.5
t-34.5 62.5q-65 -20 -123.5 -41.5t-103.5 -47.5t-71 -60q-31 -26 -45.5 -54t-14.5 -62q0 -47 20 -79t60 -49t100 -17q33 0 69 6t87 16l7 -39q-51 -12 -100 -18t-81 -6q-65 0 -112 22t-71.5 63t-24.5 98q0 34 9 62.5t26 53.5q29 44 80.5 77.5t121.5 60.5t154 52
q-4 13 -8.5 31t-8.5 41q-9 62 -29.5 109.5t-55.5 74.5t-91 27q-45 0 -93 -14.5t-87 -39.5l-19 37q32 24 86.5 41.5t108.5 17.5q61 0 105.5 -23.5t73.5 -76.5t43 -141q6 -35 15 -69.5t22 -60.5q15 -33 38.5 -54t57.5 -21h4q5 0 5 -4v-33q0 -5 -5 -5h-4z" />
    <glyph glyph-name="uniFC3A" unicode="&#xfc3a;" horiz-adv-x="1147" arabic-form="isolated" 
d="M588 0q-5 0 -5 5v33q0 4 5 4h439v214q0 86 -48 121t-147 35h-174v43q17 39 38.5 74.5t52.5 73.5q56 68 123.5 118t123.5 74l17 -40q-47 -21 -95 -54.5t-90.5 -74.5t-75 -85.5t-49.5 -86.5h129q117 0 178 -45.5t61 -146.5v-262h-483zM594 0q-37 0 -64 17t-46.5 45.5
t-34.5 62.5q-65 -20 -123.5 -41.5t-103.5 -47.5t-71 -60q-31 -26 -45.5 -54t-14.5 -62q0 -47 20 -79t60 -49t100 -17q33 0 69 6t87 16l7 -39q-51 -12 -100 -18t-81 -6q-65 0 -112 22t-71.5 63t-24.5 98q0 34 9 62.5t26 53.5q29 44 80.5 77.5t121.5 60.5t154 52
q-4 13 -8.5 31t-8.5 41q-9 62 -29.5 109.5t-55.5 74.5t-91 27q-45 0 -93 -14.5t-87 -39.5l-19 37q32 24 86.5 41.5t108.5 17.5q61 0 105.5 -23.5t73.5 -76.5t43 -141q6 -35 15 -69.5t22 -60.5q15 -33 38.5 -54t57.5 -21h4q5 0 5 -4v-33q0 -5 -5 -5h-4zM216 599
q-16 0 -26 9.5t-10 29.5q0 19 10 28.5t26 9.5q15 0 25.5 -9t10.5 -29t-9.5 -29.5t-26.5 -9.5z" />
    <glyph glyph-name="uniFC3B" unicode="&#xfc3b;" horiz-adv-x="1193" arabic-form="isolated" 
d="M634 0q-5 0 -5 5v33q0 4 5 4h439v214q0 86 -48 121t-147 35h-174v43q17 39 38.5 74.5t52.5 73.5q56 68 123.5 118t123.5 74l17 -40q-47 -21 -95 -54.5t-90.5 -74.5t-75 -85.5t-49.5 -86.5h129q117 0 178 -45.5t61 -146.5v-262h-483zM528 0q0 -126 -50.5 -183t-164.5 -57
h-70q-34 0 -61 9.5t-48 27.5q-34 31 -51.5 84.5t-17.5 128.5q0 39 4 81t13 82.5t22 72.5l42 -1q-16 -42 -25.5 -102.5t-9.5 -127.5q0 -105 32.5 -159t108.5 -54h61q59 0 96.5 19t55.5 62t18 117v760h45v-718h116q5 0 5 -4v-33q0 -5 -5 -5h-116z" />
    <glyph glyph-name="uniFC3C" unicode="&#xfc3c;" horiz-adv-x="1194" arabic-form="isolated" 
d="M635 0q-5 0 -5 5v33q0 4 5 4h439v214q0 86 -48 121t-147 35h-174v43q17 39 38.5 74.5t52.5 73.5q56 68 123.5 118t123.5 74l17 -40q-47 -21 -95 -54.5t-90.5 -74.5t-75 -85.5t-49.5 -86.5h129q117 0 178 -45.5t61 -146.5v-262h-483zM187 0q-41 0 -59.5 -17t-18.5 -55
v-248h-44v247q0 38 10.5 63.5t36.5 38.5t71 13h10q-22 60 -33.5 113t-11.5 104q0 30 6 64t21 65q32 34 75 54t98 20q29 0 54.5 -6.5t45.5 -20.5q42 -26 63.5 -75t21.5 -109q0 -40 -7 -80t-21 -67q24 -34 55 -48t80 -14h5q5 0 5 -4v-33q0 -5 -5 -5h-5q-52 0 -88.5 14.5
t-69.5 52.5q-27 -34 -63 -50.5t-81 -16.5h-151zM194 268q0 -52 11 -108t35 -118h102q47 0 79 24t49 71.5t17 114.5q0 75 -37.5 121.5t-99.5 46.5q-40 0 -74 -13.5t-66 -41.5q-7 -14 -11.5 -41t-4.5 -56z" />
    <glyph glyph-name="uniFC3D" unicode="&#xfc3d;" horiz-adv-x="1490" arabic-form="isolated" 
d="M932 0q-5 0 -5 5v33q0 4 5 4h439v214q0 86 -48 121t-147 35h-174v43q17 39 38.5 74.5t52.5 73.5q56 68 123.5 118t123.5 74l17 -40q-47 -21 -95 -54.5t-90.5 -74.5t-75 -85.5t-49.5 -86.5h129q117 0 178 -45.5t61 -146.5v-262h-483zM279 -240q-74 0 -121.5 26t-70.5 79
t-23 135q0 55 10.5 99.5t23.5 81.5h42q-12 -39 -21 -81.5t-9 -93.5q0 -71 17 -116t55 -66.5t100 -21.5h170q66 0 107.5 18.5t61.5 46.5t20 56q0 30 -25 45t-77 29q-46 13 -81 26t-54 35t-19 60q0 31 8 56t22 47q22 35 51.5 61t64 40t69.5 14q22 0 42 -5t36 -15
q28 -16 46 -44t39 -71q19 -40 40.5 -74t51.5 -58q23 -17 42 -22t40 -5h5q5 0 5 -4v-33q0 -5 -5 -5h-5q-24 0 -45 5t-41 17t-41 31q-25 21 -42.5 49.5t-32.5 58.5q-18 37 -34 63t-36 42q-13 11 -31 17.5t-39 6.5q-31 0 -61 -15.5t-53 -40.5t-36.5 -54.5t-13.5 -57.5
q0 -22 14.5 -36.5t36 -22.5t41.5 -14q28 -8 51 -15t42 -15q34 -12 52.5 -32.5t18.5 -50.5q0 -80 -60.5 -128t-176.5 -48h-171z" />
    <glyph glyph-name="uniFC3E" unicode="&#xfc3e;" horiz-adv-x="1490" arabic-form="isolated" 
d="M932 0q-5 0 -5 5v33q0 4 5 4h439v214q0 86 -48 121t-147 35h-174v43q17 39 38.5 74.5t52.5 73.5q56 68 123.5 118t123.5 74l17 -40q-47 -21 -95 -54.5t-90.5 -74.5t-75 -85.5t-49.5 -86.5h129q117 0 178 -45.5t61 -146.5v-262h-483zM279 -240q-74 0 -121.5 26t-70.5 79
t-23 135q0 55 10.5 99.5t23.5 81.5h42q-12 -39 -21 -81.5t-9 -93.5q0 -71 17 -116t55 -66.5t100 -21.5h170q66 0 107.5 18.5t61.5 46.5t20 56q0 30 -25 45t-77 29q-46 13 -81 26t-54 35t-19 60q0 31 8 56t22 47q22 35 51.5 61t64 40t69.5 14q22 0 42 -5t36 -15
q28 -16 46 -44t39 -71q19 -40 40.5 -74t51.5 -58q23 -17 42 -22t40 -5h5q5 0 5 -4v-33q0 -5 -5 -5h-5q-24 0 -45 5t-41 17t-41 31q-25 21 -42.5 49.5t-32.5 58.5q-18 37 -34 63t-36 42q-13 11 -31 17.5t-39 6.5q-31 0 -61 -15.5t-53 -40.5t-36.5 -54.5t-13.5 -57.5
q0 -22 14.5 -36.5t36 -22.5t41.5 -14q28 -8 51 -15t42 -15q34 -12 52.5 -32.5t18.5 -50.5q0 -80 -60.5 -128t-176.5 -48h-171zM322 -403q-15 0 -25.5 9t-10.5 30q0 20 10.5 29t25.5 9q14 0 25 -8.5t11 -29.5t-10 -30t-26 -9zM455 -403q-17 0 -26.5 9.5t-9.5 29.5
q0 19 9.5 28.5t26.5 9.5q16 0 26 -9.5t10 -28.5t-10 -29t-26 -10z" />
    <glyph glyph-name="uniFC3F" unicode="&#xfc3f;" horiz-adv-x="887" arabic-form="isolated" 
d="M588 0q-5 0 -5 5v33q0 4 5 4h147v718h45v-760h-192zM236 -326q-57 0 -100 22t-67 63t-24 98q0 34 9 62.5t26 53.5q29 44 80.5 77.5t121.5 60.5t154 52q-4 12 -8.5 30.5t-8.5 41.5q-9 62 -29 109.5t-55 74.5t-90 27q-51 0 -96 -15.5t-84 -36.5l-19 37q21 15 52.5 28
t68.5 21t74 8q60 0 104 -23.5t73 -76.5t43 -141q6 -34 14 -66t19 -58q17 -35 40.5 -58t59.5 -23h4q5 0 5 -4v-33q0 -5 -5 -5h-4q-37 0 -64.5 17t-46.5 45.5t-34 62.5q-86 -26 -159.5 -55t-118.5 -68q-42 -31 -61 -66.5t-19 -75.5q0 -69 41.5 -107t114.5 -38zM390 -190
q-16 0 -26 9.5t-10 29.5q0 19 10 28.5t26 9.5q15 0 25.5 -9t10.5 -29t-9.5 -29.5t-26.5 -9.5z" />
    <glyph glyph-name="uniFC40" unicode="&#xfc40;" horiz-adv-x="887" arabic-form="isolated" 
d="M588 0q-5 0 -5 5v33q0 4 5 4h147v718h45v-760h-192zM594 0q-37 0 -64 17t-46.5 45.5t-34.5 62.5q-65 -20 -123.5 -41.5t-103.5 -47.5t-71 -60q-31 -26 -45.5 -54t-14.5 -62q0 -47 20 -79t60 -49t100 -17q33 0 69 6t87 16l7 -39q-51 -12 -100 -18t-81 -6q-65 0 -112 22
t-71.5 63t-24.5 98q0 34 9 62.5t26 53.5q29 44 80.5 77.5t121.5 60.5t154 52q-4 13 -8.5 31t-8.5 41q-9 62 -29.5 109.5t-55.5 74.5t-91 27q-45 0 -93 -14.5t-87 -39.5l-19 37q32 24 86.5 41.5t108.5 17.5q61 0 105.5 -23.5t73.5 -76.5t43 -141q6 -35 15 -69.5t22 -60.5
q15 -33 38.5 -54t57.5 -21h4q5 0 5 -4v-33q0 -5 -5 -5h-4z" />
    <glyph glyph-name="uniFC41" unicode="&#xfc41;" horiz-adv-x="887" arabic-form="isolated" 
d="M588 0q-5 0 -5 5v33q0 4 5 4h147v718h45v-760h-192zM594 0q-37 0 -64 17t-46.5 45.5t-34.5 62.5q-65 -20 -123.5 -41.5t-103.5 -47.5t-71 -60q-31 -26 -45.5 -54t-14.5 -62q0 -47 20 -79t60 -49t100 -17q33 0 69 6t87 16l7 -39q-51 -12 -100 -18t-81 -6q-65 0 -112 22
t-71.5 63t-24.5 98q0 34 9 62.5t26 53.5q29 44 80.5 77.5t121.5 60.5t154 52q-4 13 -8.5 31t-8.5 41q-9 62 -29.5 109.5t-55.5 74.5t-91 27q-45 0 -93 -14.5t-87 -39.5l-19 37q32 24 86.5 41.5t108.5 17.5q61 0 105.5 -23.5t73.5 -76.5t43 -141q6 -35 15 -69.5t22 -60.5
q15 -33 38.5 -54t57.5 -21h4q5 0 5 -4v-33q0 -5 -5 -5h-4zM216 599q-16 0 -26 9.5t-10 29.5q0 19 10 28.5t26 9.5q15 0 25.5 -9t10.5 -29t-9.5 -29.5t-26.5 -9.5z" />
    <glyph glyph-name="uniFC42" unicode="&#xfc42;" horiz-adv-x="934" arabic-form="isolated" 
d="M635 0q-5 0 -5 5v33q0 4 5 4h147v718h45v-760h-192zM187 0q-41 0 -59.5 -17t-18.5 -55v-248h-44v247q0 38 10.5 63.5t36.5 38.5t71 13h10q-22 60 -33.5 113t-11.5 104q0 30 6 64t21 65q32 34 75 54t98 20q29 0 54.5 -6.5t45.5 -20.5q42 -26 63.5 -75t21.5 -109
q0 -40 -7 -80t-21 -67q24 -34 55 -48t80 -14h5q5 0 5 -4v-33q0 -5 -5 -5h-5q-52 0 -88.5 14.5t-69.5 52.5q-27 -34 -63 -50.5t-81 -16.5h-151zM194 268q0 -52 11 -108t35 -118h102q47 0 79 24t49 71.5t17 114.5q0 75 -37.5 121.5t-99.5 46.5q-40 0 -74 -13.5t-66 -41.5
q-7 -14 -11.5 -41t-4.5 -56z" />
    <glyph glyph-name="uniFC43" unicode="&#xfc43;" horiz-adv-x="1231" arabic-form="isolated" 
d="M932 0q-5 0 -5 5v33q0 4 5 4h147v718h45v-760h-192zM279 -240q-74 0 -121.5 26t-70.5 79t-23 135q0 55 10.5 99.5t23.5 81.5h42q-12 -39 -21 -81.5t-9 -93.5q0 -71 17 -116t55 -66.5t100 -21.5h170q66 0 107.5 18.5t61.5 46.5t20 56q0 30 -25 45t-77 29q-46 13 -81 26
t-54 35t-19 60q0 31 8 56t22 47q22 35 51.5 61t64 40t69.5 14q22 0 42 -5t36 -15q28 -16 46 -44t39 -71q19 -40 40.5 -74t51.5 -58q23 -17 42 -22t40 -5h5q5 0 5 -4v-33q0 -5 -5 -5h-5q-24 0 -45 5t-41 17t-41 31q-25 21 -42.5 49.5t-32.5 58.5q-18 37 -34 63t-36 42
q-13 11 -31 17.5t-39 6.5q-31 0 -61 -15.5t-53 -40.5t-36.5 -54.5t-13.5 -57.5q0 -22 14.5 -36.5t36 -22.5t41.5 -14q28 -8 51 -15t42 -15q34 -12 52.5 -32.5t18.5 -50.5q0 -80 -60.5 -128t-176.5 -48h-171z" />
    <glyph glyph-name="uniFC44" unicode="&#xfc44;" horiz-adv-x="1231" arabic-form="isolated" 
d="M932 0q-5 0 -5 5v33q0 4 5 4h147v718h45v-760h-192zM279 -240q-74 0 -121.5 26t-70.5 79t-23 135q0 55 10.5 99.5t23.5 81.5h42q-12 -39 -21 -81.5t-9 -93.5q0 -71 17 -116t55 -66.5t100 -21.5h170q66 0 107.5 18.5t61.5 46.5t20 56q0 30 -25 45t-77 29q-46 13 -81 26
t-54 35t-19 60q0 31 8 56t22 47q22 35 51.5 61t64 40t69.5 14q22 0 42 -5t36 -15q28 -16 46 -44t39 -71q19 -40 40.5 -74t51.5 -58q23 -17 42 -22t40 -5h5q5 0 5 -4v-33q0 -5 -5 -5h-5q-24 0 -45 5t-41 17t-41 31q-25 21 -42.5 49.5t-32.5 58.5q-18 37 -34 63t-36 42
q-13 11 -31 17.5t-39 6.5q-31 0 -61 -15.5t-53 -40.5t-36.5 -54.5t-13.5 -57.5q0 -22 14.5 -36.5t36 -22.5t41.5 -14q28 -8 51 -15t42 -15q34 -12 52.5 -32.5t18.5 -50.5q0 -80 -60.5 -128t-176.5 -48h-171zM322 -403q-15 0 -25.5 9t-10.5 30q0 20 10.5 29t25.5 9
q14 0 25 -8.5t11 -29.5t-10 -30t-26 -9zM455 -403q-17 0 -26.5 9.5t-9.5 29.5q0 19 9.5 28.5t26.5 9.5q16 0 26 -9.5t10 -28.5t-10 -29t-26 -10z" />
    <glyph glyph-name="uniFC45" unicode="&#xfc45;" horiz-adv-x="1132" arabic-form="isolated" 
d="M588 0q-5 0 -5 5v33q0 4 5 4h131q-21 60 -32.5 113t-11.5 104q0 30 6 64t21 65q31 34 74.5 54t98.5 20q29 0 54 -6.5t46 -20.5q41 -26 63 -75t22 -109q0 -41 -5.5 -75t-17.5 -62q-24 -56 -66.5 -85t-105.5 -29h-277zM721 268q0 -52 10.5 -108t34.5 -118h103q47 0 79 24
t49 71.5t17 114.5q0 75 -37.5 121.5t-99.5 46.5q-41 0 -75 -14t-65 -41q-7 -14 -11.5 -41t-4.5 -56zM236 -326q-57 0 -100 22t-67 63t-24 98q0 34 9 62.5t26 53.5q29 44 80.5 77.5t121.5 60.5t154 52q-4 12 -8.5 30.5t-8.5 41.5q-9 62 -29 109.5t-55 74.5t-90 27
q-51 0 -96 -15.5t-84 -36.5l-19 37q21 15 52.5 28t68.5 21t74 8q60 0 104 -23.5t73 -76.5t43 -141q6 -34 14 -66t19 -58q17 -35 40.5 -58t59.5 -23h4q5 0 5 -4v-33q0 -5 -5 -5h-4q-37 0 -64.5 17t-46.5 45.5t-34 62.5q-86 -26 -159.5 -55t-118.5 -68q-42 -31 -61 -66.5
t-19 -75.5q0 -69 41.5 -107t114.5 -38zM390 -190q-16 0 -26 9.5t-10 29.5q0 19 10 28.5t26 9.5q15 0 25.5 -9t10.5 -29t-9.5 -29.5t-26.5 -9.5z" />
    <glyph glyph-name="uniFC46" unicode="&#xfc46;" horiz-adv-x="1132" arabic-form="isolated" 
d="M588 0q-5 0 -5 5v33q0 4 5 4h131q-21 60 -32.5 113t-11.5 104q0 30 6 64t21 65q31 34 74.5 54t98.5 20q29 0 54 -6.5t46 -20.5q41 -26 63 -75t22 -109q0 -41 -5.5 -75t-17.5 -62q-24 -56 -66.5 -85t-105.5 -29h-277zM721 268q0 -52 10.5 -108t34.5 -118h103q47 0 79 24
t49 71.5t17 114.5q0 75 -37.5 121.5t-99.5 46.5q-41 0 -75 -14t-65 -41q-7 -14 -11.5 -41t-4.5 -56zM594 0q-37 0 -64 17t-46.5 45.5t-34.5 62.5q-65 -20 -123.5 -41.5t-103.5 -47.5t-71 -60q-31 -26 -45.5 -54t-14.5 -62q0 -47 20 -79t60 -49t100 -17q33 0 69 6t87 16
l7 -39q-51 -12 -100 -18t-81 -6q-65 0 -112 22t-71.5 63t-24.5 98q0 34 9 62.5t26 53.5q29 44 80.5 77.5t121.5 60.5t154 52q-4 13 -8.5 31t-8.5 41q-9 62 -29.5 109.5t-55.5 74.5t-91 27q-45 0 -93 -14.5t-87 -39.5l-19 37q32 24 86.5 41.5t108.5 17.5q61 0 105.5 -23.5
t73.5 -76.5t43 -141q6 -35 15 -69.5t22 -60.5q15 -33 38.5 -54t57.5 -21h4q5 0 5 -4v-33q0 -5 -5 -5h-4z" />
    <glyph glyph-name="uniFC47" unicode="&#xfc47;" horiz-adv-x="1132" arabic-form="isolated" 
d="M588 0q-5 0 -5 5v33q0 4 5 4h131q-21 60 -32.5 113t-11.5 104q0 30 6 64t21 65q31 34 74.5 54t98.5 20q29 0 54 -6.5t46 -20.5q41 -26 63 -75t22 -109q0 -41 -5.5 -75t-17.5 -62q-24 -56 -66.5 -85t-105.5 -29h-277zM721 268q0 -52 10.5 -108t34.5 -118h103q47 0 79 24
t49 71.5t17 114.5q0 75 -37.5 121.5t-99.5 46.5q-41 0 -75 -14t-65 -41q-7 -14 -11.5 -41t-4.5 -56zM594 0q-37 0 -64 17t-46.5 45.5t-34.5 62.5q-65 -20 -123.5 -41.5t-103.5 -47.5t-71 -60q-31 -26 -45.5 -54t-14.5 -62q0 -47 20 -79t60 -49t100 -17q33 0 69 6t87 16
l7 -39q-51 -12 -100 -18t-81 -6q-65 0 -112 22t-71.5 63t-24.5 98q0 34 9 62.5t26 53.5q29 44 80.5 77.5t121.5 60.5t154 52q-4 13 -8.5 31t-8.5 41q-9 62 -29.5 109.5t-55.5 74.5t-91 27q-45 0 -93 -14.5t-87 -39.5l-19 37q32 24 86.5 41.5t108.5 17.5q61 0 105.5 -23.5
t73.5 -76.5t43 -141q6 -35 15 -69.5t22 -60.5q15 -33 38.5 -54t57.5 -21h4q5 0 5 -4v-33q0 -5 -5 -5h-4zM216 599q-16 0 -26 9.5t-10 29.5q0 19 10 28.5t26 9.5q15 0 25.5 -9t10.5 -29t-9.5 -29.5t-26.5 -9.5z" />
    <glyph glyph-name="uniFC48" unicode="&#xfc48;" horiz-adv-x="1179" arabic-form="isolated" 
d="M635 0q-5 0 -5 5v33q0 4 5 4h131q-21 60 -32.5 113t-11.5 104q0 30 6 64t21 65q31 34 74.5 54t98.5 20q29 0 54 -6.5t46 -20.5q41 -26 63 -75t22 -109q0 -41 -5.5 -75t-17.5 -62q-24 -56 -66.5 -85t-105.5 -29h-277zM768 268q0 -52 10.5 -108t34.5 -118h103q47 0 79 24
t49 71.5t17 114.5q0 75 -37.5 121.5t-99.5 46.5q-41 0 -75 -14t-65 -41q-7 -14 -11.5 -41t-4.5 -56zM187 0q-41 0 -59.5 -17t-18.5 -55v-248h-44v247q0 38 10.5 63.5t36.5 38.5t71 13h10q-22 60 -33.5 113t-11.5 104q0 30 6 64t21 65q32 34 75 54t98 20q29 0 54.5 -6.5
t45.5 -20.5q42 -26 63.5 -75t21.5 -109q0 -40 -7 -80t-21 -67q24 -34 55 -48t80 -14h5q5 0 5 -4v-33q0 -5 -5 -5h-5q-52 0 -88.5 14.5t-69.5 52.5q-27 -34 -63 -50.5t-81 -16.5h-151zM194 268q0 -52 11 -108t35 -118h102q47 0 79 24t49 71.5t17 114.5q0 75 -37.5 121.5
t-99.5 46.5q-40 0 -74 -13.5t-66 -41.5q-7 -14 -11.5 -41t-4.5 -56z" />
    <glyph glyph-name="uniFC49" unicode="&#xfc49;" horiz-adv-x="1475" arabic-form="isolated" 
d="M932 0q-5 0 -5 5v33q0 4 5 4h131q-21 60 -32.5 113t-11.5 104q0 30 6 64t21 65q31 34 74.5 54t98.5 20q29 0 54 -6.5t46 -20.5q41 -26 63 -75t22 -109q0 -41 -5.5 -75t-17.5 -62q-24 -56 -66.5 -85t-105.5 -29h-277zM1065 268q0 -52 10.5 -108t34.5 -118h103q47 0 79 24
t49 71.5t17 114.5q0 75 -37.5 121.5t-99.5 46.5q-41 0 -75 -14t-65 -41q-7 -14 -11.5 -41t-4.5 -56zM279 -240q-74 0 -121.5 26t-70.5 79t-23 135q0 55 10.5 99.5t23.5 81.5h42q-12 -39 -21 -81.5t-9 -93.5q0 -71 17 -116t55 -66.5t100 -21.5h170q66 0 107.5 18.5t61.5 46.5
t20 56q0 30 -25 45t-77 29q-46 13 -81 26t-54 35t-19 60q0 31 8 56t22 47q22 35 51.5 61t64 40t69.5 14q22 0 42 -5t36 -15q28 -16 46 -44t39 -71q19 -40 40.5 -74t51.5 -58q23 -17 42 -22t40 -5h5q5 0 5 -4v-33q0 -5 -5 -5h-5q-24 0 -45 5t-41 17t-41 31q-25 21 -42.5 49.5
t-32.5 58.5q-18 37 -34 63t-36 42q-13 11 -31 17.5t-39 6.5q-31 0 -61 -15.5t-53 -40.5t-36.5 -54.5t-13.5 -57.5q0 -22 14.5 -36.5t36 -22.5t41.5 -14q28 -8 51 -15t42 -15q34 -12 52.5 -32.5t18.5 -50.5q0 -80 -60.5 -128t-176.5 -48h-171z" />
    <glyph glyph-name="uniFC4A" unicode="&#xfc4a;" horiz-adv-x="1475" arabic-form="isolated" 
d="M932 0q-5 0 -5 5v33q0 4 5 4h131q-21 60 -32.5 113t-11.5 104q0 30 6 64t21 65q31 34 74.5 54t98.5 20q29 0 54 -6.5t46 -20.5q41 -26 63 -75t22 -109q0 -41 -5.5 -75t-17.5 -62q-24 -56 -66.5 -85t-105.5 -29h-277zM1065 268q0 -52 10.5 -108t34.5 -118h103q47 0 79 24
t49 71.5t17 114.5q0 75 -37.5 121.5t-99.5 46.5q-41 0 -75 -14t-65 -41q-7 -14 -11.5 -41t-4.5 -56zM279 -240q-74 0 -121.5 26t-70.5 79t-23 135q0 55 10.5 99.5t23.5 81.5h42q-12 -39 -21 -81.5t-9 -93.5q0 -71 17 -116t55 -66.5t100 -21.5h170q66 0 107.5 18.5t61.5 46.5
t20 56q0 30 -25 45t-77 29q-46 13 -81 26t-54 35t-19 60q0 31 8 56t22 47q22 35 51.5 61t64 40t69.5 14q22 0 42 -5t36 -15q28 -16 46 -44t39 -71q19 -40 40.5 -74t51.5 -58q23 -17 42 -22t40 -5h5q5 0 5 -4v-33q0 -5 -5 -5h-5q-24 0 -45 5t-41 17t-41 31q-25 21 -42.5 49.5
t-32.5 58.5q-18 37 -34 63t-36 42q-13 11 -31 17.5t-39 6.5q-31 0 -61 -15.5t-53 -40.5t-36.5 -54.5t-13.5 -57.5q0 -22 14.5 -36.5t36 -22.5t41.5 -14q28 -8 51 -15t42 -15q34 -12 52.5 -32.5t18.5 -50.5q0 -80 -60.5 -128t-176.5 -48h-171zM322 -403q-15 0 -25.5 9
t-10.5 30q0 20 10.5 29t25.5 9q14 0 25 -8.5t11 -29.5t-10 -30t-26 -9zM455 -403q-17 0 -26.5 9.5t-9.5 29.5q0 19 9.5 28.5t26.5 9.5q16 0 26 -9.5t10 -28.5t-10 -29t-26 -10z" />
    <glyph glyph-name="uniFC4B" unicode="&#xfc4b;" horiz-adv-x="859" arabic-form="isolated" 
d="M588 0q-5 0 -5 5v33q0 4 5 4h140v436h46v-478h-186zM740 577q-16 0 -26 9.5t-10 29.5q0 19 10 28.5t26 9.5q15 0 25.5 -9t10.5 -29t-9.5 -29.5t-26.5 -9.5zM236 -326q-57 0 -100 22t-67 63t-24 98q0 34 9 62.5t26 53.5q29 44 80.5 77.5t121.5 60.5t154 52
q-4 12 -8.5 30.5t-8.5 41.5q-9 62 -29 109.5t-55 74.5t-90 27q-51 0 -96 -15.5t-84 -36.5l-19 37q21 15 52.5 28t68.5 21t74 8q60 0 104 -23.5t73 -76.5t43 -141q6 -34 14 -66t19 -58q17 -35 40.5 -58t59.5 -23h4q5 0 5 -4v-33q0 -5 -5 -5h-4q-37 0 -64.5 17t-46.5 45.5
t-34 62.5q-86 -26 -159.5 -55t-118.5 -68q-42 -31 -61 -66.5t-19 -75.5q0 -69 41.5 -107t114.5 -38zM390 -190q-16 0 -26 9.5t-10 29.5q0 19 10 28.5t26 9.5q15 0 25.5 -9t10.5 -29t-9.5 -29.5t-26.5 -9.5z" />
    <glyph glyph-name="uniFC4C" unicode="&#xfc4c;" horiz-adv-x="859" arabic-form="isolated" 
d="M588 0q-5 0 -5 5v33q0 4 5 4h140v436h46v-478h-186zM740 577q-16 0 -26 9.5t-10 29.5q0 19 10 28.5t26 9.5q15 0 25.5 -9t10.5 -29t-9.5 -29.5t-26.5 -9.5zM594 0q-37 0 -64 17t-46.5 45.5t-34.5 62.5q-65 -20 -123.5 -41.5t-103.5 -47.5t-71 -60q-31 -26 -45.5 -54
t-14.5 -62q0 -47 20 -79t60 -49t100 -17q33 0 69 6t87 16l7 -39q-51 -12 -100 -18t-81 -6q-65 0 -112 22t-71.5 63t-24.5 98q0 34 9 62.5t26 53.5q29 44 80.5 77.5t121.5 60.5t154 52q-4 13 -8.5 31t-8.5 41q-9 62 -29.5 109.5t-55.5 74.5t-91 27q-45 0 -93 -14.5t-87 -39.5
l-19 37q32 24 86.5 41.5t108.5 17.5q61 0 105.5 -23.5t73.5 -76.5t43 -141q6 -35 15 -69.5t22 -60.5q15 -33 38.5 -54t57.5 -21h4q5 0 5 -4v-33q0 -5 -5 -5h-4z" />
    <glyph glyph-name="uniFC4D" unicode="&#xfc4d;" horiz-adv-x="859" arabic-form="isolated" 
d="M588 0q-5 0 -5 5v33q0 4 5 4h140v436h46v-478h-186zM740 577q-16 0 -26 9.5t-10 29.5q0 19 10 28.5t26 9.5q15 0 25.5 -9t10.5 -29t-9.5 -29.5t-26.5 -9.5zM594 0q-37 0 -64 17t-46.5 45.5t-34.5 62.5q-65 -20 -123.5 -41.5t-103.5 -47.5t-71 -60q-31 -26 -45.5 -54
t-14.5 -62q0 -47 20 -79t60 -49t100 -17q33 0 69 6t87 16l7 -39q-51 -12 -100 -18t-81 -6q-65 0 -112 22t-71.5 63t-24.5 98q0 34 9 62.5t26 53.5q29 44 80.5 77.5t121.5 60.5t154 52q-4 13 -8.5 31t-8.5 41q-9 62 -29.5 109.5t-55.5 74.5t-91 27q-45 0 -93 -14.5t-87 -39.5
l-19 37q32 24 86.5 41.5t108.5 17.5q61 0 105.5 -23.5t73.5 -76.5t43 -141q6 -35 15 -69.5t22 -60.5q15 -33 38.5 -54t57.5 -21h4q5 0 5 -4v-33q0 -5 -5 -5h-4zM216 599q-16 0 -26 9.5t-10 29.5q0 19 10 28.5t26 9.5q15 0 25.5 -9t10.5 -29t-9.5 -29.5t-26.5 -9.5z" />
    <glyph glyph-name="uniFC4E" unicode="&#xfc4e;" horiz-adv-x="906" arabic-form="isolated" 
d="M635 0q-5 0 -5 5v33q0 4 5 4h140v436h46v-478h-186zM787 577q-16 0 -26 9.5t-10 29.5q0 19 10 28.5t26 9.5q15 0 25.5 -9t10.5 -29t-9.5 -29.5t-26.5 -9.5zM187 0q-41 0 -59.5 -17t-18.5 -55v-248h-44v247q0 38 10.5 63.5t36.5 38.5t71 13h10q-22 60 -33.5 113t-11.5 104
q0 30 6 64t21 65q32 34 75 54t98 20q29 0 54.5 -6.5t45.5 -20.5q42 -26 63.5 -75t21.5 -109q0 -40 -7 -80t-21 -67q24 -34 55 -48t80 -14h5q5 0 5 -4v-33q0 -5 -5 -5h-5q-52 0 -88.5 14.5t-69.5 52.5q-27 -34 -63 -50.5t-81 -16.5h-151zM194 268q0 -52 11 -108t35 -118h102
q47 0 79 24t49 71.5t17 114.5q0 75 -37.5 121.5t-99.5 46.5q-40 0 -74 -13.5t-66 -41.5q-7 -14 -11.5 -41t-4.5 -56z" />
    <glyph glyph-name="uniFC4F" unicode="&#xfc4f;" horiz-adv-x="1202" arabic-form="isolated" 
d="M932 0q-5 0 -5 5v33q0 4 5 4h140v436h46v-478h-186zM1083 577q-16 0 -26 9.5t-10 29.5q0 19 10 28.5t26 9.5q15 0 25.5 -9t10.5 -29t-9.5 -29.5t-26.5 -9.5zM279 -240q-74 0 -121.5 26t-70.5 79t-23 135q0 55 10.5 99.5t23.5 81.5h42q-12 -39 -21 -81.5t-9 -93.5
q0 -71 17 -116t55 -66.5t100 -21.5h170q66 0 107.5 18.5t61.5 46.5t20 56q0 30 -25 45t-77 29q-46 13 -81 26t-54 35t-19 60q0 31 8 56t22 47q22 35 51.5 61t64 40t69.5 14q22 0 42 -5t36 -15q28 -16 46 -44t39 -71q19 -40 40.5 -74t51.5 -58q23 -17 42 -22t40 -5h5
q5 0 5 -4v-33q0 -5 -5 -5h-5q-24 0 -45 5t-41 17t-41 31q-25 21 -42.5 49.5t-32.5 58.5q-18 37 -34 63t-36 42q-13 11 -31 17.5t-39 6.5q-31 0 -61 -15.5t-53 -40.5t-36.5 -54.5t-13.5 -57.5q0 -22 14.5 -36.5t36 -22.5t41.5 -14q28 -8 51 -15t42 -15q34 -12 52.5 -32.5
t18.5 -50.5q0 -80 -60.5 -128t-176.5 -48h-171z" />
    <glyph glyph-name="uniFC50" unicode="&#xfc50;" horiz-adv-x="1202" arabic-form="isolated" 
d="M932 0q-5 0 -5 5v33q0 4 5 4h140v436h46v-478h-186zM1083 577q-16 0 -26 9.5t-10 29.5q0 19 10 28.5t26 9.5q15 0 25.5 -9t10.5 -29t-9.5 -29.5t-26.5 -9.5zM279 -240q-74 0 -121.5 26t-70.5 79t-23 135q0 55 10.5 99.5t23.5 81.5h42q-12 -39 -21 -81.5t-9 -93.5
q0 -71 17 -116t55 -66.5t100 -21.5h170q66 0 107.5 18.5t61.5 46.5t20 56q0 30 -25 45t-77 29q-46 13 -81 26t-54 35t-19 60q0 31 8 56t22 47q22 35 51.5 61t64 40t69.5 14q22 0 42 -5t36 -15q28 -16 46 -44t39 -71q19 -40 40.5 -74t51.5 -58q23 -17 42 -22t40 -5h5
q5 0 5 -4v-33q0 -5 -5 -5h-5q-24 0 -45 5t-41 17t-41 31q-25 21 -42.5 49.5t-32.5 58.5q-18 37 -34 63t-36 42q-13 11 -31 17.5t-39 6.5q-31 0 -61 -15.5t-53 -40.5t-36.5 -54.5t-13.5 -57.5q0 -22 14.5 -36.5t36 -22.5t41.5 -14q28 -8 51 -15t42 -15q34 -12 52.5 -32.5
t18.5 -50.5q0 -80 -60.5 -128t-176.5 -48h-171zM322 -403q-15 0 -25.5 9t-10.5 30q0 20 10.5 29t25.5 9q14 0 25 -8.5t11 -29.5t-10 -30t-26 -9zM455 -403q-17 0 -26.5 9.5t-9.5 29.5q0 19 9.5 28.5t26.5 9.5q16 0 26 -9.5t10 -28.5t-10 -29t-26 -10z" />
    <glyph glyph-name="uniFC51" unicode="&#xfc51;" horiz-adv-x="1295" arabic-form="isolated" 
d="M764 42q-40 21 -62 65t-22 98q0 56 22.5 97t63 63.5t94.5 22.5q56 0 95 -23t59.5 -70.5t20.5 -119.5v-133h123v205q0 147 -62.5 214.5t-196.5 67.5q-31 0 -71 -5t-77 -15l-14 40q22 7 48 12t55 7.5t59 2.5q154 0 229 -81t75 -238v-252h-615q-5 0 -5 5v33q0 4 5 4h176z
M872 42h118v122q0 96 -33.5 137.5t-101.5 41.5q-62 0 -96 -37t-34 -105q0 -46 18.5 -81.5t52 -56.5t76.5 -21zM236 -326q-57 0 -100 22t-67 63t-24 98q0 34 9 62.5t26 53.5q29 44 80.5 77.5t121.5 60.5t154 52q-4 12 -8.5 30.5t-8.5 41.5q-9 62 -29 109.5t-55 74.5t-90 27
q-51 0 -96 -15.5t-84 -36.5l-19 37q21 15 52.5 28t68.5 21t74 8q60 0 104 -23.5t73 -76.5t43 -141q6 -34 14 -66t19 -58q17 -35 40.5 -58t59.5 -23h4q5 0 5 -4v-33q0 -5 -5 -5h-4q-37 0 -64.5 17t-46.5 45.5t-34 62.5q-86 -26 -159.5 -55t-118.5 -68q-42 -31 -61 -66.5
t-19 -75.5q0 -69 41.5 -107t114.5 -38zM390 -190q-16 0 -26 9.5t-10 29.5q0 19 10 28.5t26 9.5q15 0 25.5 -9t10.5 -29t-9.5 -29.5t-26.5 -9.5z" />
    <glyph glyph-name="uniFC52" unicode="&#xfc52;" horiz-adv-x="1342" arabic-form="isolated" 
d="M811 42q-40 21 -62 65t-22 98q0 56 22.5 97t63 63.5t94.5 22.5q56 0 95 -23t59.5 -70.5t20.5 -119.5v-133h123v205q0 147 -62.5 214.5t-196.5 67.5q-31 0 -71 -5t-77 -15l-14 40q22 7 48 12t55 7.5t59 2.5q154 0 229 -81t75 -238v-252h-615q-5 0 -5 5v33q0 4 5 4h176z
M919 42h118v122q0 96 -33.5 137.5t-101.5 41.5q-62 0 -96 -37t-34 -105q0 -46 18.5 -81.5t52 -56.5t76.5 -21zM187 0q-41 0 -59.5 -17t-18.5 -55v-248h-44v247q0 38 10.5 63.5t36.5 38.5t71 13h10q-22 60 -33.5 113t-11.5 104q0 30 6 64t21 65q32 34 75 54t98 20
q29 0 54.5 -6.5t45.5 -20.5q42 -26 63.5 -75t21.5 -109q0 -40 -7 -80t-21 -67q24 -34 55 -48t80 -14h5q5 0 5 -4v-33q0 -5 -5 -5h-5q-52 0 -88.5 14.5t-69.5 52.5q-27 -34 -63 -50.5t-81 -16.5h-151zM194 268q0 -52 11 -108t35 -118h102q47 0 79 24t49 71.5t17 114.5
q0 75 -37.5 121.5t-99.5 46.5q-40 0 -74 -13.5t-66 -41.5q-7 -14 -11.5 -41t-4.5 -56z" />
    <glyph glyph-name="uniFC53" unicode="&#xfc53;" horiz-adv-x="1638" arabic-form="isolated" 
d="M1108 42q-40 21 -62 65t-22 98q0 56 22.5 97t63 63.5t94.5 22.5q56 0 95 -23t59.5 -70.5t20.5 -119.5v-133h123v205q0 147 -62.5 214.5t-196.5 67.5q-31 0 -71 -5t-77 -15l-14 40q22 7 48 12t55 7.5t59 2.5q154 0 229 -81t75 -238v-252h-615q-5 0 -5 5v33q0 4 5 4h176z
M1216 42h118v122q0 96 -33.5 137.5t-101.5 41.5q-62 0 -96 -37t-34 -105q0 -46 18.5 -81.5t52 -56.5t76.5 -21zM279 -240q-74 0 -121.5 26t-70.5 79t-23 135q0 55 10.5 99.5t23.5 81.5h42q-12 -39 -21 -81.5t-9 -93.5q0 -71 17 -116t55 -66.5t100 -21.5h170q66 0 107.5 18.5
t61.5 46.5t20 56q0 30 -25 45t-77 29q-46 13 -81 26t-54 35t-19 60q0 31 8 56t22 47q22 35 51.5 61t64 40t69.5 14q22 0 42 -5t36 -15q28 -16 46 -44t39 -71q19 -40 40.5 -74t51.5 -58q23 -17 42 -22t40 -5h5q5 0 5 -4v-33q0 -5 -5 -5h-5q-24 0 -45 5t-41 17t-41 31
q-25 21 -42.5 49.5t-32.5 58.5q-18 37 -34 63t-36 42q-13 11 -31 17.5t-39 6.5q-31 0 -61 -15.5t-53 -40.5t-36.5 -54.5t-13.5 -57.5q0 -22 14.5 -36.5t36 -22.5t41.5 -14q28 -8 51 -15t42 -15q34 -12 52.5 -32.5t18.5 -50.5q0 -80 -60.5 -128t-176.5 -48h-171z" />
    <glyph glyph-name="uniFC54" unicode="&#xfc54;" horiz-adv-x="1638" arabic-form="isolated" 
d="M1108 42q-40 21 -62 65t-22 98q0 56 22.5 97t63 63.5t94.5 22.5q56 0 95 -23t59.5 -70.5t20.5 -119.5v-133h123v205q0 147 -62.5 214.5t-196.5 67.5q-31 0 -71 -5t-77 -15l-14 40q22 7 48 12t55 7.5t59 2.5q154 0 229 -81t75 -238v-252h-615q-5 0 -5 5v33q0 4 5 4h176z
M1216 42h118v122q0 96 -33.5 137.5t-101.5 41.5q-62 0 -96 -37t-34 -105q0 -46 18.5 -81.5t52 -56.5t76.5 -21zM279 -240q-74 0 -121.5 26t-70.5 79t-23 135q0 55 10.5 99.5t23.5 81.5h42q-12 -39 -21 -81.5t-9 -93.5q0 -71 17 -116t55 -66.5t100 -21.5h170q66 0 107.5 18.5
t61.5 46.5t20 56q0 30 -25 45t-77 29q-46 13 -81 26t-54 35t-19 60q0 31 8 56t22 47q22 35 51.5 61t64 40t69.5 14q22 0 42 -5t36 -15q28 -16 46 -44t39 -71q19 -40 40.5 -74t51.5 -58q23 -17 42 -22t40 -5h5q5 0 5 -4v-33q0 -5 -5 -5h-5q-24 0 -45 5t-41 17t-41 31
q-25 21 -42.5 49.5t-32.5 58.5q-18 37 -34 63t-36 42q-13 11 -31 17.5t-39 6.5q-31 0 -61 -15.5t-53 -40.5t-36.5 -54.5t-13.5 -57.5q0 -22 14.5 -36.5t36 -22.5t41.5 -14q28 -8 51 -15t42 -15q34 -12 52.5 -32.5t18.5 -50.5q0 -80 -60.5 -128t-176.5 -48h-171zM322 -403
q-15 0 -25.5 9t-10.5 30q0 20 10.5 29t25.5 9q14 0 25 -8.5t11 -29.5t-10 -30t-26 -9zM455 -403q-17 0 -26.5 9.5t-9.5 29.5q0 19 9.5 28.5t26.5 9.5q16 0 26 -9.5t10 -28.5t-10 -29t-26 -10z" />
    <glyph glyph-name="uniFC55" unicode="&#xfc55;" horiz-adv-x="954" arabic-form="isolated" 
d="M588 0q-5 0 -5 5v33q0 4 5 4h213v436h46v-478h-259zM691 -146q-15 0 -25.5 9t-10.5 30q0 20 10.5 29t25.5 9q14 0 25 -8.5t11 -29.5t-10 -30t-26 -9zM824 -146q-17 0 -26.5 9.5t-9.5 29.5q0 19 9.5 28.5t26.5 9.5q16 0 26 -9.5t10 -28.5t-10 -29t-26 -10zM236 -326
q-57 0 -100 22t-67 63t-24 98q0 34 9 62.5t26 53.5q29 44 80.5 77.5t121.5 60.5t154 52q-4 12 -8.5 30.5t-8.5 41.5q-9 62 -29 109.5t-55 74.5t-90 27q-51 0 -96 -15.5t-84 -36.5l-19 37q21 15 52.5 28t68.5 21t74 8q60 0 104 -23.5t73 -76.5t43 -141q6 -34 14 -66t19 -58
q17 -35 40.5 -58t59.5 -23h4q5 0 5 -4v-33q0 -5 -5 -5h-4q-37 0 -64.5 17t-46.5 45.5t-34 62.5q-86 -26 -159.5 -55t-118.5 -68q-42 -31 -61 -66.5t-19 -75.5q0 -69 41.5 -107t114.5 -38zM390 -190q-16 0 -26 9.5t-10 29.5q0 19 10 28.5t26 9.5q15 0 25.5 -9t10.5 -29
t-9.5 -29.5t-26.5 -9.5z" />
    <glyph glyph-name="uniFC56" unicode="&#xfc56;" horiz-adv-x="954" arabic-form="isolated" 
d="M588 0q-5 0 -5 5v33q0 4 5 4h213v436h46v-478h-259zM691 -146q-15 0 -25.5 9t-10.5 30q0 20 10.5 29t25.5 9q14 0 25 -8.5t11 -29.5t-10 -30t-26 -9zM824 -146q-17 0 -26.5 9.5t-9.5 29.5q0 19 9.5 28.5t26.5 9.5q16 0 26 -9.5t10 -28.5t-10 -29t-26 -10zM594 0
q-37 0 -64 17t-46.5 45.5t-34.5 62.5q-65 -20 -123.5 -41.5t-103.5 -47.5t-71 -60q-31 -26 -45.5 -54t-14.5 -62q0 -47 20 -79t60 -49t100 -17q33 0 69 6t87 16l7 -39q-51 -12 -100 -18t-81 -6q-65 0 -112 22t-71.5 63t-24.5 98q0 34 9 62.5t26 53.5q29 44 80.5 77.5
t121.5 60.5t154 52q-4 13 -8.5 31t-8.5 41q-9 62 -29.5 109.5t-55.5 74.5t-91 27q-45 0 -93 -14.5t-87 -39.5l-19 37q32 24 86.5 41.5t108.5 17.5q61 0 105.5 -23.5t73.5 -76.5t43 -141q6 -35 15 -69.5t22 -60.5q15 -33 38.5 -54t57.5 -21h4q5 0 5 -4v-33q0 -5 -5 -5h-4z
" />
    <glyph glyph-name="uniFC57" unicode="&#xfc57;" horiz-adv-x="954" arabic-form="isolated" 
d="M588 0q-5 0 -5 5v33q0 4 5 4h213v436h46v-478h-259zM691 -146q-15 0 -25.5 9t-10.5 30q0 20 10.5 29t25.5 9q14 0 25 -8.5t11 -29.5t-10 -30t-26 -9zM824 -146q-17 0 -26.5 9.5t-9.5 29.5q0 19 9.5 28.5t26.5 9.5q16 0 26 -9.5t10 -28.5t-10 -29t-26 -10zM594 0
q-37 0 -64 17t-46.5 45.5t-34.5 62.5q-65 -20 -123.5 -41.5t-103.5 -47.5t-71 -60q-31 -26 -45.5 -54t-14.5 -62q0 -47 20 -79t60 -49t100 -17q33 0 69 6t87 16l7 -39q-51 -12 -100 -18t-81 -6q-65 0 -112 22t-71.5 63t-24.5 98q0 34 9 62.5t26 53.5q29 44 80.5 77.5
t121.5 60.5t154 52q-4 13 -8.5 31t-8.5 41q-9 62 -29.5 109.5t-55.5 74.5t-91 27q-45 0 -93 -14.5t-87 -39.5l-19 37q32 24 86.5 41.5t108.5 17.5q61 0 105.5 -23.5t73.5 -76.5t43 -141q6 -35 15 -69.5t22 -60.5q15 -33 38.5 -54t57.5 -21h4q5 0 5 -4v-33q0 -5 -5 -5h-4z
M216 599q-16 0 -26 9.5t-10 29.5q0 19 10 28.5t26 9.5q15 0 25.5 -9t10.5 -29t-9.5 -29.5t-26.5 -9.5z" />
    <glyph glyph-name="uniFC58" unicode="&#xfc58;" horiz-adv-x="1001" arabic-form="isolated" 
d="M635 0q-5 0 -5 5v33q0 4 5 4h213v436h46v-478h-259zM738 -146q-15 0 -25.5 9t-10.5 30q0 20 10.5 29t25.5 9q14 0 25 -8.5t11 -29.5t-10 -30t-26 -9zM871 -146q-17 0 -26.5 9.5t-9.5 29.5q0 19 9.5 28.5t26.5 9.5q16 0 26 -9.5t10 -28.5t-10 -29t-26 -10zM187 0
q-41 0 -59.5 -17t-18.5 -55v-248h-44v247q0 38 10.5 63.5t36.5 38.5t71 13h10q-22 60 -33.5 113t-11.5 104q0 30 6 64t21 65q32 34 75 54t98 20q29 0 54.5 -6.5t45.5 -20.5q42 -26 63.5 -75t21.5 -109q0 -40 -7 -80t-21 -67q24 -34 55 -48t80 -14h5q5 0 5 -4v-33q0 -5 -5 -5
h-5q-52 0 -88.5 14.5t-69.5 52.5q-27 -34 -63 -50.5t-81 -16.5h-151zM194 268q0 -52 11 -108t35 -118h102q47 0 79 24t49 71.5t17 114.5q0 75 -37.5 121.5t-99.5 46.5q-40 0 -74 -13.5t-66 -41.5q-7 -14 -11.5 -41t-4.5 -56z" />
    <glyph glyph-name="uniFC59" unicode="&#xfc59;" horiz-adv-x="1297" arabic-form="isolated" 
d="M932 0q-5 0 -5 5v33q0 4 5 4h213v436h46v-478h-259zM1035 -146q-15 0 -25.5 9t-10.5 30q0 20 10.5 29t25.5 9q14 0 25 -8.5t11 -29.5t-10 -30t-26 -9zM1168 -146q-17 0 -26.5 9.5t-9.5 29.5q0 19 9.5 28.5t26.5 9.5q16 0 26 -9.5t10 -28.5t-10 -29t-26 -10zM279 -240
q-74 0 -121.5 26t-70.5 79t-23 135q0 55 10.5 99.5t23.5 81.5h42q-12 -39 -21 -81.5t-9 -93.5q0 -71 17 -116t55 -66.5t100 -21.5h170q66 0 107.5 18.5t61.5 46.5t20 56q0 30 -25 45t-77 29q-46 13 -81 26t-54 35t-19 60q0 31 8 56t22 47q22 35 51.5 61t64 40t69.5 14
q22 0 42 -5t36 -15q28 -16 46 -44t39 -71q19 -40 40.5 -74t51.5 -58q23 -17 42 -22t40 -5h5q5 0 5 -4v-33q0 -5 -5 -5h-5q-24 0 -45 5t-41 17t-41 31q-25 21 -42.5 49.5t-32.5 58.5q-18 37 -34 63t-36 42q-13 11 -31 17.5t-39 6.5q-31 0 -61 -15.5t-53 -40.5t-36.5 -54.5
t-13.5 -57.5q0 -22 14.5 -36.5t36 -22.5t41.5 -14q28 -8 51 -15t42 -15q34 -12 52.5 -32.5t18.5 -50.5q0 -80 -60.5 -128t-176.5 -48h-171z" />
    <glyph glyph-name="uniFC5A" unicode="&#xfc5a;" horiz-adv-x="1297" arabic-form="isolated" 
d="M932 0q-5 0 -5 5v33q0 4 5 4h213v436h46v-478h-259zM1035 -146q-15 0 -25.5 9t-10.5 30q0 20 10.5 29t25.5 9q14 0 25 -8.5t11 -29.5t-10 -30t-26 -9zM1168 -146q-17 0 -26.5 9.5t-9.5 29.5q0 19 9.5 28.5t26.5 9.5q16 0 26 -9.5t10 -28.5t-10 -29t-26 -10zM279 -240
q-74 0 -121.5 26t-70.5 79t-23 135q0 55 10.5 99.5t23.5 81.5h42q-12 -39 -21 -81.5t-9 -93.5q0 -71 17 -116t55 -66.5t100 -21.5h170q66 0 107.5 18.5t61.5 46.5t20 56q0 30 -25 45t-77 29q-46 13 -81 26t-54 35t-19 60q0 31 8 56t22 47q22 35 51.5 61t64 40t69.5 14
q22 0 42 -5t36 -15q28 -16 46 -44t39 -71q19 -40 40.5 -74t51.5 -58q23 -17 42 -22t40 -5h5q5 0 5 -4v-33q0 -5 -5 -5h-5q-24 0 -45 5t-41 17t-41 31q-25 21 -42.5 49.5t-32.5 58.5q-18 37 -34 63t-36 42q-13 11 -31 17.5t-39 6.5q-31 0 -61 -15.5t-53 -40.5t-36.5 -54.5
t-13.5 -57.5q0 -22 14.5 -36.5t36 -22.5t41.5 -14q28 -8 51 -15t42 -15q34 -12 52.5 -32.5t18.5 -50.5q0 -80 -60.5 -128t-176.5 -48h-171zM322 -403q-15 0 -25.5 9t-10.5 30q0 20 10.5 29t25.5 9q14 0 25 -8.5t11 -29.5t-10 -30t-26 -9zM455 -403q-17 0 -26.5 9.5
t-9.5 29.5q0 19 9.5 28.5t26.5 9.5q16 0 26 -9.5t10 -28.5t-10 -29t-26 -10z" />
    <glyph glyph-name="uniFC5B" unicode="&#xfc5b;" horiz-adv-x="465" arabic-form="isolated" 
d="M45 42h330q-2 37 -9 74.5t-19 74.5q-29 94 -77 168.5t-123 126.5l18 39q70 -42 123.5 -114t87.5 -166t44 -204v-41h-375v42zM169 633q-16 0 -26 9.5t-10 29.5q0 19 10 28.5t26 9.5q15 0 25.5 -9t10.5 -29t-9.5 -29.5t-26.5 -9.5zM150 982h34v-194h-34v194z" />
    <glyph glyph-name="uniFC5C" unicode="&#xfc5c;" horiz-adv-x="292" arabic-form="isolated" 
d="M50 -241q-25 0 -45.5 6.5t-40.5 17.5l18 35q14 -7 30.5 -12t36.5 -5q54 0 79 39.5t25 111.5v526h44v-521q0 -65 -16.5 -109t-49 -66.5t-81.5 -22.5zM154 761h34v-194h-34v194z" />
    <glyph glyph-name="uniFC5D" unicode="&#xfc5d;" horiz-adv-x="810" arabic-form="isolated" 
d="M266 -240q-64 0 -109 29t-68.5 84.5t-23.5 136.5q0 44 8 86t29 85h43q-19 -41 -26.5 -83t-7.5 -85q0 -71 18.5 -117.5t54.5 -70t88 -23.5h196q62 0 102.5 18.5t60.5 49t20 65.5q0 32 -22.5 59.5t-54 50t-58.5 38.5q-32 19 -51 31t-31 21q-12 10 -21.5 21t-15.5 26t-6 34
q0 26 9.5 55.5t28.5 59.5q26 40 61 72t76 50.5t84 18.5q24 0 47 -6.5t42.5 -15t30.5 -16.5l-22 -35q-7 4 -23 10.5t-34.5 11.5t-35.5 5q-24 0 -49 -7.5t-47 -20.5q-31 -19 -58.5 -48t-44 -62.5t-16.5 -66.5q0 -19 12.5 -35t34 -29.5t46.5 -28.5q43 -24 68 -43.5t41 -34.5
q22 -21 38.5 -50t16.5 -65q0 -79 -60.5 -127t-169.5 -48h-201zM207 526h34v-194h-34v194z" />
    <glyph glyph-name="uniFC5E" unicode="&#xfc5e;" horiz-adv-x="272" arabic-form="isolated" 
d="M71 809q-35 0 -53 22.5t-18 68.5v61h31v-57q0 -39 12 -51.5t32 -12.5q24 0 36 15.5t12 41.5v88h29v-69q0 -34 12 -45.5t31 -11.5q26 0 36 16.5t10 49.5v74h31v-79q0 -46 -18.5 -69t-53.5 -23q-19 0 -35 6.5t-25 25.5q-9 -28 -27.5 -39.5t-41.5 -11.5zM133 1052
q-33 0 -56 14t-46 43l-39 -35l-20 22l65 61q22 -39 45.5 -56.5t49.5 -17.5q9 0 16 1.5t11 2.5q-15 18 -25 41.5t-10 48.5q0 38 23 60.5t60 22.5q35 0 56.5 -20.5t21.5 -54.5q0 -36 -20 -65q-14 -20 -36.5 -35.5t-47.5 -24t-48 -8.5zM186 1097q31 13 49 35.5t18 48.5
q0 21 -13.5 35t-34.5 14q-20 0 -34.5 -14t-14.5 -43q0 -17 7 -35.5t23 -40.5z" />
    <glyph glyph-name="uniFC5F" unicode="&#xfc5f;" arabic-form="isolated" 
d="M71 827q-35 0 -53 23.5t-18 69.5v60h31v-56q0 -39 11 -52.5t33 -13.5q23 0 35.5 16t12.5 42v88h29v-70q0 -33 12 -44.5t31 -11.5q28 0 37 16.5t9 48.5v75h31v-79q0 -46 -17.5 -69t-54.5 -23q-20 0 -35.5 6.5t-24.5 25.5q-9 -28 -27.5 -40t-41.5 -12zM34 601l214 79v-32
l-214 -81v34zM34 707l214 80v-33l-214 -81v34z" />
    <glyph glyph-name="uniFC60" unicode="&#xfc60;" arabic-form="isolated" 
d="M71 809q-35 0 -53 22.5t-18 68.5v61h31v-57q0 -39 12 -51.5t32 -12.5q24 0 36 15.5t12 41.5v88h29v-69q0 -34 12 -45.5t31 -11.5q26 0 36 16.5t10 49.5v74h31v-79q0 -46 -18.5 -69t-53.5 -23q-19 0 -35 6.5t-25 25.5q-9 -28 -27.5 -39.5t-41.5 -11.5zM34 1065l214 80v-33
l-214 -81v34z" />
    <glyph glyph-name="uniFC61" unicode="&#xfc61;" arabic-form="isolated" 
d="M71 809q-35 0 -53 22.5t-18 68.5v61h31v-57q0 -39 12 -51.5t32 -12.5q24 0 36 15.5t12 41.5v88h29v-69q0 -34 12 -45.5t31 -11.5q26 0 36 16.5t10 49.5v74h31v-79q0 -46 -18.5 -69t-53.5 -23q-19 0 -35 6.5t-25 25.5q-9 -28 -27.5 -39.5t-41.5 -11.5zM106 1050
q-28 0 -50.5 8t-40.5 22l18 26q19 -13 36 -19t35 -6q14 0 28 2t25 7q-45 41 -45 93q0 36 22.5 58t60.5 22t58.5 -23.5t20.5 -53.5q0 -17 -5.5 -34t-19.5 -34q-28 -33 -66 -50.5t-77 -17.5zM183 1101q27 14 43 36t16 46q0 21 -13 35.5t-36 14.5q-22 0 -36 -13.5t-14 -40.5
q0 -20 10.5 -39t29.5 -39z" />
    <glyph glyph-name="uniFC62" unicode="&#xfc62;" arabic-form="isolated" 
d="M71 825q-35 0 -53 22.5t-18 68.5v61h31v-57q0 -39 12 -51.5t32 -12.5q24 0 36 15.5t12 41.5v88h29v-69q0 -34 12 -45.5t31 -11.5q26 0 36 16.5t10 49.5v74h31v-79q0 -46 -18.5 -69t-53.5 -23q-19 0 -35 6.5t-25 25.5q-9 -28 -27.5 -39.5t-41.5 -11.5zM30 693l214 79v-32
l-214 -81v34z" />
    <glyph glyph-name="uniFC63" unicode="&#xfc63;" arabic-form="isolated" 
d="M71 809q-35 0 -53 22.5t-18 68.5v61h31v-57q0 -39 12 -51.5t32 -12.5q24 0 36 15.5t12 41.5v88h29v-69q0 -34 12 -45.5t31 -11.5q26 0 36 16.5t10 49.5v74h31v-79q0 -46 -18.5 -69t-53.5 -23q-19 0 -35 6.5t-25 25.5q-9 -28 -27.5 -39.5t-41.5 -11.5zM123 1229h34v-194
h-34v194z" />
    <glyph glyph-name="uniFC64" unicode="&#xfc64;" horiz-adv-x="604" arabic-form="final" 
d="M307 0q-5 0 -5 5v33q0 4 5 4h131v436h46v-436h126q4 0 4 -4v-33q0 -5 -5 -5h-302zM342 587l46 7q-18 11 -26 28t-8 34q0 40 27 64t70 24q33 0 55 -14l-12 -28q-8 5 -19.5 8.5t-25.5 3.5q-25 0 -44.5 -16t-19.5 -44q0 -20 11 -34t26 -20q16 3 36 5.5t38 4.5t27 2v-30
q-19 -2 -39.5 -4.5t-43 -5t-47 -6.5t-51.5 -9v30zM198 0v-43q0 -65 -16.5 -109t-49.5 -66.5t-81 -22.5q-25 0 -45.5 6.5t-40.5 17.5l18 35q14 -7 30 -12t37 -5q54 0 79 39.5t25 111.5v526h44v-436h119q5 0 5 -4v-33q0 -5 -5 -5h-119z" />
    <glyph glyph-name="uniFC65" unicode="&#xfc65;" horiz-adv-x="604" arabic-form="final" 
d="M307 0q-5 0 -5 5v33q0 4 5 4h131v436h46v-436h126q4 0 4 -4v-33q0 -5 -5 -5h-302zM342 587l46 7q-18 11 -26 28t-8 34q0 40 27 64t70 24q33 0 55 -14l-12 -28q-8 5 -19.5 8.5t-25.5 3.5q-25 0 -44.5 -16t-19.5 -44q0 -20 11 -34t26 -20q16 3 36 5.5t38 4.5t27 2v-30
q-19 -2 -39.5 -4.5t-43 -5t-47 -6.5t-51.5 -9v30zM198 0v-43q0 -65 -16.5 -109t-49.5 -66.5t-81 -22.5q-25 0 -45.5 6.5t-40.5 17.5l18 35q14 -7 30 -12t37 -5q54 0 79 39.5t25 111.5v526h44v-436h119q5 0 5 -4v-33q0 -5 -5 -5h-119zM166 596q-16 0 -26 9.5t-10 29.5
q0 19 10 28.5t26 9.5q15 0 25.5 -9t10.5 -29t-9.5 -29.5t-26.5 -9.5z" />
    <glyph glyph-name="uniFC66" unicode="&#xfc66;" horiz-adv-x="933" arabic-form="final" 
d="M635 0q-5 0 -5 5v33q0 4 5 4h131v436h46v-436h126q4 0 4 -4v-33q0 -5 -5 -5h-302zM671 587l46 7q-18 11 -26 28t-8 34q0 40 27 64t70 24q33 0 55 -14l-12 -28q-8 5 -19.5 8.5t-25.5 3.5q-25 0 -44.5 -16t-19.5 -44q0 -20 11 -34t26 -20q16 3 36 5.5t38 4.5t27 2v-30
q-19 -2 -39.5 -4.5t-43 -5t-47 -6.5t-51.5 -9v30zM187 0q-41 0 -59.5 -17t-18.5 -55v-248h-44v247q0 38 10.5 63.5t36.5 38.5t71 13h10q-22 60 -33.5 113t-11.5 104q0 30 6 64t21 65q32 34 75 54t98 20q29 0 54.5 -6.5t45.5 -20.5q42 -26 63.5 -75t21.5 -109q0 -40 -7 -80
t-21 -67q24 -34 55 -48t80 -14h5q5 0 5 -4v-33q0 -5 -5 -5h-5q-52 0 -88.5 14.5t-69.5 52.5q-27 -34 -63 -50.5t-81 -16.5h-151zM194 268q0 -52 11 -108t35 -118h102q47 0 79 24t49 71.5t17 114.5q0 75 -37.5 121.5t-99.5 46.5q-40 0 -74 -13.5t-66 -41.5q-7 -14 -11.5 -41
t-4.5 -56z" />
    <glyph glyph-name="uniFC67" unicode="&#xfc67;" horiz-adv-x="912" arabic-form="final" 
d="M615 0q-5 0 -5 5v33q0 4 5 4h131v436h46v-436h126q4 0 4 -4v-33q0 -5 -5 -5h-302zM650 587l46 7q-18 11 -26 28t-8 34q0 40 27 64t70 24q33 0 55 -14l-12 -28q-8 5 -19.5 8.5t-25.5 3.5q-25 0 -44.5 -16t-19.5 -44q0 -20 11 -34t26 -20q16 3 36 5.5t38 4.5t27 2v-30
q-19 -2 -39.5 -4.5t-43 -5t-47 -6.5t-51.5 -9v30zM528 0q0 -126 -50.5 -183t-164.5 -57h-70q-33 0 -59 9t-46 24q-37 30 -55 82.5t-18 129.5q0 48 9 99t29 93l42 -1q-16 -35 -25 -83t-9 -101q0 -104 32.5 -157t108.5 -53h61q58 0 96 19t56 62t18 116v479h45v-436h97
q5 0 5 -4v-33q0 -5 -5 -5h-97zM290 422q-16 0 -26 9.5t-10 29.5q0 19 10 28.5t26 9.5q15 0 25.5 -9t10.5 -29t-9.5 -29.5t-26.5 -9.5z" />
    <glyph glyph-name="uniFC68" unicode="&#xfc68;" horiz-adv-x="1229" arabic-form="final" 
d="M932 0q-5 0 -5 5v33q0 4 5 4h131v436h46v-436h126q4 0 4 -4v-33q0 -5 -5 -5h-302zM967 587l46 7q-18 11 -26 28t-8 34q0 40 27 64t70 24q33 0 55 -14l-12 -28q-8 5 -19.5 8.5t-25.5 3.5q-25 0 -44.5 -16t-19.5 -44q0 -20 11 -34t26 -20q16 3 36 5.5t38 4.5t27 2v-30
q-19 -2 -39.5 -4.5t-43 -5t-47 -6.5t-51.5 -9v30zM279 -240q-74 0 -121.5 26t-70.5 79t-23 135q0 55 10.5 99.5t23.5 81.5h42q-12 -39 -21 -81.5t-9 -93.5q0 -71 17 -116t55 -66.5t100 -21.5h170q66 0 107.5 18.5t61.5 46.5t20 56q0 30 -25 45t-77 29q-46 13 -81 26t-54 35
t-19 60q0 31 8 56t22 47q22 35 51.5 61t64 40t69.5 14q22 0 42 -5t36 -15q28 -16 46 -44t39 -71q19 -40 40.5 -74t51.5 -58q23 -17 42 -22t40 -5h5q5 0 5 -4v-33q0 -5 -5 -5h-5q-24 0 -45 5t-41 17t-41 31q-25 21 -42.5 49.5t-32.5 58.5q-18 37 -34 63t-36 42
q-13 11 -31 17.5t-39 6.5q-31 0 -61 -15.5t-53 -40.5t-36.5 -54.5t-13.5 -57.5q0 -22 14.5 -36.5t36 -22.5t41.5 -14q28 -8 51 -15t42 -15q34 -12 52.5 -32.5t18.5 -50.5q0 -80 -60.5 -128t-176.5 -48h-171z" />
    <glyph glyph-name="uniFC69" unicode="&#xfc69;" horiz-adv-x="1229" arabic-form="final" 
d="M932 0q-5 0 -5 5v33q0 4 5 4h131v436h46v-436h126q4 0 4 -4v-33q0 -5 -5 -5h-302zM967 587l46 7q-18 11 -26 28t-8 34q0 40 27 64t70 24q33 0 55 -14l-12 -28q-8 5 -19.5 8.5t-25.5 3.5q-25 0 -44.5 -16t-19.5 -44q0 -20 11 -34t26 -20q16 3 36 5.5t38 4.5t27 2v-30
q-19 -2 -39.5 -4.5t-43 -5t-47 -6.5t-51.5 -9v30zM279 -240q-74 0 -121.5 26t-70.5 79t-23 135q0 55 10.5 99.5t23.5 81.5h42q-12 -39 -21 -81.5t-9 -93.5q0 -71 17 -116t55 -66.5t100 -21.5h170q66 0 107.5 18.5t61.5 46.5t20 56q0 30 -25 45t-77 29q-46 13 -81 26t-54 35
t-19 60q0 31 8 56t22 47q22 35 51.5 61t64 40t69.5 14q22 0 42 -5t36 -15q28 -16 46 -44t39 -71q19 -40 40.5 -74t51.5 -58q23 -17 42 -22t40 -5h5q5 0 5 -4v-33q0 -5 -5 -5h-5q-24 0 -45 5t-41 17t-41 31q-25 21 -42.5 49.5t-32.5 58.5q-18 37 -34 63t-36 42
q-13 11 -31 17.5t-39 6.5q-31 0 -61 -15.5t-53 -40.5t-36.5 -54.5t-13.5 -57.5q0 -22 14.5 -36.5t36 -22.5t41.5 -14q28 -8 51 -15t42 -15q34 -12 52.5 -32.5t18.5 -50.5q0 -80 -60.5 -128t-176.5 -48h-171zM322 -403q-15 0 -25.5 9t-10.5 30q0 20 10.5 29t25.5 9
q14 0 25 -8.5t11 -29.5t-10 -30t-26 -9zM455 -403q-17 0 -26.5 9.5t-9.5 29.5q0 19 9.5 28.5t26.5 9.5q16 0 26 -9.5t10 -28.5t-10 -29t-26 -10z" />
    <glyph glyph-name="uniFC6A" unicode="&#xfc6a;" horiz-adv-x="604" arabic-form="final" 
d="M307 0q-5 0 -5 5v33q0 4 5 4h131v436h46v-436h126q4 0 4 -4v-33q0 -5 -5 -5h-302zM458 -167q-17 0 -26.5 10t-9.5 29t9.5 29t26.5 10q18 0 27.5 -11t9.5 -28q0 -18 -9.5 -28.5t-27.5 -10.5zM198 0v-43q0 -65 -16.5 -109t-49.5 -66.5t-81 -22.5q-25 0 -45.5 6.5
t-40.5 17.5l18 35q14 -7 30 -12t37 -5q54 0 79 39.5t25 111.5v526h44v-436h119q5 0 5 -4v-33q0 -5 -5 -5h-119z" />
    <glyph glyph-name="uniFC6B" unicode="&#xfc6b;" horiz-adv-x="604" arabic-form="final" 
d="M307 0q-5 0 -5 5v33q0 4 5 4h131v436h46v-436h126q4 0 4 -4v-33q0 -5 -5 -5h-302zM458 -167q-17 0 -26.5 10t-9.5 29t9.5 29t26.5 10q18 0 27.5 -11t9.5 -28q0 -18 -9.5 -28.5t-27.5 -10.5zM198 0v-43q0 -65 -16.5 -109t-49.5 -66.5t-81 -22.5q-25 0 -45.5 6.5
t-40.5 17.5l18 35q14 -7 30 -12t37 -5q54 0 79 39.5t25 111.5v526h44v-436h119q5 0 5 -4v-33q0 -5 -5 -5h-119zM166 596q-16 0 -26 9.5t-10 29.5q0 19 10 28.5t26 9.5q15 0 25.5 -9t10.5 -29t-9.5 -29.5t-26.5 -9.5z" />
    <glyph glyph-name="uniFC6C" unicode="&#xfc6c;" horiz-adv-x="933" arabic-form="final" 
d="M635 0q-5 0 -5 5v33q0 4 5 4h131v436h46v-436h126q4 0 4 -4v-33q0 -5 -5 -5h-302zM786 -167q-17 0 -26.5 10t-9.5 29t9.5 29t26.5 10q18 0 27.5 -11t9.5 -28q0 -18 -9.5 -28.5t-27.5 -10.5zM187 0q-41 0 -59.5 -17t-18.5 -55v-248h-44v247q0 38 10.5 63.5t36.5 38.5
t71 13h10q-22 60 -33.5 113t-11.5 104q0 30 6 64t21 65q32 34 75 54t98 20q29 0 54.5 -6.5t45.5 -20.5q42 -26 63.5 -75t21.5 -109q0 -40 -7 -80t-21 -67q24 -34 55 -48t80 -14h5q5 0 5 -4v-33q0 -5 -5 -5h-5q-52 0 -88.5 14.5t-69.5 52.5q-27 -34 -63 -50.5t-81 -16.5h-151
zM194 268q0 -52 11 -108t35 -118h102q47 0 79 24t49 71.5t17 114.5q0 75 -37.5 121.5t-99.5 46.5q-40 0 -74 -13.5t-66 -41.5q-7 -14 -11.5 -41t-4.5 -56z" />
    <glyph glyph-name="uniFC6D" unicode="&#xfc6d;" horiz-adv-x="912" arabic-form="final" 
d="M615 0q-5 0 -5 5v33q0 4 5 4h131v436h46v-436h126q4 0 4 -4v-33q0 -5 -5 -5h-302zM766 -167q-17 0 -26.5 10t-9.5 29t9.5 29t26.5 10q18 0 27.5 -11t9.5 -28q0 -18 -9.5 -28.5t-27.5 -10.5zM528 0q0 -126 -50.5 -183t-164.5 -57h-70q-33 0 -59 9t-46 24q-37 30 -55 82.5
t-18 129.5q0 48 9 99t29 93l42 -1q-16 -35 -25 -83t-9 -101q0 -104 32.5 -157t108.5 -53h61q58 0 96 19t56 62t18 116v479h45v-436h97q5 0 5 -4v-33q0 -5 -5 -5h-97zM290 422q-16 0 -26 9.5t-10 29.5q0 19 10 28.5t26 9.5q15 0 25.5 -9t10.5 -29t-9.5 -29.5t-26.5 -9.5z" />
    <glyph glyph-name="uniFC6E" unicode="&#xfc6e;" horiz-adv-x="1229" arabic-form="final" 
d="M932 0q-5 0 -5 5v33q0 4 5 4h131v436h46v-436h126q4 0 4 -4v-33q0 -5 -5 -5h-302zM1083 -167q-17 0 -26.5 10t-9.5 29t9.5 29t26.5 10q18 0 27.5 -11t9.5 -28q0 -18 -9.5 -28.5t-27.5 -10.5zM279 -240q-74 0 -121.5 26t-70.5 79t-23 135q0 55 10.5 99.5t23.5 81.5h42
q-12 -39 -21 -81.5t-9 -93.5q0 -71 17 -116t55 -66.5t100 -21.5h170q66 0 107.5 18.5t61.5 46.5t20 56q0 30 -25 45t-77 29q-46 13 -81 26t-54 35t-19 60q0 31 8 56t22 47q22 35 51.5 61t64 40t69.5 14q22 0 42 -5t36 -15q28 -16 46 -44t39 -71q19 -40 40.5 -74t51.5 -58
q23 -17 42 -22t40 -5h5q5 0 5 -4v-33q0 -5 -5 -5h-5q-24 0 -45 5t-41 17t-41 31q-25 21 -42.5 49.5t-32.5 58.5q-18 37 -34 63t-36 42q-13 11 -31 17.5t-39 6.5q-31 0 -61 -15.5t-53 -40.5t-36.5 -54.5t-13.5 -57.5q0 -22 14.5 -36.5t36 -22.5t41.5 -14q28 -8 51 -15t42 -15
q34 -12 52.5 -32.5t18.5 -50.5q0 -80 -60.5 -128t-176.5 -48h-171z" />
    <glyph glyph-name="uniFC6F" unicode="&#xfc6f;" horiz-adv-x="1229" arabic-form="final" 
d="M932 0q-5 0 -5 5v33q0 4 5 4h131v436h46v-436h126q4 0 4 -4v-33q0 -5 -5 -5h-302zM1083 -167q-17 0 -26.5 10t-9.5 29t9.5 29t26.5 10q18 0 27.5 -11t9.5 -28q0 -18 -9.5 -28.5t-27.5 -10.5zM279 -240q-74 0 -121.5 26t-70.5 79t-23 135q0 55 10.5 99.5t23.5 81.5h42
q-12 -39 -21 -81.5t-9 -93.5q0 -71 17 -116t55 -66.5t100 -21.5h170q66 0 107.5 18.5t61.5 46.5t20 56q0 30 -25 45t-77 29q-46 13 -81 26t-54 35t-19 60q0 31 8 56t22 47q22 35 51.5 61t64 40t69.5 14q22 0 42 -5t36 -15q28 -16 46 -44t39 -71q19 -40 40.5 -74t51.5 -58
q23 -17 42 -22t40 -5h5q5 0 5 -4v-33q0 -5 -5 -5h-5q-24 0 -45 5t-41 17t-41 31q-25 21 -42.5 49.5t-32.5 58.5q-18 37 -34 63t-36 42q-13 11 -31 17.5t-39 6.5q-31 0 -61 -15.5t-53 -40.5t-36.5 -54.5t-13.5 -57.5q0 -22 14.5 -36.5t36 -22.5t41.5 -14q28 -8 51 -15t42 -15
q34 -12 52.5 -32.5t18.5 -50.5q0 -80 -60.5 -128t-176.5 -48h-171zM322 -403q-15 0 -25.5 9t-10.5 30q0 20 10.5 29t25.5 9q14 0 25 -8.5t11 -29.5t-10 -30t-26 -9zM455 -403q-17 0 -26.5 9.5t-9.5 29.5q0 19 9.5 28.5t26.5 9.5q16 0 26 -9.5t10 -28.5t-10 -29t-26 -10z" />
    <glyph glyph-name="uniFC70" unicode="&#xfc70;" horiz-adv-x="667" arabic-form="final" 
d="M307 0q-5 0 -5 5v33q0 4 5 4h169v436h45v-436h152q5 0 5 -4v-33q0 -5 -5 -5h-366zM425 606q-14 0 -25.5 8t-11.5 31q0 22 11.5 30.5t25.5 8.5q17 0 26.5 -10t9.5 -30q0 -18 -9.5 -28t-26.5 -10zM553 606q-18 0 -27.5 10t-9.5 28q0 20 10 30t27 10t26.5 -11t9.5 -29
q0 -17 -9 -27.5t-27 -10.5zM198 0v-43q0 -65 -16.5 -109t-49.5 -66.5t-81 -22.5q-25 0 -45.5 6.5t-40.5 17.5l18 35q14 -7 30 -12t37 -5q54 0 79 39.5t25 111.5v526h44v-436h119q5 0 5 -4v-33q0 -5 -5 -5h-119z" />
    <glyph glyph-name="uniFC71" unicode="&#xfc71;" horiz-adv-x="667" arabic-form="final" 
d="M307 0q-5 0 -5 5v33q0 4 5 4h169v436h45v-436h152q5 0 5 -4v-33q0 -5 -5 -5h-366zM425 606q-14 0 -25.5 8t-11.5 31q0 22 11.5 30.5t25.5 8.5q17 0 26.5 -10t9.5 -30q0 -18 -9.5 -28t-26.5 -10zM553 606q-18 0 -27.5 10t-9.5 28q0 20 10 30t27 10t26.5 -11t9.5 -29
q0 -17 -9 -27.5t-27 -10.5zM198 0v-43q0 -65 -16.5 -109t-49.5 -66.5t-81 -22.5q-25 0 -45.5 6.5t-40.5 17.5l18 35q14 -7 30 -12t37 -5q54 0 79 39.5t25 111.5v526h44v-436h119q5 0 5 -4v-33q0 -5 -5 -5h-119zM166 596q-16 0 -26 9.5t-10 29.5q0 19 10 28.5t26 9.5
q15 0 25.5 -9t10.5 -29t-9.5 -29.5t-26.5 -9.5z" />
    <glyph glyph-name="uniFC72" unicode="&#xfc72;" horiz-adv-x="996" arabic-form="final" 
d="M635 0q-5 0 -5 5v33q0 4 5 4h169v436h45v-436h152q5 0 5 -4v-33q0 -5 -5 -5h-366zM754 606q-14 0 -25.5 8t-11.5 31q0 22 11.5 30.5t25.5 8.5q17 0 26.5 -10t9.5 -30q0 -18 -9.5 -28t-26.5 -10zM882 606q-18 0 -27.5 10t-9.5 28q0 20 10 30t27 10t26.5 -11t9.5 -29
q0 -17 -9 -27.5t-27 -10.5zM187 0q-41 0 -59.5 -17t-18.5 -55v-248h-44v247q0 38 10.5 63.5t36.5 38.5t71 13h10q-22 60 -33.5 113t-11.5 104q0 30 6 64t21 65q32 34 75 54t98 20q29 0 54.5 -6.5t45.5 -20.5q42 -26 63.5 -75t21.5 -109q0 -40 -7 -80t-21 -67q24 -34 55 -48
t80 -14h5q5 0 5 -4v-33q0 -5 -5 -5h-5q-52 0 -88.5 14.5t-69.5 52.5q-27 -34 -63 -50.5t-81 -16.5h-151zM194 268q0 -52 11 -108t35 -118h102q47 0 79 24t49 71.5t17 114.5q0 75 -37.5 121.5t-99.5 46.5q-40 0 -74 -13.5t-66 -41.5q-7 -14 -11.5 -41t-4.5 -56z" />
    <glyph glyph-name="uniFC73" unicode="&#xfc73;" horiz-adv-x="976" arabic-form="final" 
d="M615 0q-5 0 -5 5v33q0 4 5 4h169v436h45v-436h152q5 0 5 -4v-33q0 -5 -5 -5h-366zM733 606q-14 0 -25.5 8t-11.5 31q0 22 11.5 30.5t25.5 8.5q17 0 26.5 -10t9.5 -30q0 -18 -9.5 -28t-26.5 -10zM861 606q-18 0 -27.5 10t-9.5 28q0 20 10 30t27 10t26.5 -11t9.5 -29
q0 -17 -9 -27.5t-27 -10.5zM528 0q0 -126 -50.5 -183t-164.5 -57h-70q-33 0 -59 9t-46 24q-37 30 -55 82.5t-18 129.5q0 48 9 99t29 93l42 -1q-16 -35 -25 -83t-9 -101q0 -104 32.5 -157t108.5 -53h61q58 0 96 19t56 62t18 116v479h45v-436h97q5 0 5 -4v-33q0 -5 -5 -5h-97z
M290 422q-16 0 -26 9.5t-10 29.5q0 19 10 28.5t26 9.5q15 0 25.5 -9t10.5 -29t-9.5 -29.5t-26.5 -9.5z" />
    <glyph glyph-name="uniFC74" unicode="&#xfc74;" horiz-adv-x="1292" arabic-form="final" 
d="M932 0q-5 0 -5 5v33q0 4 5 4h169v436h45v-436h152q5 0 5 -4v-33q0 -5 -5 -5h-366zM1050 606q-14 0 -25.5 8t-11.5 31q0 22 11.5 30.5t25.5 8.5q17 0 26.5 -10t9.5 -30q0 -18 -9.5 -28t-26.5 -10zM1178 606q-18 0 -27.5 10t-9.5 28q0 20 10 30t27 10t26.5 -11t9.5 -29
q0 -17 -9 -27.5t-27 -10.5zM279 -240q-74 0 -121.5 26t-70.5 79t-23 135q0 55 10.5 99.5t23.5 81.5h42q-12 -39 -21 -81.5t-9 -93.5q0 -71 17 -116t55 -66.5t100 -21.5h170q66 0 107.5 18.5t61.5 46.5t20 56q0 30 -25 45t-77 29q-46 13 -81 26t-54 35t-19 60q0 31 8 56
t22 47q22 35 51.5 61t64 40t69.5 14q22 0 42 -5t36 -15q28 -16 46 -44t39 -71q19 -40 40.5 -74t51.5 -58q23 -17 42 -22t40 -5h5q5 0 5 -4v-33q0 -5 -5 -5h-5q-24 0 -45 5t-41 17t-41 31q-25 21 -42.5 49.5t-32.5 58.5q-18 37 -34 63t-36 42q-13 11 -31 17.5t-39 6.5
q-31 0 -61 -15.5t-53 -40.5t-36.5 -54.5t-13.5 -57.5q0 -22 14.5 -36.5t36 -22.5t41.5 -14q28 -8 51 -15t42 -15q34 -12 52.5 -32.5t18.5 -50.5q0 -80 -60.5 -128t-176.5 -48h-171z" />
    <glyph glyph-name="uniFC75" unicode="&#xfc75;" horiz-adv-x="1292" arabic-form="final" 
d="M932 0q-5 0 -5 5v33q0 4 5 4h169v436h45v-436h152q5 0 5 -4v-33q0 -5 -5 -5h-366zM1050 606q-14 0 -25.5 8t-11.5 31q0 22 11.5 30.5t25.5 8.5q17 0 26.5 -10t9.5 -30q0 -18 -9.5 -28t-26.5 -10zM1178 606q-18 0 -27.5 10t-9.5 28q0 20 10 30t27 10t26.5 -11t9.5 -29
q0 -17 -9 -27.5t-27 -10.5zM279 -240q-74 0 -121.5 26t-70.5 79t-23 135q0 55 10.5 99.5t23.5 81.5h42q-12 -39 -21 -81.5t-9 -93.5q0 -71 17 -116t55 -66.5t100 -21.5h170q66 0 107.5 18.5t61.5 46.5t20 56q0 30 -25 45t-77 29q-46 13 -81 26t-54 35t-19 60q0 31 8 56
t22 47q22 35 51.5 61t64 40t69.5 14q22 0 42 -5t36 -15q28 -16 46 -44t39 -71q19 -40 40.5 -74t51.5 -58q23 -17 42 -22t40 -5h5q5 0 5 -4v-33q0 -5 -5 -5h-5q-24 0 -45 5t-41 17t-41 31q-25 21 -42.5 49.5t-32.5 58.5q-18 37 -34 63t-36 42q-13 11 -31 17.5t-39 6.5
q-31 0 -61 -15.5t-53 -40.5t-36.5 -54.5t-13.5 -57.5q0 -22 14.5 -36.5t36 -22.5t41.5 -14q28 -8 51 -15t42 -15q34 -12 52.5 -32.5t18.5 -50.5q0 -80 -60.5 -128t-176.5 -48h-171zM322 -403q-15 0 -25.5 9t-10.5 30q0 20 10.5 29t25.5 9q14 0 25 -8.5t11 -29.5t-10 -30
t-26 -9zM455 -403q-17 0 -26.5 9.5t-9.5 29.5q0 19 9.5 28.5t26.5 9.5q16 0 26 -9.5t10 -28.5t-10 -29t-26 -10z" />
    <glyph glyph-name="uniFC76" unicode="&#xfc76;" horiz-adv-x="667" arabic-form="final" 
d="M307 0q-5 0 -5 5v33q0 4 5 4h169v436h45v-436h152q5 0 5 -4v-33q0 -5 -5 -5h-366zM488 674q-16 0 -25.5 9.5t-9.5 27.5t9.5 27.5t25.5 9.5t25.5 -9t9.5 -28t-10 -28t-25 -9zM425 573q-16 0 -26.5 10t-10.5 29t10 28.5t27 9.5t26.5 -10t9.5 -29q0 -18 -9.5 -28t-26.5 -10z
M553 573q-17 0 -27 10.5t-10 28.5t9.5 28t27.5 10q17 0 26.5 -10t9.5 -29q0 -18 -9.5 -28t-26.5 -10zM198 0v-43q0 -65 -16.5 -109t-49.5 -66.5t-81 -22.5q-25 0 -45.5 6.5t-40.5 17.5l18 35q14 -7 30 -12t37 -5q54 0 79 39.5t25 111.5v526h44v-436h119q5 0 5 -4v-33
q0 -5 -5 -5h-119z" />
    <glyph glyph-name="uniFC77" unicode="&#xfc77;" horiz-adv-x="667" arabic-form="final" 
d="M307 0q-5 0 -5 5v33q0 4 5 4h169v436h45v-436h152q5 0 5 -4v-33q0 -5 -5 -5h-366zM488 674q-16 0 -25.5 9.5t-9.5 27.5t9.5 27.5t25.5 9.5t25.5 -9t9.5 -28t-10 -28t-25 -9zM425 573q-16 0 -26.5 10t-10.5 29t10 28.5t27 9.5t26.5 -10t9.5 -29q0 -18 -9.5 -28t-26.5 -10z
M553 573q-17 0 -27 10.5t-10 28.5t9.5 28t27.5 10q17 0 26.5 -10t9.5 -29q0 -18 -9.5 -28t-26.5 -10zM198 0v-43q0 -65 -16.5 -109t-49.5 -66.5t-81 -22.5q-25 0 -45.5 6.5t-40.5 17.5l18 35q14 -7 30 -12t37 -5q54 0 79 39.5t25 111.5v526h44v-436h119q5 0 5 -4v-33
q0 -5 -5 -5h-119zM166 596q-16 0 -26 9.5t-10 29.5q0 19 10 28.5t26 9.5q15 0 25.5 -9t10.5 -29t-9.5 -29.5t-26.5 -9.5z" />
    <glyph glyph-name="uniFC78" unicode="&#xfc78;" horiz-adv-x="996" arabic-form="final" 
d="M635 0q-5 0 -5 5v33q0 4 5 4h169v436h45v-436h152q5 0 5 -4v-33q0 -5 -5 -5h-366zM817 674q-16 0 -25.5 9.5t-9.5 27.5t9.5 27.5t25.5 9.5t25.5 -9t9.5 -28t-10 -28t-25 -9zM754 573q-16 0 -26.5 10t-10.5 29t10 28.5t27 9.5t26.5 -10t9.5 -29q0 -18 -9.5 -28t-26.5 -10z
M882 573q-17 0 -27 10.5t-10 28.5t9.5 28t27.5 10q17 0 26.5 -10t9.5 -29q0 -18 -9.5 -28t-26.5 -10zM187 0q-41 0 -59.5 -17t-18.5 -55v-248h-44v247q0 38 10.5 63.5t36.5 38.5t71 13h10q-22 60 -33.5 113t-11.5 104q0 30 6 64t21 65q32 34 75 54t98 20q29 0 54.5 -6.5
t45.5 -20.5q42 -26 63.5 -75t21.5 -109q0 -40 -7 -80t-21 -67q24 -34 55 -48t80 -14h5q5 0 5 -4v-33q0 -5 -5 -5h-5q-52 0 -88.5 14.5t-69.5 52.5q-27 -34 -63 -50.5t-81 -16.5h-151zM194 268q0 -52 11 -108t35 -118h102q47 0 79 24t49 71.5t17 114.5q0 75 -37.5 121.5
t-99.5 46.5q-40 0 -74 -13.5t-66 -41.5q-7 -14 -11.5 -41t-4.5 -56z" />
    </font>
</defs>
</svg>
