<?xml version="1.0" standalone="no"?>
<!DOCTYPE svg PUBLIC "-//W3C//DTD SVG 1.1//EN" "http://www.w3.org/Graphics/SVG/1.1/DTD/svg11.dtd" >
<svg xmlns="http://www.w3.org/2000/svg" xmlns:xlink="http://www.w3.org/1999/xlink" version="1.1">
<metadata>
Created by FontForge 20201107 at Mon Feb 12 18:26:37 2024
 By www-data
Copyright 2019-2022 Google LLC. All Rights Reserved.
</metadata>
<defs>
<font id="NotoKufiArabic-Medium" horiz-adv-x="0" >
  <font-face 
    font-family="Noto Kufi Arabic Medium"
    font-weight="500"
    font-stretch="normal"
    units-per-em="1000"
    panose-1="0 0 0 0 0 0 0 0 0 0"
    ascent="800"
    descent="-200"
    x-height="539"
    cap-height="714"
    bbox="-505 -650 10451 1508"
    underline-thickness="50"
    underline-position="-125"
    unicode-range="U+000D-10EFF"
  />
<missing-glyph horiz-adv-x="600" 
d="M50 -177v882h500v-882h-500zM106 -121h388v770h-388v-770z" />
    <glyph glyph-name="uniFDF2" unicode="&#xfe8d;&#xfedf;&#xfee0;&#x651;&#x670;&#xfeea;" horiz-adv-x="1571" arabic-form="isolated" 
d="M332 0q-84 0 -144 28t-91.5 81t-31.5 127q0 79 35 135.5t98 86.5t147 30h53v59h107v-455h213v531h109v-531h233v531h109v-623h-837zM399 92v304h-51q-83 0 -128 -41.5t-45 -118.5q0 -70 40.5 -107t115.5 -37h68zM1362 760h109v-760h-109v760zM678 670q-40 0 -62 25
t-22 72v63h55v-52q0 -27 8 -41t31 -14q21 0 31.5 11t10.5 35v86h50v-66q0 -25 8.5 -35.5t29.5 -10.5q25 0 34 12t9 43v72h55v-83q0 -47 -22.5 -72t-64.5 -25q-46 0 -70 30q-25 -50 -81 -50zM727 1077h57v-162h-57v162z" />
    <glyph glyph-name="uni0621" unicode="&#x621;" horiz-adv-x="502" arabic-form="isolated" 
d="M65 72q24 5 47 9.5t44 7.5q-29 19 -47.5 55.5t-18.5 80.5q0 60 29 105q27 41 74.5 63.5t111.5 22.5q39 0 71 -7.5t57 -21.5l-25 -87q-23 12 -47 18t-49 6q-54 0 -84 -27.5t-30 -83.5q0 -35 17 -63t44 -41l23 3q40 5 75.5 9t62 6.5t40.5 3.5v-95q-22 0 -61.5 -3t-87 -8.5
t-95.5 -12t-88 -12.5t-63 -12v84z" />
    <glyph glyph-name="uni0622" unicode="&#x622;" horiz-adv-x="309" arabic-form="isolated" 
d="M100 700h109v-700h-109v700zM-1 769q5 53 29.5 82t66.5 29q18 0 38.5 -7.5t38.5 -18.5q16 -9 31.5 -15t26.5 -6q21 0 31.5 11t17.5 37h47q-5 -52 -29 -81.5t-67 -29.5q-18 0 -37 8t-37 18q-17 8 -32.5 14.5t-28.5 6.5q-22 0 -32 -11t-17 -37h-47z" />
    <glyph glyph-name="uni0623" unicode="&#x623;" horiz-adv-x="309" arabic-form="isolated" 
d="M100 700h109v-700h-109v700zM53 801l50 7q-18 11 -28 27.5t-10 37.5q0 43 28.5 66.5t76.5 23.5q42 0 71 -16l-17 -47q-11 7 -23.5 10t-27.5 3q-22 0 -36.5 -13t-14.5 -37q0 -17 8.5 -29t21.5 -18q22 5 41.5 7.5t35 4t23.5 1.5v-52q-19 -1 -44.5 -3.5t-53.5 -6t-54.5 -7.5
t-46.5 -7v48z" />
    <glyph glyph-name="uni0624" unicode="&#x624;" horiz-adv-x="583" arabic-form="isolated" 
d="M256 -240q-57 0 -103.5 12t-87.5 38l46 81q35 -18 70 -28.5t75 -10.5q65 0 100.5 34.5t35.5 92.5v21h-98q-107 0 -165 59t-58 171q0 81 36.5 138.5t101.5 88.5t151 31h138v-505q0 -106 -63.5 -164.5t-178.5 -58.5zM392 92v304h-40q-80 0 -125 -43t-45 -121
q0 -72 30.5 -106t93.5 -34h86zM222 614l50 7q-18 11 -28 27.5t-10 37.5q0 43 28.5 66.5t76.5 23.5q42 0 71 -16l-17 -47q-11 7 -23.5 10t-27.5 3q-22 0 -36.5 -13t-14.5 -37q0 -17 8.5 -29t21.5 -18q22 5 41.5 7.5t35 4t23.5 1.5v-52q-19 -1 -44.5 -3.5t-53.5 -6t-54.5 -7.5
t-46.5 -7v48z" />
    <glyph glyph-name="uni0625" unicode="&#x625;" horiz-adv-x="309" arabic-form="isolated" 
d="M100 760h109v-760h-109v760zM51 -217l50 8q-16 9 -27 25.5t-11 39.5q0 42 27.5 66t76.5 24q22 0 40 -4t32 -12l-17 -47q-11 6 -24 9t-27 3q-22 0 -36.5 -12.5t-14.5 -37.5q0 -15 7.5 -26.5t22.5 -19.5q13 3 33 5.5t39.5 5t27.5 2.5v-52q-14 0 -42 -3t-60.5 -7t-59.5 -8
t-37 -6v47z" />
    <glyph glyph-name="uni0626" unicode="&#x626;" horiz-adv-x="854" arabic-form="isolated" 
d="M266 -240q-62 0 -107 30t-69.5 83t-24.5 124q0 51 8.5 95t25.5 89h100q-15 -42 -20.5 -80.5t-5.5 -92.5q0 -47 15.5 -82t44 -54.5t66.5 -19.5h189q48 0 84 10t56 30t20 48q0 20 -14 38t-36.5 34t-49.5 32t-48.5 31t-39.5 28q-23 17 -37 33t-20.5 33.5t-6.5 36.5
q0 29 11.5 61.5t35.5 66.5q32 46 73 81.5t86.5 55.5t87.5 20q21 0 43 -5.5t43 -14.5t39 -22l-42 -81q-9 5 -24 10t-30 7.5t-28 2.5q-18 0 -38.5 -7t-40.5 -20q-30 -19 -53.5 -42.5t-37.5 -47.5t-14 -46q0 -11 11 -25t28.5 -28t40.5 -28q31 -19 56 -36.5t43 -33.5
q36 -32 54 -66t18 -68q0 -87 -70 -133.5t-200 -46.5h-222zM116 373l50 7q-18 11 -28 27.5t-10 37.5q0 43 28.5 66.5t76.5 23.5q42 0 71 -16l-17 -47q-11 7 -23.5 10t-27.5 3q-22 0 -36.5 -13t-14.5 -37q0 -17 8.5 -29t21.5 -18q22 5 41.5 7.5t35 4t23.5 1.5v-52
q-19 -1 -44.5 -3.5t-53.5 -6t-54.5 -7.5t-46.5 -7v48z" />
    <glyph glyph-name="uni0627" unicode="&#x627;" horiz-adv-x="309" arabic-form="isolated" 
d="M100 760h109v-760h-109v760z" />
    <glyph glyph-name="uni0628" unicode="&#x628;" horiz-adv-x="808" arabic-form="isolated" 
d="M256 0q-88 0 -139.5 52.5t-51.5 143.5q0 24 3.5 51.5t10 53.5t13.5 46h98q-7 -34 -11 -69t-4 -70q0 -52 26 -84t68 -32h347v396h107v-488h-467zM406 -192q-28 0 -44 17t-16 47q0 31 16 47.5t44 16.5t43.5 -17t15.5 -47q0 -29 -15.5 -46.5t-43.5 -17.5z" />
    <glyph glyph-name="uni0629" unicode="&#x629;" horiz-adv-x="608" arabic-form="isolated" 
d="M303 -10q-114 0 -176 59.5t-62 171.5q0 38 7.5 72.5t23.5 67.5q31 64 86 100.5t124 36.5q32 0 61.5 -9t56.5 -27q37 -25 63.5 -63t41 -83.5t14.5 -94.5q0 -114 -60.5 -172.5t-179.5 -58.5zM304 82q65 0 97 35t32 105q0 56 -16 97t-45 64.5t-69 23.5q-36 0 -65.5 -24
t-47 -65t-17.5 -96q0 -70 32.5 -105t98.5 -35zM197 597q-26 0 -43 16t-17 48q0 33 17 48.5t43 15.5q28 0 43.5 -16.5t15.5 -47.5q0 -30 -16 -47t-43 -17zM369 597q-28 0 -44 17t-16 47q0 31 16 47.5t44 16.5t43.5 -17t15.5 -47q0 -29 -15.5 -46.5t-43.5 -17.5z" />
    <glyph glyph-name="uni062A" unicode="&#x62a;" horiz-adv-x="808" arabic-form="isolated" 
d="M256 0q-88 0 -139.5 52.5t-51.5 143.5q0 24 3.5 51.5t10 53.5t13.5 46h98q-7 -34 -11 -69t-4 -70q0 -52 26 -84t68 -32h347v396h107v-488h-467zM298 495q-26 0 -43 16t-17 48q0 33 17 48.5t43 15.5q28 0 43.5 -16.5t15.5 -47.5q0 -30 -16 -47t-43 -17zM470 495
q-28 0 -44 17t-16 47q0 31 16 47.5t44 16.5t43.5 -17t15.5 -47q0 -29 -15.5 -46.5t-43.5 -17.5z" />
    <glyph glyph-name="uni062B" unicode="&#x62b;" horiz-adv-x="808" arabic-form="isolated" 
d="M256 0q-88 0 -139.5 52.5t-51.5 143.5q0 24 3.5 51.5t10 53.5t13.5 46h98q-7 -34 -11 -69t-4 -70q0 -52 26 -84t68 -32h347v396h107v-488h-467zM385 628q-22 0 -37.5 13.5t-15.5 43.5t15.5 43.5t37.5 13.5q23 0 38.5 -14.5t15.5 -42.5t-15.5 -42.5t-38.5 -14.5zM300 484
q-26 0 -43 16t-17 48q0 33 17 48.5t43 15.5q28 0 43.5 -17t15.5 -47q0 -29 -15.5 -46.5t-43.5 -17.5zM472 484q-28 0 -44 17t-16 47q0 31 16 47.5t44 16.5t43.5 -17t15.5 -47q0 -29 -15.5 -46.5t-43.5 -17.5z" />
    <glyph glyph-name="uni062C" unicode="&#x62c;" horiz-adv-x="657" arabic-form="isolated" 
d="M260 -323q-66 0 -114.5 24t-74.5 68.5t-26 105.5q0 39 13.5 73t38.5 64q26 32 66.5 59.5t102.5 53.5t150 51q-5 17 -10 38.5t-10 48.5q-14 73 -49 108t-93 35q-35 0 -81 -13.5t-86 -34.5l-41 82q42 26 102 42t117 16q96 0 153 -50.5t73 -154.5q9 -55 22.5 -94.5t33 -66
t45.5 -45.5l-61 -79q-26 21 -45.5 41.5t-33.5 45.5q-51 -14 -92 -28t-72 -27.5t-52 -28.5q-40 -26 -61 -57.5t-21 -70.5q0 -56 35.5 -85t104.5 -29q28 0 64.5 4.5t82.5 13.5l13 -82q-42 -11 -75.5 -17t-61.5 -8.5t-57 -2.5zM354 -163q-27 0 -43 17t-16 47q0 31 15.5 47.5
t43.5 16.5q29 0 44.5 -17t15.5 -47q0 -29 -16 -46.5t-44 -17.5z" />
    <glyph glyph-name="uni062D" unicode="&#x62d;" horiz-adv-x="657" arabic-form="isolated" 
d="M260 -323q-66 0 -114.5 24t-74.5 68.5t-26 105.5q0 39 13.5 73t38.5 64q26 32 66.5 59.5t102.5 53.5t150 51q-5 17 -10 38.5t-10 48.5q-14 73 -49 108t-93 35q-35 0 -81 -13.5t-86 -34.5l-41 82q42 26 102 42t117 16q96 0 153 -50.5t73 -154.5q9 -55 22.5 -94.5t33 -66
t45.5 -45.5l-61 -79q-26 21 -45.5 41.5t-33.5 45.5q-51 -14 -92 -28t-72 -27.5t-52 -28.5q-40 -26 -61 -57.5t-21 -70.5q0 -56 35.5 -85t104.5 -29q28 0 64.5 4.5t82.5 13.5l13 -82q-42 -11 -75.5 -17t-61.5 -8.5t-57 -2.5z" />
    <glyph glyph-name="uni062E" unicode="&#x62e;" horiz-adv-x="657" arabic-form="isolated" 
d="M260 -323q-66 0 -114.5 24t-74.5 68.5t-26 105.5q0 39 13.5 73t38.5 64q26 32 66.5 59.5t102.5 53.5t150 51q-5 17 -10 38.5t-10 48.5q-14 73 -49 108t-93 35q-35 0 -81 -13.5t-86 -34.5l-41 82q42 26 102 42t117 16q96 0 153 -50.5t73 -154.5q9 -55 22.5 -94.5t33 -66
t45.5 -45.5l-61 -79q-26 21 -45.5 41.5t-33.5 45.5q-51 -14 -92 -28t-72 -27.5t-52 -28.5q-40 -26 -61 -57.5t-21 -70.5q0 -56 35.5 -85t104.5 -29q28 0 64.5 4.5t82.5 13.5l13 -82q-42 -11 -75.5 -17t-61.5 -8.5t-57 -2.5zM251 607q-27 0 -43 17t-16 47q0 31 15.5 47.5
t43.5 16.5q29 0 44.5 -17t15.5 -47q0 -29 -16 -46.5t-44 -17.5z" />
    <glyph glyph-name="uni062F" unicode="&#x62f;" horiz-adv-x="538" arabic-form="isolated" 
d="M45 92h333q-6 41 -16 76t-22 65q-29 72 -76.5 128t-118.5 98l40 97q81 -39 141 -103.5t100.5 -155t59.5 -208.5v-89h-441v92z" />
    <glyph glyph-name="uni0630" unicode="&#x630;" horiz-adv-x="538" arabic-form="isolated" 
d="M45 92h333q-6 41 -16 76t-22 65q-29 72 -76.5 128t-118.5 98l40 97q81 -39 141 -103.5t100.5 -155t59.5 -208.5v-89h-441v92zM184 646q-27 0 -43 17t-16 47q0 31 15.5 47.5t43.5 16.5q29 0 44.5 -17t15.5 -47q0 -29 -16 -46.5t-44 -17.5z" />
    <glyph glyph-name="uni0631" unicode="&#x631;" horiz-adv-x="363" arabic-form="isolated" 
d="M89 -240q-33 0 -64 8.5t-65 28.5l37 77q25 -13 42.5 -17t38.5 -4q44 0 69 34.5t25 90.5v510h106v-509q0 -68 -22.5 -117t-64.5 -75.5t-102 -26.5z" />
    <glyph glyph-name="uni0632" unicode="&#x632;" horiz-adv-x="363" arabic-form="isolated" 
d="M89 -240q-33 0 -64 8.5t-65 28.5l37 77q25 -13 42.5 -17t38.5 -4q44 0 69 34.5t25 90.5v510h106v-509q0 -68 -22.5 -117t-64.5 -75.5t-102 -26.5zM220 605q-27 0 -43 17t-16 47q0 31 15.5 47.5t43.5 16.5q29 0 44.5 -17t15.5 -47q0 -29 -16 -46.5t-44 -17.5z" />
    <glyph glyph-name="uni0633" unicode="&#x633;" horiz-adv-x="1298" arabic-form="isolated" 
d="M1047 0q-45 0 -83 16.5t-77 54.5q-25 -33 -63 -52t-90 -19h-118q-3 -119 -67.5 -179.5t-196.5 -60.5h-62q-70 0 -120.5 32t-77.5 91.5t-27 140.5q0 60 11.5 121.5t32.5 109.5h100q-17 -46 -25.5 -105t-8.5 -126q0 -81 34.5 -126.5t96.5 -45.5h42q84 0 123 40t39 119v399
h107v-318h100q49 0 74.5 30.5t25.5 85.5v202h106v-221v-12.5t-1 -12.5q25 -41 53 -56.5t71 -15.5h61v396h106v-488h-166z" />
    <glyph glyph-name="uni0634" unicode="&#x634;" horiz-adv-x="1298" arabic-form="isolated" 
d="M1047 0q-45 0 -83 16.5t-77 54.5q-25 -33 -63 -52t-90 -19h-118q-3 -119 -67.5 -179.5t-196.5 -60.5h-62q-70 0 -120.5 32t-77.5 91.5t-27 140.5q0 60 11.5 121.5t32.5 109.5h100q-17 -46 -25.5 -105t-8.5 -126q0 -81 34.5 -126.5t96.5 -45.5h42q84 0 123 40t39 119v399
h107v-318h100q49 0 74.5 30.5t25.5 85.5v202h106v-221v-12.5t-1 -12.5q25 -41 53 -56.5t71 -15.5h61v396h106v-488h-166zM864 651q-22 0 -37.5 13.5t-15.5 43.5t15.5 43.5t37.5 13.5q23 0 38.5 -14.5t15.5 -42.5t-15.5 -42.5t-38.5 -14.5zM779 507q-26 0 -43 16t-17 48
q0 33 17 48.5t43 15.5q28 0 43.5 -17t15.5 -47q0 -29 -15.5 -46.5t-43.5 -17.5zM951 507q-28 0 -44 17t-16 47q0 31 16 47.5t44 16.5t43.5 -17t15.5 -47q0 -29 -15.5 -46.5t-43.5 -17.5z" />
    <glyph glyph-name="uni0635" unicode="&#x635;" horiz-adv-x="1202" arabic-form="isolated" 
d="M290 -240q-70 0 -120.5 32t-77.5 91.5t-27 140.5q0 60 11.5 121.5t32.5 109.5h100q-17 -46 -25.5 -105t-8.5 -126q0 -81 34.5 -126.5t96.5 -45.5h42q84 0 123 40t39 119v477h107v-201q31 70 72 117t92 70.5t111 23.5q116 0 175.5 -62.5t59.5 -194.5v-241h-511
q-2 -120 -67 -180t-197 -60h-62zM1021 92v147q0 86 -38 126.5t-116 40.5q-49 0 -93.5 -26t-83.5 -77t-73 -129v-82h404z" />
    <glyph glyph-name="uni0636" unicode="&#x636;" horiz-adv-x="1202" arabic-form="isolated" 
d="M290 -240q-70 0 -120.5 32t-77.5 91.5t-27 140.5q0 60 11.5 121.5t32.5 109.5h100q-17 -46 -25.5 -105t-8.5 -126q0 -81 34.5 -126.5t96.5 -45.5h42q84 0 123 40t39 119v477h107v-201q31 70 72 117t92 70.5t111 23.5q116 0 175.5 -62.5t59.5 -194.5v-241h-511
q-2 -120 -67 -180t-197 -60h-62zM1021 92v147q0 86 -38 126.5t-116 40.5q-49 0 -93.5 -26t-83.5 -77t-73 -129v-82h404zM833 620q-27 0 -43 17t-16 47q0 31 15.5 47.5t43.5 16.5q29 0 44.5 -17t15.5 -47q0 -29 -16 -46.5t-44 -17.5z" />
    <glyph glyph-name="uni0637" unicode="&#x637;" horiz-adv-x="821" arabic-form="isolated" 
d="M25 0q-5 0 -5 5v83q0 4 5 4h111v668h106v-473q32 70 73 117t92 70.5t110 23.5q116 0 175.5 -62.5t59.5 -194.5v-241h-727zM242 92h404v147q0 86 -38 126.5t-116 40.5q-48 0 -92.5 -25.5t-83.5 -77.5t-74 -130v-81z" />
    <glyph glyph-name="uni0638" unicode="&#x638;" horiz-adv-x="821" arabic-form="isolated" 
d="M25 0q-5 0 -5 5v83q0 4 5 4h111v668h106v-473q32 70 73 117t92 70.5t110 23.5q116 0 175.5 -62.5t59.5 -194.5v-241h-727zM242 92h404v147q0 86 -38 126.5t-116 40.5q-48 0 -92.5 -25.5t-83.5 -77.5t-74 -130v-81zM531 593q-27 0 -43 17t-16 47q0 31 15.5 47.5t43.5 16.5
q29 0 44.5 -17t15.5 -47q0 -29 -16 -46.5t-44 -17.5z" />
    <glyph glyph-name="uni0639" unicode="&#x639;" horiz-adv-x="554" arabic-form="isolated" 
d="M280 -323q-66 0 -114.5 23.5t-74.5 68t-26 105.5q0 37 14.5 71.5t43 66t70.5 59.5q-27 26 -47 57t-30.5 67t-10.5 73q0 72 32.5 123.5t90.5 79t133 27.5q29 0 56.5 -4t51.5 -11t40 -15l-32 -89q-34 14 -63 20.5t-58 6.5q-46 0 -78 -16t-48.5 -47.5t-16.5 -77.5
q0 -32 6.5 -60t19 -51t28.5 -40q42 19 85.5 36.5t87.5 30.5l28 -87q-55 -14 -99.5 -31t-79.5 -37q-58 -31 -86.5 -67.5t-28.5 -76.5q0 -58 34.5 -85.5t105.5 -27.5q19 0 41 2t49 6t57 10l13 -82q-42 -11 -75.5 -17t-61.5 -8.5t-57 -2.5z" />
    <glyph glyph-name="uni063A" unicode="&#x63a;" horiz-adv-x="554" arabic-form="isolated" 
d="M280 -323q-66 0 -114.5 23.5t-74.5 68t-26 105.5q0 37 14.5 71.5t43 66t70.5 59.5q-27 26 -47 57t-30.5 67t-10.5 73q0 72 32.5 123.5t90.5 79t133 27.5q29 0 56.5 -4t51.5 -11t40 -15l-32 -89q-34 14 -63 20.5t-58 6.5q-46 0 -78 -16t-48.5 -47.5t-16.5 -77.5
q0 -32 6.5 -60t19 -51t28.5 -40q42 19 85.5 36.5t87.5 30.5l28 -87q-55 -14 -99.5 -31t-79.5 -37q-58 -31 -86.5 -67.5t-28.5 -76.5q0 -58 34.5 -85.5t105.5 -27.5q19 0 41 2t49 6t57 10l13 -82q-42 -11 -75.5 -17t-61.5 -8.5t-57 -2.5zM315 589q-27 0 -43 17t-16 47
q0 31 15.5 47.5t43.5 16.5q29 0 44.5 -17t15.5 -47q0 -29 -16 -46.5t-44 -17.5z" />
    <glyph glyph-name="uni0641" unicode="&#x641;" horiz-adv-x="1033" arabic-form="isolated" 
d="M256 0q-88 0 -139.5 52.5t-51.5 143.5q0 24 3.5 51.5t10 53.5t13.5 46h98q-7 -34 -11 -69t-4 -70q0 -52 26 -84t68 -32h303q-15 19 -26.5 42t-18 49.5t-6.5 53.5q0 77 34 133.5t97 87t149 30.5h147v-488h-692zM842 92v304h-38q-54 0 -93 -19t-59 -55t-20 -87
q0 -47 15.5 -79t46.5 -48t76 -16h72zM744 594q-27 0 -43 17t-16 47q0 31 15.5 47.5t43.5 16.5q29 0 44.5 -17t15.5 -47q0 -29 -16 -46.5t-44 -17.5z" />
    <glyph glyph-name="uni0642" unicode="&#x642;" horiz-adv-x="905" arabic-form="isolated" 
d="M311 -240q-56 0 -101.5 18t-77.5 52t-49.5 80.5t-17.5 103.5q0 62 11.5 120.5t32.5 110.5h100q-17 -50 -25.5 -108t-8.5 -119q0 -79 42 -122.5t121 -43.5h191q98 0 141 34.5t43 107.5v6h-87q-73 0 -125.5 27.5t-80 80.5t-27.5 127q0 80 35 137t98.5 86.5t146.5 29.5h147
v-483q0 -123 -65 -184t-198 -61h-246zM713 92v304h-37q-55 0 -94 -18.5t-59 -55t-20 -89.5q0 -48 15.5 -79.5t46.5 -46.5t76 -15h72zM502 612q-26 0 -43 16t-17 48q0 33 17 48.5t43 15.5q28 0 43.5 -16.5t15.5 -47.5q0 -30 -16 -47t-43 -17zM674 612q-28 0 -44 17t-16 47
q0 31 16 47.5t44 16.5t43.5 -17t15.5 -47q0 -29 -15.5 -46.5t-43.5 -17.5z" />
    <glyph glyph-name="uni0643" unicode="&#x643;" horiz-adv-x="823" arabic-form="isolated" 
d="M256 0q-91 0 -141 49t-50 137q0 24 3 48.5t9.5 48t14.5 44.5h94q-7 -34 -11 -66t-4 -63q0 -48 26.5 -77t71.5 -29h347v668h107v-760h-467zM312 315v46h141v7q0 12 -7 17.5t-25 5.5h-90v37q14 32 45.5 58.5t66.5 36.5l19 -45q-17 -4 -35.5 -15.5t-31.5 -25.5h28
q39 0 60.5 -16.5t21.5 -49.5v-56h-193z" />
    <glyph glyph-name="uni0644" unicode="&#x644;" horiz-adv-x="717" arabic-form="isolated" 
d="M290 -240q-70 0 -120.5 32t-77.5 91.5t-27 140.5q0 41 5 82t15 79t24 70h100q-17 -46 -25.5 -105t-8.5 -126q0 -81 34.5 -126.5t96.5 -45.5h42q84 0 123 40t39 119v749h107v-746q0 -126 -64.5 -190t-200.5 -64h-62z" />
    <glyph glyph-name="uni0645" unicode="&#x645;" horiz-adv-x="671" arabic-form="isolated" 
d="M65 -48q0 43 14.5 74t43 48.5t69.5 17.5h3q-17 42 -25.5 82t-8.5 78q0 44 11 87.5t30 78.5q40 29 90 46.5t98 17.5q32 0 61 -7t54 -21q50 -28 77 -80t27 -118q0 -40 -7.5 -73.5t-22.5 -62.5q-31 -58 -87 -89t-126 -31h-121q-38 0 -56 -18t-18 -56v-246h-106v272zM267 256
q0 -39 7.5 -78.5t25.5 -85.5h60q43 0 74 20t48 57t17 87q0 60 -31.5 97t-78.5 37q-28 0 -55.5 -9t-53.5 -27q-8 -23 -10.5 -47t-2.5 -51z" />
    <glyph glyph-name="uni0646" unicode="&#x646;" horiz-adv-x="702" arabic-form="isolated" 
d="M290 -240q-40 0 -73.5 10.5t-60.5 31.5q-44 32 -67.5 86.5t-23.5 125.5q0 59 11.5 115.5t32.5 105.5h100q-17 -46 -25.5 -101.5t-8.5 -115.5q0 -79 34.5 -122.5t96.5 -43.5h42q84 0 123 40t39 119v477h107v-474q0 -126 -64.5 -190t-200.5 -64h-62zM332 469q-27 0 -43 17
t-16 47q0 31 15.5 47.5t43.5 16.5q29 0 44.5 -17t15.5 -47q0 -29 -16 -46.5t-44 -17.5z" />
    <glyph glyph-name="uni0648" unicode="&#x648;" horiz-adv-x="583" arabic-form="isolated" 
d="M256 -240q-57 0 -103.5 12t-87.5 38l46 81q35 -18 70 -28.5t75 -10.5q65 0 100.5 34.5t35.5 92.5v21h-98q-107 0 -165 59t-58 171q0 81 36.5 138.5t101.5 88.5t151 31h138v-505q0 -106 -63.5 -164.5t-178.5 -58.5zM392 92v304h-40q-80 0 -125 -43t-45 -121
q0 -72 30.5 -106t93.5 -34h86z" />
    <glyph glyph-name="uni0649" unicode="&#x649;" horiz-adv-x="854" arabic-form="isolated" 
d="M266 -240q-62 0 -107 30t-69.5 83t-24.5 124q0 51 8.5 95t25.5 89h100q-15 -42 -20.5 -80.5t-5.5 -92.5q0 -47 15.5 -82t44 -54.5t66.5 -19.5h189q48 0 84 10t56 30t20 48q0 20 -14 38t-36.5 34t-49.5 32t-48.5 31t-39.5 28q-23 17 -37 33t-20.5 33.5t-6.5 36.5
q0 29 11.5 61.5t35.5 66.5q32 46 73 81.5t86.5 55.5t87.5 20q21 0 43 -5.5t43 -14.5t39 -22l-42 -81q-9 5 -24 10t-30 7.5t-28 2.5q-18 0 -38.5 -7t-40.5 -20q-30 -19 -53.5 -42.5t-37.5 -47.5t-14 -46q0 -11 11 -25t28.5 -28t40.5 -28q31 -19 56 -36.5t43 -33.5
q36 -32 54 -66t18 -68q0 -87 -70 -133.5t-200 -46.5h-222z" />
    <glyph glyph-name="uni064A" unicode="&#x64a;" horiz-adv-x="854" arabic-form="isolated" 
d="M266 -240q-62 0 -107 30t-69.5 83t-24.5 124q0 51 8.5 95t25.5 89h100q-15 -42 -20.5 -80.5t-5.5 -92.5q0 -47 15.5 -82t44 -54.5t66.5 -19.5h189q48 0 84 10t56 30t20 48q0 20 -14 38t-36.5 34t-49.5 32t-48.5 31t-39.5 28q-23 17 -37 33t-20.5 33.5t-6.5 36.5
q0 29 11.5 61.5t35.5 66.5q32 46 73 81.5t86.5 55.5t87.5 20q21 0 43 -5.5t43 -14.5t39 -22l-42 -81q-9 5 -24 10t-30 7.5t-28 2.5q-18 0 -38.5 -7t-40.5 -20q-30 -19 -53.5 -42.5t-37.5 -47.5t-14 -46q0 -11 11 -25t28.5 -28t40.5 -28q31 -19 56 -36.5t43 -33.5
q36 -32 54 -66t18 -68q0 -87 -70 -133.5t-200 -46.5h-222zM305 -455q-26 0 -43 16t-17 48q0 33 17 48.5t43 15.5q27 0 43 -16.5t16 -47.5q0 -30 -16 -47t-43 -17zM477 -455q-28 0 -44 17t-16 47q0 31 16 47.5t44 16.5t43.5 -17.5t15.5 -46.5t-15.5 -46.5t-43.5 -17.5z" />
    <glyph glyph-name="uni0671" unicode="&#x671;" horiz-adv-x="309" arabic-form="isolated" 
d="M100 700h109v-700h-109v700zM22 827h46q17 51 45.5 76.5t66.5 25.5q41 0 63.5 -27t22.5 -75v-49h-244v49zM215 827q0 28 -9 40t-27 12t-33 -14.5t-23 -37.5h92z" />
    <glyph glyph-name="uni0677" unicode="&#x677;" horiz-adv-x="1085" arabic-form="isolated" 
d="M648 312q24 5 47 9.5t44 7.5q-29 19 -47.5 55.5t-18.5 80.5q0 60 29 105q27 41 74.5 63.5t111.5 22.5q39 0 71 -7.5t57 -21.5l-25 -87q-23 12 -47 18t-49 6q-54 0 -84 -27.5t-30 -83.5q0 -35 17 -63t44 -41l23 3q40 5 75.5 9t62 6.5t40.5 3.5v-95q-22 0 -61.5 -3
t-87 -8.5t-95.5 -12t-88 -12.5t-63 -12v84zM256 -240q-57 0 -103.5 12t-87.5 38l46 81q35 -18 70 -28.5t75 -10.5q65 0 100.5 34.5t35.5 92.5v21h-98q-107 0 -165 59t-58 171q0 81 36.5 138.5t101.5 88.5t151 31h138v-505q0 -106 -63.5 -164.5t-178.5 -58.5zM392 92v304h-40
q-80 0 -125 -43t-45 -121q0 -72 30.5 -106t93.5 -34h86zM271 562l-25 37q22 13 40.5 25t33.5 23.5t24 21.5q-32 11 -53 33.5t-21 47.5q0 31 24.5 54t56.5 23q29 0 46.5 -23.5t17.5 -58.5q0 -30 -9.5 -55t-28 -47t-45.5 -41.5t-61 -39.5z" />
    <glyph glyph-name="uni0679" unicode="&#x679;" horiz-adv-x="808" arabic-form="isolated" 
d="M256 0q-88 0 -139.5 52.5t-51.5 143.5q0 24 3.5 51.5t10 53.5t13.5 46h98q-7 -34 -11 -69t-4 -70q0 -52 26 -84t68 -32h347v396h107v-488h-467zM272 552h15v182h47v-124q12 26 31.5 42.5t47.5 16.5q39 0 57.5 -22.5t18.5 -68.5v-76h-217v50zM442 552v18q0 26 -8.5 39
t-29.5 13q-22 0 -39.5 -15.5t-30.5 -44.5v-10h108z" />
    <glyph glyph-name="uni067A" unicode="&#x67a;" horiz-adv-x="808" arabic-form="isolated" 
d="M256 0q-88 0 -139.5 52.5t-51.5 143.5q0 24 3.5 51.5t10 53.5t13.5 46h98q-7 -34 -11 -69t-4 -70q0 -52 26 -84t68 -32h347v396h107v-488h-467zM382 474q-27 0 -43.5 16.5t-16.5 47.5t16 47.5t44 16.5t43.5 -17t15.5 -47q0 -29 -15.5 -46.5t-43.5 -17.5zM382 657
q-27 0 -43.5 16.5t-16.5 47.5t16 47.5t44 16.5t43.5 -17.5t15.5 -46.5t-15.5 -46.5t-43.5 -17.5z" />
    <glyph glyph-name="uni067B" unicode="&#x67b;" horiz-adv-x="808" arabic-form="isolated" 
d="M256 0q-88 0 -139.5 52.5t-51.5 143.5q0 24 3.5 51.5t10 53.5t13.5 46h98q-7 -34 -11 -69t-4 -70q0 -52 26 -84t68 -32h347v396h107v-488h-467zM405 -363q-27 0 -43.5 16.5t-16.5 47.5t16 47.5t44 16.5t43.5 -17t15.5 -47q0 -29 -15.5 -46.5t-43.5 -17.5zM405 -180
q-27 0 -43.5 16.5t-16.5 47.5t16 47.5t44 16.5t43.5 -17.5t15.5 -46.5q0 -30 -15.5 -47t-43.5 -17z" />
    <glyph glyph-name="uni067E" unicode="&#x67e;" horiz-adv-x="808" arabic-form="isolated" 
d="M256 0q-88 0 -139.5 52.5t-51.5 143.5q0 24 3.5 51.5t10 53.5t13.5 46h98q-7 -34 -11 -69t-4 -70q0 -52 26 -84t68 -32h347v396h107v-488h-467zM410 -369q-22 0 -37.5 13.5t-15.5 43.5t15.5 43.5t37.5 13.5q23 0 38.5 -14.5t15.5 -42.5q0 -29 -15.5 -43t-38.5 -14z
M325 -246q-26 0 -43 16t-17 48t17 48t43 16q27 0 43 -17t16 -47q0 -29 -15.5 -46.5t-43.5 -17.5zM497 -246q-28 0 -44 16.5t-16 47.5q0 30 16 47t44 17q27 0 43 -17t16 -47q0 -29 -15.5 -46.5t-43.5 -17.5z" />
    <glyph glyph-name="uni067F" unicode="&#x67f;" horiz-adv-x="808" arabic-form="isolated" 
d="M256 0q-88 0 -139.5 52.5t-51.5 143.5q0 24 3.5 51.5t10 53.5t13.5 46h98q-7 -34 -11 -69t-4 -70q0 -52 26 -84t68 -32h347v396h107v-488h-467zM306 473q-24 0 -39 14.5t-15 42.5q0 30 16 44t38 14q23 0 38 -14t15 -44q0 -27 -14 -42t-39 -15zM460 473q-22 0 -37.5 13.5
t-15.5 43.5q0 31 15.5 44.5t37.5 13.5q24 0 39 -15t15 -43q0 -27 -14.5 -42t-39.5 -15zM306 638q-24 0 -39 14.5t-15 42.5q0 30 16 44t38 14q23 0 38 -14t15 -44q0 -27 -14 -42t-39 -15zM460 638q-22 0 -37.5 13.5t-15.5 43.5q0 31 15.5 44.5t37.5 13.5q24 0 39 -15t15 -43
q0 -27 -14.5 -42t-39.5 -15z" />
    <glyph glyph-name="uni0680" unicode="&#x680;" horiz-adv-x="808" arabic-form="isolated" 
d="M256 0q-88 0 -139.5 52.5t-51.5 143.5q0 24 3.5 51.5t10 53.5t13.5 46h98q-7 -34 -11 -69t-4 -70q0 -52 26 -84t68 -32h347v396h107v-488h-467zM327 -368q-24 0 -39 14.5t-15 42.5q0 30 16 44t38 14q23 0 38 -14t15 -44q0 -27 -14 -42t-39 -15zM481 -368
q-22 0 -37.5 13.5t-15.5 43.5q0 31 15.5 44.5t37.5 13.5q24 0 39 -15t15 -43q0 -27 -14.5 -42t-39.5 -15zM327 -203q-24 0 -39 14.5t-15 42.5q0 30 16 44t38 14q23 0 38 -14t15 -44q0 -27 -14 -42t-39 -15zM481 -203q-22 0 -37.5 13.5t-15.5 43.5q0 31 15.5 44.5t37.5 13.5
q24 0 39 -15t15 -43q0 -27 -14.5 -42t-39.5 -15z" />
    <glyph glyph-name="uni0683" unicode="&#x683;" horiz-adv-x="657" arabic-form="isolated" 
d="M531 8q-26 21 -45.5 41.5t-33.5 45.5q-77 -20 -131 -41.5t-85 -42.5q-40 -26 -61 -57.5t-21 -70.5q0 -55 33.5 -84.5t94.5 -29.5l-22 -92q-66 0 -114.5 24t-74.5 68.5t-26 105.5q0 39 13.5 73t38.5 64q26 32 66.5 59.5t102.5 53.5t150 51q-5 17 -10 38.5t-10 48.5
q-14 73 -49 108t-93 35q-35 0 -81 -13.5t-86 -34.5l-41 82q42 26 102 42t117 16q96 0 153 -51t73 -154q9 -55 22.5 -94.5t33 -66t45.5 -45.5zM368 -253q-26 0 -43 16t-17 48q0 33 17 48.5t43 15.5q28 0 43.5 -16.5t15.5 -47.5q0 -30 -16 -47t-43 -17zM540 -253q-28 0 -44 17
t-16 47q0 31 16 47.5t44 16.5t43.5 -17t15.5 -47q0 -29 -15.5 -46.5t-43.5 -17.5z" />
    <glyph glyph-name="uni0684" unicode="&#x684;" horiz-adv-x="657" arabic-form="isolated" 
d="M531 8q-26 21 -45.5 41.5t-33.5 45.5q-77 -20 -131 -41.5t-85 -42.5q-40 -26 -61 -57.5t-21 -70.5q0 -55 33.5 -84.5t94.5 -29.5l-22 -92q-66 0 -114.5 24t-74.5 68.5t-26 105.5q0 39 13.5 73t38.5 64q26 32 66.5 59.5t102.5 53.5t150 51q-5 17 -10 38.5t-10 48.5
q-14 73 -49 108t-93 35q-35 0 -81 -13.5t-86 -34.5l-41 82q42 26 102 42t117 16q96 0 153 -51t73 -154q9 -55 22.5 -94.5t33 -66t45.5 -45.5zM454 -344q-27 0 -43.5 16.5t-16.5 47.5t16 47.5t44 16.5t43.5 -17t15.5 -47q0 -29 -15.5 -46.5t-43.5 -17.5zM454 -161
q-27 0 -43.5 16.5t-16.5 47.5t16 47.5t44 16.5t43.5 -17.5t15.5 -46.5t-15.5 -46.5t-43.5 -17.5z" />
    <glyph glyph-name="uni0686" unicode="&#x686;" horiz-adv-x="657" arabic-form="isolated" 
d="M531 8q-26 21 -45.5 41.5t-33.5 45.5q-77 -20 -131 -41.5t-85 -42.5q-40 -26 -61 -57.5t-21 -70.5q0 -55 33.5 -84.5t94.5 -29.5l-22 -92q-66 0 -114.5 24t-74.5 68.5t-26 105.5q0 39 13.5 73t38.5 64q26 32 66.5 59.5t102.5 53.5t150 51q-5 17 -10 38.5t-10 48.5
q-14 73 -49 108t-93 35q-35 0 -81 -13.5t-86 -34.5l-41 82q42 26 102 42t117 16q96 0 153 -51t73 -154q9 -55 22.5 -94.5t33 -66t45.5 -45.5zM454 -204q22 0 37.5 -13.5t15.5 -43.5t-15.5 -43.5t-37.5 -13.5q-23 0 -38.5 14.5t-15.5 42.5q0 29 15.5 43t38.5 14zM539 -60
q26 0 43 -15.5t17 -48.5q0 -32 -17 -48t-43 -16q-28 0 -43.5 17.5t-15.5 46.5q0 30 15.5 47t43.5 17zM367 -60q28 0 44 -16.5t16 -47.5q0 -30 -16 -47t-44 -17q-27 0 -43 16.5t-16 47.5q0 30 16 47t43 17z" />
    <glyph glyph-name="uni0687" unicode="&#x687;" horiz-adv-x="657" arabic-form="isolated" 
d="M531 8q-26 21 -45.5 41.5t-33.5 45.5q-77 -20 -131 -41.5t-85 -42.5q-40 -26 -61 -57.5t-21 -70.5q0 -55 33.5 -84.5t94.5 -29.5l-22 -92q-66 0 -114.5 24t-74.5 68.5t-26 105.5q0 39 13.5 73t38.5 64q26 32 66.5 59.5t102.5 53.5t150 51q-5 17 -10 38.5t-10 48.5
q-14 73 -49 108t-93 35q-35 0 -81 -13.5t-86 -34.5l-41 82q42 26 102 42t117 16q96 0 153 -51t73 -154q9 -55 22.5 -94.5t33 -66t45.5 -45.5zM377 -329q-24 0 -39 14.5t-15 42.5q0 30 16 44t38 14q23 0 38 -14t15 -44q0 -27 -14 -42t-39 -15zM531 -329q-22 0 -37.5 13.5
t-15.5 43.5q0 31 15.5 44.5t37.5 13.5q24 0 39 -15t15 -43q0 -27 -14.5 -42t-39.5 -15zM377 -164q-24 0 -39 14.5t-15 42.5q0 30 16 44t38 14q23 0 38 -14t15 -44q0 -27 -14 -42t-39 -15zM531 -164q-22 0 -37.5 13.5t-15.5 43.5q0 31 15.5 44.5t37.5 13.5q24 0 39 -15
t15 -43q0 -27 -14.5 -42t-39.5 -15z" />
    <glyph glyph-name="uni0688" unicode="&#x688;" horiz-adv-x="538" arabic-form="isolated" 
d="M45 92h333q-6 41 -16 76t-22 65q-29 72 -76.5 128t-118.5 98l40 97q81 -39 141 -103.5t100.5 -155t59.5 -208.5v-89h-441v92zM70 715h15v182h47v-124q12 26 31.5 42.5t47.5 16.5q39 0 57.5 -22.5t18.5 -68.5v-76h-217v50zM240 715v18q0 26 -8.5 39t-29.5 13
q-22 0 -39.5 -15.5t-30.5 -44.5v-10h108z" />
    <glyph glyph-name="uni068C" unicode="&#x68c;" horiz-adv-x="538" arabic-form="isolated" 
d="M45 92h333q-6 41 -16 76t-22 65q-29 72 -76.5 128t-118.5 98l40 97q81 -39 141 -103.5t100.5 -155t59.5 -208.5v-89h-441v92zM96 658q-26 0 -43 16t-17 48q0 33 17 48.5t43 15.5q28 0 43.5 -16.5t15.5 -47.5q0 -30 -16 -47t-43 -17zM268 658q-28 0 -44 17t-16 47
q0 31 16 47.5t44 16.5t43.5 -17t15.5 -47q0 -29 -15.5 -46.5t-43.5 -17.5z" />
    <glyph glyph-name="uni068D" unicode="&#x68d;" horiz-adv-x="538" arabic-form="isolated" 
d="M45 92h333q-6 41 -16 76t-22 65q-29 72 -76.5 128t-118.5 98l40 97q81 -39 141 -103.5t100.5 -155t59.5 -208.5v-89h-441v92zM189 -211q-26 0 -43 16t-17 48q0 33 17 48.5t43 15.5q27 0 43 -16.5t16 -47.5q0 -30 -16 -47t-43 -17zM361 -211q-28 0 -44 17t-16 47
q0 31 16 47.5t44 16.5t43.5 -17.5t15.5 -46.5t-15.5 -46.5t-43.5 -17.5z" />
    <glyph glyph-name="uni068E" unicode="&#x68e;" horiz-adv-x="538" arabic-form="isolated" 
d="M45 92h333q-6 41 -16 76t-22 65q-29 72 -76.5 128t-118.5 98l40 97q81 -39 141 -103.5t100.5 -155t59.5 -208.5v-89h-441v92zM183 791q-22 0 -37.5 13.5t-15.5 43.5t15.5 43.5t37.5 13.5q23 0 38.5 -14.5t15.5 -42.5t-15.5 -42.5t-38.5 -14.5zM98 647q-26 0 -43 16
t-17 48q0 33 17 48.5t43 15.5q28 0 43.5 -17t15.5 -47q0 -29 -15.5 -46.5t-43.5 -17.5zM270 647q-28 0 -44 17t-16 47q0 31 16 47.5t44 16.5t43.5 -17t15.5 -47q0 -29 -15.5 -46.5t-43.5 -17.5z" />
    <glyph glyph-name="uni0691" unicode="&#x691;" horiz-adv-x="363" arabic-form="isolated" 
d="M89 -240q-33 0 -64 8.5t-65 28.5l37 77q25 -13 42.5 -17t38.5 -4q44 0 69 34.5t25 90.5v510h106v-509q0 -68 -22.5 -117t-64.5 -75.5t-102 -26.5zM107 675h15v182h47v-124q12 26 31.5 42.5t47.5 16.5q39 0 57.5 -22.5t18.5 -68.5v-76h-217v50zM277 675v18q0 26 -8.5 39
t-29.5 13q-22 0 -39.5 -15.5t-30.5 -44.5v-10h108z" />
    <glyph glyph-name="uni0698" unicode="&#x698;" horiz-adv-x="363" arabic-form="isolated" 
d="M89 -240q-33 0 -64 8.5t-65 28.5l37 77q25 -13 42.5 -17t38.5 -4q44 0 69 34.5t25 90.5v510h106v-509q0 -68 -22.5 -117t-64.5 -75.5t-102 -26.5zM220 750q-22 0 -37.5 13.5t-15.5 43.5t15.5 43.5t37.5 13.5q23 0 38.5 -14.5t15.5 -42.5t-15.5 -42.5t-38.5 -14.5z
M135 606q-26 0 -43 16t-17 48q0 33 17 48.5t43 15.5q28 0 43.5 -17t15.5 -47q0 -29 -15.5 -46.5t-43.5 -17.5zM307 606q-28 0 -44 17t-16 47q0 31 16 47.5t44 16.5t43.5 -17t15.5 -47q0 -29 -15.5 -46.5t-43.5 -17.5z" />
    <glyph glyph-name="uni06A4" unicode="&#x6a4;" horiz-adv-x="1033" arabic-form="isolated" 
d="M256 0q-88 0 -139.5 52.5t-51.5 143.5q0 24 3.5 51.5t10 53.5t13.5 46h98q-7 -34 -11 -69t-4 -70q0 -52 26 -84t68 -32h303q-15 19 -26.5 42t-18 49.5t-6.5 53.5q0 77 34 133.5t97 87t149 30.5h147v-488h-692zM842 92v304h-38q-54 0 -93 -19t-59 -55t-20 -87
q0 -47 15.5 -79t46.5 -48t76 -16h72zM743 739q-22 0 -37.5 13.5t-15.5 43.5t15.5 43.5t37.5 13.5q23 0 38.5 -14.5t15.5 -42.5t-15.5 -42.5t-38.5 -14.5zM658 595q-26 0 -43 16t-17 48q0 33 17 48.5t43 15.5q28 0 43.5 -17t15.5 -47q0 -29 -15.5 -46.5t-43.5 -17.5zM830 595
q-28 0 -44 17t-16 47q0 31 16 47.5t44 16.5t43.5 -17t15.5 -47q0 -29 -15.5 -46.5t-43.5 -17.5z" />
    <glyph glyph-name="uni06A6" unicode="&#x6a6;" horiz-adv-x="1033" arabic-form="isolated" 
d="M256 0q-88 0 -139.5 52.5t-51.5 143.5q0 24 3.5 51.5t10 53.5t13.5 46h98q-7 -34 -11 -69t-4 -70q0 -52 26 -84t68 -32h303q-15 19 -26.5 42t-18 49.5t-6.5 53.5q0 77 34 133.5t97 87t149 30.5h147v-488h-692zM842 92v304h-38q-54 0 -93 -19t-59 -55t-20 -87
q0 -47 15.5 -79t46.5 -48t76 -16h72zM665 584q-24 0 -39 14.5t-15 42.5q0 30 16 44t38 14q23 0 38 -14t15 -44q0 -27 -14 -42t-39 -15zM819 584q-22 0 -37.5 13.5t-15.5 43.5q0 31 15.5 44.5t37.5 13.5q24 0 39 -15t15 -43q0 -27 -14.5 -42t-39.5 -15zM665 749
q-24 0 -39 14.5t-15 42.5q0 30 16 44t38 14q23 0 38 -14t15 -44q0 -27 -14 -42t-39 -15zM819 749q-22 0 -37.5 13.5t-15.5 43.5q0 31 15.5 44.5t37.5 13.5q24 0 39 -15t15 -43q0 -27 -14.5 -42t-39.5 -15z" />
    <glyph glyph-name="uni06A9" unicode="&#x6a9;" horiz-adv-x="834" arabic-form="isolated" 
d="M256 0q-92 0 -141.5 49t-49.5 137q0 31 6.5 68.5t17.5 72.5h97q-7 -40 -11 -72t-4 -55q0 -50 26.5 -79t71.5 -29h384v176q0 70 -44 104.5t-132 34.5h-170v90q34 71 90 135t125.5 114t143.5 77l40 -95q-44 -16 -89 -41.5t-84.5 -57t-70.5 -65t-48 -65.5h71
q135 0 204.5 -55t69.5 -159v-285h-503z" />
    <glyph glyph-name="uni06AD" unicode="&#x6ad;" horiz-adv-x="823" arabic-form="isolated" 
d="M256 0q-91 0 -141 49t-50 137q0 24 3 48.5t9.5 48t14.5 44.5h94q-7 -34 -11 -66t-4 -63q0 -48 26.5 -77t71.5 -29h347v668h107v-760h-467zM312 315v46h141v7q0 12 -7 17.5t-25 5.5h-90v37q14 32 45.5 58.5t66.5 36.5l19 -45q-17 -4 -35.5 -15.5t-31.5 -25.5h28
q39 0 60.5 -16.5t21.5 -49.5v-56h-193zM412 722q-17 0 -29 10.5t-12 33.5q0 22 12 32.5t29 10.5t28.5 -11t11.5 -32q0 -22 -11.5 -33t-28.5 -11zM347 602q-19 0 -32 12.5t-13 36.5q0 25 13 37t32 12q21 0 33 -13t12 -36q0 -21 -12 -35t-33 -14zM477 602q-21 0 -33 13t-12 36
t12 36t33 13q22 0 33.5 -13t11.5 -36q0 -21 -11.5 -35t-33.5 -14z" />
    <glyph glyph-name="uni06AF" unicode="&#x6af;" horiz-adv-x="834" arabic-form="isolated" 
d="M256 0q-92 0 -141.5 49t-49.5 137q0 31 6.5 68.5t17.5 72.5h97q-7 -40 -11 -72t-4 -55q0 -50 26.5 -79t71.5 -29h384v176q0 70 -44 104.5t-132 34.5h-170v90q34 71 90 135t125.5 114t143.5 77l40 -95q-44 -16 -89 -41.5t-84.5 -57t-70.5 -65t-48 -65.5h71
q135 0 204.5 -55t69.5 -159v-285h-503zM274 654q17 33 52 73.5t82 82t99.5 76t103.5 54.5l29 -70q-48 -17 -97.5 -47.5t-95.5 -70t-84 -81t-62 -80.5z" />
    <glyph glyph-name="uni06B1" unicode="&#x6b1;" horiz-adv-x="834" arabic-form="isolated" 
d="M256 0q-92 0 -141.5 49t-49.5 137q0 31 6.5 68.5t17.5 72.5h97q-7 -40 -11 -72t-4 -55q0 -50 26.5 -79t71.5 -29h384v176q0 70 -44 104.5t-132 34.5h-170v90q34 71 90 135t125.5 114t143.5 77l40 -95q-44 -16 -89 -41.5t-84.5 -57t-70.5 -65t-48 -65.5h71
q135 0 204.5 -55t69.5 -159v-285h-503zM274 654q17 33 52 73.5t82 82t99.5 76t103.5 54.5l29 -70q-48 -17 -97.5 -47.5t-95.5 -70t-84 -81t-62 -80.5zM278 775q-12 0 -23 6t-17 17t-6 25q0 22 12.5 34.5t31.5 12.5q12 0 22.5 -6t17 -17t6.5 -26q0 -21 -13 -33.5t-31 -12.5z
M380 861q-12 0 -23 6t-17.5 17t-6.5 25q0 22 13 34t31 12t32.5 -13t14.5 -35q0 -21 -13.5 -33.5t-30.5 -12.5z" />
    <glyph glyph-name="uni06B3" unicode="&#x6b3;" horiz-adv-x="834" arabic-form="isolated" 
d="M256 0q-92 0 -141.5 49t-49.5 137q0 31 6.5 68.5t17.5 72.5h97q-7 -40 -11 -72t-4 -55q0 -50 26.5 -79t71.5 -29h384v176q0 70 -44 104.5t-132 34.5h-170v90q34 71 90 135t125.5 114t143.5 77l40 -95q-44 -16 -89 -41.5t-84.5 -57t-70.5 -65t-48 -65.5h71
q135 0 204.5 -55t69.5 -159v-285h-503zM274 654q17 33 52 73.5t82 82t99.5 76t103.5 54.5l29 -70q-48 -17 -97.5 -47.5t-95.5 -70t-84 -81t-62 -80.5zM397 -400q-27 0 -43.5 16.5t-16.5 47.5t16 47.5t44 16.5t43.5 -17t15.5 -47q0 -29 -15.5 -46.5t-43.5 -17.5zM397 -217
q-27 0 -43.5 16.5t-16.5 47.5t16 47.5t44 16.5t43.5 -17.5t15.5 -46.5q0 -30 -15.5 -47t-43.5 -17z" />
    <glyph glyph-name="uni06BA" unicode="&#x6ba;" horiz-adv-x="702" arabic-form="isolated" 
d="M290 -240q-40 0 -73.5 10.5t-60.5 31.5q-44 32 -67.5 86.5t-23.5 125.5q0 59 11.5 115.5t32.5 105.5h100q-17 -46 -25.5 -101.5t-8.5 -115.5q0 -79 34.5 -122.5t96.5 -43.5h42q84 0 123 40t39 119v477h107v-474q0 -126 -64.5 -190t-200.5 -64h-62z" />
    <glyph glyph-name="uni06BB" unicode="&#x6bb;" horiz-adv-x="702" arabic-form="isolated" 
d="M290 -240q-40 0 -73.5 10.5t-60.5 31.5q-44 32 -67.5 86.5t-23.5 125.5q0 59 11.5 115.5t32.5 105.5h100q-17 -46 -25.5 -101.5t-8.5 -115.5q0 -79 34.5 -122.5t96.5 -43.5h42q84 0 123 40t39 119v477h107v-474q0 -126 -64.5 -190t-200.5 -64h-62zM219 539h15v182h47
v-124q12 26 31.5 42.5t47.5 16.5q39 0 57.5 -22.5t18.5 -68.5v-76h-217v50zM389 539v18q0 26 -8.5 39t-29.5 13q-22 0 -39.5 -15.5t-30.5 -44.5v-10h108z" />
    <glyph glyph-name="uni06BE" unicode="&#x6be;" horiz-adv-x="845" arabic-form="isolated" 
d="M65 0v92h106q-28 20 -45.5 56.5t-17.5 85.5q0 30 7.5 57t21.5 51q27 48 76 74.5t106 26.5q66 0 111.5 -25t69 -73t23.5 -118v-135h134v192q0 134 -62.5 199.5t-189.5 65.5q-57 0 -107 -8t-97 -24l-27 89q37 13 74 20.5t76 11t81 3.5q174 0 266 -90t92 -257v-294h-698z
M352 92h65v123q0 66 -24.5 97t-76.5 31q-45 0 -71 -30t-26 -83q0 -43 16 -74t45.5 -47.5t71.5 -16.5z" />
    <glyph glyph-name="uni06C0" unicode="&#x6c0;" horiz-adv-x="608" arabic-form="isolated" 
d="M303 -10q-114 0 -176 59.5t-62 171.5q0 38 7.5 72.5t23.5 67.5q31 64 86 100.5t124 36.5q32 0 61.5 -9t56.5 -27q37 -25 63.5 -63t41 -83.5t14.5 -94.5q0 -114 -60.5 -172.5t-179.5 -58.5zM304 82q65 0 97 35t32 105q0 56 -16 97t-45 64.5t-69 23.5q-36 0 -65.5 -24
t-47 -65t-17.5 -96q0 -70 32.5 -105t98.5 -35zM172 602l50 7q-18 11 -28 27.5t-10 37.5q0 43 28.5 66.5t76.5 23.5q42 0 71 -16l-17 -47q-11 7 -23.5 10t-27.5 3q-22 0 -36.5 -13t-14.5 -37q0 -17 8.5 -29t21.5 -18q22 5 41.5 7.5t35 4t23.5 1.5v-52q-19 -1 -44.5 -3.5
t-53.5 -6t-54.5 -7.5t-46.5 -7v48z" />
    <glyph glyph-name="uni06C1" unicode="&#x6c1;" horiz-adv-x="608" arabic-form="isolated" 
d="M303 -10q-114 0 -176 59.5t-62 171.5q0 38 7.5 72.5t23.5 67.5q31 64 86 100.5t124 36.5q32 0 61.5 -9t56.5 -27q37 -25 63.5 -63t41 -83.5t14.5 -94.5q0 -114 -60.5 -172.5t-179.5 -58.5zM304 82q65 0 97 35t32 105q0 56 -16 97t-45 64.5t-69 23.5q-36 0 -65.5 -24
t-47 -65t-17.5 -96q0 -70 32.5 -105t98.5 -35z" />
    <glyph glyph-name="uni06C5" unicode="&#x6c5;" horiz-adv-x="581" arabic-form="isolated" 
d="M389 92v304h-39q-81 0 -126 -43t-45 -121q0 -72 31 -106t94 -34h85zM257 -257q29 24 59.5 56.5t52 71.5t21.5 83v46h-98q-107 0 -165 59t-58 171q0 81 36 138.5t101.5 88.5t151.5 31h138v-526q0 -50 -19 -99t-57 -96.5t-98 -97.5zM363 -169l-39 14q-23 9 -39 13t-33 4
q-13 0 -28 -3t-30 -10l-29 52q25 19 45.5 27.5t42.5 8.5q13 0 32 -4.5t41 -13.5q23 -8 40 -13.5t25 -7.5z" />
    <glyph glyph-name="uni06C6" unicode="&#x6c6;" horiz-adv-x="583" arabic-form="isolated" 
d="M256 -240q-57 0 -103.5 12t-87.5 38l46 81q35 -18 70 -28.5t75 -10.5q65 0 100.5 34.5t35.5 92.5v21h-98q-107 0 -165 59t-58 171q0 81 36.5 138.5t101.5 88.5t151 31h138v-505q0 -106 -63.5 -164.5t-178.5 -58.5zM392 92v304h-40q-80 0 -125 -43t-45 -121
q0 -72 30.5 -106t93.5 -34h86zM478 782l-110 -199h-75l-111 199h85l63 -129l65 129h83z" />
    <glyph glyph-name="uni06C7" unicode="&#x6c7;" horiz-adv-x="583" arabic-form="isolated" 
d="M256 -240q-57 0 -103.5 12t-87.5 38l46 81q35 -18 70 -28.5t75 -10.5q65 0 100.5 34.5t35.5 92.5v21h-98q-107 0 -165 59t-58 171q0 81 36.5 138.5t101.5 88.5t151 31h138v-505q0 -106 -63.5 -164.5t-178.5 -58.5zM392 92v304h-40q-80 0 -125 -43t-45 -121
q0 -72 30.5 -106t93.5 -34h86zM271 562l-25 37q22 13 40.5 25t33.5 23.5t24 21.5q-32 11 -53 33.5t-21 47.5q0 31 24.5 54t56.5 23q29 0 46.5 -23.5t17.5 -58.5q0 -30 -9.5 -55t-28 -47t-45.5 -41.5t-61 -39.5z" />
    <glyph glyph-name="uni06C8" unicode="&#x6c8;" horiz-adv-x="583" arabic-form="isolated" 
d="M256 -240q-57 0 -103.5 12t-87.5 38l46 81q35 -18 70 -28.5t75 -10.5q65 0 100.5 34.5t35.5 92.5v21h-98q-107 0 -165 59t-58 171q0 81 36.5 138.5t101.5 88.5t151 31h138v-505q0 -106 -63.5 -164.5t-178.5 -58.5zM392 92v304h-40q-80 0 -125 -43t-45 -121
q0 -72 30.5 -106t93.5 -34h86zM268 767h60v-194h-60v194z" />
    <glyph glyph-name="uni06C9" unicode="&#x6c9;" horiz-adv-x="583" arabic-form="isolated" 
d="M256 -240q-57 0 -103.5 12t-87.5 38l46 81q35 -18 70 -28.5t75 -10.5q65 0 100.5 34.5t35.5 92.5v21h-98q-107 0 -165 59t-58 171q0 81 36.5 138.5t101.5 88.5t151 31h138v-505q0 -106 -63.5 -164.5t-178.5 -58.5zM392 92v304h-40q-80 0 -125 -43t-45 -121
q0 -72 30.5 -106t93.5 -34h86zM193 583l110 199h56l111 -199h-75l-63 129l-65 -129h-74z" />
    <glyph glyph-name="uni06CB" unicode="&#x6cb;" horiz-adv-x="583" arabic-form="isolated" 
d="M256 -240q-57 0 -103.5 12t-87.5 38l46 81q35 -18 70 -28.5t75 -10.5q65 0 100.5 34.5t35.5 92.5v21h-98q-107 0 -165 59t-58 171q0 81 36.5 138.5t101.5 88.5t151 31h138v-505q0 -106 -63.5 -164.5t-178.5 -58.5zM392 92v304h-40q-80 0 -125 -43t-45 -121
q0 -72 30.5 -106t93.5 -34h86zM334 742q-22 0 -37.5 13.5t-15.5 43.5t15.5 43.5t37.5 13.5q23 0 38.5 -14.5t15.5 -42.5t-15.5 -42.5t-38.5 -14.5zM249 598q-26 0 -43 16t-17 48q0 33 17 48.5t43 15.5q28 0 43.5 -17t15.5 -47q0 -29 -15.5 -46.5t-43.5 -17.5zM421 598
q-28 0 -44 17t-16 47q0 31 16 47.5t44 16.5t43.5 -17t15.5 -47q0 -29 -15.5 -46.5t-43.5 -17.5z" />
    <glyph glyph-name="uni06CC" unicode="&#x6cc;" horiz-adv-x="854" arabic-form="isolated" 
d="M266 -240q-62 0 -107 30t-69.5 83t-24.5 124q0 51 8.5 95t25.5 89h100q-15 -42 -20.5 -80.5t-5.5 -92.5q0 -47 15.5 -82t44 -54.5t66.5 -19.5h189q48 0 84 10t56 30t20 48q0 20 -14 38t-36.5 34t-49.5 32t-48.5 31t-39.5 28q-23 17 -37 33t-20.5 33.5t-6.5 36.5
q0 29 11.5 61.5t35.5 66.5q32 46 73 81.5t86.5 55.5t87.5 20q21 0 43 -5.5t43 -14.5t39 -22l-42 -81q-9 5 -24 10t-30 7.5t-28 2.5q-18 0 -38.5 -7t-40.5 -20q-30 -19 -53.5 -42.5t-37.5 -47.5t-14 -46q0 -11 11 -25t28.5 -28t40.5 -28q31 -19 56 -36.5t43 -33.5
q36 -32 54 -66t18 -68q0 -87 -70 -133.5t-200 -46.5h-222z" />
    <glyph glyph-name="uni06D0" unicode="&#x6d0;" horiz-adv-x="854" arabic-form="isolated" 
d="M266 -240q-62 0 -107 30t-69.5 83t-24.5 124q0 51 8.5 95t25.5 89h100q-15 -42 -20.5 -80.5t-5.5 -92.5q0 -47 15.5 -82t44 -54.5t66.5 -19.5h189q48 0 84 10t56 30t20 48q0 20 -14 38t-36.5 34t-49.5 32t-48.5 31t-39.5 28q-23 17 -37 33t-20.5 33.5t-6.5 36.5
q0 29 11.5 61.5t35.5 66.5q32 46 73 81.5t86.5 55.5t87.5 20q21 0 43 -5.5t43 -14.5t39 -22l-42 -81q-9 5 -24 10t-30 7.5t-28 2.5q-18 0 -38.5 -7t-40.5 -20q-30 -19 -53.5 -42.5t-37.5 -47.5t-14 -46q0 -11 11 -25t28.5 -28t40.5 -28q31 -19 56 -36.5t43 -33.5
q36 -32 54 -66t18 -68q0 -87 -70 -133.5t-200 -46.5h-222zM391 -644q-27 0 -43.5 16.5t-16.5 47.5t16 47.5t44 16.5t43.5 -17t15.5 -47q0 -29 -15.5 -46.5t-43.5 -17.5zM391 -461q-27 0 -43.5 16.5t-16.5 47.5t16 47.5t44 16.5t43.5 -17.5t15.5 -46.5q0 -30 -15.5 -47
t-43.5 -17z" />
    <glyph glyph-name="uni06D2" unicode="&#x6d2;" horiz-adv-x="577" arabic-form="isolated" 
d="M216 -215q-82 0 -126.5 36t-44.5 103q0 21 4.5 39t14.5 33q14 23 37 41.5t58.5 37t86.5 39.5q38 16 64 28.5t40 22.5q27 19 37.5 43t10.5 69v38h109v-39q0 -60 -16 -98q-10 -26 -29 -46.5t-52.5 -40.5t-90.5 -42q-42 -17 -70.5 -29.5t-42.5 -20.5q-29 -18 -40.5 -33.5
t-11.5 -39.5q0 -22 16 -35.5t44 -13.5h468v-92h-466z" />
    <glyph glyph-name="uni06D3" unicode="&#x6d3;" horiz-adv-x="577" arabic-form="isolated" 
d="M216 -215q-82 0 -126.5 36t-44.5 103q0 21 4.5 39t14.5 33q14 23 37 41.5t58.5 37t86.5 39.5q38 16 64 28.5t40 22.5q27 19 37.5 43t10.5 69v38h109v-39q0 -60 -16 -98q-10 -26 -29 -46.5t-52.5 -40.5t-90.5 -42q-42 -17 -70.5 -29.5t-42.5 -20.5q-29 -18 -40.5 -33.5
t-11.5 -39.5q0 -22 16 -35.5t44 -13.5h468v-92h-466zM200 442l50 7q-18 11 -28 27.5t-10 37.5q0 43 28.5 66.5t76.5 23.5q42 0 71 -16l-17 -47q-11 7 -23.5 10t-27.5 3q-22 0 -36.5 -13t-14.5 -37q0 -17 8.5 -29t21.5 -18q22 5 41.5 7.5t35 4t23.5 1.5v-52
q-19 -1 -44.5 -3.5t-53.5 -6t-54.5 -7.5t-46.5 -7v48z" />
    <glyph glyph-name="uni06D5" unicode="&#x647;" horiz-adv-x="608" arabic-form="isolated" 
d="M303 -10q-114 0 -176 59.5t-62 171.5q0 38 7.5 72.5t23.5 67.5q31 64 86 100.5t124 36.5q32 0 61.5 -9t56.5 -27q37 -25 63.5 -63t41 -83.5t14.5 -94.5q0 -114 -60.5 -172.5t-179.5 -58.5zM304 82q65 0 97 35t32 105q0 56 -16 97t-45 64.5t-69 23.5q-36 0 -65.5 -24
t-47 -65t-17.5 -96q0 -70 32.5 -105t98.5 -35z" />
    <glyph glyph-name="uniFB51" unicode="&#x671;" horiz-adv-x="334" arabic-form="final" 
d="M339 92q5 0 5 -4v-83q0 -5 -5 -5h-239v760h109v-668h130zM16 900h46q17 51 45.5 76.5t66.5 25.5q41 0 63.5 -27t22.5 -75v-49h-244v49zM209 900q0 28 -9 40t-27 12t-33 -14.5t-23 -37.5h92z" />
    <glyph glyph-name="uniFB53" unicode="&#x67b;" horiz-adv-x="850" arabic-form="final" 
d="M256 0q-88 0 -139.5 52.5t-51.5 143.5q0 24 3.5 51.5t10 53.5t13.5 46h98q-7 -34 -11 -69t-4 -70q0 -52 26 -84t68 -32h347v396h107v-396h132q5 0 5 -4v-83q0 -5 -5 -5h-599zM391 -400q-27 0 -43.5 16.5t-16.5 47.5t16 47.5t44 16.5t43.5 -17t15.5 -47q0 -29 -15.5 -46.5
t-43.5 -17.5zM391 -217q-27 0 -43.5 16.5t-16.5 47.5t16 47.5t44 16.5t43.5 -17.5t15.5 -46.5q0 -30 -15.5 -47t-43.5 -17z" />
    <glyph glyph-name="uniFB54" unicode="&#x67b;" horiz-adv-x="319" arabic-form="initial" 
d="M-5 0q-5 0 -5 5v83q0 4 5 4h130v396h109v-488h-239zM127 -400q-27 0 -43.5 16.5t-16.5 47.5t16 47.5t44 16.5t43.5 -17t15.5 -47q0 -29 -15.5 -46.5t-43.5 -17.5zM127 -217q-27 0 -43.5 16.5t-16.5 47.5t16 47.5t44 16.5t43.5 -17.5t15.5 -46.5q0 -30 -15.5 -47
t-43.5 -17z" />
    <glyph glyph-name="uniFB55" unicode="&#x67b;" horiz-adv-x="359" arabic-form="medial" 
d="M-5 0q-5 0 -5 5v83q0 4 5 4h130v396h109v-396h130q5 0 5 -4v-83q0 -5 -5 -5h-369zM166 -400q-27 0 -43.5 16.5t-16.5 47.5t16 47.5t44 16.5t43.5 -17t15.5 -47q0 -29 -15.5 -46.5t-43.5 -17.5zM166 -217q-27 0 -43.5 16.5t-16.5 47.5t16 47.5t44 16.5t43.5 -17.5
t15.5 -46.5q0 -30 -15.5 -47t-43.5 -17z" />
    <glyph glyph-name="uniFB57" unicode="&#x67e;" horiz-adv-x="850" arabic-form="final" 
d="M256 0q-88 0 -139.5 52.5t-51.5 143.5q0 24 3.5 51.5t10 53.5t13.5 46h98q-7 -34 -11 -69t-4 -70q0 -52 26 -84t68 -32h347v396h107v-396h132q5 0 5 -4v-83q0 -5 -5 -5h-599zM396 -406q-22 0 -37.5 13.5t-15.5 43.5t15.5 43.5t37.5 13.5q23 0 38.5 -14.5t15.5 -42.5
q0 -29 -15.5 -43t-38.5 -14zM311 -283q-26 0 -43 16t-17 48t17 48t43 16q27 0 43 -17t16 -47q0 -29 -15.5 -46.5t-43.5 -17.5zM483 -283q-28 0 -44 16.5t-16 47.5q0 30 16 47t44 17q27 0 43 -17t16 -47q0 -29 -15.5 -46.5t-43.5 -17.5z" />
    <glyph glyph-name="uniFB58" unicode="&#x67e;" horiz-adv-x="384" arabic-form="initial" 
d="M-5 0q-5 0 -5 5v83q0 4 5 4h186v396h109v-488h-295zM188 -406q-22 0 -37.5 13.5t-15.5 43.5t15.5 43.5t37.5 13.5q23 0 38.5 -14.5t15.5 -42.5q0 -29 -15.5 -43t-38.5 -14zM103 -283q-26 0 -43 16t-17 48t17 48t43 16q27 0 43 -17t16 -47q0 -29 -15.5 -46.5t-43.5 -17.5z
M275 -283q-28 0 -44 16.5t-16 47.5q0 30 16 47t44 17q27 0 43 -17t16 -47q0 -29 -15.5 -46.5t-43.5 -17.5z" />
    <glyph glyph-name="uniFB59" unicode="&#x67e;" horiz-adv-x="409" arabic-form="medial" 
d="M-5 0q-5 0 -5 5v83q0 4 5 4h160v396h109v-396h150q5 0 5 -4v-83q0 -5 -5 -5h-419zM199 -406q-22 0 -37.5 13.5t-15.5 43.5t15.5 43.5t37.5 13.5q23 0 38.5 -14.5t15.5 -42.5q0 -29 -15.5 -43t-38.5 -14zM114 -283q-26 0 -43 16t-17 48t17 48t43 16q27 0 43 -17t16 -47
q0 -29 -15.5 -46.5t-43.5 -17.5zM286 -283q-28 0 -44 16.5t-16 47.5q0 30 16 47t44 17q27 0 43 -17t16 -47q0 -29 -15.5 -46.5t-43.5 -17.5z" />
    <glyph glyph-name="uniFB5B" unicode="&#x680;" horiz-adv-x="850" arabic-form="final" 
d="M256 0q-88 0 -139.5 52.5t-51.5 143.5q0 24 3.5 51.5t10 53.5t13.5 46h98q-7 -34 -11 -69t-4 -70q0 -52 26 -84t68 -32h347v396h107v-396h132q5 0 5 -4v-83q0 -5 -5 -5h-599zM313 -405q-24 0 -39 14.5t-15 42.5q0 30 16 44t38 14q23 0 38 -14t15 -44q0 -27 -14 -42
t-39 -15zM467 -405q-22 0 -37.5 13.5t-15.5 43.5q0 31 15.5 44.5t37.5 13.5q24 0 39 -15t15 -43q0 -27 -14.5 -42t-39.5 -15zM313 -240q-24 0 -39 14.5t-15 42.5q0 30 16 44t38 14q23 0 38 -14t15 -44q0 -27 -14 -42t-39 -15zM467 -240q-22 0 -37.5 13.5t-15.5 43.5
q0 31 15.5 44.5t37.5 13.5q24 0 39 -15t15 -43q0 -27 -14.5 -42t-39.5 -15z" />
    <glyph glyph-name="uniFB5C" unicode="&#x680;" horiz-adv-x="384" arabic-form="initial" 
d="M-5 0q-5 0 -5 5v83q0 4 5 4h186v396h109v-488h-295zM105 -405q-24 0 -39 14.5t-15 42.5q0 30 16 44t38 14q23 0 38 -14t15 -44q0 -27 -14 -42t-39 -15zM259 -405q-22 0 -37.5 13.5t-15.5 43.5q0 31 15.5 44.5t37.5 13.5q24 0 39 -15t15 -43q0 -27 -14.5 -42t-39.5 -15z
M105 -240q-24 0 -39 14.5t-15 42.5q0 30 16 44t38 14q23 0 38 -14t15 -44q0 -27 -14 -42t-39 -15zM259 -240q-22 0 -37.5 13.5t-15.5 43.5q0 31 15.5 44.5t37.5 13.5q24 0 39 -15t15 -43q0 -27 -14.5 -42t-39.5 -15z" />
    <glyph glyph-name="uniFB5D" unicode="&#x680;" horiz-adv-x="409" arabic-form="medial" 
d="M-5 0q-5 0 -5 5v83q0 4 5 4h160v396h109v-396h150q5 0 5 -4v-83q0 -5 -5 -5h-419zM116 -405q-24 0 -39 14.5t-15 42.5q0 30 16 44t38 14q23 0 38 -14t15 -44q0 -27 -14 -42t-39 -15zM270 -405q-22 0 -37.5 13.5t-15.5 43.5q0 31 15.5 44.5t37.5 13.5q24 0 39 -15t15 -43
q0 -27 -14.5 -42t-39.5 -15zM116 -240q-24 0 -39 14.5t-15 42.5q0 30 16 44t38 14q23 0 38 -14t15 -44q0 -27 -14 -42t-39 -15zM270 -240q-22 0 -37.5 13.5t-15.5 43.5q0 31 15.5 44.5t37.5 13.5q24 0 39 -15t15 -43q0 -27 -14.5 -42t-39.5 -15z" />
    <glyph glyph-name="uniFB5F" unicode="&#x67a;" horiz-adv-x="850" arabic-form="final" 
d="M256 0q-88 0 -139.5 52.5t-51.5 143.5q0 24 3.5 51.5t10 53.5t13.5 46h98q-7 -34 -11 -69t-4 -70q0 -52 26 -84t68 -32h347v396h107v-396h132q5 0 5 -4v-83q0 -5 -5 -5h-599zM396 356q-27 0 -43.5 16.5t-16.5 47.5t16 47.5t44 16.5t43.5 -17t15.5 -47q0 -29 -15.5 -46.5
t-43.5 -17.5zM396 539q-27 0 -43.5 16.5t-16.5 47.5t16 47.5t44 16.5t43.5 -17.5t15.5 -46.5t-15.5 -46.5t-43.5 -17.5z" />
    <glyph glyph-name="uniFB60" unicode="&#x67a;" horiz-adv-x="384" arabic-form="initial" 
d="M-5 0q-5 0 -5 5v83q0 4 5 4h186v396h109v-488h-295zM203 578q-27 0 -43.5 16.5t-16.5 47.5t16 47.5t44 16.5t43.5 -17t15.5 -47q0 -29 -15.5 -46.5t-43.5 -17.5zM203 761q-27 0 -43.5 16.5t-16.5 47.5t16 47.5t44 16.5t43.5 -17.5t15.5 -46.5t-15.5 -46.5t-43.5 -17.5z
" />
    <glyph glyph-name="uniFB61" unicode="&#x67a;" horiz-adv-x="409" arabic-form="medial" 
d="M-5 0q-5 0 -5 5v83q0 4 5 4h160v396h109v-396h150q5 0 5 -4v-83q0 -5 -5 -5h-419zM175 598q-27 0 -43.5 16.5t-16.5 47.5t16 47.5t44 16.5t43.5 -17t15.5 -47q0 -29 -15.5 -46.5t-43.5 -17.5zM175 781q-27 0 -43.5 16.5t-16.5 47.5t16 47.5t44 16.5t43.5 -17.5
t15.5 -46.5t-15.5 -46.5t-43.5 -17.5z" />
    <glyph glyph-name="uniFB63" unicode="&#x67f;" horiz-adv-x="850" arabic-form="final" 
d="M256 0q-88 0 -139.5 52.5t-51.5 143.5q0 24 3.5 51.5t10 53.5t13.5 46h98q-7 -34 -11 -69t-4 -70q0 -52 26 -84t68 -32h347v396h107v-396h132q5 0 5 -4v-83q0 -5 -5 -5h-599zM321 355q-24 0 -39 14.5t-15 42.5q0 30 16 44t38 14q23 0 38 -14t15 -44q0 -27 -14 -42
t-39 -15zM475 355q-22 0 -37.5 13.5t-15.5 43.5q0 31 15.5 44.5t37.5 13.5q24 0 39 -15t15 -43q0 -27 -14.5 -42t-39.5 -15zM321 520q-24 0 -39 14.5t-15 42.5q0 30 16 44t38 14q23 0 38 -14t15 -44q0 -27 -14 -42t-39 -15zM475 520q-22 0 -37.5 13.5t-15.5 43.5
q0 31 15.5 44.5t37.5 13.5q24 0 39 -15t15 -43q0 -27 -14.5 -42t-39.5 -15z" />
    <glyph glyph-name="uniFB64" unicode="&#x67f;" horiz-adv-x="384" arabic-form="initial" 
d="M-5 0q-5 0 -5 5v83q0 4 5 4h186v396h109v-488h-295zM127 577q-24 0 -39 14.5t-15 42.5q0 30 16 44t38 14q23 0 38 -14t15 -44q0 -27 -14 -42t-39 -15zM281 577q-22 0 -37.5 13.5t-15.5 43.5q0 31 15.5 44.5t37.5 13.5q24 0 39 -15t15 -43q0 -27 -14.5 -42t-39.5 -15z
M127 742q-24 0 -39 14.5t-15 42.5q0 30 16 44t38 14q23 0 38 -14t15 -44q0 -27 -14 -42t-39 -15zM281 742q-22 0 -37.5 13.5t-15.5 43.5q0 31 15.5 44.5t37.5 13.5q24 0 39 -15t15 -43q0 -27 -14.5 -42t-39.5 -15z" />
    <glyph glyph-name="uniFB65" unicode="&#x67f;" horiz-adv-x="409" arabic-form="medial" 
d="M-5 0q-5 0 -5 5v83q0 4 5 4h160v396h109v-396h150q5 0 5 -4v-83q0 -5 -5 -5h-419zM99 597q-24 0 -39 14.5t-15 42.5q0 30 16 44t38 14q23 0 38 -14t15 -44q0 -27 -14 -42t-39 -15zM253 597q-22 0 -37.5 13.5t-15.5 43.5q0 31 15.5 44.5t37.5 13.5q24 0 39 -15t15 -43
q0 -27 -14.5 -42t-39.5 -15zM99 762q-24 0 -39 14.5t-15 42.5q0 30 16 44t38 14q23 0 38 -14t15 -44q0 -27 -14 -42t-39 -15zM253 762q-22 0 -37.5 13.5t-15.5 43.5q0 31 15.5 44.5t37.5 13.5q24 0 39 -15t15 -43q0 -27 -14.5 -42t-39.5 -15z" />
    <glyph glyph-name="uniFB67" unicode="&#x679;" horiz-adv-x="850" arabic-form="final" 
d="M256 0q-88 0 -139.5 52.5t-51.5 143.5q0 24 3.5 51.5t10 53.5t13.5 46h98q-7 -34 -11 -69t-4 -70q0 -52 26 -84t68 -32h347v396h107v-396h132q5 0 5 -4v-83q0 -5 -5 -5h-599zM286 434h15v182h47v-124q12 26 31.5 42.5t47.5 16.5q39 0 57.5 -22.5t18.5 -68.5v-76h-217v50z
M456 434v18q0 26 -8.5 39t-29.5 13q-22 0 -39.5 -15.5t-30.5 -44.5v-10h108z" />
    <glyph glyph-name="uniFB68" unicode="&#x6bb;" horiz-adv-x="319" arabic-form="initial" 
d="M-5 0q-5 0 -5 5v83q0 4 5 4h130v396h109v-488h-239zM36 657h15v182h47v-124q12 26 31.5 42.5t47.5 16.5q39 0 57.5 -22.5t18.5 -68.5v-76h-217v50zM206 657v18q0 26 -8.5 39t-29.5 13q-22 0 -39.5 -15.5t-30.5 -44.5v-10h108z" />
    <glyph glyph-name="uniFB69" unicode="&#x6bb;" horiz-adv-x="409" arabic-form="medial" 
d="M-5 0q-5 0 -5 5v83q0 4 5 4h160v396h109v-396h150q5 0 5 -4v-83q0 -5 -5 -5h-419zM65 677h15v182h47v-124q12 26 31.5 42.5t47.5 16.5q39 0 57.5 -22.5t18.5 -68.5v-76h-217v50zM235 677v18q0 26 -8.5 39t-29.5 13q-22 0 -39.5 -15.5t-30.5 -44.5v-10h108z" />
    <glyph glyph-name="uniFB6B" unicode="&#x6a4;" horiz-adv-x="1058" arabic-form="final" 
d="M256 0q-88 0 -139.5 52.5t-51.5 143.5q0 24 3.5 51.5t10 53.5t13.5 46h98q-7 -34 -11 -69t-4 -70q0 -52 26 -84t68 -32h303q-15 19 -26.5 42t-18 49.5t-6.5 53.5q0 77 34 133.5t97 87t149 30.5h147v-396h115q5 0 5 -4v-83q0 -5 -5 -5h-807zM770 92h72v304h-38
q-54 0 -93 -19t-59 -55t-20 -87q0 -47 15.5 -79t46.5 -48t76 -16zM735 745q-22 0 -37.5 13.5t-15.5 43.5t15.5 43.5t37.5 13.5q23 0 38.5 -14.5t15.5 -42.5t-15.5 -42.5t-38.5 -14.5zM650 601q-26 0 -43 16t-17 48q0 33 17 48.5t43 15.5q28 0 43.5 -17t15.5 -47
q0 -29 -15.5 -46.5t-43.5 -17.5zM822 601q-28 0 -44 17t-16 47q0 31 16 47.5t44 16.5t43.5 -17t15.5 -47q0 -29 -15.5 -46.5t-43.5 -17.5z" />
    <glyph glyph-name="uniFB6C" unicode="&#x6a4;" horiz-adv-x="605" arabic-form="initial" 
d="M-5 0q-5 0 -5 5v83q0 4 5 4h149q-16 20 -27.5 43.5t-17.5 49.5t-6 52q0 77 34 133.5t97 87t149 30.5h147v-488h-525zM342 92h72v304h-38q-54 0 -93 -19t-59 -55t-20 -87q0 -47 15.5 -79t46.5 -48t76 -16zM308 742q-22 0 -37.5 13.5t-15.5 43.5t15.5 43.5t37.5 13.5
q23 0 38.5 -14.5t15.5 -42.5t-15.5 -42.5t-38.5 -14.5zM223 598q-26 0 -43 16t-17 48q0 33 17 48.5t43 15.5q28 0 43.5 -17t15.5 -47q0 -29 -15.5 -46.5t-43.5 -17.5zM395 598q-28 0 -44 17t-16 47q0 31 16 47.5t44 16.5t43.5 -17t15.5 -47q0 -29 -15.5 -46.5t-43.5 -17.5z
" />
    <glyph glyph-name="uniFB6D" unicode="&#x6a4;" horiz-adv-x="627" arabic-form="medial" 
d="M632 92q5 0 5 -5v-83q0 -4 -5 -4h-637q-5 0 -5 5v83q0 4 5 4h149q-16 20 -27.5 43.5t-17.5 49.5t-6 52q0 78 34 134t97 86.5t149 30.5h147v-396h112zM414 92v304h-38q-54 0 -93 -19t-59 -55t-20 -88q0 -46 15.5 -78t46.5 -48t76 -16h72zM308 742q-22 0 -37.5 13.5
t-15.5 43.5t15.5 43.5t37.5 13.5q23 0 38.5 -14.5t15.5 -42.5t-15.5 -42.5t-38.5 -14.5zM223 598q-26 0 -43 16t-17 48q0 33 17 48.5t43 15.5q28 0 43.5 -17t15.5 -47q0 -29 -15.5 -46.5t-43.5 -17.5zM395 598q-28 0 -44 17t-16 47q0 31 16 47.5t44 16.5t43.5 -17t15.5 -47
q0 -29 -15.5 -46.5t-43.5 -17.5z" />
    <glyph glyph-name="uniFB6F" unicode="&#x6a6;" horiz-adv-x="1058" arabic-form="final" 
d="M256 0q-88 0 -139.5 52.5t-51.5 143.5q0 24 3.5 51.5t10 53.5t13.5 46h98q-7 -34 -11 -69t-4 -70q0 -52 26 -84t68 -32h303q-15 19 -26.5 42t-18 49.5t-6.5 53.5q0 77 34 133.5t97 87t149 30.5h147v-396h115q5 0 5 -4v-83q0 -5 -5 -5h-807zM770 92h72v304h-38
q-54 0 -93 -19t-59 -55t-20 -87q0 -47 15.5 -79t46.5 -48t76 -16zM656 590q-24 0 -39 14.5t-15 42.5q0 30 16 44t38 14q23 0 38 -14t15 -44q0 -27 -14 -42t-39 -15zM810 590q-22 0 -37.5 13.5t-15.5 43.5q0 31 15.5 44.5t37.5 13.5q24 0 39 -15t15 -43q0 -27 -14.5 -42
t-39.5 -15zM656 755q-24 0 -39 14.5t-15 42.5q0 30 16 44t38 14q23 0 38 -14t15 -44q0 -27 -14 -42t-39 -15zM810 755q-22 0 -37.5 13.5t-15.5 43.5q0 31 15.5 44.5t37.5 13.5q24 0 39 -15t15 -43q0 -27 -14.5 -42t-39.5 -15z" />
    <glyph glyph-name="uniFB70" unicode="&#x6a6;" horiz-adv-x="605" arabic-form="initial" 
d="M-5 0q-5 0 -5 5v83q0 4 5 4h149q-16 20 -27.5 43.5t-17.5 49.5t-6 52q0 77 34 133.5t97 87t149 30.5h147v-488h-525zM342 92h72v304h-38q-54 0 -93 -19t-59 -55t-20 -87q0 -47 15.5 -79t46.5 -48t76 -16zM230 587q-24 0 -39 14.5t-15 42.5q0 30 16 44t38 14q23 0 38 -14
t15 -44q0 -27 -14 -42t-39 -15zM384 587q-22 0 -37.5 13.5t-15.5 43.5q0 31 15.5 44.5t37.5 13.5q24 0 39 -15t15 -43q0 -27 -14.5 -42t-39.5 -15zM230 752q-24 0 -39 14.5t-15 42.5q0 30 16 44t38 14q23 0 38 -14t15 -44q0 -27 -14 -42t-39 -15zM384 752q-22 0 -37.5 13.5
t-15.5 43.5q0 31 15.5 44.5t37.5 13.5q24 0 39 -15t15 -43q0 -27 -14.5 -42t-39.5 -15z" />
    <glyph glyph-name="uniFB71" unicode="&#x6a6;" horiz-adv-x="627" arabic-form="medial" 
d="M632 92q5 0 5 -5v-83q0 -4 -5 -4h-637q-5 0 -5 5v83q0 4 5 4h149q-16 20 -27.5 43.5t-17.5 49.5t-6 52q0 78 34 134t97 86.5t149 30.5h147v-396h112zM414 92v304h-38q-54 0 -93 -19t-59 -55t-20 -88q0 -46 15.5 -78t46.5 -48t76 -16h72zM230 587q-24 0 -39 14.5t-15 42.5
q0 30 16 44t38 14q23 0 38 -14t15 -44q0 -27 -14 -42t-39 -15zM384 587q-22 0 -37.5 13.5t-15.5 43.5q0 31 15.5 44.5t37.5 13.5q24 0 39 -15t15 -43q0 -27 -14.5 -42t-39.5 -15zM230 752q-24 0 -39 14.5t-15 42.5q0 30 16 44t38 14q23 0 38 -14t15 -44q0 -27 -14 -42
t-39 -15zM384 752q-22 0 -37.5 13.5t-15.5 43.5q0 31 15.5 44.5t37.5 13.5q24 0 39 -15t15 -43q0 -27 -14.5 -42t-39.5 -15z" />
    <glyph glyph-name="uniFB73" unicode="&#x684;" horiz-adv-x="624" arabic-form="final" 
d="M260 -323q-66 0 -114.5 24t-74.5 68.5t-26 105.5q0 39 13.5 73.5t39.5 64.5q26 32 67.5 59.5t103 53.5t148.5 50q-5 18 -10.5 40t-10.5 47q-9 49 -27.5 80.5t-47 47t-67.5 15.5q-35 0 -81 -13.5t-86 -34.5l-41 82q28 18 64.5 30.5t76.5 20t78 7.5q65 0 111.5 -22.5
t75 -68t39.5 -114.5q8 -45 17 -77.5t18 -52.5q16 -35 40 -53t58 -18h5q5 0 5 -4v-83q0 -5 -5 -5h-5q-39 0 -71 9.5t-56 31t-44 54.5q-60 -16 -105 -31.5t-75 -30.5q-60 -30 -89.5 -67t-29.5 -83q0 -55 33.5 -84.5t94.5 -29.5zM454 -344q-27 0 -43.5 16.5t-16.5 47.5t16 47.5
t44 16.5t43.5 -17t15.5 -47q0 -29 -15.5 -46.5t-43.5 -17.5zM454 -161q-27 0 -43.5 16.5t-16.5 47.5t16 47.5t44 16.5t43.5 -17.5t15.5 -46.5t-15.5 -46.5t-43.5 -17.5z" />
    <glyph glyph-name="uniFB74" unicode="&#x684;" horiz-adv-x="591" arabic-form="initial" 
d="M-5 0q-5 0 -5 5v83q0 4 5 4h420q-19 19 -34 61t-28 109q-9 54 -24 85.5t-38.5 45t-61.5 13.5q-34 0 -68.5 -9.5t-72.5 -29.5l-38 83q43 26 90 37t100 11q30 0 55 -4.5t45 -13.5q46 -21 73 -63.5t40 -123.5q9 -55 20 -95t24.5 -66t28.5 -41v-91h-531zM244 -400
q-27 0 -43.5 16.5t-16.5 47.5t16 47.5t44 16.5t43.5 -17t15.5 -47q0 -29 -15.5 -46.5t-43.5 -17.5zM244 -217q-27 0 -43.5 16.5t-16.5 47.5t16 47.5t44 16.5t43.5 -17.5t15.5 -46.5q0 -30 -15.5 -47t-43.5 -17z" />
    <glyph glyph-name="uniFB75" unicode="&#x684;" horiz-adv-x="585" arabic-form="medial" 
d="M-5 0q-5 0 -5 5v83q0 4 5 4h421q-13 13 -24.5 36t-21 56.5t-17.5 77.5q-7 39 -17 67t-24.5 45t-35 24.5t-47.5 7.5q-34 0 -68.5 -9.5t-72.5 -29.5l-38 83q43 26 90 37t98 11q32 0 57.5 -4.5t45.5 -14.5q30 -14 52 -37.5t36.5 -59.5t23.5 -89q8 -51 18.5 -90.5t24 -67
t28.5 -43.5h66q5 0 5 -4v-83q0 -5 -5 -5h-595zM244 -400q-27 0 -43.5 16.5t-16.5 47.5t16 47.5t44 16.5t43.5 -17t15.5 -47q0 -29 -15.5 -46.5t-43.5 -17.5zM244 -217q-27 0 -43.5 16.5t-16.5 47.5t16 47.5t44 16.5t43.5 -17.5t15.5 -46.5q0 -30 -15.5 -47t-43.5 -17z" />
    <glyph glyph-name="uniFB77" unicode="&#x683;" horiz-adv-x="624" arabic-form="final" 
d="M260 -323q-66 0 -114.5 24t-74.5 68.5t-26 105.5q0 39 13.5 73.5t39.5 64.5q26 32 67.5 59.5t103 53.5t148.5 50q-5 18 -10.5 40t-10.5 47q-9 49 -27.5 80.5t-47 47t-67.5 15.5q-35 0 -81 -13.5t-86 -34.5l-41 82q28 18 64.5 30.5t76.5 20t78 7.5q65 0 111.5 -22.5
t75 -68t39.5 -114.5q8 -45 17 -77.5t18 -52.5q16 -35 40 -53t58 -18h5q5 0 5 -4v-83q0 -5 -5 -5h-5q-39 0 -71 9.5t-56 31t-44 54.5q-60 -16 -105 -31.5t-75 -30.5q-60 -30 -89.5 -67t-29.5 -83q0 -55 33.5 -84.5t94.5 -29.5zM368 -253q-26 0 -43 16t-17 48q0 33 17 48.5
t43 15.5q28 0 43.5 -16.5t15.5 -47.5q0 -30 -16 -47t-43 -17zM540 -253q-28 0 -44 17t-16 47q0 31 16 47.5t44 16.5t43.5 -17t15.5 -47q0 -29 -15.5 -46.5t-43.5 -17.5z" />
    <glyph glyph-name="uniFB78" unicode="&#x683;" horiz-adv-x="591" arabic-form="initial" 
d="M-5 0q-5 0 -5 5v83q0 4 5 4h420q-19 19 -34 61t-28 109q-9 54 -24 85.5t-38.5 45t-61.5 13.5q-34 0 -68.5 -9.5t-72.5 -29.5l-38 83q43 26 90 37t100 11q30 0 55 -4.5t45 -13.5q46 -21 73 -63.5t40 -123.5q9 -55 20 -95t24.5 -66t28.5 -41v-91h-531zM158 -211
q-26 0 -43 16t-17 48q0 33 17 48.5t43 15.5q27 0 43 -16.5t16 -47.5q0 -30 -16 -47t-43 -17zM330 -211q-28 0 -44 17t-16 47q0 31 16 47.5t44 16.5t43.5 -17.5t15.5 -46.5t-15.5 -46.5t-43.5 -17.5z" />
    <glyph glyph-name="uniFB79" unicode="&#x683;" horiz-adv-x="585" arabic-form="medial" 
d="M-5 0q-5 0 -5 5v83q0 4 5 4h421q-13 13 -24.5 36t-21 56.5t-17.5 77.5q-7 39 -17 67t-24.5 45t-35 24.5t-47.5 7.5q-34 0 -68.5 -9.5t-72.5 -29.5l-38 83q43 26 90 37t98 11q32 0 57.5 -4.5t45.5 -14.5q30 -14 52 -37.5t36.5 -59.5t23.5 -89q8 -51 18.5 -90.5t24 -67
t28.5 -43.5h66q5 0 5 -4v-83q0 -5 -5 -5h-595zM158 -211q-26 0 -43 16t-17 48q0 33 17 48.5t43 15.5q27 0 43 -16.5t16 -47.5q0 -30 -16 -47t-43 -17zM330 -211q-28 0 -44 17t-16 47q0 31 16 47.5t44 16.5t43.5 -17.5t15.5 -46.5t-15.5 -46.5t-43.5 -17.5z" />
    <glyph glyph-name="uniFB7B" unicode="&#x686;" horiz-adv-x="624" arabic-form="final" 
d="M260 -323q-66 0 -114.5 24t-74.5 68.5t-26 105.5q0 39 13.5 73.5t39.5 64.5q26 32 67.5 59.5t103 53.5t148.5 50q-5 18 -10.5 40t-10.5 47q-9 49 -27.5 80.5t-47 47t-67.5 15.5q-35 0 -81 -13.5t-86 -34.5l-41 82q28 18 64.5 30.5t76.5 20t78 7.5q65 0 111.5 -22.5
t75 -68t39.5 -114.5q8 -45 17 -77.5t18 -52.5q16 -35 40 -53t58 -18h5q5 0 5 -4v-83q0 -5 -5 -5h-5q-39 0 -71 9.5t-56 31t-44 54.5q-60 -16 -105 -31.5t-75 -30.5q-60 -30 -89.5 -67t-29.5 -83q0 -55 33.5 -84.5t94.5 -29.5zM454 -204q22 0 37.5 -13.5t15.5 -43.5
t-15.5 -43.5t-37.5 -13.5q-23 0 -38.5 14.5t-15.5 42.5q0 29 15.5 43t38.5 14zM539 -60q26 0 43 -15.5t17 -48.5q0 -32 -17 -48t-43 -16q-28 0 -43.5 17.5t-15.5 46.5q0 30 15.5 47t43.5 17zM367 -60q28 0 44 -16.5t16 -47.5q0 -30 -16 -47t-44 -17q-27 0 -43 16.5t-16 47.5
q0 30 16 47t43 17z" />
    <glyph glyph-name="uniFB7C" unicode="&#x686;" horiz-adv-x="591" arabic-form="initial" 
d="M-5 0q-5 0 -5 5v83q0 4 5 4h420q-19 19 -34 61t-28 109q-9 54 -24 85.5t-38.5 45t-61.5 13.5q-34 0 -68.5 -9.5t-72.5 -29.5l-38 83q43 26 90 37t100 11q30 0 55 -4.5t45 -13.5q46 -21 73 -63.5t40 -123.5q9 -55 20 -95t24.5 -66t28.5 -41v-91h-531zM249 -406
q-22 0 -37.5 13.5t-15.5 43.5t15.5 43.5t37.5 13.5q23 0 38.5 -14.5t15.5 -42.5q0 -29 -15.5 -43t-38.5 -14zM164 -283q-26 0 -43 16t-17 48t17 48t43 16q27 0 43 -17t16 -47q0 -29 -15.5 -46.5t-43.5 -17.5zM336 -283q-28 0 -44 16.5t-16 47.5q0 30 16 47t44 17
q27 0 43 -17t16 -47q0 -29 -15.5 -46.5t-43.5 -17.5z" />
    <glyph glyph-name="uniFB7D" unicode="&#x686;" horiz-adv-x="585" arabic-form="medial" 
d="M-5 0q-5 0 -5 5v83q0 4 5 4h421q-13 13 -24.5 36t-21 56.5t-17.5 77.5q-7 39 -17 67t-24.5 45t-35 24.5t-47.5 7.5q-34 0 -68.5 -9.5t-72.5 -29.5l-38 83q43 26 90 37t98 11q32 0 57.5 -4.5t45.5 -14.5q30 -14 52 -37.5t36.5 -59.5t23.5 -89q8 -51 18.5 -90.5t24 -67
t28.5 -43.5h66q5 0 5 -4v-83q0 -5 -5 -5h-595zM249 -406q-22 0 -37.5 13.5t-15.5 43.5t15.5 43.5t37.5 13.5q23 0 38.5 -14.5t15.5 -42.5q0 -29 -15.5 -43t-38.5 -14zM164 -283q-26 0 -43 16t-17 48t17 48t43 16q27 0 43 -17t16 -47q0 -29 -15.5 -46.5t-43.5 -17.5z
M336 -283q-28 0 -44 16.5t-16 47.5q0 30 16 47t44 17q27 0 43 -17t16 -47q0 -29 -15.5 -46.5t-43.5 -17.5z" />
    <glyph glyph-name="uniFB7F" unicode="&#x687;" horiz-adv-x="624" arabic-form="final" 
d="M260 -323q-66 0 -114.5 24t-74.5 68.5t-26 105.5q0 39 13.5 73.5t39.5 64.5q26 32 67.5 59.5t103 53.5t148.5 50q-5 18 -10.5 40t-10.5 47q-9 49 -27.5 80.5t-47 47t-67.5 15.5q-35 0 -81 -13.5t-86 -34.5l-41 82q28 18 64.5 30.5t76.5 20t78 7.5q65 0 111.5 -22.5
t75 -68t39.5 -114.5q8 -45 17 -77.5t18 -52.5q16 -35 40 -53t58 -18h5q5 0 5 -4v-83q0 -5 -5 -5h-5q-39 0 -71 9.5t-56 31t-44 54.5q-60 -16 -105 -31.5t-75 -30.5q-60 -30 -89.5 -67t-29.5 -83q0 -55 33.5 -84.5t94.5 -29.5zM377 -329q-24 0 -39 14.5t-15 42.5q0 30 16 44
t38 14q23 0 38 -14t15 -44q0 -27 -14 -42t-39 -15zM531 -329q-22 0 -37.5 13.5t-15.5 43.5q0 31 15.5 44.5t37.5 13.5q24 0 39 -15t15 -43q0 -27 -14.5 -42t-39.5 -15zM377 -164q-24 0 -39 14.5t-15 42.5q0 30 16 44t38 14q23 0 38 -14t15 -44q0 -27 -14 -42t-39 -15z
M531 -164q-22 0 -37.5 13.5t-15.5 43.5q0 31 15.5 44.5t37.5 13.5q24 0 39 -15t15 -43q0 -27 -14.5 -42t-39.5 -15z" />
    <glyph glyph-name="uniFB80" unicode="&#x687;" horiz-adv-x="591" arabic-form="initial" 
d="M-5 0q-5 0 -5 5v83q0 4 5 4h420q-19 19 -34 61t-28 109q-9 54 -24 85.5t-38.5 45t-61.5 13.5q-34 0 -68.5 -9.5t-72.5 -29.5l-38 83q43 26 90 37t100 11q30 0 55 -4.5t45 -13.5q46 -21 73 -63.5t40 -123.5q9 -55 20 -95t24.5 -66t28.5 -41v-91h-531zM166 -405
q-24 0 -39 14.5t-15 42.5q0 30 16 44t38 14q23 0 38 -14t15 -44q0 -27 -14 -42t-39 -15zM320 -405q-22 0 -37.5 13.5t-15.5 43.5q0 31 15.5 44.5t37.5 13.5q24 0 39 -15t15 -43q0 -27 -14.5 -42t-39.5 -15zM166 -240q-24 0 -39 14.5t-15 42.5q0 30 16 44t38 14q23 0 38 -14
t15 -44q0 -27 -14 -42t-39 -15zM320 -240q-22 0 -37.5 13.5t-15.5 43.5q0 31 15.5 44.5t37.5 13.5q24 0 39 -15t15 -43q0 -27 -14.5 -42t-39.5 -15z" />
    <glyph glyph-name="uniFB81" unicode="&#x687;" horiz-adv-x="585" arabic-form="medial" 
d="M-5 0q-5 0 -5 5v83q0 4 5 4h421q-13 13 -24.5 36t-21 56.5t-17.5 77.5q-7 39 -17 67t-24.5 45t-35 24.5t-47.5 7.5q-34 0 -68.5 -9.5t-72.5 -29.5l-38 83q43 26 90 37t98 11q32 0 57.5 -4.5t45.5 -14.5q30 -14 52 -37.5t36.5 -59.5t23.5 -89q8 -51 18.5 -90.5t24 -67
t28.5 -43.5h66q5 0 5 -4v-83q0 -5 -5 -5h-595zM166 -405q-24 0 -39 14.5t-15 42.5q0 30 16 44t38 14q23 0 38 -14t15 -44q0 -27 -14 -42t-39 -15zM320 -405q-22 0 -37.5 13.5t-15.5 43.5q0 31 15.5 44.5t37.5 13.5q24 0 39 -15t15 -43q0 -27 -14.5 -42t-39.5 -15zM166 -240
q-24 0 -39 14.5t-15 42.5q0 30 16 44t38 14q23 0 38 -14t15 -44q0 -27 -14 -42t-39 -15zM320 -240q-22 0 -37.5 13.5t-15.5 43.5q0 31 15.5 44.5t37.5 13.5q24 0 39 -15t15 -43q0 -27 -14.5 -42t-39.5 -15z" />
    <glyph glyph-name="uniFB83" unicode="&#x68d;" horiz-adv-x="598" arabic-form="final" 
d="M45 92h333q-8 47 -19.5 87.5t-26.5 74.5q-30 65 -75.5 115.5t-111.5 89.5l40 97q80 -38 140.5 -102.5t100.5 -154.5t59 -207h118q5 0 5 -4v-83q0 -5 -5 -5h-558v92zM144 -191q-26 0 -43 16t-17 48q0 33 17 48.5t43 15.5q27 0 43 -16.5t16 -47.5q0 -30 -16 -47t-43 -17z
M316 -191q-28 0 -44 17t-16 47q0 31 16 47.5t44 16.5t43.5 -17.5t15.5 -46.5t-15.5 -46.5t-43.5 -17.5z" />
    <glyph glyph-name="uniFB85" unicode="&#x68c;" horiz-adv-x="598" arabic-form="final" 
d="M45 92h333q-8 47 -19.5 87.5t-26.5 74.5q-30 65 -75.5 115.5t-111.5 89.5l40 97q80 -38 140.5 -102.5t100.5 -154.5t59 -207h118q5 0 5 -4v-83q0 -5 -5 -5h-558v92zM79 648q-26 0 -43 16t-17 48q0 33 17 48.5t43 15.5q28 0 43.5 -16.5t15.5 -47.5q0 -30 -16 -47t-43 -17z
M251 648q-28 0 -44 17t-16 47q0 31 16 47.5t44 16.5t43.5 -17t15.5 -47q0 -29 -15.5 -46.5t-43.5 -17.5z" />
    <glyph glyph-name="uniFB87" unicode="&#x68e;" horiz-adv-x="598" arabic-form="final" 
d="M45 92h333q-8 47 -19.5 87.5t-26.5 74.5q-30 65 -75.5 115.5t-111.5 89.5l40 97q80 -38 140.5 -102.5t100.5 -154.5t59 -207h118q5 0 5 -4v-83q0 -5 -5 -5h-558v92zM166 781q-22 0 -37.5 13.5t-15.5 43.5t15.5 43.5t37.5 13.5q23 0 38.5 -14.5t15.5 -42.5t-15.5 -42.5
t-38.5 -14.5zM81 637q-26 0 -43 16t-17 48q0 33 17 48.5t43 15.5q28 0 43.5 -17t15.5 -47q0 -29 -15.5 -46.5t-43.5 -17.5zM253 637q-28 0 -44 17t-16 47q0 31 16 47.5t44 16.5t43.5 -17t15.5 -47q0 -29 -15.5 -46.5t-43.5 -17.5z" />
    <glyph glyph-name="uniFB89" unicode="&#x688;" horiz-adv-x="598" arabic-form="final" 
d="M45 92h333q-8 47 -19.5 87.5t-26.5 74.5q-30 65 -75.5 115.5t-111.5 89.5l40 97q80 -38 140.5 -102.5t100.5 -154.5t59 -207h118q5 0 5 -4v-83q0 -5 -5 -5h-558v92zM53 706h15v182h47v-124q12 26 31.5 42.5t47.5 16.5q39 0 57.5 -22.5t18.5 -68.5v-76h-217v50zM223 706
v18q0 26 -8.5 39t-29.5 13q-22 0 -39.5 -15.5t-30.5 -44.5v-10h108z" />
    <glyph glyph-name="uniFB8B" unicode="&#x698;" horiz-adv-x="399" arabic-form="final" 
d="M278 0v-21q0 -68 -22.5 -117t-64.5 -75.5t-102 -26.5q-33 0 -64 8.5t-65 28.5l37 77q25 -13 42.5 -17t38.5 -4q44 0 69 34.5t25 90.5v510h106v-396h126q5 0 5 -4v-83q0 -5 -5 -5h-126zM218 731q-22 0 -37.5 13.5t-15.5 43.5t15.5 43.5t37.5 13.5q23 0 38.5 -14.5
t15.5 -42.5t-15.5 -42.5t-38.5 -14.5zM133 587q-26 0 -43 16t-17 48q0 33 17 48.5t43 15.5q28 0 43.5 -17t15.5 -47q0 -29 -15.5 -46.5t-43.5 -17.5zM305 587q-28 0 -44 17t-16 47q0 31 16 47.5t44 16.5t43.5 -17t15.5 -47q0 -29 -15.5 -46.5t-43.5 -17.5z" />
    <glyph glyph-name="uniFB8D" unicode="&#x691;" horiz-adv-x="399" arabic-form="final" 
d="M278 0v-21q0 -68 -22.5 -117t-64.5 -75.5t-102 -26.5q-33 0 -64 8.5t-65 28.5l37 77q25 -13 42.5 -17t38.5 -4q44 0 69 34.5t25 90.5v510h106v-396h126q5 0 5 -4v-83q0 -5 -5 -5h-126zM105 656h15v182h47v-124q12 26 31.5 42.5t47.5 16.5q39 0 57.5 -22.5t18.5 -68.5v-76
h-217v50zM275 656v18q0 26 -8.5 39t-29.5 13q-22 0 -39.5 -15.5t-30.5 -44.5v-10h108z" />
    <glyph glyph-name="uni06A9.fina" unicode="&#x6a9;" horiz-adv-x="884" arabic-form="final" 
d="M256 0q-92 0 -141.5 49t-49.5 137q0 31 6.5 68.5t17.5 72.5h97q-7 -40 -11 -72t-4 -55q0 -50 26.5 -79t71.5 -29h384v176q0 70 -44 104.5t-132 34.5h-170v90q15 32 35 62t45 60q56 69 129.5 122.5t149.5 81.5l40 -95q-44 -16 -89 -41.5t-84.5 -57t-70.5 -65t-48 -65.5h71
q135 0 204.5 -55t69.5 -159v-193h130q5 0 5 -4v-83q0 -5 -5 -5h-633z" />
    <glyph glyph-name="uniFB90" unicode="&#x6a9;" horiz-adv-x="587" arabic-form="initial" 
d="M-5 0q-5 0 -5 5v83q0 4 5 4h411v176q0 70 -44 104.5t-132 34.5h-170v90q17 35 38.5 67.5t48.5 64.5q57 65 128 116t144 78l40 -95q-45 -16 -90 -42t-84.5 -57t-69.5 -64.5t-48 -65.5h71q135 0 204.5 -55t69.5 -159v-285h-517z" />
    <glyph glyph-name="uniFB91" unicode="&#x6a9;" horiz-adv-x="637" arabic-form="medial" 
d="M-5 0q-5 0 -5 5v83q0 4 5 4h411v176q0 70 -44 104.5t-132 34.5h-170v90q17 35 39.5 68.5t49.5 65.5q57 65 127.5 115t142.5 77l40 -95q-45 -16 -90 -42t-84.5 -57t-69.5 -64.5t-48 -65.5h71q135 0 204.5 -55t69.5 -159v-193h130q5 0 5 -4v-83q0 -5 -5 -5h-647z" />
    <glyph glyph-name="uniFB93" unicode="&#x6af;" horiz-adv-x="884" arabic-form="final" 
d="M256 0q-92 0 -141.5 49t-49.5 137q0 31 6.5 68.5t17.5 72.5h97q-7 -40 -11 -72t-4 -55q0 -50 26.5 -79t71.5 -29h384v176q0 70 -44 104.5t-132 34.5h-170v90q15 32 35 62t45 60q56 69 129.5 122.5t149.5 81.5l40 -95q-44 -16 -89 -41.5t-84.5 -57t-70.5 -65t-48 -65.5h71
q135 0 204.5 -55t69.5 -159v-193h130q5 0 5 -4v-83q0 -5 -5 -5h-633zM274 654q17 33 52 73.5t82 82t99.5 76t103.5 54.5l29 -70q-48 -17 -97.5 -47.5t-95.5 -70t-84 -81t-62 -80.5z" />
    <glyph glyph-name="uniFB94" unicode="&#x6af;" horiz-adv-x="587" arabic-form="initial" 
d="M-5 0q-5 0 -5 5v83q0 4 5 4h411v176q0 70 -44 104.5t-132 34.5h-170v90q17 35 38.5 67.5t48.5 64.5q57 65 128 116t144 78l40 -95q-45 -16 -90 -42t-84.5 -57t-69.5 -64.5t-48 -65.5h71q135 0 204.5 -55t69.5 -159v-285h-517zM27 654q17 33 52 73.5t82 82t99.5 76
t103.5 54.5l29 -70q-48 -17 -97.5 -47.5t-95.5 -70t-84 -81t-62 -80.5z" />
    <glyph glyph-name="uniFB95" unicode="&#x6af;" horiz-adv-x="637" arabic-form="medial" 
d="M-5 0q-5 0 -5 5v83q0 4 5 4h411v176q0 70 -44 104.5t-132 34.5h-170v90q17 35 39.5 68.5t49.5 65.5q57 65 127.5 115t142.5 77l40 -95q-45 -16 -90 -42t-84.5 -57t-69.5 -64.5t-48 -65.5h71q135 0 204.5 -55t69.5 -159v-193h130q5 0 5 -4v-83q0 -5 -5 -5h-647zM27 654
q17 33 52 73.5t82 82t99.5 76t103.5 54.5l29 -70q-48 -17 -97.5 -47.5t-95.5 -70t-84 -81t-62 -80.5z" />
    <glyph glyph-name="uniFB97" unicode="&#x6b3;" horiz-adv-x="884" arabic-form="final" 
d="M256 0q-92 0 -141.5 49t-49.5 137q0 31 6.5 68.5t17.5 72.5h97q-7 -40 -11 -72t-4 -55q0 -50 26.5 -79t71.5 -29h384v176q0 70 -44 104.5t-132 34.5h-170v90q15 32 35 62t45 60q56 69 129.5 122.5t149.5 81.5l40 -95q-44 -16 -89 -41.5t-84.5 -57t-70.5 -65t-48 -65.5h71
q135 0 204.5 -55t69.5 -159v-193h130q5 0 5 -4v-83q0 -5 -5 -5h-633zM274 654q17 33 52 73.5t82 82t99.5 76t103.5 54.5l29 -70q-48 -17 -97.5 -47.5t-95.5 -70t-84 -81t-62 -80.5zM391 -400q-27 0 -43.5 16.5t-16.5 47.5t16 47.5t44 16.5t43.5 -17t15.5 -47
q0 -29 -15.5 -46.5t-43.5 -17.5zM391 -217q-27 0 -43.5 16.5t-16.5 47.5t16 47.5t44 16.5t43.5 -17.5t15.5 -46.5q0 -30 -15.5 -47t-43.5 -17z" />
    <glyph glyph-name="uniFB98" unicode="&#x6b3;" horiz-adv-x="587" arabic-form="initial" 
d="M-5 0q-5 0 -5 5v83q0 4 5 4h411v176q0 70 -44 104.5t-132 34.5h-170v90q17 35 38.5 67.5t48.5 64.5q57 65 128 116t144 78l40 -95q-45 -16 -90 -42t-84.5 -57t-69.5 -64.5t-48 -65.5h71q135 0 204.5 -55t69.5 -159v-285h-517zM27 654q17 33 52 73.5t82 82t99.5 76
t103.5 54.5l29 -70q-48 -17 -97.5 -47.5t-95.5 -70t-84 -81t-62 -80.5zM273 -400q-27 0 -43.5 16.5t-16.5 47.5t16 47.5t44 16.5t43.5 -17t15.5 -47q0 -29 -15.5 -46.5t-43.5 -17.5zM273 -217q-27 0 -43.5 16.5t-16.5 47.5t16 47.5t44 16.5t43.5 -17.5t15.5 -46.5
q0 -30 -15.5 -47t-43.5 -17z" />
    <glyph glyph-name="uniFB99" unicode="&#x6b3;" horiz-adv-x="637" arabic-form="medial" 
d="M-5 0q-5 0 -5 5v83q0 4 5 4h411v176q0 70 -44 104.5t-132 34.5h-170v90q17 35 39.5 68.5t49.5 65.5q57 65 127.5 115t142.5 77l40 -95q-45 -16 -90 -42t-84.5 -57t-69.5 -64.5t-48 -65.5h71q135 0 204.5 -55t69.5 -159v-193h130q5 0 5 -4v-83q0 -5 -5 -5h-647zM27 654
q17 33 52 73.5t82 82t99.5 76t103.5 54.5l29 -70q-48 -17 -97.5 -47.5t-95.5 -70t-84 -81t-62 -80.5zM318 -400q-27 0 -43.5 16.5t-16.5 47.5t16 47.5t44 16.5t43.5 -17t15.5 -47q0 -29 -15.5 -46.5t-43.5 -17.5zM318 -217q-27 0 -43.5 16.5t-16.5 47.5t16 47.5t44 16.5
t43.5 -17.5t15.5 -46.5q0 -30 -15.5 -47t-43.5 -17z" />
    <glyph glyph-name="uniFB9B" unicode="&#x6b1;" horiz-adv-x="884" arabic-form="final" 
d="M256 0q-92 0 -141.5 49t-49.5 137q0 31 6.5 68.5t17.5 72.5h97q-7 -40 -11 -72t-4 -55q0 -50 26.5 -79t71.5 -29h384v176q0 70 -44 104.5t-132 34.5h-170v90q15 32 35 62t45 60q56 69 129.5 122.5t149.5 81.5l40 -95q-44 -16 -89 -41.5t-84.5 -57t-70.5 -65t-48 -65.5h71
q135 0 204.5 -55t69.5 -159v-193h130q5 0 5 -4v-83q0 -5 -5 -5h-633zM274 654q17 33 52 73.5t82 82t99.5 76t103.5 54.5l29 -70q-48 -17 -97.5 -47.5t-95.5 -70t-84 -81t-62 -80.5zM278 775q-12 0 -23 6t-17 17t-6 25q0 22 12.5 34.5t31.5 12.5q12 0 22.5 -6t17 -17t6.5 -26
q0 -21 -13 -33.5t-31 -12.5zM380 861q-12 0 -23 6t-17.5 17t-6.5 25q0 22 13 34t31 12t32.5 -13t14.5 -35q0 -21 -13.5 -33.5t-30.5 -12.5z" />
    <glyph glyph-name="uniFB9C" unicode="&#x6b1;" horiz-adv-x="587" arabic-form="initial" 
d="M-5 0q-5 0 -5 5v83q0 4 5 4h411v176q0 70 -44 104.5t-132 34.5h-170v90q17 35 38.5 67.5t48.5 64.5q57 65 128 116t144 78l40 -95q-45 -16 -90 -42t-84.5 -57t-69.5 -64.5t-48 -65.5h71q135 0 204.5 -55t69.5 -159v-285h-517zM27 654q17 33 52 73.5t82 82t99.5 76
t103.5 54.5l29 -70q-48 -17 -97.5 -47.5t-95.5 -70t-84 -81t-62 -80.5zM31 775q-12 0 -23 6t-17 17t-6 25q0 22 12.5 34.5t31.5 12.5q12 0 22.5 -6t17 -17t6.5 -26q0 -21 -13 -33.5t-31 -12.5zM133 861q-12 0 -23 6t-17.5 17t-6.5 25q0 22 13 34t31 12t32.5 -13t14.5 -35
q0 -21 -13.5 -33.5t-30.5 -12.5z" />
    <glyph glyph-name="uniFB9D" unicode="&#x6b1;" horiz-adv-x="637" arabic-form="medial" 
d="M-5 0q-5 0 -5 5v83q0 4 5 4h411v176q0 70 -44 104.5t-132 34.5h-170v90q17 35 39.5 68.5t49.5 65.5q57 65 127.5 115t142.5 77l40 -95q-45 -16 -90 -42t-84.5 -57t-69.5 -64.5t-48 -65.5h71q135 0 204.5 -55t69.5 -159v-193h130q5 0 5 -4v-83q0 -5 -5 -5h-647zM27 654
q17 33 52 73.5t82 82t99.5 76t103.5 54.5l29 -70q-48 -17 -97.5 -47.5t-95.5 -70t-84 -81t-62 -80.5zM31 775q-12 0 -23 6t-17 17t-6 25q0 22 12.5 34.5t31.5 12.5q12 0 22.5 -6t17 -17t6.5 -26q0 -21 -13 -33.5t-31 -12.5zM133 861q-12 0 -23 6t-17.5 17t-6.5 25
q0 22 13 34t31 12t32.5 -13t14.5 -35q0 -21 -13.5 -33.5t-30.5 -12.5z" />
    <glyph glyph-name="uni06BA.fina" unicode="&#x6ba;" horiz-adv-x="728" arabic-form="final" 
d="M616 0q-3 -119 -68 -179.5t-196 -60.5h-62q-39 0 -71.5 10t-58.5 28q-46 33 -70.5 88.5t-24.5 127.5q0 59 11.5 115.5t32.5 105.5h100q-17 -46 -25.5 -101.5t-8.5 -115.5q0 -79 34.5 -122.5t96.5 -43.5h42q56 0 92 18t53 53.5t17 88.5v476h107v-396h116q5 0 5 -4v-83
q0 -5 -5 -5h-117z" />
    <glyph glyph-name="uniFBA1" unicode="&#x6bb;" horiz-adv-x="728" arabic-form="final" 
d="M616 0q-3 -119 -68 -179.5t-196 -60.5h-62q-39 0 -71.5 10t-58.5 28q-46 33 -70.5 88.5t-24.5 127.5q0 59 11.5 115.5t32.5 105.5h100q-17 -46 -25.5 -101.5t-8.5 -115.5q0 -79 34.5 -122.5t96.5 -43.5h42q56 0 92 18t53 53.5t17 88.5v476h107v-396h116q5 0 5 -4v-83
q0 -5 -5 -5h-117zM219 539h15v182h47v-124q12 26 31.5 42.5t47.5 16.5q39 0 57.5 -22.5t18.5 -68.5v-76h-217v50zM389 539v18q0 26 -8.5 39t-29.5 13q-22 0 -39.5 -15.5t-30.5 -44.5v-10h108z" />
    <glyph glyph-name="uniFBA5" unicode="&#x6c0;" horiz-adv-x="618" arabic-form="final" 
d="M332 0q-84 0 -144 28t-91.5 81t-31.5 127q0 79 35 135.5t98 86.5t147 30h53v59h107v-455h118q5 0 5 -4v-83q0 -5 -5 -5h-291zM399 92v304h-51q-83 0 -128 -41.5t-45 -118.5q0 -70 40.5 -107t115.5 -37h68zM184 666l50 7q-18 11 -28 27.5t-10 37.5q0 43 28.5 66.5
t76.5 23.5q42 0 71 -16l-17 -47q-11 7 -23.5 10t-27.5 3q-22 0 -36.5 -13t-14.5 -37q0 -17 8.5 -29t21.5 -18q22 5 41.5 7.5t35 4t23.5 1.5v-52q-19 -1 -44.5 -3.5t-53.5 -6t-54.5 -7.5t-46.5 -7v48z" />
    <glyph glyph-name="uni06C1.fina" unicode="&#x6c1;" horiz-adv-x="700" arabic-form="final" 
d="M50 0q28 53 53 96.5t48 79t45 62.5q55 69 119 112.5t146 67.5h114v-326h130q5 0 5 -4v-83q0 -5 -5 -5h-239v323q-31 -12 -58 -26t-49 -32q-29 -24 -56 -55.5t-57 -81t-69 -128.5h-127z" />
    <glyph glyph-name="uni06C1.init" unicode="&#x6c1;" horiz-adv-x="327" arabic-form="initial" 
d="M149 -210q-44 0 -71.5 26t-27.5 67q0 18 5 35.5t17 38t31 43.5h-108q-5 0 -5 5v83q0 4 5 4h130v396h109v-488h-47q-48 -59 -48 -92q0 -13 9 -23t26 -10h68v-85h-93z" />
    <glyph glyph-name="uni06C1.medi" unicode="&#x6c1;" horiz-adv-x="591" arabic-form="medial" 
d="M596 92q5 0 5 -4v-83q0 -5 -5 -5h-129v-240h-117q-100 0 -164.5 60.5t-90.5 179.5h-100q-5 0 -5 5v83q0 4 5 4h177q9 -44 18.5 -78.5t22.5 -60.5q25 -51 60 -76t85 -25v240h238z" />
    <glyph glyph-name="uni06BE.fina" unicode="&#x6be;" horiz-adv-x="873" arabic-form="final" 
d="M171 92q-28 20 -45.5 56.5t-17.5 85.5q0 61 28.5 108.5t76 74t106.5 26.5q66 0 111.5 -25t69 -73t23.5 -118v-135h134v192q0 134 -62.5 199.5t-189.5 65.5q-57 0 -107 -8t-97 -24l-27 89q37 13 74 20.5t76 11t81 3.5q174 0 266 -90t92 -257v-202h115q5 0 5 -4v-83
q0 -5 -5 -5h-813v92h106zM417 92v123q0 66 -24.5 97t-76.5 31q-45 0 -71 -30t-26 -83q0 -43 16 -74t45.5 -47.5t71.5 -16.5h65z" />
    <glyph glyph-name="uniFBAC" unicode="&#x6be;" horiz-adv-x="813" arabic-form="initial" 
d="M139 92q-28 20 -45 56.5t-17 85.5q0 61 28 108t77 74t110 27q65 0 109.5 -24.5t67.5 -72.5t23 -119v-135h133v192q0 133 -61.5 199t-189.5 66q-58 0 -107.5 -8t-97.5 -24l-26 89q36 13 73.5 20.5t76.5 11t81 3.5q174 0 266 -90t92 -257v-294h-737q-5 0 -5 5v83q0 4 5 4
h144zM320 92h65v123q0 67 -25 97.5t-75 30.5q-46 0 -72 -30t-26 -83q0 -43 16 -74t46 -47.5t71 -16.5z" />
    <glyph glyph-name="uni06BE.medi" unicode="&#x6be;" horiz-adv-x="855" arabic-form="medial" 
d="M139 92q-28 20 -45 56.5t-17 83.5q0 63 28 110t75.5 74t106.5 27q66 0 111.5 -25t69.5 -73t24 -118v-135h133v192q0 133 -61.5 199t-189.5 66q-58 0 -107.5 -8t-97.5 -24l-26 89q36 13 73.5 20.5t76.5 11t81 3.5q174 0 266 -90t92 -257v-202h128q5 0 5 -4v-83q0 -5 -5 -5
h-865q-5 0 -5 5v83q0 4 5 4h144zM320 92h65v123q0 67 -25 97.5t-75 30.5q-46 0 -72 -30t-26 -83q0 -43 16 -74t46 -47.5t71 -16.5z" />
    <glyph glyph-name="uni06D2.fina" unicode="&#x6d2;" horiz-adv-x="401" arabic-form="final" 
d="M409 92q5 0 5 -4v-83q0 -5 -5 -5h-140q-53 0 -84 -20.5t-31 -52.5q0 -23 16 -36.5t45 -13.5h458v-92h-468q-49 0 -85 17t-55.5 49t-19.5 75q0 48 31 85q30 38 84.5 59.5t115.5 21.5h133z" />
    <glyph glyph-name="uniFBB1" unicode="&#x6d3;" horiz-adv-x="401" arabic-form="final" 
d="M409 92q5 0 5 -4v-83q0 -5 -5 -5h-140q-53 0 -84 -20.5t-31 -52.5q0 -23 16 -36.5t45 -13.5h458v-92h-468q-49 0 -85 17t-55.5 49t-19.5 75q0 48 31 85q30 38 84.5 59.5t115.5 21.5h133zM148 237l50 7q-18 11 -28 27.5t-10 37.5q0 43 28.5 66.5t76.5 23.5q42 0 71 -16
l-17 -47q-11 7 -23.5 10t-27.5 3q-22 0 -36.5 -13t-14.5 -37q0 -17 8.5 -29t21.5 -18q22 5 41.5 7.5t35 4t23.5 1.5v-52q-19 -1 -44.5 -3.5t-53.5 -6t-54.5 -7.5t-46.5 -7v48z" />
    <glyph glyph-name="uniFBD4" unicode="&#x6ad;" horiz-adv-x="850" arabic-form="final" 
d="M256 0q-91 0 -141 49t-50 137q0 24 3 48.5t9.5 48t14.5 44.5h94q-7 -34 -11 -66t-4 -63q0 -48 26.5 -77t71.5 -29h347v668h107v-668h132q5 0 5 -4v-83q0 -5 -5 -5h-599zM312 315v46h141v7q0 12 -7 17.5t-25 5.5h-90v37q14 32 45.5 58.5t66.5 36.5l19 -45
q-17 -4 -35.5 -15.5t-31.5 -25.5h28q39 0 60.5 -16.5t21.5 -49.5v-56h-193zM412 722q-17 0 -29 10.5t-12 33.5q0 22 12 32.5t29 10.5t28.5 -11t11.5 -32q0 -22 -11.5 -33t-28.5 -11zM347 602q-19 0 -32 12.5t-13 36.5q0 25 13 37t32 12q21 0 33 -13t12 -36q0 -21 -12 -35
t-33 -14zM477 602q-21 0 -33 13t-12 36t12 36t33 13q22 0 33.5 -13t11.5 -36q0 -21 -11.5 -35t-33.5 -14z" />
    <glyph glyph-name="uniFBD5" unicode="&#x6ad;" horiz-adv-x="587" arabic-form="initial" 
d="M-5 0q-5 0 -5 5v83q0 4 5 4h411v176q0 70 -44 104.5t-132 34.5h-170v90q17 35 38.5 67.5t48.5 64.5q57 65 128 116t144 78l40 -95q-45 -16 -90 -42t-84.5 -57t-69.5 -64.5t-48 -65.5h71q135 0 204.5 -55t69.5 -159v-285h-517zM17 659q-12 0 -23 6t-17 17t-6 25
q0 22 12.5 34.5t31.5 12.5q12 0 22.5 -6t17 -17t6.5 -26q0 -21 -13 -33.5t-31 -12.5zM-2 790q-17 0 -30 12t-13 33t12 32.5t30 11.5q11 0 20.5 -5.5t16 -15.5t6.5 -24q0 -21 -12.5 -32.5t-29.5 -11.5zM119 745q-12 0 -23 6t-17.5 17t-6.5 25q0 22 13 34t31 12t32.5 -13
t14.5 -35q0 -21 -13.5 -33.5t-30.5 -12.5z" />
    <glyph glyph-name="uniFBD6" unicode="&#x6ad;" horiz-adv-x="637" arabic-form="medial" 
d="M-5 0q-5 0 -5 5v83q0 4 5 4h411v176q0 70 -44 104.5t-132 34.5h-170v90q17 35 39.5 68.5t49.5 65.5q57 65 127.5 115t142.5 77l40 -95q-45 -16 -90 -42t-84.5 -57t-69.5 -64.5t-48 -65.5h71q135 0 204.5 -55t69.5 -159v-193h130q5 0 5 -4v-83q0 -5 -5 -5h-647zM17 659
q-12 0 -23 6t-17 17t-6 25q0 22 12.5 34.5t31.5 12.5q12 0 22.5 -6t17 -17t6.5 -26q0 -21 -13 -33.5t-31 -12.5zM-2 790q-17 0 -30 12t-13 33t12 32.5t30 11.5q11 0 20.5 -5.5t16 -15.5t6.5 -24q0 -21 -12.5 -32.5t-29.5 -11.5zM119 745q-12 0 -23 6t-17.5 17t-6.5 25
q0 22 13 34t31 12t32.5 -13t14.5 -35q0 -21 -13.5 -33.5t-30.5 -12.5z" />
    <glyph glyph-name="uniFBD8" unicode="&#x6c7;" horiz-adv-x="589" arabic-form="final" 
d="M594 92q5 0 5 -4v-83q0 -5 -5 -5h-181q-5 0 -5 5v83q0 4 5 4h181zM256 -240q-57 0 -103.5 12t-87.5 38l46 81q35 -18 70 -28.5t75 -10.5q65 0 100.5 34.5t35.5 92.5v21h-98q-107 0 -165 59t-58 171q0 81 36.5 138.5t101.5 88.5t151 31h138v-505q0 -106 -63.5 -164.5
t-178.5 -58.5zM392 92v304h-40q-80 0 -125 -43t-45 -121q0 -72 30.5 -106t93.5 -34h86zM229 572l-25 37q22 13 40.5 25t33.5 23.5t24 21.5q-32 11 -53 33.5t-21 47.5q0 31 24.5 54t56.5 23q29 0 46.5 -23.5t17.5 -58.5q0 -30 -9.5 -55t-28 -47t-45.5 -41.5t-61 -39.5z" />
    <glyph glyph-name="uniFBDA" unicode="&#x6c6;" horiz-adv-x="589" arabic-form="final" 
d="M594 92q5 0 5 -4v-83q0 -5 -5 -5h-181q-5 0 -5 5v83q0 4 5 4h181zM256 -240q-57 0 -103.5 12t-87.5 38l46 81q35 -18 70 -28.5t75 -10.5q65 0 100.5 34.5t35.5 92.5v21h-98q-107 0 -165 59t-58 171q0 81 36.5 138.5t101.5 88.5t151 31h138v-505q0 -106 -63.5 -164.5
t-178.5 -58.5zM392 92v304h-40q-80 0 -125 -43t-45 -121q0 -72 30.5 -106t93.5 -34h86zM437 792l-110 -199h-75l-111 199h85l63 -129l65 129h83z" />
    <glyph glyph-name="uniFBDC" unicode="&#x6c8;" horiz-adv-x="589" arabic-form="final" 
d="M594 92q5 0 5 -4v-83q0 -5 -5 -5h-181q-5 0 -5 5v83q0 4 5 4h181zM256 -240q-57 0 -103.5 12t-87.5 38l46 81q35 -18 70 -28.5t75 -10.5q65 0 100.5 34.5t35.5 92.5v21h-98q-107 0 -165 59t-58 171q0 81 36.5 138.5t101.5 88.5t151 31h138v-505q0 -106 -63.5 -164.5
t-178.5 -58.5zM392 92v304h-40q-80 0 -125 -43t-45 -121q0 -72 30.5 -106t93.5 -34h86zM260 777h60v-194h-60v194z" />
    <glyph glyph-name="uniFBDF" unicode="&#x6cb;" horiz-adv-x="589" arabic-form="final" 
d="M594 92q5 0 5 -4v-83q0 -5 -5 -5h-181q-5 0 -5 5v83q0 4 5 4h181zM256 -240q-57 0 -103.5 12t-87.5 38l46 81q35 -18 70 -28.5t75 -10.5q65 0 100.5 34.5t35.5 92.5v21h-98q-107 0 -165 59t-58 171q0 81 36.5 138.5t101.5 88.5t151 31h138v-505q0 -106 -63.5 -164.5
t-178.5 -58.5zM392 92v304h-40q-80 0 -125 -43t-45 -121q0 -72 30.5 -106t93.5 -34h86zM292 752q-22 0 -37.5 13.5t-15.5 43.5t15.5 43.5t37.5 13.5q23 0 38.5 -14.5t15.5 -42.5t-15.5 -42.5t-38.5 -14.5zM207 608q-26 0 -43 16t-17 48q0 33 17 48.5t43 15.5q28 0 43.5 -17
t15.5 -47q0 -29 -15.5 -46.5t-43.5 -17.5zM379 608q-28 0 -44 17t-16 47q0 31 16 47.5t44 16.5t43.5 -17t15.5 -47q0 -29 -15.5 -46.5t-43.5 -17.5z" />
    <glyph glyph-name="uni06C5.fina" unicode="&#x6c5;" horiz-adv-x="589" arabic-form="final" 
d="M594 92q5 0 5 -4v-83q0 -5 -5 -5h-181q-5 0 -5 5v83q0 4 5 4h181zM389 92v304h-39q-81 0 -126 -43t-45 -121q0 -72 31 -106t94 -34h85zM257 -257q29 24 59.5 56.5t52 71.5t21.5 83v46h-98q-107 0 -165 59t-58 171q0 81 36 138.5t101.5 88.5t151.5 31h138v-526
q0 -50 -19 -99t-57 -96.5t-98 -97.5zM363 -169l-39 14q-23 9 -39 13t-33 4q-13 0 -28 -3t-30 -10l-29 52q25 19 45.5 27.5t42.5 8.5q13 0 32 -4.5t41 -13.5q23 -8 40 -13.5t25 -7.5z" />
    <glyph glyph-name="uniFBE3" unicode="&#x6c9;" horiz-adv-x="589" arabic-form="final" 
d="M594 92q5 0 5 -4v-83q0 -5 -5 -5h-181q-5 0 -5 5v83q0 4 5 4h181zM256 -240q-57 0 -103.5 12t-87.5 38l46 81q35 -18 70 -28.5t75 -10.5q65 0 100.5 34.5t35.5 92.5v21h-98q-107 0 -165 59t-58 171q0 81 36.5 138.5t101.5 88.5t151 31h138v-505q0 -106 -63.5 -164.5
t-178.5 -58.5zM392 92v304h-40q-80 0 -125 -43t-45 -121q0 -72 30.5 -106t93.5 -34h86zM151 593l110 199h56l111 -199h-75l-63 129l-65 -129h-74z" />
    <glyph glyph-name="uniFBE5" unicode="&#x6d0;" horiz-adv-x="978" arabic-form="final" 
d="M266 -240q-62 0 -107 30t-69.5 83t-24.5 124q0 51 8.5 95t25.5 89h100q-15 -42 -20.5 -80.5t-5.5 -92.5q0 -47 15.5 -82t44 -54.5t66.5 -19.5h182q45 0 80.5 9.5t56 27t20.5 41.5q0 19 -17.5 33t-55.5 24q-51 15 -86.5 31.5t-53 42.5t-17.5 67q0 28 9 56t27 55
q24 37 57.5 65t71.5 44t74 16q16 0 31 -2.5t29 -9.5q28 -13 53.5 -40t62.5 -84q29 -45 51 -73t39 -40q15 -11 31 -17t34 -6h5q5 0 5 -4v-83q0 -5 -5 -5h-5q-31 0 -58 8t-53 25t-53 45q-5 6 -18 23.5t-33 45.5q-24 34 -43 56t-33 35q-13 11 -26.5 16.5t-26.5 5.5
q-18 0 -39 -11.5t-39.5 -29.5t-30 -38.5t-11.5 -37.5q0 -14 9.5 -25t26.5 -18.5t38 -14.5q35 -10 59.5 -19.5t39.5 -18.5q30 -17 45.5 -40.5t15.5 -54.5q0 -95 -66.5 -143.5t-200.5 -48.5h-215zM391 -644q-27 0 -43.5 16.5t-16.5 47.5t16 47.5t44 16.5t43.5 -17t15.5 -47
q0 -29 -15.5 -46.5t-43.5 -17.5zM391 -461q-27 0 -43.5 16.5t-16.5 47.5t16 47.5t44 16.5t43.5 -17.5t15.5 -46.5q0 -30 -15.5 -47t-43.5 -17z" />
    <glyph glyph-name="uniFBE6" unicode="&#x6d0;" horiz-adv-x="384" arabic-form="initial" 
d="M-5 0q-5 0 -5 5v83q0 4 5 4h186v396h109v-488h-295zM183 -400q-27 0 -43.5 16.5t-16.5 47.5t16 47.5t44 16.5t43.5 -17t15.5 -47q0 -29 -15.5 -46.5t-43.5 -17.5zM183 -217q-27 0 -43.5 16.5t-16.5 47.5t16 47.5t44 16.5t43.5 -17.5t15.5 -46.5q0 -30 -15.5 -47
t-43.5 -17z" />
    <glyph glyph-name="uniFBE7" unicode="&#x6d0;" horiz-adv-x="409" arabic-form="medial" 
d="M-5 0q-5 0 -5 5v83q0 4 5 4h160v396h109v-396h150q5 0 5 -4v-83q0 -5 -5 -5h-419zM194 -400q-27 0 -43.5 16.5t-16.5 47.5t16 47.5t44 16.5t43.5 -17t15.5 -47q0 -29 -15.5 -46.5t-43.5 -17.5zM194 -217q-27 0 -43.5 16.5t-16.5 47.5t16 47.5t44 16.5t43.5 -17.5
t15.5 -46.5q0 -30 -15.5 -47t-43.5 -17z" />
    <glyph glyph-name="uniFBE8" unicode="&#x649;" horiz-adv-x="319" arabic-form="initial" 
d="M-5 0q-5 0 -5 5v83q0 4 5 4h130v396h109v-488h-239z" />
    <glyph glyph-name="uniFBE9" unicode="&#x649;" horiz-adv-x="359" arabic-form="medial" 
d="M-5 0q-5 0 -5 5v83q0 4 5 4h130v396h109v-396h130q5 0 5 -4v-83q0 -5 -5 -5h-369z" />
    <glyph glyph-name="uniFBEA" unicode="&#xfbea;" horiz-adv-x="652" arabic-form="isolated" 
d="M329 0q-5 0 -5 5v83q0 4 5 4h130v396h109v-488h-239zM371 604l50 7q-18 11 -28 27.5t-10 37.5q0 43 28.5 66.5t76.5 23.5q42 0 71 -16l-17 -47q-11 7 -23.5 10t-27.5 3q-22 0 -36.5 -13t-14.5 -37q0 -17 8.5 -29t21.5 -18q22 5 41.5 7.5t35 4t23.5 1.5v-52
q-19 -1 -44.5 -3.5t-53.5 -6t-54.5 -7.5t-46.5 -7v48zM339 92q5 0 5 -4v-83q0 -5 -5 -5h-239v760h109v-668h130z" />
    <glyph glyph-name="uniFBEB" unicode="&#xfbeb;" horiz-adv-x="692" arabic-form="final" 
d="M329 0q-5 0 -5 5v83q0 4 5 4h130v396h109v-396h130q5 0 5 -4v-83q0 -5 -5 -5h-369zM371 624l50 7q-18 11 -28 27.5t-10 37.5q0 43 28.5 66.5t76.5 23.5q42 0 71 -16l-17 -47q-11 7 -23.5 10t-27.5 3q-22 0 -36.5 -13t-14.5 -37q0 -17 8.5 -29t21.5 -18q22 5 41.5 7.5
t35 4t23.5 1.5v-52q-19 -1 -44.5 -3.5t-53.5 -6t-54.5 -7.5t-46.5 -7v48zM339 92q5 0 5 -4v-83q0 -5 -5 -5h-239v760h109v-668h130z" />
    <glyph glyph-name="uniFBEC" unicode="&#xfbec;" horiz-adv-x="1018" arabic-form="isolated" 
d="M695 0q-5 0 -5 5v83q0 4 5 4h130v396h109v-488h-239zM737 604l50 7q-18 11 -28 27.5t-10 37.5q0 43 28.5 66.5t76.5 23.5q42 0 71 -16l-17 -47q-11 7 -23.5 10t-27.5 3q-22 0 -36.5 -13t-14.5 -37q0 -17 8.5 -29t21.5 -18q22 5 41.5 7.5t35 4t23.5 1.5v-52
q-19 -1 -44.5 -3.5t-53.5 -6t-54.5 -7.5t-46.5 -7v48zM50 0q28 53 53 96.5t48 79t45 62.5q55 69 119 112.5t146 67.5h114v-326h130q5 0 5 -4v-83q0 -5 -5 -5h-239v323q-31 -12 -58 -26t-49 -32q-29 -24 -56 -55.5t-57 -81t-69 -128.5h-127z" />
    <glyph glyph-name="uniFBED" unicode="&#xfbed;" horiz-adv-x="1058" arabic-form="final" 
d="M695 0q-5 0 -5 5v83q0 4 5 4h130v396h109v-396h130q5 0 5 -4v-83q0 -5 -5 -5h-369zM737 624l50 7q-18 11 -28 27.5t-10 37.5q0 43 28.5 66.5t76.5 23.5q42 0 71 -16l-17 -47q-11 7 -23.5 10t-27.5 3q-22 0 -36.5 -13t-14.5 -37q0 -17 8.5 -29t21.5 -18q22 5 41.5 7.5
t35 4t23.5 1.5v-52q-19 -1 -44.5 -3.5t-53.5 -6t-54.5 -7.5t-46.5 -7v48zM50 0q28 53 53 96.5t48 79t45 62.5q55 69 119 112.5t146 67.5h114v-326h130q5 0 5 -4v-83q0 -5 -5 -5h-239v323q-31 -12 -58 -26t-49 -32q-29 -24 -56 -55.5t-57 -81t-69 -128.5h-127z" />
    <glyph glyph-name="uniFBEE" unicode="&#xfbee;" horiz-adv-x="908" arabic-form="isolated" 
d="M584 0q-5 0 -5 5v83q0 4 5 4h130v396h109v-488h-239zM626 604l50 7q-18 11 -28 27.5t-10 37.5q0 43 28.5 66.5t76.5 23.5q42 0 71 -16l-17 -47q-11 7 -23.5 10t-27.5 3q-22 0 -36.5 -13t-14.5 -37q0 -17 8.5 -29t21.5 -18q22 5 41.5 7.5t35 4t23.5 1.5v-52
q-19 -1 -44.5 -3.5t-53.5 -6t-54.5 -7.5t-46.5 -7v48zM594 92q5 0 5 -4v-83q0 -5 -5 -5h-181q-5 0 -5 5v83q0 4 5 4h181zM256 -240q-57 0 -103.5 12t-87.5 38l46 81q35 -18 70 -28.5t75 -10.5q65 0 100.5 34.5t35.5 92.5v21h-98q-107 0 -165 59t-58 171q0 81 36.5 138.5
t101.5 88.5t151 31h138v-505q0 -106 -63.5 -164.5t-178.5 -58.5zM392 92v304h-40q-80 0 -125 -43t-45 -121q0 -72 30.5 -106t93.5 -34h86z" />
    <glyph glyph-name="uniFBEF" unicode="&#xfbef;" horiz-adv-x="948" arabic-form="final" 
d="M584 0q-5 0 -5 5v83q0 4 5 4h130v396h109v-396h130q5 0 5 -4v-83q0 -5 -5 -5h-369zM626 624l50 7q-18 11 -28 27.5t-10 37.5q0 43 28.5 66.5t76.5 23.5q42 0 71 -16l-17 -47q-11 7 -23.5 10t-27.5 3q-22 0 -36.5 -13t-14.5 -37q0 -17 8.5 -29t21.5 -18q22 5 41.5 7.5
t35 4t23.5 1.5v-52q-19 -1 -44.5 -3.5t-53.5 -6t-54.5 -7.5t-46.5 -7v48zM594 92q5 0 5 -4v-83q0 -5 -5 -5h-181q-5 0 -5 5v83q0 4 5 4h181zM256 -240q-57 0 -103.5 12t-87.5 38l46 81q35 -18 70 -28.5t75 -10.5q65 0 100.5 34.5t35.5 92.5v21h-98q-107 0 -165 59t-58 171
q0 81 36.5 138.5t101.5 88.5t151 31h138v-505q0 -106 -63.5 -164.5t-178.5 -58.5zM392 92v304h-40q-80 0 -125 -43t-45 -121q0 -72 30.5 -106t93.5 -34h86z" />
    <glyph glyph-name="uniFBF0" unicode="&#xfbf0;" horiz-adv-x="908" arabic-form="isolated" 
d="M584 0q-5 0 -5 5v83q0 4 5 4h130v396h109v-488h-239zM626 604l50 7q-18 11 -28 27.5t-10 37.5q0 43 28.5 66.5t76.5 23.5q42 0 71 -16l-17 -47q-11 7 -23.5 10t-27.5 3q-22 0 -36.5 -13t-14.5 -37q0 -17 8.5 -29t21.5 -18q22 5 41.5 7.5t35 4t23.5 1.5v-52
q-19 -1 -44.5 -3.5t-53.5 -6t-54.5 -7.5t-46.5 -7v48zM594 92q5 0 5 -4v-83q0 -5 -5 -5h-181q-5 0 -5 5v83q0 4 5 4h181zM256 -240q-57 0 -103.5 12t-87.5 38l46 81q35 -18 70 -28.5t75 -10.5q65 0 100.5 34.5t35.5 92.5v21h-98q-107 0 -165 59t-58 171q0 81 36.5 138.5
t101.5 88.5t151 31h138v-505q0 -106 -63.5 -164.5t-178.5 -58.5zM392 92v304h-40q-80 0 -125 -43t-45 -121q0 -72 30.5 -106t93.5 -34h86zM229 572l-25 37q22 13 40.5 25t33.5 23.5t24 21.5q-32 11 -53 33.5t-21 47.5q0 31 24.5 54t56.5 23q29 0 46.5 -23.5t17.5 -58.5
q0 -30 -9.5 -55t-28 -47t-45.5 -41.5t-61 -39.5z" />
    <glyph glyph-name="uniFBF1" unicode="&#xfbf1;" horiz-adv-x="948" arabic-form="final" 
d="M584 0q-5 0 -5 5v83q0 4 5 4h130v396h109v-396h130q5 0 5 -4v-83q0 -5 -5 -5h-369zM626 624l50 7q-18 11 -28 27.5t-10 37.5q0 43 28.5 66.5t76.5 23.5q42 0 71 -16l-17 -47q-11 7 -23.5 10t-27.5 3q-22 0 -36.5 -13t-14.5 -37q0 -17 8.5 -29t21.5 -18q22 5 41.5 7.5
t35 4t23.5 1.5v-52q-19 -1 -44.5 -3.5t-53.5 -6t-54.5 -7.5t-46.5 -7v48zM594 92q5 0 5 -4v-83q0 -5 -5 -5h-181q-5 0 -5 5v83q0 4 5 4h181zM256 -240q-57 0 -103.5 12t-87.5 38l46 81q35 -18 70 -28.5t75 -10.5q65 0 100.5 34.5t35.5 92.5v21h-98q-107 0 -165 59t-58 171
q0 81 36.5 138.5t101.5 88.5t151 31h138v-505q0 -106 -63.5 -164.5t-178.5 -58.5zM392 92v304h-40q-80 0 -125 -43t-45 -121q0 -72 30.5 -106t93.5 -34h86zM229 572l-25 37q22 13 40.5 25t33.5 23.5t24 21.5q-32 11 -53 33.5t-21 47.5q0 31 24.5 54t56.5 23q29 0 46.5 -23.5
t17.5 -58.5q0 -30 -9.5 -55t-28 -47t-45.5 -41.5t-61 -39.5z" />
    <glyph glyph-name="uniFBF2" unicode="&#xfbf2;" horiz-adv-x="908" arabic-form="isolated" 
d="M584 0q-5 0 -5 5v83q0 4 5 4h130v396h109v-488h-239zM626 604l50 7q-18 11 -28 27.5t-10 37.5q0 43 28.5 66.5t76.5 23.5q42 0 71 -16l-17 -47q-11 7 -23.5 10t-27.5 3q-22 0 -36.5 -13t-14.5 -37q0 -17 8.5 -29t21.5 -18q22 5 41.5 7.5t35 4t23.5 1.5v-52
q-19 -1 -44.5 -3.5t-53.5 -6t-54.5 -7.5t-46.5 -7v48zM594 92q5 0 5 -4v-83q0 -5 -5 -5h-181q-5 0 -5 5v83q0 4 5 4h181zM256 -240q-57 0 -103.5 12t-87.5 38l46 81q35 -18 70 -28.5t75 -10.5q65 0 100.5 34.5t35.5 92.5v21h-98q-107 0 -165 59t-58 171q0 81 36.5 138.5
t101.5 88.5t151 31h138v-505q0 -106 -63.5 -164.5t-178.5 -58.5zM392 92v304h-40q-80 0 -125 -43t-45 -121q0 -72 30.5 -106t93.5 -34h86zM437 792l-110 -199h-75l-111 199h85l63 -129l65 129h83z" />
    <glyph glyph-name="uniFBF3" unicode="&#xfbf3;" horiz-adv-x="948" arabic-form="final" 
d="M584 0q-5 0 -5 5v83q0 4 5 4h130v396h109v-396h130q5 0 5 -4v-83q0 -5 -5 -5h-369zM626 624l50 7q-18 11 -28 27.5t-10 37.5q0 43 28.5 66.5t76.5 23.5q42 0 71 -16l-17 -47q-11 7 -23.5 10t-27.5 3q-22 0 -36.5 -13t-14.5 -37q0 -17 8.5 -29t21.5 -18q22 5 41.5 7.5
t35 4t23.5 1.5v-52q-19 -1 -44.5 -3.5t-53.5 -6t-54.5 -7.5t-46.5 -7v48zM594 92q5 0 5 -4v-83q0 -5 -5 -5h-181q-5 0 -5 5v83q0 4 5 4h181zM256 -240q-57 0 -103.5 12t-87.5 38l46 81q35 -18 70 -28.5t75 -10.5q65 0 100.5 34.5t35.5 92.5v21h-98q-107 0 -165 59t-58 171
q0 81 36.5 138.5t101.5 88.5t151 31h138v-505q0 -106 -63.5 -164.5t-178.5 -58.5zM392 92v304h-40q-80 0 -125 -43t-45 -121q0 -72 30.5 -106t93.5 -34h86zM437 792l-110 -199h-75l-111 199h85l63 -129l65 129h83z" />
    <glyph glyph-name="uniFBF4" unicode="&#xfbf4;" horiz-adv-x="908" arabic-form="isolated" 
d="M584 0q-5 0 -5 5v83q0 4 5 4h130v396h109v-488h-239zM626 604l50 7q-18 11 -28 27.5t-10 37.5q0 43 28.5 66.5t76.5 23.5q42 0 71 -16l-17 -47q-11 7 -23.5 10t-27.5 3q-22 0 -36.5 -13t-14.5 -37q0 -17 8.5 -29t21.5 -18q22 5 41.5 7.5t35 4t23.5 1.5v-52
q-19 -1 -44.5 -3.5t-53.5 -6t-54.5 -7.5t-46.5 -7v48zM594 92q5 0 5 -4v-83q0 -5 -5 -5h-181q-5 0 -5 5v83q0 4 5 4h181zM256 -240q-57 0 -103.5 12t-87.5 38l46 81q35 -18 70 -28.5t75 -10.5q65 0 100.5 34.5t35.5 92.5v21h-98q-107 0 -165 59t-58 171q0 81 36.5 138.5
t101.5 88.5t151 31h138v-505q0 -106 -63.5 -164.5t-178.5 -58.5zM392 92v304h-40q-80 0 -125 -43t-45 -121q0 -72 30.5 -106t93.5 -34h86zM260 777h60v-194h-60v194z" />
    <glyph glyph-name="uniFBF5" unicode="&#xfbf5;" horiz-adv-x="948" arabic-form="final" 
d="M584 0q-5 0 -5 5v83q0 4 5 4h130v396h109v-396h130q5 0 5 -4v-83q0 -5 -5 -5h-369zM626 624l50 7q-18 11 -28 27.5t-10 37.5q0 43 28.5 66.5t76.5 23.5q42 0 71 -16l-17 -47q-11 7 -23.5 10t-27.5 3q-22 0 -36.5 -13t-14.5 -37q0 -17 8.5 -29t21.5 -18q22 5 41.5 7.5
t35 4t23.5 1.5v-52q-19 -1 -44.5 -3.5t-53.5 -6t-54.5 -7.5t-46.5 -7v48zM594 92q5 0 5 -4v-83q0 -5 -5 -5h-181q-5 0 -5 5v83q0 4 5 4h181zM256 -240q-57 0 -103.5 12t-87.5 38l46 81q35 -18 70 -28.5t75 -10.5q65 0 100.5 34.5t35.5 92.5v21h-98q-107 0 -165 59t-58 171
q0 81 36.5 138.5t101.5 88.5t151 31h138v-505q0 -106 -63.5 -164.5t-178.5 -58.5zM392 92v304h-40q-80 0 -125 -43t-45 -121q0 -72 30.5 -106t93.5 -34h86zM260 777h60v-194h-60v194z" />
    <glyph glyph-name="uniFBF6" unicode="&#xfbf6;" horiz-adv-x="1296" arabic-form="isolated" 
d="M973 0q-5 0 -5 5v83q0 4 5 4h130v396h109v-488h-239zM1015 604l50 7q-18 11 -28 27.5t-10 37.5q0 43 28.5 66.5t76.5 23.5q42 0 71 -16l-17 -47q-11 7 -23.5 10t-27.5 3q-22 0 -36.5 -13t-14.5 -37q0 -17 8.5 -29t21.5 -18q22 5 41.5 7.5t35 4t23.5 1.5v-52
q-19 -1 -44.5 -3.5t-53.5 -6t-54.5 -7.5t-46.5 -7v48zM266 -240q-62 0 -107 30t-69.5 83t-24.5 124q0 51 8.5 95t25.5 89h100q-15 -42 -20.5 -80.5t-5.5 -92.5q0 -47 15.5 -82t44 -54.5t66.5 -19.5h182q45 0 80.5 9.5t56 27t20.5 41.5q0 19 -17.5 33t-55.5 24
q-51 15 -86.5 31.5t-53 42.5t-17.5 67q0 28 9 56t27 55q24 37 57.5 65t71.5 44t74 16q16 0 31 -2.5t29 -9.5q28 -13 53.5 -40t62.5 -84q29 -45 51 -73t39 -40q15 -11 31 -17t34 -6h5q5 0 5 -4v-83q0 -5 -5 -5h-5q-31 0 -58 8t-53 25t-53 45q-5 6 -18 23.5t-33 45.5
q-24 34 -43 56t-33 35q-13 11 -26.5 16.5t-26.5 5.5q-18 0 -39 -11.5t-39.5 -29.5t-30 -38.5t-11.5 -37.5q0 -14 9.5 -25t26.5 -18.5t38 -14.5q35 -10 59.5 -19.5t39.5 -18.5q30 -17 45.5 -40.5t15.5 -54.5q0 -95 -66.5 -143.5t-200.5 -48.5h-215zM391 -644
q-27 0 -43.5 16.5t-16.5 47.5t16 47.5t44 16.5t43.5 -17t15.5 -47q0 -29 -15.5 -46.5t-43.5 -17.5zM391 -461q-27 0 -43.5 16.5t-16.5 47.5t16 47.5t44 16.5t43.5 -17.5t15.5 -46.5q0 -30 -15.5 -47t-43.5 -17z" />
    <glyph glyph-name="uniFBF7" unicode="&#xfbf7;" horiz-adv-x="1336" arabic-form="final" 
d="M973 0q-5 0 -5 5v83q0 4 5 4h130v396h109v-396h130q5 0 5 -4v-83q0 -5 -5 -5h-369zM1015 624l50 7q-18 11 -28 27.5t-10 37.5q0 43 28.5 66.5t76.5 23.5q42 0 71 -16l-17 -47q-11 7 -23.5 10t-27.5 3q-22 0 -36.5 -13t-14.5 -37q0 -17 8.5 -29t21.5 -18q22 5 41.5 7.5
t35 4t23.5 1.5v-52q-19 -1 -44.5 -3.5t-53.5 -6t-54.5 -7.5t-46.5 -7v48zM266 -240q-62 0 -107 30t-69.5 83t-24.5 124q0 51 8.5 95t25.5 89h100q-15 -42 -20.5 -80.5t-5.5 -92.5q0 -47 15.5 -82t44 -54.5t66.5 -19.5h182q45 0 80.5 9.5t56 27t20.5 41.5q0 19 -17.5 33
t-55.5 24q-51 15 -86.5 31.5t-53 42.5t-17.5 67q0 28 9 56t27 55q24 37 57.5 65t71.5 44t74 16q16 0 31 -2.5t29 -9.5q28 -13 53.5 -40t62.5 -84q29 -45 51 -73t39 -40q15 -11 31 -17t34 -6h5q5 0 5 -4v-83q0 -5 -5 -5h-5q-31 0 -58 8t-53 25t-53 45q-5 6 -18 23.5t-33 45.5
q-24 34 -43 56t-33 35q-13 11 -26.5 16.5t-26.5 5.5q-18 0 -39 -11.5t-39.5 -29.5t-30 -38.5t-11.5 -37.5q0 -14 9.5 -25t26.5 -18.5t38 -14.5q35 -10 59.5 -19.5t39.5 -18.5q30 -17 45.5 -40.5t15.5 -54.5q0 -95 -66.5 -143.5t-200.5 -48.5h-215zM391 -644
q-27 0 -43.5 16.5t-16.5 47.5t16 47.5t44 16.5t43.5 -17t15.5 -47q0 -29 -15.5 -46.5t-43.5 -17.5zM391 -461q-27 0 -43.5 16.5t-16.5 47.5t16 47.5t44 16.5t43.5 -17.5t15.5 -46.5q0 -30 -15.5 -47t-43.5 -17z" />
    <glyph glyph-name="uniFBF8" unicode="&#xfbf8;" horiz-adv-x="727" arabic-form="initial" 
d="M404 0q-5 0 -5 5v83q0 4 5 4h130v396h109v-488h-239zM446 604l50 7q-18 11 -28 27.5t-10 37.5q0 43 28.5 66.5t76.5 23.5q42 0 71 -16l-17 -47q-11 7 -23.5 10t-27.5 3q-22 0 -36.5 -13t-14.5 -37q0 -17 8.5 -29t21.5 -18q22 5 41.5 7.5t35 4t23.5 1.5v-52
q-19 -1 -44.5 -3.5t-53.5 -6t-54.5 -7.5t-46.5 -7v48zM-5 0q-5 0 -5 5v83q0 4 5 4h160v396h109v-396h150q5 0 5 -4v-83q0 -5 -5 -5h-419zM194 -400q-27 0 -43.5 16.5t-16.5 47.5t16 47.5t44 16.5t43.5 -17t15.5 -47q0 -29 -15.5 -46.5t-43.5 -17.5zM194 -217
q-27 0 -43.5 16.5t-16.5 47.5t16 47.5t44 16.5t43.5 -17.5t15.5 -46.5q0 -30 -15.5 -47t-43.5 -17z" />
    <glyph glyph-name="uniFBF9" unicode="&#xfbf9;" horiz-adv-x="1296" arabic-form="isolated" 
d="M973 0q-5 0 -5 5v83q0 4 5 4h130v396h109v-488h-239zM1015 604l50 7q-18 11 -28 27.5t-10 37.5q0 43 28.5 66.5t76.5 23.5q42 0 71 -16l-17 -47q-11 7 -23.5 10t-27.5 3q-22 0 -36.5 -13t-14.5 -37q0 -17 8.5 -29t21.5 -18q22 5 41.5 7.5t35 4t23.5 1.5v-52
q-19 -1 -44.5 -3.5t-53.5 -6t-54.5 -7.5t-46.5 -7v48zM266 -240q-62 0 -107 30t-69.5 83t-24.5 124q0 51 8.5 95t25.5 89h100q-15 -42 -20.5 -80.5t-5.5 -92.5q0 -47 15.5 -82t44 -54.5t66.5 -19.5h182q45 0 80.5 9.5t56 27t20.5 41.5q0 19 -17.5 33t-55.5 24
q-51 15 -86.5 31.5t-53 42.5t-17.5 67q0 28 9 56t27 55q24 37 57.5 65t71.5 44t74 16q16 0 31 -2.5t29 -9.5q28 -13 53.5 -40t62.5 -84q29 -45 51 -73t39 -40q15 -11 31 -17t34 -6h5q5 0 5 -4v-83q0 -5 -5 -5h-5q-31 0 -58 8t-53 25t-53 45q-5 6 -18 23.5t-33 45.5
q-24 34 -43 56t-33 35q-13 11 -26.5 16.5t-26.5 5.5q-18 0 -39 -11.5t-39.5 -29.5t-30 -38.5t-11.5 -37.5q0 -14 9.5 -25t26.5 -18.5t38 -14.5q35 -10 59.5 -19.5t39.5 -18.5q30 -17 45.5 -40.5t15.5 -54.5q0 -95 -66.5 -143.5t-200.5 -48.5h-215z" />
    <glyph glyph-name="uniFBFA" unicode="&#xfbfa;" horiz-adv-x="1336" arabic-form="final" 
d="M973 0q-5 0 -5 5v83q0 4 5 4h130v396h109v-396h130q5 0 5 -4v-83q0 -5 -5 -5h-369zM1015 624l50 7q-18 11 -28 27.5t-10 37.5q0 43 28.5 66.5t76.5 23.5q42 0 71 -16l-17 -47q-11 7 -23.5 10t-27.5 3q-22 0 -36.5 -13t-14.5 -37q0 -17 8.5 -29t21.5 -18q22 5 41.5 7.5
t35 4t23.5 1.5v-52q-19 -1 -44.5 -3.5t-53.5 -6t-54.5 -7.5t-46.5 -7v48zM266 -240q-62 0 -107 30t-69.5 83t-24.5 124q0 51 8.5 95t25.5 89h100q-15 -42 -20.5 -80.5t-5.5 -92.5q0 -47 15.5 -82t44 -54.5t66.5 -19.5h182q45 0 80.5 9.5t56 27t20.5 41.5q0 19 -17.5 33
t-55.5 24q-51 15 -86.5 31.5t-53 42.5t-17.5 67q0 28 9 56t27 55q24 37 57.5 65t71.5 44t74 16q16 0 31 -2.5t29 -9.5q28 -13 53.5 -40t62.5 -84q29 -45 51 -73t39 -40q15 -11 31 -17t34 -6h5q5 0 5 -4v-83q0 -5 -5 -5h-5q-31 0 -58 8t-53 25t-53 45q-5 6 -18 23.5t-33 45.5
q-24 34 -43 56t-33 35q-13 11 -26.5 16.5t-26.5 5.5q-18 0 -39 -11.5t-39.5 -29.5t-30 -38.5t-11.5 -37.5q0 -14 9.5 -25t26.5 -18.5t38 -14.5q35 -10 59.5 -19.5t39.5 -18.5q30 -17 45.5 -40.5t15.5 -54.5q0 -95 -66.5 -143.5t-200.5 -48.5h-215z" />
    <glyph glyph-name="uniFBFB" unicode="&#xfbfb;" horiz-adv-x="677" arabic-form="initial" 
d="M354 0q-5 0 -5 5v83q0 4 5 4h130v396h109v-488h-239zM396 604l50 7q-18 11 -28 27.5t-10 37.5q0 43 28.5 66.5t76.5 23.5q42 0 71 -16l-17 -47q-11 7 -23.5 10t-27.5 3q-22 0 -36.5 -13t-14.5 -37q0 -17 8.5 -29t21.5 -18q22 5 41.5 7.5t35 4t23.5 1.5v-52
q-19 -1 -44.5 -3.5t-53.5 -6t-54.5 -7.5t-46.5 -7v48zM-5 0q-5 0 -5 5v83q0 4 5 4h130v396h109v-396h130q5 0 5 -4v-83q0 -5 -5 -5h-369z" />
    <glyph glyph-name="uni0649.fina" unicode="&#x649;" horiz-adv-x="978" arabic-form="final" 
d="M266 -240q-62 0 -107 30t-69.5 83t-24.5 124q0 51 8.5 95t25.5 89h100q-15 -42 -20.5 -80.5t-5.5 -92.5q0 -47 15.5 -82t44 -54.5t66.5 -19.5h182q45 0 80.5 9.5t56 27t20.5 41.5q0 19 -17.5 33t-55.5 24q-51 15 -86.5 31.5t-53 42.5t-17.5 67q0 28 9 56t27 55
q24 37 57.5 65t71.5 44t74 16q16 0 31 -2.5t29 -9.5q28 -13 53.5 -40t62.5 -84q29 -45 51 -73t39 -40q15 -11 31 -17t34 -6h5q5 0 5 -4v-83q0 -5 -5 -5h-5q-31 0 -58 8t-53 25t-53 45q-5 6 -18 23.5t-33 45.5q-24 34 -43 56t-33 35q-13 11 -26.5 16.5t-26.5 5.5
q-18 0 -39 -11.5t-39.5 -29.5t-30 -38.5t-11.5 -37.5q0 -14 9.5 -25t26.5 -18.5t38 -14.5q35 -10 59.5 -19.5t39.5 -18.5q30 -17 45.5 -40.5t15.5 -54.5q0 -95 -66.5 -143.5t-200.5 -48.5h-215z" />
    <glyph glyph-name="uniFEF3" unicode="&#x64a;" horiz-adv-x="384" arabic-form="initial" 
d="M-5 0q-5 0 -5 5v83q0 4 5 4h186v396h109v-488h-295zM98 -211q-26 0 -43 16t-17 48q0 33 17 48.5t43 15.5q27 0 43 -16.5t16 -47.5q0 -30 -16 -47t-43 -17zM270 -211q-28 0 -44 17t-16 47q0 31 16 47.5t44 16.5t43.5 -17.5t15.5 -46.5t-15.5 -46.5t-43.5 -17.5z" />
    <glyph glyph-name="uniFEF4" unicode="&#x64a;" horiz-adv-x="409" arabic-form="medial" 
d="M-5 0q-5 0 -5 5v83q0 4 5 4h160v396h109v-396h150q5 0 5 -4v-83q0 -5 -5 -5h-419zM109 -211q-26 0 -43 16t-17 48q0 33 17 48.5t43 15.5q27 0 43 -16.5t16 -47.5q0 -30 -16 -47t-43 -17zM281 -211q-28 0 -44 17t-16 47q0 31 16 47.5t44 16.5t43.5 -17.5t15.5 -46.5
t-15.5 -46.5t-43.5 -17.5z" />
    <glyph glyph-name="uniFC00" unicode="&#xfc00;" horiz-adv-x="943" arabic-form="isolated" 
d="M619 0q-5 0 -5 5v83q0 4 5 4h130v396h109v-488h-239zM661 604l50 7q-18 11 -28 27.5t-10 37.5q0 43 28.5 66.5t76.5 23.5q42 0 71 -16l-17 -47q-11 7 -23.5 10t-27.5 3q-22 0 -36.5 -13t-14.5 -37q0 -17 8.5 -29t21.5 -18q22 5 41.5 7.5t35 4t23.5 1.5v-52
q-19 -1 -44.5 -3.5t-53.5 -6t-54.5 -7.5t-46.5 -7v48zM260 -323q-66 0 -114.5 24t-74.5 68.5t-26 105.5q0 39 13.5 73.5t39.5 64.5q26 32 67.5 59.5t103 53.5t148.5 50q-5 18 -10.5 40t-10.5 47q-9 49 -27.5 80.5t-47 47t-67.5 15.5q-35 0 -81 -13.5t-86 -34.5l-41 82
q28 18 64.5 30.5t76.5 20t78 7.5q65 0 111.5 -22.5t75 -68t39.5 -114.5q8 -45 17 -77.5t18 -52.5q16 -35 40 -53t58 -18h5q5 0 5 -4v-83q0 -5 -5 -5h-5q-39 0 -71 9.5t-56 31t-44 54.5q-60 -16 -105 -31.5t-75 -30.5q-60 -30 -89.5 -67t-29.5 -83q0 -55 33.5 -84.5
t94.5 -29.5zM454 -253q-27 0 -43 17t-16 47q0 31 15.5 47.5t43.5 16.5q29 0 44.5 -17t15.5 -47q0 -29 -16 -46.5t-44 -17.5z" />
    <glyph glyph-name="uniFC01" unicode="&#xfc01;" horiz-adv-x="943" arabic-form="isolated" 
d="M619 0q-5 0 -5 5v83q0 4 5 4h130v396h109v-488h-239zM661 604l50 7q-18 11 -28 27.5t-10 37.5q0 43 28.5 66.5t76.5 23.5q42 0 71 -16l-17 -47q-11 7 -23.5 10t-27.5 3q-22 0 -36.5 -13t-14.5 -37q0 -17 8.5 -29t21.5 -18q22 5 41.5 7.5t35 4t23.5 1.5v-52
q-19 -1 -44.5 -3.5t-53.5 -6t-54.5 -7.5t-46.5 -7v48zM624 0q-39 0 -71 9.5t-56 31t-44 54.5q-39 -11 -72.5 -21.5t-60.5 -20.5t-47 -20q-60 -31 -89.5 -67.5t-29.5 -82.5q0 -37 16 -62.5t47 -38.5t77 -13q28 0 64.5 4.5t82.5 13.5l13 -82q-51 -13 -101 -20.5t-93 -7.5
q-66 0 -114.5 24t-74.5 68.5t-26 105.5q0 39 13.5 73.5t39.5 64.5q26 32 67.5 59.5t103 53.5t148.5 50q-5 18 -10.5 40t-10.5 47q-9 49 -27.5 80.5t-47 47t-67.5 15.5q-35 0 -81 -13.5t-86 -34.5l-41 82q42 26 102 42t117 16q65 0 111.5 -22.5t75.5 -69t40 -117.5
q7 -40 15.5 -71.5t16.5 -51.5q17 -36 41 -55t59 -19h5q5 0 5 -4v-83q0 -5 -5 -5h-5z" />
    <glyph glyph-name="uniFC02" unicode="&#xfc02;" horiz-adv-x="1020" arabic-form="isolated" 
d="M696 0q-5 0 -5 5v83q0 4 5 4h130v396h109v-488h-239zM738 604l50 7q-18 11 -28 27.5t-10 37.5q0 43 28.5 66.5t76.5 23.5q42 0 71 -16l-17 -47q-11 7 -23.5 10t-27.5 3q-22 0 -36.5 -13t-14.5 -37q0 -17 8.5 -29t21.5 -18q22 5 41.5 7.5t35 4t23.5 1.5v-52
q-19 -1 -44.5 -3.5t-53.5 -6t-54.5 -7.5t-46.5 -7v48zM245 0q-38 0 -56 -18t-18 -56v-246h-106v272q0 43 15.5 74t43.5 48.5t65 17.5h6q-17 42 -25.5 82t-8.5 78q0 44 11 87.5t30 78.5q40 29 90 46.5t98 17.5q32 0 61 -7t54 -21q50 -28 77 -80t27 -118q0 -30 -4.5 -58.5
t-15.5 -54.5q21 -29 46.5 -40t65.5 -11h5q5 0 5 -4v-83q0 -5 -5 -5h-5q-53 0 -90.5 14.5t-72.5 51.5q-34 -33 -78.5 -49.5t-93.5 -16.5h-121zM267 256q0 -39 7.5 -78.5t25.5 -85.5h60q43 0 74 20t48 57t17 87q0 60 -31.5 97t-78.5 37q-28 0 -55.5 -9t-53.5 -27
q-8 -23 -10.5 -47t-2.5 -51z" />
    <glyph glyph-name="uniFC03" unicode="&#xfc03;" horiz-adv-x="1296" arabic-form="isolated" 
d="M973 0q-5 0 -5 5v83q0 4 5 4h130v396h109v-488h-239zM1015 604l50 7q-18 11 -28 27.5t-10 37.5q0 43 28.5 66.5t76.5 23.5q42 0 71 -16l-17 -47q-11 7 -23.5 10t-27.5 3q-22 0 -36.5 -13t-14.5 -37q0 -17 8.5 -29t21.5 -18q22 5 41.5 7.5t35 4t23.5 1.5v-52
q-19 -1 -44.5 -3.5t-53.5 -6t-54.5 -7.5t-46.5 -7v48zM266 -240q-62 0 -107 30t-69.5 83t-24.5 124q0 51 8.5 95t25.5 89h100q-15 -42 -20.5 -80.5t-5.5 -92.5q0 -47 15.5 -82t44 -54.5t66.5 -19.5h182q45 0 80.5 9.5t56 27t20.5 41.5q0 19 -17.5 33t-55.5 24
q-51 15 -86.5 31.5t-53 42.5t-17.5 67q0 28 9 56t27 55q24 37 57.5 65t71.5 44t74 16q16 0 31 -2.5t29 -9.5q28 -13 53.5 -40t62.5 -84q29 -45 51 -73t39 -40q15 -11 31 -17t34 -6h5q5 0 5 -4v-83q0 -5 -5 -5h-5q-31 0 -58 8t-53 25t-53 45q-5 6 -18 23.5t-33 45.5
q-24 34 -43 56t-33 35q-13 11 -26.5 16.5t-26.5 5.5q-18 0 -39 -11.5t-39.5 -29.5t-30 -38.5t-11.5 -37.5q0 -14 9.5 -25t26.5 -18.5t38 -14.5q35 -10 59.5 -19.5t39.5 -18.5q30 -17 45.5 -40.5t15.5 -54.5q0 -95 -66.5 -143.5t-200.5 -48.5h-215z" />
    <glyph glyph-name="uniFC04" unicode="&#xfc04;" horiz-adv-x="1296" arabic-form="isolated" 
d="M973 0q-5 0 -5 5v83q0 4 5 4h130v396h109v-488h-239zM1015 604l50 7q-18 11 -28 27.5t-10 37.5q0 43 28.5 66.5t76.5 23.5q42 0 71 -16l-17 -47q-11 7 -23.5 10t-27.5 3q-22 0 -36.5 -13t-14.5 -37q0 -17 8.5 -29t21.5 -18q22 5 41.5 7.5t35 4t23.5 1.5v-52
q-19 -1 -44.5 -3.5t-53.5 -6t-54.5 -7.5t-46.5 -7v48zM266 -240q-62 0 -107 30t-69.5 83t-24.5 124q0 51 8.5 95t25.5 89h100q-15 -42 -20.5 -80.5t-5.5 -92.5q0 -47 15.5 -82t44 -54.5t66.5 -19.5h182q45 0 80.5 9.5t56 27t20.5 41.5q0 19 -17.5 33t-55.5 24
q-51 15 -86.5 31.5t-53 42.5t-17.5 67q0 28 9 56t27 55q24 37 57.5 65t71.5 44t74 16q16 0 31 -2.5t29 -9.5q28 -13 53.5 -40t62.5 -84q29 -45 51 -73t39 -40q15 -11 31 -17t34 -6h5q5 0 5 -4v-83q0 -5 -5 -5h-5q-31 0 -58 8t-53 25t-53 45q-5 6 -18 23.5t-33 45.5
q-24 34 -43 56t-33 35q-13 11 -26.5 16.5t-26.5 5.5q-18 0 -39 -11.5t-39.5 -29.5t-30 -38.5t-11.5 -37.5q0 -14 9.5 -25t26.5 -18.5t38 -14.5q35 -10 59.5 -19.5t39.5 -18.5q30 -17 45.5 -40.5t15.5 -54.5q0 -95 -66.5 -143.5t-200.5 -48.5h-215zM305 -455q-26 0 -43 16
t-17 48q0 33 17 48.5t43 15.5q27 0 43 -16.5t16 -47.5q0 -30 -16 -47t-43 -17zM477 -455q-28 0 -44 17t-16 47q0 31 16 47.5t44 16.5t43.5 -17.5t15.5 -46.5t-15.5 -46.5t-43.5 -17.5z" />
    <glyph glyph-name="uniFC05" unicode="&#xfc05;" horiz-adv-x="943" arabic-form="isolated" 
d="M619 0q-5 0 -5 5v83q0 4 5 4h130v396h109v-488h-239zM752 -229q-28 0 -44 17t-16 47q0 31 16 47.5t44 16.5t43.5 -17t15.5 -47q0 -29 -15.5 -46.5t-43.5 -17.5zM260 -323q-66 0 -114.5 24t-74.5 68.5t-26 105.5q0 39 13.5 73.5t39.5 64.5q26 32 67.5 59.5t103 53.5
t148.5 50q-5 18 -10.5 40t-10.5 47q-9 49 -27.5 80.5t-47 47t-67.5 15.5q-35 0 -81 -13.5t-86 -34.5l-41 82q28 18 64.5 30.5t76.5 20t78 7.5q65 0 111.5 -22.5t75 -68t39.5 -114.5q8 -45 17 -77.5t18 -52.5q16 -35 40 -53t58 -18h5q5 0 5 -4v-83q0 -5 -5 -5h-5
q-39 0 -71 9.5t-56 31t-44 54.5q-60 -16 -105 -31.5t-75 -30.5q-60 -30 -89.5 -67t-29.5 -83q0 -55 33.5 -84.5t94.5 -29.5zM454 -253q-27 0 -43 17t-16 47q0 31 15.5 47.5t43.5 16.5q29 0 44.5 -17t15.5 -47q0 -29 -16 -46.5t-44 -17.5z" />
    <glyph glyph-name="uniFC06" unicode="&#xfc06;" horiz-adv-x="943" arabic-form="isolated" 
d="M619 0q-5 0 -5 5v83q0 4 5 4h130v396h109v-488h-239zM752 -229q-28 0 -44 17t-16 47q0 31 16 47.5t44 16.5t43.5 -17t15.5 -47q0 -29 -15.5 -46.5t-43.5 -17.5zM624 0q-39 0 -71 9.5t-56 31t-44 54.5q-39 -11 -72.5 -21.5t-60.5 -20.5t-47 -20q-60 -31 -89.5 -67.5
t-29.5 -82.5q0 -37 16 -62.5t47 -38.5t77 -13q28 0 64.5 4.5t82.5 13.5l13 -82q-51 -13 -101 -20.5t-93 -7.5q-66 0 -114.5 24t-74.5 68.5t-26 105.5q0 39 13.5 73.5t39.5 64.5q26 32 67.5 59.5t103 53.5t148.5 50q-5 18 -10.5 40t-10.5 47q-9 49 -27.5 80.5t-47 47
t-67.5 15.5q-35 0 -81 -13.5t-86 -34.5l-41 82q42 26 102 42t117 16q65 0 111.5 -22.5t75.5 -69t40 -117.5q7 -40 15.5 -71.5t16.5 -51.5q17 -36 41 -55t59 -19h5q5 0 5 -4v-83q0 -5 -5 -5h-5z" />
    <glyph glyph-name="uniFC07" unicode="&#xfc07;" horiz-adv-x="943" arabic-form="isolated" 
d="M619 0q-5 0 -5 5v83q0 4 5 4h130v396h109v-488h-239zM752 -229q-28 0 -44 17t-16 47q0 31 16 47.5t44 16.5t43.5 -17t15.5 -47q0 -29 -15.5 -46.5t-43.5 -17.5zM624 0q-39 0 -71 9.5t-56 31t-44 54.5q-39 -11 -72.5 -21.5t-60.5 -20.5t-47 -20q-60 -31 -89.5 -67.5
t-29.5 -82.5q0 -37 16 -62.5t47 -38.5t77 -13q28 0 64.5 4.5t82.5 13.5l13 -82q-51 -13 -101 -20.5t-93 -7.5q-66 0 -114.5 24t-74.5 68.5t-26 105.5q0 39 13.5 73.5t39.5 64.5q26 32 67.5 59.5t103 53.5t148.5 50q-5 18 -10.5 40t-10.5 47q-9 49 -27.5 80.5t-47 47
t-67.5 15.5q-35 0 -81 -13.5t-86 -34.5l-41 82q42 26 102 42t117 16q65 0 111.5 -22.5t75.5 -69t40 -117.5q7 -40 15.5 -71.5t16.5 -51.5q17 -36 41 -55t59 -19h5q5 0 5 -4v-83q0 -5 -5 -5h-5zM251 607q-27 0 -43 17t-16 47q0 31 15.5 47.5t43.5 16.5q29 0 44.5 -17
t15.5 -47q0 -29 -16 -46.5t-44 -17.5z" />
    <glyph glyph-name="uniFC08" unicode="&#xfc08;" horiz-adv-x="1020" arabic-form="isolated" 
d="M696 0q-5 0 -5 5v83q0 4 5 4h130v396h109v-488h-239zM829 -229q-28 0 -44 17t-16 47q0 31 16 47.5t44 16.5t43.5 -17t15.5 -47q0 -29 -15.5 -46.5t-43.5 -17.5zM245 0q-38 0 -56 -18t-18 -56v-246h-106v272q0 43 15.5 74t43.5 48.5t65 17.5h6q-17 42 -25.5 82t-8.5 78
q0 44 11 87.5t30 78.5q40 29 90 46.5t98 17.5q32 0 61 -7t54 -21q50 -28 77 -80t27 -118q0 -30 -4.5 -58.5t-15.5 -54.5q21 -29 46.5 -40t65.5 -11h5q5 0 5 -4v-83q0 -5 -5 -5h-5q-53 0 -90.5 14.5t-72.5 51.5q-34 -33 -78.5 -49.5t-93.5 -16.5h-121zM267 256
q0 -39 7.5 -78.5t25.5 -85.5h60q43 0 74 20t48 57t17 87q0 60 -31.5 97t-78.5 37q-28 0 -55.5 -9t-53.5 -27q-8 -23 -10.5 -47t-2.5 -51z" />
    <glyph glyph-name="uniFC09" unicode="&#xfc09;" horiz-adv-x="1296" arabic-form="isolated" 
d="M973 0q-5 0 -5 5v83q0 4 5 4h130v396h109v-488h-239zM1105 -229q-28 0 -44 17t-16 47q0 31 16 47.5t44 16.5t43.5 -17t15.5 -47q0 -29 -15.5 -46.5t-43.5 -17.5zM266 -240q-62 0 -107 30t-69.5 83t-24.5 124q0 51 8.5 95t25.5 89h100q-15 -42 -20.5 -80.5t-5.5 -92.5
q0 -47 15.5 -82t44 -54.5t66.5 -19.5h182q45 0 80.5 9.5t56 27t20.5 41.5q0 19 -17.5 33t-55.5 24q-51 15 -86.5 31.5t-53 42.5t-17.5 67q0 28 9 56t27 55q24 37 57.5 65t71.5 44t74 16q16 0 31 -2.5t29 -9.5q28 -13 53.5 -40t62.5 -84q29 -45 51 -73t39 -40q15 -11 31 -17
t34 -6h5q5 0 5 -4v-83q0 -5 -5 -5h-5q-31 0 -58 8t-53 25t-53 45q-5 6 -18 23.5t-33 45.5q-24 34 -43 56t-33 35q-13 11 -26.5 16.5t-26.5 5.5q-18 0 -39 -11.5t-39.5 -29.5t-30 -38.5t-11.5 -37.5q0 -14 9.5 -25t26.5 -18.5t38 -14.5q35 -10 59.5 -19.5t39.5 -18.5
q30 -17 45.5 -40.5t15.5 -54.5q0 -95 -66.5 -143.5t-200.5 -48.5h-215z" />
    <glyph glyph-name="uniFC0A" unicode="&#xfc0a;" horiz-adv-x="1296" arabic-form="isolated" 
d="M973 0q-5 0 -5 5v83q0 4 5 4h130v396h109v-488h-239zM1105 -229q-28 0 -44 17t-16 47q0 31 16 47.5t44 16.5t43.5 -17t15.5 -47q0 -29 -15.5 -46.5t-43.5 -17.5zM266 -240q-62 0 -107 30t-69.5 83t-24.5 124q0 51 8.5 95t25.5 89h100q-15 -42 -20.5 -80.5t-5.5 -92.5
q0 -47 15.5 -82t44 -54.5t66.5 -19.5h182q45 0 80.5 9.5t56 27t20.5 41.5q0 19 -17.5 33t-55.5 24q-51 15 -86.5 31.5t-53 42.5t-17.5 67q0 28 9 56t27 55q24 37 57.5 65t71.5 44t74 16q16 0 31 -2.5t29 -9.5q28 -13 53.5 -40t62.5 -84q29 -45 51 -73t39 -40q15 -11 31 -17
t34 -6h5q5 0 5 -4v-83q0 -5 -5 -5h-5q-31 0 -58 8t-53 25t-53 45q-5 6 -18 23.5t-33 45.5q-24 34 -43 56t-33 35q-13 11 -26.5 16.5t-26.5 5.5q-18 0 -39 -11.5t-39.5 -29.5t-30 -38.5t-11.5 -37.5q0 -14 9.5 -25t26.5 -18.5t38 -14.5q35 -10 59.5 -19.5t39.5 -18.5
q30 -17 45.5 -40.5t15.5 -54.5q0 -95 -66.5 -143.5t-200.5 -48.5h-215zM305 -455q-26 0 -43 16t-17 48q0 33 17 48.5t43 15.5q27 0 43 -16.5t16 -47.5q0 -30 -16 -47t-43 -17zM477 -455q-28 0 -44 17t-16 47q0 31 16 47.5t44 16.5t43.5 -17.5t15.5 -46.5t-15.5 -46.5
t-43.5 -17.5z" />
    <glyph glyph-name="uniFC0B" unicode="&#xfc0b;" horiz-adv-x="943" arabic-form="isolated" 
d="M619 0q-5 0 -5 5v83q0 4 5 4h130v396h109v-488h-239zM686 599q-26 0 -43 16t-17 48q0 33 17 48.5t43 15.5q28 0 43.5 -16.5t15.5 -47.5q0 -30 -16 -47t-43 -17zM858 599q-28 0 -44 17t-16 47q0 31 16 47.5t44 16.5t43.5 -17t15.5 -47q0 -29 -15.5 -46.5t-43.5 -17.5z
M260 -323q-66 0 -114.5 24t-74.5 68.5t-26 105.5q0 39 13.5 73.5t39.5 64.5q26 32 67.5 59.5t103 53.5t148.5 50q-5 18 -10.5 40t-10.5 47q-9 49 -27.5 80.5t-47 47t-67.5 15.5q-35 0 -81 -13.5t-86 -34.5l-41 82q28 18 64.5 30.5t76.5 20t78 7.5q65 0 111.5 -22.5t75 -68
t39.5 -114.5q8 -45 17 -77.5t18 -52.5q16 -35 40 -53t58 -18h5q5 0 5 -4v-83q0 -5 -5 -5h-5q-39 0 -71 9.5t-56 31t-44 54.5q-60 -16 -105 -31.5t-75 -30.5q-60 -30 -89.5 -67t-29.5 -83q0 -55 33.5 -84.5t94.5 -29.5zM454 -253q-27 0 -43 17t-16 47q0 31 15.5 47.5
t43.5 16.5q29 0 44.5 -17t15.5 -47q0 -29 -16 -46.5t-44 -17.5z" />
    <glyph glyph-name="uniFC0C" unicode="&#xfc0c;" horiz-adv-x="943" arabic-form="isolated" 
d="M619 0q-5 0 -5 5v83q0 4 5 4h130v396h109v-488h-239zM686 599q-26 0 -43 16t-17 48q0 33 17 48.5t43 15.5q28 0 43.5 -16.5t15.5 -47.5q0 -30 -16 -47t-43 -17zM858 599q-28 0 -44 17t-16 47q0 31 16 47.5t44 16.5t43.5 -17t15.5 -47q0 -29 -15.5 -46.5t-43.5 -17.5z
M624 0q-39 0 -71 9.5t-56 31t-44 54.5q-39 -11 -72.5 -21.5t-60.5 -20.5t-47 -20q-60 -31 -89.5 -67.5t-29.5 -82.5q0 -37 16 -62.5t47 -38.5t77 -13q28 0 64.5 4.5t82.5 13.5l13 -82q-51 -13 -101 -20.5t-93 -7.5q-66 0 -114.5 24t-74.5 68.5t-26 105.5q0 39 13.5 73.5
t39.5 64.5q26 32 67.5 59.5t103 53.5t148.5 50q-5 18 -10.5 40t-10.5 47q-9 49 -27.5 80.5t-47 47t-67.5 15.5q-35 0 -81 -13.5t-86 -34.5l-41 82q42 26 102 42t117 16q65 0 111.5 -22.5t75.5 -69t40 -117.5q7 -40 15.5 -71.5t16.5 -51.5q17 -36 41 -55t59 -19h5q5 0 5 -4
v-83q0 -5 -5 -5h-5z" />
    <glyph glyph-name="uniFC0D" unicode="&#xfc0d;" horiz-adv-x="943" arabic-form="isolated" 
d="M619 0q-5 0 -5 5v83q0 4 5 4h130v396h109v-488h-239zM686 599q-26 0 -43 16t-17 48q0 33 17 48.5t43 15.5q28 0 43.5 -16.5t15.5 -47.5q0 -30 -16 -47t-43 -17zM858 599q-28 0 -44 17t-16 47q0 31 16 47.5t44 16.5t43.5 -17t15.5 -47q0 -29 -15.5 -46.5t-43.5 -17.5z
M624 0q-39 0 -71 9.5t-56 31t-44 54.5q-39 -11 -72.5 -21.5t-60.5 -20.5t-47 -20q-60 -31 -89.5 -67.5t-29.5 -82.5q0 -37 16 -62.5t47 -38.5t77 -13q28 0 64.5 4.5t82.5 13.5l13 -82q-51 -13 -101 -20.5t-93 -7.5q-66 0 -114.5 24t-74.5 68.5t-26 105.5q0 39 13.5 73.5
t39.5 64.5q26 32 67.5 59.5t103 53.5t148.5 50q-5 18 -10.5 40t-10.5 47q-9 49 -27.5 80.5t-47 47t-67.5 15.5q-35 0 -81 -13.5t-86 -34.5l-41 82q42 26 102 42t117 16q65 0 111.5 -22.5t75.5 -69t40 -117.5q7 -40 15.5 -71.5t16.5 -51.5q17 -36 41 -55t59 -19h5q5 0 5 -4
v-83q0 -5 -5 -5h-5zM251 607q-27 0 -43 17t-16 47q0 31 15.5 47.5t43.5 16.5q29 0 44.5 -17t15.5 -47q0 -29 -16 -46.5t-44 -17.5z" />
    <glyph glyph-name="uniFC0E" unicode="&#xfc0e;" horiz-adv-x="1020" arabic-form="isolated" 
d="M696 0q-5 0 -5 5v83q0 4 5 4h130v396h109v-488h-239zM763 599q-26 0 -43 16t-17 48q0 33 17 48.5t43 15.5q28 0 43.5 -16.5t15.5 -47.5q0 -30 -16 -47t-43 -17zM935 599q-28 0 -44 17t-16 47q0 31 16 47.5t44 16.5t43.5 -17t15.5 -47q0 -29 -15.5 -46.5t-43.5 -17.5z
M245 0q-38 0 -56 -18t-18 -56v-246h-106v272q0 43 15.5 74t43.5 48.5t65 17.5h6q-17 42 -25.5 82t-8.5 78q0 44 11 87.5t30 78.5q40 29 90 46.5t98 17.5q32 0 61 -7t54 -21q50 -28 77 -80t27 -118q0 -30 -4.5 -58.5t-15.5 -54.5q21 -29 46.5 -40t65.5 -11h5q5 0 5 -4v-83
q0 -5 -5 -5h-5q-53 0 -90.5 14.5t-72.5 51.5q-34 -33 -78.5 -49.5t-93.5 -16.5h-121zM267 256q0 -39 7.5 -78.5t25.5 -85.5h60q43 0 74 20t48 57t17 87q0 60 -31.5 97t-78.5 37q-28 0 -55.5 -9t-53.5 -27q-8 -23 -10.5 -47t-2.5 -51z" />
    <glyph glyph-name="uniFC0F" unicode="&#xfc0f;" horiz-adv-x="1296" arabic-form="isolated" 
d="M973 0q-5 0 -5 5v83q0 4 5 4h130v396h109v-488h-239zM1040 599q-26 0 -43 16t-17 48q0 33 17 48.5t43 15.5q28 0 43.5 -16.5t15.5 -47.5q0 -30 -16 -47t-43 -17zM1212 599q-28 0 -44 17t-16 47q0 31 16 47.5t44 16.5t43.5 -17t15.5 -47q0 -29 -15.5 -46.5t-43.5 -17.5z
M266 -240q-62 0 -107 30t-69.5 83t-24.5 124q0 51 8.5 95t25.5 89h100q-15 -42 -20.5 -80.5t-5.5 -92.5q0 -47 15.5 -82t44 -54.5t66.5 -19.5h182q45 0 80.5 9.5t56 27t20.5 41.5q0 19 -17.5 33t-55.5 24q-51 15 -86.5 31.5t-53 42.5t-17.5 67q0 28 9 56t27 55
q24 37 57.5 65t71.5 44t74 16q16 0 31 -2.5t29 -9.5q28 -13 53.5 -40t62.5 -84q29 -45 51 -73t39 -40q15 -11 31 -17t34 -6h5q5 0 5 -4v-83q0 -5 -5 -5h-5q-31 0 -58 8t-53 25t-53 45q-5 6 -18 23.5t-33 45.5q-24 34 -43 56t-33 35q-13 11 -26.5 16.5t-26.5 5.5
q-18 0 -39 -11.5t-39.5 -29.5t-30 -38.5t-11.5 -37.5q0 -14 9.5 -25t26.5 -18.5t38 -14.5q35 -10 59.5 -19.5t39.5 -18.5q30 -17 45.5 -40.5t15.5 -54.5q0 -95 -66.5 -143.5t-200.5 -48.5h-215z" />
    <glyph glyph-name="uniFC10" unicode="&#xfc10;" horiz-adv-x="1296" arabic-form="isolated" 
d="M973 0q-5 0 -5 5v83q0 4 5 4h130v396h109v-488h-239zM1040 599q-26 0 -43 16t-17 48q0 33 17 48.5t43 15.5q28 0 43.5 -16.5t15.5 -47.5q0 -30 -16 -47t-43 -17zM1212 599q-28 0 -44 17t-16 47q0 31 16 47.5t44 16.5t43.5 -17t15.5 -47q0 -29 -15.5 -46.5t-43.5 -17.5z
M266 -240q-62 0 -107 30t-69.5 83t-24.5 124q0 51 8.5 95t25.5 89h100q-15 -42 -20.5 -80.5t-5.5 -92.5q0 -47 15.5 -82t44 -54.5t66.5 -19.5h182q45 0 80.5 9.5t56 27t20.5 41.5q0 19 -17.5 33t-55.5 24q-51 15 -86.5 31.5t-53 42.5t-17.5 67q0 28 9 56t27 55
q24 37 57.5 65t71.5 44t74 16q16 0 31 -2.5t29 -9.5q28 -13 53.5 -40t62.5 -84q29 -45 51 -73t39 -40q15 -11 31 -17t34 -6h5q5 0 5 -4v-83q0 -5 -5 -5h-5q-31 0 -58 8t-53 25t-53 45q-5 6 -18 23.5t-33 45.5q-24 34 -43 56t-33 35q-13 11 -26.5 16.5t-26.5 5.5
q-18 0 -39 -11.5t-39.5 -29.5t-30 -38.5t-11.5 -37.5q0 -14 9.5 -25t26.5 -18.5t38 -14.5q35 -10 59.5 -19.5t39.5 -18.5q30 -17 45.5 -40.5t15.5 -54.5q0 -95 -66.5 -143.5t-200.5 -48.5h-215zM305 -455q-26 0 -43 16t-17 48q0 33 17 48.5t43 15.5q27 0 43 -16.5t16 -47.5
q0 -30 -16 -47t-43 -17zM477 -455q-28 0 -44 17t-16 47q0 31 16 47.5t44 16.5t43.5 -17.5t15.5 -46.5t-15.5 -46.5t-43.5 -17.5z" />
    <glyph glyph-name="uniFC11" unicode="&#xfc11;" horiz-adv-x="943" arabic-form="isolated" 
d="M619 0q-5 0 -5 5v83q0 4 5 4h130v396h109v-488h-239zM773 732q-22 0 -37.5 13.5t-15.5 43.5t15.5 43.5t37.5 13.5q23 0 38.5 -14.5t15.5 -42.5t-15.5 -42.5t-38.5 -14.5zM688 588q-26 0 -43 16t-17 48q0 33 17 48.5t43 15.5q28 0 43.5 -17t15.5 -47q0 -29 -15.5 -46.5
t-43.5 -17.5zM860 588q-28 0 -44 17t-16 47q0 31 16 47.5t44 16.5t43.5 -17t15.5 -47q0 -29 -15.5 -46.5t-43.5 -17.5zM260 -323q-66 0 -114.5 24t-74.5 68.5t-26 105.5q0 39 13.5 73.5t39.5 64.5q26 32 67.5 59.5t103 53.5t148.5 50q-5 18 -10.5 40t-10.5 47
q-9 49 -27.5 80.5t-47 47t-67.5 15.5q-35 0 -81 -13.5t-86 -34.5l-41 82q28 18 64.5 30.5t76.5 20t78 7.5q65 0 111.5 -22.5t75 -68t39.5 -114.5q8 -45 17 -77.5t18 -52.5q16 -35 40 -53t58 -18h5q5 0 5 -4v-83q0 -5 -5 -5h-5q-39 0 -71 9.5t-56 31t-44 54.5
q-60 -16 -105 -31.5t-75 -30.5q-60 -30 -89.5 -67t-29.5 -83q0 -55 33.5 -84.5t94.5 -29.5zM454 -253q-27 0 -43 17t-16 47q0 31 15.5 47.5t43.5 16.5q29 0 44.5 -17t15.5 -47q0 -29 -16 -46.5t-44 -17.5z" />
    <glyph glyph-name="uniFC12" unicode="&#xfc12;" horiz-adv-x="1020" arabic-form="isolated" 
d="M696 0q-5 0 -5 5v83q0 4 5 4h130v396h109v-488h-239zM850 732q-22 0 -37.5 13.5t-15.5 43.5t15.5 43.5t37.5 13.5q23 0 38.5 -14.5t15.5 -42.5t-15.5 -42.5t-38.5 -14.5zM765 588q-26 0 -43 16t-17 48q0 33 17 48.5t43 15.5q28 0 43.5 -17t15.5 -47q0 -29 -15.5 -46.5
t-43.5 -17.5zM937 588q-28 0 -44 17t-16 47q0 31 16 47.5t44 16.5t43.5 -17t15.5 -47q0 -29 -15.5 -46.5t-43.5 -17.5zM245 0q-38 0 -56 -18t-18 -56v-246h-106v272q0 43 15.5 74t43.5 48.5t65 17.5h6q-17 42 -25.5 82t-8.5 78q0 44 11 87.5t30 78.5q40 29 90 46.5t98 17.5
q32 0 61 -7t54 -21q50 -28 77 -80t27 -118q0 -30 -4.5 -58.5t-15.5 -54.5q21 -29 46.5 -40t65.5 -11h5q5 0 5 -4v-83q0 -5 -5 -5h-5q-53 0 -90.5 14.5t-72.5 51.5q-34 -33 -78.5 -49.5t-93.5 -16.5h-121zM267 256q0 -39 7.5 -78.5t25.5 -85.5h60q43 0 74 20t48 57t17 87
q0 60 -31.5 97t-78.5 37q-28 0 -55.5 -9t-53.5 -27q-8 -23 -10.5 -47t-2.5 -51z" />
    <glyph glyph-name="uniFC13" unicode="&#xfc13;" horiz-adv-x="1296" arabic-form="isolated" 
d="M973 0q-5 0 -5 5v83q0 4 5 4h130v396h109v-488h-239zM1127 732q-22 0 -37.5 13.5t-15.5 43.5t15.5 43.5t37.5 13.5q23 0 38.5 -14.5t15.5 -42.5t-15.5 -42.5t-38.5 -14.5zM1042 588q-26 0 -43 16t-17 48q0 33 17 48.5t43 15.5q28 0 43.5 -17t15.5 -47q0 -29 -15.5 -46.5
t-43.5 -17.5zM1214 588q-28 0 -44 17t-16 47q0 31 16 47.5t44 16.5t43.5 -17t15.5 -47q0 -29 -15.5 -46.5t-43.5 -17.5zM266 -240q-62 0 -107 30t-69.5 83t-24.5 124q0 51 8.5 95t25.5 89h100q-15 -42 -20.5 -80.5t-5.5 -92.5q0 -47 15.5 -82t44 -54.5t66.5 -19.5h182
q45 0 80.5 9.5t56 27t20.5 41.5q0 19 -17.5 33t-55.5 24q-51 15 -86.5 31.5t-53 42.5t-17.5 67q0 28 9 56t27 55q24 37 57.5 65t71.5 44t74 16q16 0 31 -2.5t29 -9.5q28 -13 53.5 -40t62.5 -84q29 -45 51 -73t39 -40q15 -11 31 -17t34 -6h5q5 0 5 -4v-83q0 -5 -5 -5h-5
q-31 0 -58 8t-53 25t-53 45q-5 6 -18 23.5t-33 45.5q-24 34 -43 56t-33 35q-13 11 -26.5 16.5t-26.5 5.5q-18 0 -39 -11.5t-39.5 -29.5t-30 -38.5t-11.5 -37.5q0 -14 9.5 -25t26.5 -18.5t38 -14.5q35 -10 59.5 -19.5t39.5 -18.5q30 -17 45.5 -40.5t15.5 -54.5
q0 -95 -66.5 -143.5t-200.5 -48.5h-215z" />
    <glyph glyph-name="uniFC14" unicode="&#xfc14;" horiz-adv-x="1296" arabic-form="isolated" 
d="M973 0q-5 0 -5 5v83q0 4 5 4h130v396h109v-488h-239zM1127 732q-22 0 -37.5 13.5t-15.5 43.5t15.5 43.5t37.5 13.5q23 0 38.5 -14.5t15.5 -42.5t-15.5 -42.5t-38.5 -14.5zM1042 588q-26 0 -43 16t-17 48q0 33 17 48.5t43 15.5q28 0 43.5 -17t15.5 -47q0 -29 -15.5 -46.5
t-43.5 -17.5zM1214 588q-28 0 -44 17t-16 47q0 31 16 47.5t44 16.5t43.5 -17t15.5 -47q0 -29 -15.5 -46.5t-43.5 -17.5zM266 -240q-62 0 -107 30t-69.5 83t-24.5 124q0 51 8.5 95t25.5 89h100q-15 -42 -20.5 -80.5t-5.5 -92.5q0 -47 15.5 -82t44 -54.5t66.5 -19.5h182
q45 0 80.5 9.5t56 27t20.5 41.5q0 19 -17.5 33t-55.5 24q-51 15 -86.5 31.5t-53 42.5t-17.5 67q0 28 9 56t27 55q24 37 57.5 65t71.5 44t74 16q16 0 31 -2.5t29 -9.5q28 -13 53.5 -40t62.5 -84q29 -45 51 -73t39 -40q15 -11 31 -17t34 -6h5q5 0 5 -4v-83q0 -5 -5 -5h-5
q-31 0 -58 8t-53 25t-53 45q-5 6 -18 23.5t-33 45.5q-24 34 -43 56t-33 35q-13 11 -26.5 16.5t-26.5 5.5q-18 0 -39 -11.5t-39.5 -29.5t-30 -38.5t-11.5 -37.5q0 -14 9.5 -25t26.5 -18.5t38 -14.5q35 -10 59.5 -19.5t39.5 -18.5q30 -17 45.5 -40.5t15.5 -54.5
q0 -95 -66.5 -143.5t-200.5 -48.5h-215zM305 -455q-26 0 -43 16t-17 48q0 33 17 48.5t43 15.5q27 0 43 -16.5t16 -47.5q0 -30 -16 -47t-43 -17zM477 -455q-28 0 -44 17t-16 47q0 31 16 47.5t44 16.5t43.5 -17.5t15.5 -46.5t-15.5 -46.5t-43.5 -17.5z" />
    <glyph glyph-name="uniFC15" unicode="&#xfc15;" horiz-adv-x="1215" arabic-form="isolated" 
d="M619 0q-5 0 -5 5v83q0 4 5 4h420q-19 19 -34 61t-28 109q-9 54 -24 85.5t-38.5 45t-61.5 13.5q-34 0 -68.5 -9.5t-72.5 -29.5l-38 83q43 26 90 37t100 11q30 0 55 -4.5t45 -13.5q46 -21 73 -63.5t40 -123.5q9 -55 20 -95t24.5 -66t28.5 -41v-91h-531zM869 -229
q-28 0 -44 17t-16 47q0 31 16 47.5t44 16.5t43.5 -17t15.5 -47q0 -29 -15.5 -46.5t-43.5 -17.5zM624 0q-39 0 -71 9.5t-56 31t-44 54.5q-39 -11 -72.5 -21.5t-60.5 -20.5t-47 -20q-60 -31 -89.5 -67.5t-29.5 -82.5q0 -37 16 -62.5t47 -38.5t77 -13q28 0 64.5 4.5t82.5 13.5
l13 -82q-51 -13 -101 -20.5t-93 -7.5q-66 0 -114.5 24t-74.5 68.5t-26 105.5q0 39 13.5 73.5t39.5 64.5q26 32 67.5 59.5t103 53.5t148.5 50q-5 18 -10.5 40t-10.5 47q-9 49 -27.5 80.5t-47 47t-67.5 15.5q-35 0 -81 -13.5t-86 -34.5l-41 82q42 26 102 42t117 16
q65 0 111.5 -22.5t75.5 -69t40 -117.5q7 -40 15.5 -71.5t16.5 -51.5q17 -36 41 -55t59 -19h5q5 0 5 -4v-83q0 -5 -5 -5h-5z" />
    <glyph glyph-name="uniFC16" unicode="&#xfc16;" horiz-adv-x="1292" arabic-form="isolated" 
d="M696 0q-5 0 -5 5v83q0 4 5 4h420q-19 19 -34 61t-28 109q-9 54 -24 85.5t-38.5 45t-61.5 13.5q-34 0 -68.5 -9.5t-72.5 -29.5l-38 83q43 26 90 37t100 11q30 0 55 -4.5t45 -13.5q46 -21 73 -63.5t40 -123.5q9 -55 20 -95t24.5 -66t28.5 -41v-91h-531zM946 -229
q-28 0 -44 17t-16 47q0 31 16 47.5t44 16.5t43.5 -17t15.5 -47q0 -29 -15.5 -46.5t-43.5 -17.5zM245 0q-38 0 -56 -18t-18 -56v-246h-106v272q0 43 15.5 74t43.5 48.5t65 17.5h6q-17 42 -25.5 82t-8.5 78q0 44 11 87.5t30 78.5q40 29 90 46.5t98 17.5q32 0 61 -7t54 -21
q50 -28 77 -80t27 -118q0 -30 -4.5 -58.5t-15.5 -54.5q21 -29 46.5 -40t65.5 -11h5q5 0 5 -4v-83q0 -5 -5 -5h-5q-53 0 -90.5 14.5t-72.5 51.5q-34 -33 -78.5 -49.5t-93.5 -16.5h-121zM267 256q0 -39 7.5 -78.5t25.5 -85.5h60q43 0 74 20t48 57t17 87q0 60 -31.5 97
t-78.5 37q-28 0 -55.5 -9t-53.5 -27q-8 -23 -10.5 -47t-2.5 -51z" />
    <glyph glyph-name="uniFC17" unicode="&#xfc17;" horiz-adv-x="1215" arabic-form="isolated" 
d="M619 0q-5 0 -5 5v83q0 4 5 4h420q-19 19 -34 61t-28 109q-9 54 -24 85.5t-38.5 45t-61.5 13.5q-34 0 -68.5 -9.5t-72.5 -29.5l-38 83q43 26 90 37t100 11q30 0 55 -4.5t45 -13.5q46 -21 73 -63.5t40 -123.5q9 -55 20 -95t24.5 -66t28.5 -41v-91h-531zM260 -323
q-66 0 -114.5 24t-74.5 68.5t-26 105.5q0 39 13.5 73.5t39.5 64.5q26 32 67.5 59.5t103 53.5t148.5 50q-5 18 -10.5 40t-10.5 47q-9 49 -27.5 80.5t-47 47t-67.5 15.5q-35 0 -81 -13.5t-86 -34.5l-41 82q28 18 64.5 30.5t76.5 20t78 7.5q65 0 111.5 -22.5t75 -68
t39.5 -114.5q8 -45 17 -77.5t18 -52.5q16 -35 40 -53t58 -18h5q5 0 5 -4v-83q0 -5 -5 -5h-5q-39 0 -71 9.5t-56 31t-44 54.5q-60 -16 -105 -31.5t-75 -30.5q-60 -30 -89.5 -67t-29.5 -83q0 -55 33.5 -84.5t94.5 -29.5zM454 -253q-27 0 -43 17t-16 47q0 31 15.5 47.5
t43.5 16.5q29 0 44.5 -17t15.5 -47q0 -29 -16 -46.5t-44 -17.5z" />
    <glyph glyph-name="uniFC18" unicode="&#xfc18;" horiz-adv-x="1292" arabic-form="isolated" 
d="M696 0q-5 0 -5 5v83q0 4 5 4h420q-19 19 -34 61t-28 109q-9 54 -24 85.5t-38.5 45t-61.5 13.5q-34 0 -68.5 -9.5t-72.5 -29.5l-38 83q43 26 90 37t100 11q30 0 55 -4.5t45 -13.5q46 -21 73 -63.5t40 -123.5q9 -55 20 -95t24.5 -66t28.5 -41v-91h-531zM245 0
q-38 0 -56 -18t-18 -56v-246h-106v272q0 43 15.5 74t43.5 48.5t65 17.5h6q-17 42 -25.5 82t-8.5 78q0 44 11 87.5t30 78.5q40 29 90 46.5t98 17.5q32 0 61 -7t54 -21q50 -28 77 -80t27 -118q0 -30 -4.5 -58.5t-15.5 -54.5q21 -29 46.5 -40t65.5 -11h5q5 0 5 -4v-83
q0 -5 -5 -5h-5q-53 0 -90.5 14.5t-72.5 51.5q-34 -33 -78.5 -49.5t-93.5 -16.5h-121zM267 256q0 -39 7.5 -78.5t25.5 -85.5h60q43 0 74 20t48 57t17 87q0 60 -31.5 97t-78.5 37q-28 0 -55.5 -9t-53.5 -27q-8 -23 -10.5 -47t-2.5 -51z" />
    <glyph glyph-name="uniFC19" unicode="&#xfc19;" horiz-adv-x="1215" arabic-form="isolated" 
d="M619 0q-5 0 -5 5v83q0 4 5 4h420q-19 19 -34 61t-28 109q-9 54 -24 85.5t-38.5 45t-61.5 13.5q-34 0 -68.5 -9.5t-72.5 -29.5l-38 83q43 26 90 37t100 11q30 0 55 -4.5t45 -13.5q46 -21 73 -63.5t40 -123.5q9 -55 20 -95t24.5 -66t28.5 -41v-91h-531zM833 613
q-27 0 -43 17t-16 47q0 31 15.5 47.5t43.5 16.5q29 0 44.5 -17t15.5 -47q0 -29 -16 -46.5t-44 -17.5zM260 -323q-66 0 -114.5 24t-74.5 68.5t-26 105.5q0 39 13.5 73.5t39.5 64.5q26 32 67.5 59.5t103 53.5t148.5 50q-5 18 -10.5 40t-10.5 47q-9 49 -27.5 80.5t-47 47
t-67.5 15.5q-35 0 -81 -13.5t-86 -34.5l-41 82q28 18 64.5 30.5t76.5 20t78 7.5q65 0 111.5 -22.5t75 -68t39.5 -114.5q8 -45 17 -77.5t18 -52.5q16 -35 40 -53t58 -18h5q5 0 5 -4v-83q0 -5 -5 -5h-5q-39 0 -71 9.5t-56 31t-44 54.5q-60 -16 -105 -31.5t-75 -30.5
q-60 -30 -89.5 -67t-29.5 -83q0 -55 33.5 -84.5t94.5 -29.5zM454 -253q-27 0 -43 17t-16 47q0 31 15.5 47.5t43.5 16.5q29 0 44.5 -17t15.5 -47q0 -29 -16 -46.5t-44 -17.5z" />
    <glyph glyph-name="uniFC1A" unicode="&#xfc1a;" horiz-adv-x="1215" arabic-form="isolated" 
d="M619 0q-5 0 -5 5v83q0 4 5 4h420q-19 19 -34 61t-28 109q-9 54 -24 85.5t-38.5 45t-61.5 13.5q-34 0 -68.5 -9.5t-72.5 -29.5l-38 83q43 26 90 37t100 11q30 0 55 -4.5t45 -13.5q46 -21 73 -63.5t40 -123.5q9 -55 20 -95t24.5 -66t28.5 -41v-91h-531zM833 613
q-27 0 -43 17t-16 47q0 31 15.5 47.5t43.5 16.5q29 0 44.5 -17t15.5 -47q0 -29 -16 -46.5t-44 -17.5zM624 0q-39 0 -71 9.5t-56 31t-44 54.5q-39 -11 -72.5 -21.5t-60.5 -20.5t-47 -20q-60 -31 -89.5 -67.5t-29.5 -82.5q0 -37 16 -62.5t47 -38.5t77 -13q28 0 64.5 4.5
t82.5 13.5l13 -82q-51 -13 -101 -20.5t-93 -7.5q-66 0 -114.5 24t-74.5 68.5t-26 105.5q0 39 13.5 73.5t39.5 64.5q26 32 67.5 59.5t103 53.5t148.5 50q-5 18 -10.5 40t-10.5 47q-9 49 -27.5 80.5t-47 47t-67.5 15.5q-35 0 -81 -13.5t-86 -34.5l-41 82q42 26 102 42t117 16
q65 0 111.5 -22.5t75.5 -69t40 -117.5q7 -40 15.5 -71.5t16.5 -51.5q17 -36 41 -55t59 -19h5q5 0 5 -4v-83q0 -5 -5 -5h-5z" />
    <glyph glyph-name="uniFC1B" unicode="&#xfc1b;" horiz-adv-x="1292" arabic-form="isolated" 
d="M696 0q-5 0 -5 5v83q0 4 5 4h420q-19 19 -34 61t-28 109q-9 54 -24 85.5t-38.5 45t-61.5 13.5q-34 0 -68.5 -9.5t-72.5 -29.5l-38 83q43 26 90 37t100 11q30 0 55 -4.5t45 -13.5q46 -21 73 -63.5t40 -123.5q9 -55 20 -95t24.5 -66t28.5 -41v-91h-531zM910 613
q-27 0 -43 17t-16 47q0 31 15.5 47.5t43.5 16.5q29 0 44.5 -17t15.5 -47q0 -29 -16 -46.5t-44 -17.5zM245 0q-38 0 -56 -18t-18 -56v-246h-106v272q0 43 15.5 74t43.5 48.5t65 17.5h6q-17 42 -25.5 82t-8.5 78q0 44 11 87.5t30 78.5q40 29 90 46.5t98 17.5q32 0 61 -7
t54 -21q50 -28 77 -80t27 -118q0 -30 -4.5 -58.5t-15.5 -54.5q21 -29 46.5 -40t65.5 -11h5q5 0 5 -4v-83q0 -5 -5 -5h-5q-53 0 -90.5 14.5t-72.5 51.5q-34 -33 -78.5 -49.5t-93.5 -16.5h-121zM267 256q0 -39 7.5 -78.5t25.5 -85.5h60q43 0 74 20t48 57t17 87q0 60 -31.5 97
t-78.5 37q-28 0 -55.5 -9t-53.5 -27q-8 -23 -10.5 -47t-2.5 -51z" />
    <glyph glyph-name="uniFC1C" unicode="&#xfc1c;" horiz-adv-x="1544" arabic-form="isolated" 
d="M1292 0q-44 0 -82.5 16.5t-76.5 55.5q-24 -33 -62.5 -52.5t-90.5 -19.5h-361q-5 0 -5 5v83q0 4 5 4h137v318h106v-318h101q48 0 74 30.5t26 85.5v202h106v-209v-19t-2 -18q25 -40 53 -56t71 -16h62v396h106v-488h-167zM260 -323q-66 0 -114.5 24t-74.5 68.5t-26 105.5
q0 39 13.5 73.5t39.5 64.5q26 32 67.5 59.5t103 53.5t148.5 50q-5 18 -10.5 40t-10.5 47q-9 49 -27.5 80.5t-47 47t-67.5 15.5q-35 0 -81 -13.5t-86 -34.5l-41 82q28 18 64.5 30.5t76.5 20t78 7.5q65 0 111.5 -22.5t75 -68t39.5 -114.5q8 -45 17 -77.5t18 -52.5
q16 -35 40 -53t58 -18h5q5 0 5 -4v-83q0 -5 -5 -5h-5q-39 0 -71 9.5t-56 31t-44 54.5q-60 -16 -105 -31.5t-75 -30.5q-60 -30 -89.5 -67t-29.5 -83q0 -55 33.5 -84.5t94.5 -29.5zM454 -253q-27 0 -43 17t-16 47q0 31 15.5 47.5t43.5 16.5q29 0 44.5 -17t15.5 -47
q0 -29 -16 -46.5t-44 -17.5z" />
    <glyph glyph-name="uniFC1D" unicode="&#xfc1d;" horiz-adv-x="1544" arabic-form="isolated" 
d="M1292 0q-44 0 -82.5 16.5t-76.5 55.5q-24 -33 -62.5 -52.5t-90.5 -19.5h-361q-5 0 -5 5v83q0 4 5 4h137v318h106v-318h101q48 0 74 30.5t26 85.5v202h106v-209v-19t-2 -18q25 -40 53 -56t71 -16h62v396h106v-488h-167zM624 0q-39 0 -71 9.5t-56 31t-44 54.5
q-39 -11 -72.5 -21.5t-60.5 -20.5t-47 -20q-60 -31 -89.5 -67.5t-29.5 -82.5q0 -37 16 -62.5t47 -38.5t77 -13q28 0 64.5 4.5t82.5 13.5l13 -82q-51 -13 -101 -20.5t-93 -7.5q-66 0 -114.5 24t-74.5 68.5t-26 105.5q0 39 13.5 73.5t39.5 64.5q26 32 67.5 59.5t103 53.5
t148.5 50q-5 18 -10.5 40t-10.5 47q-9 49 -27.5 80.5t-47 47t-67.5 15.5q-35 0 -81 -13.5t-86 -34.5l-41 82q42 26 102 42t117 16q65 0 111.5 -22.5t75.5 -69t40 -117.5q7 -40 15.5 -71.5t16.5 -51.5q17 -36 41 -55t59 -19h5q5 0 5 -4v-83q0 -5 -5 -5h-5z" />
    <glyph glyph-name="uniFC1E" unicode="&#xfc1e;" horiz-adv-x="1544" arabic-form="isolated" 
d="M1292 0q-44 0 -82.5 16.5t-76.5 55.5q-24 -33 -62.5 -52.5t-90.5 -19.5h-361q-5 0 -5 5v83q0 4 5 4h137v318h106v-318h101q48 0 74 30.5t26 85.5v202h106v-209v-19t-2 -18q25 -40 53 -56t71 -16h62v396h106v-488h-167zM624 0q-39 0 -71 9.5t-56 31t-44 54.5
q-39 -11 -72.5 -21.5t-60.5 -20.5t-47 -20q-60 -31 -89.5 -67.5t-29.5 -82.5q0 -37 16 -62.5t47 -38.5t77 -13q28 0 64.5 4.5t82.5 13.5l13 -82q-51 -13 -101 -20.5t-93 -7.5q-66 0 -114.5 24t-74.5 68.5t-26 105.5q0 39 13.5 73.5t39.5 64.5q26 32 67.5 59.5t103 53.5
t148.5 50q-5 18 -10.5 40t-10.5 47q-9 49 -27.5 80.5t-47 47t-67.5 15.5q-35 0 -81 -13.5t-86 -34.5l-41 82q42 26 102 42t117 16q65 0 111.5 -22.5t75.5 -69t40 -117.5q7 -40 15.5 -71.5t16.5 -51.5q17 -36 41 -55t59 -19h5q5 0 5 -4v-83q0 -5 -5 -5h-5zM251 607
q-27 0 -43 17t-16 47q0 31 15.5 47.5t43.5 16.5q29 0 44.5 -17t15.5 -47q0 -29 -16 -46.5t-44 -17.5z" />
    <glyph glyph-name="uniFC1F" unicode="&#xfc1f;" horiz-adv-x="1621" arabic-form="isolated" 
d="M1369 0q-44 0 -82.5 16.5t-76.5 55.5q-24 -33 -62.5 -52.5t-90.5 -19.5h-361q-5 0 -5 5v83q0 4 5 4h137v318h106v-318h101q48 0 74 30.5t26 85.5v202h106v-209v-19t-2 -18q25 -40 53 -56t71 -16h62v396h106v-488h-167zM245 0q-38 0 -56 -18t-18 -56v-246h-106v272
q0 43 15.5 74t43.5 48.5t65 17.5h6q-17 42 -25.5 82t-8.5 78q0 44 11 87.5t30 78.5q40 29 90 46.5t98 17.5q32 0 61 -7t54 -21q50 -28 77 -80t27 -118q0 -30 -4.5 -58.5t-15.5 -54.5q21 -29 46.5 -40t65.5 -11h5q5 0 5 -4v-83q0 -5 -5 -5h-5q-53 0 -90.5 14.5t-72.5 51.5
q-34 -33 -78.5 -49.5t-93.5 -16.5h-121zM267 256q0 -39 7.5 -78.5t25.5 -85.5h60q43 0 74 20t48 57t17 87q0 60 -31.5 97t-78.5 37q-28 0 -55.5 -9t-53.5 -27q-8 -23 -10.5 -47t-2.5 -51z" />
    <glyph glyph-name="uniFC20" unicode="&#xfc20;" horiz-adv-x="1432" arabic-form="isolated" 
d="M619 0q-5 0 -5 5v83q0 4 5 4h121v376h106v-181q32 70 73 117t92.5 70.5t109.5 23.5q116 0 175.5 -62.5t59.5 -194.5v-241h-737zM1250 92v147q0 86 -38 126.5t-116 40.5q-49 0 -93 -26t-83.5 -77.5t-73.5 -129.5v-81h404zM624 0q-39 0 -71 9.5t-56 31t-44 54.5
q-39 -11 -72.5 -21.5t-60.5 -20.5t-47 -20q-60 -31 -89.5 -67.5t-29.5 -82.5q0 -37 16 -62.5t47 -38.5t77 -13q28 0 64.5 4.5t82.5 13.5l13 -82q-51 -13 -101 -20.5t-93 -7.5q-66 0 -114.5 24t-74.5 68.5t-26 105.5q0 39 13.5 73.5t39.5 64.5q26 32 67.5 59.5t103 53.5
t148.5 50q-5 18 -10.5 40t-10.5 47q-9 49 -27.5 80.5t-47 47t-67.5 15.5q-35 0 -81 -13.5t-86 -34.5l-41 82q42 26 102 42t117 16q65 0 111.5 -22.5t75.5 -69t40 -117.5q7 -40 15.5 -71.5t16.5 -51.5q17 -36 41 -55t59 -19h5q5 0 5 -4v-83q0 -5 -5 -5h-5z" />
    <glyph glyph-name="uniFC21" unicode="&#xfc21;" horiz-adv-x="1509" arabic-form="isolated" 
d="M696 0q-5 0 -5 5v83q0 4 5 4h121v376h106v-181q32 70 73 117t92.5 70.5t109.5 23.5q116 0 175.5 -62.5t59.5 -194.5v-241h-737zM1327 92v147q0 86 -38 126.5t-116 40.5q-49 0 -93 -26t-83.5 -77.5t-73.5 -129.5v-81h404zM245 0q-38 0 -56 -18t-18 -56v-246h-106v272
q0 43 15.5 74t43.5 48.5t65 17.5h6q-17 42 -25.5 82t-8.5 78q0 44 11 87.5t30 78.5q40 29 90 46.5t98 17.5q32 0 61 -7t54 -21q50 -28 77 -80t27 -118q0 -30 -4.5 -58.5t-15.5 -54.5q21 -29 46.5 -40t65.5 -11h5q5 0 5 -4v-83q0 -5 -5 -5h-5q-53 0 -90.5 14.5t-72.5 51.5
q-34 -33 -78.5 -49.5t-93.5 -16.5h-121zM267 256q0 -39 7.5 -78.5t25.5 -85.5h60q43 0 74 20t48 57t17 87q0 60 -31.5 97t-78.5 37q-28 0 -55.5 -9t-53.5 -27q-8 -23 -10.5 -47t-2.5 -51z" />
    <glyph glyph-name="uniFC22" unicode="&#xfc22;" horiz-adv-x="1432" arabic-form="isolated" 
d="M619 0q-5 0 -5 5v83q0 4 5 4h121v376h106v-181q32 70 73 117t92.5 70.5t109.5 23.5q116 0 175.5 -62.5t59.5 -194.5v-241h-737zM1250 92v147q0 86 -38 126.5t-116 40.5q-49 0 -93 -26t-83.5 -77.5t-73.5 -129.5v-81h404zM1048 620q-27 0 -43 17t-16 47q0 31 15.5 47.5
t43.5 16.5q29 0 44.5 -17t15.5 -47q0 -29 -16 -46.5t-44 -17.5zM260 -323q-66 0 -114.5 24t-74.5 68.5t-26 105.5q0 39 13.5 73.5t39.5 64.5q26 32 67.5 59.5t103 53.5t148.5 50q-5 18 -10.5 40t-10.5 47q-9 49 -27.5 80.5t-47 47t-67.5 15.5q-35 0 -81 -13.5t-86 -34.5
l-41 82q28 18 64.5 30.5t76.5 20t78 7.5q65 0 111.5 -22.5t75 -68t39.5 -114.5q8 -45 17 -77.5t18 -52.5q16 -35 40 -53t58 -18h5q5 0 5 -4v-83q0 -5 -5 -5h-5q-39 0 -71 9.5t-56 31t-44 54.5q-60 -16 -105 -31.5t-75 -30.5q-60 -30 -89.5 -67t-29.5 -83q0 -55 33.5 -84.5
t94.5 -29.5zM454 -253q-27 0 -43 17t-16 47q0 31 15.5 47.5t43.5 16.5q29 0 44.5 -17t15.5 -47q0 -29 -16 -46.5t-44 -17.5z" />
    <glyph glyph-name="uniFC23" unicode="&#xfc23;" horiz-adv-x="1432" arabic-form="isolated" 
d="M619 0q-5 0 -5 5v83q0 4 5 4h121v376h106v-181q32 70 73 117t92.5 70.5t109.5 23.5q116 0 175.5 -62.5t59.5 -194.5v-241h-737zM1250 92v147q0 86 -38 126.5t-116 40.5q-49 0 -93 -26t-83.5 -77.5t-73.5 -129.5v-81h404zM1048 620q-27 0 -43 17t-16 47q0 31 15.5 47.5
t43.5 16.5q29 0 44.5 -17t15.5 -47q0 -29 -16 -46.5t-44 -17.5zM624 0q-39 0 -71 9.5t-56 31t-44 54.5q-39 -11 -72.5 -21.5t-60.5 -20.5t-47 -20q-60 -31 -89.5 -67.5t-29.5 -82.5q0 -37 16 -62.5t47 -38.5t77 -13q28 0 64.5 4.5t82.5 13.5l13 -82q-51 -13 -101 -20.5
t-93 -7.5q-66 0 -114.5 24t-74.5 68.5t-26 105.5q0 39 13.5 73.5t39.5 64.5q26 32 67.5 59.5t103 53.5t148.5 50q-5 18 -10.5 40t-10.5 47q-9 49 -27.5 80.5t-47 47t-67.5 15.5q-35 0 -81 -13.5t-86 -34.5l-41 82q42 26 102 42t117 16q65 0 111.5 -22.5t75.5 -69t40 -117.5
q7 -40 15.5 -71.5t16.5 -51.5q17 -36 41 -55t59 -19h5q5 0 5 -4v-83q0 -5 -5 -5h-5z" />
    <glyph glyph-name="uniFC24" unicode="&#xfc24;" horiz-adv-x="1432" arabic-form="isolated" 
d="M619 0q-5 0 -5 5v83q0 4 5 4h121v376h106v-181q32 70 73 117t92.5 70.5t109.5 23.5q116 0 175.5 -62.5t59.5 -194.5v-241h-737zM1250 92v147q0 86 -38 126.5t-116 40.5q-49 0 -93 -26t-83.5 -77.5t-73.5 -129.5v-81h404zM1048 620q-27 0 -43 17t-16 47q0 31 15.5 47.5
t43.5 16.5q29 0 44.5 -17t15.5 -47q0 -29 -16 -46.5t-44 -17.5zM624 0q-39 0 -71 9.5t-56 31t-44 54.5q-39 -11 -72.5 -21.5t-60.5 -20.5t-47 -20q-60 -31 -89.5 -67.5t-29.5 -82.5q0 -37 16 -62.5t47 -38.5t77 -13q28 0 64.5 4.5t82.5 13.5l13 -82q-51 -13 -101 -20.5
t-93 -7.5q-66 0 -114.5 24t-74.5 68.5t-26 105.5q0 39 13.5 73.5t39.5 64.5q26 32 67.5 59.5t103 53.5t148.5 50q-5 18 -10.5 40t-10.5 47q-9 49 -27.5 80.5t-47 47t-67.5 15.5q-35 0 -81 -13.5t-86 -34.5l-41 82q42 26 102 42t117 16q65 0 111.5 -22.5t75.5 -69t40 -117.5
q7 -40 15.5 -71.5t16.5 -51.5q17 -36 41 -55t59 -19h5q5 0 5 -4v-83q0 -5 -5 -5h-5zM251 607q-27 0 -43 17t-16 47q0 31 15.5 47.5t43.5 16.5q29 0 44.5 -17t15.5 -47q0 -29 -16 -46.5t-44 -17.5z" />
    <glyph glyph-name="uniFC25" unicode="&#xfc25;" horiz-adv-x="1509" arabic-form="isolated" 
d="M696 0q-5 0 -5 5v83q0 4 5 4h121v376h106v-181q32 70 73 117t92.5 70.5t109.5 23.5q116 0 175.5 -62.5t59.5 -194.5v-241h-737zM1327 92v147q0 86 -38 126.5t-116 40.5q-49 0 -93 -26t-83.5 -77.5t-73.5 -129.5v-81h404zM1125 620q-27 0 -43 17t-16 47q0 31 15.5 47.5
t43.5 16.5q29 0 44.5 -17t15.5 -47q0 -29 -16 -46.5t-44 -17.5zM245 0q-38 0 -56 -18t-18 -56v-246h-106v272q0 43 15.5 74t43.5 48.5t65 17.5h6q-17 42 -25.5 82t-8.5 78q0 44 11 87.5t30 78.5q40 29 90 46.5t98 17.5q32 0 61 -7t54 -21q50 -28 77 -80t27 -118
q0 -30 -4.5 -58.5t-15.5 -54.5q21 -29 46.5 -40t65.5 -11h5q5 0 5 -4v-83q0 -5 -5 -5h-5q-53 0 -90.5 14.5t-72.5 51.5q-34 -33 -78.5 -49.5t-93.5 -16.5h-121zM267 256q0 -39 7.5 -78.5t25.5 -85.5h60q43 0 74 20t48 57t17 87q0 60 -31.5 97t-78.5 37q-28 0 -55.5 -9
t-53.5 -27q-8 -23 -10.5 -47t-2.5 -51z" />
    <glyph glyph-name="uniFC26" unicode="&#xfc26;" horiz-adv-x="1435" arabic-form="isolated" 
d="M619 0q-5 0 -5 5v83q0 4 5 4h131v668h106v-473q32 70 73 117t92 70.5t110 23.5q116 0 175.5 -62.5t59.5 -194.5v-241h-747zM1260 92v147q0 86 -38 126.5t-116 40.5q-49 0 -93 -26t-83.5 -77.5t-73.5 -129.5v-81h404zM624 0q-39 0 -71 9.5t-56 31t-44 54.5
q-39 -11 -72.5 -21.5t-60.5 -20.5t-47 -20q-60 -31 -89.5 -67.5t-29.5 -82.5q0 -37 16 -62.5t47 -38.5t77 -13q28 0 64.5 4.5t82.5 13.5l13 -82q-51 -13 -101 -20.5t-93 -7.5q-66 0 -114.5 24t-74.5 68.5t-26 105.5q0 39 13.5 73.5t39.5 64.5q26 32 67.5 59.5t103 53.5
t148.5 50q-5 18 -10.5 40t-10.5 47q-9 49 -27.5 80.5t-47 47t-67.5 15.5q-35 0 -81 -13.5t-86 -34.5l-41 82q42 26 102 42t117 16q65 0 111.5 -22.5t75.5 -69t40 -117.5q7 -40 15.5 -71.5t16.5 -51.5q17 -36 41 -55t59 -19h5q5 0 5 -4v-83q0 -5 -5 -5h-5z" />
    <glyph glyph-name="uniFC27" unicode="&#xfc27;" horiz-adv-x="1512" arabic-form="isolated" 
d="M696 0q-5 0 -5 5v83q0 4 5 4h131v668h106v-473q32 70 73 117t92 70.5t110 23.5q116 0 175.5 -62.5t59.5 -194.5v-241h-747zM1337 92v147q0 86 -38 126.5t-116 40.5q-49 0 -93 -26t-83.5 -77.5t-73.5 -129.5v-81h404zM245 0q-38 0 -56 -18t-18 -56v-246h-106v272
q0 43 15.5 74t43.5 48.5t65 17.5h6q-17 42 -25.5 82t-8.5 78q0 44 11 87.5t30 78.5q40 29 90 46.5t98 17.5q32 0 61 -7t54 -21q50 -28 77 -80t27 -118q0 -30 -4.5 -58.5t-15.5 -54.5q21 -29 46.5 -40t65.5 -11h5q5 0 5 -4v-83q0 -5 -5 -5h-5q-53 0 -90.5 14.5t-72.5 51.5
q-34 -33 -78.5 -49.5t-93.5 -16.5h-121zM267 256q0 -39 7.5 -78.5t25.5 -85.5h60q43 0 74 20t48 57t17 87q0 60 -31.5 97t-78.5 37q-28 0 -55.5 -9t-53.5 -27q-8 -23 -10.5 -47t-2.5 -51z" />
    <glyph glyph-name="uniFC28" unicode="&#xfc28;" horiz-adv-x="1512" arabic-form="isolated" 
d="M696 0q-5 0 -5 5v83q0 4 5 4h131v668h106v-473q32 70 73 117t92 70.5t110 23.5q116 0 175.5 -62.5t59.5 -194.5v-241h-747zM1337 92v147q0 86 -38 126.5t-116 40.5q-49 0 -93 -26t-83.5 -77.5t-73.5 -129.5v-81h404zM1193 639q-27 0 -43 17t-16 47q0 31 15.5 47.5
t43.5 16.5q29 0 44.5 -17t15.5 -47q0 -29 -16 -46.5t-44 -17.5zM245 0q-38 0 -56 -18t-18 -56v-246h-106v272q0 43 15.5 74t43.5 48.5t65 17.5h6q-17 42 -25.5 82t-8.5 78q0 44 11 87.5t30 78.5q40 29 90 46.5t98 17.5q32 0 61 -7t54 -21q50 -28 77 -80t27 -118
q0 -30 -4.5 -58.5t-15.5 -54.5q21 -29 46.5 -40t65.5 -11h5q5 0 5 -4v-83q0 -5 -5 -5h-5q-53 0 -90.5 14.5t-72.5 51.5q-34 -33 -78.5 -49.5t-93.5 -16.5h-121zM267 256q0 -39 7.5 -78.5t25.5 -85.5h60q43 0 74 20t48 57t17 87q0 60 -31.5 97t-78.5 37q-28 0 -55.5 -9
t-53.5 -27q-8 -23 -10.5 -47t-2.5 -51z" />
    <glyph glyph-name="uniFC29" unicode="&#xfc29;" horiz-adv-x="1157" arabic-form="isolated" 
d="M619 0q-5 0 -5 5v83q0 4 5 4h154q-23 16 -39.5 41t-25.5 57.5t-9 68.5q0 75 30.5 128.5t87 82t132.5 28.5q44 0 84 -9t65 -21l-32 -89q-33 14 -62.5 20.5t-58.5 6.5q-45 0 -76 -17t-46.5 -51t-15.5 -84q0 -48 15.5 -84.5t44 -57t65.5 -20.5h179v-92h-492zM260 -323
q-66 0 -114.5 24t-74.5 68.5t-26 105.5q0 39 13.5 73.5t39.5 64.5q26 32 67.5 59.5t103 53.5t148.5 50q-5 18 -10.5 40t-10.5 47q-9 49 -27.5 80.5t-47 47t-67.5 15.5q-35 0 -81 -13.5t-86 -34.5l-41 82q28 18 64.5 30.5t76.5 20t78 7.5q65 0 111.5 -22.5t75 -68
t39.5 -114.5q8 -45 17 -77.5t18 -52.5q16 -35 40 -53t58 -18h5q5 0 5 -4v-83q0 -5 -5 -5h-5q-39 0 -71 9.5t-56 31t-44 54.5q-60 -16 -105 -31.5t-75 -30.5q-60 -30 -89.5 -67t-29.5 -83q0 -55 33.5 -84.5t94.5 -29.5zM454 -253q-27 0 -43 17t-16 47q0 31 15.5 47.5
t43.5 16.5q29 0 44.5 -17t15.5 -47q0 -29 -16 -46.5t-44 -17.5z" />
    <glyph glyph-name="uniFC2A" unicode="&#xfc2a;" horiz-adv-x="1234" arabic-form="isolated" 
d="M696 0q-5 0 -5 5v83q0 4 5 4h154q-23 16 -39.5 41t-25.5 57.5t-9 68.5q0 75 30.5 128.5t87 82t132.5 28.5q44 0 84 -9t65 -21l-32 -89q-33 14 -62.5 20.5t-58.5 6.5q-45 0 -76 -17t-46.5 -51t-15.5 -84q0 -48 15.5 -84.5t44 -57t65.5 -20.5h179v-92h-492zM245 0
q-38 0 -56 -18t-18 -56v-246h-106v272q0 43 15.5 74t43.5 48.5t65 17.5h6q-17 42 -25.5 82t-8.5 78q0 44 11 87.5t30 78.5q40 29 90 46.5t98 17.5q32 0 61 -7t54 -21q50 -28 77 -80t27 -118q0 -30 -4.5 -58.5t-15.5 -54.5q21 -29 46.5 -40t65.5 -11h5q5 0 5 -4v-83
q0 -5 -5 -5h-5q-53 0 -90.5 14.5t-72.5 51.5q-34 -33 -78.5 -49.5t-93.5 -16.5h-121zM267 256q0 -39 7.5 -78.5t25.5 -85.5h60q43 0 74 20t48 57t17 87q0 60 -31.5 97t-78.5 37q-28 0 -55.5 -9t-53.5 -27q-8 -23 -10.5 -47t-2.5 -51z" />
    <glyph glyph-name="uniFC2B" unicode="&#xfc2b;" horiz-adv-x="1157" arabic-form="isolated" 
d="M619 0q-5 0 -5 5v83q0 4 5 4h154q-23 16 -39.5 41t-25.5 57.5t-9 68.5q0 75 30.5 128.5t87 82t132.5 28.5q44 0 84 -9t65 -21l-32 -89q-33 14 -62.5 20.5t-58.5 6.5q-45 0 -76 -17t-46.5 -51t-15.5 -84q0 -48 15.5 -84.5t44 -57t65.5 -20.5h179v-92h-492zM901 586
q-27 0 -43 17t-16 47q0 31 15.5 47.5t43.5 16.5q29 0 44.5 -17t15.5 -47q0 -29 -16 -46.5t-44 -17.5zM260 -323q-66 0 -114.5 24t-74.5 68.5t-26 105.5q0 39 13.5 73.5t39.5 64.5q26 32 67.5 59.5t103 53.5t148.5 50q-5 18 -10.5 40t-10.5 47q-9 49 -27.5 80.5t-47 47
t-67.5 15.5q-35 0 -81 -13.5t-86 -34.5l-41 82q28 18 64.5 30.5t76.5 20t78 7.5q65 0 111.5 -22.5t75 -68t39.5 -114.5q8 -45 17 -77.5t18 -52.5q16 -35 40 -53t58 -18h5q5 0 5 -4v-83q0 -5 -5 -5h-5q-39 0 -71 9.5t-56 31t-44 54.5q-60 -16 -105 -31.5t-75 -30.5
q-60 -30 -89.5 -67t-29.5 -83q0 -55 33.5 -84.5t94.5 -29.5zM454 -253q-27 0 -43 17t-16 47q0 31 15.5 47.5t43.5 16.5q29 0 44.5 -17t15.5 -47q0 -29 -16 -46.5t-44 -17.5z" />
    <glyph glyph-name="uniFC2C" unicode="&#xfc2c;" horiz-adv-x="1234" arabic-form="isolated" 
d="M696 0q-5 0 -5 5v83q0 4 5 4h154q-23 16 -39.5 41t-25.5 57.5t-9 68.5q0 75 30.5 128.5t87 82t132.5 28.5q44 0 84 -9t65 -21l-32 -89q-33 14 -62.5 20.5t-58.5 6.5q-45 0 -76 -17t-46.5 -51t-15.5 -84q0 -48 15.5 -84.5t44 -57t65.5 -20.5h179v-92h-492zM978 586
q-27 0 -43 17t-16 47q0 31 15.5 47.5t43.5 16.5q29 0 44.5 -17t15.5 -47q0 -29 -16 -46.5t-44 -17.5zM245 0q-38 0 -56 -18t-18 -56v-246h-106v272q0 43 15.5 74t43.5 48.5t65 17.5h6q-17 42 -25.5 82t-8.5 78q0 44 11 87.5t30 78.5q40 29 90 46.5t98 17.5q32 0 61 -7
t54 -21q50 -28 77 -80t27 -118q0 -30 -4.5 -58.5t-15.5 -54.5q21 -29 46.5 -40t65.5 -11h5q5 0 5 -4v-83q0 -5 -5 -5h-5q-53 0 -90.5 14.5t-72.5 51.5q-34 -33 -78.5 -49.5t-93.5 -16.5h-121zM267 256q0 -39 7.5 -78.5t25.5 -85.5h60q43 0 74 20t48 57t17 87q0 60 -31.5 97
t-78.5 37q-28 0 -55.5 -9t-53.5 -27q-8 -23 -10.5 -47t-2.5 -51z" />
    <glyph glyph-name="uniFC2D" unicode="&#xfc2d;" horiz-adv-x="1229" arabic-form="isolated" 
d="M619 0q-5 0 -5 5v83q0 4 5 4h149q-16 20 -27.5 43.5t-17.5 49.5t-6 52q0 77 34 133.5t97 87t149 30.5h147v-488h-525zM966 92h72v304h-38q-54 0 -93 -19t-59 -55t-20 -87q0 -47 15.5 -79t46.5 -48t76 -16zM933 597q-27 0 -43 17t-16 47q0 31 15.5 47.5t43.5 16.5
q29 0 44.5 -17t15.5 -47q0 -29 -16 -46.5t-44 -17.5zM260 -323q-66 0 -114.5 24t-74.5 68.5t-26 105.5q0 39 13.5 73.5t39.5 64.5q26 32 67.5 59.5t103 53.5t148.5 50q-5 18 -10.5 40t-10.5 47q-9 49 -27.5 80.5t-47 47t-67.5 15.5q-35 0 -81 -13.5t-86 -34.5l-41 82
q28 18 64.5 30.5t76.5 20t78 7.5q65 0 111.5 -22.5t75 -68t39.5 -114.5q8 -45 17 -77.5t18 -52.5q16 -35 40 -53t58 -18h5q5 0 5 -4v-83q0 -5 -5 -5h-5q-39 0 -71 9.5t-56 31t-44 54.5q-60 -16 -105 -31.5t-75 -30.5q-60 -30 -89.5 -67t-29.5 -83q0 -55 33.5 -84.5
t94.5 -29.5zM454 -253q-27 0 -43 17t-16 47q0 31 15.5 47.5t43.5 16.5q29 0 44.5 -17t15.5 -47q0 -29 -16 -46.5t-44 -17.5z" />
    <glyph glyph-name="uniFC2E" unicode="&#xfc2e;" horiz-adv-x="1229" arabic-form="isolated" 
d="M619 0q-5 0 -5 5v83q0 4 5 4h149q-16 20 -27.5 43.5t-17.5 49.5t-6 52q0 77 34 133.5t97 87t149 30.5h147v-488h-525zM966 92h72v304h-38q-54 0 -93 -19t-59 -55t-20 -87q0 -47 15.5 -79t46.5 -48t76 -16zM933 597q-27 0 -43 17t-16 47q0 31 15.5 47.5t43.5 16.5
q29 0 44.5 -17t15.5 -47q0 -29 -16 -46.5t-44 -17.5zM624 0q-39 0 -71 9.5t-56 31t-44 54.5q-39 -11 -72.5 -21.5t-60.5 -20.5t-47 -20q-60 -31 -89.5 -67.5t-29.5 -82.5q0 -37 16 -62.5t47 -38.5t77 -13q28 0 64.5 4.5t82.5 13.5l13 -82q-51 -13 -101 -20.5t-93 -7.5
q-66 0 -114.5 24t-74.5 68.5t-26 105.5q0 39 13.5 73.5t39.5 64.5q26 32 67.5 59.5t103 53.5t148.5 50q-5 18 -10.5 40t-10.5 47q-9 49 -27.5 80.5t-47 47t-67.5 15.5q-35 0 -81 -13.5t-86 -34.5l-41 82q42 26 102 42t117 16q65 0 111.5 -22.5t75.5 -69t40 -117.5
q7 -40 15.5 -71.5t16.5 -51.5q17 -36 41 -55t59 -19h5q5 0 5 -4v-83q0 -5 -5 -5h-5z" />
    <glyph glyph-name="uniFC2F" unicode="&#xfc2f;" horiz-adv-x="1229" arabic-form="isolated" 
d="M619 0q-5 0 -5 5v83q0 4 5 4h149q-16 20 -27.5 43.5t-17.5 49.5t-6 52q0 77 34 133.5t97 87t149 30.5h147v-488h-525zM966 92h72v304h-38q-54 0 -93 -19t-59 -55t-20 -87q0 -47 15.5 -79t46.5 -48t76 -16zM933 597q-27 0 -43 17t-16 47q0 31 15.5 47.5t43.5 16.5
q29 0 44.5 -17t15.5 -47q0 -29 -16 -46.5t-44 -17.5zM624 0q-39 0 -71 9.5t-56 31t-44 54.5q-39 -11 -72.5 -21.5t-60.5 -20.5t-47 -20q-60 -31 -89.5 -67.5t-29.5 -82.5q0 -37 16 -62.5t47 -38.5t77 -13q28 0 64.5 4.5t82.5 13.5l13 -82q-51 -13 -101 -20.5t-93 -7.5
q-66 0 -114.5 24t-74.5 68.5t-26 105.5q0 39 13.5 73.5t39.5 64.5q26 32 67.5 59.5t103 53.5t148.5 50q-5 18 -10.5 40t-10.5 47q-9 49 -27.5 80.5t-47 47t-67.5 15.5q-35 0 -81 -13.5t-86 -34.5l-41 82q42 26 102 42t117 16q65 0 111.5 -22.5t75.5 -69t40 -117.5
q7 -40 15.5 -71.5t16.5 -51.5q17 -36 41 -55t59 -19h5q5 0 5 -4v-83q0 -5 -5 -5h-5zM251 607q-27 0 -43 17t-16 47q0 31 15.5 47.5t43.5 16.5q29 0 44.5 -17t15.5 -47q0 -29 -16 -46.5t-44 -17.5z" />
    <glyph glyph-name="uniFC30" unicode="&#xfc30;" horiz-adv-x="1306" arabic-form="isolated" 
d="M696 0q-5 0 -5 5v83q0 4 5 4h149q-16 20 -27.5 43.5t-17.5 49.5t-6 52q0 77 34 133.5t97 87t149 30.5h147v-488h-525zM1043 92h72v304h-38q-54 0 -93 -19t-59 -55t-20 -87q0 -47 15.5 -79t46.5 -48t76 -16zM1010 597q-27 0 -43 17t-16 47q0 31 15.5 47.5t43.5 16.5
q29 0 44.5 -17t15.5 -47q0 -29 -16 -46.5t-44 -17.5zM245 0q-38 0 -56 -18t-18 -56v-246h-106v272q0 43 15.5 74t43.5 48.5t65 17.5h6q-17 42 -25.5 82t-8.5 78q0 44 11 87.5t30 78.5q40 29 90 46.5t98 17.5q32 0 61 -7t54 -21q50 -28 77 -80t27 -118q0 -30 -4.5 -58.5
t-15.5 -54.5q21 -29 46.5 -40t65.5 -11h5q5 0 5 -4v-83q0 -5 -5 -5h-5q-53 0 -90.5 14.5t-72.5 51.5q-34 -33 -78.5 -49.5t-93.5 -16.5h-121zM267 256q0 -39 7.5 -78.5t25.5 -85.5h60q43 0 74 20t48 57t17 87q0 60 -31.5 97t-78.5 37q-28 0 -55.5 -9t-53.5 -27
q-8 -23 -10.5 -47t-2.5 -51z" />
    <glyph glyph-name="uniFC31" unicode="&#xfc31;" horiz-adv-x="1583" arabic-form="isolated" 
d="M973 0q-5 0 -5 5v83q0 4 5 4h149q-16 20 -27.5 43.5t-17.5 49.5t-6 52q0 77 34 133.5t97 87t149 30.5h147v-488h-525zM1320 92h72v304h-38q-54 0 -93 -19t-59 -55t-20 -87q0 -47 15.5 -79t46.5 -48t76 -16zM1286 597q-27 0 -43 17t-16 47q0 31 15.5 47.5t43.5 16.5
q29 0 44.5 -17t15.5 -47q0 -29 -16 -46.5t-44 -17.5zM266 -240q-62 0 -107 30t-69.5 83t-24.5 124q0 51 8.5 95t25.5 89h100q-15 -42 -20.5 -80.5t-5.5 -92.5q0 -47 15.5 -82t44 -54.5t66.5 -19.5h182q45 0 80.5 9.5t56 27t20.5 41.5q0 19 -17.5 33t-55.5 24
q-51 15 -86.5 31.5t-53 42.5t-17.5 67q0 28 9 56t27 55q24 37 57.5 65t71.5 44t74 16q16 0 31 -2.5t29 -9.5q28 -13 53.5 -40t62.5 -84q29 -45 51 -73t39 -40q15 -11 31 -17t34 -6h5q5 0 5 -4v-83q0 -5 -5 -5h-5q-31 0 -58 8t-53 25t-53 45q-5 6 -18 23.5t-33 45.5
q-24 34 -43 56t-33 35q-13 11 -26.5 16.5t-26.5 5.5q-18 0 -39 -11.5t-39.5 -29.5t-30 -38.5t-11.5 -37.5q0 -14 9.5 -25t26.5 -18.5t38 -14.5q35 -10 59.5 -19.5t39.5 -18.5q30 -17 45.5 -40.5t15.5 -54.5q0 -95 -66.5 -143.5t-200.5 -48.5h-215z" />
    <glyph glyph-name="uniFC32" unicode="&#xfc32;" horiz-adv-x="1583" arabic-form="isolated" 
d="M973 0q-5 0 -5 5v83q0 4 5 4h149q-16 20 -27.5 43.5t-17.5 49.5t-6 52q0 77 34 133.5t97 87t149 30.5h147v-488h-525zM1320 92h72v304h-38q-54 0 -93 -19t-59 -55t-20 -87q0 -47 15.5 -79t46.5 -48t76 -16zM1286 597q-27 0 -43 17t-16 47q0 31 15.5 47.5t43.5 16.5
q29 0 44.5 -17t15.5 -47q0 -29 -16 -46.5t-44 -17.5zM266 -240q-62 0 -107 30t-69.5 83t-24.5 124q0 51 8.5 95t25.5 89h100q-15 -42 -20.5 -80.5t-5.5 -92.5q0 -47 15.5 -82t44 -54.5t66.5 -19.5h182q45 0 80.5 9.5t56 27t20.5 41.5q0 19 -17.5 33t-55.5 24
q-51 15 -86.5 31.5t-53 42.5t-17.5 67q0 28 9 56t27 55q24 37 57.5 65t71.5 44t74 16q16 0 31 -2.5t29 -9.5q28 -13 53.5 -40t62.5 -84q29 -45 51 -73t39 -40q15 -11 31 -17t34 -6h5q5 0 5 -4v-83q0 -5 -5 -5h-5q-31 0 -58 8t-53 25t-53 45q-5 6 -18 23.5t-33 45.5
q-24 34 -43 56t-33 35q-13 11 -26.5 16.5t-26.5 5.5q-18 0 -39 -11.5t-39.5 -29.5t-30 -38.5t-11.5 -37.5q0 -14 9.5 -25t26.5 -18.5t38 -14.5q35 -10 59.5 -19.5t39.5 -18.5q30 -17 45.5 -40.5t15.5 -54.5q0 -95 -66.5 -143.5t-200.5 -48.5h-215zM305 -455q-26 0 -43 16
t-17 48q0 33 17 48.5t43 15.5q27 0 43 -16.5t16 -47.5q0 -30 -16 -47t-43 -17zM477 -455q-28 0 -44 17t-16 47q0 31 16 47.5t44 16.5t43.5 -17.5t15.5 -46.5t-15.5 -46.5t-43.5 -17.5z" />
    <glyph glyph-name="uniFC33" unicode="&#xfc33;" horiz-adv-x="1229" arabic-form="isolated" 
d="M619 0q-5 0 -5 5v83q0 4 5 4h149q-16 20 -27.5 43.5t-17.5 49.5t-6 52q0 77 34 133.5t97 87t149 30.5h147v-488h-525zM966 92h72v304h-38q-54 0 -93 -19t-59 -55t-20 -87q0 -47 15.5 -79t46.5 -48t76 -16zM846 609q-26 0 -43 16t-17 48q0 33 17 48.5t43 15.5
q28 0 43.5 -16.5t15.5 -47.5q0 -30 -16 -47t-43 -17zM1018 609q-28 0 -44 17t-16 47q0 31 16 47.5t44 16.5t43.5 -17t15.5 -47q0 -29 -15.5 -46.5t-43.5 -17.5zM624 0q-39 0 -71 9.5t-56 31t-44 54.5q-39 -11 -72.5 -21.5t-60.5 -20.5t-47 -20q-60 -31 -89.5 -67.5
t-29.5 -82.5q0 -37 16 -62.5t47 -38.5t77 -13q28 0 64.5 4.5t82.5 13.5l13 -82q-51 -13 -101 -20.5t-93 -7.5q-66 0 -114.5 24t-74.5 68.5t-26 105.5q0 39 13.5 73.5t39.5 64.5q26 32 67.5 59.5t103 53.5t148.5 50q-5 18 -10.5 40t-10.5 47q-9 49 -27.5 80.5t-47 47
t-67.5 15.5q-35 0 -81 -13.5t-86 -34.5l-41 82q42 26 102 42t117 16q65 0 111.5 -22.5t75.5 -69t40 -117.5q7 -40 15.5 -71.5t16.5 -51.5q17 -36 41 -55t59 -19h5q5 0 5 -4v-83q0 -5 -5 -5h-5z" />
    <glyph glyph-name="uniFC34" unicode="&#xfc34;" horiz-adv-x="1306" arabic-form="isolated" 
d="M696 0q-5 0 -5 5v83q0 4 5 4h149q-16 20 -27.5 43.5t-17.5 49.5t-6 52q0 77 34 133.5t97 87t149 30.5h147v-488h-525zM1043 92h72v304h-38q-54 0 -93 -19t-59 -55t-20 -87q0 -47 15.5 -79t46.5 -48t76 -16zM923 609q-26 0 -43 16t-17 48q0 33 17 48.5t43 15.5
q28 0 43.5 -16.5t15.5 -47.5q0 -30 -16 -47t-43 -17zM1095 609q-28 0 -44 17t-16 47q0 31 16 47.5t44 16.5t43.5 -17t15.5 -47q0 -29 -15.5 -46.5t-43.5 -17.5zM245 0q-38 0 -56 -18t-18 -56v-246h-106v272q0 43 15.5 74t43.5 48.5t65 17.5h6q-17 42 -25.5 82t-8.5 78
q0 44 11 87.5t30 78.5q40 29 90 46.5t98 17.5q32 0 61 -7t54 -21q50 -28 77 -80t27 -118q0 -30 -4.5 -58.5t-15.5 -54.5q21 -29 46.5 -40t65.5 -11h5q5 0 5 -4v-83q0 -5 -5 -5h-5q-53 0 -90.5 14.5t-72.5 51.5q-34 -33 -78.5 -49.5t-93.5 -16.5h-121zM267 256
q0 -39 7.5 -78.5t25.5 -85.5h60q43 0 74 20t48 57t17 87q0 60 -31.5 97t-78.5 37q-28 0 -55.5 -9t-53.5 -27q-8 -23 -10.5 -47t-2.5 -51z" />
    <glyph glyph-name="uniFC35" unicode="&#xfc35;" horiz-adv-x="1583" arabic-form="isolated" 
d="M973 0q-5 0 -5 5v83q0 4 5 4h149q-16 20 -27.5 43.5t-17.5 49.5t-6 52q0 77 34 133.5t97 87t149 30.5h147v-488h-525zM1320 92h72v304h-38q-54 0 -93 -19t-59 -55t-20 -87q0 -47 15.5 -79t46.5 -48t76 -16zM1199 609q-26 0 -43 16t-17 48q0 33 17 48.5t43 15.5
q28 0 43.5 -16.5t15.5 -47.5q0 -30 -16 -47t-43 -17zM1371 609q-28 0 -44 17t-16 47q0 31 16 47.5t44 16.5t43.5 -17t15.5 -47q0 -29 -15.5 -46.5t-43.5 -17.5zM266 -240q-62 0 -107 30t-69.5 83t-24.5 124q0 51 8.5 95t25.5 89h100q-15 -42 -20.5 -80.5t-5.5 -92.5
q0 -47 15.5 -82t44 -54.5t66.5 -19.5h182q45 0 80.5 9.5t56 27t20.5 41.5q0 19 -17.5 33t-55.5 24q-51 15 -86.5 31.5t-53 42.5t-17.5 67q0 28 9 56t27 55q24 37 57.5 65t71.5 44t74 16q16 0 31 -2.5t29 -9.5q28 -13 53.5 -40t62.5 -84q29 -45 51 -73t39 -40q15 -11 31 -17
t34 -6h5q5 0 5 -4v-83q0 -5 -5 -5h-5q-31 0 -58 8t-53 25t-53 45q-5 6 -18 23.5t-33 45.5q-24 34 -43 56t-33 35q-13 11 -26.5 16.5t-26.5 5.5q-18 0 -39 -11.5t-39.5 -29.5t-30 -38.5t-11.5 -37.5q0 -14 9.5 -25t26.5 -18.5t38 -14.5q35 -10 59.5 -19.5t39.5 -18.5
q30 -17 45.5 -40.5t15.5 -54.5q0 -95 -66.5 -143.5t-200.5 -48.5h-215z" />
    <glyph glyph-name="uniFC36" unicode="&#xfc36;" horiz-adv-x="1583" arabic-form="isolated" 
d="M973 0q-5 0 -5 5v83q0 4 5 4h149q-16 20 -27.5 43.5t-17.5 49.5t-6 52q0 77 34 133.5t97 87t149 30.5h147v-488h-525zM1320 92h72v304h-38q-54 0 -93 -19t-59 -55t-20 -87q0 -47 15.5 -79t46.5 -48t76 -16zM1199 609q-26 0 -43 16t-17 48q0 33 17 48.5t43 15.5
q28 0 43.5 -16.5t15.5 -47.5q0 -30 -16 -47t-43 -17zM1371 609q-28 0 -44 17t-16 47q0 31 16 47.5t44 16.5t43.5 -17t15.5 -47q0 -29 -15.5 -46.5t-43.5 -17.5zM266 -240q-62 0 -107 30t-69.5 83t-24.5 124q0 51 8.5 95t25.5 89h100q-15 -42 -20.5 -80.5t-5.5 -92.5
q0 -47 15.5 -82t44 -54.5t66.5 -19.5h182q45 0 80.5 9.5t56 27t20.5 41.5q0 19 -17.5 33t-55.5 24q-51 15 -86.5 31.5t-53 42.5t-17.5 67q0 28 9 56t27 55q24 37 57.5 65t71.5 44t74 16q16 0 31 -2.5t29 -9.5q28 -13 53.5 -40t62.5 -84q29 -45 51 -73t39 -40q15 -11 31 -17
t34 -6h5q5 0 5 -4v-83q0 -5 -5 -5h-5q-31 0 -58 8t-53 25t-53 45q-5 6 -18 23.5t-33 45.5q-24 34 -43 56t-33 35q-13 11 -26.5 16.5t-26.5 5.5q-18 0 -39 -11.5t-39.5 -29.5t-30 -38.5t-11.5 -37.5q0 -14 9.5 -25t26.5 -18.5t38 -14.5q35 -10 59.5 -19.5t39.5 -18.5
q30 -17 45.5 -40.5t15.5 -54.5q0 -95 -66.5 -143.5t-200.5 -48.5h-215zM305 -455q-26 0 -43 16t-17 48q0 33 17 48.5t43 15.5q27 0 43 -16.5t16 -47.5q0 -30 -16 -47t-43 -17zM477 -455q-28 0 -44 17t-16 47q0 31 16 47.5t44 16.5t43.5 -17.5t15.5 -46.5t-15.5 -46.5
t-43.5 -17.5z" />
    <glyph glyph-name="uniFC37" unicode="&#xfc37;" horiz-adv-x="921" arabic-form="isolated" 
d="M329 0q-5 0 -5 5v83q0 4 5 4h411v176q0 70 -44 104.5t-132 34.5h-170v90q17 35 38.5 67.5t48.5 64.5q57 65 128 116t144 78l40 -95q-45 -16 -90 -42t-84.5 -57t-69.5 -64.5t-48 -65.5h71q135 0 204.5 -55t69.5 -159v-285h-517zM339 92q5 0 5 -4v-83q0 -5 -5 -5h-239v760
h109v-668h130z" />
    <glyph glyph-name="uniFC38" unicode="&#xfc38;" horiz-adv-x="1212" arabic-form="isolated" 
d="M619 0q-5 0 -5 5v83q0 4 5 4h411v176q0 70 -44 104.5t-132 34.5h-170v90q17 35 38.5 67.5t48.5 64.5q57 65 128 116t144 78l40 -95q-45 -16 -90 -42t-84.5 -57t-69.5 -64.5t-48 -65.5h71q135 0 204.5 -55t69.5 -159v-285h-517zM260 -323q-66 0 -114.5 24t-74.5 68.5
t-26 105.5q0 39 13.5 73.5t39.5 64.5q26 32 67.5 59.5t103 53.5t148.5 50q-5 18 -10.5 40t-10.5 47q-9 49 -27.5 80.5t-47 47t-67.5 15.5q-35 0 -81 -13.5t-86 -34.5l-41 82q28 18 64.5 30.5t76.5 20t78 7.5q65 0 111.5 -22.5t75 -68t39.5 -114.5q8 -45 17 -77.5t18 -52.5
q16 -35 40 -53t58 -18h5q5 0 5 -4v-83q0 -5 -5 -5h-5q-39 0 -71 9.5t-56 31t-44 54.5q-60 -16 -105 -31.5t-75 -30.5q-60 -30 -89.5 -67t-29.5 -83q0 -55 33.5 -84.5t94.5 -29.5zM454 -253q-27 0 -43 17t-16 47q0 31 15.5 47.5t43.5 16.5q29 0 44.5 -17t15.5 -47
q0 -29 -16 -46.5t-44 -17.5z" />
    <glyph glyph-name="uniFC39" unicode="&#xfc39;" horiz-adv-x="1212" arabic-form="isolated" 
d="M619 0q-5 0 -5 5v83q0 4 5 4h411v176q0 70 -44 104.5t-132 34.5h-170v90q17 35 38.5 67.5t48.5 64.5q57 65 128 116t144 78l40 -95q-45 -16 -90 -42t-84.5 -57t-69.5 -64.5t-48 -65.5h71q135 0 204.5 -55t69.5 -159v-285h-517zM624 0q-39 0 -71 9.5t-56 31t-44 54.5
q-39 -11 -72.5 -21.5t-60.5 -20.5t-47 -20q-60 -31 -89.5 -67.5t-29.5 -82.5q0 -37 16 -62.5t47 -38.5t77 -13q28 0 64.5 4.5t82.5 13.5l13 -82q-51 -13 -101 -20.5t-93 -7.5q-66 0 -114.5 24t-74.5 68.5t-26 105.5q0 39 13.5 73.5t39.5 64.5q26 32 67.5 59.5t103 53.5
t148.5 50q-5 18 -10.5 40t-10.5 47q-9 49 -27.5 80.5t-47 47t-67.5 15.5q-35 0 -81 -13.5t-86 -34.5l-41 82q42 26 102 42t117 16q65 0 111.5 -22.5t75.5 -69t40 -117.5q7 -40 15.5 -71.5t16.5 -51.5q17 -36 41 -55t59 -19h5q5 0 5 -4v-83q0 -5 -5 -5h-5z" />
    <glyph glyph-name="uniFC3A" unicode="&#xfc3a;" horiz-adv-x="1212" arabic-form="isolated" 
d="M619 0q-5 0 -5 5v83q0 4 5 4h411v176q0 70 -44 104.5t-132 34.5h-170v90q17 35 38.5 67.5t48.5 64.5q57 65 128 116t144 78l40 -95q-45 -16 -90 -42t-84.5 -57t-69.5 -64.5t-48 -65.5h71q135 0 204.5 -55t69.5 -159v-285h-517zM624 0q-39 0 -71 9.5t-56 31t-44 54.5
q-39 -11 -72.5 -21.5t-60.5 -20.5t-47 -20q-60 -31 -89.5 -67.5t-29.5 -82.5q0 -37 16 -62.5t47 -38.5t77 -13q28 0 64.5 4.5t82.5 13.5l13 -82q-51 -13 -101 -20.5t-93 -7.5q-66 0 -114.5 24t-74.5 68.5t-26 105.5q0 39 13.5 73.5t39.5 64.5q26 32 67.5 59.5t103 53.5
t148.5 50q-5 18 -10.5 40t-10.5 47q-9 49 -27.5 80.5t-47 47t-67.5 15.5q-35 0 -81 -13.5t-86 -34.5l-41 82q42 26 102 42t117 16q65 0 111.5 -22.5t75.5 -69t40 -117.5q7 -40 15.5 -71.5t16.5 -51.5q17 -36 41 -55t59 -19h5q5 0 5 -4v-83q0 -5 -5 -5h-5zM251 607
q-27 0 -43 17t-16 47q0 31 15.5 47.5t43.5 16.5q29 0 44.5 -17t15.5 -47q0 -29 -16 -46.5t-44 -17.5z" />
    <glyph glyph-name="uniFC3B" unicode="&#xfc3b;" horiz-adv-x="1316" arabic-form="isolated" 
d="M723 0q-5 0 -5 5v83q0 4 5 4h411v176q0 70 -44 104.5t-132 34.5h-170v90q17 35 38.5 67.5t48.5 64.5q57 65 128 116t144 78l40 -95q-45 -16 -90 -42t-84.5 -57t-69.5 -64.5t-48 -65.5h71q135 0 204.5 -55t69.5 -159v-285h-517zM616 0q-3 -119 -68 -179.5t-196 -60.5h-62
q-37 0 -68.5 9t-57.5 27q-47 33 -73 91.5t-26 136.5q0 41 5 82t15 79t24 70h100q-17 -46 -25.5 -105t-8.5 -126q0 -81 34.5 -126.5t96.5 -45.5h42q56 0 92 18t53 54t17 89v747h107v-668h116q5 0 5 -4v-83q0 -5 -5 -5h-117z" />
    <glyph glyph-name="uniFC3C" unicode="&#xfc3c;" horiz-adv-x="1289" arabic-form="isolated" 
d="M696 0q-5 0 -5 5v83q0 4 5 4h411v176q0 70 -44 104.5t-132 34.5h-170v90q17 35 38.5 67.5t48.5 64.5q57 65 128 116t144 78l40 -95q-45 -16 -90 -42t-84.5 -57t-69.5 -64.5t-48 -65.5h71q135 0 204.5 -55t69.5 -159v-285h-517zM245 0q-38 0 -56 -18t-18 -56v-246h-106
v272q0 43 15.5 74t43.5 48.5t65 17.5h6q-17 42 -25.5 82t-8.5 78q0 44 11 87.5t30 78.5q40 29 90 46.5t98 17.5q32 0 61 -7t54 -21q50 -28 77 -80t27 -118q0 -30 -4.5 -58.5t-15.5 -54.5q21 -29 46.5 -40t65.5 -11h5q5 0 5 -4v-83q0 -5 -5 -5h-5q-53 0 -90.5 14.5
t-72.5 51.5q-34 -33 -78.5 -49.5t-93.5 -16.5h-121zM267 256q0 -39 7.5 -78.5t25.5 -85.5h60q43 0 74 20t48 57t17 87q0 60 -31.5 97t-78.5 37q-28 0 -55.5 -9t-53.5 -27q-8 -23 -10.5 -47t-2.5 -51z" />
    <glyph glyph-name="uniFC3D" unicode="&#xfc3d;" horiz-adv-x="1565" arabic-form="isolated" 
d="M973 0q-5 0 -5 5v83q0 4 5 4h411v176q0 70 -44 104.5t-132 34.5h-170v90q17 35 38.5 67.5t48.5 64.5q57 65 128 116t144 78l40 -95q-45 -16 -90 -42t-84.5 -57t-69.5 -64.5t-48 -65.5h71q135 0 204.5 -55t69.5 -159v-285h-517zM266 -240q-62 0 -107 30t-69.5 83
t-24.5 124q0 51 8.5 95t25.5 89h100q-15 -42 -20.5 -80.5t-5.5 -92.5q0 -47 15.5 -82t44 -54.5t66.5 -19.5h182q45 0 80.5 9.5t56 27t20.5 41.5q0 19 -17.5 33t-55.5 24q-51 15 -86.5 31.5t-53 42.5t-17.5 67q0 28 9 56t27 55q24 37 57.5 65t71.5 44t74 16q16 0 31 -2.5
t29 -9.5q28 -13 53.5 -40t62.5 -84q29 -45 51 -73t39 -40q15 -11 31 -17t34 -6h5q5 0 5 -4v-83q0 -5 -5 -5h-5q-31 0 -58 8t-53 25t-53 45q-5 6 -18 23.5t-33 45.5q-24 34 -43 56t-33 35q-13 11 -26.5 16.5t-26.5 5.5q-18 0 -39 -11.5t-39.5 -29.5t-30 -38.5t-11.5 -37.5
q0 -14 9.5 -25t26.5 -18.5t38 -14.5q35 -10 59.5 -19.5t39.5 -18.5q30 -17 45.5 -40.5t15.5 -54.5q0 -95 -66.5 -143.5t-200.5 -48.5h-215z" />
    <glyph glyph-name="uniFC3E" unicode="&#xfc3e;" horiz-adv-x="1565" arabic-form="isolated" 
d="M973 0q-5 0 -5 5v83q0 4 5 4h411v176q0 70 -44 104.5t-132 34.5h-170v90q17 35 38.5 67.5t48.5 64.5q57 65 128 116t144 78l40 -95q-45 -16 -90 -42t-84.5 -57t-69.5 -64.5t-48 -65.5h71q135 0 204.5 -55t69.5 -159v-285h-517zM266 -240q-62 0 -107 30t-69.5 83
t-24.5 124q0 51 8.5 95t25.5 89h100q-15 -42 -20.5 -80.5t-5.5 -92.5q0 -47 15.5 -82t44 -54.5t66.5 -19.5h182q45 0 80.5 9.5t56 27t20.5 41.5q0 19 -17.5 33t-55.5 24q-51 15 -86.5 31.5t-53 42.5t-17.5 67q0 28 9 56t27 55q24 37 57.5 65t71.5 44t74 16q16 0 31 -2.5
t29 -9.5q28 -13 53.5 -40t62.5 -84q29 -45 51 -73t39 -40q15 -11 31 -17t34 -6h5q5 0 5 -4v-83q0 -5 -5 -5h-5q-31 0 -58 8t-53 25t-53 45q-5 6 -18 23.5t-33 45.5q-24 34 -43 56t-33 35q-13 11 -26.5 16.5t-26.5 5.5q-18 0 -39 -11.5t-39.5 -29.5t-30 -38.5t-11.5 -37.5
q0 -14 9.5 -25t26.5 -18.5t38 -14.5q35 -10 59.5 -19.5t39.5 -18.5q30 -17 45.5 -40.5t15.5 -54.5q0 -95 -66.5 -143.5t-200.5 -48.5h-215zM305 -455q-26 0 -43 16t-17 48q0 33 17 48.5t43 15.5q27 0 43 -16.5t16 -47.5q0 -30 -16 -47t-43 -17zM477 -455q-28 0 -44 17
t-16 47q0 31 16 47.5t44 16.5t43.5 -17.5t15.5 -46.5t-15.5 -46.5t-43.5 -17.5z" />
    <glyph glyph-name="uniFC3F" unicode="&#xfc3f;" horiz-adv-x="958" arabic-form="isolated" 
d="M619 0q-5 0 -5 5v83q0 4 5 4h130v668h109v-760h-239zM260 -323q-66 0 -114.5 24t-74.5 68.5t-26 105.5q0 39 13.5 73.5t39.5 64.5q26 32 67.5 59.5t103 53.5t148.5 50q-5 18 -10.5 40t-10.5 47q-9 49 -27.5 80.5t-47 47t-67.5 15.5q-35 0 -81 -13.5t-86 -34.5l-41 82
q28 18 64.5 30.5t76.5 20t78 7.5q65 0 111.5 -22.5t75 -68t39.5 -114.5q8 -45 17 -77.5t18 -52.5q16 -35 40 -53t58 -18h5q5 0 5 -4v-83q0 -5 -5 -5h-5q-39 0 -71 9.5t-56 31t-44 54.5q-60 -16 -105 -31.5t-75 -30.5q-60 -30 -89.5 -67t-29.5 -83q0 -55 33.5 -84.5
t94.5 -29.5zM454 -253q-27 0 -43 17t-16 47q0 31 15.5 47.5t43.5 16.5q29 0 44.5 -17t15.5 -47q0 -29 -16 -46.5t-44 -17.5z" />
    <glyph glyph-name="uniFC40" unicode="&#xfc40;" horiz-adv-x="958" arabic-form="isolated" 
d="M619 0q-5 0 -5 5v83q0 4 5 4h130v668h109v-760h-239zM624 0q-39 0 -71 9.5t-56 31t-44 54.5q-39 -11 -72.5 -21.5t-60.5 -20.5t-47 -20q-60 -31 -89.5 -67.5t-29.5 -82.5q0 -37 16 -62.5t47 -38.5t77 -13q28 0 64.5 4.5t82.5 13.5l13 -82q-51 -13 -101 -20.5t-93 -7.5
q-66 0 -114.5 24t-74.5 68.5t-26 105.5q0 39 13.5 73.5t39.5 64.5q26 32 67.5 59.5t103 53.5t148.5 50q-5 18 -10.5 40t-10.5 47q-9 49 -27.5 80.5t-47 47t-67.5 15.5q-35 0 -81 -13.5t-86 -34.5l-41 82q42 26 102 42t117 16q65 0 111.5 -22.5t75.5 -69t40 -117.5
q7 -40 15.5 -71.5t16.5 -51.5q17 -36 41 -55t59 -19h5q5 0 5 -4v-83q0 -5 -5 -5h-5z" />
    <glyph glyph-name="uniFC41" unicode="&#xfc41;" horiz-adv-x="958" arabic-form="isolated" 
d="M619 0q-5 0 -5 5v83q0 4 5 4h130v668h109v-760h-239zM624 0q-39 0 -71 9.5t-56 31t-44 54.5q-39 -11 -72.5 -21.5t-60.5 -20.5t-47 -20q-60 -31 -89.5 -67.5t-29.5 -82.5q0 -37 16 -62.5t47 -38.5t77 -13q28 0 64.5 4.5t82.5 13.5l13 -82q-51 -13 -101 -20.5t-93 -7.5
q-66 0 -114.5 24t-74.5 68.5t-26 105.5q0 39 13.5 73.5t39.5 64.5q26 32 67.5 59.5t103 53.5t148.5 50q-5 18 -10.5 40t-10.5 47q-9 49 -27.5 80.5t-47 47t-67.5 15.5q-35 0 -81 -13.5t-86 -34.5l-41 82q42 26 102 42t117 16q65 0 111.5 -22.5t75.5 -69t40 -117.5
q7 -40 15.5 -71.5t16.5 -51.5q17 -36 41 -55t59 -19h5q5 0 5 -4v-83q0 -5 -5 -5h-5zM251 607q-27 0 -43 17t-16 47q0 31 15.5 47.5t43.5 16.5q29 0 44.5 -17t15.5 -47q0 -29 -16 -46.5t-44 -17.5z" />
    <glyph glyph-name="uniFC42" unicode="&#xfc42;" horiz-adv-x="1035" arabic-form="isolated" 
d="M696 0q-5 0 -5 5v83q0 4 5 4h130v668h109v-760h-239zM245 0q-38 0 -56 -18t-18 -56v-246h-106v272q0 43 15.5 74t43.5 48.5t65 17.5h6q-17 42 -25.5 82t-8.5 78q0 44 11 87.5t30 78.5q40 29 90 46.5t98 17.5q32 0 61 -7t54 -21q50 -28 77 -80t27 -118q0 -30 -4.5 -58.5
t-15.5 -54.5q21 -29 46.5 -40t65.5 -11h5q5 0 5 -4v-83q0 -5 -5 -5h-5q-53 0 -90.5 14.5t-72.5 51.5q-34 -33 -78.5 -49.5t-93.5 -16.5h-121zM267 256q0 -39 7.5 -78.5t25.5 -85.5h60q43 0 74 20t48 57t17 87q0 60 -31.5 97t-78.5 37q-28 0 -55.5 -9t-53.5 -27
q-8 -23 -10.5 -47t-2.5 -51z" />
    <glyph glyph-name="uniFC43" unicode="&#xfc43;" horiz-adv-x="1311" arabic-form="isolated" 
d="M973 0q-5 0 -5 5v83q0 4 5 4h130v668h109v-760h-239zM266 -240q-62 0 -107 30t-69.5 83t-24.5 124q0 51 8.5 95t25.5 89h100q-15 -42 -20.5 -80.5t-5.5 -92.5q0 -47 15.5 -82t44 -54.5t66.5 -19.5h182q45 0 80.5 9.5t56 27t20.5 41.5q0 19 -17.5 33t-55.5 24
q-51 15 -86.5 31.5t-53 42.5t-17.5 67q0 28 9 56t27 55q24 37 57.5 65t71.5 44t74 16q16 0 31 -2.5t29 -9.5q28 -13 53.5 -40t62.5 -84q29 -45 51 -73t39 -40q15 -11 31 -17t34 -6h5q5 0 5 -4v-83q0 -5 -5 -5h-5q-31 0 -58 8t-53 25t-53 45q-5 6 -18 23.5t-33 45.5
q-24 34 -43 56t-33 35q-13 11 -26.5 16.5t-26.5 5.5q-18 0 -39 -11.5t-39.5 -29.5t-30 -38.5t-11.5 -37.5q0 -14 9.5 -25t26.5 -18.5t38 -14.5q35 -10 59.5 -19.5t39.5 -18.5q30 -17 45.5 -40.5t15.5 -54.5q0 -95 -66.5 -143.5t-200.5 -48.5h-215z" />
    <glyph glyph-name="uniFC44" unicode="&#xfc44;" horiz-adv-x="1311" arabic-form="isolated" 
d="M973 0q-5 0 -5 5v83q0 4 5 4h130v668h109v-760h-239zM266 -240q-62 0 -107 30t-69.5 83t-24.5 124q0 51 8.5 95t25.5 89h100q-15 -42 -20.5 -80.5t-5.5 -92.5q0 -47 15.5 -82t44 -54.5t66.5 -19.5h182q45 0 80.5 9.5t56 27t20.5 41.5q0 19 -17.5 33t-55.5 24
q-51 15 -86.5 31.5t-53 42.5t-17.5 67q0 28 9 56t27 55q24 37 57.5 65t71.5 44t74 16q16 0 31 -2.5t29 -9.5q28 -13 53.5 -40t62.5 -84q29 -45 51 -73t39 -40q15 -11 31 -17t34 -6h5q5 0 5 -4v-83q0 -5 -5 -5h-5q-31 0 -58 8t-53 25t-53 45q-5 6 -18 23.5t-33 45.5
q-24 34 -43 56t-33 35q-13 11 -26.5 16.5t-26.5 5.5q-18 0 -39 -11.5t-39.5 -29.5t-30 -38.5t-11.5 -37.5q0 -14 9.5 -25t26.5 -18.5t38 -14.5q35 -10 59.5 -19.5t39.5 -18.5q30 -17 45.5 -40.5t15.5 -54.5q0 -95 -66.5 -143.5t-200.5 -48.5h-215zM305 -455q-26 0 -43 16
t-17 48q0 33 17 48.5t43 15.5q27 0 43 -16.5t16 -47.5q0 -30 -16 -47t-43 -17zM477 -455q-28 0 -44 17t-16 47q0 31 16 47.5t44 16.5t43.5 -17.5t15.5 -46.5t-15.5 -46.5t-43.5 -17.5z" />
    <glyph glyph-name="uniFC45" unicode="&#xfc45;" horiz-adv-x="1216" arabic-form="isolated" 
d="M619 0q-5 0 -5 5v83q0 4 5 4h120q-17 43 -25 83t-8 77q0 44 10.5 87.5t30.5 78.5q40 30 90 47t98 17q32 0 61 -7t53 -21q50 -28 77.5 -80t27.5 -118q0 -40 -7.5 -73.5t-22.5 -62.5q-31 -58 -87 -89t-126 -31h-292zM812 256q0 -39 7 -78.5t26 -85.5h60q43 0 74 20t48 57
t17 87q0 60 -31.5 97t-78.5 37q-29 0 -57 -10t-52 -26q-8 -23 -10.5 -47t-2.5 -51zM260 -323q-66 0 -114.5 24t-74.5 68.5t-26 105.5q0 39 13.5 73.5t39.5 64.5q26 32 67.5 59.5t103 53.5t148.5 50q-5 18 -10.5 40t-10.5 47q-9 49 -27.5 80.5t-47 47t-67.5 15.5
q-35 0 -81 -13.5t-86 -34.5l-41 82q28 18 64.5 30.5t76.5 20t78 7.5q65 0 111.5 -22.5t75 -68t39.5 -114.5q8 -45 17 -77.5t18 -52.5q16 -35 40 -53t58 -18h5q5 0 5 -4v-83q0 -5 -5 -5h-5q-39 0 -71 9.5t-56 31t-44 54.5q-60 -16 -105 -31.5t-75 -30.5q-60 -30 -89.5 -67
t-29.5 -83q0 -55 33.5 -84.5t94.5 -29.5zM454 -253q-27 0 -43 17t-16 47q0 31 15.5 47.5t43.5 16.5q29 0 44.5 -17t15.5 -47q0 -29 -16 -46.5t-44 -17.5z" />
    <glyph glyph-name="uniFC46" unicode="&#xfc46;" horiz-adv-x="1216" arabic-form="isolated" 
d="M619 0q-5 0 -5 5v83q0 4 5 4h120q-17 43 -25 83t-8 77q0 44 10.5 87.5t30.5 78.5q40 30 90 47t98 17q32 0 61 -7t53 -21q50 -28 77.5 -80t27.5 -118q0 -40 -7.5 -73.5t-22.5 -62.5q-31 -58 -87 -89t-126 -31h-292zM812 256q0 -39 7 -78.5t26 -85.5h60q43 0 74 20t48 57
t17 87q0 60 -31.5 97t-78.5 37q-29 0 -57 -10t-52 -26q-8 -23 -10.5 -47t-2.5 -51zM624 0q-39 0 -71 9.5t-56 31t-44 54.5q-39 -11 -72.5 -21.5t-60.5 -20.5t-47 -20q-60 -31 -89.5 -67.5t-29.5 -82.5q0 -37 16 -62.5t47 -38.5t77 -13q28 0 64.5 4.5t82.5 13.5l13 -82
q-51 -13 -101 -20.5t-93 -7.5q-66 0 -114.5 24t-74.5 68.5t-26 105.5q0 39 13.5 73.5t39.5 64.5q26 32 67.5 59.5t103 53.5t148.5 50q-5 18 -10.5 40t-10.5 47q-9 49 -27.5 80.5t-47 47t-67.5 15.5q-35 0 -81 -13.5t-86 -34.5l-41 82q42 26 102 42t117 16q65 0 111.5 -22.5
t75.5 -69t40 -117.5q7 -40 15.5 -71.5t16.5 -51.5q17 -36 41 -55t59 -19h5q5 0 5 -4v-83q0 -5 -5 -5h-5z" />
    <glyph glyph-name="uniFC47" unicode="&#xfc47;" horiz-adv-x="1216" arabic-form="isolated" 
d="M619 0q-5 0 -5 5v83q0 4 5 4h120q-17 43 -25 83t-8 77q0 44 10.5 87.5t30.5 78.5q40 30 90 47t98 17q32 0 61 -7t53 -21q50 -28 77.5 -80t27.5 -118q0 -40 -7.5 -73.5t-22.5 -62.5q-31 -58 -87 -89t-126 -31h-292zM812 256q0 -39 7 -78.5t26 -85.5h60q43 0 74 20t48 57
t17 87q0 60 -31.5 97t-78.5 37q-29 0 -57 -10t-52 -26q-8 -23 -10.5 -47t-2.5 -51zM624 0q-39 0 -71 9.5t-56 31t-44 54.5q-39 -11 -72.5 -21.5t-60.5 -20.5t-47 -20q-60 -31 -89.5 -67.5t-29.5 -82.5q0 -37 16 -62.5t47 -38.5t77 -13q28 0 64.5 4.5t82.5 13.5l13 -82
q-51 -13 -101 -20.5t-93 -7.5q-66 0 -114.5 24t-74.5 68.5t-26 105.5q0 39 13.5 73.5t39.5 64.5q26 32 67.5 59.5t103 53.5t148.5 50q-5 18 -10.5 40t-10.5 47q-9 49 -27.5 80.5t-47 47t-67.5 15.5q-35 0 -81 -13.5t-86 -34.5l-41 82q42 26 102 42t117 16q65 0 111.5 -22.5
t75.5 -69t40 -117.5q7 -40 15.5 -71.5t16.5 -51.5q17 -36 41 -55t59 -19h5q5 0 5 -4v-83q0 -5 -5 -5h-5zM251 607q-27 0 -43 17t-16 47q0 31 15.5 47.5t43.5 16.5q29 0 44.5 -17t15.5 -47q0 -29 -16 -46.5t-44 -17.5z" />
    <glyph glyph-name="uniFC48" unicode="&#xfc48;" horiz-adv-x="1293" arabic-form="isolated" 
d="M696 0q-5 0 -5 5v83q0 4 5 4h120q-17 43 -25 83t-8 77q0 44 10.5 87.5t30.5 78.5q40 30 90 47t98 17q32 0 61 -7t53 -21q50 -28 77.5 -80t27.5 -118q0 -40 -7.5 -73.5t-22.5 -62.5q-31 -58 -87 -89t-126 -31h-292zM889 256q0 -39 7 -78.5t26 -85.5h60q43 0 74 20t48 57
t17 87q0 60 -31.5 97t-78.5 37q-29 0 -57 -10t-52 -26q-8 -23 -10.5 -47t-2.5 -51zM245 0q-38 0 -56 -18t-18 -56v-246h-106v272q0 43 15.5 74t43.5 48.5t65 17.5h6q-17 42 -25.5 82t-8.5 78q0 44 11 87.5t30 78.5q40 29 90 46.5t98 17.5q32 0 61 -7t54 -21q50 -28 77 -80
t27 -118q0 -30 -4.5 -58.5t-15.5 -54.5q21 -29 46.5 -40t65.5 -11h5q5 0 5 -4v-83q0 -5 -5 -5h-5q-53 0 -90.5 14.5t-72.5 51.5q-34 -33 -78.5 -49.5t-93.5 -16.5h-121zM267 256q0 -39 7.5 -78.5t25.5 -85.5h60q43 0 74 20t48 57t17 87q0 60 -31.5 97t-78.5 37
q-28 0 -55.5 -9t-53.5 -27q-8 -23 -10.5 -47t-2.5 -51z" />
    <glyph glyph-name="uniFC49" unicode="&#xfc49;" horiz-adv-x="1569" arabic-form="isolated" 
d="M973 0q-5 0 -5 5v83q0 4 5 4h120q-17 43 -25 83t-8 77q0 44 10.5 87.5t30.5 78.5q40 30 90 47t98 17q32 0 61 -7t53 -21q50 -28 77.5 -80t27.5 -118q0 -40 -7.5 -73.5t-22.5 -62.5q-31 -58 -87 -89t-126 -31h-292zM1166 256q0 -39 7 -78.5t26 -85.5h60q43 0 74 20t48 57
t17 87q0 60 -31.5 97t-78.5 37q-29 0 -57 -10t-52 -26q-8 -23 -10.5 -47t-2.5 -51zM266 -240q-62 0 -107 30t-69.5 83t-24.5 124q0 51 8.5 95t25.5 89h100q-15 -42 -20.5 -80.5t-5.5 -92.5q0 -47 15.5 -82t44 -54.5t66.5 -19.5h182q45 0 80.5 9.5t56 27t20.5 41.5
q0 19 -17.5 33t-55.5 24q-51 15 -86.5 31.5t-53 42.5t-17.5 67q0 28 9 56t27 55q24 37 57.5 65t71.5 44t74 16q16 0 31 -2.5t29 -9.5q28 -13 53.5 -40t62.5 -84q29 -45 51 -73t39 -40q15 -11 31 -17t34 -6h5q5 0 5 -4v-83q0 -5 -5 -5h-5q-31 0 -58 8t-53 25t-53 45
q-5 6 -18 23.5t-33 45.5q-24 34 -43 56t-33 35q-13 11 -26.5 16.5t-26.5 5.5q-18 0 -39 -11.5t-39.5 -29.5t-30 -38.5t-11.5 -37.5q0 -14 9.5 -25t26.5 -18.5t38 -14.5q35 -10 59.5 -19.5t39.5 -18.5q30 -17 45.5 -40.5t15.5 -54.5q0 -95 -66.5 -143.5t-200.5 -48.5h-215z
" />
    <glyph glyph-name="uniFC4A" unicode="&#xfc4a;" horiz-adv-x="1569" arabic-form="isolated" 
d="M973 0q-5 0 -5 5v83q0 4 5 4h120q-17 43 -25 83t-8 77q0 44 10.5 87.5t30.5 78.5q40 30 90 47t98 17q32 0 61 -7t53 -21q50 -28 77.5 -80t27.5 -118q0 -40 -7.5 -73.5t-22.5 -62.5q-31 -58 -87 -89t-126 -31h-292zM1166 256q0 -39 7 -78.5t26 -85.5h60q43 0 74 20t48 57
t17 87q0 60 -31.5 97t-78.5 37q-29 0 -57 -10t-52 -26q-8 -23 -10.5 -47t-2.5 -51zM266 -240q-62 0 -107 30t-69.5 83t-24.5 124q0 51 8.5 95t25.5 89h100q-15 -42 -20.5 -80.5t-5.5 -92.5q0 -47 15.5 -82t44 -54.5t66.5 -19.5h182q45 0 80.5 9.5t56 27t20.5 41.5
q0 19 -17.5 33t-55.5 24q-51 15 -86.5 31.5t-53 42.5t-17.5 67q0 28 9 56t27 55q24 37 57.5 65t71.5 44t74 16q16 0 31 -2.5t29 -9.5q28 -13 53.5 -40t62.5 -84q29 -45 51 -73t39 -40q15 -11 31 -17t34 -6h5q5 0 5 -4v-83q0 -5 -5 -5h-5q-31 0 -58 8t-53 25t-53 45
q-5 6 -18 23.5t-33 45.5q-24 34 -43 56t-33 35q-13 11 -26.5 16.5t-26.5 5.5q-18 0 -39 -11.5t-39.5 -29.5t-30 -38.5t-11.5 -37.5q0 -14 9.5 -25t26.5 -18.5t38 -14.5q35 -10 59.5 -19.5t39.5 -18.5q30 -17 45.5 -40.5t15.5 -54.5q0 -95 -66.5 -143.5t-200.5 -48.5h-215z
M305 -455q-26 0 -43 16t-17 48q0 33 17 48.5t43 15.5q27 0 43 -16.5t16 -47.5q0 -30 -16 -47t-43 -17zM477 -455q-28 0 -44 17t-16 47q0 31 16 47.5t44 16.5t43.5 -17.5t15.5 -46.5t-15.5 -46.5t-43.5 -17.5z" />
    <glyph glyph-name="uniFC4B" unicode="&#xfc4b;" horiz-adv-x="943" arabic-form="isolated" 
d="M619 0q-5 0 -5 5v83q0 4 5 4h130v396h109v-488h-239zM774 587q-27 0 -43 17t-16 47q0 31 15.5 47.5t43.5 16.5q29 0 44.5 -17t15.5 -47q0 -29 -16 -46.5t-44 -17.5zM260 -323q-66 0 -114.5 24t-74.5 68.5t-26 105.5q0 39 13.5 73.5t39.5 64.5q26 32 67.5 59.5t103 53.5
t148.5 50q-5 18 -10.5 40t-10.5 47q-9 49 -27.5 80.5t-47 47t-67.5 15.5q-35 0 -81 -13.5t-86 -34.5l-41 82q28 18 64.5 30.5t76.5 20t78 7.5q65 0 111.5 -22.5t75 -68t39.5 -114.5q8 -45 17 -77.5t18 -52.5q16 -35 40 -53t58 -18h5q5 0 5 -4v-83q0 -5 -5 -5h-5
q-39 0 -71 9.5t-56 31t-44 54.5q-60 -16 -105 -31.5t-75 -30.5q-60 -30 -89.5 -67t-29.5 -83q0 -55 33.5 -84.5t94.5 -29.5zM454 -253q-27 0 -43 17t-16 47q0 31 15.5 47.5t43.5 16.5q29 0 44.5 -17t15.5 -47q0 -29 -16 -46.5t-44 -17.5z" />
    <glyph glyph-name="uniFC4C" unicode="&#xfc4c;" horiz-adv-x="943" arabic-form="isolated" 
d="M619 0q-5 0 -5 5v83q0 4 5 4h130v396h109v-488h-239zM774 587q-27 0 -43 17t-16 47q0 31 15.5 47.5t43.5 16.5q29 0 44.5 -17t15.5 -47q0 -29 -16 -46.5t-44 -17.5zM624 0q-39 0 -71 9.5t-56 31t-44 54.5q-39 -11 -72.5 -21.5t-60.5 -20.5t-47 -20q-60 -31 -89.5 -67.5
t-29.5 -82.5q0 -37 16 -62.5t47 -38.5t77 -13q28 0 64.5 4.5t82.5 13.5l13 -82q-51 -13 -101 -20.5t-93 -7.5q-66 0 -114.5 24t-74.5 68.5t-26 105.5q0 39 13.5 73.5t39.5 64.5q26 32 67.5 59.5t103 53.5t148.5 50q-5 18 -10.5 40t-10.5 47q-9 49 -27.5 80.5t-47 47
t-67.5 15.5q-35 0 -81 -13.5t-86 -34.5l-41 82q42 26 102 42t117 16q65 0 111.5 -22.5t75.5 -69t40 -117.5q7 -40 15.5 -71.5t16.5 -51.5q17 -36 41 -55t59 -19h5q5 0 5 -4v-83q0 -5 -5 -5h-5z" />
    <glyph glyph-name="uniFC4D" unicode="&#xfc4d;" horiz-adv-x="943" arabic-form="isolated" 
d="M619 0q-5 0 -5 5v83q0 4 5 4h130v396h109v-488h-239zM774 587q-27 0 -43 17t-16 47q0 31 15.5 47.5t43.5 16.5q29 0 44.5 -17t15.5 -47q0 -29 -16 -46.5t-44 -17.5zM624 0q-39 0 -71 9.5t-56 31t-44 54.5q-39 -11 -72.5 -21.5t-60.5 -20.5t-47 -20q-60 -31 -89.5 -67.5
t-29.5 -82.5q0 -37 16 -62.5t47 -38.5t77 -13q28 0 64.5 4.5t82.5 13.5l13 -82q-51 -13 -101 -20.5t-93 -7.5q-66 0 -114.5 24t-74.5 68.5t-26 105.5q0 39 13.5 73.5t39.5 64.5q26 32 67.5 59.5t103 53.5t148.5 50q-5 18 -10.5 40t-10.5 47q-9 49 -27.5 80.5t-47 47
t-67.5 15.5q-35 0 -81 -13.5t-86 -34.5l-41 82q42 26 102 42t117 16q65 0 111.5 -22.5t75.5 -69t40 -117.5q7 -40 15.5 -71.5t16.5 -51.5q17 -36 41 -55t59 -19h5q5 0 5 -4v-83q0 -5 -5 -5h-5zM251 607q-27 0 -43 17t-16 47q0 31 15.5 47.5t43.5 16.5q29 0 44.5 -17
t15.5 -47q0 -29 -16 -46.5t-44 -17.5z" />
    <glyph glyph-name="uniFC4E" unicode="&#xfc4e;" horiz-adv-x="1020" arabic-form="isolated" 
d="M696 0q-5 0 -5 5v83q0 4 5 4h130v396h109v-488h-239zM851 587q-27 0 -43 17t-16 47q0 31 15.5 47.5t43.5 16.5q29 0 44.5 -17t15.5 -47q0 -29 -16 -46.5t-44 -17.5zM245 0q-38 0 -56 -18t-18 -56v-246h-106v272q0 43 15.5 74t43.5 48.5t65 17.5h6q-17 42 -25.5 82
t-8.5 78q0 44 11 87.5t30 78.5q40 29 90 46.5t98 17.5q32 0 61 -7t54 -21q50 -28 77 -80t27 -118q0 -30 -4.5 -58.5t-15.5 -54.5q21 -29 46.5 -40t65.5 -11h5q5 0 5 -4v-83q0 -5 -5 -5h-5q-53 0 -90.5 14.5t-72.5 51.5q-34 -33 -78.5 -49.5t-93.5 -16.5h-121zM267 256
q0 -39 7.5 -78.5t25.5 -85.5h60q43 0 74 20t48 57t17 87q0 60 -31.5 97t-78.5 37q-28 0 -55.5 -9t-53.5 -27q-8 -23 -10.5 -47t-2.5 -51z" />
    <glyph glyph-name="uniFC4F" unicode="&#xfc4f;" horiz-adv-x="1296" arabic-form="isolated" 
d="M973 0q-5 0 -5 5v83q0 4 5 4h130v396h109v-488h-239zM1127 587q-27 0 -43 17t-16 47q0 31 15.5 47.5t43.5 16.5q29 0 44.5 -17t15.5 -47q0 -29 -16 -46.5t-44 -17.5zM266 -240q-62 0 -107 30t-69.5 83t-24.5 124q0 51 8.5 95t25.5 89h100q-15 -42 -20.5 -80.5t-5.5 -92.5
q0 -47 15.5 -82t44 -54.5t66.5 -19.5h182q45 0 80.5 9.5t56 27t20.5 41.5q0 19 -17.5 33t-55.5 24q-51 15 -86.5 31.5t-53 42.5t-17.5 67q0 28 9 56t27 55q24 37 57.5 65t71.5 44t74 16q16 0 31 -2.5t29 -9.5q28 -13 53.5 -40t62.5 -84q29 -45 51 -73t39 -40q15 -11 31 -17
t34 -6h5q5 0 5 -4v-83q0 -5 -5 -5h-5q-31 0 -58 8t-53 25t-53 45q-5 6 -18 23.5t-33 45.5q-24 34 -43 56t-33 35q-13 11 -26.5 16.5t-26.5 5.5q-18 0 -39 -11.5t-39.5 -29.5t-30 -38.5t-11.5 -37.5q0 -14 9.5 -25t26.5 -18.5t38 -14.5q35 -10 59.5 -19.5t39.5 -18.5
q30 -17 45.5 -40.5t15.5 -54.5q0 -95 -66.5 -143.5t-200.5 -48.5h-215z" />
    <glyph glyph-name="uniFC50" unicode="&#xfc50;" horiz-adv-x="1296" arabic-form="isolated" 
d="M973 0q-5 0 -5 5v83q0 4 5 4h130v396h109v-488h-239zM1127 587q-27 0 -43 17t-16 47q0 31 15.5 47.5t43.5 16.5q29 0 44.5 -17t15.5 -47q0 -29 -16 -46.5t-44 -17.5zM266 -240q-62 0 -107 30t-69.5 83t-24.5 124q0 51 8.5 95t25.5 89h100q-15 -42 -20.5 -80.5t-5.5 -92.5
q0 -47 15.5 -82t44 -54.5t66.5 -19.5h182q45 0 80.5 9.5t56 27t20.5 41.5q0 19 -17.5 33t-55.5 24q-51 15 -86.5 31.5t-53 42.5t-17.5 67q0 28 9 56t27 55q24 37 57.5 65t71.5 44t74 16q16 0 31 -2.5t29 -9.5q28 -13 53.5 -40t62.5 -84q29 -45 51 -73t39 -40q15 -11 31 -17
t34 -6h5q5 0 5 -4v-83q0 -5 -5 -5h-5q-31 0 -58 8t-53 25t-53 45q-5 6 -18 23.5t-33 45.5q-24 34 -43 56t-33 35q-13 11 -26.5 16.5t-26.5 5.5q-18 0 -39 -11.5t-39.5 -29.5t-30 -38.5t-11.5 -37.5q0 -14 9.5 -25t26.5 -18.5t38 -14.5q35 -10 59.5 -19.5t39.5 -18.5
q30 -17 45.5 -40.5t15.5 -54.5q0 -95 -66.5 -143.5t-200.5 -48.5h-215zM305 -455q-26 0 -43 16t-17 48q0 33 17 48.5t43 15.5q27 0 43 -16.5t16 -47.5q0 -30 -16 -47t-43 -17zM477 -455q-28 0 -44 17t-16 47q0 31 16 47.5t44 16.5t43.5 -17.5t15.5 -46.5t-15.5 -46.5
t-43.5 -17.5z" />
    <glyph glyph-name="uniFC51" unicode="&#xfc51;" horiz-adv-x="1438" arabic-form="isolated" 
d="M763 92q-28 20 -45 56.5t-17 85.5q0 61 28 108t77 74t110 27q65 0 109.5 -24.5t67.5 -72.5t23 -119v-135h133v192q0 133 -61.5 199t-189.5 66q-58 0 -107.5 -8t-97.5 -24l-26 89q36 13 73.5 20.5t76.5 11t81 3.5q174 0 266 -90t92 -257v-294h-737q-5 0 -5 5v83q0 4 5 4
h144zM944 92h65v123q0 67 -25 97.5t-75 30.5q-46 0 -72 -30t-26 -83q0 -43 16 -74t46 -47.5t71 -16.5zM260 -323q-66 0 -114.5 24t-74.5 68.5t-26 105.5q0 39 13.5 73.5t39.5 64.5q26 32 67.5 59.5t103 53.5t148.5 50q-5 18 -10.5 40t-10.5 47q-9 49 -27.5 80.5t-47 47
t-67.5 15.5q-35 0 -81 -13.5t-86 -34.5l-41 82q28 18 64.5 30.5t76.5 20t78 7.5q65 0 111.5 -22.5t75 -68t39.5 -114.5q8 -45 17 -77.5t18 -52.5q16 -35 40 -53t58 -18h5q5 0 5 -4v-83q0 -5 -5 -5h-5q-39 0 -71 9.5t-56 31t-44 54.5q-60 -16 -105 -31.5t-75 -30.5
q-60 -30 -89.5 -67t-29.5 -83q0 -55 33.5 -84.5t94.5 -29.5zM454 -253q-27 0 -43 17t-16 47q0 31 15.5 47.5t43.5 16.5q29 0 44.5 -17t15.5 -47q0 -29 -16 -46.5t-44 -17.5z" />
    <glyph glyph-name="uniFC52" unicode="&#xfc52;" horiz-adv-x="1515" arabic-form="isolated" 
d="M840 92q-28 20 -45 56.5t-17 85.5q0 61 28 108t77 74t110 27q65 0 109.5 -24.5t67.5 -72.5t23 -119v-135h133v192q0 133 -61.5 199t-189.5 66q-58 0 -107.5 -8t-97.5 -24l-26 89q36 13 73.5 20.5t76.5 11t81 3.5q174 0 266 -90t92 -257v-294h-737q-5 0 -5 5v83q0 4 5 4
h144zM1021 92h65v123q0 67 -25 97.5t-75 30.5q-46 0 -72 -30t-26 -83q0 -43 16 -74t46 -47.5t71 -16.5zM245 0q-38 0 -56 -18t-18 -56v-246h-106v272q0 43 15.5 74t43.5 48.5t65 17.5h6q-17 42 -25.5 82t-8.5 78q0 44 11 87.5t30 78.5q40 29 90 46.5t98 17.5q32 0 61 -7
t54 -21q50 -28 77 -80t27 -118q0 -30 -4.5 -58.5t-15.5 -54.5q21 -29 46.5 -40t65.5 -11h5q5 0 5 -4v-83q0 -5 -5 -5h-5q-53 0 -90.5 14.5t-72.5 51.5q-34 -33 -78.5 -49.5t-93.5 -16.5h-121zM267 256q0 -39 7.5 -78.5t25.5 -85.5h60q43 0 74 20t48 57t17 87q0 60 -31.5 97
t-78.5 37q-28 0 -55.5 -9t-53.5 -27q-8 -23 -10.5 -47t-2.5 -51z" />
    <glyph glyph-name="uniFC53" unicode="&#xfc53;" horiz-adv-x="1791" arabic-form="isolated" 
d="M1117 92q-28 20 -45 56.5t-17 85.5q0 61 28 108t77 74t110 27q65 0 109.5 -24.5t67.5 -72.5t23 -119v-135h133v192q0 133 -61.5 199t-189.5 66q-58 0 -107.5 -8t-97.5 -24l-26 89q36 13 73.5 20.5t76.5 11t81 3.5q174 0 266 -90t92 -257v-294h-737q-5 0 -5 5v83q0 4 5 4
h144zM1298 92h65v123q0 67 -25 97.5t-75 30.5q-46 0 -72 -30t-26 -83q0 -43 16 -74t46 -47.5t71 -16.5zM266 -240q-62 0 -107 30t-69.5 83t-24.5 124q0 51 8.5 95t25.5 89h100q-15 -42 -20.5 -80.5t-5.5 -92.5q0 -47 15.5 -82t44 -54.5t66.5 -19.5h182q45 0 80.5 9.5t56 27
t20.5 41.5q0 19 -17.5 33t-55.5 24q-51 15 -86.5 31.5t-53 42.5t-17.5 67q0 28 9 56t27 55q24 37 57.5 65t71.5 44t74 16q16 0 31 -2.5t29 -9.5q28 -13 53.5 -40t62.5 -84q29 -45 51 -73t39 -40q15 -11 31 -17t34 -6h5q5 0 5 -4v-83q0 -5 -5 -5h-5q-31 0 -58 8t-53 25
t-53 45q-5 6 -18 23.5t-33 45.5q-24 34 -43 56t-33 35q-13 11 -26.5 16.5t-26.5 5.5q-18 0 -39 -11.5t-39.5 -29.5t-30 -38.5t-11.5 -37.5q0 -14 9.5 -25t26.5 -18.5t38 -14.5q35 -10 59.5 -19.5t39.5 -18.5q30 -17 45.5 -40.5t15.5 -54.5q0 -95 -66.5 -143.5t-200.5 -48.5
h-215z" />
    <glyph glyph-name="uniFC54" unicode="&#xfc54;" horiz-adv-x="1791" arabic-form="isolated" 
d="M1117 92q-28 20 -45 56.5t-17 85.5q0 61 28 108t77 74t110 27q65 0 109.5 -24.5t67.5 -72.5t23 -119v-135h133v192q0 133 -61.5 199t-189.5 66q-58 0 -107.5 -8t-97.5 -24l-26 89q36 13 73.5 20.5t76.5 11t81 3.5q174 0 266 -90t92 -257v-294h-737q-5 0 -5 5v83q0 4 5 4
h144zM1298 92h65v123q0 67 -25 97.5t-75 30.5q-46 0 -72 -30t-26 -83q0 -43 16 -74t46 -47.5t71 -16.5zM266 -240q-62 0 -107 30t-69.5 83t-24.5 124q0 51 8.5 95t25.5 89h100q-15 -42 -20.5 -80.5t-5.5 -92.5q0 -47 15.5 -82t44 -54.5t66.5 -19.5h182q45 0 80.5 9.5t56 27
t20.5 41.5q0 19 -17.5 33t-55.5 24q-51 15 -86.5 31.5t-53 42.5t-17.5 67q0 28 9 56t27 55q24 37 57.5 65t71.5 44t74 16q16 0 31 -2.5t29 -9.5q28 -13 53.5 -40t62.5 -84q29 -45 51 -73t39 -40q15 -11 31 -17t34 -6h5q5 0 5 -4v-83q0 -5 -5 -5h-5q-31 0 -58 8t-53 25
t-53 45q-5 6 -18 23.5t-33 45.5q-24 34 -43 56t-33 35q-13 11 -26.5 16.5t-26.5 5.5q-18 0 -39 -11.5t-39.5 -29.5t-30 -38.5t-11.5 -37.5q0 -14 9.5 -25t26.5 -18.5t38 -14.5q35 -10 59.5 -19.5t39.5 -18.5q30 -17 45.5 -40.5t15.5 -54.5q0 -95 -66.5 -143.5t-200.5 -48.5
h-215zM305 -455q-26 0 -43 16t-17 48q0 33 17 48.5t43 15.5q27 0 43 -16.5t16 -47.5q0 -30 -16 -47t-43 -17zM477 -455q-28 0 -44 17t-16 47q0 31 16 47.5t44 16.5t43.5 -17.5t15.5 -46.5t-15.5 -46.5t-43.5 -17.5z" />
    <glyph glyph-name="uniFC55" unicode="&#xfc55;" horiz-adv-x="1008" arabic-form="isolated" 
d="M619 0q-5 0 -5 5v83q0 4 5 4h186v396h109v-488h-295zM722 -211q-26 0 -43 16t-17 48q0 33 17 48.5t43 15.5q27 0 43 -16.5t16 -47.5q0 -30 -16 -47t-43 -17zM894 -211q-28 0 -44 17t-16 47q0 31 16 47.5t44 16.5t43.5 -17.5t15.5 -46.5t-15.5 -46.5t-43.5 -17.5z
M260 -323q-66 0 -114.5 24t-74.5 68.5t-26 105.5q0 39 13.5 73.5t39.5 64.5q26 32 67.5 59.5t103 53.5t148.5 50q-5 18 -10.5 40t-10.5 47q-9 49 -27.5 80.5t-47 47t-67.5 15.5q-35 0 -81 -13.5t-86 -34.5l-41 82q28 18 64.5 30.5t76.5 20t78 7.5q65 0 111.5 -22.5t75 -68
t39.5 -114.5q8 -45 17 -77.5t18 -52.5q16 -35 40 -53t58 -18h5q5 0 5 -4v-83q0 -5 -5 -5h-5q-39 0 -71 9.5t-56 31t-44 54.5q-60 -16 -105 -31.5t-75 -30.5q-60 -30 -89.5 -67t-29.5 -83q0 -55 33.5 -84.5t94.5 -29.5zM454 -253q-27 0 -43 17t-16 47q0 31 15.5 47.5
t43.5 16.5q29 0 44.5 -17t15.5 -47q0 -29 -16 -46.5t-44 -17.5z" />
    <glyph glyph-name="uniFC56" unicode="&#xfc56;" horiz-adv-x="1008" arabic-form="isolated" 
d="M619 0q-5 0 -5 5v83q0 4 5 4h186v396h109v-488h-295zM722 -211q-26 0 -43 16t-17 48q0 33 17 48.5t43 15.5q27 0 43 -16.5t16 -47.5q0 -30 -16 -47t-43 -17zM894 -211q-28 0 -44 17t-16 47q0 31 16 47.5t44 16.5t43.5 -17.5t15.5 -46.5t-15.5 -46.5t-43.5 -17.5zM624 0
q-39 0 -71 9.5t-56 31t-44 54.5q-39 -11 -72.5 -21.5t-60.5 -20.5t-47 -20q-60 -31 -89.5 -67.5t-29.5 -82.5q0 -37 16 -62.5t47 -38.5t77 -13q28 0 64.5 4.5t82.5 13.5l13 -82q-51 -13 -101 -20.5t-93 -7.5q-66 0 -114.5 24t-74.5 68.5t-26 105.5q0 39 13.5 73.5t39.5 64.5
q26 32 67.5 59.5t103 53.5t148.5 50q-5 18 -10.5 40t-10.5 47q-9 49 -27.5 80.5t-47 47t-67.5 15.5q-35 0 -81 -13.5t-86 -34.5l-41 82q42 26 102 42t117 16q65 0 111.5 -22.5t75.5 -69t40 -117.5q7 -40 15.5 -71.5t16.5 -51.5q17 -36 41 -55t59 -19h5q5 0 5 -4v-83
q0 -5 -5 -5h-5z" />
    <glyph glyph-name="uniFC57" unicode="&#xfc57;" horiz-adv-x="1008" arabic-form="isolated" 
d="M619 0q-5 0 -5 5v83q0 4 5 4h186v396h109v-488h-295zM722 -211q-26 0 -43 16t-17 48q0 33 17 48.5t43 15.5q27 0 43 -16.5t16 -47.5q0 -30 -16 -47t-43 -17zM894 -211q-28 0 -44 17t-16 47q0 31 16 47.5t44 16.5t43.5 -17.5t15.5 -46.5t-15.5 -46.5t-43.5 -17.5zM624 0
q-39 0 -71 9.5t-56 31t-44 54.5q-39 -11 -72.5 -21.5t-60.5 -20.5t-47 -20q-60 -31 -89.5 -67.5t-29.5 -82.5q0 -37 16 -62.5t47 -38.5t77 -13q28 0 64.5 4.5t82.5 13.5l13 -82q-51 -13 -101 -20.5t-93 -7.5q-66 0 -114.5 24t-74.5 68.5t-26 105.5q0 39 13.5 73.5t39.5 64.5
q26 32 67.5 59.5t103 53.5t148.5 50q-5 18 -10.5 40t-10.5 47q-9 49 -27.5 80.5t-47 47t-67.5 15.5q-35 0 -81 -13.5t-86 -34.5l-41 82q42 26 102 42t117 16q65 0 111.5 -22.5t75.5 -69t40 -117.5q7 -40 15.5 -71.5t16.5 -51.5q17 -36 41 -55t59 -19h5q5 0 5 -4v-83
q0 -5 -5 -5h-5zM251 607q-27 0 -43 17t-16 47q0 31 15.5 47.5t43.5 16.5q29 0 44.5 -17t15.5 -47q0 -29 -16 -46.5t-44 -17.5z" />
    <glyph glyph-name="uniFC58" unicode="&#xfc58;" horiz-adv-x="1085" arabic-form="isolated" 
d="M696 0q-5 0 -5 5v83q0 4 5 4h186v396h109v-488h-295zM799 -211q-26 0 -43 16t-17 48q0 33 17 48.5t43 15.5q27 0 43 -16.5t16 -47.5q0 -30 -16 -47t-43 -17zM971 -211q-28 0 -44 17t-16 47q0 31 16 47.5t44 16.5t43.5 -17.5t15.5 -46.5t-15.5 -46.5t-43.5 -17.5zM245 0
q-38 0 -56 -18t-18 -56v-246h-106v272q0 43 15.5 74t43.5 48.5t65 17.5h6q-17 42 -25.5 82t-8.5 78q0 44 11 87.5t30 78.5q40 29 90 46.5t98 17.5q32 0 61 -7t54 -21q50 -28 77 -80t27 -118q0 -30 -4.5 -58.5t-15.5 -54.5q21 -29 46.5 -40t65.5 -11h5q5 0 5 -4v-83
q0 -5 -5 -5h-5q-53 0 -90.5 14.5t-72.5 51.5q-34 -33 -78.5 -49.5t-93.5 -16.5h-121zM267 256q0 -39 7.5 -78.5t25.5 -85.5h60q43 0 74 20t48 57t17 87q0 60 -31.5 97t-78.5 37q-28 0 -55.5 -9t-53.5 -27q-8 -23 -10.5 -47t-2.5 -51z" />
    <glyph glyph-name="uniFC59" unicode="&#xfc59;" horiz-adv-x="1362" arabic-form="isolated" 
d="M973 0q-5 0 -5 5v83q0 4 5 4h186v396h109v-488h-295zM1076 -211q-26 0 -43 16t-17 48q0 33 17 48.5t43 15.5q27 0 43 -16.5t16 -47.5q0 -30 -16 -47t-43 -17zM1248 -211q-28 0 -44 17t-16 47q0 31 16 47.5t44 16.5t43.5 -17.5t15.5 -46.5t-15.5 -46.5t-43.5 -17.5z
M266 -240q-62 0 -107 30t-69.5 83t-24.5 124q0 51 8.5 95t25.5 89h100q-15 -42 -20.5 -80.5t-5.5 -92.5q0 -47 15.5 -82t44 -54.5t66.5 -19.5h182q45 0 80.5 9.5t56 27t20.5 41.5q0 19 -17.5 33t-55.5 24q-51 15 -86.5 31.5t-53 42.5t-17.5 67q0 28 9 56t27 55
q24 37 57.5 65t71.5 44t74 16q16 0 31 -2.5t29 -9.5q28 -13 53.5 -40t62.5 -84q29 -45 51 -73t39 -40q15 -11 31 -17t34 -6h5q5 0 5 -4v-83q0 -5 -5 -5h-5q-31 0 -58 8t-53 25t-53 45q-5 6 -18 23.5t-33 45.5q-24 34 -43 56t-33 35q-13 11 -26.5 16.5t-26.5 5.5
q-18 0 -39 -11.5t-39.5 -29.5t-30 -38.5t-11.5 -37.5q0 -14 9.5 -25t26.5 -18.5t38 -14.5q35 -10 59.5 -19.5t39.5 -18.5q30 -17 45.5 -40.5t15.5 -54.5q0 -95 -66.5 -143.5t-200.5 -48.5h-215z" />
    <glyph glyph-name="uniFC5A" unicode="&#xfc5a;" horiz-adv-x="1362" arabic-form="isolated" 
d="M973 0q-5 0 -5 5v83q0 4 5 4h186v396h109v-488h-295zM1076 -211q-26 0 -43 16t-17 48q0 33 17 48.5t43 15.5q27 0 43 -16.5t16 -47.5q0 -30 -16 -47t-43 -17zM1248 -211q-28 0 -44 17t-16 47q0 31 16 47.5t44 16.5t43.5 -17.5t15.5 -46.5t-15.5 -46.5t-43.5 -17.5z
M266 -240q-62 0 -107 30t-69.5 83t-24.5 124q0 51 8.5 95t25.5 89h100q-15 -42 -20.5 -80.5t-5.5 -92.5q0 -47 15.5 -82t44 -54.5t66.5 -19.5h182q45 0 80.5 9.5t56 27t20.5 41.5q0 19 -17.5 33t-55.5 24q-51 15 -86.5 31.5t-53 42.5t-17.5 67q0 28 9 56t27 55
q24 37 57.5 65t71.5 44t74 16q16 0 31 -2.5t29 -9.5q28 -13 53.5 -40t62.5 -84q29 -45 51 -73t39 -40q15 -11 31 -17t34 -6h5q5 0 5 -4v-83q0 -5 -5 -5h-5q-31 0 -58 8t-53 25t-53 45q-5 6 -18 23.5t-33 45.5q-24 34 -43 56t-33 35q-13 11 -26.5 16.5t-26.5 5.5
q-18 0 -39 -11.5t-39.5 -29.5t-30 -38.5t-11.5 -37.5q0 -14 9.5 -25t26.5 -18.5t38 -14.5q35 -10 59.5 -19.5t39.5 -18.5q30 -17 45.5 -40.5t15.5 -54.5q0 -95 -66.5 -143.5t-200.5 -48.5h-215zM305 -455q-26 0 -43 16t-17 48q0 33 17 48.5t43 15.5q27 0 43 -16.5t16 -47.5
q0 -30 -16 -47t-43 -17zM477 -455q-28 0 -44 17t-16 47q0 31 16 47.5t44 16.5t43.5 -17.5t15.5 -46.5t-15.5 -46.5t-43.5 -17.5z" />
    <glyph glyph-name="uniFC5B" unicode="&#xfc5b;" horiz-adv-x="538" arabic-form="isolated" 
d="M45 92h333q-6 41 -16 76t-22 65q-29 72 -76.5 128t-118.5 98l40 97q81 -39 141 -103.5t100.5 -155t59.5 -208.5v-89h-441v92zM184 646q-27 0 -43 17t-16 47q0 31 15.5 47.5t43.5 16.5q29 0 44.5 -17t15.5 -47q0 -29 -16 -46.5t-44 -17.5zM153 1021h60v-194h-60v194z" />
    <glyph glyph-name="uniFC5C" unicode="&#xfc5c;" horiz-adv-x="363" arabic-form="isolated" 
d="M89 -240q-33 0 -64 8.5t-65 28.5l37 77q25 -13 42.5 -17t38.5 -4q44 0 69 34.5t25 90.5v510h106v-509q0 -68 -22.5 -117t-64.5 -75.5t-102 -26.5zM188 775h60v-194h-60v194z" />
    <glyph glyph-name="uniFC5D" unicode="&#xfc5d;" horiz-adv-x="854" arabic-form="isolated" 
d="M266 -240q-62 0 -107 30t-69.5 83t-24.5 124q0 51 8.5 95t25.5 89h100q-15 -42 -20.5 -80.5t-5.5 -92.5q0 -47 15.5 -82t44 -54.5t66.5 -19.5h189q48 0 84 10t56 30t20 48q0 20 -14 38t-36.5 34t-49.5 32t-48.5 31t-39.5 28q-23 17 -37 33t-20.5 33.5t-6.5 36.5
q0 29 11.5 61.5t35.5 66.5q32 46 73 81.5t86.5 55.5t87.5 20q21 0 43 -5.5t43 -14.5t39 -22l-42 -81q-9 5 -24 10t-30 7.5t-28 2.5q-18 0 -38.5 -7t-40.5 -20q-30 -19 -53.5 -42.5t-37.5 -47.5t-14 -46q0 -11 11 -25t28.5 -28t40.5 -28q31 -19 56 -36.5t43 -33.5
q36 -32 54 -66t18 -68q0 -87 -70 -133.5t-200 -46.5h-222zM196 526h60v-194h-60v194z" />
    <glyph glyph-name="uniFC5E" unicode="&#xfc5e;" horiz-adv-x="322" arabic-form="isolated" 
d="M84 806q-41 0 -62.5 25t-21.5 72v63h55v-52q0 -29 8.5 -42t30.5 -13q21 0 31.5 11t10.5 35v86h50v-66q0 -25 8.5 -35.5t29.5 -10.5q25 0 34 12.5t9 42.5v72h55v-83q0 -47 -22 -72t-65 -25q-23 0 -41 7.5t-29 22.5q-13 -25 -33 -37.5t-48 -12.5zM169 1044q-36 0 -60.5 11
t-53.5 36l-42 -34l-34 41l81 73q27 -36 54 -55t51 -19q9 0 15 1t10 3q-14 19 -23 41.5t-9 44.5q0 38 25.5 61t65.5 23t63.5 -22.5t23.5 -57.5q0 -42 -22 -74q-16 -22 -38.5 -39t-49.5 -25.5t-57 -8.5zM239 1118q23 13 33 30.5t10 37.5q0 15 -9.5 24.5t-25.5 9.5
q-14 0 -24.5 -9.5t-10.5 -28.5q0 -14 7 -30t20 -34z" />
    <glyph glyph-name="uniFC5F" unicode="&#xfc5f;" arabic-form="isolated" 
d="M84 833q-41 0 -62.5 24.5t-21.5 72.5v63h55v-52q0 -29 8.5 -42t30.5 -13q21 0 31.5 11t10.5 35v86h50v-66q0 -25 8.5 -35.5t29.5 -10.5q25 0 34 12t9 43v72h55v-83q0 -47 -22 -72t-65 -25q-23 0 -41 7.5t-29 22.5q-13 -25 -33 -37.5t-48 -12.5zM46 608l234 87v-57
l-234 -88v58zM46 724l234 87v-57l-234 -88v58z" />
    <glyph glyph-name="uniFC60" unicode="&#xfc60;" arabic-form="isolated" 
d="M84 806q-41 0 -62.5 25t-21.5 72v63h55v-52q0 -29 8.5 -42t30.5 -13q21 0 31.5 11t10.5 35v86h50v-66q0 -25 8.5 -35.5t29.5 -10.5q25 0 34 12.5t9 42.5v72h55v-83q0 -47 -22 -72t-65 -25q-23 0 -41 7.5t-29 22.5q-13 -25 -33 -37.5t-48 -12.5zM43 1078l234 87v-57
l-234 -88v58z" />
    <glyph glyph-name="uniFC61" unicode="&#xfc61;" arabic-form="isolated" 
d="M84 806q-41 0 -62.5 25t-21.5 72v63h55v-52q0 -29 8.5 -42t30.5 -13q21 0 31.5 11t10.5 35v86h50v-66q0 -25 8.5 -35.5t29.5 -10.5q25 0 34 12.5t9 42.5v72h55v-83q0 -47 -22 -72t-65 -25q-23 0 -41 7.5t-29 22.5q-13 -25 -33 -37.5t-48 -12.5zM117 1044q-28 0 -54 8.5
t-50 25.5l31 44q19 -13 37 -19t34 -6q13 0 25 1.5t22 4.5q-31 41 -31 84q0 38 25.5 61t65.5 23t63.5 -23t23.5 -57q0 -18 -6 -36t-20 -35q-28 -34 -72.5 -55t-93.5 -21zM209 1121q24 13 34.5 31t10.5 35q0 14 -9.5 23.5t-24.5 9.5q-14 0 -24.5 -9.5t-10.5 -28.5
q0 -15 5.5 -30t18.5 -31z" />
    <glyph glyph-name="uniFC62" unicode="&#xfc62;" arabic-form="isolated" 
d="M84 817q-41 0 -62.5 25t-21.5 72v63h55v-52q0 -29 8.5 -42t30.5 -13q21 0 31.5 11t10.5 35v86h50v-66q0 -25 8.5 -35.5t29.5 -10.5q25 0 34 12.5t9 42.5v72h55v-83q0 -47 -22 -72t-65 -25q-23 0 -41 7.5t-29 22.5q-13 -25 -33 -37.5t-48 -12.5zM39 706l234 87v-58
l-234 -88v59z" />
    <glyph glyph-name="uniFC63" unicode="&#xfc63;" arabic-form="isolated" 
d="M84 806q-41 0 -62.5 25t-21.5 72v63h55v-52q0 -29 8.5 -42t30.5 -13q21 0 31.5 11t10.5 35v86h50v-66q0 -25 8.5 -35.5t29.5 -10.5q25 0 34 12.5t9 42.5v72h55v-83q0 -47 -22 -72t-65 -25q-23 0 -41 7.5t-29 22.5q-13 -25 -33 -37.5t-48 -12.5zM131 1227h60v-194h-60v194
z" />
    <glyph glyph-name="uniFC64" unicode="&#xfc64;" horiz-adv-x="757" arabic-form="final" 
d="M394 0q-5 0 -5 5v83q0 4 5 4h130v396h109v-396h130q5 0 5 -4v-83q0 -5 -5 -5h-369zM436 624l50 7q-18 11 -28 27.5t-10 37.5q0 43 28.5 66.5t76.5 23.5q42 0 71 -16l-17 -47q-11 7 -23.5 10t-27.5 3q-22 0 -36.5 -13t-14.5 -37q0 -17 8.5 -29t21.5 -18q22 5 41.5 7.5
t35 4t23.5 1.5v-52q-19 -1 -44.5 -3.5t-53.5 -6t-54.5 -7.5t-46.5 -7v48zM278 0v-21q0 -68 -22.5 -117t-64.5 -75.5t-102 -26.5q-33 0 -64 8.5t-65 28.5l37 77q25 -13 42.5 -17t38.5 -4q44 0 69 34.5t25 90.5v510h106v-396h126q5 0 5 -4v-83q0 -5 -5 -5h-126z" />
    <glyph glyph-name="uniFC65" unicode="&#xfc65;" horiz-adv-x="757" arabic-form="final" 
d="M394 0q-5 0 -5 5v83q0 4 5 4h130v396h109v-396h130q5 0 5 -4v-83q0 -5 -5 -5h-369zM436 624l50 7q-18 11 -28 27.5t-10 37.5q0 43 28.5 66.5t76.5 23.5q42 0 71 -16l-17 -47q-11 7 -23.5 10t-27.5 3q-22 0 -36.5 -13t-14.5 -37q0 -17 8.5 -29t21.5 -18q22 5 41.5 7.5
t35 4t23.5 1.5v-52q-19 -1 -44.5 -3.5t-53.5 -6t-54.5 -7.5t-46.5 -7v48zM278 0v-21q0 -68 -22.5 -117t-64.5 -75.5t-102 -26.5q-33 0 -64 8.5t-65 28.5l37 77q25 -13 42.5 -17t38.5 -4q44 0 69 34.5t25 90.5v510h106v-396h126q5 0 5 -4v-83q0 -5 -5 -5h-126zM218 586
q-27 0 -43 17t-16 47q0 31 15.5 47.5t43.5 16.5q29 0 44.5 -17t15.5 -47q0 -29 -16 -46.5t-44 -17.5z" />
    <glyph glyph-name="uniFC66" unicode="&#xfc66;" horiz-adv-x="1060" arabic-form="final" 
d="M696 0q-5 0 -5 5v83q0 4 5 4h130v396h109v-396h130q5 0 5 -4v-83q0 -5 -5 -5h-369zM738 624l50 7q-18 11 -28 27.5t-10 37.5q0 43 28.5 66.5t76.5 23.5q42 0 71 -16l-17 -47q-11 7 -23.5 10t-27.5 3q-22 0 -36.5 -13t-14.5 -37q0 -17 8.5 -29t21.5 -18q22 5 41.5 7.5
t35 4t23.5 1.5v-52q-19 -1 -44.5 -3.5t-53.5 -6t-54.5 -7.5t-46.5 -7v48zM245 0q-38 0 -56 -18t-18 -56v-246h-106v272q0 43 15.5 74t43.5 48.5t65 17.5h6q-17 42 -25.5 82t-8.5 78q0 44 11 87.5t30 78.5q40 29 90 46.5t98 17.5q32 0 61 -7t54 -21q50 -28 77 -80t27 -118
q0 -30 -4.5 -58.5t-15.5 -54.5q21 -29 46.5 -40t65.5 -11h5q5 0 5 -4v-83q0 -5 -5 -5h-5q-53 0 -90.5 14.5t-72.5 51.5q-34 -33 -78.5 -49.5t-93.5 -16.5h-121zM267 256q0 -39 7.5 -78.5t25.5 -85.5h60q43 0 74 20t48 57t17 87q0 60 -31.5 97t-78.5 37q-28 0 -55.5 -9
t-53.5 -27q-8 -23 -10.5 -47t-2.5 -51z" />
    <glyph glyph-name="uniFC67" unicode="&#xfc67;" horiz-adv-x="1087" arabic-form="final" 
d="M723 0q-5 0 -5 5v83q0 4 5 4h130v396h109v-396h130q5 0 5 -4v-83q0 -5 -5 -5h-369zM765 624l50 7q-18 11 -28 27.5t-10 37.5q0 43 28.5 66.5t76.5 23.5q42 0 71 -16l-17 -47q-11 7 -23.5 10t-27.5 3q-22 0 -36.5 -13t-14.5 -37q0 -17 8.5 -29t21.5 -18q22 5 41.5 7.5
t35 4t23.5 1.5v-52q-19 -1 -44.5 -3.5t-53.5 -6t-54.5 -7.5t-46.5 -7v48zM616 0q-3 -119 -68 -179.5t-196 -60.5h-62q-39 0 -71.5 10t-58.5 28q-46 33 -70.5 88.5t-24.5 127.5q0 59 11.5 115.5t32.5 105.5h100q-17 -46 -25.5 -101.5t-8.5 -115.5q0 -79 34.5 -122.5
t96.5 -43.5h42q56 0 92 18t53 53.5t17 88.5v476h107v-396h116q5 0 5 -4v-83q0 -5 -5 -5h-117zM332 469q-27 0 -43 17t-16 47q0 31 15.5 47.5t43.5 16.5q29 0 44.5 -17t15.5 -47q0 -29 -16 -46.5t-44 -17.5z" />
    <glyph glyph-name="uniFC68" unicode="&#xfc68;" horiz-adv-x="1336" arabic-form="final" 
d="M973 0q-5 0 -5 5v83q0 4 5 4h130v396h109v-396h130q5 0 5 -4v-83q0 -5 -5 -5h-369zM1015 624l50 7q-18 11 -28 27.5t-10 37.5q0 43 28.5 66.5t76.5 23.5q42 0 71 -16l-17 -47q-11 7 -23.5 10t-27.5 3q-22 0 -36.5 -13t-14.5 -37q0 -17 8.5 -29t21.5 -18q22 5 41.5 7.5
t35 4t23.5 1.5v-52q-19 -1 -44.5 -3.5t-53.5 -6t-54.5 -7.5t-46.5 -7v48zM266 -240q-62 0 -107 30t-69.5 83t-24.5 124q0 51 8.5 95t25.5 89h100q-15 -42 -20.5 -80.5t-5.5 -92.5q0 -47 15.5 -82t44 -54.5t66.5 -19.5h182q45 0 80.5 9.5t56 27t20.5 41.5q0 19 -17.5 33
t-55.5 24q-51 15 -86.5 31.5t-53 42.5t-17.5 67q0 28 9 56t27 55q24 37 57.5 65t71.5 44t74 16q16 0 31 -2.5t29 -9.5q28 -13 53.5 -40t62.5 -84q29 -45 51 -73t39 -40q15 -11 31 -17t34 -6h5q5 0 5 -4v-83q0 -5 -5 -5h-5q-31 0 -58 8t-53 25t-53 45q-5 6 -18 23.5t-33 45.5
q-24 34 -43 56t-33 35q-13 11 -26.5 16.5t-26.5 5.5q-18 0 -39 -11.5t-39.5 -29.5t-30 -38.5t-11.5 -37.5q0 -14 9.5 -25t26.5 -18.5t38 -14.5q35 -10 59.5 -19.5t39.5 -18.5q30 -17 45.5 -40.5t15.5 -54.5q0 -95 -66.5 -143.5t-200.5 -48.5h-215z" />
    <glyph glyph-name="uniFC69" unicode="&#xfc69;" horiz-adv-x="1336" arabic-form="final" 
d="M973 0q-5 0 -5 5v83q0 4 5 4h130v396h109v-396h130q5 0 5 -4v-83q0 -5 -5 -5h-369zM1015 624l50 7q-18 11 -28 27.5t-10 37.5q0 43 28.5 66.5t76.5 23.5q42 0 71 -16l-17 -47q-11 7 -23.5 10t-27.5 3q-22 0 -36.5 -13t-14.5 -37q0 -17 8.5 -29t21.5 -18q22 5 41.5 7.5
t35 4t23.5 1.5v-52q-19 -1 -44.5 -3.5t-53.5 -6t-54.5 -7.5t-46.5 -7v48zM266 -240q-62 0 -107 30t-69.5 83t-24.5 124q0 51 8.5 95t25.5 89h100q-15 -42 -20.5 -80.5t-5.5 -92.5q0 -47 15.5 -82t44 -54.5t66.5 -19.5h182q45 0 80.5 9.5t56 27t20.5 41.5q0 19 -17.5 33
t-55.5 24q-51 15 -86.5 31.5t-53 42.5t-17.5 67q0 28 9 56t27 55q24 37 57.5 65t71.5 44t74 16q16 0 31 -2.5t29 -9.5q28 -13 53.5 -40t62.5 -84q29 -45 51 -73t39 -40q15 -11 31 -17t34 -6h5q5 0 5 -4v-83q0 -5 -5 -5h-5q-31 0 -58 8t-53 25t-53 45q-5 6 -18 23.5t-33 45.5
q-24 34 -43 56t-33 35q-13 11 -26.5 16.5t-26.5 5.5q-18 0 -39 -11.5t-39.5 -29.5t-30 -38.5t-11.5 -37.5q0 -14 9.5 -25t26.5 -18.5t38 -14.5q35 -10 59.5 -19.5t39.5 -18.5q30 -17 45.5 -40.5t15.5 -54.5q0 -95 -66.5 -143.5t-200.5 -48.5h-215zM305 -455q-26 0 -43 16
t-17 48q0 33 17 48.5t43 15.5q27 0 43 -16.5t16 -47.5q0 -30 -16 -47t-43 -17zM477 -455q-28 0 -44 17t-16 47q0 31 16 47.5t44 16.5t43.5 -17.5t15.5 -46.5t-15.5 -46.5t-43.5 -17.5z" />
    <glyph glyph-name="uniFC6A" unicode="&#xfc6a;" horiz-adv-x="757" arabic-form="final" 
d="M394 0q-5 0 -5 5v83q0 4 5 4h130v396h109v-396h130q5 0 5 -4v-83q0 -5 -5 -5h-369zM565 -229q-28 0 -44 17t-16 47q0 31 16 47.5t44 16.5t43.5 -17t15.5 -47q0 -29 -15.5 -46.5t-43.5 -17.5zM278 0v-21q0 -68 -22.5 -117t-64.5 -75.5t-102 -26.5q-33 0 -64 8.5t-65 28.5
l37 77q25 -13 42.5 -17t38.5 -4q44 0 69 34.5t25 90.5v510h106v-396h126q5 0 5 -4v-83q0 -5 -5 -5h-126z" />
    <glyph glyph-name="uniFC6B" unicode="&#xfc6b;" horiz-adv-x="757" arabic-form="final" 
d="M394 0q-5 0 -5 5v83q0 4 5 4h130v396h109v-396h130q5 0 5 -4v-83q0 -5 -5 -5h-369zM565 -229q-28 0 -44 17t-16 47q0 31 16 47.5t44 16.5t43.5 -17t15.5 -47q0 -29 -15.5 -46.5t-43.5 -17.5zM278 0v-21q0 -68 -22.5 -117t-64.5 -75.5t-102 -26.5q-33 0 -64 8.5t-65 28.5
l37 77q25 -13 42.5 -17t38.5 -4q44 0 69 34.5t25 90.5v510h106v-396h126q5 0 5 -4v-83q0 -5 -5 -5h-126zM218 586q-27 0 -43 17t-16 47q0 31 15.5 47.5t43.5 16.5q29 0 44.5 -17t15.5 -47q0 -29 -16 -46.5t-44 -17.5z" />
    <glyph glyph-name="uniFC6C" unicode="&#xfc6c;" horiz-adv-x="1060" arabic-form="final" 
d="M696 0q-5 0 -5 5v83q0 4 5 4h130v396h109v-396h130q5 0 5 -4v-83q0 -5 -5 -5h-369zM868 -229q-28 0 -44 17t-16 47q0 31 16 47.5t44 16.5t43.5 -17t15.5 -47q0 -29 -15.5 -46.5t-43.5 -17.5zM245 0q-38 0 -56 -18t-18 -56v-246h-106v272q0 43 15.5 74t43.5 48.5t65 17.5
h6q-17 42 -25.5 82t-8.5 78q0 44 11 87.5t30 78.5q40 29 90 46.5t98 17.5q32 0 61 -7t54 -21q50 -28 77 -80t27 -118q0 -30 -4.5 -58.5t-15.5 -54.5q21 -29 46.5 -40t65.5 -11h5q5 0 5 -4v-83q0 -5 -5 -5h-5q-53 0 -90.5 14.5t-72.5 51.5q-34 -33 -78.5 -49.5t-93.5 -16.5
h-121zM267 256q0 -39 7.5 -78.5t25.5 -85.5h60q43 0 74 20t48 57t17 87q0 60 -31.5 97t-78.5 37q-28 0 -55.5 -9t-53.5 -27q-8 -23 -10.5 -47t-2.5 -51z" />
    <glyph glyph-name="uniFC6D" unicode="&#xfc6d;" horiz-adv-x="1087" arabic-form="final" 
d="M723 0q-5 0 -5 5v83q0 4 5 4h130v396h109v-396h130q5 0 5 -4v-83q0 -5 -5 -5h-369zM894 -229q-28 0 -44 17t-16 47q0 31 16 47.5t44 16.5t43.5 -17t15.5 -47q0 -29 -15.5 -46.5t-43.5 -17.5zM616 0q-3 -119 -68 -179.5t-196 -60.5h-62q-39 0 -71.5 10t-58.5 28
q-46 33 -70.5 88.5t-24.5 127.5q0 59 11.5 115.5t32.5 105.5h100q-17 -46 -25.5 -101.5t-8.5 -115.5q0 -79 34.5 -122.5t96.5 -43.5h42q56 0 92 18t53 53.5t17 88.5v476h107v-396h116q5 0 5 -4v-83q0 -5 -5 -5h-117zM332 469q-27 0 -43 17t-16 47q0 31 15.5 47.5t43.5 16.5
q29 0 44.5 -17t15.5 -47q0 -29 -16 -46.5t-44 -17.5z" />
    <glyph glyph-name="uniFC6E" unicode="&#xfc6e;" horiz-adv-x="1336" arabic-form="final" 
d="M973 0q-5 0 -5 5v83q0 4 5 4h130v396h109v-396h130q5 0 5 -4v-83q0 -5 -5 -5h-369zM1144 -229q-28 0 -44 17t-16 47q0 31 16 47.5t44 16.5t43.5 -17t15.5 -47q0 -29 -15.5 -46.5t-43.5 -17.5zM266 -240q-62 0 -107 30t-69.5 83t-24.5 124q0 51 8.5 95t25.5 89h100
q-15 -42 -20.5 -80.5t-5.5 -92.5q0 -47 15.5 -82t44 -54.5t66.5 -19.5h182q45 0 80.5 9.5t56 27t20.5 41.5q0 19 -17.5 33t-55.5 24q-51 15 -86.5 31.5t-53 42.5t-17.5 67q0 28 9 56t27 55q24 37 57.5 65t71.5 44t74 16q16 0 31 -2.5t29 -9.5q28 -13 53.5 -40t62.5 -84
q29 -45 51 -73t39 -40q15 -11 31 -17t34 -6h5q5 0 5 -4v-83q0 -5 -5 -5h-5q-31 0 -58 8t-53 25t-53 45q-5 6 -18 23.5t-33 45.5q-24 34 -43 56t-33 35q-13 11 -26.5 16.5t-26.5 5.5q-18 0 -39 -11.5t-39.5 -29.5t-30 -38.5t-11.5 -37.5q0 -14 9.5 -25t26.5 -18.5t38 -14.5
q35 -10 59.5 -19.5t39.5 -18.5q30 -17 45.5 -40.5t15.5 -54.5q0 -95 -66.5 -143.5t-200.5 -48.5h-215z" />
    <glyph glyph-name="uniFC6F" unicode="&#xfc6f;" horiz-adv-x="1336" arabic-form="final" 
d="M973 0q-5 0 -5 5v83q0 4 5 4h130v396h109v-396h130q5 0 5 -4v-83q0 -5 -5 -5h-369zM1144 -229q-28 0 -44 17t-16 47q0 31 16 47.5t44 16.5t43.5 -17t15.5 -47q0 -29 -15.5 -46.5t-43.5 -17.5zM266 -240q-62 0 -107 30t-69.5 83t-24.5 124q0 51 8.5 95t25.5 89h100
q-15 -42 -20.5 -80.5t-5.5 -92.5q0 -47 15.5 -82t44 -54.5t66.5 -19.5h182q45 0 80.5 9.5t56 27t20.5 41.5q0 19 -17.5 33t-55.5 24q-51 15 -86.5 31.5t-53 42.5t-17.5 67q0 28 9 56t27 55q24 37 57.5 65t71.5 44t74 16q16 0 31 -2.5t29 -9.5q28 -13 53.5 -40t62.5 -84
q29 -45 51 -73t39 -40q15 -11 31 -17t34 -6h5q5 0 5 -4v-83q0 -5 -5 -5h-5q-31 0 -58 8t-53 25t-53 45q-5 6 -18 23.5t-33 45.5q-24 34 -43 56t-33 35q-13 11 -26.5 16.5t-26.5 5.5q-18 0 -39 -11.5t-39.5 -29.5t-30 -38.5t-11.5 -37.5q0 -14 9.5 -25t26.5 -18.5t38 -14.5
q35 -10 59.5 -19.5t39.5 -18.5q30 -17 45.5 -40.5t15.5 -54.5q0 -95 -66.5 -143.5t-200.5 -48.5h-215zM305 -455q-26 0 -43 16t-17 48q0 33 17 48.5t43 15.5q27 0 43 -16.5t16 -47.5q0 -30 -16 -47t-43 -17zM477 -455q-28 0 -44 17t-16 47q0 31 16 47.5t44 16.5t43.5 -17.5
t15.5 -46.5t-15.5 -46.5t-43.5 -17.5z" />
    <glyph glyph-name="uniFC70" unicode="&#xfc70;" horiz-adv-x="807" arabic-form="final" 
d="M394 0q-5 0 -5 5v83q0 4 5 4h160v396h109v-396h150q5 0 5 -4v-83q0 -5 -5 -5h-419zM489 619q-26 0 -43 16t-17 48q0 33 17 48.5t43 15.5q28 0 43.5 -16.5t15.5 -47.5q0 -30 -16 -47t-43 -17zM661 619q-28 0 -44 17t-16 47q0 31 16 47.5t44 16.5t43.5 -17t15.5 -47
q0 -29 -15.5 -46.5t-43.5 -17.5zM278 0v-21q0 -68 -22.5 -117t-64.5 -75.5t-102 -26.5q-33 0 -64 8.5t-65 28.5l37 77q25 -13 42.5 -17t38.5 -4q44 0 69 34.5t25 90.5v510h106v-396h126q5 0 5 -4v-83q0 -5 -5 -5h-126z" />
    <glyph glyph-name="uniFC71" unicode="&#xfc71;" horiz-adv-x="807" arabic-form="final" 
d="M394 0q-5 0 -5 5v83q0 4 5 4h160v396h109v-396h150q5 0 5 -4v-83q0 -5 -5 -5h-419zM489 619q-26 0 -43 16t-17 48q0 33 17 48.5t43 15.5q28 0 43.5 -16.5t15.5 -47.5q0 -30 -16 -47t-43 -17zM661 619q-28 0 -44 17t-16 47q0 31 16 47.5t44 16.5t43.5 -17t15.5 -47
q0 -29 -15.5 -46.5t-43.5 -17.5zM278 0v-21q0 -68 -22.5 -117t-64.5 -75.5t-102 -26.5q-33 0 -64 8.5t-65 28.5l37 77q25 -13 42.5 -17t38.5 -4q44 0 69 34.5t25 90.5v510h106v-396h126q5 0 5 -4v-83q0 -5 -5 -5h-126zM218 586q-27 0 -43 17t-16 47q0 31 15.5 47.5
t43.5 16.5q29 0 44.5 -17t15.5 -47q0 -29 -16 -46.5t-44 -17.5z" />
    <glyph glyph-name="uniFC72" unicode="&#xfc72;" horiz-adv-x="1110" arabic-form="final" 
d="M696 0q-5 0 -5 5v83q0 4 5 4h160v396h109v-396h150q5 0 5 -4v-83q0 -5 -5 -5h-419zM792 619q-26 0 -43 16t-17 48q0 33 17 48.5t43 15.5q28 0 43.5 -16.5t15.5 -47.5q0 -30 -16 -47t-43 -17zM964 619q-28 0 -44 17t-16 47q0 31 16 47.5t44 16.5t43.5 -17t15.5 -47
q0 -29 -15.5 -46.5t-43.5 -17.5zM245 0q-38 0 -56 -18t-18 -56v-246h-106v272q0 43 15.5 74t43.5 48.5t65 17.5h6q-17 42 -25.5 82t-8.5 78q0 44 11 87.5t30 78.5q40 29 90 46.5t98 17.5q32 0 61 -7t54 -21q50 -28 77 -80t27 -118q0 -30 -4.5 -58.5t-15.5 -54.5
q21 -29 46.5 -40t65.5 -11h5q5 0 5 -4v-83q0 -5 -5 -5h-5q-53 0 -90.5 14.5t-72.5 51.5q-34 -33 -78.5 -49.5t-93.5 -16.5h-121zM267 256q0 -39 7.5 -78.5t25.5 -85.5h60q43 0 74 20t48 57t17 87q0 60 -31.5 97t-78.5 37q-28 0 -55.5 -9t-53.5 -27q-8 -23 -10.5 -47
t-2.5 -51z" />
    </font>
</defs>
</svg>
