<?xml version="1.0" standalone="no"?>
<!DOCTYPE svg PUBLIC "-//W3C//DTD SVG 1.1//EN" "http://www.w3.org/Graphics/SVG/1.1/DTD/svg11.dtd" >
<svg xmlns="http://www.w3.org/2000/svg" xmlns:xlink="http://www.w3.org/1999/xlink" version="1.1">
<metadata>
Created by FontForge 20201107 at Mon Feb 12 18:26:37 2024
 By www-data
Copyright 2019-2022 Google LLC. All Rights Reserved.
</metadata>
<defs>
<font id="NotoKufiArabic-Light" horiz-adv-x="0" >
  <font-face 
    font-family="Noto Kufi Arabic Light"
    font-weight="300"
    font-stretch="normal"
    units-per-em="1000"
    panose-1="0 0 0 0 0 0 0 0 0 0"
    ascent="800"
    descent="-200"
    x-height="533"
    cap-height="714"
    bbox="-483 -617 9435 1507"
    underline-thickness="50"
    underline-position="-125"
    unicode-range="U+000D-10EFF"
  />
<missing-glyph horiz-adv-x="600" 
d="M50 -177v882h500v-882h-500zM106 -121h388v770h-388v-770z" />
    <glyph glyph-name="uniFDF2" unicode="&#xfe8d;&#xfedf;&#xfee0;&#x651;&#x670;&#xfeea;" horiz-adv-x="1557" arabic-form="isolated" 
d="M306 0q-75 0 -129.5 27t-83 78t-28.5 121q0 79 32 136t92 88.5t144 31.5h78v58h65v-480h249v544h67v-544h274v544h67v-604h-827zM411 60v362h-75q-97 0 -150.5 -51.5t-53.5 -142.5q0 -80 45 -124t126 -44h108zM1386 760h68v-760h-68v760zM672 652q-38 0 -59 24.5
t-21 72.5v63h43v-57q0 -29 9 -45t36 -16q25 0 37.5 14t12.5 38v91h40v-71q0 -29 11 -40.5t33 -11.5q29 0 40 14.5t11 46.5v77h43v-83q0 -48 -22 -72.5t-64 -24.5q-45 0 -69 30q-23 -50 -81 -50zM727 1053h46v-168h-46v168z" />
    <glyph glyph-name="uni0621" unicode="&#x621;" horiz-adv-x="478" arabic-form="isolated" 
d="M65 55q20 5 44 9t46 7q-28 19 -47 57t-19 83q0 55 24 96q24 44 69 68.5t105 24.5q35 0 64 -7.5t52 -21.5l-19 -56q-23 12 -47 18.5t-49 6.5q-62 0 -96.5 -35t-34.5 -98q0 -41 18.5 -73.5t47.5 -48.5l29 4q47 6 86 10.5t66 6.5t36 2v-62q-21 0 -57 -3.5t-80.5 -8.5
t-90 -11.5t-84 -12.5t-63.5 -12v57z" />
    <glyph glyph-name="uni0622" unicode="&#x622;" horiz-adv-x="267" arabic-form="isolated" 
d="M100 700h67v-700h-67v700zM-6 782q5 42 24 66t56 24q18 0 37.5 -7t36.5 -17q16 -9 29.5 -14t24.5 -5q18 0 27 10t16 33h36q-5 -41 -23.5 -65t-55.5 -24q-16 0 -34 7t-36 16q-16 8 -30.5 14t-27.5 6q-20 0 -29 -11t-15 -33h-36z" />
    <glyph glyph-name="uni0623" unicode="&#x623;" horiz-adv-x="267" arabic-form="isolated" 
d="M100 700h67v-700h-67v700zM29 802l47 8q-18 11 -26.5 27t-8.5 35q0 41 27.5 65t72.5 24q35 0 60 -14l-13 -37q-9 5 -21 8.5t-27 3.5q-23 0 -40.5 -14t-17.5 -42q0 -18 10 -31t24 -19q18 3 38 5.5t37 5t25 2.5v-40q-19 -1 -40.5 -3.5t-45 -5.5t-49 -7t-52.5 -8v37z" />
    <glyph glyph-name="uni0624" unicode="&#x624;" horiz-adv-x="539" arabic-form="isolated" 
d="M234 -240q-50 0 -92 14t-77 38l31 51q33 -20 66.5 -31.5t75.5 -11.5q71 0 111.5 39.5t40.5 104.5v36h-99q-105 0 -162.5 58t-57.5 168q0 77 31.5 134.5t91 89.5t142.5 32h118v-513q0 -98 -57.5 -153.5t-162.5 -55.5zM389 60v362h-52q-92 0 -145.5 -51t-53.5 -145
q0 -84 38.5 -125t117.5 -41h95zM193 591l47 8q-18 11 -26.5 27t-8.5 35q0 41 27.5 65t72.5 24q35 0 60 -14l-13 -37q-9 5 -21 8.5t-27 3.5q-23 0 -40.5 -14t-17.5 -42q0 -18 10 -31t24 -19q18 3 38 5.5t37 5t25 2.5v-40q-19 -1 -40.5 -3.5t-45 -5.5t-49 -7t-52.5 -8v37z" />
    <glyph glyph-name="uni0625" unicode="&#x625;" horiz-adv-x="267" arabic-form="isolated" 
d="M100 760h67v-760h-67v760zM39 -211l46 7q-15 10 -24.5 26t-9.5 36q0 41 27 65t73 24q18 0 33 -3t27 -11l-13 -37q-9 6 -21 9t-27 3q-23 0 -40.5 -14t-17.5 -41q0 -18 9.5 -30.5t24.5 -20.5q9 2 29.5 5t41.5 5.5t29 2.5v-40q-13 -1 -37 -3.5t-52 -6t-54 -7.5t-44 -7v38z
" />
    <glyph glyph-name="uni0626" unicode="&#x626;" horiz-adv-x="824" arabic-form="isolated" 
d="M266 -240q-63 0 -108.5 29t-69 84t-23.5 132q0 49 8.5 90.5t27.5 85.5h63q-17 -41 -24 -82t-7 -89q0 -62 16.5 -104.5t49 -64t80.5 -21.5h195q58 0 96.5 16t58.5 42.5t20 58.5q0 28 -20 52.5t-49.5 45t-58.5 36.5q-31 18 -51 31.5t-32 23.5q-13 11 -23.5 24t-16.5 28.5
t-6 32.5q0 28 10.5 59t30.5 62q28 42 65.5 75.5t80 52.5t84.5 19q23 0 47 -6.5t44.5 -15.5t32.5 -17l-29 -51q-8 4 -24 9t-33 9t-31 4q-23 0 -46.5 -7.5t-43.5 -20.5q-31 -19 -56.5 -46t-41.5 -56.5t-16 -57.5q0 -15 11 -29.5t29.5 -28.5t43.5 -28q40 -23 65.5 -42.5
t41.5 -34.5q27 -25 44 -56t17 -68q0 -81 -64 -128.5t-180 -47.5h-208zM116 364l47 8q-18 11 -26.5 27t-8.5 35q0 41 27.5 65t72.5 24q35 0 60 -14l-13 -37q-9 5 -21 8.5t-27 3.5q-23 0 -40.5 -14t-17.5 -42q0 -18 10 -31t24 -19q18 3 38 5.5t37 5t25 2.5v-40
q-19 -1 -40.5 -3.5t-45 -5.5t-49 -7t-52.5 -8v37z" />
    <glyph glyph-name="uni0627" unicode="&#x627;" horiz-adv-x="267" arabic-form="isolated" 
d="M100 760h67v-760h-67v760z" />
    <glyph glyph-name="uni0628" unicode="&#x628;" horiz-adv-x="748" arabic-form="isolated" 
d="M250 0q-86 0 -135.5 51.5t-49.5 140.5q0 21 3 48t8.5 54t13.5 47h60q-8 -36 -12.5 -71.5t-4.5 -72.5q0 -61 30 -99t87 -38h349v422h64v-482h-413zM377 -165q-22 0 -34 12.5t-12 36.5t12.5 36.5t33.5 12.5q23 0 34.5 -13.5t11.5 -35.5t-11.5 -35.5t-34.5 -13.5z" />
    <glyph glyph-name="uni0629" unicode="&#x629;" horiz-adv-x="586" arabic-form="isolated" 
d="M291 -10q-106 0 -166 61.5t-60 171.5q0 36 7.5 69t22.5 65q30 62 83 98.5t116 36.5q30 0 59 -9t57 -29q35 -25 60 -62.5t38 -81.5t13 -90q0 -111 -57.5 -170.5t-172.5 -59.5zM294 49q77 0 118 43t41 126q0 63 -19.5 111t-55 75.5t-85.5 27.5q-44 0 -80.5 -26.5t-58 -74.5
t-21.5 -111q0 -83 41.5 -127t119.5 -44zM201 592q-18 0 -32 11t-14 38t14 38.5t32 11.5q21 0 33.5 -13t12.5 -37t-12 -36.5t-34 -12.5zM351 592q-21 0 -33.5 12.5t-12.5 36.5t12.5 37t33.5 13q23 0 34.5 -14t11.5 -36t-11.5 -35.5t-34.5 -13.5z" />
    <glyph glyph-name="uni062A" unicode="&#x62a;" horiz-adv-x="748" arabic-form="isolated" 
d="M250 0q-86 0 -135.5 51.5t-49.5 140.5q0 21 3 48t8.5 54t13.5 47h60q-8 -36 -12.5 -71.5t-4.5 -72.5q0 -61 30 -99t87 -38h349v422h64v-482h-413zM293 495q-18 0 -32 11t-14 38t14 38.5t32 11.5q21 0 33.5 -13t12.5 -37t-12 -36.5t-34 -12.5zM443 495q-21 0 -33.5 12.5
t-12.5 36.5t12.5 37t33.5 13q23 0 34.5 -14t11.5 -36t-11.5 -35.5t-34.5 -13.5z" />
    <glyph glyph-name="uni062B" unicode="&#x62b;" horiz-adv-x="748" arabic-form="isolated" 
d="M250 0q-86 0 -135.5 51.5t-49.5 140.5q0 21 3 48t8.5 54t13.5 47h60q-8 -36 -12.5 -71.5t-4.5 -72.5q0 -61 30 -99t87 -38h349v422h64v-482h-413zM369 590q-19 0 -31.5 11.5t-12.5 35.5q0 23 12 34t32 11q18 0 30.5 -11t12.5 -34q0 -25 -12.5 -36t-30.5 -11zM294 472
q-20 0 -33 12t-13 38q0 25 13 37t33 12q22 0 34 -13.5t12 -35.5q0 -23 -12 -36.5t-34 -13.5zM444 472q-21 0 -33.5 13t-12.5 37q0 23 12 36t34 13q23 0 34.5 -13.5t11.5 -35.5q0 -23 -12 -36.5t-34 -13.5z" />
    <glyph glyph-name="uni062C" unicode="&#x62c;" horiz-adv-x="631" arabic-form="isolated" 
d="M253 -324q-65 0 -111.5 22.5t-71.5 65t-25 101.5q0 33 9 61.5t27 53.5q27 40 73.5 72t114.5 60t159 55q-3 10 -9 33t-11 59q-13 85 -52.5 129t-108.5 44q-42 0 -89 -15t-85 -37l-29 53q35 24 92 41.5t113 17.5q91 0 147.5 -54t71.5 -163q8 -49 20.5 -88t32 -67t45.5 -45
l-40 -53q-27 21 -46 43.5t-32 46.5q-63 -18 -117.5 -37.5t-95 -41.5t-65.5 -50q-28 -24 -42 -52t-14 -61q0 -67 40.5 -100.5t125.5 -33.5q29 0 65.5 4.5t85.5 14.5l9 -54q-42 -10 -75.5 -15t-60.5 -7.5t-51 -2.5zM325 -158q-22 0 -34 12.5t-12 36.5q0 25 12 37.5t34 12.5
q20 0 33 -13t13 -36q0 -24 -12.5 -37t-33.5 -13z" />
    <glyph glyph-name="uni062D" unicode="&#x62d;" horiz-adv-x="631" arabic-form="isolated" 
d="M253 -324q-65 0 -111.5 22.5t-71.5 65t-25 101.5q0 33 9 61.5t27 53.5q27 40 73.5 72t114.5 60t159 55q-3 10 -9 33t-11 59q-13 85 -52.5 129t-108.5 44q-42 0 -89 -15t-85 -37l-29 53q35 24 92 41.5t113 17.5q91 0 147.5 -54t71.5 -163q8 -49 20.5 -88t32 -67t45.5 -45
l-40 -53q-27 21 -46 43.5t-32 46.5q-63 -18 -117.5 -37.5t-95 -41.5t-65.5 -50q-28 -24 -42 -52t-14 -61q0 -67 40.5 -100.5t125.5 -33.5q29 0 65.5 4.5t85.5 14.5l9 -54q-42 -10 -75.5 -15t-60.5 -7.5t-51 -2.5z" />
    <glyph glyph-name="uni062E" unicode="&#x62e;" horiz-adv-x="631" arabic-form="isolated" 
d="M253 -324q-65 0 -111.5 22.5t-71.5 65t-25 101.5q0 33 9 61.5t27 53.5q27 40 73.5 72t114.5 60t159 55q-3 10 -9 33t-11 59q-13 85 -52.5 129t-108.5 44q-42 0 -89 -15t-85 -37l-29 53q35 24 92 41.5t113 17.5q91 0 147.5 -54t71.5 -163q8 -49 20.5 -88t32 -67t45.5 -45
l-40 -53q-27 21 -46 43.5t-32 46.5q-63 -18 -117.5 -37.5t-95 -41.5t-65.5 -50q-28 -24 -42 -52t-14 -61q0 -67 40.5 -100.5t125.5 -33.5q29 0 65.5 4.5t85.5 14.5l9 -54q-42 -10 -75.5 -15t-60.5 -7.5t-51 -2.5zM229 599q-22 0 -34 12.5t-12 36.5q0 25 12 37.5t34 12.5
q20 0 33 -13t13 -36q0 -24 -12.5 -37t-33.5 -13z" />
    <glyph glyph-name="uni062F" unicode="&#x62f;" horiz-adv-x="487" arabic-form="isolated" 
d="M45 60h332q-4 37 -12 73t-19 70q-28 87 -76.5 155.5t-122.5 119.5l24 58q74 -42 129.5 -110.5t91.5 -161t50 -205.5v-59h-397v60z" />
    <glyph glyph-name="uni0630" unicode="&#x630;" horiz-adv-x="487" arabic-form="isolated" 
d="M45 60h332q-4 37 -12 73t-19 70q-28 87 -76.5 155.5t-122.5 119.5l24 58q74 -42 129.5 -110.5t91.5 -161t50 -205.5v-59h-397v60zM172 631q-22 0 -34 12.5t-12 36.5q0 25 12 37.5t34 12.5q20 0 33 -13t13 -36q0 -24 -12.5 -37t-33.5 -13z" />
    <glyph glyph-name="uni0631" unicode="&#x631;" horiz-adv-x="309" arabic-form="isolated" 
d="M56 -240q-24 0 -47 6.5t-47 18.5l22 52q19 -9 35 -13t36 -4q49 0 74.5 38t25.5 103v521h64v-516q0 -65 -18.5 -111.5t-55 -70.5t-89.5 -24z" />
    <glyph glyph-name="uni0632" unicode="&#x632;" horiz-adv-x="309" arabic-form="isolated" 
d="M56 -240q-24 0 -47 6.5t-47 18.5l22 52q19 -9 35 -13t36 -4q49 0 74.5 38t25.5 103v521h64v-516q0 -65 -18.5 -111.5t-55 -70.5t-89.5 -24zM185 604q-22 0 -34 12.5t-12 36.5q0 25 12 37.5t34 12.5q20 0 33 -13t13 -36q0 -24 -12.5 -37t-33.5 -13z" />
    <glyph glyph-name="uni0633" unicode="&#x633;" horiz-adv-x="1186" arabic-form="isolated" 
d="M975 0q-44 0 -84 14.5t-76 53.5q-20 -31 -55.5 -49.5t-85.5 -18.5h-116q0 -119 -55 -179.5t-179 -60.5h-59q-65 0 -110 29.5t-68 86t-23 134.5q0 62 10 124.5t29 109.5h64q-18 -44 -26.5 -103.5t-8.5 -130.5q0 -92 36.5 -141t107.5 -49h46q89 0 130.5 42t41.5 133v409h64
v-344h114q48 0 77 31t29 82v231h64v-250q0 -5 -0.5 -10.5t-1.5 -10.5q26 -42 58 -57.5t78 -15.5h60v422h65v-482h-126z" />
    <glyph glyph-name="uni0634" unicode="&#x634;" horiz-adv-x="1186" arabic-form="isolated" 
d="M975 0q-44 0 -84 14.5t-76 53.5q-20 -31 -55.5 -49.5t-85.5 -18.5h-116q0 -119 -55 -179.5t-179 -60.5h-59q-65 0 -110 29.5t-68 86t-23 134.5q0 62 10 124.5t29 109.5h64q-18 -44 -26.5 -103.5t-8.5 -130.5q0 -92 36.5 -141t107.5 -49h46q89 0 130.5 42t41.5 133v409h64
v-344h114q48 0 77 31t29 82v231h64v-250q0 -5 -0.5 -10.5t-1.5 -10.5q26 -42 58 -57.5t78 -15.5h60v422h65v-482h-126zM803 624q-19 0 -31.5 11.5t-12.5 35.5q0 23 12 34t32 11q18 0 30.5 -11t12.5 -34q0 -25 -12.5 -36t-30.5 -11zM728 506q-20 0 -33 12t-13 38q0 25 13 37
t33 12q22 0 34 -13.5t12 -35.5q0 -23 -12 -36.5t-34 -13.5zM878 506q-21 0 -33.5 13t-12.5 37q0 23 12 36t34 13q23 0 34.5 -13.5t11.5 -35.5q0 -23 -12 -36.5t-34 -13.5z" />
    <glyph glyph-name="uni0635" unicode="&#x635;" horiz-adv-x="1134" arabic-form="isolated" 
d="M265 -240q-65 0 -110 29.5t-68 86t-23 134.5q0 62 10 124.5t29 109.5h64q-18 -44 -27 -103.5t-8 -130.5q0 -93 37 -141.5t108 -48.5h45q89 0 130.5 42t41.5 129v494h64v-239q31 83 74 137.5t96.5 81.5t111.5 27q107 0 163 -60t56 -185v-247h-501q1 -122 -54.5 -181
t-179.5 -59h-59zM994 60v180q0 99 -41 145t-124 46q-53 0 -102.5 -29.5t-91.5 -91t-77 -158.5v-92h436z" />
    <glyph glyph-name="uni0636" unicode="&#x636;" horiz-adv-x="1134" arabic-form="isolated" 
d="M265 -240q-65 0 -110 29.5t-68 86t-23 134.5q0 62 10 124.5t29 109.5h64q-18 -44 -27 -103.5t-8 -130.5q0 -93 37 -141.5t108 -48.5h45q89 0 130.5 42t41.5 129v494h64v-239q31 83 74 137.5t96.5 81.5t111.5 27q107 0 163 -60t56 -185v-247h-501q1 -122 -54.5 -181
t-179.5 -59h-59zM994 60v180q0 99 -41 145t-124 46q-53 0 -102.5 -29.5t-91.5 -91t-77 -158.5v-92h436zM820 626q-22 0 -34 12.5t-12 36.5q0 25 12 37.5t34 12.5q20 0 33 -13t13 -36q0 -24 -12.5 -37t-33.5 -13z" />
    <glyph glyph-name="uni0637" unicode="&#x637;" horiz-adv-x="774" arabic-form="isolated" 
d="M25 0q-5 0 -5 5v51q0 4 5 4h122v700h65v-514q30 83 73.5 137.5t96.5 81.5t111 27q107 0 163 -60t56 -185v-247h-687zM212 60h436v180q0 99 -41 145t-125 46q-52 0 -101 -29.5t-91.5 -91.5t-77.5 -160v-90z" />
    <glyph glyph-name="uni0638" unicode="&#x638;" horiz-adv-x="774" arabic-form="isolated" 
d="M25 0q-5 0 -5 5v51q0 4 5 4h122v700h65v-514q30 83 73.5 137.5t96.5 81.5t111 27q107 0 163 -60t56 -185v-247h-687zM212 60h436v180q0 99 -41 145t-125 46q-52 0 -101 -29.5t-91.5 -91.5t-77.5 -160v-90zM510 591q-22 0 -34 12.5t-12 36.5q0 25 12 37.5t34 12.5
q20 0 33 -13t13 -36q0 -24 -12.5 -37t-33.5 -13z" />
    <glyph glyph-name="uni0639" unicode="&#x639;" horiz-adv-x="516" arabic-form="isolated" 
d="M268 -319q-62 0 -108 21.5t-70.5 63t-24.5 101.5q0 39 15 74t44 66.5t72 59.5q-28 24 -48.5 54t-31.5 67t-11 80q0 72 32.5 121.5t86 76t117.5 26.5q27 0 50.5 -4t44 -10t35.5 -14l-22 -57q-28 12 -55.5 18.5t-56.5 6.5q-50 0 -86.5 -20t-56.5 -56t-20 -87q0 -39 9.5 -73
t26 -59t35.5 -40q40 21 84 39t89 31l19 -57q-39 -10 -76.5 -24t-70.5 -30q-75 -38 -115.5 -84.5t-40.5 -97.5q0 -71 40.5 -102.5t121.5 -31.5q19 0 41.5 1.5t48.5 5.5t55 8l9 -54q-37 -8 -68.5 -12.5t-59 -6t-54.5 -1.5z" />
    <glyph glyph-name="uni063A" unicode="&#x63a;" horiz-adv-x="516" arabic-form="isolated" 
d="M268 -319q-62 0 -108 21.5t-70.5 63t-24.5 101.5q0 39 15 74t44 66.5t72 59.5q-28 24 -48.5 54t-31.5 67t-11 80q0 72 32.5 121.5t86 76t117.5 26.5q27 0 50.5 -4t44 -10t35.5 -14l-22 -57q-28 12 -55.5 18.5t-56.5 6.5q-50 0 -86.5 -20t-56.5 -56t-20 -87q0 -39 9.5 -73
t26 -59t35.5 -40q40 21 84 39t89 31l19 -57q-39 -10 -76.5 -24t-70.5 -30q-75 -38 -115.5 -84.5t-40.5 -97.5q0 -71 40.5 -102.5t121.5 -31.5q19 0 41.5 1.5t48.5 5.5t55 8l9 -54q-37 -8 -68.5 -12.5t-59 -6t-54.5 -1.5zM297 591q-22 0 -34 12.5t-12 36.5q0 25 12 37.5
t34 12.5q20 0 33 -13t13 -36q0 -24 -12.5 -37t-33.5 -13z" />
    <glyph glyph-name="uni0641" unicode="&#x641;" horiz-adv-x="991" arabic-form="isolated" 
d="M252 0q-88 0 -137.5 51.5t-49.5 142.5q0 20 3 46.5t8.5 53.5t12.5 47h61q-9 -35 -13 -72.5t-4 -72.5q0 -61 30.5 -98.5t85.5 -37.5h335q-19 17 -33 43.5t-21 57.5t-7 61q0 79 32.5 137t93 90.5t142.5 32.5h115v-482h-654zM841 60v362h-47q-64 0 -110 -24.5t-70 -68.5
t-24 -105q0 -54 16 -91t46 -55t71 -18h118zM735 596q-22 0 -34 12.5t-12 36.5q0 25 12 37.5t34 12.5q20 0 33 -13t13 -36q0 -24 -12.5 -37t-33.5 -13z" />
    <glyph glyph-name="uni0642" unicode="&#x642;" horiz-adv-x="847" arabic-form="isolated" 
d="M290 -240q-54 0 -96 15.5t-71 45.5t-44 74t-15 100q0 61 10 119t29 115h63q-16 -48 -25 -105.5t-9 -121.5q0 -91 43 -136.5t128 -45.5h210q92 0 138.5 39.5t46.5 121.5v19h-102q-73 0 -121 27t-72 76t-24 116q0 80 33 139t93.5 91.5t141.5 32.5h115v-499
q0 -108 -60 -165.5t-180 -57.5h-232zM698 60v362h-49q-64 0 -109.5 -25t-69.5 -70.5t-24 -104.5q0 -51 15.5 -87.5t48.5 -55.5t84 -19h104zM510 617q-18 0 -32 11t-14 38t14 38.5t32 11.5q21 0 33.5 -13t12.5 -37t-12 -36.5t-34 -12.5zM660 617q-21 0 -33.5 12.5t-12.5 36.5
t12.5 37t33.5 13q23 0 34.5 -14t11.5 -36t-11.5 -35.5t-34.5 -13.5z" />
    <glyph glyph-name="uni0643" unicode="&#x643;" horiz-adv-x="763" arabic-form="isolated" 
d="M248 0q-91 0 -137 44t-46 128q0 22 2 42.5t7.5 42t13.5 44.5h57q-7 -34 -11 -63.5t-4 -59.5q0 -55 28 -86.5t86 -31.5h355v700h64v-760h-415zM289 318v36h143v7q0 15 -8 21t-29 6h-88v29q13 32 43.5 59.5t60.5 36.5l14 -34q-20 -7 -40 -22.5t-33 -31.5h43
q35 0 54.5 -15.5t19.5 -46.5v-45h-180z" />
    <glyph glyph-name="uni0644" unicode="&#x644;" horiz-adv-x="657" arabic-form="isolated" 
d="M259 -240q-63 0 -106 29.5t-65.5 86.5t-22.5 137q0 40 4.5 82.5t13.5 82t22 71.5h63q-17 -43 -26 -103t-9 -130q0 -96 34 -146t106 -50h50q88 0 129 40.5t41 127.5v772h64v-766q0 -116 -54.5 -175t-176.5 -59h-67z" />
    <glyph glyph-name="uni0645" unicode="&#x645;" horiz-adv-x="627" arabic-form="isolated" 
d="M65 -65q0 40 11.5 68t38 42.5t69.5 14.5h9q-20 53 -30 101t-10 93q0 37 7.5 74t23.5 70q34 32 79.5 51t98.5 19q30 0 56.5 -6.5t48.5 -19.5q44 -28 68 -78t24 -112q0 -40 -6.5 -73.5t-19.5 -62.5q-26 -56 -73.5 -86t-112.5 -30h-144q-40 0 -57 -17.5t-17 -55.5v-247h-64
v255zM221 267q0 -49 9 -99.5t32 -107.5h87q46 0 77.5 22.5t48 65.5t16.5 106q0 69 -36 112t-92 43q-36 0 -67.5 -12t-60.5 -36q-8 -17 -11 -42t-3 -52z" />
    <glyph glyph-name="uni0646" unicode="&#x646;" horiz-adv-x="642" arabic-form="isolated" 
d="M254 -240q-35 0 -64 10t-51 29q-36 29 -55 81t-19 123q0 54 10 107.5t29 98.5h63q-16 -39 -25 -89.5t-9 -109.5q0 -93 33 -141.5t102 -48.5h55q88 0 129 40.5t41 127.5v494h64v-488q0 -116 -54.5 -175t-176.5 -59h-72zM308 436q-22 0 -34 12.5t-12 36.5q0 25 12 37.5
t34 12.5q20 0 33 -13t13 -36q0 -24 -12.5 -37t-33.5 -13z" />
    <glyph glyph-name="uni0648" unicode="&#x648;" horiz-adv-x="539" arabic-form="isolated" 
d="M234 -240q-50 0 -92 14t-77 38l31 51q33 -20 66.5 -31.5t75.5 -11.5q71 0 111.5 39.5t40.5 104.5v36h-99q-105 0 -162.5 58t-57.5 168q0 77 31.5 134.5t91 89.5t142.5 32h118v-513q0 -98 -57.5 -153.5t-162.5 -55.5zM389 60v362h-52q-92 0 -145.5 -51t-53.5 -145
q0 -84 38.5 -125t117.5 -41h95z" />
    <glyph glyph-name="uni0649" unicode="&#x649;" horiz-adv-x="824" arabic-form="isolated" 
d="M266 -240q-63 0 -108.5 29t-69 84t-23.5 132q0 49 8.5 90.5t27.5 85.5h63q-17 -41 -24 -82t-7 -89q0 -62 16.5 -104.5t49 -64t80.5 -21.5h195q58 0 96.5 16t58.5 42.5t20 58.5q0 28 -20 52.5t-49.5 45t-58.5 36.5q-31 18 -51 31.5t-32 23.5q-13 11 -23.5 24t-16.5 28.5
t-6 32.5q0 28 10.5 59t30.5 62q28 42 65.5 75.5t80 52.5t84.5 19q23 0 47 -6.5t44.5 -15.5t32.5 -17l-29 -51q-8 4 -24 9t-33 9t-31 4q-23 0 -46.5 -7.5t-43.5 -20.5q-31 -19 -56.5 -46t-41.5 -56.5t-16 -57.5q0 -15 11 -29.5t29.5 -28.5t43.5 -28q40 -23 65.5 -42.5
t41.5 -34.5q27 -25 44 -56t17 -68q0 -81 -64 -128.5t-180 -47.5h-208z" />
    <glyph glyph-name="uni064A" unicode="&#x64a;" horiz-adv-x="824" arabic-form="isolated" 
d="M266 -240q-63 0 -108.5 29t-69 84t-23.5 132q0 49 8.5 90.5t27.5 85.5h63q-17 -41 -24 -82t-7 -89q0 -62 16.5 -104.5t49 -64t80.5 -21.5h195q58 0 96.5 16t58.5 42.5t20 58.5q0 28 -20 52.5t-49.5 45t-58.5 36.5q-31 18 -51 31.5t-32 23.5q-13 11 -23.5 24t-16.5 28.5
t-6 32.5q0 28 10.5 59t30.5 62q28 42 65.5 75.5t80 52.5t84.5 19q23 0 47 -6.5t44.5 -15.5t32.5 -17l-29 -51q-8 4 -24 9t-33 9t-31 4q-23 0 -46.5 -7.5t-43.5 -20.5q-31 -19 -56.5 -46t-41.5 -56.5t-16 -57.5q0 -15 11 -29.5t29.5 -28.5t43.5 -28q40 -23 65.5 -42.5
t41.5 -34.5q27 -25 44 -56t17 -68q0 -81 -64 -128.5t-180 -47.5h-208zM310 -426q-20 0 -33 11.5t-13 37.5q0 27 13 38.5t33 11.5t33 -12.5t13 -37.5q0 -24 -12.5 -36.5t-33.5 -12.5zM462 -426q-21 0 -33 12.5t-12 36.5q0 25 12 37.5t33 12.5q22 0 34.5 -13.5t12.5 -36.5
t-12.5 -36t-34.5 -13z" />
    <glyph glyph-name="uni0671" unicode="&#x671;" horiz-adv-x="267" arabic-form="isolated" 
d="M100 700h67v-700h-67v700zM4 827h44q16 51 44 77.5t64 26.5q39 0 60.5 -26.5t21.5 -73.5v-41h-234v37zM198 827q0 35 -10.5 50.5t-32.5 15.5q-20 0 -37.5 -18.5t-26.5 -47.5h107z" />
    <glyph glyph-name="uni0677" unicode="&#x677;" horiz-adv-x="1017" arabic-form="isolated" 
d="M604 305q20 5 44 9t46 7q-28 19 -47 57t-19 83q0 55 24 96q24 44 69 68.5t105 24.5q35 0 64 -7.5t52 -21.5l-19 -56q-23 12 -47 18.5t-49 6.5q-62 0 -96.5 -35t-34.5 -98q0 -41 18.5 -73.5t47.5 -48.5l29 4q47 6 86 10.5t66 6.5t36 2v-62q-21 0 -57 -3.5t-80.5 -8.5
t-90 -11.5t-84 -12.5t-63.5 -12v57zM234 -240q-50 0 -92 14t-77 38l31 51q33 -20 66.5 -31.5t75.5 -11.5q71 0 111.5 39.5t40.5 104.5v36h-99q-105 0 -162.5 58t-57.5 168q0 77 31.5 134.5t91 89.5t142.5 32h118v-513q0 -98 -57.5 -153.5t-162.5 -55.5zM389 60v362h-52
q-92 0 -145.5 -51t-53.5 -145q0 -84 38.5 -125t117.5 -41h95zM243 550l-20 30q23 13 42.5 26t33.5 25t19 20q-33 12 -54.5 34t-21.5 47q0 29 22 50t54 21q29 0 46 -23t17 -57q0 -32 -12 -58t-32 -47.5t-44.5 -38.5t-49.5 -29z" />
    <glyph glyph-name="uni0679" unicode="&#x679;" horiz-adv-x="748" arabic-form="isolated" 
d="M250 0q-86 0 -135.5 51.5t-49.5 140.5q0 21 3 48t8.5 54t13.5 47h60q-8 -36 -12.5 -71.5t-4.5 -72.5q0 -61 30 -99t87 -38h349v422h64v-482h-413zM269 534h16v177h33v-126q11 28 30 47.5t49 19.5q33 0 51 -20.5t18 -63.5v-69h-197v35zM433 534v27q0 29 -9.5 43t-31.5 14
t-41 -17.5t-34 -56.5v-10h116z" />
    <glyph glyph-name="uni067A" unicode="&#x67a;" horiz-adv-x="748" arabic-form="isolated" 
d="M250 0q-86 0 -135.5 51.5t-49.5 140.5q0 21 3 48t8.5 54t13.5 47h60q-8 -36 -12.5 -71.5t-4.5 -72.5q0 -61 30 -99t87 -38h349v422h64v-482h-413zM369 468q-22 0 -34.5 12.5t-12.5 36.5t12.5 37t34.5 13t34 -14t12 -36t-11.5 -35.5t-34.5 -13.5zM369 625
q-22 0 -34.5 12.5t-12.5 36.5t12.5 36.5t34.5 12.5t34 -13.5t12 -35.5t-11.5 -35.5t-34.5 -13.5z" />
    <glyph glyph-name="uni067B" unicode="&#x67b;" horiz-adv-x="748" arabic-form="isolated" 
d="M250 0q-86 0 -135.5 51.5t-49.5 140.5q0 21 3 48t8.5 54t13.5 47h60q-8 -36 -12.5 -71.5t-4.5 -72.5q0 -61 30 -99t87 -38h349v422h64v-482h-413zM377 -313q-22 0 -34.5 13t-12.5 37t12.5 36.5t34.5 12.5q21 0 33.5 -13t12.5 -36t-11.5 -36.5t-34.5 -13.5zM377 -156
q-22 0 -34.5 12.5t-12.5 36.5t12.5 37t34.5 13t34 -13.5t12 -36.5q0 -22 -11.5 -35.5t-34.5 -13.5z" />
    <glyph glyph-name="uni067E" unicode="&#x67e;" horiz-adv-x="748" arabic-form="isolated" 
d="M250 0q-86 0 -135.5 51.5t-49.5 140.5q0 21 3 48t8.5 54t13.5 47h60q-8 -36 -12.5 -71.5t-4.5 -72.5q0 -61 30 -99t87 -38h349v422h64v-482h-413zM378 -332q-19 0 -31 11t-12 35t12 35t31 11t31.5 -11.5t12.5 -34.5q0 -24 -12.5 -35t-31.5 -11zM303 -223q-20 0 -33 12
t-13 38q0 25 13.5 37t32.5 12q22 0 34 -13.5t12 -35.5q0 -23 -11.5 -36.5t-34.5 -13.5zM453 -223q-21 0 -33.5 13t-12.5 37t12.5 36.5t33.5 12.5q22 0 34.5 -13.5t12.5 -35.5q0 -23 -12 -36.5t-35 -13.5z" />
    <glyph glyph-name="uni067F" unicode="&#x67f;" horiz-adv-x="748" arabic-form="isolated" 
d="M250 0q-86 0 -135.5 51.5t-49.5 140.5q0 21 3 48t8.5 54t13.5 47h60q-8 -36 -12.5 -71.5t-4.5 -72.5q0 -61 30 -99t87 -38h349v422h64v-482h-413zM299 467q-20 0 -31.5 12t-11.5 33q0 23 12.5 34t30.5 11q16 0 29 -10t13 -35q0 -23 -12 -34t-30 -11zM437 467
q-18 0 -30 10.5t-12 34.5t12 34.5t30 10.5q20 0 31.5 -12.5t11.5 -32.5t-11.5 -32.5t-31.5 -12.5zM298 614q-19 0 -30.5 12t-11.5 34q0 23 12.5 33.5t30.5 10.5q16 0 29 -10t13 -34t-12 -35t-31 -11zM437 614q-17 0 -29.5 10.5t-12.5 35.5q0 24 12.5 34t29.5 10
q20 0 31.5 -12.5t11.5 -31.5q0 -21 -11.5 -33.5t-31.5 -12.5z" />
    <glyph glyph-name="uni0680" unicode="&#x680;" horiz-adv-x="748" arabic-form="isolated" 
d="M250 0q-86 0 -135.5 51.5t-49.5 140.5q0 21 3 48t8.5 54t13.5 47h60q-8 -36 -12.5 -71.5t-4.5 -72.5q0 -61 30 -99t87 -38h349v422h64v-482h-413zM307 -329q-20 0 -31.5 12t-11.5 33q0 23 12.5 34t30.5 11q16 0 29 -10t13 -35q0 -23 -12 -34t-30 -11zM445 -329
q-18 0 -30 10.5t-12 34.5t12 34.5t30 10.5q20 0 31.5 -12.5t11.5 -32.5t-11.5 -32.5t-31.5 -12.5zM306 -182q-19 0 -30.5 12t-11.5 34q0 23 12.5 33.5t30.5 10.5q16 0 29 -10t13 -34t-12 -35t-31 -11zM445 -182q-17 0 -29.5 10.5t-12.5 35.5q0 24 12.5 34t29.5 10
q20 0 31.5 -12.5t11.5 -31.5q0 -21 -11.5 -33.5t-31.5 -12.5z" />
    <glyph glyph-name="uni0683" unicode="&#x683;" horiz-adv-x="631" arabic-form="isolated" 
d="M526 22q-27 21 -46 43.5t-32 46.5q-83 -23 -148 -49t-106 -55q-40 -29 -60 -62.5t-20 -75.5q0 -65 37 -99t110 -35l-16 -60q-61 1 -106.5 23.5t-69.5 64.5t-24 101q0 33 9 61.5t27 53.5q27 40 73.5 72t114.5 60t159 55q-4 11 -9.5 33.5t-10.5 58.5q-13 85 -52.5 129
t-108.5 44q-42 0 -89 -15t-85 -37l-29 52q35 25 92 42.5t113 17.5q91 0 147.5 -54t71.5 -163q8 -49 20.5 -88t32 -67t45.5 -45zM339 -215q-18 0 -32 11t-14 38t14 38.5t32 11.5q21 0 33.5 -13t12.5 -37t-12 -36.5t-34 -12.5zM489 -215q-21 0 -33.5 12.5t-12.5 36.5t12.5 37
t33.5 13q23 0 34.5 -14t11.5 -36t-11.5 -35.5t-34.5 -13.5z" />
    <glyph glyph-name="uni0684" unicode="&#x684;" horiz-adv-x="631" arabic-form="isolated" 
d="M526 22q-27 21 -46 43.5t-32 46.5q-83 -23 -148 -49t-106 -55q-40 -29 -60 -62.5t-20 -75.5q0 -65 37 -99t110 -35l-16 -60q-61 1 -106.5 23.5t-69.5 64.5t-24 101q0 33 9 61.5t27 53.5q27 40 73.5 72t114.5 60t159 55q-4 11 -9.5 33.5t-10.5 58.5q-13 85 -52.5 129
t-108.5 44q-42 0 -89 -15t-85 -37l-29 52q35 25 92 42.5t113 17.5q91 0 147.5 -54t71.5 -163q8 -49 20.5 -88t32 -67t45.5 -45zM415 -293q-22 0 -34.5 12.5t-12.5 36.5t12.5 37t34.5 13t34 -14t12 -36t-11.5 -35.5t-34.5 -13.5zM415 -136q-22 0 -34.5 12.5t-12.5 36.5
t12.5 36.5t34.5 12.5t34 -13.5t12 -35.5t-11.5 -35.5t-34.5 -13.5z" />
    <glyph glyph-name="uni0686" unicode="&#x686;" horiz-adv-x="631" arabic-form="isolated" 
d="M526 22q-27 21 -46 43.5t-32 46.5q-83 -23 -148 -49t-106 -55q-40 -29 -60 -62.5t-20 -75.5q0 -65 37 -99t110 -35l-16 -60q-61 1 -106.5 23.5t-69.5 64.5t-24 101q0 33 9 61.5t27 53.5q27 40 73.5 72t114.5 60t159 55q-4 11 -9.5 33.5t-10.5 58.5q-13 85 -52.5 129
t-108.5 44q-42 0 -89 -15t-85 -37l-29 52q35 25 92 42.5t113 17.5q91 0 147.5 -54t71.5 -163q8 -49 20.5 -88t32 -67t45.5 -45zM415 -179q19 0 31.5 -11t12.5 -35q0 -23 -12.5 -34.5t-31.5 -11.5q-18 0 -30.5 11t-12.5 35t12.5 35t30.5 11zM490 -61q20 0 33 -12t13 -37
q0 -26 -13 -37.5t-33 -11.5q-23 0 -34.5 13t-11.5 36t12 36t34 13zM339 -61q22 0 34.5 -13t12.5 -36q0 -24 -12.5 -36.5t-34.5 -12.5q-21 0 -33.5 12.5t-12.5 36.5t12.5 36.5t33.5 12.5z" />
    <glyph glyph-name="uni0687" unicode="&#x687;" horiz-adv-x="631" arabic-form="isolated" 
d="M526 22q-27 21 -46 43.5t-32 46.5q-83 -23 -148 -49t-106 -55q-40 -29 -60 -62.5t-20 -75.5q0 -65 37 -99t110 -35l-16 -60q-61 1 -106.5 23.5t-69.5 64.5t-24 101q0 33 9 61.5t27 53.5q27 40 73.5 72t114.5 60t159 55q-4 11 -9.5 33.5t-10.5 58.5q-13 85 -52.5 129
t-108.5 44q-42 0 -89 -15t-85 -37l-29 52q35 25 92 42.5t113 17.5q91 0 147.5 -54t71.5 -163q8 -49 20.5 -88t32 -67t45.5 -45zM345 -284q-20 0 -31.5 12t-11.5 33q0 23 12.5 34t30.5 11q16 0 29 -10t13 -35q0 -23 -12 -34t-30 -11zM483 -284q-18 0 -30 10.5t-12 34.5
t12 34.5t30 10.5q20 0 31.5 -12.5t11.5 -32.5t-11.5 -32.5t-31.5 -12.5zM344 -137q-19 0 -30.5 12t-11.5 34q0 23 12.5 33.5t30.5 10.5q16 0 29 -10t13 -34t-12 -35t-31 -11zM483 -137q-17 0 -29.5 10.5t-12.5 35.5q0 24 12.5 34t29.5 10q20 0 31.5 -12.5t11.5 -31.5
q0 -21 -11.5 -33.5t-31.5 -12.5z" />
    <glyph glyph-name="uni0688" unicode="&#x688;" horiz-adv-x="487" arabic-form="isolated" 
d="M45 60h332q-4 37 -12 73t-19 70q-28 87 -76.5 155.5t-122.5 119.5l24 58q74 -42 129.5 -110.5t91.5 -161t50 -205.5v-59h-397v60zM69 681h16v177h33v-126q11 28 30 47.5t49 19.5q33 0 51 -20.5t18 -63.5v-69h-197v35zM233 681v27q0 29 -9.5 43t-31.5 14t-41 -17.5
t-34 -56.5v-10h116z" />
    <glyph glyph-name="uni068C" unicode="&#x68c;" horiz-adv-x="487" arabic-form="isolated" 
d="M45 60h332q-4 37 -12 73t-19 70q-28 87 -76.5 155.5t-122.5 119.5l24 58q74 -42 129.5 -110.5t91.5 -161t50 -205.5v-59h-397v60zM93 642q-18 0 -32 11t-14 38t14 38.5t32 11.5q21 0 33.5 -13t12.5 -37t-12 -36.5t-34 -12.5zM243 642q-21 0 -33.5 12.5t-12.5 36.5
t12.5 37t33.5 13q23 0 34.5 -14t11.5 -36t-11.5 -35.5t-34.5 -13.5z" />
    <glyph glyph-name="uni068D" unicode="&#x68d;" horiz-adv-x="487" arabic-form="isolated" 
d="M45 60h332q-4 37 -12 73t-19 70q-28 87 -76.5 155.5t-122.5 119.5l24 58q74 -42 129.5 -110.5t91.5 -161t50 -205.5v-59h-397v60zM174 -182q-20 0 -33 11.5t-13 37.5q0 27 13 38.5t33 11.5t33 -12.5t13 -37.5q0 -24 -12.5 -36.5t-33.5 -12.5zM326 -182q-21 0 -33 12.5
t-12 36.5q0 25 12 37.5t33 12.5q22 0 34.5 -13.5t12.5 -36.5t-12.5 -36t-34.5 -13z" />
    <glyph glyph-name="uni068E" unicode="&#x68e;" horiz-adv-x="487" arabic-form="isolated" 
d="M45 60h332q-4 37 -12 73t-19 70q-28 87 -76.5 155.5t-122.5 119.5l24 58q74 -42 129.5 -110.5t91.5 -161t50 -205.5v-59h-397v60zM169 737q-19 0 -31.5 11.5t-12.5 35.5q0 23 12 34t32 11q18 0 30.5 -11t12.5 -34q0 -25 -12.5 -36t-30.5 -11zM94 619q-20 0 -33 12t-13 38
q0 25 13 37t33 12q22 0 34 -13.5t12 -35.5q0 -23 -12 -36.5t-34 -13.5zM244 619q-21 0 -33.5 13t-12.5 37q0 23 12 36t34 13q23 0 34.5 -13.5t11.5 -35.5q0 -23 -12 -36.5t-34 -13.5z" />
    <glyph glyph-name="uni0691" unicode="&#x691;" horiz-adv-x="309" arabic-form="isolated" 
d="M56 -240q-24 0 -47 6.5t-47 18.5l22 52q19 -9 35 -13t36 -4q49 0 74.5 38t25.5 103v521h64v-516q0 -65 -18.5 -111.5t-55 -70.5t-89.5 -24zM82 653h16v177h33v-126q11 28 30 47.5t49 19.5q33 0 51 -20.5t18 -63.5v-69h-197v35zM246 653v27q0 29 -9.5 43t-31.5 14
t-41 -17.5t-34 -56.5v-10h116z" />
    <glyph glyph-name="uni0698" unicode="&#x698;" horiz-adv-x="309" arabic-form="isolated" 
d="M56 -240q-24 0 -47 6.5t-47 18.5l22 52q19 -9 35 -13t36 -4q49 0 74.5 38t25.5 103v521h64v-516q0 -65 -18.5 -111.5t-55 -70.5t-89.5 -24zM182 710q-19 0 -31.5 11.5t-12.5 35.5q0 23 12 34t32 11q18 0 30.5 -11t12.5 -34q0 -25 -12.5 -36t-30.5 -11zM107 592
q-20 0 -33 12t-13 38q0 25 13 37t33 12q22 0 34 -13.5t12 -35.5q0 -23 -12 -36.5t-34 -13.5zM257 592q-21 0 -33.5 13t-12.5 37q0 23 12 36t34 13q23 0 34.5 -13.5t11.5 -35.5q0 -23 -12 -36.5t-34 -13.5z" />
    <glyph glyph-name="uni06A4" unicode="&#x6a4;" horiz-adv-x="991" arabic-form="isolated" 
d="M252 0q-88 0 -137.5 51.5t-49.5 142.5q0 20 3 46.5t8.5 53.5t12.5 47h61q-9 -35 -13 -72.5t-4 -72.5q0 -61 30.5 -98.5t85.5 -37.5h335q-19 17 -33 43.5t-21 57.5t-7 61q0 79 32.5 137t93 90.5t142.5 32.5h115v-482h-654zM841 60v362h-47q-64 0 -110 -24.5t-70 -68.5
t-24 -105q0 -54 16 -91t46 -55t71 -18h118zM732 702q-19 0 -31.5 11.5t-12.5 35.5q0 23 12 34t32 11q18 0 30.5 -11t12.5 -34q0 -25 -12.5 -36t-30.5 -11zM657 584q-20 0 -33 12t-13 38q0 25 13 37t33 12q22 0 34 -13.5t12 -35.5q0 -23 -12 -36.5t-34 -13.5zM807 584
q-21 0 -33.5 13t-12.5 37q0 23 12 36t34 13q23 0 34.5 -13.5t11.5 -35.5q0 -23 -12 -36.5t-34 -13.5z" />
    <glyph glyph-name="uni06A6" unicode="&#x6a6;" horiz-adv-x="991" arabic-form="isolated" 
d="M252 0q-88 0 -137.5 51.5t-49.5 142.5q0 20 3 46.5t8.5 53.5t12.5 47h61q-9 -35 -13 -72.5t-4 -72.5q0 -61 30.5 -98.5t85.5 -37.5h335q-19 17 -33 43.5t-21 57.5t-7 61q0 79 32.5 137t93 90.5t142.5 32.5h115v-482h-654zM841 60v362h-47q-64 0 -110 -24.5t-70 -68.5
t-24 -105q0 -54 16 -91t46 -55t71 -18h118zM662 578q-20 0 -31.5 12t-11.5 33q0 23 12.5 34t30.5 11q16 0 29 -10t13 -35q0 -23 -12 -34t-30 -11zM800 578q-18 0 -30 10.5t-12 34.5t12 34.5t30 10.5q20 0 31.5 -12.5t11.5 -32.5t-11.5 -32.5t-31.5 -12.5zM661 725
q-19 0 -30.5 12t-11.5 34q0 23 12.5 33.5t30.5 10.5q16 0 29 -10t13 -34t-12 -35t-31 -11zM800 725q-17 0 -29.5 10.5t-12.5 35.5q0 24 12.5 34t29.5 10q20 0 31.5 -12.5t11.5 -31.5q0 -21 -11.5 -33.5t-31.5 -12.5z" />
    <glyph glyph-name="uni06A9" unicode="&#x6a9;" horiz-adv-x="782" arabic-form="isolated" 
d="M236 0q-83 0 -127 43.5t-44 128.5q0 27 5 61.5t13 67.5h61q-7 -37 -10.5 -68t-3.5 -54q0 -57 26.5 -88t76.5 -31h409v199q0 80 -46.5 115t-142.5 35h-172v63q32 70 86.5 135.5t122 117.5t136.5 79l24 -58q-46 -19 -93 -49.5t-88.5 -69t-74 -79t-49.5 -79.5h108
q124 0 189 -49.5t65 -150.5v-269h-471z" />
    <glyph glyph-name="uni06AD" unicode="&#x6ad;" horiz-adv-x="763" arabic-form="isolated" 
d="M248 0q-91 0 -137 44t-46 128q0 22 2 42.5t7.5 42t13.5 44.5h57q-7 -34 -11 -63.5t-4 -59.5q0 -55 28 -86.5t86 -31.5h355v700h64v-760h-415zM289 318v36h143v7q0 15 -8 21t-29 6h-88v29q13 32 43.5 59.5t60.5 36.5l14 -34q-20 -7 -40 -22.5t-33 -31.5h43
q35 0 54.5 -15.5t19.5 -46.5v-45h-180zM379 675q-15 0 -24.5 8.5t-9.5 27.5q0 18 9.5 27t24.5 9t24.5 -9t9.5 -27q0 -19 -9.5 -27.5t-24.5 -8.5zM320 570q-15 0 -25.5 10t-10.5 29q0 20 10 29.5t26 9.5q17 0 26.5 -10.5t9.5 -28.5q0 -17 -9.5 -28t-26.5 -11zM439 570
q-17 0 -26.5 10.5t-9.5 28.5t9.5 28.5t26.5 10.5q18 0 27 -10.5t9 -28.5q0 -17 -9 -28t-27 -11z" />
    <glyph glyph-name="uni06AF" unicode="&#x6af;" horiz-adv-x="782" arabic-form="isolated" 
d="M236 0q-83 0 -127 43.5t-44 128.5q0 27 5 61.5t13 67.5h61q-7 -37 -10.5 -68t-3.5 -54q0 -57 26.5 -88t76.5 -31h409v199q0 80 -46.5 115t-142.5 35h-172v63q32 70 86.5 135.5t122 117.5t136.5 79l24 -58q-46 -19 -93 -49.5t-88.5 -69t-74 -79t-49.5 -79.5h108
q124 0 189 -49.5t65 -150.5v-269h-471zM258 617q20 37 54.5 77.5t77.5 79.5t90.5 71t93.5 52l22 -52q-44 -17 -90 -47.5t-89.5 -69t-79.5 -79t-57 -78.5z" />
    <glyph glyph-name="uni06B1" unicode="&#x6b1;" horiz-adv-x="782" arabic-form="isolated" 
d="M236 0q-83 0 -127 43.5t-44 128.5q0 27 5 61.5t13 67.5h61q-7 -37 -10.5 -68t-3.5 -54q0 -57 26.5 -88t76.5 -31h409v199q0 80 -46.5 115t-142.5 35h-172v63q32 70 86.5 135.5t122 117.5t136.5 79l24 -58q-46 -19 -93 -49.5t-88.5 -69t-74 -79t-49.5 -79.5h108
q124 0 189 -49.5t65 -150.5v-269h-471zM258 617q20 37 54.5 77.5t77.5 79.5t90.5 71t93.5 52l22 -52q-44 -17 -90 -47.5t-89.5 -69t-79.5 -79t-57 -78.5zM261 739q-10 0 -18.5 4.5t-13 13.5t-4.5 20q0 18 10.5 27.5t25.5 9.5q10 0 17.5 -5t12.5 -13t5 -20q0 -17 -10.5 -27
t-24.5 -10zM358 820q-9 0 -17.5 5t-13.5 14t-5 20q0 17 11 27t25 10t24.5 -10.5t10.5 -28.5q0 -19 -11 -28t-24 -9z" />
    <glyph glyph-name="uni06B3" unicode="&#x6b3;" horiz-adv-x="782" arabic-form="isolated" 
d="M236 0q-83 0 -127 43.5t-44 128.5q0 27 5 61.5t13 67.5h61q-7 -37 -10.5 -68t-3.5 -54q0 -57 26.5 -88t76.5 -31h409v199q0 80 -46.5 115t-142.5 35h-172v63q32 70 86.5 135.5t122 117.5t136.5 79l24 -58q-46 -19 -93 -49.5t-88.5 -69t-74 -79t-49.5 -79.5h108
q124 0 189 -49.5t65 -150.5v-269h-471zM258 617q20 37 54.5 77.5t77.5 79.5t90.5 71t93.5 52l22 -52q-44 -17 -90 -47.5t-89.5 -69t-79.5 -79t-57 -78.5zM406 -337q-22 0 -34.5 13t-12.5 37t12.5 36.5t34.5 12.5q21 0 33.5 -13t12.5 -36t-11.5 -36.5t-34.5 -13.5zM406 -180
q-22 0 -34.5 12.5t-12.5 36.5t12.5 37t34.5 13t34 -13.5t12 -36.5q0 -22 -11.5 -35.5t-34.5 -13.5z" />
    <glyph glyph-name="uni06BA" unicode="&#x6ba;" horiz-adv-x="642" arabic-form="isolated" 
d="M254 -240q-35 0 -64 10t-51 29q-36 29 -55 81t-19 123q0 54 10 107.5t29 98.5h63q-16 -39 -25 -89.5t-9 -109.5q0 -93 33 -141.5t102 -48.5h55q88 0 129 40.5t41 127.5v494h64v-488q0 -116 -54.5 -175t-176.5 -59h-72z" />
    <glyph glyph-name="uni06BB" unicode="&#x6bb;" horiz-adv-x="642" arabic-form="isolated" 
d="M254 -240q-35 0 -64 10t-51 29q-36 29 -55 81t-19 123q0 54 10 107.5t29 98.5h63q-16 -39 -25 -89.5t-9 -109.5q0 -93 33 -141.5t102 -48.5h55q88 0 129 40.5t41 127.5v494h64v-488q0 -116 -54.5 -175t-176.5 -59h-72zM205 486h16v177h33v-126q11 28 30 47.5t49 19.5
q33 0 51 -20.5t18 -63.5v-69h-197v35zM369 486v27q0 29 -9.5 43t-31.5 14t-41 -17.5t-34 -56.5v-10h116z" />
    <glyph glyph-name="uni06BE" unicode="&#x6be;" horiz-adv-x="767" arabic-form="isolated" 
d="M65 0v60h116q-36 21 -57 61.5t-21 91.5q0 28 6.5 52.5t17.5 45.5q24 46 68 71t99 25q61 0 101.5 -24t61.5 -71t21 -119v-133h128v200q0 143 -62.5 208.5t-195.5 65.5q-39 0 -82 -6.5t-84 -18.5l-19 59q27 9 57 14.5t62 9t66 3.5q158 0 240 -84.5t82 -243.5v-267h-605z
M313 60h101v119q0 85 -31 123t-94 38q-56 0 -87 -34t-31 -96q0 -44 18 -78t50 -53t74 -19z" />
    <glyph glyph-name="uni06C0" unicode="&#x6c0;" horiz-adv-x="586" arabic-form="isolated" 
d="M291 -10q-106 0 -166 61.5t-60 171.5q0 36 7.5 69t22.5 65q30 62 83 98.5t116 36.5q30 0 59 -9t57 -29q35 -25 60 -62.5t38 -81.5t13 -90q0 -111 -57.5 -170.5t-172.5 -59.5zM294 49q77 0 118 43t41 126q0 63 -19.5 111t-55 75.5t-85.5 27.5q-44 0 -80.5 -26.5t-58 -74.5
t-21.5 -111q0 -83 41.5 -127t119.5 -44zM168 583l47 8q-18 11 -26.5 27t-8.5 35q0 41 27.5 65t72.5 24q35 0 60 -14l-13 -37q-9 5 -21 8.5t-27 3.5q-23 0 -40.5 -14t-17.5 -42q0 -18 10 -31t24 -19q18 3 38 5.5t37 5t25 2.5v-40q-19 -1 -40.5 -3.5t-45 -5.5t-49 -7t-52.5 -8
v37z" />
    <glyph glyph-name="uni06C1" unicode="&#x6c1;" horiz-adv-x="586" arabic-form="isolated" 
d="M291 -10q-106 0 -166 61.5t-60 171.5q0 36 7.5 69t22.5 65q30 62 83 98.5t116 36.5q30 0 59 -9t57 -29q35 -25 60 -62.5t38 -81.5t13 -90q0 -111 -57.5 -170.5t-172.5 -59.5zM294 49q77 0 118 43t41 126q0 63 -19.5 111t-55 75.5t-85.5 27.5q-44 0 -80.5 -26.5t-58 -74.5
t-21.5 -111q0 -83 41.5 -127t119.5 -44z" />
    <glyph glyph-name="uni06C5" unicode="&#x6c5;" horiz-adv-x="541" arabic-form="isolated" 
d="M391 60v362h-54q-92 0 -144.5 -51t-52.5 -145q0 -84 38 -125t114 -41h99zM262 -262q34 26 63.5 57.5t48 67.5t18.5 78v59h-98q-106 0 -164 58t-58 168q0 77 32 134.5t92 89.5t145 32h115v-532q0 -47 -15.5 -89.5t-48.5 -84t-88 -87.5zM382 -149l-47 17q-29 12 -46.5 16.5
t-32.5 4.5q-10 0 -23.5 -3.5t-31.5 -13.5l-20 29q23 20 39.5 27.5t35.5 7.5q14 0 30 -4t36 -12q26 -9 44 -15t27 -8z" />
    <glyph glyph-name="uni06C6" unicode="&#x6c6;" horiz-adv-x="539" arabic-form="isolated" 
d="M234 -240q-50 0 -92 14t-77 38l31 51q33 -20 66.5 -31.5t75.5 -11.5q71 0 111.5 39.5t40.5 104.5v36h-99q-105 0 -162.5 58t-57.5 168q0 77 31.5 134.5t91 89.5t142.5 32h118v-513q0 -98 -57.5 -153.5t-162.5 -55.5zM389 60v362h-52q-92 0 -145.5 -51t-53.5 -145
q0 -84 38.5 -125t117.5 -41h95zM437 761l-110 -192h-49l-111 192h61l74 -138l74 138h61z" />
    <glyph glyph-name="uni06C7" unicode="&#x6c7;" horiz-adv-x="539" arabic-form="isolated" 
d="M234 -240q-50 0 -92 14t-77 38l31 51q33 -20 66.5 -31.5t75.5 -11.5q71 0 111.5 39.5t40.5 104.5v36h-99q-105 0 -162.5 58t-57.5 168q0 77 31.5 134.5t91 89.5t142.5 32h118v-513q0 -98 -57.5 -153.5t-162.5 -55.5zM389 60v362h-52q-92 0 -145.5 -51t-53.5 -145
q0 -84 38.5 -125t117.5 -41h95zM243 550l-20 30q23 13 42.5 26t33.5 25t19 20q-33 12 -54.5 34t-21.5 47q0 29 22 50t54 21q29 0 46 -23t17 -57q0 -32 -12 -58t-32 -47.5t-44.5 -38.5t-49.5 -29z" />
    <glyph glyph-name="uni06C8" unicode="&#x6c8;" horiz-adv-x="539" arabic-form="isolated" 
d="M234 -240q-50 0 -92 14t-77 38l31 51q33 -20 66.5 -31.5t75.5 -11.5q71 0 111.5 39.5t40.5 104.5v36h-99q-105 0 -162.5 58t-57.5 168q0 77 31.5 134.5t91 89.5t142.5 32h118v-513q0 -98 -57.5 -153.5t-162.5 -55.5zM389 60v362h-52q-92 0 -145.5 -51t-53.5 -145
q0 -84 38.5 -125t117.5 -41h95zM259 753h45v-194h-45v194z" />
    <glyph glyph-name="uni06C9" unicode="&#x6c9;" horiz-adv-x="539" arabic-form="isolated" 
d="M234 -240q-50 0 -92 14t-77 38l31 51q33 -20 66.5 -31.5t75.5 -11.5q71 0 111.5 39.5t40.5 104.5v36h-99q-105 0 -162.5 58t-57.5 168q0 77 31.5 134.5t91 89.5t142.5 32h118v-513q0 -98 -57.5 -153.5t-162.5 -55.5zM389 60v362h-52q-92 0 -145.5 -51t-53.5 -145
q0 -84 38.5 -125t117.5 -41h95zM171 569l114 192h35l114 -192h-54l-77 138l-78 -138h-54z" />
    <glyph glyph-name="uni06CB" unicode="&#x6cb;" horiz-adv-x="539" arabic-form="isolated" 
d="M234 -240q-50 0 -92 14t-77 38l31 51q33 -20 66.5 -31.5t75.5 -11.5q71 0 111.5 39.5t40.5 104.5v36h-99q-105 0 -162.5 58t-57.5 168q0 77 31.5 134.5t91 89.5t142.5 32h118v-513q0 -98 -57.5 -153.5t-162.5 -55.5zM389 60v362h-52q-92 0 -145.5 -51t-53.5 -145
q0 -84 38.5 -125t117.5 -41h95zM302 695q-19 0 -31.5 11.5t-12.5 35.5q0 23 12 34t32 11q18 0 30.5 -11t12.5 -34q0 -25 -12.5 -36t-30.5 -11zM227 577q-20 0 -33 12t-13 38q0 25 13 37t33 12q22 0 34 -13.5t12 -35.5q0 -23 -12 -36.5t-34 -13.5zM377 577q-21 0 -33.5 13
t-12.5 37q0 23 12 36t34 13q23 0 34.5 -13.5t11.5 -35.5q0 -23 -12 -36.5t-34 -13.5z" />
    <glyph glyph-name="uni06CC" unicode="&#x6cc;" horiz-adv-x="824" arabic-form="isolated" 
d="M266 -240q-63 0 -108.5 29t-69 84t-23.5 132q0 49 8.5 90.5t27.5 85.5h63q-17 -41 -24 -82t-7 -89q0 -62 16.5 -104.5t49 -64t80.5 -21.5h195q58 0 96.5 16t58.5 42.5t20 58.5q0 28 -20 52.5t-49.5 45t-58.5 36.5q-31 18 -51 31.5t-32 23.5q-13 11 -23.5 24t-16.5 28.5
t-6 32.5q0 28 10.5 59t30.5 62q28 42 65.5 75.5t80 52.5t84.5 19q23 0 47 -6.5t44.5 -15.5t32.5 -17l-29 -51q-8 4 -24 9t-33 9t-31 4q-23 0 -46.5 -7.5t-43.5 -20.5q-31 -19 -56.5 -46t-41.5 -56.5t-16 -57.5q0 -15 11 -29.5t29.5 -28.5t43.5 -28q40 -23 65.5 -42.5
t41.5 -34.5q27 -25 44 -56t17 -68q0 -81 -64 -128.5t-180 -47.5h-208z" />
    <glyph glyph-name="uni06D0" unicode="&#x6d0;" horiz-adv-x="824" arabic-form="isolated" 
d="M266 -240q-63 0 -108.5 29t-69 84t-23.5 132q0 49 8.5 90.5t27.5 85.5h63q-17 -41 -24 -82t-7 -89q0 -62 16.5 -104.5t49 -64t80.5 -21.5h195q58 0 96.5 16t58.5 42.5t20 58.5q0 28 -20 52.5t-49.5 45t-58.5 36.5q-31 18 -51 31.5t-32 23.5q-13 11 -23.5 24t-16.5 28.5
t-6 32.5q0 28 10.5 59t30.5 62q28 42 65.5 75.5t80 52.5t84.5 19q23 0 47 -6.5t44.5 -15.5t32.5 -17l-29 -51q-8 4 -24 9t-33 9t-31 4q-23 0 -46.5 -7.5t-43.5 -20.5q-31 -19 -56.5 -46t-41.5 -56.5t-16 -57.5q0 -15 11 -29.5t29.5 -28.5t43.5 -28q40 -23 65.5 -42.5
t41.5 -34.5q27 -25 44 -56t17 -68q0 -81 -64 -128.5t-180 -47.5h-208zM388 -591q-22 0 -34.5 13t-12.5 37t12.5 36.5t34.5 12.5q21 0 33.5 -13t12.5 -36t-11.5 -36.5t-34.5 -13.5zM388 -434q-22 0 -34.5 12.5t-12.5 36.5t12.5 37t34.5 13t34 -13.5t12 -36.5
q0 -22 -11.5 -35.5t-34.5 -13.5z" />
    <glyph glyph-name="uni06D2" unicode="&#x6d2;" horiz-adv-x="577" arabic-form="isolated" 
d="M176 -191q-62 0 -96.5 31.5t-34.5 87.5q0 19 5 36.5t14 31.5q15 23 40 41.5t60 35.5t78 34q41 17 67 30.5t40 23.5q28 19 39.5 44t11.5 70v40h67v-39q0 -55 -15 -89q-10 -25 -28.5 -44t-54 -39t-98.5 -47q-39 -16 -66.5 -29t-40.5 -21q-27 -17 -39.5 -34.5t-12.5 -44.5
q0 -25 17 -42t45 -17h468v-60h-466z" />
    <glyph glyph-name="uni06D3" unicode="&#x6d3;" horiz-adv-x="577" arabic-form="isolated" 
d="M176 -191q-62 0 -96.5 31.5t-34.5 87.5q0 19 5 36.5t14 31.5q15 23 40 41.5t60 35.5t78 34q41 17 67 30.5t40 23.5q28 19 39.5 44t11.5 70v40h67v-39q0 -55 -15 -89q-10 -25 -28.5 -44t-54 -39t-98.5 -47q-39 -16 -66.5 -29t-40.5 -21q-27 -17 -39.5 -34.5t-12.5 -44.5
q0 -25 17 -42t45 -17h468v-60h-466zM182 423l47 8q-18 11 -26.5 27t-8.5 35q0 41 27.5 65t72.5 24q35 0 60 -14l-13 -37q-9 5 -21 8.5t-27 3.5q-23 0 -40.5 -14t-17.5 -42q0 -18 10 -31t24 -19q18 3 38 5.5t37 5t25 2.5v-40q-19 -1 -40.5 -3.5t-45 -5.5t-49 -7t-52.5 -8v37z
" />
    <glyph glyph-name="uni06D5" unicode="&#x647;" horiz-adv-x="586" arabic-form="isolated" 
d="M291 -10q-106 0 -166 61.5t-60 171.5q0 36 7.5 69t22.5 65q30 62 83 98.5t116 36.5q30 0 59 -9t57 -29q35 -25 60 -62.5t38 -81.5t13 -90q0 -111 -57.5 -170.5t-172.5 -59.5zM294 49q77 0 118 43t41 126q0 63 -19.5 111t-55 75.5t-85.5 27.5q-44 0 -80.5 -26.5t-58 -74.5
t-21.5 -111q0 -83 41.5 -127t119.5 -44z" />
    <glyph glyph-name="uniFB51" unicode="&#x671;" horiz-adv-x="298" arabic-form="final" 
d="M303 60q5 0 5 -4v-51q0 -5 -5 -5h-203v760h67v-700h136zM0 890h44q16 51 44 77.5t64 26.5q39 0 60.5 -26.5t21.5 -73.5v-41h-234v37zM194 890q0 35 -10.5 50.5t-32.5 15.5q-20 0 -37.5 -18.5t-26.5 -47.5h107z" />
    <glyph glyph-name="uniFB53" unicode="&#x67b;" horiz-adv-x="792" arabic-form="final" 
d="M250 0q-86 0 -135.5 51.5t-49.5 140.5q0 21 3 48t8.5 54t13.5 47h60q-8 -36 -12.5 -71.5t-4.5 -72.5q0 -61 30 -99t87 -38h349v422h64v-422h134q5 0 5 -4v-51q0 -5 -5 -5h-547zM392 -347q-22 0 -34.5 13t-12.5 37t12.5 36.5t34.5 12.5q21 0 33.5 -13t12.5 -36
t-11.5 -36.5t-34.5 -13.5zM392 -190q-22 0 -34.5 12.5t-12.5 36.5t12.5 37t34.5 13t34 -13.5t12 -36.5q0 -22 -11.5 -35.5t-34.5 -13.5z" />
    <glyph glyph-name="uniFB54" unicode="&#x67b;" horiz-adv-x="283" arabic-form="initial" 
d="M-5 0q-5 0 -5 5v51q0 4 5 4h136v422h67v-482h-203zM128 -341q-22 0 -34.5 13t-12.5 37t12.5 36.5t34.5 12.5q21 0 33.5 -13t12.5 -36t-11.5 -36.5t-34.5 -13.5zM128 -184q-22 0 -34.5 12.5t-12.5 36.5t12.5 37t34.5 13t34 -13.5t12 -36.5q0 -22 -11.5 -35.5t-34.5 -13.5z
" />
    <glyph glyph-name="uniFB55" unicode="&#x67b;" horiz-adv-x="317" arabic-form="medial" 
d="M-5 0q-5 0 -5 5v51q0 4 5 4h132v422h67v-422h128q5 0 5 -4v-51q0 -5 -5 -5h-327zM157 -341q-22 0 -34.5 13t-12.5 37t12.5 36.5t34.5 12.5q21 0 33.5 -13t12.5 -36t-11.5 -36.5t-34.5 -13.5zM157 -184q-22 0 -34.5 12.5t-12.5 36.5t12.5 37t34.5 13t34 -13.5t12 -36.5
q0 -22 -11.5 -35.5t-34.5 -13.5z" />
    <glyph glyph-name="uniFB57" unicode="&#x67e;" horiz-adv-x="792" arabic-form="final" 
d="M250 0q-86 0 -135.5 51.5t-49.5 140.5q0 21 3 48t8.5 54t13.5 47h60q-8 -36 -12.5 -71.5t-4.5 -72.5q0 -61 30 -99t87 -38h349v422h64v-422h134q5 0 5 -4v-51q0 -5 -5 -5h-547zM393 -366q-19 0 -31 11t-12 35t12 35t31 11t31.5 -11.5t12.5 -34.5q0 -24 -12.5 -35
t-31.5 -11zM318 -257q-20 0 -33 12t-13 38q0 25 13.5 37t32.5 12q22 0 34 -13.5t12 -35.5q0 -23 -11.5 -36.5t-34.5 -13.5zM468 -257q-21 0 -33.5 13t-12.5 37t12.5 36.5t33.5 12.5q22 0 34.5 -13.5t12.5 -35.5q0 -23 -12 -36.5t-35 -13.5z" />
    <glyph glyph-name="uniFB58" unicode="&#x67e;" horiz-adv-x="367" arabic-form="initial" 
d="M-5 0q-5 0 -5 5v51q0 4 5 4h203v422h67v-482h-270zM179 -359q-19 0 -31 11t-12 35t12 35t31 11t31.5 -11.5t12.5 -34.5q0 -24 -12.5 -35t-31.5 -11zM104 -250q-20 0 -33 12t-13 38q0 25 13.5 37t32.5 12q22 0 34 -13.5t12 -35.5q0 -23 -11.5 -36.5t-34.5 -13.5zM254 -250
q-21 0 -33.5 13t-12.5 37t12.5 36.5t33.5 12.5q22 0 34.5 -13.5t12.5 -35.5q0 -23 -12 -36.5t-35 -13.5z" />
    <glyph glyph-name="uniFB59" unicode="&#x67e;" horiz-adv-x="373" arabic-form="medial" 
d="M-5 0q-5 0 -5 5v51q0 4 5 4h165v422h68v-422h150q5 0 5 -4v-51q0 -5 -5 -5h-383zM191 -359q-19 0 -31 11t-12 35t12 35t31 11t31.5 -11.5t12.5 -34.5q0 -24 -12.5 -35t-31.5 -11zM116 -250q-20 0 -33 12t-13 38q0 25 13.5 37t32.5 12q22 0 34 -13.5t12 -35.5
q0 -23 -11.5 -36.5t-34.5 -13.5zM266 -250q-21 0 -33.5 13t-12.5 37t12.5 36.5t33.5 12.5q22 0 34.5 -13.5t12.5 -35.5q0 -23 -12 -36.5t-35 -13.5z" />
    <glyph glyph-name="uniFB5B" unicode="&#x680;" horiz-adv-x="792" arabic-form="final" 
d="M250 0q-86 0 -135.5 51.5t-49.5 140.5q0 21 3 48t8.5 54t13.5 47h60q-8 -36 -12.5 -71.5t-4.5 -72.5q0 -61 30 -99t87 -38h349v422h64v-422h134q5 0 5 -4v-51q0 -5 -5 -5h-547zM321 -363q-20 0 -31.5 12t-11.5 33q0 23 12.5 34t30.5 11q16 0 29 -10t13 -35q0 -23 -12 -34
t-30 -11zM459 -363q-18 0 -30 10.5t-12 34.5t12 34.5t30 10.5q20 0 31.5 -12.5t11.5 -32.5t-11.5 -32.5t-31.5 -12.5zM320 -216q-19 0 -30.5 12t-11.5 34q0 23 12.5 33.5t30.5 10.5q16 0 29 -10t13 -34t-12 -35t-31 -11zM459 -216q-17 0 -29.5 10.5t-12.5 35.5q0 24 12.5 34
t29.5 10q20 0 31.5 -12.5t11.5 -31.5q0 -21 -11.5 -33.5t-31.5 -12.5z" />
    <glyph glyph-name="uniFB5C" unicode="&#x680;" horiz-adv-x="367" arabic-form="initial" 
d="M-5 0q-5 0 -5 5v51q0 4 5 4h203v422h67v-482h-270zM107 -356q-20 0 -31.5 12t-11.5 33q0 23 12.5 34t30.5 11q16 0 29 -10t13 -35q0 -23 -12 -34t-30 -11zM245 -356q-18 0 -30 10.5t-12 34.5t12 34.5t30 10.5q20 0 31.5 -12.5t11.5 -32.5t-11.5 -32.5t-31.5 -12.5z
M106 -209q-19 0 -30.5 12t-11.5 34q0 23 12.5 33.5t30.5 10.5q16 0 29 -10t13 -34t-12 -35t-31 -11zM245 -209q-17 0 -29.5 10.5t-12.5 35.5q0 24 12.5 34t29.5 10q20 0 31.5 -12.5t11.5 -31.5q0 -21 -11.5 -33.5t-31.5 -12.5z" />
    <glyph glyph-name="uniFB5D" unicode="&#x680;" horiz-adv-x="373" arabic-form="medial" 
d="M-5 0q-5 0 -5 5v51q0 4 5 4h165v422h68v-422h150q5 0 5 -4v-51q0 -5 -5 -5h-383zM119 -356q-20 0 -31.5 12t-11.5 33q0 23 12.5 34t30.5 11q16 0 29 -10t13 -35q0 -23 -12 -34t-30 -11zM257 -356q-18 0 -30 10.5t-12 34.5t12 34.5t30 10.5q20 0 31.5 -12.5t11.5 -32.5
t-11.5 -32.5t-31.5 -12.5zM118 -209q-19 0 -30.5 12t-11.5 34q0 23 12.5 33.5t30.5 10.5q16 0 29 -10t13 -34t-12 -35t-31 -11zM257 -209q-17 0 -29.5 10.5t-12.5 35.5q0 24 12.5 34t29.5 10q20 0 31.5 -12.5t11.5 -31.5q0 -21 -11.5 -33.5t-31.5 -12.5z" />
    <glyph glyph-name="uniFB5F" unicode="&#x67a;" horiz-adv-x="792" arabic-form="final" 
d="M250 0q-86 0 -135.5 51.5t-49.5 140.5q0 21 3 48t8.5 54t13.5 47h60q-8 -36 -12.5 -71.5t-4.5 -72.5q0 -61 30 -99t87 -38h349v422h64v-422h134q5 0 5 -4v-51q0 -5 -5 -5h-547zM377 331q-22 0 -34.5 12.5t-12.5 36.5t12.5 37t34.5 13t34 -14t12 -36t-11.5 -35.5
t-34.5 -13.5zM377 488q-22 0 -34.5 12.5t-12.5 36.5t12.5 36.5t34.5 12.5t34 -13.5t12 -35.5t-11.5 -35.5t-34.5 -13.5z" />
    <glyph glyph-name="uniFB60" unicode="&#x67a;" horiz-adv-x="367" arabic-form="initial" 
d="M-5 0q-5 0 -5 5v51q0 4 5 4h203v422h67v-482h-270zM213 558q-22 0 -34.5 12.5t-12.5 36.5t12.5 37t34.5 13t34 -14t12 -36t-11.5 -35.5t-34.5 -13.5zM213 715q-22 0 -34.5 12.5t-12.5 36.5t12.5 36.5t34.5 12.5t34 -13.5t12 -35.5t-11.5 -35.5t-34.5 -13.5z" />
    <glyph glyph-name="uniFB61" unicode="&#x67a;" horiz-adv-x="373" arabic-form="medial" 
d="M-5 0q-5 0 -5 5v51q0 4 5 4h165v422h68v-422h150q5 0 5 -4v-51q0 -5 -5 -5h-383zM176 578q-22 0 -34.5 12.5t-12.5 36.5t12.5 37t34.5 13t34 -14t12 -36t-11.5 -35.5t-34.5 -13.5zM176 735q-22 0 -34.5 12.5t-12.5 36.5t12.5 36.5t34.5 12.5t34 -13.5t12 -35.5
t-11.5 -35.5t-34.5 -13.5z" />
    <glyph glyph-name="uniFB63" unicode="&#x67f;" horiz-adv-x="792" arabic-form="final" 
d="M250 0q-86 0 -135.5 51.5t-49.5 140.5q0 21 3 48t8.5 54t13.5 47h60q-8 -36 -12.5 -71.5t-4.5 -72.5q0 -61 30 -99t87 -38h349v422h64v-422h134q5 0 5 -4v-51q0 -5 -5 -5h-547zM307 330q-20 0 -31.5 12t-11.5 33q0 23 12.5 34t30.5 11q16 0 29 -10t13 -35q0 -23 -12 -34
t-30 -11zM445 330q-18 0 -30 10.5t-12 34.5t12 34.5t30 10.5q20 0 31.5 -12.5t11.5 -32.5t-11.5 -32.5t-31.5 -12.5zM306 477q-19 0 -30.5 12t-11.5 34q0 23 12.5 33.5t30.5 10.5q16 0 29 -10t13 -34t-12 -35t-31 -11zM445 477q-17 0 -29.5 10.5t-12.5 35.5q0 24 12.5 34
t29.5 10q20 0 31.5 -12.5t11.5 -31.5q0 -21 -11.5 -33.5t-31.5 -12.5z" />
    <glyph glyph-name="uniFB64" unicode="&#x67f;" horiz-adv-x="367" arabic-form="initial" 
d="M-5 0q-5 0 -5 5v51q0 4 5 4h203v422h67v-482h-270zM143 557q-20 0 -31.5 12t-11.5 33q0 23 12.5 34t30.5 11q16 0 29 -10t13 -35q0 -23 -12 -34t-30 -11zM281 557q-18 0 -30 10.5t-12 34.5t12 34.5t30 10.5q20 0 31.5 -12.5t11.5 -32.5t-11.5 -32.5t-31.5 -12.5zM142 704
q-19 0 -30.5 12t-11.5 34q0 23 12.5 33.5t30.5 10.5q16 0 29 -10t13 -34t-12 -35t-31 -11zM281 704q-17 0 -29.5 10.5t-12.5 35.5q0 24 12.5 34t29.5 10q20 0 31.5 -12.5t11.5 -31.5q0 -21 -11.5 -33.5t-31.5 -12.5z" />
    <glyph glyph-name="uniFB65" unicode="&#x67f;" horiz-adv-x="373" arabic-form="medial" 
d="M-5 0q-5 0 -5 5v51q0 4 5 4h165v422h68v-422h150q5 0 5 -4v-51q0 -5 -5 -5h-383zM106 577q-20 0 -31.5 12t-11.5 33q0 23 12.5 34t30.5 11q16 0 29 -10t13 -35q0 -23 -12 -34t-30 -11zM244 577q-18 0 -30 10.5t-12 34.5t12 34.5t30 10.5q20 0 31.5 -12.5t11.5 -32.5
t-11.5 -32.5t-31.5 -12.5zM105 724q-19 0 -30.5 12t-11.5 34q0 23 12.5 33.5t30.5 10.5q16 0 29 -10t13 -34t-12 -35t-31 -11zM244 724q-17 0 -29.5 10.5t-12.5 35.5q0 24 12.5 34t29.5 10q20 0 31.5 -12.5t11.5 -31.5q0 -21 -11.5 -33.5t-31.5 -12.5z" />
    <glyph glyph-name="uniFB67" unicode="&#x679;" horiz-adv-x="792" arabic-form="final" 
d="M250 0q-86 0 -135.5 51.5t-49.5 140.5q0 21 3 48t8.5 54t13.5 47h60q-8 -36 -12.5 -71.5t-4.5 -72.5q0 -61 30 -99t87 -38h349v422h64v-422h134q5 0 5 -4v-51q0 -5 -5 -5h-547zM277 397h16v177h33v-126q11 28 30 47.5t49 19.5q33 0 51 -20.5t18 -63.5v-69h-197v35z
M441 397v27q0 29 -9.5 43t-31.5 14t-41 -17.5t-34 -56.5v-10h116z" />
    <glyph glyph-name="uniFB68" unicode="&#x6bb;" horiz-adv-x="283" arabic-form="initial" 
d="M-5 0q-5 0 -5 5v51q0 4 5 4h136v422h67v-482h-203zM46 624h16v177h33v-126q11 28 30 47.5t49 19.5q33 0 51 -20.5t18 -63.5v-69h-197v35zM210 624v27q0 29 -9.5 43t-31.5 14t-41 -17.5t-34 -56.5v-10h116z" />
    <glyph glyph-name="uniFB69" unicode="&#x6bb;" horiz-adv-x="373" arabic-form="medial" 
d="M-5 0q-5 0 -5 5v51q0 4 5 4h165v422h68v-422h150q5 0 5 -4v-51q0 -5 -5 -5h-383zM76 644h16v177h33v-126q11 28 30 47.5t49 19.5q33 0 51 -20.5t18 -63.5v-69h-197v35zM240 644v27q0 29 -9.5 43t-31.5 14t-41 -17.5t-34 -56.5v-10h116z" />
    <glyph glyph-name="uniFB6B" unicode="&#x6a4;" horiz-adv-x="1006" arabic-form="final" 
d="M252 0q-88 0 -137.5 51.5t-49.5 142.5q0 20 3 46.5t8.5 53.5t12.5 47h61q-9 -35 -13 -72.5t-4 -72.5q0 -61 30.5 -98.5t85.5 -37.5h335q-19 17 -33 43.5t-21 57.5t-7 61q0 79 32.5 137t93 90.5t142.5 32.5h115v-422h105q5 0 5 -4v-51q0 -5 -5 -5h-759zM723 60h118v362
h-47q-64 0 -110 -24.5t-70 -68.5t-24 -105q0 -54 16 -91t46 -55t71 -18zM732 709q-19 0 -31.5 11.5t-12.5 35.5q0 23 12 34t32 11q18 0 30.5 -11t12.5 -34q0 -25 -12.5 -36t-30.5 -11zM657 591q-20 0 -33 12t-13 38q0 25 13 37t33 12q22 0 34 -13.5t12 -35.5
q0 -23 -12 -36.5t-34 -13.5zM807 591q-21 0 -33.5 13t-12.5 37q0 23 12 36t34 13q23 0 34.5 -13.5t11.5 -35.5q0 -23 -12 -36.5t-34 -13.5z" />
    <glyph glyph-name="uniFB6C" unicode="&#x6a4;" horiz-adv-x="565" arabic-form="initial" 
d="M-5 0q-5 0 -5 5v51q0 4 5 4h163q-20 18 -33.5 45t-20.5 57.5t-7 59.5q0 79 33 137t93 90.5t142 32.5h115v-482h-485zM298 60h118v362h-48q-63 0 -109 -24.5t-70.5 -68.5t-24.5 -105q0 -54 16.5 -91t46.5 -55t71 -18zM317 715q-19 0 -31.5 11.5t-12.5 35.5q0 23 12 34
t32 11q18 0 30.5 -11t12.5 -34q0 -25 -12.5 -36t-30.5 -11zM242 597q-20 0 -33 12t-13 38q0 25 13 37t33 12q22 0 34 -13.5t12 -35.5q0 -23 -12 -36.5t-34 -13.5zM392 597q-21 0 -33.5 13t-12.5 37q0 23 12 36t34 13q23 0 34.5 -13.5t11.5 -35.5q0 -23 -12 -36.5t-34 -13.5z
" />
    <glyph glyph-name="uniFB6D" unicode="&#x6a4;" horiz-adv-x="575" arabic-form="medial" 
d="M580 60q5 0 5 -5v-51q0 -4 -5 -4h-585q-5 0 -5 5v51q0 4 5 4h163q-20 18 -33.5 45t-20.5 57.5t-7 59.5q0 80 33 138t93 90t142 32h115v-422h100zM416 60v362h-48q-63 0 -109 -24.5t-70.5 -69t-24.5 -105.5q0 -54 16.5 -90.5t46.5 -54.5t71 -18h118zM317 715
q-19 0 -31.5 11.5t-12.5 35.5q0 23 12 34t32 11q18 0 30.5 -11t12.5 -34q0 -25 -12.5 -36t-30.5 -11zM242 597q-20 0 -33 12t-13 38q0 25 13 37t33 12q22 0 34 -13.5t12 -35.5q0 -23 -12 -36.5t-34 -13.5zM392 597q-21 0 -33.5 13t-12.5 37q0 23 12 36t34 13
q23 0 34.5 -13.5t11.5 -35.5q0 -23 -12 -36.5t-34 -13.5z" />
    <glyph glyph-name="uniFB6F" unicode="&#x6a6;" horiz-adv-x="1006" arabic-form="final" 
d="M252 0q-88 0 -137.5 51.5t-49.5 142.5q0 20 3 46.5t8.5 53.5t12.5 47h61q-9 -35 -13 -72.5t-4 -72.5q0 -61 30.5 -98.5t85.5 -37.5h335q-19 17 -33 43.5t-21 57.5t-7 61q0 79 32.5 137t93 90.5t142.5 32.5h115v-422h105q5 0 5 -4v-51q0 -5 -5 -5h-759zM723 60h118v362
h-47q-64 0 -110 -24.5t-70 -68.5t-24 -105q0 -54 16 -91t46 -55t71 -18zM662 585q-20 0 -31.5 12t-11.5 33q0 23 12.5 34t30.5 11q16 0 29 -10t13 -35q0 -23 -12 -34t-30 -11zM800 585q-18 0 -30 10.5t-12 34.5t12 34.5t30 10.5q20 0 31.5 -12.5t11.5 -32.5t-11.5 -32.5
t-31.5 -12.5zM661 732q-19 0 -30.5 12t-11.5 34q0 23 12.5 33.5t30.5 10.5q16 0 29 -10t13 -34t-12 -35t-31 -11zM800 732q-17 0 -29.5 10.5t-12.5 35.5q0 24 12.5 34t29.5 10q20 0 31.5 -12.5t11.5 -31.5q0 -21 -11.5 -33.5t-31.5 -12.5z" />
    <glyph glyph-name="uniFB70" unicode="&#x6a6;" horiz-adv-x="565" arabic-form="initial" 
d="M-5 0q-5 0 -5 5v51q0 4 5 4h163q-20 18 -33.5 45t-20.5 57.5t-7 59.5q0 79 33 137t93 90.5t142 32.5h115v-482h-485zM298 60h118v362h-48q-63 0 -109 -24.5t-70.5 -68.5t-24.5 -105q0 -54 16.5 -91t46.5 -55t71 -18zM247 592q-20 0 -31.5 12t-11.5 33q0 23 12.5 34
t30.5 11q16 0 29 -10t13 -35q0 -23 -12 -34t-30 -11zM385 592q-18 0 -30 10.5t-12 34.5t12 34.5t30 10.5q20 0 31.5 -12.5t11.5 -32.5t-11.5 -32.5t-31.5 -12.5zM246 739q-19 0 -30.5 12t-11.5 34q0 23 12.5 33.5t30.5 10.5q16 0 29 -10t13 -34t-12 -35t-31 -11zM385 739
q-17 0 -29.5 10.5t-12.5 35.5q0 24 12.5 34t29.5 10q20 0 31.5 -12.5t11.5 -31.5q0 -21 -11.5 -33.5t-31.5 -12.5z" />
    <glyph glyph-name="uniFB71" unicode="&#x6a6;" horiz-adv-x="575" arabic-form="medial" 
d="M580 60q5 0 5 -5v-51q0 -4 -5 -4h-585q-5 0 -5 5v51q0 4 5 4h163q-20 18 -33.5 45t-20.5 57.5t-7 59.5q0 80 33 138t93 90t142 32h115v-422h100zM416 60v362h-48q-63 0 -109 -24.5t-70.5 -69t-24.5 -105.5q0 -54 16.5 -90.5t46.5 -54.5t71 -18h118zM247 592
q-20 0 -31.5 12t-11.5 33q0 23 12.5 34t30.5 11q16 0 29 -10t13 -35q0 -23 -12 -34t-30 -11zM385 592q-18 0 -30 10.5t-12 34.5t12 34.5t30 10.5q20 0 31.5 -12.5t11.5 -32.5t-11.5 -32.5t-31.5 -12.5zM246 739q-19 0 -30.5 12t-11.5 34q0 23 12.5 33.5t30.5 10.5
q16 0 29 -10t13 -34t-12 -35t-31 -11zM385 739q-17 0 -29.5 10.5t-12.5 35.5q0 24 12.5 34t29.5 10q20 0 31.5 -12.5t11.5 -31.5q0 -21 -11.5 -33.5t-31.5 -12.5z" />
    <glyph glyph-name="uniFB73" unicode="&#x684;" horiz-adv-x="604" arabic-form="final" 
d="M245 -324q-61 0 -106 22.5t-69.5 65t-24.5 101.5q0 33 9 62t27 54q27 40 74.5 72t115.5 60t157 54q-4 15 -9 35.5t-9 45.5q-9 58 -28.5 99t-51.5 63t-80 22q-44 0 -91.5 -15t-85.5 -37l-27 53q23 16 56 29t71.5 21.5t75.5 8.5q61 0 106 -23.5t74 -73.5t41 -129
q7 -41 15.5 -74t17.5 -54q15 -37 39.5 -57.5t61.5 -20.5h5q5 0 5 -4v-51q0 -5 -5 -5h-5q-36 0 -65 13.5t-51 39t-39 59.5q-73 -21 -133 -43.5t-98 -50.5q-54 -32 -79 -68.5t-25 -79.5q0 -66 37.5 -100t108.5 -34zM415 -293q-22 0 -34.5 12.5t-12.5 36.5t12.5 37t34.5 13
t34 -14t12 -36t-11.5 -35.5t-34.5 -13.5zM415 -136q-22 0 -34.5 12.5t-12.5 36.5t12.5 36.5t34.5 12.5t34 -13.5t12 -35.5t-11.5 -35.5t-34.5 -13.5z" />
    <glyph glyph-name="uniFB74" unicode="&#x684;" horiz-adv-x="569" arabic-form="initial" 
d="M-5 0q-5 0 -5 5v51q0 4 5 4h437q-22 26 -37.5 76.5t-28.5 123.5q-10 59 -24.5 97t-40 57t-69.5 19q-34 0 -69 -10.5t-75 -32.5l-27 53q42 27 83.5 38.5t88.5 11.5q32 0 57 -7t46 -20q37 -23 57.5 -66.5t33.5 -124.5q12 -66 23 -108.5t24 -67.5t30 -42v-57h-509zM245 -347
q-22 0 -34.5 13t-12.5 37t12.5 36.5t34.5 12.5q21 0 33.5 -13t12.5 -36t-11.5 -36.5t-34.5 -13.5zM245 -190q-22 0 -34.5 12.5t-12.5 36.5t12.5 37t34.5 13t34 -13.5t12 -36.5q0 -22 -11.5 -35.5t-34.5 -13.5z" />
    <glyph glyph-name="uniFB75" unicode="&#x684;" horiz-adv-x="563" arabic-form="medial" 
d="M-5 0q-5 0 -5 5v51q0 4 5 4h436q-14 17 -25.5 44t-21 65.5t-18.5 90.5q-7 43 -17 75.5t-24.5 54t-37.5 32.5t-55 11q-34 0 -68.5 -10.5t-74.5 -31.5l-28 52q42 27 83.5 38.5t88.5 11.5q32 0 57.5 -6.5t45.5 -20.5q25 -16 42 -40t28.5 -60t20.5 -91q10 -61 20.5 -102.5
t23.5 -69t30 -43.5h67q5 0 5 -4v-51q0 -5 -5 -5h-573zM245 -347q-22 0 -34.5 13t-12.5 37t12.5 36.5t34.5 12.5q21 0 33.5 -13t12.5 -36t-11.5 -36.5t-34.5 -13.5zM245 -190q-22 0 -34.5 12.5t-12.5 36.5t12.5 37t34.5 13t34 -13.5t12 -36.5q0 -22 -11.5 -35.5t-34.5 -13.5z
" />
    <glyph glyph-name="uniFB77" unicode="&#x683;" horiz-adv-x="604" arabic-form="final" 
d="M245 -324q-61 0 -106 22.5t-69.5 65t-24.5 101.5q0 33 9 62t27 54q27 40 74.5 72t115.5 60t157 54q-4 15 -9 35.5t-9 45.5q-9 58 -28.5 99t-51.5 63t-80 22q-44 0 -91.5 -15t-85.5 -37l-27 53q23 16 56 29t71.5 21.5t75.5 8.5q61 0 106 -23.5t74 -73.5t41 -129
q7 -41 15.5 -74t17.5 -54q15 -37 39.5 -57.5t61.5 -20.5h5q5 0 5 -4v-51q0 -5 -5 -5h-5q-36 0 -65 13.5t-51 39t-39 59.5q-73 -21 -133 -43.5t-98 -50.5q-54 -32 -79 -68.5t-25 -79.5q0 -66 37.5 -100t108.5 -34zM339 -215q-18 0 -32 11t-14 38t14 38.5t32 11.5
q21 0 33.5 -13t12.5 -37t-12 -36.5t-34 -12.5zM489 -215q-21 0 -33.5 12.5t-12.5 36.5t12.5 37t33.5 13q23 0 34.5 -14t11.5 -36t-11.5 -35.5t-34.5 -13.5z" />
    <glyph glyph-name="uniFB78" unicode="&#x683;" horiz-adv-x="569" arabic-form="initial" 
d="M-5 0q-5 0 -5 5v51q0 4 5 4h437q-22 26 -37.5 76.5t-28.5 123.5q-10 59 -24.5 97t-40 57t-69.5 19q-34 0 -69 -10.5t-75 -32.5l-27 53q42 27 83.5 38.5t88.5 11.5q32 0 57 -7t46 -20q37 -23 57.5 -66.5t33.5 -124.5q12 -66 23 -108.5t24 -67.5t30 -42v-57h-509zM166 -182
q-20 0 -33 11.5t-13 37.5q0 27 13 38.5t33 11.5t33 -12.5t13 -37.5q0 -24 -12.5 -36.5t-33.5 -12.5zM318 -182q-21 0 -33 12.5t-12 36.5q0 25 12 37.5t33 12.5q22 0 34.5 -13.5t12.5 -36.5t-12.5 -36t-34.5 -13z" />
    <glyph glyph-name="uniFB79" unicode="&#x683;" horiz-adv-x="563" arabic-form="medial" 
d="M-5 0q-5 0 -5 5v51q0 4 5 4h436q-14 17 -25.5 44t-21 65.5t-18.5 90.5q-7 43 -17 75.5t-24.5 54t-37.5 32.5t-55 11q-34 0 -68.5 -10.5t-74.5 -31.5l-28 52q42 27 83.5 38.5t88.5 11.5q32 0 57.5 -6.5t45.5 -20.5q25 -16 42 -40t28.5 -60t20.5 -91q10 -61 20.5 -102.5
t23.5 -69t30 -43.5h67q5 0 5 -4v-51q0 -5 -5 -5h-573zM166 -182q-20 0 -33 11.5t-13 37.5q0 27 13 38.5t33 11.5t33 -12.5t13 -37.5q0 -24 -12.5 -36.5t-33.5 -12.5zM318 -182q-21 0 -33 12.5t-12 36.5q0 25 12 37.5t33 12.5q22 0 34.5 -13.5t12.5 -36.5t-12.5 -36
t-34.5 -13z" />
    <glyph glyph-name="uniFB7B" unicode="&#x686;" horiz-adv-x="604" arabic-form="final" 
d="M245 -324q-61 0 -106 22.5t-69.5 65t-24.5 101.5q0 33 9 62t27 54q27 40 74.5 72t115.5 60t157 54q-4 15 -9 35.5t-9 45.5q-9 58 -28.5 99t-51.5 63t-80 22q-44 0 -91.5 -15t-85.5 -37l-27 53q23 16 56 29t71.5 21.5t75.5 8.5q61 0 106 -23.5t74 -73.5t41 -129
q7 -41 15.5 -74t17.5 -54q15 -37 39.5 -57.5t61.5 -20.5h5q5 0 5 -4v-51q0 -5 -5 -5h-5q-36 0 -65 13.5t-51 39t-39 59.5q-73 -21 -133 -43.5t-98 -50.5q-54 -32 -79 -68.5t-25 -79.5q0 -66 37.5 -100t108.5 -34zM415 -179q19 0 31.5 -11t12.5 -35q0 -23 -12.5 -34.5
t-31.5 -11.5q-18 0 -30.5 11t-12.5 35t12.5 35t30.5 11zM490 -61q20 0 33 -12t13 -37q0 -26 -13 -37.5t-33 -11.5q-23 0 -34.5 13t-11.5 36t12 36t34 13zM339 -61q22 0 34.5 -13t12.5 -36q0 -24 -12.5 -36.5t-34.5 -12.5q-21 0 -33.5 12.5t-12.5 36.5t12.5 36.5t33.5 12.5z
" />
    <glyph glyph-name="uniFB7C" unicode="&#x686;" horiz-adv-x="569" arabic-form="initial" 
d="M-5 0q-5 0 -5 5v51q0 4 5 4h437q-22 26 -37.5 76.5t-28.5 123.5q-10 59 -24.5 97t-40 57t-69.5 19q-34 0 -69 -10.5t-75 -32.5l-27 53q42 27 83.5 38.5t88.5 11.5q32 0 57 -7t46 -20q37 -23 57.5 -66.5t33.5 -124.5q12 -66 23 -108.5t24 -67.5t30 -42v-57h-509zM246 -366
q-19 0 -31 11t-12 35t12 35t31 11t31.5 -11.5t12.5 -34.5q0 -24 -12.5 -35t-31.5 -11zM171 -257q-20 0 -33 12t-13 38q0 25 13.5 37t32.5 12q22 0 34 -13.5t12 -35.5q0 -23 -11.5 -36.5t-34.5 -13.5zM321 -257q-21 0 -33.5 13t-12.5 37t12.5 36.5t33.5 12.5q22 0 34.5 -13.5
t12.5 -35.5q0 -23 -12 -36.5t-35 -13.5z" />
    <glyph glyph-name="uniFB7D" unicode="&#x686;" horiz-adv-x="563" arabic-form="medial" 
d="M-5 0q-5 0 -5 5v51q0 4 5 4h436q-14 17 -25.5 44t-21 65.5t-18.5 90.5q-7 43 -17 75.5t-24.5 54t-37.5 32.5t-55 11q-34 0 -68.5 -10.5t-74.5 -31.5l-28 52q42 27 83.5 38.5t88.5 11.5q32 0 57.5 -6.5t45.5 -20.5q25 -16 42 -40t28.5 -60t20.5 -91q10 -61 20.5 -102.5
t23.5 -69t30 -43.5h67q5 0 5 -4v-51q0 -5 -5 -5h-573zM246 -366q-19 0 -31 11t-12 35t12 35t31 11t31.5 -11.5t12.5 -34.5q0 -24 -12.5 -35t-31.5 -11zM171 -257q-20 0 -33 12t-13 38q0 25 13.5 37t32.5 12q22 0 34 -13.5t12 -35.5q0 -23 -11.5 -36.5t-34.5 -13.5zM321 -257
q-21 0 -33.5 13t-12.5 37t12.5 36.5t33.5 12.5q22 0 34.5 -13.5t12.5 -35.5q0 -23 -12 -36.5t-35 -13.5z" />
    <glyph glyph-name="uniFB7F" unicode="&#x687;" horiz-adv-x="604" arabic-form="final" 
d="M245 -324q-61 0 -106 22.5t-69.5 65t-24.5 101.5q0 33 9 62t27 54q27 40 74.5 72t115.5 60t157 54q-4 15 -9 35.5t-9 45.5q-9 58 -28.5 99t-51.5 63t-80 22q-44 0 -91.5 -15t-85.5 -37l-27 53q23 16 56 29t71.5 21.5t75.5 8.5q61 0 106 -23.5t74 -73.5t41 -129
q7 -41 15.5 -74t17.5 -54q15 -37 39.5 -57.5t61.5 -20.5h5q5 0 5 -4v-51q0 -5 -5 -5h-5q-36 0 -65 13.5t-51 39t-39 59.5q-73 -21 -133 -43.5t-98 -50.5q-54 -32 -79 -68.5t-25 -79.5q0 -66 37.5 -100t108.5 -34zM345 -284q-20 0 -31.5 12t-11.5 33q0 23 12.5 34t30.5 11
q16 0 29 -10t13 -35q0 -23 -12 -34t-30 -11zM483 -284q-18 0 -30 10.5t-12 34.5t12 34.5t30 10.5q20 0 31.5 -12.5t11.5 -32.5t-11.5 -32.5t-31.5 -12.5zM344 -137q-19 0 -30.5 12t-11.5 34q0 23 12.5 33.5t30.5 10.5q16 0 29 -10t13 -34t-12 -35t-31 -11zM483 -137
q-17 0 -29.5 10.5t-12.5 35.5q0 24 12.5 34t29.5 10q20 0 31.5 -12.5t11.5 -31.5q0 -21 -11.5 -33.5t-31.5 -12.5z" />
    <glyph glyph-name="uniFB80" unicode="&#x687;" horiz-adv-x="569" arabic-form="initial" 
d="M-5 0q-5 0 -5 5v51q0 4 5 4h437q-22 26 -37.5 76.5t-28.5 123.5q-10 59 -24.5 97t-40 57t-69.5 19q-34 0 -69 -10.5t-75 -32.5l-27 53q42 27 83.5 38.5t88.5 11.5q32 0 57 -7t46 -20q37 -23 57.5 -66.5t33.5 -124.5q12 -66 23 -108.5t24 -67.5t30 -42v-57h-509zM174 -363
q-20 0 -31.5 12t-11.5 33q0 23 12.5 34t30.5 11q16 0 29 -10t13 -35q0 -23 -12 -34t-30 -11zM312 -363q-18 0 -30 10.5t-12 34.5t12 34.5t30 10.5q20 0 31.5 -12.5t11.5 -32.5t-11.5 -32.5t-31.5 -12.5zM173 -216q-19 0 -30.5 12t-11.5 34q0 23 12.5 33.5t30.5 10.5
q16 0 29 -10t13 -34t-12 -35t-31 -11zM312 -216q-17 0 -29.5 10.5t-12.5 35.5q0 24 12.5 34t29.5 10q20 0 31.5 -12.5t11.5 -31.5q0 -21 -11.5 -33.5t-31.5 -12.5z" />
    <glyph glyph-name="uniFB81" unicode="&#x687;" horiz-adv-x="563" arabic-form="medial" 
d="M-5 0q-5 0 -5 5v51q0 4 5 4h436q-14 17 -25.5 44t-21 65.5t-18.5 90.5q-7 43 -17 75.5t-24.5 54t-37.5 32.5t-55 11q-34 0 -68.5 -10.5t-74.5 -31.5l-28 52q42 27 83.5 38.5t88.5 11.5q32 0 57.5 -6.5t45.5 -20.5q25 -16 42 -40t28.5 -60t20.5 -91q10 -61 20.5 -102.5
t23.5 -69t30 -43.5h67q5 0 5 -4v-51q0 -5 -5 -5h-573zM174 -363q-20 0 -31.5 12t-11.5 33q0 23 12.5 34t30.5 11q16 0 29 -10t13 -35q0 -23 -12 -34t-30 -11zM312 -363q-18 0 -30 10.5t-12 34.5t12 34.5t30 10.5q20 0 31.5 -12.5t11.5 -32.5t-11.5 -32.5t-31.5 -12.5z
M173 -216q-19 0 -30.5 12t-11.5 34q0 23 12.5 33.5t30.5 10.5q16 0 29 -10t13 -34t-12 -35t-31 -11zM312 -216q-17 0 -29.5 10.5t-12.5 35.5q0 24 12.5 34t29.5 10q20 0 31.5 -12.5t11.5 -31.5q0 -21 -11.5 -33.5t-31.5 -12.5z" />
    <glyph glyph-name="uniFB83" unicode="&#x68d;" horiz-adv-x="540" arabic-form="final" 
d="M45 60h332q-6 43 -15 84.5t-24 79.5q-29 79 -76 142.5t-116 111.5l25 58q74 -42 130 -111.5t91.5 -161.5t48.5 -203h104q5 0 5 -4v-51q0 -5 -5 -5h-500v60zM152 -162q-20 0 -33 11.5t-13 37.5q0 27 13 38.5t33 11.5t33 -12.5t13 -37.5q0 -24 -12.5 -36.5t-33.5 -12.5z
M304 -162q-21 0 -33 12.5t-12 36.5q0 25 12 37.5t33 12.5q22 0 34.5 -13.5t12.5 -36.5t-12.5 -36t-34.5 -13z" />
    <glyph glyph-name="uniFB85" unicode="&#x68c;" horiz-adv-x="540" arabic-form="final" 
d="M45 60h332q-6 43 -15 84.5t-24 79.5q-29 79 -76 142.5t-116 111.5l25 58q74 -42 130 -111.5t91.5 -161.5t48.5 -203h104q5 0 5 -4v-51q0 -5 -5 -5h-500v60zM104 632q-18 0 -32 11t-14 38t14 38.5t32 11.5q21 0 33.5 -13t12.5 -37t-12 -36.5t-34 -12.5zM254 632
q-21 0 -33.5 12.5t-12.5 36.5t12.5 37t33.5 13q23 0 34.5 -14t11.5 -36t-11.5 -35.5t-34.5 -13.5z" />
    <glyph glyph-name="uniFB87" unicode="&#x68e;" horiz-adv-x="540" arabic-form="final" 
d="M45 60h332q-6 43 -15 84.5t-24 79.5q-29 79 -76 142.5t-116 111.5l25 58q74 -42 130 -111.5t91.5 -161.5t48.5 -203h104q5 0 5 -4v-51q0 -5 -5 -5h-500v60zM180 727q-19 0 -31.5 11.5t-12.5 35.5q0 23 12 34t32 11q18 0 30.5 -11t12.5 -34q0 -25 -12.5 -36t-30.5 -11z
M105 609q-20 0 -33 12t-13 38q0 25 13 37t33 12q22 0 34 -13.5t12 -35.5q0 -23 -12 -36.5t-34 -13.5zM255 609q-21 0 -33.5 13t-12.5 37q0 23 12 36t34 13q23 0 34.5 -13.5t11.5 -35.5q0 -23 -12 -36.5t-34 -13.5z" />
    <glyph glyph-name="uniFB89" unicode="&#x688;" horiz-adv-x="540" arabic-form="final" 
d="M45 60h332q-6 43 -15 84.5t-24 79.5q-29 79 -76 142.5t-116 111.5l25 58q74 -42 130 -111.5t91.5 -161.5t48.5 -203h104q5 0 5 -4v-51q0 -5 -5 -5h-500v60zM80 671h16v177h33v-126q11 28 30 47.5t49 19.5q33 0 51 -20.5t18 -63.5v-69h-197v35zM244 671v27q0 29 -9.5 43
t-31.5 14t-41 -17.5t-34 -56.5v-10h116z" />
    <glyph glyph-name="uniFB8B" unicode="&#x698;" horiz-adv-x="335" arabic-form="final" 
d="M219 0v-34q0 -65 -18.5 -111.5t-54.5 -70.5t-90 -24q-24 0 -47 6.5t-47 18.5l22 52q19 -9 35.5 -13t35.5 -4q49 0 74.5 38t25.5 103v521h64v-422h121q5 0 5 -4v-51q0 -5 -5 -5h-121zM177 695q-19 0 -31.5 11.5t-12.5 35.5q0 23 12 34t32 11q18 0 30.5 -11t12.5 -34
q0 -25 -12.5 -36t-30.5 -11zM102 577q-20 0 -33 12t-13 38q0 25 13 37t33 12q22 0 34 -13.5t12 -35.5q0 -23 -12 -36.5t-34 -13.5zM252 577q-21 0 -33.5 13t-12.5 37q0 23 12 36t34 13q23 0 34.5 -13.5t11.5 -35.5q0 -23 -12 -36.5t-34 -13.5z" />
    <glyph glyph-name="uniFB8D" unicode="&#x691;" horiz-adv-x="335" arabic-form="final" 
d="M219 0v-34q0 -65 -18.5 -111.5t-54.5 -70.5t-90 -24q-24 0 -47 6.5t-47 18.5l22 52q19 -9 35.5 -13t35.5 -4q49 0 74.5 38t25.5 103v521h64v-422h121q5 0 5 -4v-51q0 -5 -5 -5h-121zM77 639h16v177h33v-126q11 28 30 47.5t49 19.5q33 0 51 -20.5t18 -63.5v-69h-197v35z
M241 639v27q0 29 -9.5 43t-31.5 14t-41 -17.5t-34 -56.5v-10h116z" />
    <glyph glyph-name="uni06A9.fina" unicode="&#x6a9;" horiz-adv-x="832" arabic-form="final" 
d="M236 0q-83 0 -127 43.5t-44 128.5q0 27 5 61.5t13 67.5h61q-7 -37 -10.5 -68t-3.5 -54q0 -57 26.5 -88t76.5 -31h409v199q0 80 -46.5 115t-142.5 35h-172v63q16 36 38 70.5t52 69.5q56 67 125 117.5t130 74.5l24 -58q-46 -19 -93 -49.5t-89 -69t-74 -79t-49 -79.5h108
q124 0 189 -49.5t65 -150.5v-209h130q5 0 5 -4v-51q0 -5 -5 -5h-601z" />
    <glyph glyph-name="uniFB90" unicode="&#x6a9;" horiz-adv-x="565" arabic-form="initial" 
d="M-5 0q-5 0 -5 5v51q0 4 5 4h430v199q0 80 -46.5 115t-142.5 35h-172v63q16 36 38 70.5t51 69.5q57 67 126 117.5t130 74.5l24 -58q-47 -19 -94 -50t-89 -69t-74 -78.5t-48 -79.5h108q124 0 189 -49.5t65 -150.5v-269h-495z" />
    <glyph glyph-name="uniFB91" unicode="&#x6a9;" horiz-adv-x="615" arabic-form="medial" 
d="M-5 0q-5 0 -5 5v51q0 4 5 4h430v199q0 80 -46.5 115t-142.5 35h-172v63q16 36 38 70.5t51 69.5q57 67 126 117.5t130 74.5l24 -58q-47 -19 -94 -50t-89 -69t-74 -78.5t-48 -79.5h108q124 0 189 -49.5t65 -150.5v-209h130q5 0 5 -4v-51q0 -5 -5 -5h-625z" />
    <glyph glyph-name="uniFB93" unicode="&#x6af;" horiz-adv-x="832" arabic-form="final" 
d="M236 0q-83 0 -127 43.5t-44 128.5q0 27 5 61.5t13 67.5h61q-7 -37 -10.5 -68t-3.5 -54q0 -57 26.5 -88t76.5 -31h409v199q0 80 -46.5 115t-142.5 35h-172v63q16 36 38 70.5t52 69.5q56 67 125 117.5t130 74.5l24 -58q-46 -19 -93 -49.5t-89 -69t-74 -79t-49 -79.5h108
q124 0 189 -49.5t65 -150.5v-209h130q5 0 5 -4v-51q0 -5 -5 -5h-601zM258 617q20 37 54.5 77.5t77.5 79.5t90.5 71t93.5 52l22 -52q-44 -17 -90 -47.5t-89.5 -69t-79.5 -79t-57 -78.5z" />
    <glyph glyph-name="uniFB94" unicode="&#x6af;" horiz-adv-x="565" arabic-form="initial" 
d="M-5 0q-5 0 -5 5v51q0 4 5 4h430v199q0 80 -46.5 115t-142.5 35h-172v63q16 36 38 70.5t51 69.5q57 67 126 117.5t130 74.5l24 -58q-47 -19 -94 -50t-89 -69t-74 -78.5t-48 -79.5h108q124 0 189 -49.5t65 -150.5v-269h-495zM41 617q20 37 54.5 77.5t77.5 79.5t90.5 71
t93.5 52l22 -52q-44 -17 -90 -47.5t-89.5 -69t-79.5 -79t-57 -78.5z" />
    <glyph glyph-name="uniFB95" unicode="&#x6af;" horiz-adv-x="615" arabic-form="medial" 
d="M-5 0q-5 0 -5 5v51q0 4 5 4h430v199q0 80 -46.5 115t-142.5 35h-172v63q16 36 38 70.5t51 69.5q57 67 126 117.5t130 74.5l24 -58q-47 -19 -94 -50t-89 -69t-74 -78.5t-48 -79.5h108q124 0 189 -49.5t65 -150.5v-209h130q5 0 5 -4v-51q0 -5 -5 -5h-625zM41 617
q20 37 54.5 77.5t77.5 79.5t90.5 71t93.5 52l22 -52q-44 -17 -90 -47.5t-89.5 -69t-79.5 -79t-57 -78.5z" />
    <glyph glyph-name="uniFB97" unicode="&#x6b3;" horiz-adv-x="832" arabic-form="final" 
d="M236 0q-83 0 -127 43.5t-44 128.5q0 27 5 61.5t13 67.5h61q-7 -37 -10.5 -68t-3.5 -54q0 -57 26.5 -88t76.5 -31h409v199q0 80 -46.5 115t-142.5 35h-172v63q16 36 38 70.5t52 69.5q56 67 125 117.5t130 74.5l24 -58q-46 -19 -93 -49.5t-89 -69t-74 -79t-49 -79.5h108
q124 0 189 -49.5t65 -150.5v-209h130q5 0 5 -4v-51q0 -5 -5 -5h-601zM258 617q20 37 54.5 77.5t77.5 79.5t90.5 71t93.5 52l22 -52q-44 -17 -90 -47.5t-89.5 -69t-79.5 -79t-57 -78.5zM389 -347q-22 0 -34.5 13t-12.5 37t12.5 36.5t34.5 12.5q21 0 33.5 -13t12.5 -36
t-11.5 -36.5t-34.5 -13.5zM389 -190q-22 0 -34.5 12.5t-12.5 36.5t12.5 37t34.5 13t34 -13.5t12 -36.5q0 -22 -11.5 -35.5t-34.5 -13.5z" />
    <glyph glyph-name="uniFB98" unicode="&#x6b3;" horiz-adv-x="565" arabic-form="initial" 
d="M-5 0q-5 0 -5 5v51q0 4 5 4h430v199q0 80 -46.5 115t-142.5 35h-172v63q16 36 38 70.5t51 69.5q57 67 126 117.5t130 74.5l24 -58q-47 -19 -94 -50t-89 -69t-74 -78.5t-48 -79.5h108q124 0 189 -49.5t65 -150.5v-269h-495zM41 617q20 37 54.5 77.5t77.5 79.5t90.5 71
t93.5 52l22 -52q-44 -17 -90 -47.5t-89.5 -69t-79.5 -79t-57 -78.5zM283 -347q-22 0 -34.5 13t-12.5 37t12.5 36.5t34.5 12.5q21 0 33.5 -13t12.5 -36t-11.5 -36.5t-34.5 -13.5zM283 -190q-22 0 -34.5 12.5t-12.5 36.5t12.5 37t34.5 13t34 -13.5t12 -36.5q0 -22 -11.5 -35.5
t-34.5 -13.5z" />
    <glyph glyph-name="uniFB99" unicode="&#x6b3;" horiz-adv-x="615" arabic-form="medial" 
d="M-5 0q-5 0 -5 5v51q0 4 5 4h430v199q0 80 -46.5 115t-142.5 35h-172v63q16 36 38 70.5t51 69.5q57 67 126 117.5t130 74.5l24 -58q-47 -19 -94 -50t-89 -69t-74 -78.5t-48 -79.5h108q124 0 189 -49.5t65 -150.5v-209h130q5 0 5 -4v-51q0 -5 -5 -5h-625zM41 617
q20 37 54.5 77.5t77.5 79.5t90.5 71t93.5 52l22 -52q-44 -17 -90 -47.5t-89.5 -69t-79.5 -79t-57 -78.5zM297 -347q-22 0 -34.5 13t-12.5 37t12.5 36.5t34.5 12.5q21 0 33.5 -13t12.5 -36t-11.5 -36.5t-34.5 -13.5zM297 -190q-22 0 -34.5 12.5t-12.5 36.5t12.5 37t34.5 13
t34 -13.5t12 -36.5q0 -22 -11.5 -35.5t-34.5 -13.5z" />
    <glyph glyph-name="uniFB9B" unicode="&#x6b1;" horiz-adv-x="832" arabic-form="final" 
d="M236 0q-83 0 -127 43.5t-44 128.5q0 27 5 61.5t13 67.5h61q-7 -37 -10.5 -68t-3.5 -54q0 -57 26.5 -88t76.5 -31h409v199q0 80 -46.5 115t-142.5 35h-172v63q16 36 38 70.5t52 69.5q56 67 125 117.5t130 74.5l24 -58q-46 -19 -93 -49.5t-89 -69t-74 -79t-49 -79.5h108
q124 0 189 -49.5t65 -150.5v-209h130q5 0 5 -4v-51q0 -5 -5 -5h-601zM258 617q20 37 54.5 77.5t77.5 79.5t90.5 71t93.5 52l22 -52q-44 -17 -90 -47.5t-89.5 -69t-79.5 -79t-57 -78.5zM261 739q-10 0 -18.5 4.5t-13 13.5t-4.5 20q0 18 10.5 27.5t25.5 9.5q10 0 17.5 -5
t12.5 -13t5 -20q0 -17 -10.5 -27t-24.5 -10zM358 820q-9 0 -17.5 5t-13.5 14t-5 20q0 17 11 27t25 10t24.5 -10.5t10.5 -28.5q0 -19 -11 -28t-24 -9z" />
    <glyph glyph-name="uniFB9C" unicode="&#x6b1;" horiz-adv-x="565" arabic-form="initial" 
d="M-5 0q-5 0 -5 5v51q0 4 5 4h430v199q0 80 -46.5 115t-142.5 35h-172v63q16 36 38 70.5t51 69.5q57 67 126 117.5t130 74.5l24 -58q-47 -19 -94 -50t-89 -69t-74 -78.5t-48 -79.5h108q124 0 189 -49.5t65 -150.5v-269h-495zM41 617q20 37 54.5 77.5t77.5 79.5t90.5 71
t93.5 52l22 -52q-44 -17 -90 -47.5t-89.5 -69t-79.5 -79t-57 -78.5zM44 739q-10 0 -18.5 4.5t-13 13.5t-4.5 20q0 18 10.5 27.5t25.5 9.5q10 0 17.5 -5t12.5 -13t5 -20q0 -17 -10.5 -27t-24.5 -10zM141 820q-9 0 -17.5 5t-13.5 14t-5 20q0 17 11 27t25 10t24.5 -10.5
t10.5 -28.5q0 -19 -11 -28t-24 -9z" />
    <glyph glyph-name="uniFB9D" unicode="&#x6b1;" horiz-adv-x="615" arabic-form="medial" 
d="M-5 0q-5 0 -5 5v51q0 4 5 4h430v199q0 80 -46.5 115t-142.5 35h-172v63q16 36 38 70.5t51 69.5q57 67 126 117.5t130 74.5l24 -58q-47 -19 -94 -50t-89 -69t-74 -78.5t-48 -79.5h108q124 0 189 -49.5t65 -150.5v-209h130q5 0 5 -4v-51q0 -5 -5 -5h-625zM41 617
q20 37 54.5 77.5t77.5 79.5t90.5 71t93.5 52l22 -52q-44 -17 -90 -47.5t-89.5 -69t-79.5 -79t-57 -78.5zM44 739q-10 0 -18.5 4.5t-13 13.5t-4.5 20q0 18 10.5 27.5t25.5 9.5q10 0 17.5 -5t12.5 -13t5 -20q0 -17 -10.5 -27t-24.5 -10zM141 820q-9 0 -17.5 5t-13.5 14t-5 20
q0 17 11 27t25 10t24.5 -10.5t10.5 -28.5q0 -19 -11 -28t-24 -9z" />
    <glyph glyph-name="uni06BA.fina" unicode="&#x6ba;" horiz-adv-x="656" arabic-form="final" 
d="M557 0q0 -122 -55.5 -181t-175.5 -59h-72q-34 0 -62.5 9.5t-50.5 27.5q-37 30 -56.5 82t-19.5 124q0 54 10 107.5t29 98.5h63q-16 -39 -25 -89.5t-9 -109.5q0 -93 33 -141.5t102 -48.5h55q59 0 96 18t55.5 57.5t18.5 103.5v483h64v-422h104q5 0 5 -4v-51q0 -5 -5 -5h-104
z" />
    <glyph glyph-name="uniFBA1" unicode="&#x6bb;" horiz-adv-x="656" arabic-form="final" 
d="M557 0q0 -122 -55.5 -181t-175.5 -59h-72q-34 0 -62.5 9.5t-50.5 27.5q-37 30 -56.5 82t-19.5 124q0 54 10 107.5t29 98.5h63q-16 -39 -25 -89.5t-9 -109.5q0 -93 33 -141.5t102 -48.5h55q59 0 96 18t55.5 57.5t18.5 103.5v483h64v-422h104q5 0 5 -4v-51q0 -5 -5 -5h-104
zM205 486h16v177h33v-126q11 28 30 47.5t49 19.5q33 0 51 -20.5t18 -63.5v-69h-197v35zM369 486v27q0 29 -9.5 43t-31.5 14t-41 -17.5t-34 -56.5v-10h116z" />
    <glyph glyph-name="uniFBA5" unicode="&#x6c0;" horiz-adv-x="580" arabic-form="final" 
d="M306 0q-75 0 -129.5 27t-83 78t-28.5 121q0 79 32 136t92 88.5t144 31.5h78v67h64v-489h110q5 0 5 -4v-51q0 -5 -5 -5h-279zM410 60v362h-75q-97 0 -150 -51.5t-53 -142.5q0 -81 45 -124.5t128 -43.5h105zM181 643l47 8q-18 11 -26.5 27t-8.5 35q0 41 27.5 65t72.5 24
q35 0 60 -14l-13 -37q-9 5 -21 8.5t-27 3.5q-23 0 -40.5 -14t-17.5 -42q0 -18 10 -31t24 -19q18 3 38 5.5t37 5t25 2.5v-40q-19 -1 -40.5 -3.5t-45 -5.5t-49 -7t-52.5 -8v37z" />
    <glyph glyph-name="uni06C1.fina" unicode="&#x6c1;" horiz-adv-x="604" arabic-form="final" 
d="M53 0q20 41 38.5 75.5t36.5 63t34 49.5q48 64 107 103.5t130 60.5h70v-292h140q5 0 5 -4v-51q0 -5 -5 -5h-207v288q-33 -12 -61.5 -26t-50.5 -32q-28 -23 -53 -52t-50 -71.5t-55 -106.5h-79z" />
    <glyph glyph-name="uni06C1.init" unicode="&#x6c1;" horiz-adv-x="298" arabic-form="initial" 
d="M129 -195q-40 0 -65.5 23.5t-25.5 58.5q0 16 4.5 32t17.5 36t37 45h-102q-5 0 -5 5v51q0 4 5 4h136v422h67v-482h-41q-58 -63 -58 -96q0 -15 10.5 -27t33.5 -12h67v-60h-81z" />
    <glyph glyph-name="uni06C1.medi" unicode="&#x6c1;" horiz-adv-x="551" arabic-form="medial" 
d="M556 60q5 0 5 -4v-51q0 -5 -5 -5h-136v-256h-69q-96 0 -158.5 65t-81.5 191h-116q-5 0 -5 5v51q0 4 5 4h167q3 -39 11.5 -74.5t21.5 -67.5q25 -55 65.5 -84.5t92.5 -29.5v256h203z" />
    <glyph glyph-name="uni06BE.fina" unicode="&#x6be;" horiz-adv-x="819" arabic-form="final" 
d="M181 60q-36 21 -57 61.5t-21 91.5q0 59 24.5 102.5t68 67.5t98.5 24q61 0 101.5 -24t61.5 -71t21 -119v-133h128v200q0 143 -62.5 208.5t-195.5 65.5q-39 0 -82 -6.5t-84 -18.5l-19 59q27 9 57 14.5t62 9t66 3.5q158 0 240 -84.5t82 -243.5v-207h154q5 0 5 -4v-51
q0 -5 -5 -5h-759v60h116zM414 60v119q0 85 -31 123t-94 38q-56 0 -87 -34t-31 -96q0 -44 18 -78t50 -53t74 -19h101z" />
    <glyph glyph-name="uniFBAC" unicode="&#x6be;" horiz-adv-x="739" arabic-form="initial" 
d="M161 60q-36 21 -57 61.5t-21 91.5q0 59 24.5 102t68 67.5t98.5 24.5q61 0 101.5 -24t61.5 -71t21 -119v-133h128v200q0 142 -62.5 208t-195.5 66q-40 0 -82.5 -6.5t-83.5 -18.5l-19 59q27 9 57 14.5t62 9t66 3.5q159 0 240.5 -85t81.5 -243v-267h-655q-5 0 -5 5v51
q0 4 5 4h166zM293 60h101v119q0 85 -31 123t-94 38q-56 0 -87 -34t-31 -96q0 -44 18 -78t50 -53t74 -19z" />
    <glyph glyph-name="uni06BE.medi" unicode="&#x6be;" horiz-adv-x="777" arabic-form="medial" 
d="M161 60q-36 21 -57 61.5t-21 91.5q0 59 24.5 102t68 67.5t98.5 24.5q61 0 101.5 -24t61.5 -71t21 -119v-133h128v200q0 142 -62.5 208t-195.5 66q-40 0 -82.5 -6.5t-83.5 -18.5l-19 59q27 9 57 14.5t62 9t66 3.5q159 0 240.5 -85t81.5 -243v-207h132q5 0 5 -4v-51
q0 -5 -5 -5h-787q-5 0 -5 5v51q0 4 5 4h166zM293 60h101v119q0 85 -31 123t-94 38q-56 0 -87 -34t-31 -96q0 -44 18 -78t50 -53t74 -19z" />
    <glyph glyph-name="uni06D2.fina" unicode="&#x6d2;" horiz-adv-x="377" arabic-form="final" 
d="M385 60q5 0 5 -4v-51q0 -5 -5 -5h-142q-61 0 -96 -22.5t-35 -54.5q0 -26 18.5 -40t55.5 -14h465v-60h-463q-46 0 -78.5 13t-48.5 38.5t-16 62.5q0 39 27 70q27 32 75.5 49.5t104.5 17.5h133z" />
    <glyph glyph-name="uniFBB1" unicode="&#x6d3;" horiz-adv-x="377" arabic-form="final" 
d="M385 60q5 0 5 -4v-51q0 -5 -5 -5h-142q-61 0 -96 -22.5t-35 -54.5q0 -26 18.5 -40t55.5 -14h465v-60h-463q-46 0 -78.5 13t-48.5 38.5t-16 62.5q0 39 27 70q27 32 75.5 49.5t104.5 17.5h133zM122 208l47 8q-18 11 -26.5 27t-8.5 35q0 41 27.5 65t72.5 24q35 0 60 -14
l-13 -37q-9 5 -21 8.5t-27 3.5q-23 0 -40.5 -14t-17.5 -42q0 -18 10 -31t24 -19q18 3 38 5.5t37 5t25 2.5v-40q-19 -1 -40.5 -3.5t-45 -5.5t-49 -7t-52.5 -8v37z" />
    <glyph glyph-name="uniFBD4" unicode="&#x6ad;" horiz-adv-x="792" arabic-form="final" 
d="M248 0q-91 0 -137 44t-46 128q0 22 2 42.5t7.5 42t13.5 44.5h57q-7 -34 -11 -63.5t-4 -59.5q0 -55 28 -86.5t86 -31.5h355v700h64v-700h134q5 0 5 -4v-51q0 -5 -5 -5h-549zM299 318v36h143v7q0 15 -8 21t-29 6h-88v29q13 32 43.5 59.5t60.5 36.5l14 -34q-20 -7 -40 -22.5
t-33 -31.5h43q35 0 54.5 -15.5t19.5 -46.5v-45h-180zM389 675q-15 0 -24.5 8.5t-9.5 27.5q0 18 9.5 27t24.5 9t24.5 -9t9.5 -27q0 -19 -9.5 -27.5t-24.5 -8.5zM330 570q-15 0 -25.5 10t-10.5 29q0 20 10 29.5t26 9.5q17 0 26.5 -10.5t9.5 -28.5q0 -17 -9.5 -28t-26.5 -11z
M449 570q-17 0 -26.5 10.5t-9.5 28.5t9.5 28.5t26.5 10.5q18 0 27 -10.5t9 -28.5q0 -17 -9 -28t-27 -11z" />
    <glyph glyph-name="uniFBD5" unicode="&#x6ad;" horiz-adv-x="565" arabic-form="initial" 
d="M-5 0q-5 0 -5 5v51q0 4 5 4h430v199q0 80 -46.5 115t-142.5 35h-172v63q16 36 38 70.5t51 69.5q57 67 126 117.5t130 74.5l24 -58q-47 -19 -94 -50t-89 -69t-74 -78.5t-48 -79.5h108q124 0 189 -49.5t65 -150.5v-269h-495zM49 657q-10 0 -18.5 4.5t-13 13.5t-4.5 20
q0 18 10.5 27.5t25.5 9.5q10 0 17.5 -5t12.5 -13t5 -20q0 -17 -10.5 -27t-24.5 -10zM32 782q-16 0 -26 10.5t-10 27.5q0 18 11 27.5t25 9.5q10 0 17.5 -4.5t12.5 -13t5 -21.5q0 -18 -10.5 -27t-24.5 -9zM146 738q-9 0 -17.5 5t-13.5 14t-5 20q0 17 11 27t25 10t24.5 -10.5
t10.5 -28.5q0 -19 -11 -28t-24 -9z" />
    <glyph glyph-name="uniFBD6" unicode="&#x6ad;" horiz-adv-x="615" arabic-form="medial" 
d="M-5 0q-5 0 -5 5v51q0 4 5 4h430v199q0 80 -46.5 115t-142.5 35h-172v63q16 36 38 70.5t51 69.5q57 67 126 117.5t130 74.5l24 -58q-47 -19 -94 -50t-89 -69t-74 -78.5t-48 -79.5h108q124 0 189 -49.5t65 -150.5v-209h130q5 0 5 -4v-51q0 -5 -5 -5h-625zM49 657
q-10 0 -18.5 4.5t-13 13.5t-4.5 20q0 18 10.5 27.5t25.5 9.5q10 0 17.5 -5t12.5 -13t5 -20q0 -17 -10.5 -27t-24.5 -10zM32 782q-16 0 -26 10.5t-10 27.5q0 18 11 27.5t25 9.5q10 0 17.5 -4.5t12.5 -13t5 -21.5q0 -18 -10.5 -27t-24.5 -9zM146 738q-9 0 -17.5 5t-13.5 14
t-5 20q0 17 11 27t25 10t24.5 -10.5t10.5 -28.5q0 -19 -11 -28t-24 -9z" />
    <glyph glyph-name="uniFBD8" unicode="&#x6c7;" horiz-adv-x="540" arabic-form="final" 
d="M545 60q5 0 5 -4v-51q0 -5 -5 -5h-181q-5 0 -5 5v51q0 4 5 4h181zM234 -240q-50 0 -92 14t-77 38l31 51q33 -20 66.5 -31.5t75.5 -11.5q71 0 111.5 39.5t40.5 104.5v36h-99q-105 0 -162.5 58t-57.5 168q0 77 31.5 134.5t91 89.5t142.5 32h118v-513q0 -98 -57.5 -153.5
t-162.5 -55.5zM389 60v362h-52q-92 0 -145.5 -51t-53.5 -145q0 -84 38.5 -125t117.5 -41h95zM203 560l-20 30q23 13 42.5 26t33.5 25t19 20q-33 12 -54.5 34t-21.5 47q0 29 22 50t54 21q29 0 46 -23t17 -57q0 -32 -12 -58t-32 -47.5t-44.5 -38.5t-49.5 -29z" />
    <glyph glyph-name="uniFBDA" unicode="&#x6c6;" horiz-adv-x="540" arabic-form="final" 
d="M545 60q5 0 5 -4v-51q0 -5 -5 -5h-181q-5 0 -5 5v51q0 4 5 4h181zM234 -240q-50 0 -92 14t-77 38l31 51q33 -20 66.5 -31.5t75.5 -11.5q71 0 111.5 39.5t40.5 104.5v36h-99q-105 0 -162.5 58t-57.5 168q0 77 31.5 134.5t91 89.5t142.5 32h118v-513q0 -98 -57.5 -153.5
t-162.5 -55.5zM389 60v362h-52q-92 0 -145.5 -51t-53.5 -145q0 -84 38.5 -125t117.5 -41h95zM397 771l-110 -192h-49l-111 192h61l74 -138l74 138h61z" />
    <glyph glyph-name="uniFBDC" unicode="&#x6c8;" horiz-adv-x="540" arabic-form="final" 
d="M545 60q5 0 5 -4v-51q0 -5 -5 -5h-181q-5 0 -5 5v51q0 4 5 4h181zM234 -240q-50 0 -92 14t-77 38l31 51q33 -20 66.5 -31.5t75.5 -11.5q71 0 111.5 39.5t40.5 104.5v36h-99q-105 0 -162.5 58t-57.5 168q0 77 31.5 134.5t91 89.5t142.5 32h118v-513q0 -98 -57.5 -153.5
t-162.5 -55.5zM389 60v362h-52q-92 0 -145.5 -51t-53.5 -145q0 -84 38.5 -125t117.5 -41h95zM239 763h45v-194h-45v194z" />
    <glyph glyph-name="uniFBDF" unicode="&#x6cb;" horiz-adv-x="540" arabic-form="final" 
d="M545 60q5 0 5 -4v-51q0 -5 -5 -5h-181q-5 0 -5 5v51q0 4 5 4h181zM234 -240q-50 0 -92 14t-77 38l31 51q33 -20 66.5 -31.5t75.5 -11.5q71 0 111.5 39.5t40.5 104.5v36h-99q-105 0 -162.5 58t-57.5 168q0 77 31.5 134.5t91 89.5t142.5 32h118v-513q0 -98 -57.5 -153.5
t-162.5 -55.5zM389 60v362h-52q-92 0 -145.5 -51t-53.5 -145q0 -84 38.5 -125t117.5 -41h95zM262 705q-19 0 -31.5 11.5t-12.5 35.5q0 23 12 34t32 11q18 0 30.5 -11t12.5 -34q0 -25 -12.5 -36t-30.5 -11zM187 587q-20 0 -33 12t-13 38q0 25 13 37t33 12q22 0 34 -13.5
t12 -35.5q0 -23 -12 -36.5t-34 -13.5zM337 587q-21 0 -33.5 13t-12.5 37q0 23 12 36t34 13q23 0 34.5 -13.5t11.5 -35.5q0 -23 -12 -36.5t-34 -13.5z" />
    <glyph glyph-name="uni06C5.fina" unicode="&#x6c5;" horiz-adv-x="540" arabic-form="final" 
d="M545 60q5 0 5 -4v-51q0 -5 -5 -5h-181q-5 0 -5 5v51q0 4 5 4h181zM391 60v362h-54q-92 0 -144.5 -51t-52.5 -145q0 -84 38 -125t114 -41h99zM262 -262q34 26 63.5 57.5t48 67.5t18.5 78v59h-98q-106 0 -164 58t-58 168q0 77 32 134.5t92 89.5t145 32h115v-532
q0 -47 -15.5 -89.5t-48.5 -84t-88 -87.5zM382 -149l-47 17q-29 12 -46.5 16.5t-32.5 4.5q-10 0 -23.5 -3.5t-31.5 -13.5l-20 29q23 20 39.5 27.5t35.5 7.5q14 0 30 -4t36 -12q26 -9 44 -15t27 -8z" />
    <glyph glyph-name="uniFBE3" unicode="&#x6c9;" horiz-adv-x="540" arabic-form="final" 
d="M545 60q5 0 5 -4v-51q0 -5 -5 -5h-181q-5 0 -5 5v51q0 4 5 4h181zM234 -240q-50 0 -92 14t-77 38l31 51q33 -20 66.5 -31.5t75.5 -11.5q71 0 111.5 39.5t40.5 104.5v36h-99q-105 0 -162.5 58t-57.5 168q0 77 31.5 134.5t91 89.5t142.5 32h118v-513q0 -98 -57.5 -153.5
t-162.5 -55.5zM389 60v362h-52q-92 0 -145.5 -51t-53.5 -145q0 -84 38.5 -125t117.5 -41h95zM131 579l114 192h35l114 -192h-54l-77 138l-78 -138h-54z" />
    <glyph glyph-name="uniFBE5" unicode="&#x6d0;" horiz-adv-x="950" arabic-form="final" 
d="M273 -240q-68 0 -115 27.5t-70 81.5t-23 132q0 53 9.5 96t24.5 84h62q-14 -40 -21 -81.5t-7 -93.5q0 -62 16 -103.5t49 -62t85 -20.5h178q57 0 96.5 15.5t60 40t20.5 49.5q0 26 -21.5 41t-66.5 27q-47 14 -82.5 27.5t-55.5 37t-20 63.5q0 29 9 56t24 51q22 36 53 62
t67 41t72 15q19 0 36.5 -4t31.5 -12q27 -15 48 -40.5t48 -74.5q26 -46 48.5 -78.5t47.5 -50.5q18 -14 35.5 -20t37.5 -6h5q5 0 5 -4v-51q0 -5 -5 -5h-5q-25 0 -49 7t-47 22t-48 38q-15 14 -30 36.5t-33 52.5q-21 35 -38 59t-34 39q-14 12 -30 18t-32 6q-27 0 -53 -14
t-48 -36.5t-35 -48.5t-13 -50q0 -18 12.5 -30.5t32 -20.5t39.5 -14q33 -9 56.5 -17t41.5 -15q32 -15 49 -36t17 -49q0 -89 -62.5 -138t-184.5 -49h-188zM392 -591q-22 0 -34.5 13t-12.5 37t12.5 36.5t34.5 12.5q21 0 33.5 -13t12.5 -36t-11.5 -36.5t-34.5 -13.5zM392 -434
q-22 0 -34.5 12.5t-12.5 36.5t12.5 37t34.5 13t34 -13.5t12 -36.5q0 -22 -11.5 -35.5t-34.5 -13.5z" />
    <glyph glyph-name="uniFBE6" unicode="&#x6d0;" horiz-adv-x="367" arabic-form="initial" 
d="M-5 0q-5 0 -5 5v51q0 4 5 4h203v422h67v-482h-270zM178 -341q-22 0 -34.5 13t-12.5 37t12.5 36.5t34.5 12.5q21 0 33.5 -13t12.5 -36t-11.5 -36.5t-34.5 -13.5zM178 -184q-22 0 -34.5 12.5t-12.5 36.5t12.5 37t34.5 13t34 -13.5t12 -36.5q0 -22 -11.5 -35.5t-34.5 -13.5z
" />
    <glyph glyph-name="uniFBE7" unicode="&#x6d0;" horiz-adv-x="373" arabic-form="medial" 
d="M-5 0q-5 0 -5 5v51q0 4 5 4h165v422h68v-422h150q5 0 5 -4v-51q0 -5 -5 -5h-383zM190 -341q-22 0 -34.5 13t-12.5 37t12.5 36.5t34.5 12.5q21 0 33.5 -13t12.5 -36t-11.5 -36.5t-34.5 -13.5zM190 -184q-22 0 -34.5 12.5t-12.5 36.5t12.5 37t34.5 13t34 -13.5t12 -36.5
q0 -22 -11.5 -35.5t-34.5 -13.5z" />
    <glyph glyph-name="uniFBE8" unicode="&#x649;" horiz-adv-x="283" arabic-form="initial" 
d="M-5 0q-5 0 -5 5v51q0 4 5 4h136v422h67v-482h-203z" />
    <glyph glyph-name="uniFBE9" unicode="&#x649;" horiz-adv-x="317" arabic-form="medial" 
d="M-5 0q-5 0 -5 5v51q0 4 5 4h132v422h67v-422h128q5 0 5 -4v-51q0 -5 -5 -5h-327z" />
    <glyph glyph-name="uniFBEA" unicode="&#xfbea;" horiz-adv-x="582" arabic-form="isolated" 
d="M293 0q-5 0 -5 5v51q0 4 5 4h136v422h67v-482h-203zM335 576l47 8q-18 11 -26.5 27t-8.5 35q0 41 27.5 65t72.5 24q35 0 60 -14l-13 -37q-9 5 -21 8.5t-27 3.5q-23 0 -40.5 -14t-17.5 -42q0 -18 10 -31t24 -19q18 3 38 5.5t37 5t25 2.5v-40q-19 -1 -40.5 -3.5t-45 -5.5
t-49 -7t-52.5 -8v37zM303 60q5 0 5 -4v-51q0 -5 -5 -5h-203v760h67v-700h136z" />
    <glyph glyph-name="uniFBEB" unicode="&#xfbeb;" horiz-adv-x="615" arabic-form="final" 
d="M293 0q-5 0 -5 5v51q0 4 5 4h132v422h67v-422h128q5 0 5 -4v-51q0 -5 -5 -5h-327zM332 596l47 8q-18 11 -26.5 27t-8.5 35q0 41 27.5 65t72.5 24q35 0 60 -14l-13 -37q-9 5 -21 8.5t-27 3.5q-23 0 -40.5 -14t-17.5 -42q0 -18 10 -31t24 -19q18 3 38 5.5t37 5t25 2.5v-40
q-19 -1 -40.5 -3.5t-45 -5.5t-49 -7t-52.5 -8v37zM303 60q5 0 5 -4v-51q0 -5 -5 -5h-203v760h67v-700h136z" />
    <glyph glyph-name="uniFBEC" unicode="&#xfbec;" horiz-adv-x="888" arabic-form="isolated" 
d="M599 0q-5 0 -5 5v51q0 4 5 4h136v422h67v-482h-203zM641 576l47 8q-18 11 -26.5 27t-8.5 35q0 41 27.5 65t72.5 24q35 0 60 -14l-13 -37q-9 5 -21 8.5t-27 3.5q-23 0 -40.5 -14t-17.5 -42q0 -18 10 -31t24 -19q18 3 38 5.5t37 5t25 2.5v-40q-19 -1 -40.5 -3.5t-45 -5.5
t-49 -7t-52.5 -8v37zM53 0q20 41 38.5 75.5t36.5 63t34 49.5q48 64 107 103.5t130 60.5h70v-292h140q5 0 5 -4v-51q0 -5 -5 -5h-207v288q-33 -12 -61.5 -26t-50.5 -32q-28 -23 -53 -52t-50 -71.5t-55 -106.5h-79z" />
    <glyph glyph-name="uniFBED" unicode="&#xfbed;" horiz-adv-x="921" arabic-form="final" 
d="M599 0q-5 0 -5 5v51q0 4 5 4h132v422h67v-422h128q5 0 5 -4v-51q0 -5 -5 -5h-327zM638 596l47 8q-18 11 -26.5 27t-8.5 35q0 41 27.5 65t72.5 24q35 0 60 -14l-13 -37q-9 5 -21 8.5t-27 3.5q-23 0 -40.5 -14t-17.5 -42q0 -18 10 -31t24 -19q18 3 38 5.5t37 5t25 2.5v-40
q-19 -1 -40.5 -3.5t-45 -5.5t-49 -7t-52.5 -8v37zM53 0q20 41 38.5 75.5t36.5 63t34 49.5q48 64 107 103.5t130 60.5h70v-292h140q5 0 5 -4v-51q0 -5 -5 -5h-207v288q-33 -12 -61.5 -26t-50.5 -32q-28 -23 -53 -52t-50 -71.5t-55 -106.5h-79z" />
    <glyph glyph-name="uniFBEE" unicode="&#xfbee;" horiz-adv-x="823" arabic-form="isolated" 
d="M535 0q-5 0 -5 5v51q0 4 5 4h136v422h67v-482h-203zM577 576l47 8q-18 11 -26.5 27t-8.5 35q0 41 27.5 65t72.5 24q35 0 60 -14l-13 -37q-9 5 -21 8.5t-27 3.5q-23 0 -40.5 -14t-17.5 -42q0 -18 10 -31t24 -19q18 3 38 5.5t37 5t25 2.5v-40q-19 -1 -40.5 -3.5t-45 -5.5
t-49 -7t-52.5 -8v37zM545 60q5 0 5 -4v-51q0 -5 -5 -5h-181q-5 0 -5 5v51q0 4 5 4h181zM234 -240q-50 0 -92 14t-77 38l31 51q33 -20 66.5 -31.5t75.5 -11.5q71 0 111.5 39.5t40.5 104.5v36h-99q-105 0 -162.5 58t-57.5 168q0 77 31.5 134.5t91 89.5t142.5 32h118v-513
q0 -98 -57.5 -153.5t-162.5 -55.5zM389 60v362h-52q-92 0 -145.5 -51t-53.5 -145q0 -84 38.5 -125t117.5 -41h95z" />
    <glyph glyph-name="uniFBEF" unicode="&#xfbef;" horiz-adv-x="857" arabic-form="final" 
d="M535 0q-5 0 -5 5v51q0 4 5 4h132v422h67v-422h128q5 0 5 -4v-51q0 -5 -5 -5h-327zM574 596l47 8q-18 11 -26.5 27t-8.5 35q0 41 27.5 65t72.5 24q35 0 60 -14l-13 -37q-9 5 -21 8.5t-27 3.5q-23 0 -40.5 -14t-17.5 -42q0 -18 10 -31t24 -19q18 3 38 5.5t37 5t25 2.5v-40
q-19 -1 -40.5 -3.5t-45 -5.5t-49 -7t-52.5 -8v37zM545 60q5 0 5 -4v-51q0 -5 -5 -5h-181q-5 0 -5 5v51q0 4 5 4h181zM234 -240q-50 0 -92 14t-77 38l31 51q33 -20 66.5 -31.5t75.5 -11.5q71 0 111.5 39.5t40.5 104.5v36h-99q-105 0 -162.5 58t-57.5 168q0 77 31.5 134.5
t91 89.5t142.5 32h118v-513q0 -98 -57.5 -153.5t-162.5 -55.5zM389 60v362h-52q-92 0 -145.5 -51t-53.5 -145q0 -84 38.5 -125t117.5 -41h95z" />
    <glyph glyph-name="uniFBF0" unicode="&#xfbf0;" horiz-adv-x="823" arabic-form="isolated" 
d="M535 0q-5 0 -5 5v51q0 4 5 4h136v422h67v-482h-203zM577 576l47 8q-18 11 -26.5 27t-8.5 35q0 41 27.5 65t72.5 24q35 0 60 -14l-13 -37q-9 5 -21 8.5t-27 3.5q-23 0 -40.5 -14t-17.5 -42q0 -18 10 -31t24 -19q18 3 38 5.5t37 5t25 2.5v-40q-19 -1 -40.5 -3.5t-45 -5.5
t-49 -7t-52.5 -8v37zM545 60q5 0 5 -4v-51q0 -5 -5 -5h-181q-5 0 -5 5v51q0 4 5 4h181zM234 -240q-50 0 -92 14t-77 38l31 51q33 -20 66.5 -31.5t75.5 -11.5q71 0 111.5 39.5t40.5 104.5v36h-99q-105 0 -162.5 58t-57.5 168q0 77 31.5 134.5t91 89.5t142.5 32h118v-513
q0 -98 -57.5 -153.5t-162.5 -55.5zM389 60v362h-52q-92 0 -145.5 -51t-53.5 -145q0 -84 38.5 -125t117.5 -41h95zM203 560l-20 30q23 13 42.5 26t33.5 25t19 20q-33 12 -54.5 34t-21.5 47q0 29 22 50t54 21q29 0 46 -23t17 -57q0 -32 -12 -58t-32 -47.5t-44.5 -38.5
t-49.5 -29z" />
    <glyph glyph-name="uniFBF1" unicode="&#xfbf1;" horiz-adv-x="857" arabic-form="final" 
d="M535 0q-5 0 -5 5v51q0 4 5 4h132v422h67v-422h128q5 0 5 -4v-51q0 -5 -5 -5h-327zM574 596l47 8q-18 11 -26.5 27t-8.5 35q0 41 27.5 65t72.5 24q35 0 60 -14l-13 -37q-9 5 -21 8.5t-27 3.5q-23 0 -40.5 -14t-17.5 -42q0 -18 10 -31t24 -19q18 3 38 5.5t37 5t25 2.5v-40
q-19 -1 -40.5 -3.5t-45 -5.5t-49 -7t-52.5 -8v37zM545 60q5 0 5 -4v-51q0 -5 -5 -5h-181q-5 0 -5 5v51q0 4 5 4h181zM234 -240q-50 0 -92 14t-77 38l31 51q33 -20 66.5 -31.5t75.5 -11.5q71 0 111.5 39.5t40.5 104.5v36h-99q-105 0 -162.5 58t-57.5 168q0 77 31.5 134.5
t91 89.5t142.5 32h118v-513q0 -98 -57.5 -153.5t-162.5 -55.5zM389 60v362h-52q-92 0 -145.5 -51t-53.5 -145q0 -84 38.5 -125t117.5 -41h95zM203 560l-20 30q23 13 42.5 26t33.5 25t19 20q-33 12 -54.5 34t-21.5 47q0 29 22 50t54 21q29 0 46 -23t17 -57q0 -32 -12 -58
t-32 -47.5t-44.5 -38.5t-49.5 -29z" />
    <glyph glyph-name="uniFBF2" unicode="&#xfbf2;" horiz-adv-x="823" arabic-form="isolated" 
d="M535 0q-5 0 -5 5v51q0 4 5 4h136v422h67v-482h-203zM577 576l47 8q-18 11 -26.5 27t-8.5 35q0 41 27.5 65t72.5 24q35 0 60 -14l-13 -37q-9 5 -21 8.5t-27 3.5q-23 0 -40.5 -14t-17.5 -42q0 -18 10 -31t24 -19q18 3 38 5.5t37 5t25 2.5v-40q-19 -1 -40.5 -3.5t-45 -5.5
t-49 -7t-52.5 -8v37zM545 60q5 0 5 -4v-51q0 -5 -5 -5h-181q-5 0 -5 5v51q0 4 5 4h181zM234 -240q-50 0 -92 14t-77 38l31 51q33 -20 66.5 -31.5t75.5 -11.5q71 0 111.5 39.5t40.5 104.5v36h-99q-105 0 -162.5 58t-57.5 168q0 77 31.5 134.5t91 89.5t142.5 32h118v-513
q0 -98 -57.5 -153.5t-162.5 -55.5zM389 60v362h-52q-92 0 -145.5 -51t-53.5 -145q0 -84 38.5 -125t117.5 -41h95zM397 771l-110 -192h-49l-111 192h61l74 -138l74 138h61z" />
    <glyph glyph-name="uniFBF3" unicode="&#xfbf3;" horiz-adv-x="857" arabic-form="final" 
d="M535 0q-5 0 -5 5v51q0 4 5 4h132v422h67v-422h128q5 0 5 -4v-51q0 -5 -5 -5h-327zM574 596l47 8q-18 11 -26.5 27t-8.5 35q0 41 27.5 65t72.5 24q35 0 60 -14l-13 -37q-9 5 -21 8.5t-27 3.5q-23 0 -40.5 -14t-17.5 -42q0 -18 10 -31t24 -19q18 3 38 5.5t37 5t25 2.5v-40
q-19 -1 -40.5 -3.5t-45 -5.5t-49 -7t-52.5 -8v37zM545 60q5 0 5 -4v-51q0 -5 -5 -5h-181q-5 0 -5 5v51q0 4 5 4h181zM234 -240q-50 0 -92 14t-77 38l31 51q33 -20 66.5 -31.5t75.5 -11.5q71 0 111.5 39.5t40.5 104.5v36h-99q-105 0 -162.5 58t-57.5 168q0 77 31.5 134.5
t91 89.5t142.5 32h118v-513q0 -98 -57.5 -153.5t-162.5 -55.5zM389 60v362h-52q-92 0 -145.5 -51t-53.5 -145q0 -84 38.5 -125t117.5 -41h95zM397 771l-110 -192h-49l-111 192h61l74 -138l74 138h61z" />
    <glyph glyph-name="uniFBF4" unicode="&#xfbf4;" horiz-adv-x="823" arabic-form="isolated" 
d="M535 0q-5 0 -5 5v51q0 4 5 4h136v422h67v-482h-203zM577 576l47 8q-18 11 -26.5 27t-8.5 35q0 41 27.5 65t72.5 24q35 0 60 -14l-13 -37q-9 5 -21 8.5t-27 3.5q-23 0 -40.5 -14t-17.5 -42q0 -18 10 -31t24 -19q18 3 38 5.5t37 5t25 2.5v-40q-19 -1 -40.5 -3.5t-45 -5.5
t-49 -7t-52.5 -8v37zM545 60q5 0 5 -4v-51q0 -5 -5 -5h-181q-5 0 -5 5v51q0 4 5 4h181zM234 -240q-50 0 -92 14t-77 38l31 51q33 -20 66.5 -31.5t75.5 -11.5q71 0 111.5 39.5t40.5 104.5v36h-99q-105 0 -162.5 58t-57.5 168q0 77 31.5 134.5t91 89.5t142.5 32h118v-513
q0 -98 -57.5 -153.5t-162.5 -55.5zM389 60v362h-52q-92 0 -145.5 -51t-53.5 -145q0 -84 38.5 -125t117.5 -41h95zM239 763h45v-194h-45v194z" />
    <glyph glyph-name="uniFBF5" unicode="&#xfbf5;" horiz-adv-x="857" arabic-form="final" 
d="M535 0q-5 0 -5 5v51q0 4 5 4h132v422h67v-422h128q5 0 5 -4v-51q0 -5 -5 -5h-327zM574 596l47 8q-18 11 -26.5 27t-8.5 35q0 41 27.5 65t72.5 24q35 0 60 -14l-13 -37q-9 5 -21 8.5t-27 3.5q-23 0 -40.5 -14t-17.5 -42q0 -18 10 -31t24 -19q18 3 38 5.5t37 5t25 2.5v-40
q-19 -1 -40.5 -3.5t-45 -5.5t-49 -7t-52.5 -8v37zM545 60q5 0 5 -4v-51q0 -5 -5 -5h-181q-5 0 -5 5v51q0 4 5 4h181zM234 -240q-50 0 -92 14t-77 38l31 51q33 -20 66.5 -31.5t75.5 -11.5q71 0 111.5 39.5t40.5 104.5v36h-99q-105 0 -162.5 58t-57.5 168q0 77 31.5 134.5
t91 89.5t142.5 32h118v-513q0 -98 -57.5 -153.5t-162.5 -55.5zM389 60v362h-52q-92 0 -145.5 -51t-53.5 -145q0 -84 38.5 -125t117.5 -41h95zM239 763h45v-194h-45v194z" />
    <glyph glyph-name="uniFBF6" unicode="&#xfbf6;" horiz-adv-x="1234" arabic-form="isolated" 
d="M945 0q-5 0 -5 5v51q0 4 5 4h136v422h67v-482h-203zM987 576l47 8q-18 11 -26.5 27t-8.5 35q0 41 27.5 65t72.5 24q35 0 60 -14l-13 -37q-9 5 -21 8.5t-27 3.5q-23 0 -40.5 -14t-17.5 -42q0 -18 10 -31t24 -19q18 3 38 5.5t37 5t25 2.5v-40q-19 -1 -40.5 -3.5t-45 -5.5
t-49 -7t-52.5 -8v37zM273 -240q-68 0 -115 27.5t-70 81.5t-23 132q0 53 9.5 96t24.5 84h62q-14 -40 -21 -81.5t-7 -93.5q0 -62 16 -103.5t49 -62t85 -20.5h178q57 0 96.5 15.5t60 40t20.5 49.5q0 26 -21.5 41t-66.5 27q-47 14 -82.5 27.5t-55.5 37t-20 63.5q0 29 9 56t24 51
q22 36 53 62t67 41t72 15q19 0 36.5 -4t31.5 -12q27 -15 48 -40.5t48 -74.5q26 -46 48.5 -78.5t47.5 -50.5q18 -14 35.5 -20t37.5 -6h5q5 0 5 -4v-51q0 -5 -5 -5h-5q-25 0 -49 7t-47 22t-48 38q-15 14 -30 36.5t-33 52.5q-21 35 -38 59t-34 39q-14 12 -30 18t-32 6
q-27 0 -53 -14t-48 -36.5t-35 -48.5t-13 -50q0 -18 12.5 -30.5t32 -20.5t39.5 -14q33 -9 56.5 -17t41.5 -15q32 -15 49 -36t17 -49q0 -89 -62.5 -138t-184.5 -49h-188zM392 -591q-22 0 -34.5 13t-12.5 37t12.5 36.5t34.5 12.5q21 0 33.5 -13t12.5 -36t-11.5 -36.5
t-34.5 -13.5zM392 -434q-22 0 -34.5 12.5t-12.5 36.5t12.5 37t34.5 13t34 -13.5t12 -36.5q0 -22 -11.5 -35.5t-34.5 -13.5z" />
    <glyph glyph-name="uniFBF7" unicode="&#xfbf7;" horiz-adv-x="1267" arabic-form="final" 
d="M945 0q-5 0 -5 5v51q0 4 5 4h132v422h67v-422h128q5 0 5 -4v-51q0 -5 -5 -5h-327zM984 596l47 8q-18 11 -26.5 27t-8.5 35q0 41 27.5 65t72.5 24q35 0 60 -14l-13 -37q-9 5 -21 8.5t-27 3.5q-23 0 -40.5 -14t-17.5 -42q0 -18 10 -31t24 -19q18 3 38 5.5t37 5t25 2.5v-40
q-19 -1 -40.5 -3.5t-45 -5.5t-49 -7t-52.5 -8v37zM273 -240q-68 0 -115 27.5t-70 81.5t-23 132q0 53 9.5 96t24.5 84h62q-14 -40 -21 -81.5t-7 -93.5q0 -62 16 -103.5t49 -62t85 -20.5h178q57 0 96.5 15.5t60 40t20.5 49.5q0 26 -21.5 41t-66.5 27q-47 14 -82.5 27.5
t-55.5 37t-20 63.5q0 29 9 56t24 51q22 36 53 62t67 41t72 15q19 0 36.5 -4t31.5 -12q27 -15 48 -40.5t48 -74.5q26 -46 48.5 -78.5t47.5 -50.5q18 -14 35.5 -20t37.5 -6h5q5 0 5 -4v-51q0 -5 -5 -5h-5q-25 0 -49 7t-47 22t-48 38q-15 14 -30 36.5t-33 52.5q-21 35 -38 59
t-34 39q-14 12 -30 18t-32 6q-27 0 -53 -14t-48 -36.5t-35 -48.5t-13 -50q0 -18 12.5 -30.5t32 -20.5t39.5 -14q33 -9 56.5 -17t41.5 -15q32 -15 49 -36t17 -49q0 -89 -62.5 -138t-184.5 -49h-188zM392 -591q-22 0 -34.5 13t-12.5 37t12.5 36.5t34.5 12.5q21 0 33.5 -13
t12.5 -36t-11.5 -36.5t-34.5 -13.5zM392 -434q-22 0 -34.5 12.5t-12.5 36.5t12.5 37t34.5 13t34 -13.5t12 -36.5q0 -22 -11.5 -35.5t-34.5 -13.5z" />
    <glyph glyph-name="uniFBF8" unicode="&#xfbf8;" horiz-adv-x="657" arabic-form="initial" 
d="M368 0q-5 0 -5 5v51q0 4 5 4h136v422h67v-482h-203zM410 576l47 8q-18 11 -26.5 27t-8.5 35q0 41 27.5 65t72.5 24q35 0 60 -14l-13 -37q-9 5 -21 8.5t-27 3.5q-23 0 -40.5 -14t-17.5 -42q0 -18 10 -31t24 -19q18 3 38 5.5t37 5t25 2.5v-40q-19 -1 -40.5 -3.5t-45 -5.5
t-49 -7t-52.5 -8v37zM-5 0q-5 0 -5 5v51q0 4 5 4h165v422h68v-422h150q5 0 5 -4v-51q0 -5 -5 -5h-383zM190 -341q-22 0 -34.5 13t-12.5 37t12.5 36.5t34.5 12.5q21 0 33.5 -13t12.5 -36t-11.5 -36.5t-34.5 -13.5zM190 -184q-22 0 -34.5 12.5t-12.5 36.5t12.5 37t34.5 13
t34 -13.5t12 -36.5q0 -22 -11.5 -35.5t-34.5 -13.5z" />
    <glyph glyph-name="uniFBF9" unicode="&#xfbf9;" horiz-adv-x="1234" arabic-form="isolated" 
d="M945 0q-5 0 -5 5v51q0 4 5 4h136v422h67v-482h-203zM987 576l47 8q-18 11 -26.5 27t-8.5 35q0 41 27.5 65t72.5 24q35 0 60 -14l-13 -37q-9 5 -21 8.5t-27 3.5q-23 0 -40.5 -14t-17.5 -42q0 -18 10 -31t24 -19q18 3 38 5.5t37 5t25 2.5v-40q-19 -1 -40.5 -3.5t-45 -5.5
t-49 -7t-52.5 -8v37zM273 -240q-68 0 -115 27.5t-70 81.5t-23 132q0 53 9.5 96t24.5 84h62q-14 -40 -21 -81.5t-7 -93.5q0 -62 16 -103.5t49 -62t85 -20.5h178q57 0 96.5 15.5t60 40t20.5 49.5q0 26 -21.5 41t-66.5 27q-47 14 -82.5 27.5t-55.5 37t-20 63.5q0 29 9 56t24 51
q22 36 53 62t67 41t72 15q19 0 36.5 -4t31.5 -12q27 -15 48 -40.5t48 -74.5q26 -46 48.5 -78.5t47.5 -50.5q18 -14 35.5 -20t37.5 -6h5q5 0 5 -4v-51q0 -5 -5 -5h-5q-25 0 -49 7t-47 22t-48 38q-15 14 -30 36.5t-33 52.5q-21 35 -38 59t-34 39q-14 12 -30 18t-32 6
q-27 0 -53 -14t-48 -36.5t-35 -48.5t-13 -50q0 -18 12.5 -30.5t32 -20.5t39.5 -14q33 -9 56.5 -17t41.5 -15q32 -15 49 -36t17 -49q0 -89 -62.5 -138t-184.5 -49h-188z" />
    <glyph glyph-name="uniFBFA" unicode="&#xfbfa;" horiz-adv-x="1267" arabic-form="final" 
d="M945 0q-5 0 -5 5v51q0 4 5 4h132v422h67v-422h128q5 0 5 -4v-51q0 -5 -5 -5h-327zM984 596l47 8q-18 11 -26.5 27t-8.5 35q0 41 27.5 65t72.5 24q35 0 60 -14l-13 -37q-9 5 -21 8.5t-27 3.5q-23 0 -40.5 -14t-17.5 -42q0 -18 10 -31t24 -19q18 3 38 5.5t37 5t25 2.5v-40
q-19 -1 -40.5 -3.5t-45 -5.5t-49 -7t-52.5 -8v37zM273 -240q-68 0 -115 27.5t-70 81.5t-23 132q0 53 9.5 96t24.5 84h62q-14 -40 -21 -81.5t-7 -93.5q0 -62 16 -103.5t49 -62t85 -20.5h178q57 0 96.5 15.5t60 40t20.5 49.5q0 26 -21.5 41t-66.5 27q-47 14 -82.5 27.5
t-55.5 37t-20 63.5q0 29 9 56t24 51q22 36 53 62t67 41t72 15q19 0 36.5 -4t31.5 -12q27 -15 48 -40.5t48 -74.5q26 -46 48.5 -78.5t47.5 -50.5q18 -14 35.5 -20t37.5 -6h5q5 0 5 -4v-51q0 -5 -5 -5h-5q-25 0 -49 7t-47 22t-48 38q-15 14 -30 36.5t-33 52.5q-21 35 -38 59
t-34 39q-14 12 -30 18t-32 6q-27 0 -53 -14t-48 -36.5t-35 -48.5t-13 -50q0 -18 12.5 -30.5t32 -20.5t39.5 -14q33 -9 56.5 -17t41.5 -15q32 -15 49 -36t17 -49q0 -89 -62.5 -138t-184.5 -49h-188z" />
    <glyph glyph-name="uniFBFB" unicode="&#xfbfb;" horiz-adv-x="600" arabic-form="initial" 
d="M312 0q-5 0 -5 5v51q0 4 5 4h136v422h67v-482h-203zM354 576l47 8q-18 11 -26.5 27t-8.5 35q0 41 27.5 65t72.5 24q35 0 60 -14l-13 -37q-9 5 -21 8.5t-27 3.5q-23 0 -40.5 -14t-17.5 -42q0 -18 10 -31t24 -19q18 3 38 5.5t37 5t25 2.5v-40q-19 -1 -40.5 -3.5t-45 -5.5
t-49 -7t-52.5 -8v37zM-5 0q-5 0 -5 5v51q0 4 5 4h132v422h67v-422h128q5 0 5 -4v-51q0 -5 -5 -5h-327z" />
    <glyph glyph-name="uni0649.fina" unicode="&#x649;" horiz-adv-x="950" arabic-form="final" 
d="M273 -240q-68 0 -115 27.5t-70 81.5t-23 132q0 53 9.5 96t24.5 84h62q-14 -40 -21 -81.5t-7 -93.5q0 -62 16 -103.5t49 -62t85 -20.5h178q57 0 96.5 15.5t60 40t20.5 49.5q0 26 -21.5 41t-66.5 27q-47 14 -82.5 27.5t-55.5 37t-20 63.5q0 29 9 56t24 51q22 36 53 62
t67 41t72 15q19 0 36.5 -4t31.5 -12q27 -15 48 -40.5t48 -74.5q26 -46 48.5 -78.5t47.5 -50.5q18 -14 35.5 -20t37.5 -6h5q5 0 5 -4v-51q0 -5 -5 -5h-5q-25 0 -49 7t-47 22t-48 38q-15 14 -30 36.5t-33 52.5q-21 35 -38 59t-34 39q-14 12 -30 18t-32 6q-27 0 -53 -14
t-48 -36.5t-35 -48.5t-13 -50q0 -18 12.5 -30.5t32 -20.5t39.5 -14q33 -9 56.5 -17t41.5 -15q32 -15 49 -36t17 -49q0 -89 -62.5 -138t-184.5 -49h-188z" />
    <glyph glyph-name="uniFEF3" unicode="&#x64a;" horiz-adv-x="367" arabic-form="initial" 
d="M-5 0q-5 0 -5 5v51q0 4 5 4h203v422h67v-482h-270zM99 -175q-20 0 -33 11.5t-13 37.5q0 27 13 38.5t33 11.5t33 -12.5t13 -37.5q0 -24 -12.5 -36.5t-33.5 -12.5zM251 -175q-21 0 -33 12.5t-12 36.5q0 25 12 37.5t33 12.5q22 0 34.5 -13.5t12.5 -36.5t-12.5 -36t-34.5 -13
z" />
    <glyph glyph-name="uniFEF4" unicode="&#x64a;" horiz-adv-x="373" arabic-form="medial" 
d="M-5 0q-5 0 -5 5v51q0 4 5 4h165v422h68v-422h150q5 0 5 -4v-51q0 -5 -5 -5h-383zM111 -175q-20 0 -33 11.5t-13 37.5q0 27 13 38.5t33 11.5t33 -12.5t13 -37.5q0 -24 -12.5 -36.5t-33.5 -12.5zM263 -175q-21 0 -33 12.5t-12 36.5q0 25 12 37.5t33 12.5q22 0 34.5 -13.5
t12.5 -36.5t-12.5 -36t-34.5 -13z" />
    <glyph glyph-name="uniFC00" unicode="&#xfc00;" horiz-adv-x="887" arabic-form="isolated" 
d="M599 0q-5 0 -5 5v51q0 4 5 4h136v422h67v-482h-203zM641 576l47 8q-18 11 -26.5 27t-8.5 35q0 41 27.5 65t72.5 24q35 0 60 -14l-13 -37q-9 5 -21 8.5t-27 3.5q-23 0 -40.5 -14t-17.5 -42q0 -18 10 -31t24 -19q18 3 38 5.5t37 5t25 2.5v-40q-19 -1 -40.5 -3.5t-45 -5.5
t-49 -7t-52.5 -8v37zM245 -324q-61 0 -106 22.5t-69.5 65t-24.5 101.5q0 33 9 62t27 54q27 40 74.5 72t115.5 60t157 54q-4 15 -9 35.5t-9 45.5q-9 58 -28.5 99t-51.5 63t-80 22q-44 0 -91.5 -15t-85.5 -37l-27 53q23 16 56 29t71.5 21.5t75.5 8.5q61 0 106 -23.5t74 -73.5
t41 -129q7 -41 15.5 -74t17.5 -54q15 -37 39.5 -57.5t61.5 -20.5h5q5 0 5 -4v-51q0 -5 -5 -5h-5q-36 0 -65 13.5t-51 39t-39 59.5q-73 -21 -133 -43.5t-98 -50.5q-54 -32 -79 -68.5t-25 -79.5q0 -66 37.5 -100t108.5 -34zM415 -215q-22 0 -34 12.5t-12 36.5q0 25 12 37.5
t34 12.5q20 0 33 -13t13 -36q0 -24 -12.5 -37t-33.5 -13z" />
    <glyph glyph-name="uniFC01" unicode="&#xfc01;" horiz-adv-x="887" arabic-form="isolated" 
d="M599 0q-5 0 -5 5v51q0 4 5 4h136v422h67v-482h-203zM641 576l47 8q-18 11 -26.5 27t-8.5 35q0 41 27.5 65t72.5 24q35 0 60 -14l-13 -37q-9 5 -21 8.5t-27 3.5q-23 0 -40.5 -14t-17.5 -42q0 -18 10 -31t24 -19q18 3 38 5.5t37 5t25 2.5v-40q-19 -1 -40.5 -3.5t-45 -5.5
t-49 -7t-52.5 -8v37zM604 0q-36 0 -65 13.5t-50.5 39t-39.5 59.5q-52 -15 -98.5 -31t-83 -34.5t-60.5 -41.5q-48 -29 -70.5 -62t-22.5 -73q0 -44 18 -74t55 -45t93 -15q29 0 65.5 4.5t85.5 14.5l9 -54q-51 -12 -101 -18.5t-86 -6.5q-65 0 -111.5 22.5t-71.5 65t-25 101.5
q0 33 9 62t27 54q27 40 74.5 72t115.5 60t157 54q-4 15 -9 35.5t-9 45.5q-9 58 -28.5 99t-52 63t-80.5 22q-40 0 -89.5 -15t-88.5 -37l-27 52q35 25 92 42.5t112 17.5q62 0 107 -23.5t74 -73.5t41 -129q7 -42 15.5 -75.5t18.5 -56.5q16 -35 40 -54.5t60 -19.5h5q5 0 5 -4
v-51q0 -5 -5 -5h-5z" />
    <glyph glyph-name="uniFC02" unicode="&#xfc02;" horiz-adv-x="944" arabic-form="isolated" 
d="M656 0q-5 0 -5 5v51q0 4 5 4h136v422h67v-482h-203zM698 576l47 8q-18 11 -26.5 27t-8.5 35q0 41 27.5 65t72.5 24q35 0 60 -14l-13 -37q-9 5 -21 8.5t-27 3.5q-23 0 -40.5 -14t-17.5 -42q0 -18 10 -31t24 -19q18 3 38 5.5t37 5t25 2.5v-40q-19 -1 -40.5 -3.5t-45 -5.5
t-49 -7t-52.5 -8v37zM203 0q-38 0 -56 -17.5t-18 -55.5v-247h-64v255q0 39 13 67t39.5 43t67.5 15h8q-20 53 -30 101t-10 93q0 37 7.5 74t23.5 70q34 32 79.5 51t98.5 19q30 0 56.5 -6.5t48.5 -19.5q44 -28 68 -78t24 -112q0 -35 -6 -70t-19 -62q23 -33 52 -46.5t75 -13.5h5
q5 0 5 -4v-51q0 -5 -5 -5h-5q-53 0 -90 14.5t-71 51.5q-30 -34 -68.5 -50t-84.5 -16h-144zM221 267q0 -49 9 -99.5t32 -107.5h87q46 0 77.5 22.5t48 65.5t16.5 106q0 69 -36 112t-92 43q-36 0 -67.5 -12t-60.5 -36q-8 -17 -11 -42t-3 -52z" />
    <glyph glyph-name="uniFC03" unicode="&#xfc03;" horiz-adv-x="1234" arabic-form="isolated" 
d="M945 0q-5 0 -5 5v51q0 4 5 4h136v422h67v-482h-203zM987 576l47 8q-18 11 -26.5 27t-8.5 35q0 41 27.5 65t72.5 24q35 0 60 -14l-13 -37q-9 5 -21 8.5t-27 3.5q-23 0 -40.5 -14t-17.5 -42q0 -18 10 -31t24 -19q18 3 38 5.5t37 5t25 2.5v-40q-19 -1 -40.5 -3.5t-45 -5.5
t-49 -7t-52.5 -8v37zM273 -240q-68 0 -115 27.5t-70 81.5t-23 132q0 53 9.5 96t24.5 84h62q-14 -40 -21 -81.5t-7 -93.5q0 -62 16 -103.5t49 -62t85 -20.5h178q57 0 96.5 15.5t60 40t20.5 49.5q0 26 -21.5 41t-66.5 27q-47 14 -82.5 27.5t-55.5 37t-20 63.5q0 29 9 56t24 51
q22 36 53 62t67 41t72 15q19 0 36.5 -4t31.5 -12q27 -15 48 -40.5t48 -74.5q26 -46 48.5 -78.5t47.5 -50.5q18 -14 35.5 -20t37.5 -6h5q5 0 5 -4v-51q0 -5 -5 -5h-5q-25 0 -49 7t-47 22t-48 38q-15 14 -30 36.5t-33 52.5q-21 35 -38 59t-34 39q-14 12 -30 18t-32 6
q-27 0 -53 -14t-48 -36.5t-35 -48.5t-13 -50q0 -18 12.5 -30.5t32 -20.5t39.5 -14q33 -9 56.5 -17t41.5 -15q32 -15 49 -36t17 -49q0 -89 -62.5 -138t-184.5 -49h-188z" />
    <glyph glyph-name="uniFC04" unicode="&#xfc04;" horiz-adv-x="1234" arabic-form="isolated" 
d="M945 0q-5 0 -5 5v51q0 4 5 4h136v422h67v-482h-203zM987 576l47 8q-18 11 -26.5 27t-8.5 35q0 41 27.5 65t72.5 24q35 0 60 -14l-13 -37q-9 5 -21 8.5t-27 3.5q-23 0 -40.5 -14t-17.5 -42q0 -18 10 -31t24 -19q18 3 38 5.5t37 5t25 2.5v-40q-19 -1 -40.5 -3.5t-45 -5.5
t-49 -7t-52.5 -8v37zM273 -240q-68 0 -115 27.5t-70 81.5t-23 132q0 53 9.5 96t24.5 84h62q-14 -40 -21 -81.5t-7 -93.5q0 -62 16 -103.5t49 -62t85 -20.5h178q57 0 96.5 15.5t60 40t20.5 49.5q0 26 -21.5 41t-66.5 27q-47 14 -82.5 27.5t-55.5 37t-20 63.5q0 29 9 56t24 51
q22 36 53 62t67 41t72 15q19 0 36.5 -4t31.5 -12q27 -15 48 -40.5t48 -74.5q26 -46 48.5 -78.5t47.5 -50.5q18 -14 35.5 -20t37.5 -6h5q5 0 5 -4v-51q0 -5 -5 -5h-5q-25 0 -49 7t-47 22t-48 38q-15 14 -30 36.5t-33 52.5q-21 35 -38 59t-34 39q-14 12 -30 18t-32 6
q-27 0 -53 -14t-48 -36.5t-35 -48.5t-13 -50q0 -18 12.5 -30.5t32 -20.5t39.5 -14q33 -9 56.5 -17t41.5 -15q32 -15 49 -36t17 -49q0 -89 -62.5 -138t-184.5 -49h-188zM313 -426q-20 0 -33 11.5t-13 37.5q0 27 13 38.5t33 11.5t33 -12.5t13 -37.5q0 -24 -12.5 -36.5
t-33.5 -12.5zM465 -426q-21 0 -33 12.5t-12 36.5q0 25 12 37.5t33 12.5q22 0 34.5 -13.5t12.5 -36.5t-12.5 -36t-34.5 -13z" />
    <glyph glyph-name="uniFC05" unicode="&#xfc05;" horiz-adv-x="887" arabic-form="isolated" 
d="M599 0q-5 0 -5 5v51q0 4 5 4h136v422h67v-482h-203zM731 -192q-22 0 -34 12.5t-12 36.5t12.5 36.5t33.5 12.5q23 0 34.5 -13.5t11.5 -35.5t-11.5 -35.5t-34.5 -13.5zM245 -324q-61 0 -106 22.5t-69.5 65t-24.5 101.5q0 33 9 62t27 54q27 40 74.5 72t115.5 60t157 54
q-4 15 -9 35.5t-9 45.5q-9 58 -28.5 99t-51.5 63t-80 22q-44 0 -91.5 -15t-85.5 -37l-27 53q23 16 56 29t71.5 21.5t75.5 8.5q61 0 106 -23.5t74 -73.5t41 -129q7 -41 15.5 -74t17.5 -54q15 -37 39.5 -57.5t61.5 -20.5h5q5 0 5 -4v-51q0 -5 -5 -5h-5q-36 0 -65 13.5t-51 39
t-39 59.5q-73 -21 -133 -43.5t-98 -50.5q-54 -32 -79 -68.5t-25 -79.5q0 -66 37.5 -100t108.5 -34zM415 -215q-22 0 -34 12.5t-12 36.5q0 25 12 37.5t34 12.5q20 0 33 -13t13 -36q0 -24 -12.5 -37t-33.5 -13z" />
    <glyph glyph-name="uniFC06" unicode="&#xfc06;" horiz-adv-x="887" arabic-form="isolated" 
d="M599 0q-5 0 -5 5v51q0 4 5 4h136v422h67v-482h-203zM731 -192q-22 0 -34 12.5t-12 36.5t12.5 36.5t33.5 12.5q23 0 34.5 -13.5t11.5 -35.5t-11.5 -35.5t-34.5 -13.5zM604 0q-36 0 -65 13.5t-50.5 39t-39.5 59.5q-52 -15 -98.5 -31t-83 -34.5t-60.5 -41.5
q-48 -29 -70.5 -62t-22.5 -73q0 -44 18 -74t55 -45t93 -15q29 0 65.5 4.5t85.5 14.5l9 -54q-51 -12 -101 -18.5t-86 -6.5q-65 0 -111.5 22.5t-71.5 65t-25 101.5q0 33 9 62t27 54q27 40 74.5 72t115.5 60t157 54q-4 15 -9 35.5t-9 45.5q-9 58 -28.5 99t-52 63t-80.5 22
q-40 0 -89.5 -15t-88.5 -37l-27 52q35 25 92 42.5t112 17.5q62 0 107 -23.5t74 -73.5t41 -129q7 -42 15.5 -75.5t18.5 -56.5q16 -35 40 -54.5t60 -19.5h5q5 0 5 -4v-51q0 -5 -5 -5h-5z" />
    <glyph glyph-name="uniFC07" unicode="&#xfc07;" horiz-adv-x="887" arabic-form="isolated" 
d="M599 0q-5 0 -5 5v51q0 4 5 4h136v422h67v-482h-203zM731 -192q-22 0 -34 12.5t-12 36.5t12.5 36.5t33.5 12.5q23 0 34.5 -13.5t11.5 -35.5t-11.5 -35.5t-34.5 -13.5zM604 0q-36 0 -65 13.5t-50.5 39t-39.5 59.5q-52 -15 -98.5 -31t-83 -34.5t-60.5 -41.5
q-48 -29 -70.5 -62t-22.5 -73q0 -44 18 -74t55 -45t93 -15q29 0 65.5 4.5t85.5 14.5l9 -54q-51 -12 -101 -18.5t-86 -6.5q-65 0 -111.5 22.5t-71.5 65t-25 101.5q0 33 9 62t27 54q27 40 74.5 72t115.5 60t157 54q-4 15 -9 35.5t-9 45.5q-9 58 -28.5 99t-52 63t-80.5 22
q-40 0 -89.5 -15t-88.5 -37l-27 52q35 25 92 42.5t112 17.5q62 0 107 -23.5t74 -73.5t41 -129q7 -42 15.5 -75.5t18.5 -56.5q16 -35 40 -54.5t60 -19.5h5q5 0 5 -4v-51q0 -5 -5 -5h-5zM229 599q-22 0 -34 12.5t-12 36.5q0 25 12 37.5t34 12.5q20 0 33 -13t13 -36
q0 -24 -12.5 -37t-33.5 -13z" />
    <glyph glyph-name="uniFC08" unicode="&#xfc08;" horiz-adv-x="944" arabic-form="isolated" 
d="M656 0q-5 0 -5 5v51q0 4 5 4h136v422h67v-482h-203zM788 -192q-22 0 -34 12.5t-12 36.5t12.5 36.5t33.5 12.5q23 0 34.5 -13.5t11.5 -35.5t-11.5 -35.5t-34.5 -13.5zM203 0q-38 0 -56 -17.5t-18 -55.5v-247h-64v255q0 39 13 67t39.5 43t67.5 15h8q-20 53 -30 101t-10 93
q0 37 7.5 74t23.5 70q34 32 79.5 51t98.5 19q30 0 56.5 -6.5t48.5 -19.5q44 -28 68 -78t24 -112q0 -35 -6 -70t-19 -62q23 -33 52 -46.5t75 -13.5h5q5 0 5 -4v-51q0 -5 -5 -5h-5q-53 0 -90 14.5t-71 51.5q-30 -34 -68.5 -50t-84.5 -16h-144zM221 267q0 -49 9 -99.5
t32 -107.5h87q46 0 77.5 22.5t48 65.5t16.5 106q0 69 -36 112t-92 43q-36 0 -67.5 -12t-60.5 -36q-8 -17 -11 -42t-3 -52z" />
    <glyph glyph-name="uniFC09" unicode="&#xfc09;" horiz-adv-x="1234" arabic-form="isolated" 
d="M945 0q-5 0 -5 5v51q0 4 5 4h136v422h67v-482h-203zM1077 -192q-22 0 -34 12.5t-12 36.5t12.5 36.5t33.5 12.5q23 0 34.5 -13.5t11.5 -35.5t-11.5 -35.5t-34.5 -13.5zM273 -240q-68 0 -115 27.5t-70 81.5t-23 132q0 53 9.5 96t24.5 84h62q-14 -40 -21 -81.5t-7 -93.5
q0 -62 16 -103.5t49 -62t85 -20.5h178q57 0 96.5 15.5t60 40t20.5 49.5q0 26 -21.5 41t-66.5 27q-47 14 -82.5 27.5t-55.5 37t-20 63.5q0 29 9 56t24 51q22 36 53 62t67 41t72 15q19 0 36.5 -4t31.5 -12q27 -15 48 -40.5t48 -74.5q26 -46 48.5 -78.5t47.5 -50.5
q18 -14 35.5 -20t37.5 -6h5q5 0 5 -4v-51q0 -5 -5 -5h-5q-25 0 -49 7t-47 22t-48 38q-15 14 -30 36.5t-33 52.5q-21 35 -38 59t-34 39q-14 12 -30 18t-32 6q-27 0 -53 -14t-48 -36.5t-35 -48.5t-13 -50q0 -18 12.5 -30.5t32 -20.5t39.5 -14q33 -9 56.5 -17t41.5 -15
q32 -15 49 -36t17 -49q0 -89 -62.5 -138t-184.5 -49h-188z" />
    <glyph glyph-name="uniFC0A" unicode="&#xfc0a;" horiz-adv-x="1234" arabic-form="isolated" 
d="M945 0q-5 0 -5 5v51q0 4 5 4h136v422h67v-482h-203zM1077 -192q-22 0 -34 12.5t-12 36.5t12.5 36.5t33.5 12.5q23 0 34.5 -13.5t11.5 -35.5t-11.5 -35.5t-34.5 -13.5zM273 -240q-68 0 -115 27.5t-70 81.5t-23 132q0 53 9.5 96t24.5 84h62q-14 -40 -21 -81.5t-7 -93.5
q0 -62 16 -103.5t49 -62t85 -20.5h178q57 0 96.5 15.5t60 40t20.5 49.5q0 26 -21.5 41t-66.5 27q-47 14 -82.5 27.5t-55.5 37t-20 63.5q0 29 9 56t24 51q22 36 53 62t67 41t72 15q19 0 36.5 -4t31.5 -12q27 -15 48 -40.5t48 -74.5q26 -46 48.5 -78.5t47.5 -50.5
q18 -14 35.5 -20t37.5 -6h5q5 0 5 -4v-51q0 -5 -5 -5h-5q-25 0 -49 7t-47 22t-48 38q-15 14 -30 36.5t-33 52.5q-21 35 -38 59t-34 39q-14 12 -30 18t-32 6q-27 0 -53 -14t-48 -36.5t-35 -48.5t-13 -50q0 -18 12.5 -30.5t32 -20.5t39.5 -14q33 -9 56.5 -17t41.5 -15
q32 -15 49 -36t17 -49q0 -89 -62.5 -138t-184.5 -49h-188zM313 -426q-20 0 -33 11.5t-13 37.5q0 27 13 38.5t33 11.5t33 -12.5t13 -37.5q0 -24 -12.5 -36.5t-33.5 -12.5zM465 -426q-21 0 -33 12.5t-12 36.5q0 25 12 37.5t33 12.5q22 0 34.5 -13.5t12.5 -36.5t-12.5 -36
t-34.5 -13z" />
    <glyph glyph-name="uniFC0B" unicode="&#xfc0b;" horiz-adv-x="887" arabic-form="isolated" 
d="M599 0q-5 0 -5 5v51q0 4 5 4h136v422h67v-482h-203zM674 585q-18 0 -32 11t-14 38t14 38.5t32 11.5q21 0 33.5 -13t12.5 -37t-12 -36.5t-34 -12.5zM824 585q-21 0 -33.5 12.5t-12.5 36.5t12.5 37t33.5 13q23 0 34.5 -14t11.5 -36t-11.5 -35.5t-34.5 -13.5zM245 -324
q-61 0 -106 22.5t-69.5 65t-24.5 101.5q0 33 9 62t27 54q27 40 74.5 72t115.5 60t157 54q-4 15 -9 35.5t-9 45.5q-9 58 -28.5 99t-51.5 63t-80 22q-44 0 -91.5 -15t-85.5 -37l-27 53q23 16 56 29t71.5 21.5t75.5 8.5q61 0 106 -23.5t74 -73.5t41 -129q7 -41 15.5 -74
t17.5 -54q15 -37 39.5 -57.5t61.5 -20.5h5q5 0 5 -4v-51q0 -5 -5 -5h-5q-36 0 -65 13.5t-51 39t-39 59.5q-73 -21 -133 -43.5t-98 -50.5q-54 -32 -79 -68.5t-25 -79.5q0 -66 37.5 -100t108.5 -34zM415 -215q-22 0 -34 12.5t-12 36.5q0 25 12 37.5t34 12.5q20 0 33 -13
t13 -36q0 -24 -12.5 -37t-33.5 -13z" />
    <glyph glyph-name="uniFC0C" unicode="&#xfc0c;" horiz-adv-x="887" arabic-form="isolated" 
d="M599 0q-5 0 -5 5v51q0 4 5 4h136v422h67v-482h-203zM674 585q-18 0 -32 11t-14 38t14 38.5t32 11.5q21 0 33.5 -13t12.5 -37t-12 -36.5t-34 -12.5zM824 585q-21 0 -33.5 12.5t-12.5 36.5t12.5 37t33.5 13q23 0 34.5 -14t11.5 -36t-11.5 -35.5t-34.5 -13.5zM604 0
q-36 0 -65 13.5t-50.5 39t-39.5 59.5q-52 -15 -98.5 -31t-83 -34.5t-60.5 -41.5q-48 -29 -70.5 -62t-22.5 -73q0 -44 18 -74t55 -45t93 -15q29 0 65.5 4.5t85.5 14.5l9 -54q-51 -12 -101 -18.5t-86 -6.5q-65 0 -111.5 22.5t-71.5 65t-25 101.5q0 33 9 62t27 54
q27 40 74.5 72t115.5 60t157 54q-4 15 -9 35.5t-9 45.5q-9 58 -28.5 99t-52 63t-80.5 22q-40 0 -89.5 -15t-88.5 -37l-27 52q35 25 92 42.5t112 17.5q62 0 107 -23.5t74 -73.5t41 -129q7 -42 15.5 -75.5t18.5 -56.5q16 -35 40 -54.5t60 -19.5h5q5 0 5 -4v-51q0 -5 -5 -5h-5z
" />
    <glyph glyph-name="uniFC0D" unicode="&#xfc0d;" horiz-adv-x="887" arabic-form="isolated" 
d="M599 0q-5 0 -5 5v51q0 4 5 4h136v422h67v-482h-203zM674 585q-18 0 -32 11t-14 38t14 38.5t32 11.5q21 0 33.5 -13t12.5 -37t-12 -36.5t-34 -12.5zM824 585q-21 0 -33.5 12.5t-12.5 36.5t12.5 37t33.5 13q23 0 34.5 -14t11.5 -36t-11.5 -35.5t-34.5 -13.5zM604 0
q-36 0 -65 13.5t-50.5 39t-39.5 59.5q-52 -15 -98.5 -31t-83 -34.5t-60.5 -41.5q-48 -29 -70.5 -62t-22.5 -73q0 -44 18 -74t55 -45t93 -15q29 0 65.5 4.5t85.5 14.5l9 -54q-51 -12 -101 -18.5t-86 -6.5q-65 0 -111.5 22.5t-71.5 65t-25 101.5q0 33 9 62t27 54
q27 40 74.5 72t115.5 60t157 54q-4 15 -9 35.5t-9 45.5q-9 58 -28.5 99t-52 63t-80.5 22q-40 0 -89.5 -15t-88.5 -37l-27 52q35 25 92 42.5t112 17.5q62 0 107 -23.5t74 -73.5t41 -129q7 -42 15.5 -75.5t18.5 -56.5q16 -35 40 -54.5t60 -19.5h5q5 0 5 -4v-51q0 -5 -5 -5h-5z
M229 599q-22 0 -34 12.5t-12 36.5q0 25 12 37.5t34 12.5q20 0 33 -13t13 -36q0 -24 -12.5 -37t-33.5 -13z" />
    <glyph glyph-name="uniFC0E" unicode="&#xfc0e;" horiz-adv-x="944" arabic-form="isolated" 
d="M656 0q-5 0 -5 5v51q0 4 5 4h136v422h67v-482h-203zM731 585q-18 0 -32 11t-14 38t14 38.5t32 11.5q21 0 33.5 -13t12.5 -37t-12 -36.5t-34 -12.5zM881 585q-21 0 -33.5 12.5t-12.5 36.5t12.5 37t33.5 13q23 0 34.5 -14t11.5 -36t-11.5 -35.5t-34.5 -13.5zM203 0
q-38 0 -56 -17.5t-18 -55.5v-247h-64v255q0 39 13 67t39.5 43t67.5 15h8q-20 53 -30 101t-10 93q0 37 7.5 74t23.5 70q34 32 79.5 51t98.5 19q30 0 56.5 -6.5t48.5 -19.5q44 -28 68 -78t24 -112q0 -35 -6 -70t-19 -62q23 -33 52 -46.5t75 -13.5h5q5 0 5 -4v-51q0 -5 -5 -5
h-5q-53 0 -90 14.5t-71 51.5q-30 -34 -68.5 -50t-84.5 -16h-144zM221 267q0 -49 9 -99.5t32 -107.5h87q46 0 77.5 22.5t48 65.5t16.5 106q0 69 -36 112t-92 43q-36 0 -67.5 -12t-60.5 -36q-8 -17 -11 -42t-3 -52z" />
    <glyph glyph-name="uniFC0F" unicode="&#xfc0f;" horiz-adv-x="1234" arabic-form="isolated" 
d="M945 0q-5 0 -5 5v51q0 4 5 4h136v422h67v-482h-203zM1020 585q-18 0 -32 11t-14 38t14 38.5t32 11.5q21 0 33.5 -13t12.5 -37t-12 -36.5t-34 -12.5zM1170 585q-21 0 -33.5 12.5t-12.5 36.5t12.5 37t33.5 13q23 0 34.5 -14t11.5 -36t-11.5 -35.5t-34.5 -13.5zM273 -240
q-68 0 -115 27.5t-70 81.5t-23 132q0 53 9.5 96t24.5 84h62q-14 -40 -21 -81.5t-7 -93.5q0 -62 16 -103.5t49 -62t85 -20.5h178q57 0 96.5 15.5t60 40t20.5 49.5q0 26 -21.5 41t-66.5 27q-47 14 -82.5 27.5t-55.5 37t-20 63.5q0 29 9 56t24 51q22 36 53 62t67 41t72 15
q19 0 36.5 -4t31.5 -12q27 -15 48 -40.5t48 -74.5q26 -46 48.5 -78.5t47.5 -50.5q18 -14 35.5 -20t37.5 -6h5q5 0 5 -4v-51q0 -5 -5 -5h-5q-25 0 -49 7t-47 22t-48 38q-15 14 -30 36.5t-33 52.5q-21 35 -38 59t-34 39q-14 12 -30 18t-32 6q-27 0 -53 -14t-48 -36.5
t-35 -48.5t-13 -50q0 -18 12.5 -30.5t32 -20.5t39.5 -14q33 -9 56.5 -17t41.5 -15q32 -15 49 -36t17 -49q0 -89 -62.5 -138t-184.5 -49h-188z" />
    <glyph glyph-name="uniFC10" unicode="&#xfc10;" horiz-adv-x="1234" arabic-form="isolated" 
d="M945 0q-5 0 -5 5v51q0 4 5 4h136v422h67v-482h-203zM1020 585q-18 0 -32 11t-14 38t14 38.5t32 11.5q21 0 33.5 -13t12.5 -37t-12 -36.5t-34 -12.5zM1170 585q-21 0 -33.5 12.5t-12.5 36.5t12.5 37t33.5 13q23 0 34.5 -14t11.5 -36t-11.5 -35.5t-34.5 -13.5zM273 -240
q-68 0 -115 27.5t-70 81.5t-23 132q0 53 9.5 96t24.5 84h62q-14 -40 -21 -81.5t-7 -93.5q0 -62 16 -103.5t49 -62t85 -20.5h178q57 0 96.5 15.5t60 40t20.5 49.5q0 26 -21.5 41t-66.5 27q-47 14 -82.5 27.5t-55.5 37t-20 63.5q0 29 9 56t24 51q22 36 53 62t67 41t72 15
q19 0 36.5 -4t31.5 -12q27 -15 48 -40.5t48 -74.5q26 -46 48.5 -78.5t47.5 -50.5q18 -14 35.5 -20t37.5 -6h5q5 0 5 -4v-51q0 -5 -5 -5h-5q-25 0 -49 7t-47 22t-48 38q-15 14 -30 36.5t-33 52.5q-21 35 -38 59t-34 39q-14 12 -30 18t-32 6q-27 0 -53 -14t-48 -36.5
t-35 -48.5t-13 -50q0 -18 12.5 -30.5t32 -20.5t39.5 -14q33 -9 56.5 -17t41.5 -15q32 -15 49 -36t17 -49q0 -89 -62.5 -138t-184.5 -49h-188zM313 -426q-20 0 -33 11.5t-13 37.5q0 27 13 38.5t33 11.5t33 -12.5t13 -37.5q0 -24 -12.5 -36.5t-33.5 -12.5zM465 -426
q-21 0 -33 12.5t-12 36.5q0 25 12 37.5t33 12.5q22 0 34.5 -13.5t12.5 -36.5t-12.5 -36t-34.5 -13z" />
    <glyph glyph-name="uniFC11" unicode="&#xfc11;" horiz-adv-x="887" arabic-form="isolated" 
d="M599 0q-5 0 -5 5v51q0 4 5 4h136v422h67v-482h-203zM750 680q-19 0 -31.5 11.5t-12.5 35.5q0 23 12 34t32 11q18 0 30.5 -11t12.5 -34q0 -25 -12.5 -36t-30.5 -11zM675 562q-20 0 -33 12t-13 38q0 25 13 37t33 12q22 0 34 -13.5t12 -35.5q0 -23 -12 -36.5t-34 -13.5z
M825 562q-21 0 -33.5 13t-12.5 37q0 23 12 36t34 13q23 0 34.5 -13.5t11.5 -35.5q0 -23 -12 -36.5t-34 -13.5zM245 -324q-61 0 -106 22.5t-69.5 65t-24.5 101.5q0 33 9 62t27 54q27 40 74.5 72t115.5 60t157 54q-4 15 -9 35.5t-9 45.5q-9 58 -28.5 99t-51.5 63t-80 22
q-44 0 -91.5 -15t-85.5 -37l-27 53q23 16 56 29t71.5 21.5t75.5 8.5q61 0 106 -23.5t74 -73.5t41 -129q7 -41 15.5 -74t17.5 -54q15 -37 39.5 -57.5t61.5 -20.5h5q5 0 5 -4v-51q0 -5 -5 -5h-5q-36 0 -65 13.5t-51 39t-39 59.5q-73 -21 -133 -43.5t-98 -50.5
q-54 -32 -79 -68.5t-25 -79.5q0 -66 37.5 -100t108.5 -34zM415 -215q-22 0 -34 12.5t-12 36.5q0 25 12 37.5t34 12.5q20 0 33 -13t13 -36q0 -24 -12.5 -37t-33.5 -13z" />
    <glyph glyph-name="uniFC12" unicode="&#xfc12;" horiz-adv-x="944" arabic-form="isolated" 
d="M656 0q-5 0 -5 5v51q0 4 5 4h136v422h67v-482h-203zM807 680q-19 0 -31.5 11.5t-12.5 35.5q0 23 12 34t32 11q18 0 30.5 -11t12.5 -34q0 -25 -12.5 -36t-30.5 -11zM732 562q-20 0 -33 12t-13 38q0 25 13 37t33 12q22 0 34 -13.5t12 -35.5q0 -23 -12 -36.5t-34 -13.5z
M882 562q-21 0 -33.5 13t-12.5 37q0 23 12 36t34 13q23 0 34.5 -13.5t11.5 -35.5q0 -23 -12 -36.5t-34 -13.5zM203 0q-38 0 -56 -17.5t-18 -55.5v-247h-64v255q0 39 13 67t39.5 43t67.5 15h8q-20 53 -30 101t-10 93q0 37 7.5 74t23.5 70q34 32 79.5 51t98.5 19
q30 0 56.5 -6.5t48.5 -19.5q44 -28 68 -78t24 -112q0 -35 -6 -70t-19 -62q23 -33 52 -46.5t75 -13.5h5q5 0 5 -4v-51q0 -5 -5 -5h-5q-53 0 -90 14.5t-71 51.5q-30 -34 -68.5 -50t-84.5 -16h-144zM221 267q0 -49 9 -99.5t32 -107.5h87q46 0 77.5 22.5t48 65.5t16.5 106
q0 69 -36 112t-92 43q-36 0 -67.5 -12t-60.5 -36q-8 -17 -11 -42t-3 -52z" />
    <glyph glyph-name="uniFC13" unicode="&#xfc13;" horiz-adv-x="1234" arabic-form="isolated" 
d="M945 0q-5 0 -5 5v51q0 4 5 4h136v422h67v-482h-203zM1096 680q-19 0 -31.5 11.5t-12.5 35.5q0 23 12 34t32 11q18 0 30.5 -11t12.5 -34q0 -25 -12.5 -36t-30.5 -11zM1021 562q-20 0 -33 12t-13 38q0 25 13 37t33 12q22 0 34 -13.5t12 -35.5q0 -23 -12 -36.5t-34 -13.5z
M1171 562q-21 0 -33.5 13t-12.5 37q0 23 12 36t34 13q23 0 34.5 -13.5t11.5 -35.5q0 -23 -12 -36.5t-34 -13.5zM273 -240q-68 0 -115 27.5t-70 81.5t-23 132q0 53 9.5 96t24.5 84h62q-14 -40 -21 -81.5t-7 -93.5q0 -62 16 -103.5t49 -62t85 -20.5h178q57 0 96.5 15.5t60 40
t20.5 49.5q0 26 -21.5 41t-66.5 27q-47 14 -82.5 27.5t-55.5 37t-20 63.5q0 29 9 56t24 51q22 36 53 62t67 41t72 15q19 0 36.5 -4t31.5 -12q27 -15 48 -40.5t48 -74.5q26 -46 48.5 -78.5t47.5 -50.5q18 -14 35.5 -20t37.5 -6h5q5 0 5 -4v-51q0 -5 -5 -5h-5q-25 0 -49 7
t-47 22t-48 38q-15 14 -30 36.5t-33 52.5q-21 35 -38 59t-34 39q-14 12 -30 18t-32 6q-27 0 -53 -14t-48 -36.5t-35 -48.5t-13 -50q0 -18 12.5 -30.5t32 -20.5t39.5 -14q33 -9 56.5 -17t41.5 -15q32 -15 49 -36t17 -49q0 -89 -62.5 -138t-184.5 -49h-188z" />
    <glyph glyph-name="uniFC14" unicode="&#xfc14;" horiz-adv-x="1234" arabic-form="isolated" 
d="M945 0q-5 0 -5 5v51q0 4 5 4h136v422h67v-482h-203zM1096 680q-19 0 -31.5 11.5t-12.5 35.5q0 23 12 34t32 11q18 0 30.5 -11t12.5 -34q0 -25 -12.5 -36t-30.5 -11zM1021 562q-20 0 -33 12t-13 38q0 25 13 37t33 12q22 0 34 -13.5t12 -35.5q0 -23 -12 -36.5t-34 -13.5z
M1171 562q-21 0 -33.5 13t-12.5 37q0 23 12 36t34 13q23 0 34.5 -13.5t11.5 -35.5q0 -23 -12 -36.5t-34 -13.5zM273 -240q-68 0 -115 27.5t-70 81.5t-23 132q0 53 9.5 96t24.5 84h62q-14 -40 -21 -81.5t-7 -93.5q0 -62 16 -103.5t49 -62t85 -20.5h178q57 0 96.5 15.5t60 40
t20.5 49.5q0 26 -21.5 41t-66.5 27q-47 14 -82.5 27.5t-55.5 37t-20 63.5q0 29 9 56t24 51q22 36 53 62t67 41t72 15q19 0 36.5 -4t31.5 -12q27 -15 48 -40.5t48 -74.5q26 -46 48.5 -78.5t47.5 -50.5q18 -14 35.5 -20t37.5 -6h5q5 0 5 -4v-51q0 -5 -5 -5h-5q-25 0 -49 7
t-47 22t-48 38q-15 14 -30 36.5t-33 52.5q-21 35 -38 59t-34 39q-14 12 -30 18t-32 6q-27 0 -53 -14t-48 -36.5t-35 -48.5t-13 -50q0 -18 12.5 -30.5t32 -20.5t39.5 -14q33 -9 56.5 -17t41.5 -15q32 -15 49 -36t17 -49q0 -89 -62.5 -138t-184.5 -49h-188zM313 -426
q-20 0 -33 11.5t-13 37.5q0 27 13 38.5t33 11.5t33 -12.5t13 -37.5q0 -24 -12.5 -36.5t-33.5 -12.5zM465 -426q-21 0 -33 12.5t-12 36.5q0 25 12 37.5t33 12.5q22 0 34.5 -13.5t12.5 -36.5t-12.5 -36t-34.5 -13z" />
    <glyph glyph-name="uniFC15" unicode="&#xfc15;" horiz-adv-x="1173" arabic-form="isolated" 
d="M599 0q-5 0 -5 5v51q0 4 5 4h437q-22 26 -37.5 76.5t-28.5 123.5q-10 59 -24.5 97t-40 57t-69.5 19q-34 0 -69 -10.5t-75 -32.5l-27 53q42 27 83.5 38.5t88.5 11.5q32 0 57 -7t46 -20q37 -23 57.5 -66.5t33.5 -124.5q12 -66 23 -108.5t24 -67.5t30 -42v-57h-509z
M848 -199q-22 0 -34 12.5t-12 36.5t12.5 36.5t33.5 12.5q23 0 34.5 -13.5t11.5 -35.5t-11.5 -35.5t-34.5 -13.5zM604 0q-36 0 -65 13.5t-50.5 39t-39.5 59.5q-52 -15 -98.5 -31t-83 -34.5t-60.5 -41.5q-48 -29 -70.5 -62t-22.5 -73q0 -44 18 -74t55 -45t93 -15
q29 0 65.5 4.5t85.5 14.5l9 -54q-51 -12 -101 -18.5t-86 -6.5q-65 0 -111.5 22.5t-71.5 65t-25 101.5q0 33 9 62t27 54q27 40 74.5 72t115.5 60t157 54q-4 15 -9 35.5t-9 45.5q-9 58 -28.5 99t-52 63t-80.5 22q-40 0 -89.5 -15t-88.5 -37l-27 52q35 25 92 42.5t112 17.5
q62 0 107 -23.5t74 -73.5t41 -129q7 -42 15.5 -75.5t18.5 -56.5q16 -35 40 -54.5t60 -19.5h5q5 0 5 -4v-51q0 -5 -5 -5h-5z" />
    <glyph glyph-name="uniFC16" unicode="&#xfc16;" horiz-adv-x="1230" arabic-form="isolated" 
d="M656 0q-5 0 -5 5v51q0 4 5 4h437q-22 26 -37.5 76.5t-28.5 123.5q-10 59 -24.5 97t-40 57t-69.5 19q-34 0 -69 -10.5t-75 -32.5l-27 53q42 27 83.5 38.5t88.5 11.5q32 0 57 -7t46 -20q37 -23 57.5 -66.5t33.5 -124.5q12 -66 23 -108.5t24 -67.5t30 -42v-57h-509z
M905 -199q-22 0 -34 12.5t-12 36.5t12.5 36.5t33.5 12.5q23 0 34.5 -13.5t11.5 -35.5t-11.5 -35.5t-34.5 -13.5zM203 0q-38 0 -56 -17.5t-18 -55.5v-247h-64v255q0 39 13 67t39.5 43t67.5 15h8q-20 53 -30 101t-10 93q0 37 7.5 74t23.5 70q34 32 79.5 51t98.5 19
q30 0 56.5 -6.5t48.5 -19.5q44 -28 68 -78t24 -112q0 -35 -6 -70t-19 -62q23 -33 52 -46.5t75 -13.5h5q5 0 5 -4v-51q0 -5 -5 -5h-5q-53 0 -90 14.5t-71 51.5q-30 -34 -68.5 -50t-84.5 -16h-144zM221 267q0 -49 9 -99.5t32 -107.5h87q46 0 77.5 22.5t48 65.5t16.5 106
q0 69 -36 112t-92 43q-36 0 -67.5 -12t-60.5 -36q-8 -17 -11 -42t-3 -52z" />
    <glyph glyph-name="uniFC17" unicode="&#xfc17;" horiz-adv-x="1173" arabic-form="isolated" 
d="M599 0q-5 0 -5 5v51q0 4 5 4h437q-22 26 -37.5 76.5t-28.5 123.5q-10 59 -24.5 97t-40 57t-69.5 19q-34 0 -69 -10.5t-75 -32.5l-27 53q42 27 83.5 38.5t88.5 11.5q32 0 57 -7t46 -20q37 -23 57.5 -66.5t33.5 -124.5q12 -66 23 -108.5t24 -67.5t30 -42v-57h-509z
M245 -324q-61 0 -106 22.5t-69.5 65t-24.5 101.5q0 33 9 62t27 54q27 40 74.5 72t115.5 60t157 54q-4 15 -9 35.5t-9 45.5q-9 58 -28.5 99t-51.5 63t-80 22q-44 0 -91.5 -15t-85.5 -37l-27 53q23 16 56 29t71.5 21.5t75.5 8.5q61 0 106 -23.5t74 -73.5t41 -129
q7 -41 15.5 -74t17.5 -54q15 -37 39.5 -57.5t61.5 -20.5h5q5 0 5 -4v-51q0 -5 -5 -5h-5q-36 0 -65 13.5t-51 39t-39 59.5q-73 -21 -133 -43.5t-98 -50.5q-54 -32 -79 -68.5t-25 -79.5q0 -66 37.5 -100t108.5 -34zM415 -215q-22 0 -34 12.5t-12 36.5q0 25 12 37.5t34 12.5
q20 0 33 -13t13 -36q0 -24 -12.5 -37t-33.5 -13z" />
    <glyph glyph-name="uniFC18" unicode="&#xfc18;" horiz-adv-x="1230" arabic-form="isolated" 
d="M656 0q-5 0 -5 5v51q0 4 5 4h437q-22 26 -37.5 76.5t-28.5 123.5q-10 59 -24.5 97t-40 57t-69.5 19q-34 0 -69 -10.5t-75 -32.5l-27 53q42 27 83.5 38.5t88.5 11.5q32 0 57 -7t46 -20q37 -23 57.5 -66.5t33.5 -124.5q12 -66 23 -108.5t24 -67.5t30 -42v-57h-509zM203 0
q-38 0 -56 -17.5t-18 -55.5v-247h-64v255q0 39 13 67t39.5 43t67.5 15h8q-20 53 -30 101t-10 93q0 37 7.5 74t23.5 70q34 32 79.5 51t98.5 19q30 0 56.5 -6.5t48.5 -19.5q44 -28 68 -78t24 -112q0 -35 -6 -70t-19 -62q23 -33 52 -46.5t75 -13.5h5q5 0 5 -4v-51q0 -5 -5 -5
h-5q-53 0 -90 14.5t-71 51.5q-30 -34 -68.5 -50t-84.5 -16h-144zM221 267q0 -49 9 -99.5t32 -107.5h87q46 0 77.5 22.5t48 65.5t16.5 106q0 69 -36 112t-92 43q-36 0 -67.5 -12t-60.5 -36q-8 -17 -11 -42t-3 -52z" />
    <glyph glyph-name="uniFC19" unicode="&#xfc19;" horiz-adv-x="1173" arabic-form="isolated" 
d="M599 0q-5 0 -5 5v51q0 4 5 4h437q-22 26 -37.5 76.5t-28.5 123.5q-10 59 -24.5 97t-40 57t-69.5 19q-34 0 -69 -10.5t-75 -32.5l-27 53q42 27 83.5 38.5t88.5 11.5q32 0 57 -7t46 -20q37 -23 57.5 -66.5t33.5 -124.5q12 -66 23 -108.5t24 -67.5t30 -42v-57h-509zM815 609
q-22 0 -34 12.5t-12 36.5q0 25 12 37.5t34 12.5q20 0 33 -13t13 -36q0 -24 -12.5 -37t-33.5 -13zM245 -324q-61 0 -106 22.5t-69.5 65t-24.5 101.5q0 33 9 62t27 54q27 40 74.5 72t115.5 60t157 54q-4 15 -9 35.5t-9 45.5q-9 58 -28.5 99t-51.5 63t-80 22q-44 0 -91.5 -15
t-85.5 -37l-27 53q23 16 56 29t71.5 21.5t75.5 8.5q61 0 106 -23.5t74 -73.5t41 -129q7 -41 15.5 -74t17.5 -54q15 -37 39.5 -57.5t61.5 -20.5h5q5 0 5 -4v-51q0 -5 -5 -5h-5q-36 0 -65 13.5t-51 39t-39 59.5q-73 -21 -133 -43.5t-98 -50.5q-54 -32 -79 -68.5t-25 -79.5
q0 -66 37.5 -100t108.5 -34zM415 -215q-22 0 -34 12.5t-12 36.5q0 25 12 37.5t34 12.5q20 0 33 -13t13 -36q0 -24 -12.5 -37t-33.5 -13z" />
    <glyph glyph-name="uniFC1A" unicode="&#xfc1a;" horiz-adv-x="1173" arabic-form="isolated" 
d="M599 0q-5 0 -5 5v51q0 4 5 4h437q-22 26 -37.5 76.5t-28.5 123.5q-10 59 -24.5 97t-40 57t-69.5 19q-34 0 -69 -10.5t-75 -32.5l-27 53q42 27 83.5 38.5t88.5 11.5q32 0 57 -7t46 -20q37 -23 57.5 -66.5t33.5 -124.5q12 -66 23 -108.5t24 -67.5t30 -42v-57h-509zM815 609
q-22 0 -34 12.5t-12 36.5q0 25 12 37.5t34 12.5q20 0 33 -13t13 -36q0 -24 -12.5 -37t-33.5 -13zM604 0q-36 0 -65 13.5t-50.5 39t-39.5 59.5q-52 -15 -98.5 -31t-83 -34.5t-60.5 -41.5q-48 -29 -70.5 -62t-22.5 -73q0 -44 18 -74t55 -45t93 -15q29 0 65.5 4.5t85.5 14.5
l9 -54q-51 -12 -101 -18.5t-86 -6.5q-65 0 -111.5 22.5t-71.5 65t-25 101.5q0 33 9 62t27 54q27 40 74.5 72t115.5 60t157 54q-4 15 -9 35.5t-9 45.5q-9 58 -28.5 99t-52 63t-80.5 22q-40 0 -89.5 -15t-88.5 -37l-27 52q35 25 92 42.5t112 17.5q62 0 107 -23.5t74 -73.5
t41 -129q7 -42 15.5 -75.5t18.5 -56.5q16 -35 40 -54.5t60 -19.5h5q5 0 5 -4v-51q0 -5 -5 -5h-5z" />
    <glyph glyph-name="uniFC1B" unicode="&#xfc1b;" horiz-adv-x="1230" arabic-form="isolated" 
d="M656 0q-5 0 -5 5v51q0 4 5 4h437q-22 26 -37.5 76.5t-28.5 123.5q-10 59 -24.5 97t-40 57t-69.5 19q-34 0 -69 -10.5t-75 -32.5l-27 53q42 27 83.5 38.5t88.5 11.5q32 0 57 -7t46 -20q37 -23 57.5 -66.5t33.5 -124.5q12 -66 23 -108.5t24 -67.5t30 -42v-57h-509zM872 609
q-22 0 -34 12.5t-12 36.5q0 25 12 37.5t34 12.5q20 0 33 -13t13 -36q0 -24 -12.5 -37t-33.5 -13zM203 0q-38 0 -56 -17.5t-18 -55.5v-247h-64v255q0 39 13 67t39.5 43t67.5 15h8q-20 53 -30 101t-10 93q0 37 7.5 74t23.5 70q34 32 79.5 51t98.5 19q30 0 56.5 -6.5
t48.5 -19.5q44 -28 68 -78t24 -112q0 -35 -6 -70t-19 -62q23 -33 52 -46.5t75 -13.5h5q5 0 5 -4v-51q0 -5 -5 -5h-5q-53 0 -90 14.5t-71 51.5q-30 -34 -68.5 -50t-84.5 -16h-144zM221 267q0 -49 9 -99.5t32 -107.5h87q46 0 77.5 22.5t48 65.5t16.5 106q0 69 -36 112t-92 43
q-36 0 -67.5 -12t-60.5 -36q-8 -17 -11 -42t-3 -52z" />
    <glyph glyph-name="uniFC1C" unicode="&#xfc1c;" horiz-adv-x="1436" arabic-form="isolated" 
d="M1230 0q-45 0 -85 14.5t-75 54.5q-20 -31 -55.5 -50t-85.5 -19h-330q-5 0 -5 5v51q0 4 5 4h149v344h65v-344h113q49 0 77.5 31t28.5 82v231h65v-239q0 -7 -0.5 -15.5t-1.5 -16.5q25 -41 58 -57t78 -16h56v421l64 1v-482h-121zM245 -324q-61 0 -106 22.5t-69.5 65
t-24.5 101.5q0 33 9 62t27 54q27 40 74.5 72t115.5 60t157 54q-4 15 -9 35.5t-9 45.5q-9 58 -28.5 99t-51.5 63t-80 22q-44 0 -91.5 -15t-85.5 -37l-27 53q23 16 56 29t71.5 21.5t75.5 8.5q61 0 106 -23.5t74 -73.5t41 -129q7 -41 15.5 -74t17.5 -54q15 -37 39.5 -57.5
t61.5 -20.5h5q5 0 5 -4v-51q0 -5 -5 -5h-5q-36 0 -65 13.5t-51 39t-39 59.5q-73 -21 -133 -43.5t-98 -50.5q-54 -32 -79 -68.5t-25 -79.5q0 -66 37.5 -100t108.5 -34zM415 -215q-22 0 -34 12.5t-12 36.5q0 25 12 37.5t34 12.5q20 0 33 -13t13 -36q0 -24 -12.5 -37t-33.5 -13
z" />
    <glyph glyph-name="uniFC1D" unicode="&#xfc1d;" horiz-adv-x="1436" arabic-form="isolated" 
d="M1230 0q-45 0 -85 14.5t-75 54.5q-20 -31 -55.5 -50t-85.5 -19h-330q-5 0 -5 5v51q0 4 5 4h149v344h65v-344h113q49 0 77.5 31t28.5 82v231h65v-239q0 -7 -0.5 -15.5t-1.5 -16.5q25 -41 58 -57t78 -16h56v421l64 1v-482h-121zM604 0q-36 0 -65 13.5t-50.5 39t-39.5 59.5
q-52 -15 -98.5 -31t-83 -34.5t-60.5 -41.5q-48 -29 -70.5 -62t-22.5 -73q0 -44 18 -74t55 -45t93 -15q29 0 65.5 4.5t85.5 14.5l9 -54q-51 -12 -101 -18.5t-86 -6.5q-65 0 -111.5 22.5t-71.5 65t-25 101.5q0 33 9 62t27 54q27 40 74.5 72t115.5 60t157 54q-4 15 -9 35.5
t-9 45.5q-9 58 -28.5 99t-52 63t-80.5 22q-40 0 -89.5 -15t-88.5 -37l-27 52q35 25 92 42.5t112 17.5q62 0 107 -23.5t74 -73.5t41 -129q7 -42 15.5 -75.5t18.5 -56.5q16 -35 40 -54.5t60 -19.5h5q5 0 5 -4v-51q0 -5 -5 -5h-5z" />
    <glyph glyph-name="uniFC1E" unicode="&#xfc1e;" horiz-adv-x="1436" arabic-form="isolated" 
d="M1230 0q-45 0 -85 14.5t-75 54.5q-20 -31 -55.5 -50t-85.5 -19h-330q-5 0 -5 5v51q0 4 5 4h149v344h65v-344h113q49 0 77.5 31t28.5 82v231h65v-239q0 -7 -0.5 -15.5t-1.5 -16.5q25 -41 58 -57t78 -16h56v421l64 1v-482h-121zM604 0q-36 0 -65 13.5t-50.5 39t-39.5 59.5
q-52 -15 -98.5 -31t-83 -34.5t-60.5 -41.5q-48 -29 -70.5 -62t-22.5 -73q0 -44 18 -74t55 -45t93 -15q29 0 65.5 4.5t85.5 14.5l9 -54q-51 -12 -101 -18.5t-86 -6.5q-65 0 -111.5 22.5t-71.5 65t-25 101.5q0 33 9 62t27 54q27 40 74.5 72t115.5 60t157 54q-4 15 -9 35.5
t-9 45.5q-9 58 -28.5 99t-52 63t-80.5 22q-40 0 -89.5 -15t-88.5 -37l-27 52q35 25 92 42.5t112 17.5q62 0 107 -23.5t74 -73.5t41 -129q7 -42 15.5 -75.5t18.5 -56.5q16 -35 40 -54.5t60 -19.5h5q5 0 5 -4v-51q0 -5 -5 -5h-5zM229 599q-22 0 -34 12.5t-12 36.5
q0 25 12 37.5t34 12.5q20 0 33 -13t13 -36q0 -24 -12.5 -37t-33.5 -13z" />
    <glyph glyph-name="uniFC1F" unicode="&#xfc1f;" horiz-adv-x="1493" arabic-form="isolated" 
d="M1287 0q-45 0 -85 14.5t-75 54.5q-20 -31 -55.5 -50t-85.5 -19h-330q-5 0 -5 5v51q0 4 5 4h149v344h65v-344h113q49 0 77.5 31t28.5 82v231h65v-239q0 -7 -0.5 -15.5t-1.5 -16.5q25 -41 58 -57t78 -16h56v421l64 1v-482h-121zM203 0q-38 0 -56 -17.5t-18 -55.5v-247h-64
v255q0 39 13 67t39.5 43t67.5 15h8q-20 53 -30 101t-10 93q0 37 7.5 74t23.5 70q34 32 79.5 51t98.5 19q30 0 56.5 -6.5t48.5 -19.5q44 -28 68 -78t24 -112q0 -35 -6 -70t-19 -62q23 -33 52 -46.5t75 -13.5h5q5 0 5 -4v-51q0 -5 -5 -5h-5q-53 0 -90 14.5t-71 51.5
q-30 -34 -68.5 -50t-84.5 -16h-144zM221 267q0 -49 9 -99.5t32 -107.5h87q46 0 77.5 22.5t48 65.5t16.5 106q0 69 -36 112t-92 43q-36 0 -67.5 -12t-60.5 -36q-8 -17 -11 -42t-3 -52z" />
    <glyph glyph-name="uniFC20" unicode="&#xfc20;" horiz-adv-x="1362" arabic-form="isolated" 
d="M599 0q-5 0 -5 5v51q0 4 5 4h122v382h65v-196q30 83 73.5 137.5t97 81.5t110.5 27q107 0 163 -60t56 -185v-247h-687zM1222 60v180q0 99 -41.5 145t-124.5 46q-53 0 -102 -29.5t-91.5 -91.5t-76.5 -160v-90h436zM604 0q-36 0 -65 13.5t-50.5 39t-39.5 59.5
q-52 -15 -98.5 -31t-83 -34.5t-60.5 -41.5q-48 -29 -70.5 -62t-22.5 -73q0 -44 18 -74t55 -45t93 -15q29 0 65.5 4.5t85.5 14.5l9 -54q-51 -12 -101 -18.5t-86 -6.5q-65 0 -111.5 22.5t-71.5 65t-25 101.5q0 33 9 62t27 54q27 40 74.5 72t115.5 60t157 54q-4 15 -9 35.5
t-9 45.5q-9 58 -28.5 99t-52 63t-80.5 22q-40 0 -89.5 -15t-88.5 -37l-27 52q35 25 92 42.5t112 17.5q62 0 107 -23.5t74 -73.5t41 -129q7 -42 15.5 -75.5t18.5 -56.5q16 -35 40 -54.5t60 -19.5h5q5 0 5 -4v-51q0 -5 -5 -5h-5z" />
    <glyph glyph-name="uniFC21" unicode="&#xfc21;" horiz-adv-x="1419" arabic-form="isolated" 
d="M656 0q-5 0 -5 5v51q0 4 5 4h122v382h65v-196q30 83 73.5 137.5t97 81.5t110.5 27q107 0 163 -60t56 -185v-247h-687zM1279 60v180q0 99 -41.5 145t-124.5 46q-53 0 -102 -29.5t-91.5 -91.5t-76.5 -160v-90h436zM203 0q-38 0 -56 -17.5t-18 -55.5v-247h-64v255
q0 39 13 67t39.5 43t67.5 15h8q-20 53 -30 101t-10 93q0 37 7.5 74t23.5 70q34 32 79.5 51t98.5 19q30 0 56.5 -6.5t48.5 -19.5q44 -28 68 -78t24 -112q0 -35 -6 -70t-19 -62q23 -33 52 -46.5t75 -13.5h5q5 0 5 -4v-51q0 -5 -5 -5h-5q-53 0 -90 14.5t-71 51.5
q-30 -34 -68.5 -50t-84.5 -16h-144zM221 267q0 -49 9 -99.5t32 -107.5h87q46 0 77.5 22.5t48 65.5t16.5 106q0 69 -36 112t-92 43q-36 0 -67.5 -12t-60.5 -36q-8 -17 -11 -42t-3 -52z" />
    <glyph glyph-name="uniFC22" unicode="&#xfc22;" horiz-adv-x="1362" arabic-form="isolated" 
d="M599 0q-5 0 -5 5v51q0 4 5 4h122v382h65v-196q30 83 73.5 137.5t97 81.5t110.5 27q107 0 163 -60t56 -185v-247h-687zM1222 60v180q0 99 -41.5 145t-124.5 46q-53 0 -102 -29.5t-91.5 -91.5t-76.5 -160v-90h436zM1027 626q-22 0 -34 12.5t-12 36.5q0 25 12 37.5t34 12.5
q20 0 33 -13t13 -36q0 -24 -12.5 -37t-33.5 -13zM245 -324q-61 0 -106 22.5t-69.5 65t-24.5 101.5q0 33 9 62t27 54q27 40 74.5 72t115.5 60t157 54q-4 15 -9 35.5t-9 45.5q-9 58 -28.5 99t-51.5 63t-80 22q-44 0 -91.5 -15t-85.5 -37l-27 53q23 16 56 29t71.5 21.5
t75.5 8.5q61 0 106 -23.5t74 -73.5t41 -129q7 -41 15.5 -74t17.5 -54q15 -37 39.5 -57.5t61.5 -20.5h5q5 0 5 -4v-51q0 -5 -5 -5h-5q-36 0 -65 13.5t-51 39t-39 59.5q-73 -21 -133 -43.5t-98 -50.5q-54 -32 -79 -68.5t-25 -79.5q0 -66 37.5 -100t108.5 -34zM415 -215
q-22 0 -34 12.5t-12 36.5q0 25 12 37.5t34 12.5q20 0 33 -13t13 -36q0 -24 -12.5 -37t-33.5 -13z" />
    <glyph glyph-name="uniFC23" unicode="&#xfc23;" horiz-adv-x="1362" arabic-form="isolated" 
d="M599 0q-5 0 -5 5v51q0 4 5 4h122v382h65v-196q30 83 73.5 137.5t97 81.5t110.5 27q107 0 163 -60t56 -185v-247h-687zM1222 60v180q0 99 -41.5 145t-124.5 46q-53 0 -102 -29.5t-91.5 -91.5t-76.5 -160v-90h436zM1027 626q-22 0 -34 12.5t-12 36.5q0 25 12 37.5t34 12.5
q20 0 33 -13t13 -36q0 -24 -12.5 -37t-33.5 -13zM604 0q-36 0 -65 13.5t-50.5 39t-39.5 59.5q-52 -15 -98.5 -31t-83 -34.5t-60.5 -41.5q-48 -29 -70.5 -62t-22.5 -73q0 -44 18 -74t55 -45t93 -15q29 0 65.5 4.5t85.5 14.5l9 -54q-51 -12 -101 -18.5t-86 -6.5
q-65 0 -111.5 22.5t-71.5 65t-25 101.5q0 33 9 62t27 54q27 40 74.5 72t115.5 60t157 54q-4 15 -9 35.5t-9 45.5q-9 58 -28.5 99t-52 63t-80.5 22q-40 0 -89.5 -15t-88.5 -37l-27 52q35 25 92 42.5t112 17.5q62 0 107 -23.5t74 -73.5t41 -129q7 -42 15.5 -75.5t18.5 -56.5
q16 -35 40 -54.5t60 -19.5h5q5 0 5 -4v-51q0 -5 -5 -5h-5z" />
    <glyph glyph-name="uniFC24" unicode="&#xfc24;" horiz-adv-x="1362" arabic-form="isolated" 
d="M599 0q-5 0 -5 5v51q0 4 5 4h122v382h65v-196q30 83 73.5 137.5t97 81.5t110.5 27q107 0 163 -60t56 -185v-247h-687zM1222 60v180q0 99 -41.5 145t-124.5 46q-53 0 -102 -29.5t-91.5 -91.5t-76.5 -160v-90h436zM1027 626q-22 0 -34 12.5t-12 36.5q0 25 12 37.5t34 12.5
q20 0 33 -13t13 -36q0 -24 -12.5 -37t-33.5 -13zM604 0q-36 0 -65 13.5t-50.5 39t-39.5 59.5q-52 -15 -98.5 -31t-83 -34.5t-60.5 -41.5q-48 -29 -70.5 -62t-22.5 -73q0 -44 18 -74t55 -45t93 -15q29 0 65.5 4.5t85.5 14.5l9 -54q-51 -12 -101 -18.5t-86 -6.5
q-65 0 -111.5 22.5t-71.5 65t-25 101.5q0 33 9 62t27 54q27 40 74.5 72t115.5 60t157 54q-4 15 -9 35.5t-9 45.5q-9 58 -28.5 99t-52 63t-80.5 22q-40 0 -89.5 -15t-88.5 -37l-27 52q35 25 92 42.5t112 17.5q62 0 107 -23.5t74 -73.5t41 -129q7 -42 15.5 -75.5t18.5 -56.5
q16 -35 40 -54.5t60 -19.5h5q5 0 5 -4v-51q0 -5 -5 -5h-5zM229 599q-22 0 -34 12.5t-12 36.5q0 25 12 37.5t34 12.5q20 0 33 -13t13 -36q0 -24 -12.5 -37t-33.5 -13z" />
    <glyph glyph-name="uniFC25" unicode="&#xfc25;" horiz-adv-x="1419" arabic-form="isolated" 
d="M656 0q-5 0 -5 5v51q0 4 5 4h122v382h65v-196q30 83 73.5 137.5t97 81.5t110.5 27q107 0 163 -60t56 -185v-247h-687zM1279 60v180q0 99 -41.5 145t-124.5 46q-53 0 -102 -29.5t-91.5 -91.5t-76.5 -160v-90h436zM1084 626q-22 0 -34 12.5t-12 36.5q0 25 12 37.5t34 12.5
q20 0 33 -13t13 -36q0 -24 -12.5 -37t-33.5 -13zM203 0q-38 0 -56 -17.5t-18 -55.5v-247h-64v255q0 39 13 67t39.5 43t67.5 15h8q-20 53 -30 101t-10 93q0 37 7.5 74t23.5 70q34 32 79.5 51t98.5 19q30 0 56.5 -6.5t48.5 -19.5q44 -28 68 -78t24 -112q0 -35 -6 -70t-19 -62
q23 -33 52 -46.5t75 -13.5h5q5 0 5 -4v-51q0 -5 -5 -5h-5q-53 0 -90 14.5t-71 51.5q-30 -34 -68.5 -50t-84.5 -16h-144zM221 267q0 -49 9 -99.5t32 -107.5h87q46 0 77.5 22.5t48 65.5t16.5 106q0 69 -36 112t-92 43q-36 0 -67.5 -12t-60.5 -36q-8 -17 -11 -42t-3 -52z" />
    <glyph glyph-name="uniFC26" unicode="&#xfc26;" horiz-adv-x="1339" arabic-form="isolated" 
d="M599 0q-5 0 -5 5v51q0 4 5 4h113v700h65v-514q30 83 73.5 137.5t97 81.5t110.5 27q107 0 163 -60t56 -185v-247h-678zM1213 60v180q0 99 -41.5 145t-124.5 46q-53 0 -102 -29.5t-91.5 -91.5t-76.5 -160v-90h436zM604 0q-36 0 -65 13.5t-50.5 39t-39.5 59.5
q-52 -15 -98.5 -31t-83 -34.5t-60.5 -41.5q-48 -29 -70.5 -62t-22.5 -73q0 -44 18 -74t55 -45t93 -15q29 0 65.5 4.5t85.5 14.5l9 -54q-51 -12 -101 -18.5t-86 -6.5q-65 0 -111.5 22.5t-71.5 65t-25 101.5q0 33 9 62t27 54q27 40 74.5 72t115.5 60t157 54q-4 15 -9 35.5
t-9 45.5q-9 58 -28.5 99t-52 63t-80.5 22q-40 0 -89.5 -15t-88.5 -37l-27 52q35 25 92 42.5t112 17.5q62 0 107 -23.5t74 -73.5t41 -129q7 -42 15.5 -75.5t18.5 -56.5q16 -35 40 -54.5t60 -19.5h5q5 0 5 -4v-51q0 -5 -5 -5h-5z" />
    <glyph glyph-name="uniFC27" unicode="&#xfc27;" horiz-adv-x="1396" arabic-form="isolated" 
d="M656 0q-5 0 -5 5v51q0 4 5 4h113v700h65v-514q30 83 73.5 137.5t97 81.5t110.5 27q107 0 163 -60t56 -185v-247h-678zM1270 60v180q0 99 -41.5 145t-124.5 46q-53 0 -102 -29.5t-91.5 -91.5t-76.5 -160v-90h436zM203 0q-38 0 -56 -17.5t-18 -55.5v-247h-64v255
q0 39 13 67t39.5 43t67.5 15h8q-20 53 -30 101t-10 93q0 37 7.5 74t23.5 70q34 32 79.5 51t98.5 19q30 0 56.5 -6.5t48.5 -19.5q44 -28 68 -78t24 -112q0 -35 -6 -70t-19 -62q23 -33 52 -46.5t75 -13.5h5q5 0 5 -4v-51q0 -5 -5 -5h-5q-53 0 -90 14.5t-71 51.5
q-30 -34 -68.5 -50t-84.5 -16h-144zM221 267q0 -49 9 -99.5t32 -107.5h87q46 0 77.5 22.5t48 65.5t16.5 106q0 69 -36 112t-92 43q-36 0 -67.5 -12t-60.5 -36q-8 -17 -11 -42t-3 -52z" />
    <glyph glyph-name="uniFC28" unicode="&#xfc28;" horiz-adv-x="1396" arabic-form="isolated" 
d="M656 0q-5 0 -5 5v51q0 4 5 4h113v700h65v-514q30 83 73.5 137.5t97 81.5t110.5 27q107 0 163 -60t56 -185v-247h-678zM1270 60v180q0 99 -41.5 145t-124.5 46q-53 0 -102 -29.5t-91.5 -91.5t-76.5 -160v-90h436zM1105 632q-22 0 -34 12.5t-12 36.5q0 25 12 37.5t34 12.5
q20 0 33 -13t13 -36q0 -24 -12.5 -37t-33.5 -13zM203 0q-38 0 -56 -17.5t-18 -55.5v-247h-64v255q0 39 13 67t39.5 43t67.5 15h8q-20 53 -30 101t-10 93q0 37 7.5 74t23.5 70q34 32 79.5 51t98.5 19q30 0 56.5 -6.5t48.5 -19.5q44 -28 68 -78t24 -112q0 -35 -6 -70t-19 -62
q23 -33 52 -46.5t75 -13.5h5q5 0 5 -4v-51q0 -5 -5 -5h-5q-53 0 -90 14.5t-71 51.5q-30 -34 -68.5 -50t-84.5 -16h-144zM221 267q0 -49 9 -99.5t32 -107.5h87q46 0 77.5 22.5t48 65.5t16.5 106q0 69 -36 112t-92 43q-36 0 -67.5 -12t-60.5 -36q-8 -17 -11 -42t-3 -52z" />
    <glyph glyph-name="uniFC29" unicode="&#xfc29;" horiz-adv-x="1101" arabic-form="isolated" 
d="M599 0q-5 0 -5 5v51q0 4 5 4h165q-25 19 -43 49t-28 67t-10 77q0 76 29 129t80.5 81.5t118.5 28.5q39 0 73 -8.5t56 -19.5l-22 -57q-28 12 -55.5 18.5t-55.5 6.5q-49 0 -84 -21.5t-53 -62t-18 -98.5q0 -56 17.5 -99t47.5 -67t67 -24h173v-60h-458zM245 -324
q-61 0 -106 22.5t-69.5 65t-24.5 101.5q0 33 9 62t27 54q27 40 74.5 72t115.5 60t157 54q-4 15 -9 35.5t-9 45.5q-9 58 -28.5 99t-51.5 63t-80 22q-44 0 -91.5 -15t-85.5 -37l-27 53q23 16 56 29t71.5 21.5t75.5 8.5q61 0 106 -23.5t74 -73.5t41 -129q7 -41 15.5 -74
t17.5 -54q15 -37 39.5 -57.5t61.5 -20.5h5q5 0 5 -4v-51q0 -5 -5 -5h-5q-36 0 -65 13.5t-51 39t-39 59.5q-73 -21 -133 -43.5t-98 -50.5q-54 -32 -79 -68.5t-25 -79.5q0 -66 37.5 -100t108.5 -34zM415 -215q-22 0 -34 12.5t-12 36.5q0 25 12 37.5t34 12.5q20 0 33 -13
t13 -36q0 -24 -12.5 -37t-33.5 -13z" />
    <glyph glyph-name="uniFC2A" unicode="&#xfc2a;" horiz-adv-x="1158" arabic-form="isolated" 
d="M656 0q-5 0 -5 5v51q0 4 5 4h165q-25 19 -43 49t-28 67t-10 77q0 76 29 129t80.5 81.5t118.5 28.5q39 0 73 -8.5t56 -19.5l-22 -57q-28 12 -55.5 18.5t-55.5 6.5q-49 0 -84 -21.5t-53 -62t-18 -98.5q0 -56 17.5 -99t47.5 -67t67 -24h173v-60h-458zM203 0q-38 0 -56 -17.5
t-18 -55.5v-247h-64v255q0 39 13 67t39.5 43t67.5 15h8q-20 53 -30 101t-10 93q0 37 7.5 74t23.5 70q34 32 79.5 51t98.5 19q30 0 56.5 -6.5t48.5 -19.5q44 -28 68 -78t24 -112q0 -35 -6 -70t-19 -62q23 -33 52 -46.5t75 -13.5h5q5 0 5 -4v-51q0 -5 -5 -5h-5q-53 0 -90 14.5
t-71 51.5q-30 -34 -68.5 -50t-84.5 -16h-144zM221 267q0 -49 9 -99.5t32 -107.5h87q46 0 77.5 22.5t48 65.5t16.5 106q0 69 -36 112t-92 43q-36 0 -67.5 -12t-60.5 -36q-8 -17 -11 -42t-3 -52z" />
    <glyph glyph-name="uniFC2B" unicode="&#xfc2b;" horiz-adv-x="1101" arabic-form="isolated" 
d="M599 0q-5 0 -5 5v51q0 4 5 4h165q-25 19 -43 49t-28 67t-10 77q0 76 29 129t80.5 81.5t118.5 28.5q39 0 73 -8.5t56 -19.5l-22 -57q-28 12 -55.5 18.5t-55.5 6.5q-49 0 -84 -21.5t-53 -62t-18 -98.5q0 -56 17.5 -99t47.5 -67t67 -24h173v-60h-458zM880 591
q-22 0 -34 12.5t-12 36.5q0 25 12 37.5t34 12.5q20 0 33 -13t13 -36q0 -24 -12.5 -37t-33.5 -13zM245 -324q-61 0 -106 22.5t-69.5 65t-24.5 101.5q0 33 9 62t27 54q27 40 74.5 72t115.5 60t157 54q-4 15 -9 35.5t-9 45.5q-9 58 -28.5 99t-51.5 63t-80 22q-44 0 -91.5 -15
t-85.5 -37l-27 53q23 16 56 29t71.5 21.5t75.5 8.5q61 0 106 -23.5t74 -73.5t41 -129q7 -41 15.5 -74t17.5 -54q15 -37 39.5 -57.5t61.5 -20.5h5q5 0 5 -4v-51q0 -5 -5 -5h-5q-36 0 -65 13.5t-51 39t-39 59.5q-73 -21 -133 -43.5t-98 -50.5q-54 -32 -79 -68.5t-25 -79.5
q0 -66 37.5 -100t108.5 -34zM415 -215q-22 0 -34 12.5t-12 36.5q0 25 12 37.5t34 12.5q20 0 33 -13t13 -36q0 -24 -12.5 -37t-33.5 -13z" />
    <glyph glyph-name="uniFC2C" unicode="&#xfc2c;" horiz-adv-x="1158" arabic-form="isolated" 
d="M656 0q-5 0 -5 5v51q0 4 5 4h165q-25 19 -43 49t-28 67t-10 77q0 76 29 129t80.5 81.5t118.5 28.5q39 0 73 -8.5t56 -19.5l-22 -57q-28 12 -55.5 18.5t-55.5 6.5q-49 0 -84 -21.5t-53 -62t-18 -98.5q0 -56 17.5 -99t47.5 -67t67 -24h173v-60h-458zM937 591
q-22 0 -34 12.5t-12 36.5q0 25 12 37.5t34 12.5q20 0 33 -13t13 -36q0 -24 -12.5 -37t-33.5 -13zM203 0q-38 0 -56 -17.5t-18 -55.5v-247h-64v255q0 39 13 67t39.5 43t67.5 15h8q-20 53 -30 101t-10 93q0 37 7.5 74t23.5 70q34 32 79.5 51t98.5 19q30 0 56.5 -6.5
t48.5 -19.5q44 -28 68 -78t24 -112q0 -35 -6 -70t-19 -62q23 -33 52 -46.5t75 -13.5h5q5 0 5 -4v-51q0 -5 -5 -5h-5q-53 0 -90 14.5t-71 51.5q-30 -34 -68.5 -50t-84.5 -16h-144zM221 267q0 -49 9 -99.5t32 -107.5h87q46 0 77.5 22.5t48 65.5t16.5 106q0 69 -36 112t-92 43
q-36 0 -67.5 -12t-60.5 -36q-8 -17 -11 -42t-3 -52z" />
    <glyph glyph-name="uniFC2D" unicode="&#xfc2d;" horiz-adv-x="1169" arabic-form="isolated" 
d="M599 0q-5 0 -5 5v51q0 4 5 4h163q-20 18 -33.5 45t-20.5 57.5t-7 59.5q0 79 33 137t93 90.5t142 32.5h115v-482h-485zM902 60h118v362h-48q-63 0 -109 -24.5t-70.5 -68.5t-24.5 -105q0 -54 16.5 -91t46.5 -55t71 -18zM924 609q-22 0 -34 12.5t-12 36.5q0 25 12 37.5
t34 12.5q20 0 33 -13t13 -36q0 -24 -12.5 -37t-33.5 -13zM245 -324q-61 0 -106 22.5t-69.5 65t-24.5 101.5q0 33 9 62t27 54q27 40 74.5 72t115.5 60t157 54q-4 15 -9 35.5t-9 45.5q-9 58 -28.5 99t-51.5 63t-80 22q-44 0 -91.5 -15t-85.5 -37l-27 53q23 16 56 29t71.5 21.5
t75.5 8.5q61 0 106 -23.5t74 -73.5t41 -129q7 -41 15.5 -74t17.5 -54q15 -37 39.5 -57.5t61.5 -20.5h5q5 0 5 -4v-51q0 -5 -5 -5h-5q-36 0 -65 13.5t-51 39t-39 59.5q-73 -21 -133 -43.5t-98 -50.5q-54 -32 -79 -68.5t-25 -79.5q0 -66 37.5 -100t108.5 -34zM415 -215
q-22 0 -34 12.5t-12 36.5q0 25 12 37.5t34 12.5q20 0 33 -13t13 -36q0 -24 -12.5 -37t-33.5 -13z" />
    <glyph glyph-name="uniFC2E" unicode="&#xfc2e;" horiz-adv-x="1169" arabic-form="isolated" 
d="M599 0q-5 0 -5 5v51q0 4 5 4h163q-20 18 -33.5 45t-20.5 57.5t-7 59.5q0 79 33 137t93 90.5t142 32.5h115v-482h-485zM902 60h118v362h-48q-63 0 -109 -24.5t-70.5 -68.5t-24.5 -105q0 -54 16.5 -91t46.5 -55t71 -18zM924 609q-22 0 -34 12.5t-12 36.5q0 25 12 37.5
t34 12.5q20 0 33 -13t13 -36q0 -24 -12.5 -37t-33.5 -13zM604 0q-36 0 -65 13.5t-50.5 39t-39.5 59.5q-52 -15 -98.5 -31t-83 -34.5t-60.5 -41.5q-48 -29 -70.5 -62t-22.5 -73q0 -44 18 -74t55 -45t93 -15q29 0 65.5 4.5t85.5 14.5l9 -54q-51 -12 -101 -18.5t-86 -6.5
q-65 0 -111.5 22.5t-71.5 65t-25 101.5q0 33 9 62t27 54q27 40 74.5 72t115.5 60t157 54q-4 15 -9 35.5t-9 45.5q-9 58 -28.5 99t-52 63t-80.5 22q-40 0 -89.5 -15t-88.5 -37l-27 52q35 25 92 42.5t112 17.5q62 0 107 -23.5t74 -73.5t41 -129q7 -42 15.5 -75.5t18.5 -56.5
q16 -35 40 -54.5t60 -19.5h5q5 0 5 -4v-51q0 -5 -5 -5h-5z" />
    <glyph glyph-name="uniFC2F" unicode="&#xfc2f;" horiz-adv-x="1169" arabic-form="isolated" 
d="M599 0q-5 0 -5 5v51q0 4 5 4h163q-20 18 -33.5 45t-20.5 57.5t-7 59.5q0 79 33 137t93 90.5t142 32.5h115v-482h-485zM902 60h118v362h-48q-63 0 -109 -24.5t-70.5 -68.5t-24.5 -105q0 -54 16.5 -91t46.5 -55t71 -18zM924 609q-22 0 -34 12.5t-12 36.5q0 25 12 37.5
t34 12.5q20 0 33 -13t13 -36q0 -24 -12.5 -37t-33.5 -13zM604 0q-36 0 -65 13.5t-50.5 39t-39.5 59.5q-52 -15 -98.5 -31t-83 -34.5t-60.5 -41.5q-48 -29 -70.5 -62t-22.5 -73q0 -44 18 -74t55 -45t93 -15q29 0 65.5 4.5t85.5 14.5l9 -54q-51 -12 -101 -18.5t-86 -6.5
q-65 0 -111.5 22.5t-71.5 65t-25 101.5q0 33 9 62t27 54q27 40 74.5 72t115.5 60t157 54q-4 15 -9 35.5t-9 45.5q-9 58 -28.5 99t-52 63t-80.5 22q-40 0 -89.5 -15t-88.5 -37l-27 52q35 25 92 42.5t112 17.5q62 0 107 -23.5t74 -73.5t41 -129q7 -42 15.5 -75.5t18.5 -56.5
q16 -35 40 -54.5t60 -19.5h5q5 0 5 -4v-51q0 -5 -5 -5h-5zM229 599q-22 0 -34 12.5t-12 36.5q0 25 12 37.5t34 12.5q20 0 33 -13t13 -36q0 -24 -12.5 -37t-33.5 -13z" />
    <glyph glyph-name="uniFC30" unicode="&#xfc30;" horiz-adv-x="1226" arabic-form="isolated" 
d="M656 0q-5 0 -5 5v51q0 4 5 4h163q-20 18 -33.5 45t-20.5 57.5t-7 59.5q0 79 33 137t93 90.5t142 32.5h115v-482h-485zM959 60h118v362h-48q-63 0 -109 -24.5t-70.5 -68.5t-24.5 -105q0 -54 16.5 -91t46.5 -55t71 -18zM981 609q-22 0 -34 12.5t-12 36.5q0 25 12 37.5
t34 12.5q20 0 33 -13t13 -36q0 -24 -12.5 -37t-33.5 -13zM203 0q-38 0 -56 -17.5t-18 -55.5v-247h-64v255q0 39 13 67t39.5 43t67.5 15h8q-20 53 -30 101t-10 93q0 37 7.5 74t23.5 70q34 32 79.5 51t98.5 19q30 0 56.5 -6.5t48.5 -19.5q44 -28 68 -78t24 -112q0 -35 -6 -70
t-19 -62q23 -33 52 -46.5t75 -13.5h5q5 0 5 -4v-51q0 -5 -5 -5h-5q-53 0 -90 14.5t-71 51.5q-30 -34 -68.5 -50t-84.5 -16h-144zM221 267q0 -49 9 -99.5t32 -107.5h87q46 0 77.5 22.5t48 65.5t16.5 106q0 69 -36 112t-92 43q-36 0 -67.5 -12t-60.5 -36q-8 -17 -11 -42
t-3 -52z" />
    <glyph glyph-name="uniFC31" unicode="&#xfc31;" horiz-adv-x="1515" arabic-form="isolated" 
d="M945 0q-5 0 -5 5v51q0 4 5 4h163q-20 18 -33.5 45t-20.5 57.5t-7 59.5q0 79 33 137t93 90.5t142 32.5h115v-482h-485zM1248 60h118v362h-48q-63 0 -109 -24.5t-70.5 -68.5t-24.5 -105q0 -54 16.5 -91t46.5 -55t71 -18zM1270 609q-22 0 -34 12.5t-12 36.5q0 25 12 37.5
t34 12.5q20 0 33 -13t13 -36q0 -24 -12.5 -37t-33.5 -13zM273 -240q-68 0 -115 27.5t-70 81.5t-23 132q0 53 9.5 96t24.5 84h62q-14 -40 -21 -81.5t-7 -93.5q0 -62 16 -103.5t49 -62t85 -20.5h178q57 0 96.5 15.5t60 40t20.5 49.5q0 26 -21.5 41t-66.5 27q-47 14 -82.5 27.5
t-55.5 37t-20 63.5q0 29 9 56t24 51q22 36 53 62t67 41t72 15q19 0 36.5 -4t31.5 -12q27 -15 48 -40.5t48 -74.5q26 -46 48.5 -78.5t47.5 -50.5q18 -14 35.5 -20t37.5 -6h5q5 0 5 -4v-51q0 -5 -5 -5h-5q-25 0 -49 7t-47 22t-48 38q-15 14 -30 36.5t-33 52.5q-21 35 -38 59
t-34 39q-14 12 -30 18t-32 6q-27 0 -53 -14t-48 -36.5t-35 -48.5t-13 -50q0 -18 12.5 -30.5t32 -20.5t39.5 -14q33 -9 56.5 -17t41.5 -15q32 -15 49 -36t17 -49q0 -89 -62.5 -138t-184.5 -49h-188z" />
    <glyph glyph-name="uniFC32" unicode="&#xfc32;" horiz-adv-x="1515" arabic-form="isolated" 
d="M945 0q-5 0 -5 5v51q0 4 5 4h163q-20 18 -33.5 45t-20.5 57.5t-7 59.5q0 79 33 137t93 90.5t142 32.5h115v-482h-485zM1248 60h118v362h-48q-63 0 -109 -24.5t-70.5 -68.5t-24.5 -105q0 -54 16.5 -91t46.5 -55t71 -18zM1270 609q-22 0 -34 12.5t-12 36.5q0 25 12 37.5
t34 12.5q20 0 33 -13t13 -36q0 -24 -12.5 -37t-33.5 -13zM273 -240q-68 0 -115 27.5t-70 81.5t-23 132q0 53 9.5 96t24.5 84h62q-14 -40 -21 -81.5t-7 -93.5q0 -62 16 -103.5t49 -62t85 -20.5h178q57 0 96.5 15.5t60 40t20.5 49.5q0 26 -21.5 41t-66.5 27q-47 14 -82.5 27.5
t-55.5 37t-20 63.5q0 29 9 56t24 51q22 36 53 62t67 41t72 15q19 0 36.5 -4t31.5 -12q27 -15 48 -40.5t48 -74.5q26 -46 48.5 -78.5t47.5 -50.5q18 -14 35.5 -20t37.5 -6h5q5 0 5 -4v-51q0 -5 -5 -5h-5q-25 0 -49 7t-47 22t-48 38q-15 14 -30 36.5t-33 52.5q-21 35 -38 59
t-34 39q-14 12 -30 18t-32 6q-27 0 -53 -14t-48 -36.5t-35 -48.5t-13 -50q0 -18 12.5 -30.5t32 -20.5t39.5 -14q33 -9 56.5 -17t41.5 -15q32 -15 49 -36t17 -49q0 -89 -62.5 -138t-184.5 -49h-188zM313 -426q-20 0 -33 11.5t-13 37.5q0 27 13 38.5t33 11.5t33 -12.5
t13 -37.5q0 -24 -12.5 -36.5t-33.5 -12.5zM465 -426q-21 0 -33 12.5t-12 36.5q0 25 12 37.5t33 12.5q22 0 34.5 -13.5t12.5 -36.5t-12.5 -36t-34.5 -13z" />
    <glyph glyph-name="uniFC33" unicode="&#xfc33;" horiz-adv-x="1169" arabic-form="isolated" 
d="M599 0q-5 0 -5 5v51q0 4 5 4h163q-20 18 -33.5 45t-20.5 57.5t-7 59.5q0 79 33 137t93 90.5t142 32.5h115v-482h-485zM902 60h118v362h-48q-63 0 -109 -24.5t-70.5 -68.5t-24.5 -105q0 -54 16.5 -91t46.5 -55t71 -18zM844 620q-18 0 -32 11t-14 38t14 38.5t32 11.5
q21 0 33.5 -13t12.5 -37t-12 -36.5t-34 -12.5zM994 620q-21 0 -33.5 12.5t-12.5 36.5t12.5 37t33.5 13q23 0 34.5 -14t11.5 -36t-11.5 -35.5t-34.5 -13.5zM604 0q-36 0 -65 13.5t-50.5 39t-39.5 59.5q-52 -15 -98.5 -31t-83 -34.5t-60.5 -41.5q-48 -29 -70.5 -62t-22.5 -73
q0 -44 18 -74t55 -45t93 -15q29 0 65.5 4.5t85.5 14.5l9 -54q-51 -12 -101 -18.5t-86 -6.5q-65 0 -111.5 22.5t-71.5 65t-25 101.5q0 33 9 62t27 54q27 40 74.5 72t115.5 60t157 54q-4 15 -9 35.5t-9 45.5q-9 58 -28.5 99t-52 63t-80.5 22q-40 0 -89.5 -15t-88.5 -37l-27 52
q35 25 92 42.5t112 17.5q62 0 107 -23.5t74 -73.5t41 -129q7 -42 15.5 -75.5t18.5 -56.5q16 -35 40 -54.5t60 -19.5h5q5 0 5 -4v-51q0 -5 -5 -5h-5z" />
    <glyph glyph-name="uniFC34" unicode="&#xfc34;" horiz-adv-x="1226" arabic-form="isolated" 
d="M656 0q-5 0 -5 5v51q0 4 5 4h163q-20 18 -33.5 45t-20.5 57.5t-7 59.5q0 79 33 137t93 90.5t142 32.5h115v-482h-485zM959 60h118v362h-48q-63 0 -109 -24.5t-70.5 -68.5t-24.5 -105q0 -54 16.5 -91t46.5 -55t71 -18zM901 620q-18 0 -32 11t-14 38t14 38.5t32 11.5
q21 0 33.5 -13t12.5 -37t-12 -36.5t-34 -12.5zM1051 620q-21 0 -33.5 12.5t-12.5 36.5t12.5 37t33.5 13q23 0 34.5 -14t11.5 -36t-11.5 -35.5t-34.5 -13.5zM203 0q-38 0 -56 -17.5t-18 -55.5v-247h-64v255q0 39 13 67t39.5 43t67.5 15h8q-20 53 -30 101t-10 93q0 37 7.5 74
t23.5 70q34 32 79.5 51t98.5 19q30 0 56.5 -6.5t48.5 -19.5q44 -28 68 -78t24 -112q0 -35 -6 -70t-19 -62q23 -33 52 -46.5t75 -13.5h5q5 0 5 -4v-51q0 -5 -5 -5h-5q-53 0 -90 14.5t-71 51.5q-30 -34 -68.5 -50t-84.5 -16h-144zM221 267q0 -49 9 -99.5t32 -107.5h87
q46 0 77.5 22.5t48 65.5t16.5 106q0 69 -36 112t-92 43q-36 0 -67.5 -12t-60.5 -36q-8 -17 -11 -42t-3 -52z" />
    <glyph glyph-name="uniFC35" unicode="&#xfc35;" horiz-adv-x="1515" arabic-form="isolated" 
d="M945 0q-5 0 -5 5v51q0 4 5 4h163q-20 18 -33.5 45t-20.5 57.5t-7 59.5q0 79 33 137t93 90.5t142 32.5h115v-482h-485zM1248 60h118v362h-48q-63 0 -109 -24.5t-70.5 -68.5t-24.5 -105q0 -54 16.5 -91t46.5 -55t71 -18zM1191 620q-18 0 -32 11t-14 38t14 38.5t32 11.5
q21 0 33.5 -13t12.5 -37t-12 -36.5t-34 -12.5zM1341 620q-21 0 -33.5 12.5t-12.5 36.5t12.5 37t33.5 13q23 0 34.5 -14t11.5 -36t-11.5 -35.5t-34.5 -13.5zM273 -240q-68 0 -115 27.5t-70 81.5t-23 132q0 53 9.5 96t24.5 84h62q-14 -40 -21 -81.5t-7 -93.5q0 -62 16 -103.5
t49 -62t85 -20.5h178q57 0 96.5 15.5t60 40t20.5 49.5q0 26 -21.5 41t-66.5 27q-47 14 -82.5 27.5t-55.5 37t-20 63.5q0 29 9 56t24 51q22 36 53 62t67 41t72 15q19 0 36.5 -4t31.5 -12q27 -15 48 -40.5t48 -74.5q26 -46 48.5 -78.5t47.5 -50.5q18 -14 35.5 -20t37.5 -6h5
q5 0 5 -4v-51q0 -5 -5 -5h-5q-25 0 -49 7t-47 22t-48 38q-15 14 -30 36.5t-33 52.5q-21 35 -38 59t-34 39q-14 12 -30 18t-32 6q-27 0 -53 -14t-48 -36.5t-35 -48.5t-13 -50q0 -18 12.5 -30.5t32 -20.5t39.5 -14q33 -9 56.5 -17t41.5 -15q32 -15 49 -36t17 -49
q0 -89 -62.5 -138t-184.5 -49h-188z" />
    <glyph glyph-name="uniFC36" unicode="&#xfc36;" horiz-adv-x="1515" arabic-form="isolated" 
d="M945 0q-5 0 -5 5v51q0 4 5 4h163q-20 18 -33.5 45t-20.5 57.5t-7 59.5q0 79 33 137t93 90.5t142 32.5h115v-482h-485zM1248 60h118v362h-48q-63 0 -109 -24.5t-70.5 -68.5t-24.5 -105q0 -54 16.5 -91t46.5 -55t71 -18zM1191 620q-18 0 -32 11t-14 38t14 38.5t32 11.5
q21 0 33.5 -13t12.5 -37t-12 -36.5t-34 -12.5zM1341 620q-21 0 -33.5 12.5t-12.5 36.5t12.5 37t33.5 13q23 0 34.5 -14t11.5 -36t-11.5 -35.5t-34.5 -13.5zM273 -240q-68 0 -115 27.5t-70 81.5t-23 132q0 53 9.5 96t24.5 84h62q-14 -40 -21 -81.5t-7 -93.5q0 -62 16 -103.5
t49 -62t85 -20.5h178q57 0 96.5 15.5t60 40t20.5 49.5q0 26 -21.5 41t-66.5 27q-47 14 -82.5 27.5t-55.5 37t-20 63.5q0 29 9 56t24 51q22 36 53 62t67 41t72 15q19 0 36.5 -4t31.5 -12q27 -15 48 -40.5t48 -74.5q26 -46 48.5 -78.5t47.5 -50.5q18 -14 35.5 -20t37.5 -6h5
q5 0 5 -4v-51q0 -5 -5 -5h-5q-25 0 -49 7t-47 22t-48 38q-15 14 -30 36.5t-33 52.5q-21 35 -38 59t-34 39q-14 12 -30 18t-32 6q-27 0 -53 -14t-48 -36.5t-35 -48.5t-13 -50q0 -18 12.5 -30.5t32 -20.5t39.5 -14q33 -9 56.5 -17t41.5 -15q32 -15 49 -36t17 -49
q0 -89 -62.5 -138t-184.5 -49h-188zM313 -426q-20 0 -33 11.5t-13 37.5q0 27 13 38.5t33 11.5t33 -12.5t13 -37.5q0 -24 -12.5 -36.5t-33.5 -12.5zM465 -426q-21 0 -33 12.5t-12 36.5q0 25 12 37.5t33 12.5q22 0 34.5 -13.5t12.5 -36.5t-12.5 -36t-34.5 -13z" />
    <glyph glyph-name="uniFC37" unicode="&#xfc37;" horiz-adv-x="863" arabic-form="isolated" 
d="M293 0q-5 0 -5 5v51q0 4 5 4h430v199q0 80 -46.5 115t-142.5 35h-172v63q16 36 38 70.5t51 69.5q57 67 126 117.5t130 74.5l24 -58q-47 -19 -94 -50t-89 -69t-74 -78.5t-48 -79.5h108q124 0 189 -49.5t65 -150.5v-269h-495zM303 60q5 0 5 -4v-51q0 -5 -5 -5h-203v760h67
v-700h136z" />
    <glyph glyph-name="uniFC38" unicode="&#xfc38;" horiz-adv-x="1168" arabic-form="isolated" 
d="M599 0q-5 0 -5 5v51q0 4 5 4h430v199q0 80 -46.5 115t-142.5 35h-172v63q16 36 38 70.5t51 69.5q57 67 126 117.5t130 74.5l24 -58q-47 -19 -94 -50t-89 -69t-74 -78.5t-48 -79.5h108q124 0 189 -49.5t65 -150.5v-269h-495zM245 -324q-61 0 -106 22.5t-69.5 65
t-24.5 101.5q0 33 9 62t27 54q27 40 74.5 72t115.5 60t157 54q-4 15 -9 35.5t-9 45.5q-9 58 -28.5 99t-51.5 63t-80 22q-44 0 -91.5 -15t-85.5 -37l-27 53q23 16 56 29t71.5 21.5t75.5 8.5q61 0 106 -23.5t74 -73.5t41 -129q7 -41 15.5 -74t17.5 -54q15 -37 39.5 -57.5
t61.5 -20.5h5q5 0 5 -4v-51q0 -5 -5 -5h-5q-36 0 -65 13.5t-51 39t-39 59.5q-73 -21 -133 -43.5t-98 -50.5q-54 -32 -79 -68.5t-25 -79.5q0 -66 37.5 -100t108.5 -34zM415 -215q-22 0 -34 12.5t-12 36.5q0 25 12 37.5t34 12.5q20 0 33 -13t13 -36q0 -24 -12.5 -37t-33.5 -13
z" />
    <glyph glyph-name="uniFC39" unicode="&#xfc39;" horiz-adv-x="1168" arabic-form="isolated" 
d="M599 0q-5 0 -5 5v51q0 4 5 4h430v199q0 80 -46.5 115t-142.5 35h-172v63q16 36 38 70.5t51 69.5q57 67 126 117.5t130 74.5l24 -58q-47 -19 -94 -50t-89 -69t-74 -78.5t-48 -79.5h108q124 0 189 -49.5t65 -150.5v-269h-495zM604 0q-36 0 -65 13.5t-50.5 39t-39.5 59.5
q-52 -15 -98.5 -31t-83 -34.5t-60.5 -41.5q-48 -29 -70.5 -62t-22.5 -73q0 -44 18 -74t55 -45t93 -15q29 0 65.5 4.5t85.5 14.5l9 -54q-51 -12 -101 -18.5t-86 -6.5q-65 0 -111.5 22.5t-71.5 65t-25 101.5q0 33 9 62t27 54q27 40 74.5 72t115.5 60t157 54q-4 15 -9 35.5
t-9 45.5q-9 58 -28.5 99t-52 63t-80.5 22q-40 0 -89.5 -15t-88.5 -37l-27 52q35 25 92 42.5t112 17.5q62 0 107 -23.5t74 -73.5t41 -129q7 -42 15.5 -75.5t18.5 -56.5q16 -35 40 -54.5t60 -19.5h5q5 0 5 -4v-51q0 -5 -5 -5h-5z" />
    <glyph glyph-name="uniFC3A" unicode="&#xfc3a;" horiz-adv-x="1168" arabic-form="isolated" 
d="M599 0q-5 0 -5 5v51q0 4 5 4h430v199q0 80 -46.5 115t-142.5 35h-172v63q16 36 38 70.5t51 69.5q57 67 126 117.5t130 74.5l24 -58q-47 -19 -94 -50t-89 -69t-74 -78.5t-48 -79.5h108q124 0 189 -49.5t65 -150.5v-269h-495zM604 0q-36 0 -65 13.5t-50.5 39t-39.5 59.5
q-52 -15 -98.5 -31t-83 -34.5t-60.5 -41.5q-48 -29 -70.5 -62t-22.5 -73q0 -44 18 -74t55 -45t93 -15q29 0 65.5 4.5t85.5 14.5l9 -54q-51 -12 -101 -18.5t-86 -6.5q-65 0 -111.5 22.5t-71.5 65t-25 101.5q0 33 9 62t27 54q27 40 74.5 72t115.5 60t157 54q-4 15 -9 35.5
t-9 45.5q-9 58 -28.5 99t-52 63t-80.5 22q-40 0 -89.5 -15t-88.5 -37l-27 52q35 25 92 42.5t112 17.5q62 0 107 -23.5t74 -73.5t41 -129q7 -42 15.5 -75.5t18.5 -56.5q16 -35 40 -54.5t60 -19.5h5q5 0 5 -4v-51q0 -5 -5 -5h-5zM229 599q-22 0 -34 12.5t-12 36.5
q0 25 12 37.5t34 12.5q20 0 33 -13t13 -36q0 -24 -12.5 -37t-33.5 -13z" />
    <glyph glyph-name="uniFC3B" unicode="&#xfc3b;" horiz-adv-x="1230" arabic-form="isolated" 
d="M661 0q-5 0 -5 5v51q0 4 5 4h430v199q0 80 -46.5 115t-142.5 35h-172v63q16 36 38 70.5t51 69.5q57 67 126 117.5t130 74.5l24 -58q-47 -19 -94 -50t-89 -69t-74 -78.5t-48 -79.5h108q124 0 189 -49.5t65 -150.5v-269h-495zM557 0q0 -122 -55.5 -181t-175.5 -59h-72
q-33 0 -61.5 9t-50.5 28q-37 31 -57 85.5t-20 130.5q0 40 4.5 82.5t13.5 82t22 71.5h63q-17 -43 -26 -103t-9 -130q0 -96 33.5 -146t101.5 -50h55q59 0 96.5 18t55.5 58t18 104v760h64v-700h114q5 0 5 -4v-51q0 -5 -5 -5h-114z" />
    <glyph glyph-name="uniFC3C" unicode="&#xfc3c;" horiz-adv-x="1225" arabic-form="isolated" 
d="M656 0q-5 0 -5 5v51q0 4 5 4h430v199q0 80 -46.5 115t-142.5 35h-172v63q16 36 38 70.5t51 69.5q57 67 126 117.5t130 74.5l24 -58q-47 -19 -94 -50t-89 -69t-74 -78.5t-48 -79.5h108q124 0 189 -49.5t65 -150.5v-269h-495zM203 0q-38 0 -56 -17.5t-18 -55.5v-247h-64
v255q0 39 13 67t39.5 43t67.5 15h8q-20 53 -30 101t-10 93q0 37 7.5 74t23.5 70q34 32 79.5 51t98.5 19q30 0 56.5 -6.5t48.5 -19.5q44 -28 68 -78t24 -112q0 -35 -6 -70t-19 -62q23 -33 52 -46.5t75 -13.5h5q5 0 5 -4v-51q0 -5 -5 -5h-5q-53 0 -90 14.5t-71 51.5
q-30 -34 -68.5 -50t-84.5 -16h-144zM221 267q0 -49 9 -99.5t32 -107.5h87q46 0 77.5 22.5t48 65.5t16.5 106q0 69 -36 112t-92 43q-36 0 -67.5 -12t-60.5 -36q-8 -17 -11 -42t-3 -52z" />
    <glyph glyph-name="uniFC3D" unicode="&#xfc3d;" horiz-adv-x="1515" arabic-form="isolated" 
d="M945 0q-5 0 -5 5v51q0 4 5 4h430v199q0 80 -46.5 115t-142.5 35h-172v63q16 36 38 70.5t51 69.5q57 67 126 117.5t130 74.5l24 -58q-47 -19 -94 -50t-89 -69t-74 -78.5t-48 -79.5h108q124 0 189 -49.5t65 -150.5v-269h-495zM273 -240q-68 0 -115 27.5t-70 81.5t-23 132
q0 53 9.5 96t24.5 84h62q-14 -40 -21 -81.5t-7 -93.5q0 -62 16 -103.5t49 -62t85 -20.5h178q57 0 96.5 15.5t60 40t20.5 49.5q0 26 -21.5 41t-66.5 27q-47 14 -82.5 27.5t-55.5 37t-20 63.5q0 29 9 56t24 51q22 36 53 62t67 41t72 15q19 0 36.5 -4t31.5 -12q27 -15 48 -40.5
t48 -74.5q26 -46 48.5 -78.5t47.5 -50.5q18 -14 35.5 -20t37.5 -6h5q5 0 5 -4v-51q0 -5 -5 -5h-5q-25 0 -49 7t-47 22t-48 38q-15 14 -30 36.5t-33 52.5q-21 35 -38 59t-34 39q-14 12 -30 18t-32 6q-27 0 -53 -14t-48 -36.5t-35 -48.5t-13 -50q0 -18 12.5 -30.5t32 -20.5
t39.5 -14q33 -9 56.5 -17t41.5 -15q32 -15 49 -36t17 -49q0 -89 -62.5 -138t-184.5 -49h-188z" />
    <glyph glyph-name="uniFC3E" unicode="&#xfc3e;" horiz-adv-x="1515" arabic-form="isolated" 
d="M945 0q-5 0 -5 5v51q0 4 5 4h430v199q0 80 -46.5 115t-142.5 35h-172v63q16 36 38 70.5t51 69.5q57 67 126 117.5t130 74.5l24 -58q-47 -19 -94 -50t-89 -69t-74 -78.5t-48 -79.5h108q124 0 189 -49.5t65 -150.5v-269h-495zM273 -240q-68 0 -115 27.5t-70 81.5t-23 132
q0 53 9.5 96t24.5 84h62q-14 -40 -21 -81.5t-7 -93.5q0 -62 16 -103.5t49 -62t85 -20.5h178q57 0 96.5 15.5t60 40t20.5 49.5q0 26 -21.5 41t-66.5 27q-47 14 -82.5 27.5t-55.5 37t-20 63.5q0 29 9 56t24 51q22 36 53 62t67 41t72 15q19 0 36.5 -4t31.5 -12q27 -15 48 -40.5
t48 -74.5q26 -46 48.5 -78.5t47.5 -50.5q18 -14 35.5 -20t37.5 -6h5q5 0 5 -4v-51q0 -5 -5 -5h-5q-25 0 -49 7t-47 22t-48 38q-15 14 -30 36.5t-33 52.5q-21 35 -38 59t-34 39q-14 12 -30 18t-32 6q-27 0 -53 -14t-48 -36.5t-35 -48.5t-13 -50q0 -18 12.5 -30.5t32 -20.5
t39.5 -14q33 -9 56.5 -17t41.5 -15q32 -15 49 -36t17 -49q0 -89 -62.5 -138t-184.5 -49h-188zM313 -426q-20 0 -33 11.5t-13 37.5q0 27 13 38.5t33 11.5t33 -12.5t13 -37.5q0 -24 -12.5 -36.5t-33.5 -12.5zM465 -426q-21 0 -33 12.5t-12 36.5q0 25 12 37.5t33 12.5
q22 0 34.5 -13.5t12.5 -36.5t-12.5 -36t-34.5 -13z" />
    <glyph glyph-name="uniFC3F" unicode="&#xfc3f;" horiz-adv-x="909" arabic-form="isolated" 
d="M599 0q-5 0 -5 5v51q0 4 5 4h139v700h68v-760h-207zM245 -324q-61 0 -106 22.5t-69.5 65t-24.5 101.5q0 33 9 62t27 54q27 40 74.5 72t115.5 60t157 54q-4 15 -9 35.5t-9 45.5q-9 58 -28.5 99t-51.5 63t-80 22q-44 0 -91.5 -15t-85.5 -37l-27 53q23 16 56 29t71.5 21.5
t75.5 8.5q61 0 106 -23.5t74 -73.5t41 -129q7 -41 15.5 -74t17.5 -54q15 -37 39.5 -57.5t61.5 -20.5h5q5 0 5 -4v-51q0 -5 -5 -5h-5q-36 0 -65 13.5t-51 39t-39 59.5q-73 -21 -133 -43.5t-98 -50.5q-54 -32 -79 -68.5t-25 -79.5q0 -66 37.5 -100t108.5 -34zM415 -215
q-22 0 -34 12.5t-12 36.5q0 25 12 37.5t34 12.5q20 0 33 -13t13 -36q0 -24 -12.5 -37t-33.5 -13z" />
    <glyph glyph-name="uniFC40" unicode="&#xfc40;" horiz-adv-x="909" arabic-form="isolated" 
d="M599 0q-5 0 -5 5v51q0 4 5 4h139v700h68v-760h-207zM604 0q-36 0 -65 13.5t-50.5 39t-39.5 59.5q-52 -15 -98.5 -31t-83 -34.5t-60.5 -41.5q-48 -29 -70.5 -62t-22.5 -73q0 -44 18 -74t55 -45t93 -15q29 0 65.5 4.5t85.5 14.5l9 -54q-51 -12 -101 -18.5t-86 -6.5
q-65 0 -111.5 22.5t-71.5 65t-25 101.5q0 33 9 62t27 54q27 40 74.5 72t115.5 60t157 54q-4 15 -9 35.5t-9 45.5q-9 58 -28.5 99t-52 63t-80.5 22q-40 0 -89.5 -15t-88.5 -37l-27 52q35 25 92 42.5t112 17.5q62 0 107 -23.5t74 -73.5t41 -129q7 -42 15.5 -75.5t18.5 -56.5
q16 -35 40 -54.5t60 -19.5h5q5 0 5 -4v-51q0 -5 -5 -5h-5z" />
    <glyph glyph-name="uniFC41" unicode="&#xfc41;" horiz-adv-x="909" arabic-form="isolated" 
d="M599 0q-5 0 -5 5v51q0 4 5 4h139v700h68v-760h-207zM604 0q-36 0 -65 13.5t-50.5 39t-39.5 59.5q-52 -15 -98.5 -31t-83 -34.5t-60.5 -41.5q-48 -29 -70.5 -62t-22.5 -73q0 -44 18 -74t55 -45t93 -15q29 0 65.5 4.5t85.5 14.5l9 -54q-51 -12 -101 -18.5t-86 -6.5
q-65 0 -111.5 22.5t-71.5 65t-25 101.5q0 33 9 62t27 54q27 40 74.5 72t115.5 60t157 54q-4 15 -9 35.5t-9 45.5q-9 58 -28.5 99t-52 63t-80.5 22q-40 0 -89.5 -15t-88.5 -37l-27 52q35 25 92 42.5t112 17.5q62 0 107 -23.5t74 -73.5t41 -129q7 -42 15.5 -75.5t18.5 -56.5
q16 -35 40 -54.5t60 -19.5h5q5 0 5 -4v-51q0 -5 -5 -5h-5zM229 599q-22 0 -34 12.5t-12 36.5q0 25 12 37.5t34 12.5q20 0 33 -13t13 -36q0 -24 -12.5 -37t-33.5 -13z" />
    <glyph glyph-name="uniFC42" unicode="&#xfc42;" horiz-adv-x="966" arabic-form="isolated" 
d="M656 0q-5 0 -5 5v51q0 4 5 4h139v700h68v-760h-207zM203 0q-38 0 -56 -17.5t-18 -55.5v-247h-64v255q0 39 13 67t39.5 43t67.5 15h8q-20 53 -30 101t-10 93q0 37 7.5 74t23.5 70q34 32 79.5 51t98.5 19q30 0 56.5 -6.5t48.5 -19.5q44 -28 68 -78t24 -112q0 -35 -6 -70
t-19 -62q23 -33 52 -46.5t75 -13.5h5q5 0 5 -4v-51q0 -5 -5 -5h-5q-53 0 -90 14.5t-71 51.5q-30 -34 -68.5 -50t-84.5 -16h-144zM221 267q0 -49 9 -99.5t32 -107.5h87q46 0 77.5 22.5t48 65.5t16.5 106q0 69 -36 112t-92 43q-36 0 -67.5 -12t-60.5 -36q-8 -17 -11 -42
t-3 -52z" />
    <glyph glyph-name="uniFC43" unicode="&#xfc43;" horiz-adv-x="1255" arabic-form="isolated" 
d="M945 0q-5 0 -5 5v51q0 4 5 4h139v700h68v-760h-207zM273 -240q-68 0 -115 27.5t-70 81.5t-23 132q0 53 9.5 96t24.5 84h62q-14 -40 -21 -81.5t-7 -93.5q0 -62 16 -103.5t49 -62t85 -20.5h178q57 0 96.5 15.5t60 40t20.5 49.5q0 26 -21.5 41t-66.5 27q-47 14 -82.5 27.5
t-55.5 37t-20 63.5q0 29 9 56t24 51q22 36 53 62t67 41t72 15q19 0 36.5 -4t31.5 -12q27 -15 48 -40.5t48 -74.5q26 -46 48.5 -78.5t47.5 -50.5q18 -14 35.5 -20t37.5 -6h5q5 0 5 -4v-51q0 -5 -5 -5h-5q-25 0 -49 7t-47 22t-48 38q-15 14 -30 36.5t-33 52.5q-21 35 -38 59
t-34 39q-14 12 -30 18t-32 6q-27 0 -53 -14t-48 -36.5t-35 -48.5t-13 -50q0 -18 12.5 -30.5t32 -20.5t39.5 -14q33 -9 56.5 -17t41.5 -15q32 -15 49 -36t17 -49q0 -89 -62.5 -138t-184.5 -49h-188z" />
    <glyph glyph-name="uniFC44" unicode="&#xfc44;" horiz-adv-x="1255" arabic-form="isolated" 
d="M945 0q-5 0 -5 5v51q0 4 5 4h139v700h68v-760h-207zM273 -240q-68 0 -115 27.5t-70 81.5t-23 132q0 53 9.5 96t24.5 84h62q-14 -40 -21 -81.5t-7 -93.5q0 -62 16 -103.5t49 -62t85 -20.5h178q57 0 96.5 15.5t60 40t20.5 49.5q0 26 -21.5 41t-66.5 27q-47 14 -82.5 27.5
t-55.5 37t-20 63.5q0 29 9 56t24 51q22 36 53 62t67 41t72 15q19 0 36.5 -4t31.5 -12q27 -15 48 -40.5t48 -74.5q26 -46 48.5 -78.5t47.5 -50.5q18 -14 35.5 -20t37.5 -6h5q5 0 5 -4v-51q0 -5 -5 -5h-5q-25 0 -49 7t-47 22t-48 38q-15 14 -30 36.5t-33 52.5q-21 35 -38 59
t-34 39q-14 12 -30 18t-32 6q-27 0 -53 -14t-48 -36.5t-35 -48.5t-13 -50q0 -18 12.5 -30.5t32 -20.5t39.5 -14q33 -9 56.5 -17t41.5 -15q32 -15 49 -36t17 -49q0 -89 -62.5 -138t-184.5 -49h-188zM313 -426q-20 0 -33 11.5t-13 37.5q0 27 13 38.5t33 11.5t33 -12.5
t13 -37.5q0 -24 -12.5 -36.5t-33.5 -12.5zM465 -426q-21 0 -33 12.5t-12 36.5q0 25 12 37.5t33 12.5q22 0 34.5 -13.5t12.5 -36.5t-12.5 -36t-34.5 -13z" />
    <glyph glyph-name="uniFC45" unicode="&#xfc45;" horiz-adv-x="1160" arabic-form="isolated" 
d="M599 0q-5 0 -5 5v51q0 4 5 4h128q-21 55 -31 102.5t-10 91.5q0 37 7.5 74t23.5 70q35 32 80 51t98 19q30 0 57 -6.5t48 -19.5q45 -27 68.5 -77.5t23.5 -112.5q0 -40 -6.5 -73.5t-19.5 -62.5q-26 -56 -73.5 -86t-112.5 -30h-281zM754 267q0 -49 9.5 -99.5t32.5 -107.5h86
q46 0 77.5 22.5t48 65.5t16.5 106q0 69 -36 112t-92 43q-36 0 -68.5 -12.5t-59.5 -35.5q-7 -17 -10.5 -42t-3.5 -52zM245 -324q-61 0 -106 22.5t-69.5 65t-24.5 101.5q0 33 9 62t27 54q27 40 74.5 72t115.5 60t157 54q-4 15 -9 35.5t-9 45.5q-9 58 -28.5 99t-51.5 63t-80 22
q-44 0 -91.5 -15t-85.5 -37l-27 53q23 16 56 29t71.5 21.5t75.5 8.5q61 0 106 -23.5t74 -73.5t41 -129q7 -41 15.5 -74t17.5 -54q15 -37 39.5 -57.5t61.5 -20.5h5q5 0 5 -4v-51q0 -5 -5 -5h-5q-36 0 -65 13.5t-51 39t-39 59.5q-73 -21 -133 -43.5t-98 -50.5
q-54 -32 -79 -68.5t-25 -79.5q0 -66 37.5 -100t108.5 -34zM415 -215q-22 0 -34 12.5t-12 36.5q0 25 12 37.5t34 12.5q20 0 33 -13t13 -36q0 -24 -12.5 -37t-33.5 -13z" />
    <glyph glyph-name="uniFC46" unicode="&#xfc46;" horiz-adv-x="1160" arabic-form="isolated" 
d="M599 0q-5 0 -5 5v51q0 4 5 4h128q-21 55 -31 102.5t-10 91.5q0 37 7.5 74t23.5 70q35 32 80 51t98 19q30 0 57 -6.5t48 -19.5q45 -27 68.5 -77.5t23.5 -112.5q0 -40 -6.5 -73.5t-19.5 -62.5q-26 -56 -73.5 -86t-112.5 -30h-281zM754 267q0 -49 9.5 -99.5t32.5 -107.5h86
q46 0 77.5 22.5t48 65.5t16.5 106q0 69 -36 112t-92 43q-36 0 -68.5 -12.5t-59.5 -35.5q-7 -17 -10.5 -42t-3.5 -52zM604 0q-36 0 -65 13.5t-50.5 39t-39.5 59.5q-52 -15 -98.5 -31t-83 -34.5t-60.5 -41.5q-48 -29 -70.5 -62t-22.5 -73q0 -44 18 -74t55 -45t93 -15
q29 0 65.5 4.5t85.5 14.5l9 -54q-51 -12 -101 -18.5t-86 -6.5q-65 0 -111.5 22.5t-71.5 65t-25 101.5q0 33 9 62t27 54q27 40 74.5 72t115.5 60t157 54q-4 15 -9 35.5t-9 45.5q-9 58 -28.5 99t-52 63t-80.5 22q-40 0 -89.5 -15t-88.5 -37l-27 52q35 25 92 42.5t112 17.5
q62 0 107 -23.5t74 -73.5t41 -129q7 -42 15.5 -75.5t18.5 -56.5q16 -35 40 -54.5t60 -19.5h5q5 0 5 -4v-51q0 -5 -5 -5h-5z" />
    <glyph glyph-name="uniFC47" unicode="&#xfc47;" horiz-adv-x="1160" arabic-form="isolated" 
d="M599 0q-5 0 -5 5v51q0 4 5 4h128q-21 55 -31 102.5t-10 91.5q0 37 7.5 74t23.5 70q35 32 80 51t98 19q30 0 57 -6.5t48 -19.5q45 -27 68.5 -77.5t23.5 -112.5q0 -40 -6.5 -73.5t-19.5 -62.5q-26 -56 -73.5 -86t-112.5 -30h-281zM754 267q0 -49 9.5 -99.5t32.5 -107.5h86
q46 0 77.5 22.5t48 65.5t16.5 106q0 69 -36 112t-92 43q-36 0 -68.5 -12.5t-59.5 -35.5q-7 -17 -10.5 -42t-3.5 -52zM604 0q-36 0 -65 13.5t-50.5 39t-39.5 59.5q-52 -15 -98.5 -31t-83 -34.5t-60.5 -41.5q-48 -29 -70.5 -62t-22.5 -73q0 -44 18 -74t55 -45t93 -15
q29 0 65.5 4.5t85.5 14.5l9 -54q-51 -12 -101 -18.5t-86 -6.5q-65 0 -111.5 22.5t-71.5 65t-25 101.5q0 33 9 62t27 54q27 40 74.5 72t115.5 60t157 54q-4 15 -9 35.5t-9 45.5q-9 58 -28.5 99t-52 63t-80.5 22q-40 0 -89.5 -15t-88.5 -37l-27 52q35 25 92 42.5t112 17.5
q62 0 107 -23.5t74 -73.5t41 -129q7 -42 15.5 -75.5t18.5 -56.5q16 -35 40 -54.5t60 -19.5h5q5 0 5 -4v-51q0 -5 -5 -5h-5zM229 599q-22 0 -34 12.5t-12 36.5q0 25 12 37.5t34 12.5q20 0 33 -13t13 -36q0 -24 -12.5 -37t-33.5 -13z" />
    <glyph glyph-name="uniFC48" unicode="&#xfc48;" horiz-adv-x="1217" arabic-form="isolated" 
d="M656 0q-5 0 -5 5v51q0 4 5 4h128q-21 55 -31 102.5t-10 91.5q0 37 7.5 74t23.5 70q35 32 80 51t98 19q30 0 57 -6.5t48 -19.5q45 -27 68.5 -77.5t23.5 -112.5q0 -40 -6.5 -73.5t-19.5 -62.5q-26 -56 -73.5 -86t-112.5 -30h-281zM811 267q0 -49 9.5 -99.5t32.5 -107.5h86
q46 0 77.5 22.5t48 65.5t16.5 106q0 69 -36 112t-92 43q-36 0 -68.5 -12.5t-59.5 -35.5q-7 -17 -10.5 -42t-3.5 -52zM203 0q-38 0 -56 -17.5t-18 -55.5v-247h-64v255q0 39 13 67t39.5 43t67.5 15h8q-20 53 -30 101t-10 93q0 37 7.5 74t23.5 70q34 32 79.5 51t98.5 19
q30 0 56.5 -6.5t48.5 -19.5q44 -28 68 -78t24 -112q0 -35 -6 -70t-19 -62q23 -33 52 -46.5t75 -13.5h5q5 0 5 -4v-51q0 -5 -5 -5h-5q-53 0 -90 14.5t-71 51.5q-30 -34 -68.5 -50t-84.5 -16h-144zM221 267q0 -49 9 -99.5t32 -107.5h87q46 0 77.5 22.5t48 65.5t16.5 106
q0 69 -36 112t-92 43q-36 0 -67.5 -12t-60.5 -36q-8 -17 -11 -42t-3 -52z" />
    <glyph glyph-name="uniFC49" unicode="&#xfc49;" horiz-adv-x="1507" arabic-form="isolated" 
d="M945 0q-5 0 -5 5v51q0 4 5 4h128q-21 55 -31 102.5t-10 91.5q0 37 7.5 74t23.5 70q35 32 80 51t98 19q30 0 57 -6.5t48 -19.5q45 -27 68.5 -77.5t23.5 -112.5q0 -40 -6.5 -73.5t-19.5 -62.5q-26 -56 -73.5 -86t-112.5 -30h-281zM1100 267q0 -49 9.5 -99.5t32.5 -107.5h86
q46 0 77.5 22.5t48 65.5t16.5 106q0 69 -36 112t-92 43q-36 0 -68.5 -12.5t-59.5 -35.5q-7 -17 -10.5 -42t-3.5 -52zM273 -240q-68 0 -115 27.5t-70 81.5t-23 132q0 53 9.5 96t24.5 84h62q-14 -40 -21 -81.5t-7 -93.5q0 -62 16 -103.5t49 -62t85 -20.5h178q57 0 96.5 15.5
t60 40t20.5 49.5q0 26 -21.5 41t-66.5 27q-47 14 -82.5 27.5t-55.5 37t-20 63.5q0 29 9 56t24 51q22 36 53 62t67 41t72 15q19 0 36.5 -4t31.5 -12q27 -15 48 -40.5t48 -74.5q26 -46 48.5 -78.5t47.5 -50.5q18 -14 35.5 -20t37.5 -6h5q5 0 5 -4v-51q0 -5 -5 -5h-5
q-25 0 -49 7t-47 22t-48 38q-15 14 -30 36.5t-33 52.5q-21 35 -38 59t-34 39q-14 12 -30 18t-32 6q-27 0 -53 -14t-48 -36.5t-35 -48.5t-13 -50q0 -18 12.5 -30.5t32 -20.5t39.5 -14q33 -9 56.5 -17t41.5 -15q32 -15 49 -36t17 -49q0 -89 -62.5 -138t-184.5 -49h-188z" />
    <glyph glyph-name="uniFC4A" unicode="&#xfc4a;" horiz-adv-x="1507" arabic-form="isolated" 
d="M945 0q-5 0 -5 5v51q0 4 5 4h128q-21 55 -31 102.5t-10 91.5q0 37 7.5 74t23.5 70q35 32 80 51t98 19q30 0 57 -6.5t48 -19.5q45 -27 68.5 -77.5t23.5 -112.5q0 -40 -6.5 -73.5t-19.5 -62.5q-26 -56 -73.5 -86t-112.5 -30h-281zM1100 267q0 -49 9.5 -99.5t32.5 -107.5h86
q46 0 77.5 22.5t48 65.5t16.5 106q0 69 -36 112t-92 43q-36 0 -68.5 -12.5t-59.5 -35.5q-7 -17 -10.5 -42t-3.5 -52zM273 -240q-68 0 -115 27.5t-70 81.5t-23 132q0 53 9.5 96t24.5 84h62q-14 -40 -21 -81.5t-7 -93.5q0 -62 16 -103.5t49 -62t85 -20.5h178q57 0 96.5 15.5
t60 40t20.5 49.5q0 26 -21.5 41t-66.5 27q-47 14 -82.5 27.5t-55.5 37t-20 63.5q0 29 9 56t24 51q22 36 53 62t67 41t72 15q19 0 36.5 -4t31.5 -12q27 -15 48 -40.5t48 -74.5q26 -46 48.5 -78.5t47.5 -50.5q18 -14 35.5 -20t37.5 -6h5q5 0 5 -4v-51q0 -5 -5 -5h-5
q-25 0 -49 7t-47 22t-48 38q-15 14 -30 36.5t-33 52.5q-21 35 -38 59t-34 39q-14 12 -30 18t-32 6q-27 0 -53 -14t-48 -36.5t-35 -48.5t-13 -50q0 -18 12.5 -30.5t32 -20.5t39.5 -14q33 -9 56.5 -17t41.5 -15q32 -15 49 -36t17 -49q0 -89 -62.5 -138t-184.5 -49h-188z
M313 -426q-20 0 -33 11.5t-13 37.5q0 27 13 38.5t33 11.5t33 -12.5t13 -37.5q0 -24 -12.5 -36.5t-33.5 -12.5zM465 -426q-21 0 -33 12.5t-12 36.5q0 25 12 37.5t33 12.5q22 0 34.5 -13.5t12.5 -36.5t-12.5 -36t-34.5 -13z" />
    <glyph glyph-name="uniFC4B" unicode="&#xfc4b;" horiz-adv-x="887" arabic-form="isolated" 
d="M599 0q-5 0 -5 5v51q0 4 5 4h136v422h67v-482h-203zM753 574q-22 0 -34 12.5t-12 36.5q0 25 12 37.5t34 12.5q20 0 33 -13t13 -36q0 -24 -12.5 -37t-33.5 -13zM245 -324q-61 0 -106 22.5t-69.5 65t-24.5 101.5q0 33 9 62t27 54q27 40 74.5 72t115.5 60t157 54
q-4 15 -9 35.5t-9 45.5q-9 58 -28.5 99t-51.5 63t-80 22q-44 0 -91.5 -15t-85.5 -37l-27 53q23 16 56 29t71.5 21.5t75.5 8.5q61 0 106 -23.5t74 -73.5t41 -129q7 -41 15.5 -74t17.5 -54q15 -37 39.5 -57.5t61.5 -20.5h5q5 0 5 -4v-51q0 -5 -5 -5h-5q-36 0 -65 13.5t-51 39
t-39 59.5q-73 -21 -133 -43.5t-98 -50.5q-54 -32 -79 -68.5t-25 -79.5q0 -66 37.5 -100t108.5 -34zM415 -215q-22 0 -34 12.5t-12 36.5q0 25 12 37.5t34 12.5q20 0 33 -13t13 -36q0 -24 -12.5 -37t-33.5 -13z" />
    <glyph glyph-name="uniFC4C" unicode="&#xfc4c;" horiz-adv-x="887" arabic-form="isolated" 
d="M599 0q-5 0 -5 5v51q0 4 5 4h136v422h67v-482h-203zM753 574q-22 0 -34 12.5t-12 36.5q0 25 12 37.5t34 12.5q20 0 33 -13t13 -36q0 -24 -12.5 -37t-33.5 -13zM604 0q-36 0 -65 13.5t-50.5 39t-39.5 59.5q-52 -15 -98.5 -31t-83 -34.5t-60.5 -41.5q-48 -29 -70.5 -62
t-22.5 -73q0 -44 18 -74t55 -45t93 -15q29 0 65.5 4.5t85.5 14.5l9 -54q-51 -12 -101 -18.5t-86 -6.5q-65 0 -111.5 22.5t-71.5 65t-25 101.5q0 33 9 62t27 54q27 40 74.5 72t115.5 60t157 54q-4 15 -9 35.5t-9 45.5q-9 58 -28.5 99t-52 63t-80.5 22q-40 0 -89.5 -15
t-88.5 -37l-27 52q35 25 92 42.5t112 17.5q62 0 107 -23.5t74 -73.5t41 -129q7 -42 15.5 -75.5t18.5 -56.5q16 -35 40 -54.5t60 -19.5h5q5 0 5 -4v-51q0 -5 -5 -5h-5z" />
    <glyph glyph-name="uniFC4D" unicode="&#xfc4d;" horiz-adv-x="887" arabic-form="isolated" 
d="M599 0q-5 0 -5 5v51q0 4 5 4h136v422h67v-482h-203zM753 574q-22 0 -34 12.5t-12 36.5q0 25 12 37.5t34 12.5q20 0 33 -13t13 -36q0 -24 -12.5 -37t-33.5 -13zM604 0q-36 0 -65 13.5t-50.5 39t-39.5 59.5q-52 -15 -98.5 -31t-83 -34.5t-60.5 -41.5q-48 -29 -70.5 -62
t-22.5 -73q0 -44 18 -74t55 -45t93 -15q29 0 65.5 4.5t85.5 14.5l9 -54q-51 -12 -101 -18.5t-86 -6.5q-65 0 -111.5 22.5t-71.5 65t-25 101.5q0 33 9 62t27 54q27 40 74.5 72t115.5 60t157 54q-4 15 -9 35.5t-9 45.5q-9 58 -28.5 99t-52 63t-80.5 22q-40 0 -89.5 -15
t-88.5 -37l-27 52q35 25 92 42.5t112 17.5q62 0 107 -23.5t74 -73.5t41 -129q7 -42 15.5 -75.5t18.5 -56.5q16 -35 40 -54.5t60 -19.5h5q5 0 5 -4v-51q0 -5 -5 -5h-5zM229 599q-22 0 -34 12.5t-12 36.5q0 25 12 37.5t34 12.5q20 0 33 -13t13 -36q0 -24 -12.5 -37t-33.5 -13z
" />
    <glyph glyph-name="uniFC4E" unicode="&#xfc4e;" horiz-adv-x="944" arabic-form="isolated" 
d="M656 0q-5 0 -5 5v51q0 4 5 4h136v422h67v-482h-203zM810 574q-22 0 -34 12.5t-12 36.5q0 25 12 37.5t34 12.5q20 0 33 -13t13 -36q0 -24 -12.5 -37t-33.5 -13zM203 0q-38 0 -56 -17.5t-18 -55.5v-247h-64v255q0 39 13 67t39.5 43t67.5 15h8q-20 53 -30 101t-10 93
q0 37 7.5 74t23.5 70q34 32 79.5 51t98.5 19q30 0 56.5 -6.5t48.5 -19.5q44 -28 68 -78t24 -112q0 -35 -6 -70t-19 -62q23 -33 52 -46.5t75 -13.5h5q5 0 5 -4v-51q0 -5 -5 -5h-5q-53 0 -90 14.5t-71 51.5q-30 -34 -68.5 -50t-84.5 -16h-144zM221 267q0 -49 9 -99.5
t32 -107.5h87q46 0 77.5 22.5t48 65.5t16.5 106q0 69 -36 112t-92 43q-36 0 -67.5 -12t-60.5 -36q-8 -17 -11 -42t-3 -52z" />
    <glyph glyph-name="uniFC4F" unicode="&#xfc4f;" horiz-adv-x="1234" arabic-form="isolated" 
d="M945 0q-5 0 -5 5v51q0 4 5 4h136v422h67v-482h-203zM1100 574q-22 0 -34 12.5t-12 36.5q0 25 12 37.5t34 12.5q20 0 33 -13t13 -36q0 -24 -12.5 -37t-33.5 -13zM273 -240q-68 0 -115 27.5t-70 81.5t-23 132q0 53 9.5 96t24.5 84h62q-14 -40 -21 -81.5t-7 -93.5
q0 -62 16 -103.5t49 -62t85 -20.5h178q57 0 96.5 15.5t60 40t20.5 49.5q0 26 -21.5 41t-66.5 27q-47 14 -82.5 27.5t-55.5 37t-20 63.5q0 29 9 56t24 51q22 36 53 62t67 41t72 15q19 0 36.5 -4t31.5 -12q27 -15 48 -40.5t48 -74.5q26 -46 48.5 -78.5t47.5 -50.5
q18 -14 35.5 -20t37.5 -6h5q5 0 5 -4v-51q0 -5 -5 -5h-5q-25 0 -49 7t-47 22t-48 38q-15 14 -30 36.5t-33 52.5q-21 35 -38 59t-34 39q-14 12 -30 18t-32 6q-27 0 -53 -14t-48 -36.5t-35 -48.5t-13 -50q0 -18 12.5 -30.5t32 -20.5t39.5 -14q33 -9 56.5 -17t41.5 -15
q32 -15 49 -36t17 -49q0 -89 -62.5 -138t-184.5 -49h-188z" />
    <glyph glyph-name="uniFC50" unicode="&#xfc50;" horiz-adv-x="1234" arabic-form="isolated" 
d="M945 0q-5 0 -5 5v51q0 4 5 4h136v422h67v-482h-203zM1100 574q-22 0 -34 12.5t-12 36.5q0 25 12 37.5t34 12.5q20 0 33 -13t13 -36q0 -24 -12.5 -37t-33.5 -13zM273 -240q-68 0 -115 27.5t-70 81.5t-23 132q0 53 9.5 96t24.5 84h62q-14 -40 -21 -81.5t-7 -93.5
q0 -62 16 -103.5t49 -62t85 -20.5h178q57 0 96.5 15.5t60 40t20.5 49.5q0 26 -21.5 41t-66.5 27q-47 14 -82.5 27.5t-55.5 37t-20 63.5q0 29 9 56t24 51q22 36 53 62t67 41t72 15q19 0 36.5 -4t31.5 -12q27 -15 48 -40.5t48 -74.5q26 -46 48.5 -78.5t47.5 -50.5
q18 -14 35.5 -20t37.5 -6h5q5 0 5 -4v-51q0 -5 -5 -5h-5q-25 0 -49 7t-47 22t-48 38q-15 14 -30 36.5t-33 52.5q-21 35 -38 59t-34 39q-14 12 -30 18t-32 6q-27 0 -53 -14t-48 -36.5t-35 -48.5t-13 -50q0 -18 12.5 -30.5t32 -20.5t39.5 -14q33 -9 56.5 -17t41.5 -15
q32 -15 49 -36t17 -49q0 -89 -62.5 -138t-184.5 -49h-188zM313 -426q-20 0 -33 11.5t-13 37.5q0 27 13 38.5t33 11.5t33 -12.5t13 -37.5q0 -24 -12.5 -36.5t-33.5 -12.5zM465 -426q-21 0 -33 12.5t-12 36.5q0 25 12 37.5t33 12.5q22 0 34.5 -13.5t12.5 -36.5t-12.5 -36
t-34.5 -13z" />
    <glyph glyph-name="uniFC51" unicode="&#xfc51;" horiz-adv-x="1342" arabic-form="isolated" 
d="M765 60q-36 21 -57 61.5t-21 91.5q0 59 24.5 102t68 67.5t98.5 24.5q61 0 101.5 -24t61.5 -71t21 -119v-133h128v200q0 142 -62.5 208t-195.5 66q-40 0 -82.5 -6.5t-83.5 -18.5l-19 59q27 9 57 14.5t62 9t66 3.5q159 0 240.5 -85t81.5 -243v-267h-655q-5 0 -5 5v51
q0 4 5 4h166zM897 60h101v119q0 85 -31 123t-94 38q-56 0 -87 -34t-31 -96q0 -44 18 -78t50 -53t74 -19zM245 -324q-61 0 -106 22.5t-69.5 65t-24.5 101.5q0 33 9 62t27 54q27 40 74.5 72t115.5 60t157 54q-4 15 -9 35.5t-9 45.5q-9 58 -28.5 99t-51.5 63t-80 22
q-44 0 -91.5 -15t-85.5 -37l-27 53q23 16 56 29t71.5 21.5t75.5 8.5q61 0 106 -23.5t74 -73.5t41 -129q7 -41 15.5 -74t17.5 -54q15 -37 39.5 -57.5t61.5 -20.5h5q5 0 5 -4v-51q0 -5 -5 -5h-5q-36 0 -65 13.5t-51 39t-39 59.5q-73 -21 -133 -43.5t-98 -50.5
q-54 -32 -79 -68.5t-25 -79.5q0 -66 37.5 -100t108.5 -34zM415 -215q-22 0 -34 12.5t-12 36.5q0 25 12 37.5t34 12.5q20 0 33 -13t13 -36q0 -24 -12.5 -37t-33.5 -13z" />
    <glyph glyph-name="uniFC52" unicode="&#xfc52;" horiz-adv-x="1399" arabic-form="isolated" 
d="M822 60q-36 21 -57 61.5t-21 91.5q0 59 24.5 102t68 67.5t98.5 24.5q61 0 101.5 -24t61.5 -71t21 -119v-133h128v200q0 142 -62.5 208t-195.5 66q-40 0 -82.5 -6.5t-83.5 -18.5l-19 59q27 9 57 14.5t62 9t66 3.5q159 0 240.5 -85t81.5 -243v-267h-655q-5 0 -5 5v51
q0 4 5 4h166zM954 60h101v119q0 85 -31 123t-94 38q-56 0 -87 -34t-31 -96q0 -44 18 -78t50 -53t74 -19zM203 0q-38 0 -56 -17.5t-18 -55.5v-247h-64v255q0 39 13 67t39.5 43t67.5 15h8q-20 53 -30 101t-10 93q0 37 7.5 74t23.5 70q34 32 79.5 51t98.5 19q30 0 56.5 -6.5
t48.5 -19.5q44 -28 68 -78t24 -112q0 -35 -6 -70t-19 -62q23 -33 52 -46.5t75 -13.5h5q5 0 5 -4v-51q0 -5 -5 -5h-5q-53 0 -90 14.5t-71 51.5q-30 -34 -68.5 -50t-84.5 -16h-144zM221 267q0 -49 9 -99.5t32 -107.5h87q46 0 77.5 22.5t48 65.5t16.5 106q0 69 -36 112t-92 43
q-36 0 -67.5 -12t-60.5 -36q-8 -17 -11 -42t-3 -52z" />
    <glyph glyph-name="uniFC53" unicode="&#xfc53;" horiz-adv-x="1689" arabic-form="isolated" 
d="M1111 60q-36 21 -57 61.5t-21 91.5q0 59 24.5 102t68 67.5t98.5 24.5q61 0 101.5 -24t61.5 -71t21 -119v-133h128v200q0 142 -62.5 208t-195.5 66q-40 0 -82.5 -6.5t-83.5 -18.5l-19 59q27 9 57 14.5t62 9t66 3.5q159 0 240.5 -85t81.5 -243v-267h-655q-5 0 -5 5v51
q0 4 5 4h166zM1243 60h101v119q0 85 -31 123t-94 38q-56 0 -87 -34t-31 -96q0 -44 18 -78t50 -53t74 -19zM273 -240q-68 0 -115 27.5t-70 81.5t-23 132q0 53 9.5 96t24.5 84h62q-14 -40 -21 -81.5t-7 -93.5q0 -62 16 -103.5t49 -62t85 -20.5h178q57 0 96.5 15.5t60 40
t20.5 49.5q0 26 -21.5 41t-66.5 27q-47 14 -82.5 27.5t-55.5 37t-20 63.5q0 29 9 56t24 51q22 36 53 62t67 41t72 15q19 0 36.5 -4t31.5 -12q27 -15 48 -40.5t48 -74.5q26 -46 48.5 -78.5t47.5 -50.5q18 -14 35.5 -20t37.5 -6h5q5 0 5 -4v-51q0 -5 -5 -5h-5q-25 0 -49 7
t-47 22t-48 38q-15 14 -30 36.5t-33 52.5q-21 35 -38 59t-34 39q-14 12 -30 18t-32 6q-27 0 -53 -14t-48 -36.5t-35 -48.5t-13 -50q0 -18 12.5 -30.5t32 -20.5t39.5 -14q33 -9 56.5 -17t41.5 -15q32 -15 49 -36t17 -49q0 -89 -62.5 -138t-184.5 -49h-188z" />
    <glyph glyph-name="uniFC54" unicode="&#xfc54;" horiz-adv-x="1689" arabic-form="isolated" 
d="M1111 60q-36 21 -57 61.5t-21 91.5q0 59 24.5 102t68 67.5t98.5 24.5q61 0 101.5 -24t61.5 -71t21 -119v-133h128v200q0 142 -62.5 208t-195.5 66q-40 0 -82.5 -6.5t-83.5 -18.5l-19 59q27 9 57 14.5t62 9t66 3.5q159 0 240.5 -85t81.5 -243v-267h-655q-5 0 -5 5v51
q0 4 5 4h166zM1243 60h101v119q0 85 -31 123t-94 38q-56 0 -87 -34t-31 -96q0 -44 18 -78t50 -53t74 -19zM273 -240q-68 0 -115 27.5t-70 81.5t-23 132q0 53 9.5 96t24.5 84h62q-14 -40 -21 -81.5t-7 -93.5q0 -62 16 -103.5t49 -62t85 -20.5h178q57 0 96.5 15.5t60 40
t20.5 49.5q0 26 -21.5 41t-66.5 27q-47 14 -82.5 27.5t-55.5 37t-20 63.5q0 29 9 56t24 51q22 36 53 62t67 41t72 15q19 0 36.5 -4t31.5 -12q27 -15 48 -40.5t48 -74.5q26 -46 48.5 -78.5t47.5 -50.5q18 -14 35.5 -20t37.5 -6h5q5 0 5 -4v-51q0 -5 -5 -5h-5q-25 0 -49 7
t-47 22t-48 38q-15 14 -30 36.5t-33 52.5q-21 35 -38 59t-34 39q-14 12 -30 18t-32 6q-27 0 -53 -14t-48 -36.5t-35 -48.5t-13 -50q0 -18 12.5 -30.5t32 -20.5t39.5 -14q33 -9 56.5 -17t41.5 -15q32 -15 49 -36t17 -49q0 -89 -62.5 -138t-184.5 -49h-188zM313 -426
q-20 0 -33 11.5t-13 37.5q0 27 13 38.5t33 11.5t33 -12.5t13 -37.5q0 -24 -12.5 -36.5t-33.5 -12.5zM465 -426q-21 0 -33 12.5t-12 36.5q0 25 12 37.5t33 12.5q22 0 34.5 -13.5t12.5 -36.5t-12.5 -36t-34.5 -13z" />
    <glyph glyph-name="uniFC55" unicode="&#xfc55;" horiz-adv-x="971" arabic-form="isolated" 
d="M599 0q-5 0 -5 5v51q0 4 5 4h203v422h67v-482h-270zM703 -175q-20 0 -33 11.5t-13 37.5q0 27 13 38.5t33 11.5t33 -12.5t13 -37.5q0 -24 -12.5 -36.5t-33.5 -12.5zM855 -175q-21 0 -33 12.5t-12 36.5q0 25 12 37.5t33 12.5q22 0 34.5 -13.5t12.5 -36.5t-12.5 -36
t-34.5 -13zM245 -324q-61 0 -106 22.5t-69.5 65t-24.5 101.5q0 33 9 62t27 54q27 40 74.5 72t115.5 60t157 54q-4 15 -9 35.5t-9 45.5q-9 58 -28.5 99t-51.5 63t-80 22q-44 0 -91.5 -15t-85.5 -37l-27 53q23 16 56 29t71.5 21.5t75.5 8.5q61 0 106 -23.5t74 -73.5t41 -129
q7 -41 15.5 -74t17.5 -54q15 -37 39.5 -57.5t61.5 -20.5h5q5 0 5 -4v-51q0 -5 -5 -5h-5q-36 0 -65 13.5t-51 39t-39 59.5q-73 -21 -133 -43.5t-98 -50.5q-54 -32 -79 -68.5t-25 -79.5q0 -66 37.5 -100t108.5 -34zM415 -215q-22 0 -34 12.5t-12 36.5q0 25 12 37.5t34 12.5
q20 0 33 -13t13 -36q0 -24 -12.5 -37t-33.5 -13z" />
    <glyph glyph-name="uniFC56" unicode="&#xfc56;" horiz-adv-x="971" arabic-form="isolated" 
d="M599 0q-5 0 -5 5v51q0 4 5 4h203v422h67v-482h-270zM703 -175q-20 0 -33 11.5t-13 37.5q0 27 13 38.5t33 11.5t33 -12.5t13 -37.5q0 -24 -12.5 -36.5t-33.5 -12.5zM855 -175q-21 0 -33 12.5t-12 36.5q0 25 12 37.5t33 12.5q22 0 34.5 -13.5t12.5 -36.5t-12.5 -36
t-34.5 -13zM604 0q-36 0 -65 13.5t-50.5 39t-39.5 59.5q-52 -15 -98.5 -31t-83 -34.5t-60.5 -41.5q-48 -29 -70.5 -62t-22.5 -73q0 -44 18 -74t55 -45t93 -15q29 0 65.5 4.5t85.5 14.5l9 -54q-51 -12 -101 -18.5t-86 -6.5q-65 0 -111.5 22.5t-71.5 65t-25 101.5q0 33 9 62
t27 54q27 40 74.5 72t115.5 60t157 54q-4 15 -9 35.5t-9 45.5q-9 58 -28.5 99t-52 63t-80.5 22q-40 0 -89.5 -15t-88.5 -37l-27 52q35 25 92 42.5t112 17.5q62 0 107 -23.5t74 -73.5t41 -129q7 -42 15.5 -75.5t18.5 -56.5q16 -35 40 -54.5t60 -19.5h5q5 0 5 -4v-51
q0 -5 -5 -5h-5z" />
    <glyph glyph-name="uniFC57" unicode="&#xfc57;" horiz-adv-x="971" arabic-form="isolated" 
d="M599 0q-5 0 -5 5v51q0 4 5 4h203v422h67v-482h-270zM703 -175q-20 0 -33 11.5t-13 37.5q0 27 13 38.5t33 11.5t33 -12.5t13 -37.5q0 -24 -12.5 -36.5t-33.5 -12.5zM855 -175q-21 0 -33 12.5t-12 36.5q0 25 12 37.5t33 12.5q22 0 34.5 -13.5t12.5 -36.5t-12.5 -36
t-34.5 -13zM604 0q-36 0 -65 13.5t-50.5 39t-39.5 59.5q-52 -15 -98.5 -31t-83 -34.5t-60.5 -41.5q-48 -29 -70.5 -62t-22.5 -73q0 -44 18 -74t55 -45t93 -15q29 0 65.5 4.5t85.5 14.5l9 -54q-51 -12 -101 -18.5t-86 -6.5q-65 0 -111.5 22.5t-71.5 65t-25 101.5q0 33 9 62
t27 54q27 40 74.5 72t115.5 60t157 54q-4 15 -9 35.5t-9 45.5q-9 58 -28.5 99t-52 63t-80.5 22q-40 0 -89.5 -15t-88.5 -37l-27 52q35 25 92 42.5t112 17.5q62 0 107 -23.5t74 -73.5t41 -129q7 -42 15.5 -75.5t18.5 -56.5q16 -35 40 -54.5t60 -19.5h5q5 0 5 -4v-51
q0 -5 -5 -5h-5zM229 599q-22 0 -34 12.5t-12 36.5q0 25 12 37.5t34 12.5q20 0 33 -13t13 -36q0 -24 -12.5 -37t-33.5 -13z" />
    <glyph glyph-name="uniFC58" unicode="&#xfc58;" horiz-adv-x="1028" arabic-form="isolated" 
d="M656 0q-5 0 -5 5v51q0 4 5 4h203v422h67v-482h-270zM760 -175q-20 0 -33 11.5t-13 37.5q0 27 13 38.5t33 11.5t33 -12.5t13 -37.5q0 -24 -12.5 -36.5t-33.5 -12.5zM912 -175q-21 0 -33 12.5t-12 36.5q0 25 12 37.5t33 12.5q22 0 34.5 -13.5t12.5 -36.5t-12.5 -36
t-34.5 -13zM203 0q-38 0 -56 -17.5t-18 -55.5v-247h-64v255q0 39 13 67t39.5 43t67.5 15h8q-20 53 -30 101t-10 93q0 37 7.5 74t23.5 70q34 32 79.5 51t98.5 19q30 0 56.5 -6.5t48.5 -19.5q44 -28 68 -78t24 -112q0 -35 -6 -70t-19 -62q23 -33 52 -46.5t75 -13.5h5q5 0 5 -4
v-51q0 -5 -5 -5h-5q-53 0 -90 14.5t-71 51.5q-30 -34 -68.5 -50t-84.5 -16h-144zM221 267q0 -49 9 -99.5t32 -107.5h87q46 0 77.5 22.5t48 65.5t16.5 106q0 69 -36 112t-92 43q-36 0 -67.5 -12t-60.5 -36q-8 -17 -11 -42t-3 -52z" />
    <glyph glyph-name="uniFC59" unicode="&#xfc59;" horiz-adv-x="1318" arabic-form="isolated" 
d="M945 0q-5 0 -5 5v51q0 4 5 4h203v422h67v-482h-270zM1049 -175q-20 0 -33 11.5t-13 37.5q0 27 13 38.5t33 11.5t33 -12.5t13 -37.5q0 -24 -12.5 -36.5t-33.5 -12.5zM1201 -175q-21 0 -33 12.5t-12 36.5q0 25 12 37.5t33 12.5q22 0 34.5 -13.5t12.5 -36.5t-12.5 -36
t-34.5 -13zM273 -240q-68 0 -115 27.5t-70 81.5t-23 132q0 53 9.5 96t24.5 84h62q-14 -40 -21 -81.5t-7 -93.5q0 -62 16 -103.5t49 -62t85 -20.5h178q57 0 96.5 15.5t60 40t20.5 49.5q0 26 -21.5 41t-66.5 27q-47 14 -82.5 27.5t-55.5 37t-20 63.5q0 29 9 56t24 51
q22 36 53 62t67 41t72 15q19 0 36.5 -4t31.5 -12q27 -15 48 -40.5t48 -74.5q26 -46 48.5 -78.5t47.5 -50.5q18 -14 35.5 -20t37.5 -6h5q5 0 5 -4v-51q0 -5 -5 -5h-5q-25 0 -49 7t-47 22t-48 38q-15 14 -30 36.5t-33 52.5q-21 35 -38 59t-34 39q-14 12 -30 18t-32 6
q-27 0 -53 -14t-48 -36.5t-35 -48.5t-13 -50q0 -18 12.5 -30.5t32 -20.5t39.5 -14q33 -9 56.5 -17t41.5 -15q32 -15 49 -36t17 -49q0 -89 -62.5 -138t-184.5 -49h-188z" />
    <glyph glyph-name="uniFC5A" unicode="&#xfc5a;" horiz-adv-x="1318" arabic-form="isolated" 
d="M945 0q-5 0 -5 5v51q0 4 5 4h203v422h67v-482h-270zM1049 -175q-20 0 -33 11.5t-13 37.5q0 27 13 38.5t33 11.5t33 -12.5t13 -37.5q0 -24 -12.5 -36.5t-33.5 -12.5zM1201 -175q-21 0 -33 12.5t-12 36.5q0 25 12 37.5t33 12.5q22 0 34.5 -13.5t12.5 -36.5t-12.5 -36
t-34.5 -13zM273 -240q-68 0 -115 27.5t-70 81.5t-23 132q0 53 9.5 96t24.5 84h62q-14 -40 -21 -81.5t-7 -93.5q0 -62 16 -103.5t49 -62t85 -20.5h178q57 0 96.5 15.5t60 40t20.5 49.5q0 26 -21.5 41t-66.5 27q-47 14 -82.5 27.5t-55.5 37t-20 63.5q0 29 9 56t24 51
q22 36 53 62t67 41t72 15q19 0 36.5 -4t31.5 -12q27 -15 48 -40.5t48 -74.5q26 -46 48.5 -78.5t47.5 -50.5q18 -14 35.5 -20t37.5 -6h5q5 0 5 -4v-51q0 -5 -5 -5h-5q-25 0 -49 7t-47 22t-48 38q-15 14 -30 36.5t-33 52.5q-21 35 -38 59t-34 39q-14 12 -30 18t-32 6
q-27 0 -53 -14t-48 -36.5t-35 -48.5t-13 -50q0 -18 12.5 -30.5t32 -20.5t39.5 -14q33 -9 56.5 -17t41.5 -15q32 -15 49 -36t17 -49q0 -89 -62.5 -138t-184.5 -49h-188zM313 -426q-20 0 -33 11.5t-13 37.5q0 27 13 38.5t33 11.5t33 -12.5t13 -37.5q0 -24 -12.5 -36.5
t-33.5 -12.5zM465 -426q-21 0 -33 12.5t-12 36.5q0 25 12 37.5t33 12.5q22 0 34.5 -13.5t12.5 -36.5t-12.5 -36t-34.5 -13z" />
    <glyph glyph-name="uniFC5B" unicode="&#xfc5b;" horiz-adv-x="487" arabic-form="isolated" 
d="M45 60h332q-4 37 -12 73t-19 70q-28 87 -76.5 155.5t-122.5 119.5l24 58q74 -42 129.5 -110.5t91.5 -161t50 -205.5v-59h-397v60zM172 631q-22 0 -34 12.5t-12 36.5q0 25 12 37.5t34 12.5q20 0 33 -13t13 -36q0 -24 -12.5 -37t-33.5 -13zM147 994h45v-194h-45v194z" />
    <glyph glyph-name="uniFC5C" unicode="&#xfc5c;" horiz-adv-x="309" arabic-form="isolated" 
d="M56 -240q-24 0 -47 6.5t-47 18.5l22 52q19 -9 35 -13t36 -4q49 0 74.5 38t25.5 103v521h64v-516q0 -65 -18.5 -111.5t-55 -70.5t-89.5 -24zM159 768h45v-194h-45v194z" />
    <glyph glyph-name="uniFC5D" unicode="&#xfc5d;" horiz-adv-x="824" arabic-form="isolated" 
d="M266 -240q-63 0 -108.5 29t-69 84t-23.5 132q0 49 8.5 90.5t27.5 85.5h63q-17 -41 -24 -82t-7 -89q0 -62 16.5 -104.5t49 -64t80.5 -21.5h195q58 0 96.5 16t58.5 42.5t20 58.5q0 28 -20 52.5t-49.5 45t-58.5 36.5q-31 18 -51 31.5t-32 23.5q-13 11 -23.5 24t-16.5 28.5
t-6 32.5q0 28 10.5 59t30.5 62q28 42 65.5 75.5t80 52.5t84.5 19q23 0 47 -6.5t44.5 -15.5t32.5 -17l-29 -51q-8 4 -24 9t-33 9t-31 4q-23 0 -46.5 -7.5t-43.5 -20.5q-31 -19 -56.5 -46t-41.5 -56.5t-16 -57.5q0 -15 11 -29.5t29.5 -28.5t43.5 -28q40 -23 65.5 -42.5
t41.5 -34.5q27 -25 44 -56t17 -68q0 -81 -64 -128.5t-180 -47.5h-208zM202 526h45v-194h-45v194z" />
    <glyph glyph-name="uniFC5E" unicode="&#xfc5e;" horiz-adv-x="296" arabic-form="isolated" 
d="M76 807q-37 0 -56.5 23.5t-19.5 70.5v63h42v-56q0 -34 10 -47t31 -13q24 0 35 14t11 38v88h39v-69q0 -30 10.5 -40.5t29.5 -10.5q27 0 36.5 15t9.5 45v75h42v-81q0 -47 -20 -71t-60 -24q-20 0 -37.5 7t-27.5 24q-10 -26 -29 -38.5t-46 -12.5zM150 1048q-35 0 -58 12
t-49 39l-40 -34l-26 31l71 65q24 -36 49.5 -54.5t49.5 -18.5q9 0 16 1.5t12 3.5q-15 18 -24.5 41.5t-9.5 46.5q0 38 24 60.5t62 22.5q37 0 59.5 -21.5t22.5 -55.5q0 -39 -22 -70q-15 -21 -37.5 -36.5t-48 -24t-51.5 -8.5zM211 1106q27 13 41.5 32.5t14.5 44.5q0 18 -11.5 30
t-30.5 12q-17 0 -30 -12t-13 -36q0 -16 7 -33.5t22 -37.5z" />
    <glyph glyph-name="uniFC5F" unicode="&#xfc5f;" arabic-form="isolated" 
d="M76 837q-37 0 -56.5 23.5t-19.5 70.5v62h42v-55q0 -34 10 -47t32 -13t33.5 13.5t11.5 37.5v88h39v-68q0 -31 10 -41.5t30 -10.5q28 0 37 15t9 46v74h42v-81q0 -47 -19.5 -71t-59.5 -24q-22 0 -39 7t-27 24q-10 -26 -29 -38t-46 -12zM40 609l224 84v-44l-224 -84v44z
M40 719l224 83v-43l-224 -84v44z" />
    <glyph glyph-name="uniFC60" unicode="&#xfc60;" arabic-form="isolated" 
d="M76 807q-37 0 -56.5 23.5t-19.5 70.5v63h42v-56q0 -34 10 -47t31 -13q24 0 35 14t11 38v88h39v-69q0 -30 10.5 -40.5t29.5 -10.5q27 0 36.5 15t9.5 45v75h42v-81q0 -47 -20 -71t-60 -24q-20 0 -37.5 7t-27.5 24q-10 -26 -29 -38.5t-46 -12.5zM39 1067l224 83v-43
l-224 -84v44z" />
    <glyph glyph-name="uniFC61" unicode="&#xfc61;" arabic-form="isolated" 
d="M76 807q-37 0 -56.5 23.5t-19.5 70.5v63h42v-56q0 -34 10 -47t31 -13q24 0 35 14t11 38v88h39v-69q0 -30 10.5 -40.5t29.5 -10.5q27 0 36.5 15t9.5 45v75h42v-81q0 -47 -20 -71t-60 -24q-20 0 -37.5 7t-27.5 24q-10 -26 -29 -38.5t-46 -12.5zM110 1046q-28 0 -51.5 8.5
t-44.5 23.5l24 33q18 -13 35.5 -19t35.5 -6q14 0 27 2t24 7q-39 41 -39 89q0 37 24 59t63 22t60.5 -23t21.5 -55q0 -18 -5.5 -35t-19.5 -34q-28 -34 -69.5 -53t-85.5 -19zM195 1109q27 14 40 34t13 40q0 18 -11 30.5t-31 12.5q-18 0 -30.5 -12t-12.5 -35q0 -18 8 -35t24 -35
z" />
    <glyph glyph-name="uniFC62" unicode="&#xfc62;" arabic-form="isolated" 
d="M76 821q-37 0 -56.5 23.5t-19.5 70.5v63h42v-56q0 -34 10 -47t31 -13q24 0 35 14t11 38v88h39v-69q0 -30 10.5 -40.5t29.5 -10.5q27 0 36.5 15t9.5 45v75h42v-81q0 -47 -20 -71t-60 -24q-20 0 -37.5 7t-27.5 24q-10 -26 -29 -38.5t-46 -12.5zM33 699l224 84v-44l-224 -84
v44z" />
    <glyph glyph-name="uniFC63" unicode="&#xfc63;" arabic-form="isolated" 
d="M76 807q-37 0 -56.5 23.5t-19.5 70.5v63h42v-56q0 -34 10 -47t31 -13q24 0 35 14t11 38v88h39v-69q0 -30 10.5 -40.5t29.5 -10.5q27 0 36.5 15t9.5 45v75h42v-81q0 -47 -20 -71t-60 -24q-20 0 -37.5 7t-27.5 24q-10 -26 -29 -38.5t-46 -12.5zM127 1226h45v-194h-45v194z
" />
    <glyph glyph-name="uniFC64" unicode="&#xfc64;" horiz-adv-x="652" arabic-form="final" 
d="M330 0q-5 0 -5 5v51q0 4 5 4h132v422h67v-422h128q5 0 5 -4v-51q0 -5 -5 -5h-327zM369 596l47 8q-18 11 -26.5 27t-8.5 35q0 41 27.5 65t72.5 24q35 0 60 -14l-13 -37q-9 5 -21 8.5t-27 3.5q-23 0 -40.5 -14t-17.5 -42q0 -18 10 -31t24 -19q18 3 38 5.5t37 5t25 2.5v-40
q-19 -1 -40.5 -3.5t-45 -5.5t-49 -7t-52.5 -8v37zM219 0v-34q0 -65 -18.5 -111.5t-54.5 -70.5t-90 -24q-24 0 -47 6.5t-47 18.5l22 52q19 -9 35.5 -13t35.5 -4q49 0 74.5 38t25.5 103v521h64v-422h121q5 0 5 -4v-51q0 -5 -5 -5h-121z" />
    <glyph glyph-name="uniFC65" unicode="&#xfc65;" horiz-adv-x="652" arabic-form="final" 
d="M330 0q-5 0 -5 5v51q0 4 5 4h132v422h67v-422h128q5 0 5 -4v-51q0 -5 -5 -5h-327zM369 596l47 8q-18 11 -26.5 27t-8.5 35q0 41 27.5 65t72.5 24q35 0 60 -14l-13 -37q-9 5 -21 8.5t-27 3.5q-23 0 -40.5 -14t-17.5 -42q0 -18 10 -31t24 -19q18 3 38 5.5t37 5t25 2.5v-40
q-19 -1 -40.5 -3.5t-45 -5.5t-49 -7t-52.5 -8v37zM219 0v-34q0 -65 -18.5 -111.5t-54.5 -70.5t-90 -24q-24 0 -47 6.5t-47 18.5l22 52q19 -9 35.5 -13t35.5 -4q49 0 74.5 38t25.5 103v521h64v-422h121q5 0 5 -4v-51q0 -5 -5 -5h-121zM180 589q-22 0 -34 12.5t-12 36.5
q0 25 12 37.5t34 12.5q20 0 33 -13t13 -36q0 -24 -12.5 -37t-33.5 -13z" />
    <glyph glyph-name="uniFC66" unicode="&#xfc66;" horiz-adv-x="977" arabic-form="final" 
d="M656 0q-5 0 -5 5v51q0 4 5 4h132v422h67v-422h128q5 0 5 -4v-51q0 -5 -5 -5h-327zM694 596l47 8q-18 11 -26.5 27t-8.5 35q0 41 27.5 65t72.5 24q35 0 60 -14l-13 -37q-9 5 -21 8.5t-27 3.5q-23 0 -40.5 -14t-17.5 -42q0 -18 10 -31t24 -19q18 3 38 5.5t37 5t25 2.5v-40
q-19 -1 -40.5 -3.5t-45 -5.5t-49 -7t-52.5 -8v37zM203 0q-38 0 -56 -17.5t-18 -55.5v-247h-64v255q0 39 13 67t39.5 43t67.5 15h8q-20 53 -30 101t-10 93q0 37 7.5 74t23.5 70q34 32 79.5 51t98.5 19q30 0 56.5 -6.5t48.5 -19.5q44 -28 68 -78t24 -112q0 -35 -6 -70t-19 -62
q23 -33 52 -46.5t75 -13.5h5q5 0 5 -4v-51q0 -5 -5 -5h-5q-53 0 -90 14.5t-71 51.5q-30 -34 -68.5 -50t-84.5 -16h-144zM221 267q0 -49 9 -99.5t32 -107.5h87q46 0 77.5 22.5t48 65.5t16.5 106q0 69 -36 112t-92 43q-36 0 -67.5 -12t-60.5 -36q-8 -17 -11 -42t-3 -52z" />
    <glyph glyph-name="uniFC67" unicode="&#xfc67;" horiz-adv-x="973" arabic-form="final" 
d="M651 0q-5 0 -5 5v51q0 4 5 4h132v422h67v-422h128q5 0 5 -4v-51q0 -5 -5 -5h-327zM690 596l47 8q-18 11 -26.5 27t-8.5 35q0 41 27.5 65t72.5 24q35 0 60 -14l-13 -37q-9 5 -21 8.5t-27 3.5q-23 0 -40.5 -14t-17.5 -42q0 -18 10 -31t24 -19q18 3 38 5.5t37 5t25 2.5v-40
q-19 -1 -40.5 -3.5t-45 -5.5t-49 -7t-52.5 -8v37zM557 0q0 -122 -55.5 -181t-175.5 -59h-72q-34 0 -62.5 9.5t-50.5 27.5q-37 30 -56.5 82t-19.5 124q0 54 10 107.5t29 98.5h63q-16 -39 -25 -89.5t-9 -109.5q0 -93 33 -141.5t102 -48.5h55q59 0 96 18t55.5 57.5t18.5 103.5
v483h64v-422h104q5 0 5 -4v-51q0 -5 -5 -5h-104zM308 436q-22 0 -34 12.5t-12 36.5q0 25 12 37.5t34 12.5q20 0 33 -13t13 -36q0 -24 -12.5 -37t-33.5 -13z" />
    <glyph glyph-name="uniFC68" unicode="&#xfc68;" horiz-adv-x="1267" arabic-form="final" 
d="M945 0q-5 0 -5 5v51q0 4 5 4h132v422h67v-422h128q5 0 5 -4v-51q0 -5 -5 -5h-327zM984 596l47 8q-18 11 -26.5 27t-8.5 35q0 41 27.5 65t72.5 24q35 0 60 -14l-13 -37q-9 5 -21 8.5t-27 3.5q-23 0 -40.5 -14t-17.5 -42q0 -18 10 -31t24 -19q18 3 38 5.5t37 5t25 2.5v-40
q-19 -1 -40.5 -3.5t-45 -5.5t-49 -7t-52.5 -8v37zM273 -240q-68 0 -115 27.5t-70 81.5t-23 132q0 53 9.5 96t24.5 84h62q-14 -40 -21 -81.5t-7 -93.5q0 -62 16 -103.5t49 -62t85 -20.5h178q57 0 96.5 15.5t60 40t20.5 49.5q0 26 -21.5 41t-66.5 27q-47 14 -82.5 27.5
t-55.5 37t-20 63.5q0 29 9 56t24 51q22 36 53 62t67 41t72 15q19 0 36.5 -4t31.5 -12q27 -15 48 -40.5t48 -74.5q26 -46 48.5 -78.5t47.5 -50.5q18 -14 35.5 -20t37.5 -6h5q5 0 5 -4v-51q0 -5 -5 -5h-5q-25 0 -49 7t-47 22t-48 38q-15 14 -30 36.5t-33 52.5q-21 35 -38 59
t-34 39q-14 12 -30 18t-32 6q-27 0 -53 -14t-48 -36.5t-35 -48.5t-13 -50q0 -18 12.5 -30.5t32 -20.5t39.5 -14q33 -9 56.5 -17t41.5 -15q32 -15 49 -36t17 -49q0 -89 -62.5 -138t-184.5 -49h-188z" />
    <glyph glyph-name="uniFC69" unicode="&#xfc69;" horiz-adv-x="1267" arabic-form="final" 
d="M945 0q-5 0 -5 5v51q0 4 5 4h132v422h67v-422h128q5 0 5 -4v-51q0 -5 -5 -5h-327zM984 596l47 8q-18 11 -26.5 27t-8.5 35q0 41 27.5 65t72.5 24q35 0 60 -14l-13 -37q-9 5 -21 8.5t-27 3.5q-23 0 -40.5 -14t-17.5 -42q0 -18 10 -31t24 -19q18 3 38 5.5t37 5t25 2.5v-40
q-19 -1 -40.5 -3.5t-45 -5.5t-49 -7t-52.5 -8v37zM273 -240q-68 0 -115 27.5t-70 81.5t-23 132q0 53 9.5 96t24.5 84h62q-14 -40 -21 -81.5t-7 -93.5q0 -62 16 -103.5t49 -62t85 -20.5h178q57 0 96.5 15.5t60 40t20.5 49.5q0 26 -21.5 41t-66.5 27q-47 14 -82.5 27.5
t-55.5 37t-20 63.5q0 29 9 56t24 51q22 36 53 62t67 41t72 15q19 0 36.5 -4t31.5 -12q27 -15 48 -40.5t48 -74.5q26 -46 48.5 -78.5t47.5 -50.5q18 -14 35.5 -20t37.5 -6h5q5 0 5 -4v-51q0 -5 -5 -5h-5q-25 0 -49 7t-47 22t-48 38q-15 14 -30 36.5t-33 52.5q-21 35 -38 59
t-34 39q-14 12 -30 18t-32 6q-27 0 -53 -14t-48 -36.5t-35 -48.5t-13 -50q0 -18 12.5 -30.5t32 -20.5t39.5 -14q33 -9 56.5 -17t41.5 -15q32 -15 49 -36t17 -49q0 -89 -62.5 -138t-184.5 -49h-188zM313 -426q-20 0 -33 11.5t-13 37.5q0 27 13 38.5t33 11.5t33 -12.5
t13 -37.5q0 -24 -12.5 -36.5t-33.5 -12.5zM465 -426q-21 0 -33 12.5t-12 36.5q0 25 12 37.5t33 12.5q22 0 34.5 -13.5t12.5 -36.5t-12.5 -36t-34.5 -13z" />
    <glyph glyph-name="uniFC6A" unicode="&#xfc6a;" horiz-adv-x="652" arabic-form="final" 
d="M330 0q-5 0 -5 5v51q0 4 5 4h132v422h67v-422h128q5 0 5 -4v-51q0 -5 -5 -5h-327zM491 -192q-22 0 -34 12.5t-12 36.5t12.5 36.5t33.5 12.5q23 0 34.5 -13.5t11.5 -35.5t-11.5 -35.5t-34.5 -13.5zM219 0v-34q0 -65 -18.5 -111.5t-54.5 -70.5t-90 -24q-24 0 -47 6.5
t-47 18.5l22 52q19 -9 35.5 -13t35.5 -4q49 0 74.5 38t25.5 103v521h64v-422h121q5 0 5 -4v-51q0 -5 -5 -5h-121z" />
    <glyph glyph-name="uniFC6B" unicode="&#xfc6b;" horiz-adv-x="652" arabic-form="final" 
d="M330 0q-5 0 -5 5v51q0 4 5 4h132v422h67v-422h128q5 0 5 -4v-51q0 -5 -5 -5h-327zM491 -192q-22 0 -34 12.5t-12 36.5t12.5 36.5t33.5 12.5q23 0 34.5 -13.5t11.5 -35.5t-11.5 -35.5t-34.5 -13.5zM219 0v-34q0 -65 -18.5 -111.5t-54.5 -70.5t-90 -24q-24 0 -47 6.5
t-47 18.5l22 52q19 -9 35.5 -13t35.5 -4q49 0 74.5 38t25.5 103v521h64v-422h121q5 0 5 -4v-51q0 -5 -5 -5h-121zM180 589q-22 0 -34 12.5t-12 36.5q0 25 12 37.5t34 12.5q20 0 33 -13t13 -36q0 -24 -12.5 -37t-33.5 -13z" />
    <glyph glyph-name="uniFC6C" unicode="&#xfc6c;" horiz-adv-x="977" arabic-form="final" 
d="M656 0q-5 0 -5 5v51q0 4 5 4h132v422h67v-422h128q5 0 5 -4v-51q0 -5 -5 -5h-327zM817 -192q-22 0 -34 12.5t-12 36.5t12.5 36.5t33.5 12.5q23 0 34.5 -13.5t11.5 -35.5t-11.5 -35.5t-34.5 -13.5zM203 0q-38 0 -56 -17.5t-18 -55.5v-247h-64v255q0 39 13 67t39.5 43
t67.5 15h8q-20 53 -30 101t-10 93q0 37 7.5 74t23.5 70q34 32 79.5 51t98.5 19q30 0 56.5 -6.5t48.5 -19.5q44 -28 68 -78t24 -112q0 -35 -6 -70t-19 -62q23 -33 52 -46.5t75 -13.5h5q5 0 5 -4v-51q0 -5 -5 -5h-5q-53 0 -90 14.5t-71 51.5q-30 -34 -68.5 -50t-84.5 -16h-144
zM221 267q0 -49 9 -99.5t32 -107.5h87q46 0 77.5 22.5t48 65.5t16.5 106q0 69 -36 112t-92 43q-36 0 -67.5 -12t-60.5 -36q-8 -17 -11 -42t-3 -52z" />
    <glyph glyph-name="uniFC6D" unicode="&#xfc6d;" horiz-adv-x="973" arabic-form="final" 
d="M651 0q-5 0 -5 5v51q0 4 5 4h132v422h67v-422h128q5 0 5 -4v-51q0 -5 -5 -5h-327zM812 -192q-22 0 -34 12.5t-12 36.5t12.5 36.5t33.5 12.5q23 0 34.5 -13.5t11.5 -35.5t-11.5 -35.5t-34.5 -13.5zM557 0q0 -122 -55.5 -181t-175.5 -59h-72q-34 0 -62.5 9.5t-50.5 27.5
q-37 30 -56.5 82t-19.5 124q0 54 10 107.5t29 98.5h63q-16 -39 -25 -89.5t-9 -109.5q0 -93 33 -141.5t102 -48.5h55q59 0 96 18t55.5 57.5t18.5 103.5v483h64v-422h104q5 0 5 -4v-51q0 -5 -5 -5h-104zM308 436q-22 0 -34 12.5t-12 36.5q0 25 12 37.5t34 12.5q20 0 33 -13
t13 -36q0 -24 -12.5 -37t-33.5 -13z" />
    <glyph glyph-name="uniFC6E" unicode="&#xfc6e;" horiz-adv-x="1267" arabic-form="final" 
d="M945 0q-5 0 -5 5v51q0 4 5 4h132v422h67v-422h128q5 0 5 -4v-51q0 -5 -5 -5h-327zM1106 -192q-22 0 -34 12.5t-12 36.5t12.5 36.5t33.5 12.5q23 0 34.5 -13.5t11.5 -35.5t-11.5 -35.5t-34.5 -13.5zM273 -240q-68 0 -115 27.5t-70 81.5t-23 132q0 53 9.5 96t24.5 84h62
q-14 -40 -21 -81.5t-7 -93.5q0 -62 16 -103.5t49 -62t85 -20.5h178q57 0 96.5 15.5t60 40t20.5 49.5q0 26 -21.5 41t-66.5 27q-47 14 -82.5 27.5t-55.5 37t-20 63.5q0 29 9 56t24 51q22 36 53 62t67 41t72 15q19 0 36.5 -4t31.5 -12q27 -15 48 -40.5t48 -74.5
q26 -46 48.5 -78.5t47.5 -50.5q18 -14 35.5 -20t37.5 -6h5q5 0 5 -4v-51q0 -5 -5 -5h-5q-25 0 -49 7t-47 22t-48 38q-15 14 -30 36.5t-33 52.5q-21 35 -38 59t-34 39q-14 12 -30 18t-32 6q-27 0 -53 -14t-48 -36.5t-35 -48.5t-13 -50q0 -18 12.5 -30.5t32 -20.5t39.5 -14
q33 -9 56.5 -17t41.5 -15q32 -15 49 -36t17 -49q0 -89 -62.5 -138t-184.5 -49h-188z" />
    <glyph glyph-name="uniFC6F" unicode="&#xfc6f;" horiz-adv-x="1267" arabic-form="final" 
d="M945 0q-5 0 -5 5v51q0 4 5 4h132v422h67v-422h128q5 0 5 -4v-51q0 -5 -5 -5h-327zM1106 -192q-22 0 -34 12.5t-12 36.5t12.5 36.5t33.5 12.5q23 0 34.5 -13.5t11.5 -35.5t-11.5 -35.5t-34.5 -13.5zM273 -240q-68 0 -115 27.5t-70 81.5t-23 132q0 53 9.5 96t24.5 84h62
q-14 -40 -21 -81.5t-7 -93.5q0 -62 16 -103.5t49 -62t85 -20.5h178q57 0 96.5 15.5t60 40t20.5 49.5q0 26 -21.5 41t-66.5 27q-47 14 -82.5 27.5t-55.5 37t-20 63.5q0 29 9 56t24 51q22 36 53 62t67 41t72 15q19 0 36.5 -4t31.5 -12q27 -15 48 -40.5t48 -74.5
q26 -46 48.5 -78.5t47.5 -50.5q18 -14 35.5 -20t37.5 -6h5q5 0 5 -4v-51q0 -5 -5 -5h-5q-25 0 -49 7t-47 22t-48 38q-15 14 -30 36.5t-33 52.5q-21 35 -38 59t-34 39q-14 12 -30 18t-32 6q-27 0 -53 -14t-48 -36.5t-35 -48.5t-13 -50q0 -18 12.5 -30.5t32 -20.5t39.5 -14
q33 -9 56.5 -17t41.5 -15q32 -15 49 -36t17 -49q0 -89 -62.5 -138t-184.5 -49h-188zM313 -426q-20 0 -33 11.5t-13 37.5q0 27 13 38.5t33 11.5t33 -12.5t13 -37.5q0 -24 -12.5 -36.5t-33.5 -12.5zM465 -426q-21 0 -33 12.5t-12 36.5q0 25 12 37.5t33 12.5q22 0 34.5 -13.5
t12.5 -36.5t-12.5 -36t-34.5 -13z" />
    <glyph glyph-name="uniFC70" unicode="&#xfc70;" horiz-adv-x="709" arabic-form="final" 
d="M330 0q-5 0 -5 5v51q0 4 5 4h165v422h68v-422h150q5 0 5 -4v-51q0 -5 -5 -5h-383zM435 605q-18 0 -32 11t-14 38t14 38.5t32 11.5q21 0 33.5 -13t12.5 -37t-12 -36.5t-34 -12.5zM585 605q-21 0 -33.5 12.5t-12.5 36.5t12.5 37t33.5 13q23 0 34.5 -14t11.5 -36
t-11.5 -35.5t-34.5 -13.5zM219 0v-34q0 -65 -18.5 -111.5t-54.5 -70.5t-90 -24q-24 0 -47 6.5t-47 18.5l22 52q19 -9 35.5 -13t35.5 -4q49 0 74.5 38t25.5 103v521h64v-422h121q5 0 5 -4v-51q0 -5 -5 -5h-121z" />
    <glyph glyph-name="uniFC71" unicode="&#xfc71;" horiz-adv-x="709" arabic-form="final" 
d="M330 0q-5 0 -5 5v51q0 4 5 4h165v422h68v-422h150q5 0 5 -4v-51q0 -5 -5 -5h-383zM435 605q-18 0 -32 11t-14 38t14 38.5t32 11.5q21 0 33.5 -13t12.5 -37t-12 -36.5t-34 -12.5zM585 605q-21 0 -33.5 12.5t-12.5 36.5t12.5 37t33.5 13q23 0 34.5 -14t11.5 -36
t-11.5 -35.5t-34.5 -13.5zM219 0v-34q0 -65 -18.5 -111.5t-54.5 -70.5t-90 -24q-24 0 -47 6.5t-47 18.5l22 52q19 -9 35.5 -13t35.5 -4q49 0 74.5 38t25.5 103v521h64v-422h121q5 0 5 -4v-51q0 -5 -5 -5h-121zM180 589q-22 0 -34 12.5t-12 36.5q0 25 12 37.5t34 12.5
q20 0 33 -13t13 -36q0 -24 -12.5 -37t-33.5 -13z" />
    <glyph glyph-name="uniFC72" unicode="&#xfc72;" horiz-adv-x="1034" arabic-form="final" 
d="M656 0q-5 0 -5 5v51q0 4 5 4h165v422h68v-422h150q5 0 5 -4v-51q0 -5 -5 -5h-383zM760 605q-18 0 -32 11t-14 38t14 38.5t32 11.5q21 0 33.5 -13t12.5 -37t-12 -36.5t-34 -12.5zM910 605q-21 0 -33.5 12.5t-12.5 36.5t12.5 37t33.5 13q23 0 34.5 -14t11.5 -36
t-11.5 -35.5t-34.5 -13.5zM203 0q-38 0 -56 -17.5t-18 -55.5v-247h-64v255q0 39 13 67t39.5 43t67.5 15h8q-20 53 -30 101t-10 93q0 37 7.5 74t23.5 70q34 32 79.5 51t98.5 19q30 0 56.5 -6.5t48.5 -19.5q44 -28 68 -78t24 -112q0 -35 -6 -70t-19 -62q23 -33 52 -46.5
t75 -13.5h5q5 0 5 -4v-51q0 -5 -5 -5h-5q-53 0 -90 14.5t-71 51.5q-30 -34 -68.5 -50t-84.5 -16h-144zM221 267q0 -49 9 -99.5t32 -107.5h87q46 0 77.5 22.5t48 65.5t16.5 106q0 69 -36 112t-92 43q-36 0 -67.5 -12t-60.5 -36q-8 -17 -11 -42t-3 -52z" />
    <glyph glyph-name="uniFC73" unicode="&#xfc73;" horiz-adv-x="1029" arabic-form="final" 
d="M651 0q-5 0 -5 5v51q0 4 5 4h165v422h68v-422h150q5 0 5 -4v-51q0 -5 -5 -5h-383zM756 605q-18 0 -32 11t-14 38t14 38.5t32 11.5q21 0 33.5 -13t12.5 -37t-12 -36.5t-34 -12.5zM906 605q-21 0 -33.5 12.5t-12.5 36.5t12.5 37t33.5 13q23 0 34.5 -14t11.5 -36
t-11.5 -35.5t-34.5 -13.5zM557 0q0 -122 -55.5 -181t-175.5 -59h-72q-34 0 -62.5 9.5t-50.5 27.5q-37 30 -56.5 82t-19.5 124q0 54 10 107.5t29 98.5h63q-16 -39 -25 -89.5t-9 -109.5q0 -93 33 -141.5t102 -48.5h55q59 0 96 18t55.5 57.5t18.5 103.5v483h64v-422h104
q5 0 5 -4v-51q0 -5 -5 -5h-104zM308 436q-22 0 -34 12.5t-12 36.5q0 25 12 37.5t34 12.5q20 0 33 -13t13 -36q0 -24 -12.5 -37t-33.5 -13z" />
    <glyph glyph-name="uniFC74" unicode="&#xfc74;" horiz-adv-x="1324" arabic-form="final" 
d="M945 0q-5 0 -5 5v51q0 4 5 4h165v422h68v-422h150q5 0 5 -4v-51q0 -5 -5 -5h-383zM1050 605q-18 0 -32 11t-14 38t14 38.5t32 11.5q21 0 33.5 -13t12.5 -37t-12 -36.5t-34 -12.5zM1200 605q-21 0 -33.5 12.5t-12.5 36.5t12.5 37t33.5 13q23 0 34.5 -14t11.5 -36
t-11.5 -35.5t-34.5 -13.5zM273 -240q-68 0 -115 27.5t-70 81.5t-23 132q0 53 9.5 96t24.5 84h62q-14 -40 -21 -81.5t-7 -93.5q0 -62 16 -103.5t49 -62t85 -20.5h178q57 0 96.5 15.5t60 40t20.5 49.5q0 26 -21.5 41t-66.5 27q-47 14 -82.5 27.5t-55.5 37t-20 63.5q0 29 9 56
t24 51q22 36 53 62t67 41t72 15q19 0 36.5 -4t31.5 -12q27 -15 48 -40.5t48 -74.5q26 -46 48.5 -78.5t47.5 -50.5q18 -14 35.5 -20t37.5 -6h5q5 0 5 -4v-51q0 -5 -5 -5h-5q-25 0 -49 7t-47 22t-48 38q-15 14 -30 36.5t-33 52.5q-21 35 -38 59t-34 39q-14 12 -30 18t-32 6
q-27 0 -53 -14t-48 -36.5t-35 -48.5t-13 -50q0 -18 12.5 -30.5t32 -20.5t39.5 -14q33 -9 56.5 -17t41.5 -15q32 -15 49 -36t17 -49q0 -89 -62.5 -138t-184.5 -49h-188z" />
    <glyph glyph-name="uniFC75" unicode="&#xfc75;" horiz-adv-x="1324" arabic-form="final" 
d="M945 0q-5 0 -5 5v51q0 4 5 4h165v422h68v-422h150q5 0 5 -4v-51q0 -5 -5 -5h-383zM1050 605q-18 0 -32 11t-14 38t14 38.5t32 11.5q21 0 33.5 -13t12.5 -37t-12 -36.5t-34 -12.5zM1200 605q-21 0 -33.5 12.5t-12.5 36.5t12.5 37t33.5 13q23 0 34.5 -14t11.5 -36
t-11.5 -35.5t-34.5 -13.5zM273 -240q-68 0 -115 27.5t-70 81.5t-23 132q0 53 9.5 96t24.5 84h62q-14 -40 -21 -81.5t-7 -93.5q0 -62 16 -103.5t49 -62t85 -20.5h178q57 0 96.5 15.5t60 40t20.5 49.5q0 26 -21.5 41t-66.5 27q-47 14 -82.5 27.5t-55.5 37t-20 63.5q0 29 9 56
t24 51q22 36 53 62t67 41t72 15q19 0 36.5 -4t31.5 -12q27 -15 48 -40.5t48 -74.5q26 -46 48.5 -78.5t47.5 -50.5q18 -14 35.5 -20t37.5 -6h5q5 0 5 -4v-51q0 -5 -5 -5h-5q-25 0 -49 7t-47 22t-48 38q-15 14 -30 36.5t-33 52.5q-21 35 -38 59t-34 39q-14 12 -30 18t-32 6
q-27 0 -53 -14t-48 -36.5t-35 -48.5t-13 -50q0 -18 12.5 -30.5t32 -20.5t39.5 -14q33 -9 56.5 -17t41.5 -15q32 -15 49 -36t17 -49q0 -89 -62.5 -138t-184.5 -49h-188zM313 -426q-20 0 -33 11.5t-13 37.5q0 27 13 38.5t33 11.5t33 -12.5t13 -37.5q0 -24 -12.5 -36.5
t-33.5 -12.5zM465 -426q-21 0 -33 12.5t-12 36.5q0 25 12 37.5t33 12.5q22 0 34.5 -13.5t12.5 -36.5t-12.5 -36t-34.5 -13z" />
    </font>
</defs>
</svg>
