<?xml version="1.0" standalone="no"?>
<!DOCTYPE svg PUBLIC "-//W3C//DTD SVG 1.1//EN" "http://www.w3.org/Graphics/SVG/1.1/DTD/svg11.dtd" >
<svg xmlns="http://www.w3.org/2000/svg" xmlns:xlink="http://www.w3.org/1999/xlink" version="1.1">
<metadata>
Created by FontForge 20201107 at Mon Feb 12 18:26:37 2024
 By www-data
Copyright 2019-2022 Google LLC. All Rights Reserved.
</metadata>
<defs>
<font id="NotoKufiArabic-SemiBold" horiz-adv-x="0" >
  <font-face 
    font-family="Noto Kufi Arabic SemiBold"
    font-weight="600"
    font-stretch="normal"
    units-per-em="1000"
    panose-1="0 0 0 0 0 0 0 0 0 0"
    ascent="800"
    descent="-200"
    x-height="543"
    cap-height="714"
    bbox="-518 -656 10797 1508"
    underline-thickness="50"
    underline-position="-125"
    unicode-range="U+000D-10EFF"
  />
<missing-glyph horiz-adv-x="600" 
d="M50 -177v882h500v-882h-500zM106 -121h388v770h-388v-770z" />
    <glyph glyph-name="uniFDF2" unicode="&#xfe8d;&#xfedf;&#xfee0;&#x651;&#x670;&#xfeea;" horiz-adv-x="1573" arabic-form="isolated" 
d="M344 0q-88 0 -150.5 28.5t-95.5 82.5t-33 129q0 81 36.5 136.5t101 85.5t148.5 30h41v53h128v-439h190v530h129v-530h213v530h129v-636h-837zM392 106v280h-38q-75 0 -116 -38t-41 -108q0 -64 38 -99t109 -35h48zM1344 760h129v-760h-129v760zM675 685q-41 0 -63 25.5
t-22 71.5v63h59v-49q0 -27 7.5 -41t28.5 -14t31 10.5t10 35.5v83h54v-63q0 -23 8 -34.5t30 -11.5t30.5 11t8.5 44v69h59v-83q0 -46 -23 -71.5t-67 -25.5q-46 0 -70 30q-25 -50 -81 -50zM724 1098h57v-157h-57v157z" />
    <glyph glyph-name="uni0621" unicode="&#x621;" horiz-adv-x="514" arabic-form="isolated" 
d="M65 79q25 7 49 11.5t44 7.5q-31 19 -49.5 55t-18.5 79q0 62 31 107q28 41 77.5 63t114.5 22q41 0 76 -8t58 -21l-27 -100q-21 12 -44.5 17.5t-51.5 5.5q-50 0 -78.5 -25.5t-28.5 -77.5q0 -33 16.5 -58.5t42.5 -37.5l22 3q31 5 64 9t62.5 7t46.5 3v-107q-26 0 -66 -3.5
t-87.5 -8.5t-95.5 -11.5t-89 -13t-68 -11.5v93z" />
    <glyph glyph-name="uni0622" unicode="&#x622;" horiz-adv-x="329" arabic-form="isolated" 
d="M100 700h129v-700h-129v700zM5 771q6 58 31.5 89.5t67.5 31.5q20 0 40.5 -8.5t39.5 -19.5q17 -10 32.5 -17t28.5 -7q21 0 31.5 12.5t18.5 40.5h49q-5 -56 -30.5 -88.5t-68.5 -32.5q-19 0 -38.5 9t-39.5 19q-16 10 -32 17t-31 7q-21 0 -32 -12.5t-18 -40.5h-49z" />
    <glyph glyph-name="uni0623" unicode="&#x623;" horiz-adv-x="329" arabic-form="isolated" 
d="M100 700h129v-700h-129v700zM64 803l54 9q-19 10 -30.5 27t-11.5 39q0 43 29.5 67t77.5 24q46 0 77 -17l-18 -49q-12 6 -25.5 9t-27.5 3q-22 0 -35.5 -12.5t-13.5 -36.5q0 -16 8.5 -27.5t21.5 -17.5q24 4 43 6.5t33 4.5t23 2v-55q-18 -1 -47 -4.5t-61 -7t-58 -7t-39 -6.5
v49z" />
    <glyph glyph-name="uni0624" unicode="&#x624;" horiz-adv-x="605" arabic-form="isolated" 
d="M267 -240q-62 0 -110 11.5t-92 37.5l52 95q38 -20 73.5 -29.5t75.5 -9.5q60 0 93.5 33t33.5 89v13h-99q-107 0 -164.5 60t-57.5 171q0 83 38.5 141.5t107.5 89t157 30.5h145v-502q0 -110 -66 -170t-187 -60zM392 106v280h-35q-73 0 -113.5 -40t-40.5 -112q0 -66 28 -97
t84 -31h77zM233 622l54 9q-19 10 -30.5 27t-11.5 39q0 43 29.5 67t77.5 24q46 0 77 -17l-18 -49q-12 6 -25.5 9t-27.5 3q-22 0 -35.5 -12.5t-13.5 -36.5q0 -16 8.5 -27.5t21.5 -17.5q24 4 43 6.5t33 4.5t23 2v-55q-18 -1 -47 -4.5t-61 -7t-58 -7t-39 -6.5v49z" />
    <glyph glyph-name="uni0625" unicode="&#x625;" horiz-adv-x="329" arabic-form="isolated" 
d="M100 760h129v-760h-129v760zM53 -219l54 8q-18 10 -30 27t-12 39q0 42 29 66.5t79 24.5q23 0 42 -4t34 -13l-18 -49q-13 7 -26 10t-27 3q-21 0 -35 -13t-14 -36q0 -16 7.5 -27t22.5 -19q18 3 37.5 6t36 5t25.5 2v-55q-15 -1 -45.5 -4t-64 -7t-60 -7.5t-35.5 -6.5v50z" />
    <glyph glyph-name="uni0626" unicode="&#x626;" horiz-adv-x="868" arabic-form="isolated" 
d="M266 -240q-61 0 -106.5 30t-70 82.5t-24.5 119.5q0 50 8 96t25 93h116q-14 -41 -18.5 -79.5t-4.5 -92.5q0 -41 16 -73.5t44 -51t63 -18.5h180q45 0 79.5 7.5t55 23.5t20.5 43q0 17 -10 31.5t-27.5 28.5t-41.5 28q-24 16 -47 30.5t-45 30.5q-30 22 -48 40t-25.5 36.5
t-7.5 38.5q0 30 13 63t37 69q34 48 77.5 84.5t90.5 57t91 20.5q18 0 36.5 -4.5t39.5 -14.5t45 -26l-48 -95q-12 7 -26 12t-28 8.5t-27 3.5q-16 0 -34.5 -7.5t-39.5 -20.5q-29 -18 -52 -40.5t-36.5 -45t-13.5 -41.5q0 -13 12.5 -27.5t32 -28.5t39.5 -27q26 -16 49 -33t43 -34
q40 -34 60.5 -68t20.5 -68q0 -89 -73.5 -135t-210.5 -46h-229zM116 375l54 9q-19 10 -30.5 27t-11.5 39q0 43 29.5 67t77.5 24q46 0 77 -17l-18 -49q-12 6 -25.5 9t-27.5 3q-22 0 -35.5 -12.5t-13.5 -36.5q0 -16 8.5 -27.5t21.5 -17.5q24 4 43 6.5t33 4.5t23 2v-55
q-18 -1 -47 -4.5t-61 -7t-58 -7t-39 -6.5v49z" />
    <glyph glyph-name="uni0627" unicode="&#x627;" horiz-adv-x="329" arabic-form="isolated" 
d="M100 760h129v-760h-129v760z" />
    <glyph glyph-name="uni0628" unicode="&#x628;" horiz-adv-x="837" arabic-form="isolated" 
d="M260 0q-90 0 -142.5 53t-52.5 146q0 24 3.5 51.5t10.5 54t16 46.5h114q-7 -34 -11 -68t-4 -67q0 -49 26 -79.5t68 -30.5h337v386h127v-492h-492zM419 -200q-29 0 -46 18t-17 50q0 31 16.5 49.5t46.5 18.5t46.5 -18.5t16.5 -49.5t-17 -49.5t-46 -18.5z" />
    <glyph glyph-name="uni0629" unicode="&#x629;" horiz-adv-x="620" arabic-form="isolated" 
d="M308 -10q-118 0 -180.5 59t-62.5 172q0 38 8 73.5t24 67.5q31 65 87 102.5t127 37.5q33 0 63.5 -9t58.5 -28q36 -24 63.5 -62.5t43 -85t15.5 -96.5q0 -117 -62 -174t-185 -57zM308 97q59 0 88 31.5t29 95.5q0 49 -15 88t-41.5 61.5t-61.5 22.5q-32 0 -58.5 -22.5
t-42 -61.5t-15.5 -88q0 -65 29 -96t88 -31zM204 607q-28 0 -45.5 17.5t-17.5 50.5t17.5 50.5t45.5 17.5q29 0 46 -18t17 -50q0 -33 -17 -50.5t-46 -17.5zM375 607q-29 0 -46 18t-17 50t17 50t46 18q30 0 46.5 -18.5t16.5 -49.5t-17 -49.5t-46 -18.5z" />
    <glyph glyph-name="uni062A" unicode="&#x62a;" horiz-adv-x="837" arabic-form="isolated" 
d="M260 0q-90 0 -142.5 53t-52.5 146q0 24 3.5 51.5t10.5 54t16 46.5h114q-7 -34 -11 -68t-4 -67q0 -49 26 -79.5t68 -30.5h337v386h127v-492h-492zM302 496q-28 0 -45.5 17.5t-17.5 50.5t17.5 50.5t45.5 17.5q29 0 46 -18t17 -50q0 -33 -17 -50.5t-46 -17.5zM473 496
q-29 0 -46 18t-17 50t17 50t46 18q30 0 46.5 -18.5t16.5 -49.5t-17 -49.5t-46 -18.5z" />
    <glyph glyph-name="uni062B" unicode="&#x62b;" horiz-adv-x="837" arabic-form="isolated" 
d="M260 0q-90 0 -142.5 53t-52.5 146q0 24 3.5 51.5t10.5 54t16 46.5h114q-7 -34 -11 -68t-4 -67q0 -49 26 -79.5t68 -30.5h337v386h127v-492h-492zM389 637q-24 0 -40 14.5t-16 44.5q0 31 16 45t40 14t39.5 -15t15.5 -44q0 -28 -15.5 -43.5t-39.5 -15.5zM303 485
q-28 0 -45.5 17.5t-17.5 50.5t17.5 50.5t45.5 17.5q30 0 46.5 -18.5t16.5 -49.5t-17 -49.5t-46 -18.5zM474 485q-29 0 -46 18t-17 50t16.5 50t46.5 18q29 0 46 -18.5t17 -49.5t-17 -49.5t-46 -18.5z" />
    <glyph glyph-name="uni062C" unicode="&#x62c;" horiz-adv-x="670" arabic-form="isolated" 
d="M266 -324q-66 0 -116 24.5t-77.5 70.5t-27.5 108q0 46 17 85t51 71q27 28 66 52.5t96.5 48t137.5 46.5q-6 19 -12 40.5t-11 43.5q-14 65 -47.5 97.5t-90.5 32.5q-33 0 -74.5 -12.5t-82.5 -35.5l-47 97q44 25 105.5 41t119.5 16q99 0 156.5 -49.5t73.5 -149.5
q10 -60 23 -99t32.5 -65.5t46.5 -46.5l-68 -88q-26 21 -45.5 41.5t-35.5 43.5q-45 -11 -82 -23t-64 -23.5t-46 -22.5q-45 -25 -68 -58t-23 -75q0 -50 33 -77t92 -27q31 0 67.5 5t79.5 14l15 -96q-37 -10 -69.5 -17t-63 -10t-61.5 -3zM370 -155q-30 0 -47 18t-17 50t17 50
t47 18q29 0 45.5 -18.5t16.5 -49.5t-16.5 -49.5t-45.5 -18.5z" />
    <glyph glyph-name="uni062D" unicode="&#x62d;" horiz-adv-x="670" arabic-form="isolated" 
d="M266 -324q-66 0 -116 24.5t-77.5 70.5t-27.5 108q0 46 17 85t51 71q27 28 66 52.5t96.5 48t137.5 46.5q-6 19 -12 40.5t-11 43.5q-14 65 -47.5 97.5t-90.5 32.5q-33 0 -74.5 -12.5t-82.5 -35.5l-47 97q44 25 105.5 41t119.5 16q99 0 156.5 -49.5t73.5 -149.5
q10 -60 23 -99t32.5 -65.5t46.5 -46.5l-68 -88q-26 21 -45.5 41.5t-35.5 43.5q-45 -11 -82 -23t-64 -23.5t-46 -22.5q-45 -25 -68 -58t-23 -75q0 -50 33 -77t92 -27q31 0 67.5 5t79.5 14l15 -96q-37 -10 -69.5 -17t-63 -10t-61.5 -3z" />
    <glyph glyph-name="uni062E" unicode="&#x62e;" horiz-adv-x="670" arabic-form="isolated" 
d="M266 -324q-66 0 -116 24.5t-77.5 70.5t-27.5 108q0 46 17 85t51 71q27 28 66 52.5t96.5 48t137.5 46.5q-6 19 -12 40.5t-11 43.5q-14 65 -47.5 97.5t-90.5 32.5q-33 0 -74.5 -12.5t-82.5 -35.5l-47 97q44 25 105.5 41t119.5 16q99 0 156.5 -49.5t73.5 -149.5
q10 -60 23 -99t32.5 -65.5t46.5 -46.5l-68 -88q-26 21 -45.5 41.5t-35.5 43.5q-45 -11 -82 -23t-64 -23.5t-46 -22.5q-45 -25 -68 -58t-23 -75q0 -50 33 -77t92 -27q31 0 67.5 5t79.5 14l15 -96q-37 -10 -69.5 -17t-63 -10t-61.5 -3zM264 614q-30 0 -47 18t-17 50t17 50
t47 18q29 0 45.5 -18.5t16.5 -49.5t-16.5 -49.5t-45.5 -18.5z" />
    <glyph glyph-name="uni062F" unicode="&#x62f;" horiz-adv-x="566" arabic-form="isolated" 
d="M45 106h334q-9 43 -20 79.5t-25 65.5q-29 65 -75.5 113.5t-115.5 82.5l48 119q86 -37 149 -100t104.5 -153t63.5 -210v-103h-463v106z" />
    <glyph glyph-name="uni0630" unicode="&#x630;" horiz-adv-x="566" arabic-form="isolated" 
d="M45 106h334q-9 43 -20 79.5t-25 65.5q-29 65 -75.5 113.5t-115.5 82.5l48 119q86 -37 149 -100t104.5 -153t63.5 -210v-103h-463v106zM194 663q-30 0 -47 18t-17 50t17 50t47 18q29 0 45.5 -18.5t16.5 -49.5t-16.5 -49.5t-45.5 -18.5z" />
    <glyph glyph-name="uni0631" unicode="&#x631;" horiz-adv-x="400" arabic-form="isolated" 
d="M117 -240q-42 0 -79.5 10.5t-77.5 36.5l49 87q25 -15 44 -20t44 -5q41 0 66 32.5t25 82.5v508h127v-511q0 -67 -24 -117t-68 -77t-106 -27z" />
    <glyph glyph-name="uni0632" unicode="&#x632;" horiz-adv-x="400" arabic-form="isolated" 
d="M117 -240q-42 0 -79.5 10.5t-77.5 36.5l49 87q25 -15 44 -20t44 -5q41 0 66 32.5t25 82.5v508h127v-511q0 -67 -24 -117t-68 -77t-106 -27zM245 608q-30 0 -47 18t-17 50t17 50t47 18q29 0 45.5 -18.5t16.5 -49.5t-16.5 -49.5t-45.5 -18.5z" />
    <glyph glyph-name="uni0633" unicode="&#x633;" horiz-adv-x="1355" arabic-form="isolated" 
d="M1082 0q-43 0 -81.5 17.5t-76.5 55.5q-26 -35 -66 -54t-94 -19h-118q-6 -119 -75 -179.5t-204 -60.5h-54q-77 0 -132.5 34t-85.5 95t-30 143q0 59 12.5 119t35.5 107h115q-16 -50 -25 -109t-9 -118q0 -77 36 -121t96 -44h37q80 0 118 41t38 118v389h127v-308h93
q49 0 73.5 29.5t24.5 86.5v192h128v-207q0 -10 -0.5 -18.5t-2.5 -17.5q25 -36 51.5 -50.5t66.5 -14.5h62v386h128v-492h-188z" />
    <glyph glyph-name="uni0634" unicode="&#x634;" horiz-adv-x="1355" arabic-form="isolated" 
d="M1082 0q-43 0 -81.5 17.5t-76.5 55.5q-26 -35 -66 -54t-94 -19h-118q-6 -119 -75 -179.5t-204 -60.5h-54q-77 0 -132.5 34t-85.5 95t-30 143q0 59 12.5 119t35.5 107h115q-16 -50 -25 -109t-9 -118q0 -77 36 -121t96 -44h37q80 0 118 41t38 118v389h127v-308h93
q49 0 73.5 29.5t24.5 86.5v192h128v-207q0 -10 -0.5 -18.5t-2.5 -17.5q25 -36 51.5 -50.5t66.5 -14.5h62v386h128v-492h-188zM898 658q-24 0 -40 14.5t-16 44.5q0 31 16 45t40 14t39.5 -15t15.5 -44q0 -28 -15.5 -43.5t-39.5 -15.5zM812 506q-28 0 -45.5 17.5t-17.5 50.5
t17.5 50.5t45.5 17.5q30 0 46.5 -18.5t16.5 -49.5t-17 -49.5t-46 -18.5zM983 506q-29 0 -46 18t-17 50t16.5 50t46.5 18q29 0 46 -18.5t17 -49.5t-17 -49.5t-46 -18.5z" />
    <glyph glyph-name="uni0635" unicode="&#x635;" horiz-adv-x="1236" arabic-form="isolated" 
d="M313 -240q-77 0 -132.5 34t-85.5 95t-30 143q0 59 12.5 119t35.5 107h115q-16 -50 -25 -109t-9 -118q0 -77 36 -121t96 -44h37q80 0 118 41t38 118v467h127v-189q32 67 72.5 111t91 66t109.5 22q120 0 181 -64t61 -198v-240h-515q-6 -119 -75.5 -179.5t-203.5 -60.5h-54z
M1033 106v135q0 79 -35.5 116.5t-109.5 37.5q-47 0 -90 -23t-80.5 -69.5t-71.5 -116.5v-80h387z" />
    <glyph glyph-name="uni0636" unicode="&#x636;" horiz-adv-x="1236" arabic-form="isolated" 
d="M313 -240q-77 0 -132.5 34t-85.5 95t-30 143q0 59 12.5 119t35.5 107h115q-16 -50 -25 -109t-9 -118q0 -77 36 -121t96 -44h37q80 0 118 41t38 118v467h127v-189q32 67 72.5 111t91 66t109.5 22q120 0 181 -64t61 -198v-240h-515q-6 -119 -75.5 -179.5t-203.5 -60.5h-54z
M1033 106v135q0 79 -35.5 116.5t-109.5 37.5q-47 0 -90 -23t-80.5 -69.5t-71.5 -116.5v-80h387zM833 621q-30 0 -47 18t-17 50t17 50t47 18q29 0 45.5 -18.5t16.5 -49.5t-16.5 -49.5t-45.5 -18.5z" />
    <glyph glyph-name="uni0637" unicode="&#x637;" horiz-adv-x="838" arabic-form="isolated" 
d="M25 0q-5 0 -5 6v95q0 5 5 5h99v654h128v-457q31 67 71.5 111t91.5 66t110 22q120 0 181 -64t61 -198v-240h-742zM252 106h387v135q0 79 -35.5 116.5t-109.5 37.5q-47 0 -89.5 -23t-80.5 -69.5t-72 -117.5v-79z" />
    <glyph glyph-name="uni0638" unicode="&#x638;" horiz-adv-x="838" arabic-form="isolated" 
d="M25 0q-5 0 -5 6v95q0 5 5 5h99v654h128v-457q31 67 71.5 111t91.5 66t110 22q120 0 181 -64t61 -198v-240h-742zM252 106h387v135q0 79 -35.5 116.5t-109.5 37.5q-47 0 -89.5 -23t-80.5 -69.5t-72 -117.5v-79zM540 597q-30 0 -47 18t-17 50t17 50t47 18q29 0 45.5 -18.5
t16.5 -49.5t-16.5 -49.5t-45.5 -18.5z" />
    <glyph glyph-name="uni0639" unicode="&#x639;" horiz-adv-x="574" arabic-form="isolated" 
d="M286 -324q-66 0 -116 24.5t-77.5 69.5t-27.5 105q0 38 14 72.5t42.5 66t71.5 60.5q-25 24 -45.5 56t-32 67.5t-11.5 69.5q0 73 33.5 125.5t93 81t139.5 28.5q30 0 59.5 -4.5t56 -11.5t43.5 -16l-37 -103q-37 16 -67 22.5t-59 6.5q-44 0 -74 -16t-46 -45.5t-16 -72.5
q0 -30 5.5 -55t16.5 -46t26 -40q43 20 86.5 36.5t86.5 30.5l31 -100q-65 -16 -115 -36t-83 -41q-46 -28 -68.5 -60t-22.5 -68q0 -49 31.5 -74.5t93.5 -25.5q21 0 44 2t49 6.5t54 10.5l15 -96q-37 -10 -69.5 -17t-63 -10t-61.5 -3z" />
    <glyph glyph-name="uni063A" unicode="&#x63a;" horiz-adv-x="574" arabic-form="isolated" 
d="M286 -324q-66 0 -116 24.5t-77.5 69.5t-27.5 105q0 38 14 72.5t42.5 66t71.5 60.5q-25 24 -45.5 56t-32 67.5t-11.5 69.5q0 73 33.5 125.5t93 81t139.5 28.5q30 0 59.5 -4.5t56 -11.5t43.5 -16l-37 -103q-37 16 -67 22.5t-59 6.5q-44 0 -74 -16t-46 -45.5t-16 -72.5
q0 -30 5.5 -55t16.5 -46t26 -40q43 20 86.5 36.5t86.5 30.5l31 -100q-65 -16 -115 -36t-83 -41q-46 -28 -68.5 -60t-22.5 -68q0 -49 31.5 -74.5t93.5 -25.5q21 0 44 2t49 6.5t54 10.5l15 -96q-37 -10 -69.5 -17t-63 -10t-61.5 -3zM322 590q-30 0 -47 18t-17 50t17 50t47 18
q29 0 45.5 -18.5t16.5 -49.5t-16.5 -49.5t-45.5 -18.5z" />
    <glyph glyph-name="uni0641" unicode="&#x641;" horiz-adv-x="1054" arabic-form="isolated" 
d="M260 0q-90 0 -142.5 53t-52.5 146q0 24 3.5 51.5t10.5 54t16 46.5h114q-7 -34 -11 -68t-4 -67q0 -49 26 -79.5t68 -30.5h282q-16 19 -27 41.5t-16.5 47t-5.5 49.5q0 76 34 131.5t98 86t154 30.5h162v-492h-709zM841 106v280h-31q-50 0 -85.5 -17t-54 -49.5t-18.5 -80.5
q0 -42 16 -72t47 -45.5t76 -15.5h50zM747 593q-30 0 -47 18t-17 50t17 50t47 18q29 0 45.5 -18.5t16.5 -49.5t-16.5 -49.5t-45.5 -18.5z" />
    <glyph glyph-name="uni0642" unicode="&#x642;" horiz-adv-x="933" arabic-form="isolated" 
d="M321 -240q-57 0 -104.5 19.5t-81 55.5t-52 85t-18.5 107q0 59 12.5 117.5t35.5 108.5h115q-16 -51 -25 -109.5t-9 -115.5q0 -77 42 -119.5t121 -42.5h180q97 0 140.5 31t43.5 97v6h-82q-74 0 -127.5 29.5t-82.5 83.5t-29 128q0 82 36 137.5t101 84.5t150 29h161v-477
q0 -129 -66 -192t-207 -63h-254zM721 106v280h-32q-51 0 -86.5 -17t-53 -50t-17.5 -81q0 -44 16 -73.5t47 -44t76 -14.5h50zM506 613q-28 0 -45.5 17.5t-17.5 50.5t17.5 50.5t45.5 17.5q29 0 46 -18t17 -50q0 -33 -17 -50.5t-46 -17.5zM677 613q-29 0 -46 18t-17 50t17 50
t46 18q30 0 46.5 -18.5t16.5 -49.5t-17 -49.5t-46 -18.5z" />
    <glyph glyph-name="uni0643" unicode="&#x643;" horiz-adv-x="852" arabic-form="isolated" 
d="M260 0q-92 0 -143.5 51t-51.5 143q0 25 3.5 50.5t10.5 50.5t16 46h113q-7 -33 -11 -66t-4 -64q0 -48 26 -76.5t69 -28.5h337v654h127v-760h-492zM320 315v49h141v8q0 13 -6.5 18t-22.5 5h-93v38q14 32 45 58.5t71 37.5l20 -50q-17 -3 -34.5 -13t-30.5 -22h26
q41 0 63 -17.5t22 -49.5v-62h-201z" />
    <glyph glyph-name="uni0644" unicode="&#x644;" horiz-adv-x="746" arabic-form="isolated" 
d="M313 -240q-77 0 -132.5 34t-85.5 95t-30 143q0 39 5.5 79t16.5 78t26 69h115q-16 -50 -25 -109t-9 -118q0 -77 36 -121t96 -44h37q80 0 118 41t38 118v735h127v-735q0 -132 -69 -198.5t-210 -66.5h-54z" />
    <glyph glyph-name="uni0645" unicode="&#x645;" horiz-adv-x="693" arabic-form="isolated" 
d="M65 -38q0 43 15.5 75.5t44 50t67.5 17.5h3q-15 37 -22.5 75t-7.5 75q0 44 13 91.5t33 81.5q42 28 94.5 44t98.5 16q33 0 63 -7t56 -21q53 -29 82.5 -82t29.5 -121q0 -38 -8 -72t-25 -63q-34 -58 -93 -90t-132 -32h-107q-42 0 -60 -18t-18 -58v-244h-127v282zM287 247
q0 -32 6.5 -67t21.5 -74h49q42 0 73.5 19t49.5 53.5t18 79.5q0 57 -29 91t-74 34q-25 0 -50.5 -8.5t-50.5 -24.5q-8 -24 -11 -49.5t-3 -53.5z" />
    <glyph glyph-name="uni0646" unicode="&#x646;" horiz-adv-x="731" arabic-form="isolated" 
d="M313 -240q-41 0 -75.5 10t-63.5 28q-52 34 -80.5 93.5t-28.5 135.5q0 58 12.5 115.5t35.5 105.5h115q-16 -50 -25 -107t-9 -113q0 -75 35.5 -118.5t96.5 -43.5h37q80 0 118 41t38 118v467h127v-467q0 -132 -69 -198.5t-210 -66.5h-54zM340 489q-30 0 -47 18t-17 50t17 50
t47 18q29 0 45.5 -18.5t16.5 -49.5t-16.5 -49.5t-45.5 -18.5z" />
    <glyph glyph-name="uni0648" unicode="&#x648;" horiz-adv-x="605" arabic-form="isolated" 
d="M267 -240q-62 0 -110 11.5t-92 37.5l52 95q38 -20 73.5 -29.5t75.5 -9.5q60 0 93.5 33t33.5 89v13h-99q-107 0 -164.5 60t-57.5 171q0 83 38.5 141.5t107.5 89t157 30.5h145v-502q0 -110 -66 -170t-187 -60zM392 106v280h-35q-73 0 -113.5 -40t-40.5 -112q0 -66 28 -97
t84 -31h77z" />
    <glyph glyph-name="uni0649" unicode="&#x649;" horiz-adv-x="868" arabic-form="isolated" 
d="M266 -240q-61 0 -106.5 30t-70 82.5t-24.5 119.5q0 50 8 96t25 93h116q-14 -41 -18.5 -79.5t-4.5 -92.5q0 -41 16 -73.5t44 -51t63 -18.5h180q45 0 79.5 7.5t55 23.5t20.5 43q0 17 -10 31.5t-27.5 28.5t-41.5 28q-24 16 -47 30.5t-45 30.5q-30 22 -48 40t-25.5 36.5
t-7.5 38.5q0 30 13 63t37 69q34 48 77.5 84.5t90.5 57t91 20.5q18 0 36.5 -4.5t39.5 -14.5t45 -26l-48 -95q-12 7 -26 12t-28 8.5t-27 3.5q-16 0 -34.5 -7.5t-39.5 -20.5q-29 -18 -52 -40.5t-36.5 -45t-13.5 -41.5q0 -13 12.5 -27.5t32 -28.5t39.5 -27q26 -16 49 -33t43 -34
q40 -34 60.5 -68t20.5 -68q0 -89 -73.5 -135t-210.5 -46h-229z" />
    <glyph glyph-name="uni064A" unicode="&#x64a;" horiz-adv-x="868" arabic-form="isolated" 
d="M266 -240q-61 0 -106.5 30t-70 82.5t-24.5 119.5q0 50 8 96t25 93h116q-14 -41 -18.5 -79.5t-4.5 -92.5q0 -41 16 -73.5t44 -51t63 -18.5h180q45 0 79.5 7.5t55 23.5t20.5 43q0 17 -10 31.5t-27.5 28.5t-41.5 28q-24 16 -47 30.5t-45 30.5q-30 22 -48 40t-25.5 36.5
t-7.5 38.5q0 30 13 63t37 69q34 48 77.5 84.5t90.5 57t91 20.5q18 0 36.5 -4.5t39.5 -14.5t45 -26l-48 -95q-12 7 -26 12t-28 8.5t-27 3.5q-16 0 -34.5 -7.5t-39.5 -20.5q-29 -18 -52 -40.5t-36.5 -45t-13.5 -41.5q0 -13 12.5 -27.5t32 -28.5t39.5 -27q26 -16 49 -33t43 -34
q40 -34 60.5 -68t20.5 -68q0 -89 -73.5 -135t-210.5 -46h-229zM307 -461q-28 0 -45.5 17.5t-17.5 50.5q0 32 17.5 50t45.5 18q30 0 46.5 -18t16.5 -50q0 -33 -17 -50.5t-46 -17.5zM478 -461q-29 0 -46 18t-17 50q0 31 17 49.5t46 18.5q30 0 46.5 -18.5t16.5 -49.5t-17 -49.5
t-46 -18.5z" />
    <glyph glyph-name="uni0671" unicode="&#x671;" horiz-adv-x="329" arabic-form="isolated" 
d="M100 700h129v-700h-129v700zM33 831h46q17 51 45.5 76.5t66.5 25.5q40 0 63 -27t23 -75v-53h-244v53zM226 831q0 26 -9 37t-27 11q-19 0 -34 -13.5t-22 -34.5h92z" />
    <glyph glyph-name="uni0677" unicode="&#x677;" horiz-adv-x="1119" arabic-form="isolated" 
d="M670 309q25 7 49 11.5t44 7.5q-31 19 -49.5 55t-18.5 79q0 62 31 107q28 41 77.5 63t114.5 22q41 0 76 -8t58 -21l-27 -100q-21 12 -44.5 17.5t-51.5 5.5q-50 0 -78.5 -25.5t-28.5 -77.5q0 -33 16.5 -58.5t42.5 -37.5l22 3q31 5 64 9t62.5 7t46.5 3v-107q-26 0 -66 -3.5
t-87.5 -8.5t-95.5 -11.5t-89 -13t-68 -11.5v93zM267 -240q-62 0 -110 11.5t-92 37.5l52 95q38 -20 73.5 -29.5t75.5 -9.5q60 0 93.5 33t33.5 89v13h-99q-107 0 -164.5 60t-57.5 171q0 83 38.5 141.5t107.5 89t157 30.5h145v-502q0 -110 -66 -170t-187 -60zM392 106v280h-35
q-73 0 -113.5 -40t-40.5 -112q0 -66 28 -97t84 -31h77zM280 570l-26 38q21 12 39.5 24t33.5 23.5t26 23.5q-32 11 -52.5 34t-20.5 48q0 31 25.5 54.5t57.5 23.5q29 0 47 -23.5t18 -58.5q0 -28 -8.5 -52.5t-26.5 -47t-45.5 -44t-67.5 -43.5z" />
    <glyph glyph-name="uni0679" unicode="&#x679;" horiz-adv-x="837" arabic-form="isolated" 
d="M260 0q-90 0 -142.5 53t-52.5 146q0 24 3.5 51.5t10.5 54t16 46.5h114q-7 -34 -11 -68t-4 -67q0 -49 26 -79.5t68 -30.5h337v386h127v-492h-492zM266 555h15v182h53v-120q13 24 33 38.5t47 14.5q42 0 60.5 -23t18.5 -72v-76h-227v56zM440 555v12q0 26 -8.5 39t-28.5 13
q-23 0 -39.5 -14.5t-29.5 -38.5v-11h106z" />
    <glyph glyph-name="uni067A" unicode="&#x67a;" horiz-adv-x="837" arabic-form="isolated" 
d="M260 0q-90 0 -142.5 53t-52.5 146q0 24 3.5 51.5t10.5 54t16 46.5h114q-7 -34 -11 -68t-4 -67q0 -49 26 -79.5t68 -30.5h337v386h127v-492h-492zM382 476q-29 0 -46 17.5t-17 50.5t17 50.5t46 17.5q30 0 46.5 -18.5t16.5 -49.5q0 -32 -17 -50t-46 -18zM382 660
q-29 0 -46 17.5t-17 50.5t17 50.5t46 17.5q30 0 46.5 -18t16.5 -50t-17 -50t-46 -18z" />
    <glyph glyph-name="uni067B" unicode="&#x67b;" horiz-adv-x="837" arabic-form="isolated" 
d="M260 0q-90 0 -142.5 53t-52.5 146q0 24 3.5 51.5t10.5 54t16 46.5h114q-7 -34 -11 -68t-4 -67q0 -49 26 -79.5t68 -30.5h337v386h127v-492h-492zM419 -373q-29 0 -46 17.5t-17 50.5t17 50.5t46 17.5t46 -18t17 -50t-17 -50t-46 -18zM419 -189q-29 0 -46 18t-17 50
q0 33 17 50.5t46 17.5q30 0 46.5 -18t16.5 -50q0 -31 -17 -49.5t-46 -18.5z" />
    <glyph glyph-name="uni067E" unicode="&#x67e;" horiz-adv-x="837" arabic-form="isolated" 
d="M260 0q-90 0 -142.5 53t-52.5 146q0 24 3.5 51.5t10.5 54t16 46.5h114q-7 -34 -11 -68t-4 -67q0 -49 26 -79.5t68 -30.5h337v386h127v-492h-492zM427 -368q-24 0 -40 14.5t-16 44.5q0 31 16 45t40 14t39.5 -15.5t15.5 -43.5q0 -27 -15.5 -43t-39.5 -16zM341 -243
q-28 0 -45.5 17.5t-17.5 50.5q0 32 17 50t46 18q30 0 46.5 -18.5t16.5 -49.5q0 -32 -17 -50t-46 -18zM512 -243q-29 0 -46 18t-17 50t16.5 50t46.5 18q29 0 46 -18t17 -50t-17 -50t-46 -18z" />
    <glyph glyph-name="uni067F" unicode="&#x67f;" horiz-adv-x="837" arabic-form="isolated" 
d="M260 0q-90 0 -142.5 53t-52.5 146q0 24 3.5 51.5t10.5 54t16 46.5h114q-7 -34 -11 -68t-4 -67q0 -49 26 -79.5t68 -30.5h337v386h127v-492h-492zM310 476q-25 0 -41 15.5t-16 46.5q0 32 16.5 46.5t40.5 14.5q25 0 41 -16t16 -45q0 -28 -15.5 -45t-41.5 -17zM464 476
q-24 0 -40.5 15t-16.5 47t16.5 46.5t40.5 14.5t40.5 -15t16.5 -46t-16.5 -46.5t-40.5 -15.5zM310 639q-25 0 -41 15.5t-16 46.5q0 32 16.5 46.5t40.5 14.5q25 0 41 -16t16 -45q0 -28 -15.5 -45t-41.5 -17zM464 639q-24 0 -40.5 15t-16.5 47t16.5 46.5t40.5 14.5t40.5 -15
t16.5 -46t-16.5 -46.5t-40.5 -15.5z" />
    <glyph glyph-name="uni0680" unicode="&#x680;" horiz-adv-x="837" arabic-form="isolated" 
d="M260 0q-90 0 -142.5 53t-52.5 146q0 24 3.5 51.5t10.5 54t16 46.5h114q-7 -34 -11 -68t-4 -67q0 -49 26 -79.5t68 -30.5h337v386h127v-492h-492zM342 -371q-25 0 -41 15.5t-16 46.5q0 32 16.5 46.5t40.5 14.5q25 0 41 -16t16 -45q0 -28 -15.5 -45t-41.5 -17zM496 -371
q-24 0 -40.5 15t-16.5 47t16.5 46.5t40.5 14.5t40.5 -15t16.5 -46t-16.5 -46.5t-40.5 -15.5zM342 -208q-25 0 -41 15.5t-16 46.5q0 32 16.5 46.5t40.5 14.5q25 0 41 -16t16 -45q0 -28 -15.5 -45t-41.5 -17zM496 -208q-24 0 -40.5 15t-16.5 47t16.5 46.5t40.5 14.5t40.5 -15
t16.5 -46t-16.5 -46.5t-40.5 -15.5z" />
    <glyph glyph-name="uni0683" unicode="&#x683;" horiz-adv-x="670" arabic-form="isolated" 
d="M537 4q-26 21 -45.5 41.5t-35.5 43.5q-68 -18 -116 -35t-76 -34q-45 -25 -68 -58t-23 -75q0 -49 32 -76.5t88 -27.5l-27 -107q-66 0 -116 24.5t-77.5 70.5t-27.5 108q0 46 17 85t51 71q27 28 66 52.5t96.5 48t137.5 46.5q-6 19 -12 40.5t-11 43.5q-14 65 -47.5 97.5
t-90.5 32.5q-33 0 -74.5 -12.5t-82.5 -35.5l-47 97q44 25 105.5 41t119.5 16q99 0 156 -49.5t74 -149.5q10 -60 23 -99t32.5 -65.5t46.5 -46.5zM384 -265q-28 0 -45.5 17.5t-17.5 50.5t17.5 50.5t45.5 17.5q29 0 46 -18t17 -50q0 -33 -17 -50.5t-46 -17.5zM555 -265
q-29 0 -46 18t-17 50t17 50t46 18q30 0 46.5 -18.5t16.5 -49.5t-17 -49.5t-46 -18.5z" />
    <glyph glyph-name="uni0684" unicode="&#x684;" horiz-adv-x="670" arabic-form="isolated" 
d="M537 4q-26 21 -45.5 41.5t-35.5 43.5q-68 -18 -116 -35t-76 -34q-45 -25 -68 -58t-23 -75q0 -49 32 -76.5t88 -27.5l-27 -107q-66 0 -116 24.5t-77.5 70.5t-27.5 108q0 46 17 85t51 71q27 28 66 52.5t96.5 48t137.5 46.5q-6 19 -12 40.5t-11 43.5q-14 65 -47.5 97.5
t-90.5 32.5q-33 0 -74.5 -12.5t-82.5 -35.5l-47 97q44 25 105.5 41t119.5 16q99 0 156 -49.5t74 -149.5q10 -60 23 -99t32.5 -65.5t46.5 -46.5zM470 -358q-29 0 -46 17.5t-17 50.5t17 50.5t46 17.5q30 0 46.5 -18.5t16.5 -49.5q0 -32 -17 -50t-46 -18zM470 -174
q-29 0 -46 17.5t-17 50.5t17 50.5t46 17.5q30 0 46.5 -18t16.5 -50t-17 -50t-46 -18z" />
    <glyph glyph-name="uni0686" unicode="&#x686;" horiz-adv-x="670" arabic-form="isolated" 
d="M537 4q-26 21 -45.5 41.5t-35.5 43.5q-68 -18 -116 -35t-76 -34q-45 -25 -68 -58t-23 -75q0 -49 32 -76.5t88 -27.5l-27 -107q-66 0 -116 24.5t-77.5 70.5t-27.5 108q0 46 17 85t51 71q27 28 66 52.5t96.5 48t137.5 46.5q-6 19 -12 40.5t-11 43.5q-14 65 -47.5 97.5
t-90.5 32.5q-33 0 -74.5 -12.5t-82.5 -35.5l-47 97q44 25 105.5 41t119.5 16q99 0 156 -49.5t74 -149.5q10 -60 23 -99t32.5 -65.5t46.5 -46.5zM469 -215q24 0 40 -14.5t16 -44.5q0 -31 -16 -45t-40 -14t-39.5 15t-15.5 44q0 27 15.5 43t39.5 16zM555 -63q28 0 45.5 -17.5
t17.5 -50.5t-17 -50.5t-46 -17.5q-30 0 -46.5 18t-16.5 50q0 31 17 49.5t46 18.5zM384 -63q29 0 46 -18t17 -50t-16.5 -50t-46.5 -18q-29 0 -46 18t-17 50t17 50t46 18z" />
    <glyph glyph-name="uni0687" unicode="&#x687;" horiz-adv-x="670" arabic-form="isolated" 
d="M537 4q-26 21 -45.5 41.5t-35.5 43.5q-68 -18 -116 -35t-76 -34q-45 -25 -68 -58t-23 -75q0 -49 32 -76.5t88 -27.5l-27 -107q-66 0 -116 24.5t-77.5 70.5t-27.5 108q0 46 17 85t51 71q27 28 66 52.5t96.5 48t137.5 46.5q-6 19 -12 40.5t-11 43.5q-14 65 -47.5 97.5
t-90.5 32.5q-33 0 -74.5 -12.5t-82.5 -35.5l-47 97q44 25 105.5 41t119.5 16q99 0 156 -49.5t74 -149.5q10 -60 23 -99t32.5 -65.5t46.5 -46.5zM392 -341q-25 0 -41 15.5t-16 46.5q0 32 16.5 46.5t40.5 14.5q25 0 41 -16t16 -45q0 -28 -15.5 -45t-41.5 -17zM546 -341
q-24 0 -40.5 15t-16.5 47t16.5 46.5t40.5 14.5t40.5 -15t16.5 -46t-16.5 -46.5t-40.5 -15.5zM392 -178q-25 0 -41 15.5t-16 46.5q0 32 16.5 46.5t40.5 14.5q25 0 41 -16t16 -45q0 -28 -15.5 -45t-41.5 -17zM546 -178q-24 0 -40.5 15t-16.5 47t16.5 46.5t40.5 14.5t40.5 -15
t16.5 -46t-16.5 -46.5t-40.5 -15.5z" />
    <glyph glyph-name="uni0688" unicode="&#x688;" horiz-adv-x="566" arabic-form="isolated" 
d="M45 106h334q-9 43 -20 79.5t-25 65.5q-29 65 -75.5 113.5t-115.5 82.5l48 119q86 -37 149 -100t104.5 -153t63.5 -210v-103h-463v106zM76 734h15v182h53v-120q13 24 33 38.5t47 14.5q42 0 60.5 -23t18.5 -72v-76h-227v56zM250 734v12q0 26 -8.5 39t-28.5 13
q-23 0 -39.5 -14.5t-29.5 -38.5v-11h106z" />
    <glyph glyph-name="uni068C" unicode="&#x68c;" horiz-adv-x="566" arabic-form="isolated" 
d="M45 106h334q-9 43 -20 79.5t-25 65.5q-29 65 -75.5 113.5t-115.5 82.5l48 119q86 -37 149 -100t104.5 -153t63.5 -210v-103h-463v106zM112 675q-28 0 -45.5 17.5t-17.5 50.5t17.5 50.5t45.5 17.5q29 0 46 -18t17 -50q0 -33 -17 -50.5t-46 -17.5zM283 675q-29 0 -46 18
t-17 50t17 50t46 18q30 0 46.5 -18.5t16.5 -49.5t-17 -49.5t-46 -18.5z" />
    <glyph glyph-name="uni068D" unicode="&#x68d;" horiz-adv-x="566" arabic-form="isolated" 
d="M45 106h334q-9 43 -20 79.5t-25 65.5q-29 65 -75.5 113.5t-115.5 82.5l48 119q86 -37 149 -100t104.5 -153t63.5 -210v-103h-463v106zM198 -217q-28 0 -45.5 17.5t-17.5 50.5q0 32 17.5 50t45.5 18q30 0 46.5 -18t16.5 -50q0 -33 -17 -50.5t-46 -17.5zM369 -217
q-29 0 -46 18t-17 50q0 31 17 49.5t46 18.5q30 0 46.5 -18.5t16.5 -49.5t-17 -49.5t-46 -18.5z" />
    <glyph glyph-name="uni068E" unicode="&#x68e;" horiz-adv-x="566" arabic-form="isolated" 
d="M45 106h334q-9 43 -20 79.5t-25 65.5q-29 65 -75.5 113.5t-115.5 82.5l48 119q86 -37 149 -100t104.5 -153t63.5 -210v-103h-463v106zM199 816q-24 0 -40 14.5t-16 44.5q0 31 16 45t40 14t39.5 -15t15.5 -44q0 -28 -15.5 -43.5t-39.5 -15.5zM113 664q-28 0 -45.5 17.5
t-17.5 50.5t17.5 50.5t45.5 17.5q30 0 46.5 -18.5t16.5 -49.5t-17 -49.5t-46 -18.5zM284 664q-29 0 -46 18t-17 50t16.5 50t46.5 18q29 0 46 -18.5t17 -49.5t-17 -49.5t-46 -18.5z" />
    <glyph glyph-name="uni0691" unicode="&#x691;" horiz-adv-x="400" arabic-form="isolated" 
d="M117 -240q-42 0 -79.5 10.5t-77.5 36.5l49 87q25 -15 44 -20t44 -5q41 0 66 32.5t25 82.5v508h127v-511q0 -67 -24 -117t-68 -77t-106 -27zM126 678h15v182h53v-120q13 24 33 38.5t47 14.5q42 0 60.5 -23t18.5 -72v-76h-227v56zM300 678v12q0 26 -8.5 39t-28.5 13
q-23 0 -39.5 -14.5t-29.5 -38.5v-11h106z" />
    <glyph glyph-name="uni0698" unicode="&#x698;" horiz-adv-x="400" arabic-form="isolated" 
d="M117 -240q-42 0 -79.5 10.5t-77.5 36.5l49 87q25 -15 44 -20t44 -5q41 0 66 32.5t25 82.5v508h127v-511q0 -67 -24 -117t-68 -77t-106 -27zM249 761q-24 0 -40 14.5t-16 44.5q0 31 16 45t40 14t39.5 -15t15.5 -44q0 -28 -15.5 -43.5t-39.5 -15.5zM163 609
q-28 0 -45.5 17.5t-17.5 50.5t17.5 50.5t45.5 17.5q30 0 46.5 -18.5t16.5 -49.5t-17 -49.5t-46 -18.5zM334 609q-29 0 -46 18t-17 50t16.5 50t46.5 18q29 0 46 -18.5t17 -49.5t-17 -49.5t-46 -18.5z" />
    <glyph glyph-name="uni06A4" unicode="&#x6a4;" horiz-adv-x="1054" arabic-form="isolated" 
d="M260 0q-90 0 -142.5 53t-52.5 146q0 24 3.5 51.5t10.5 54t16 46.5h114q-7 -34 -11 -68t-4 -67q0 -49 26 -79.5t68 -30.5h282q-16 19 -27 41.5t-16.5 47t-5.5 49.5q0 76 34 131.5t98 86t154 30.5h162v-492h-709zM841 106v280h-31q-50 0 -85.5 -17t-54 -49.5t-18.5 -80.5
q0 -42 16 -72t47 -45.5t76 -15.5h50zM752 746q-24 0 -40 14.5t-16 44.5q0 31 16 45t40 14t39.5 -15t15.5 -44q0 -28 -15.5 -43.5t-39.5 -15.5zM666 594q-28 0 -45.5 17.5t-17.5 50.5t17.5 50.5t45.5 17.5q30 0 46.5 -18.5t16.5 -49.5t-17 -49.5t-46 -18.5zM837 594
q-29 0 -46 18t-17 50t16.5 50t46.5 18q29 0 46 -18.5t17 -49.5t-17 -49.5t-46 -18.5z" />
    <glyph glyph-name="uni06A6" unicode="&#x6a6;" horiz-adv-x="1054" arabic-form="isolated" 
d="M260 0q-90 0 -142.5 53t-52.5 146q0 24 3.5 51.5t10.5 54t16 46.5h114q-7 -34 -11 -68t-4 -67q0 -49 26 -79.5t68 -30.5h282q-16 19 -27 41.5t-16.5 47t-5.5 49.5q0 76 34 131.5t98 86t154 30.5h162v-492h-709zM841 106v280h-31q-50 0 -85.5 -17t-54 -49.5t-18.5 -80.5
q0 -42 16 -72t47 -45.5t76 -15.5h50zM672 585q-25 0 -41 15.5t-16 46.5q0 32 16.5 46.5t40.5 14.5q25 0 41 -16t16 -45q0 -28 -15.5 -45t-41.5 -17zM826 585q-24 0 -40.5 15t-16.5 47t16.5 46.5t40.5 14.5t40.5 -15t16.5 -46t-16.5 -46.5t-40.5 -15.5zM672 748
q-25 0 -41 15.5t-16 46.5q0 32 16.5 46.5t40.5 14.5q25 0 41 -16t16 -45q0 -28 -15.5 -45t-41.5 -17zM826 748q-24 0 -40.5 15t-16.5 47t16.5 46.5t40.5 14.5t40.5 -15t16.5 -46t-16.5 -46.5t-40.5 -15.5z" />
    <glyph glyph-name="uni06A9" unicode="&#x6a9;" horiz-adv-x="861" arabic-form="isolated" 
d="M260 0q-92 0 -143.5 51t-51.5 143q0 35 7 73t21 74h115q-7 -41 -11 -73t-4 -56q0 -50 25.5 -78t69.5 -28h370v169q0 65 -42.5 98t-124.5 33h-170v100q35 72 90 135.5t125.5 113t150.5 78.5l47 -115q-44 -15 -87 -37.5t-81 -50.5t-67.5 -58t-46.5 -60h54
q139 0 209.5 -55.5t70.5 -164.5v-292h-526z" />
    <glyph glyph-name="uni06AD" unicode="&#x6ad;" horiz-adv-x="852" arabic-form="isolated" 
d="M260 0q-92 0 -143.5 51t-51.5 143q0 25 3.5 50.5t10.5 50.5t16 46h113q-7 -33 -11 -66t-4 -64q0 -48 26 -76.5t69 -28.5h337v654h127v-760h-492zM320 315v49h141v8q0 13 -6.5 18t-22.5 5h-93v38q14 32 45 58.5t71 37.5l20 -50q-17 -3 -34.5 -13t-30.5 -22h26
q41 0 63 -17.5t22 -49.5v-62h-201zM424 740q-18 0 -30.5 11t-12.5 35q0 25 12.5 35.5t30.5 10.5q20 0 32 -12t12 -34t-12 -34t-32 -12zM357 615q-22 0 -35.5 14t-13.5 39q0 26 13.5 40t35.5 14q24 0 37 -14.5t13 -39.5q0 -24 -13.5 -38.5t-36.5 -14.5zM492 615
q-23 0 -37 14.5t-14 38.5q0 26 13.5 40t37.5 14q22 0 35 -14.5t13 -39.5q0 -24 -13 -38.5t-35 -14.5z" />
    <glyph glyph-name="uni06AF" unicode="&#x6af;" horiz-adv-x="861" arabic-form="isolated" 
d="M260 0q-92 0 -143.5 51t-51.5 143q0 35 7 73t21 74h115q-7 -41 -11 -73t-4 -56q0 -50 25.5 -78t69.5 -28h370v169q0 65 -42.5 98t-124.5 33h-170v100q35 72 90 135.5t125.5 113t150.5 78.5l47 -115q-44 -15 -87 -37.5t-81 -50.5t-67.5 -58t-46.5 -60h54
q139 0 209.5 -55.5t70.5 -164.5v-292h-526zM280 670q17 32 53.5 73.5t85 84t103.5 78.5t109 57l29 -74q-51 -18 -101.5 -49t-97.5 -70t-86.5 -82t-67.5 -87z" />
    <glyph glyph-name="uni06B1" unicode="&#x6b1;" horiz-adv-x="861" arabic-form="isolated" 
d="M260 0q-92 0 -143.5 51t-51.5 143q0 35 7 73t21 74h115q-7 -41 -11 -73t-4 -56q0 -50 25.5 -78t69.5 -28h370v169q0 65 -42.5 98t-124.5 33h-170v100q35 72 90 135.5t125.5 113t150.5 78.5l47 -115q-44 -15 -87 -37.5t-81 -50.5t-67.5 -58t-46.5 -60h54
q139 0 209.5 -55.5t70.5 -164.5v-292h-526zM280 670q17 32 53.5 73.5t85 84t103.5 78.5t109 57l29 -74q-51 -18 -101.5 -49t-97.5 -70t-86.5 -82t-67.5 -87zM282 780q-15 0 -27 7.5t-19.5 20t-7.5 26.5q0 22 14.5 36t33.5 14q15 0 27 -7.5t20 -19.5t8 -27q0 -21 -15.5 -35.5
t-33.5 -14.5zM383 868q-14 0 -26 7.5t-19.5 20t-7.5 26.5q0 22 14.5 36.5t33.5 14.5q21 0 37.5 -16.5t16.5 -38.5q0 -21 -15 -35.5t-34 -14.5z" />
    <glyph glyph-name="uni06B3" unicode="&#x6b3;" horiz-adv-x="861" arabic-form="isolated" 
d="M260 0q-92 0 -143.5 51t-51.5 143q0 35 7 73t21 74h115q-7 -41 -11 -73t-4 -56q0 -50 25.5 -78t69.5 -28h370v169q0 65 -42.5 98t-124.5 33h-170v100q35 72 90 135.5t125.5 113t150.5 78.5l47 -115q-44 -15 -87 -37.5t-81 -50.5t-67.5 -58t-46.5 -60h54
q139 0 209.5 -55.5t70.5 -164.5v-292h-526zM280 670q17 32 53.5 73.5t85 84t103.5 78.5t109 57l29 -74q-51 -18 -101.5 -49t-97.5 -70t-86.5 -82t-67.5 -87zM394 -422q-29 0 -46 17.5t-17 50.5t17 50.5t46 17.5t46 -18t17 -50t-17 -50t-46 -18zM394 -238q-29 0 -46 18
t-17 50q0 33 17 50.5t46 17.5q30 0 46.5 -18t16.5 -50q0 -31 -17 -49.5t-46 -18.5z" />
    <glyph glyph-name="uni06BA" unicode="&#x6ba;" horiz-adv-x="731" arabic-form="isolated" 
d="M313 -240q-41 0 -75.5 10t-63.5 28q-52 34 -80.5 93.5t-28.5 135.5q0 58 12.5 115.5t35.5 105.5h115q-16 -50 -25 -107t-9 -113q0 -75 35.5 -118.5t96.5 -43.5h37q80 0 118 41t38 118v467h127v-467q0 -132 -69 -198.5t-210 -66.5h-54z" />
    <glyph glyph-name="uni06BB" unicode="&#x6bb;" horiz-adv-x="731" arabic-form="isolated" 
d="M313 -240q-41 0 -75.5 10t-63.5 28q-52 34 -80.5 93.5t-28.5 135.5q0 58 12.5 115.5t35.5 105.5h115q-16 -50 -25 -107t-9 -113q0 -75 35.5 -118.5t96.5 -43.5h37q80 0 118 41t38 118v467h127v-467q0 -132 -69 -198.5t-210 -66.5h-54zM221 559h15v182h53v-120
q13 24 33 38.5t47 14.5q42 0 60.5 -23t18.5 -72v-76h-227v56zM395 559v12q0 26 -8.5 39t-28.5 13q-23 0 -39.5 -14.5t-29.5 -38.5v-11h106z" />
    <glyph glyph-name="uni06BE" unicode="&#x6be;" horiz-adv-x="884" arabic-form="isolated" 
d="M65 0v106h97q-25 20 -40 55.5t-15 85.5q0 30 7 57t22 52q30 49 80.5 77.5t109.5 28.5q67 0 115 -27t74.5 -75.5t26.5 -114.5v-139h136v189q0 131 -62.5 197t-185.5 66q-66 0 -119.5 -8.5t-104.5 -26.5l-30 102q41 14 82 22.5t83.5 13t88.5 4.5q185 0 280.5 -92.5
t95.5 -266.5v-306h-741zM365 106h49v130q0 59 -21.5 86t-66.5 27q-40 0 -64 -29.5t-24 -77.5q0 -43 15 -73.5t43.5 -46.5t68.5 -16z" />
    <glyph glyph-name="uni06C0" unicode="&#x6c0;" horiz-adv-x="620" arabic-form="isolated" 
d="M308 -10q-118 0 -180.5 59t-62.5 172q0 38 8 73.5t24 67.5q31 65 87 102.5t127 37.5q33 0 63.5 -9t58.5 -28q36 -24 63.5 -62.5t43 -85t15.5 -96.5q0 -117 -62 -174t-185 -57zM308 97q59 0 88 31.5t29 95.5q0 49 -15 88t-41.5 61.5t-61.5 22.5q-32 0 -58.5 -22.5
t-42 -61.5t-15.5 -88q0 -65 29 -96t88 -31zM175 613l54 9q-19 10 -30.5 27t-11.5 39q0 43 29.5 67t77.5 24q46 0 77 -17l-18 -49q-12 6 -25.5 9t-27.5 3q-22 0 -35.5 -12.5t-13.5 -36.5q0 -16 8.5 -27.5t21.5 -17.5q24 4 43 6.5t33 4.5t23 2v-55q-18 -1 -47 -4.5t-61 -7
t-58 -7t-39 -6.5v49z" />
    <glyph glyph-name="uni06C1" unicode="&#x6c1;" horiz-adv-x="620" arabic-form="isolated" 
d="M308 -10q-118 0 -180.5 59t-62.5 172q0 38 8 73.5t24 67.5q31 65 87 102.5t127 37.5q33 0 63.5 -9t58.5 -28q36 -24 63.5 -62.5t43 -85t15.5 -96.5q0 -117 -62 -174t-185 -57zM308 97q59 0 88 31.5t29 95.5q0 49 -15 88t-41.5 61.5t-61.5 22.5q-32 0 -58.5 -22.5
t-42 -61.5t-15.5 -88q0 -65 29 -96t88 -31z" />
    <glyph glyph-name="uni06C5" unicode="&#x6c5;" horiz-adv-x="600" arabic-form="isolated" 
d="M388 106v280h-36q-72 0 -112.5 -40t-40.5 -112q0 -66 27.5 -97t83.5 -31h78zM254 -257q29 24 60 56t52 71.5t21 86.5v43h-98q-107 0 -164.5 60t-57.5 171q0 83 39 141.5t107.5 89t156.5 30.5h145v-523q0 -55 -20 -107.5t-61.5 -103.5t-104.5 -99zM350 -183l-35 14
q-19 7 -34.5 11t-31.5 4q-17 0 -32.5 -3t-29.5 -9l-32 67q23 17 47.5 26.5t46.5 9.5q16 0 37.5 -6t46.5 -15q19 -6 34 -11.5t22 -7.5z" />
    <glyph glyph-name="uni06C6" unicode="&#x6c6;" horiz-adv-x="605" arabic-form="isolated" 
d="M267 -240q-62 0 -110 11.5t-92 37.5l52 95q38 -20 73.5 -29.5t75.5 -9.5q60 0 93.5 33t33.5 89v13h-99q-107 0 -164.5 60t-57.5 171q0 83 38.5 141.5t107.5 89t157 30.5h145v-502q0 -110 -66 -170t-187 -60zM392 106v280h-35q-73 0 -113.5 -40t-40.5 -112q0 -66 28 -97
t84 -31h77zM497 788l-110 -199h-89l-111 199h91l63 -129l65 129h91z" />
    <glyph glyph-name="uni06C7" unicode="&#x6c7;" horiz-adv-x="605" arabic-form="isolated" 
d="M267 -240q-62 0 -110 11.5t-92 37.5l52 95q38 -20 73.5 -29.5t75.5 -9.5q60 0 93.5 33t33.5 89v13h-99q-107 0 -164.5 60t-57.5 171q0 83 38.5 141.5t107.5 89t157 30.5h145v-502q0 -110 -66 -170t-187 -60zM392 106v280h-35q-73 0 -113.5 -40t-40.5 -112q0 -66 28 -97
t84 -31h77zM280 570l-26 38q21 12 39.5 24t33.5 23.5t26 23.5q-32 11 -52.5 34t-20.5 48q0 31 25.5 54.5t57.5 23.5q29 0 47 -23.5t18 -58.5q0 -28 -8.5 -52.5t-26.5 -47t-45.5 -44t-67.5 -43.5z" />
    <glyph glyph-name="uni06C8" unicode="&#x6c8;" horiz-adv-x="605" arabic-form="isolated" 
d="M267 -240q-62 0 -110 11.5t-92 37.5l52 95q38 -20 73.5 -29.5t75.5 -9.5q60 0 93.5 33t33.5 89v13h-99q-107 0 -164.5 60t-57.5 171q0 83 38.5 141.5t107.5 89t157 30.5h145v-502q0 -110 -66 -170t-187 -60zM392 106v280h-35q-73 0 -113.5 -40t-40.5 -112q0 -66 28 -97
t84 -31h77zM277 773h64v-194h-64v194z" />
    <glyph glyph-name="uni06C9" unicode="&#x6c9;" horiz-adv-x="605" arabic-form="isolated" 
d="M267 -240q-62 0 -110 11.5t-92 37.5l52 95q38 -20 73.5 -29.5t75.5 -9.5q60 0 93.5 33t33.5 89v13h-99q-107 0 -164.5 60t-57.5 171q0 83 38.5 141.5t107.5 89t157 30.5h145v-502q0 -110 -66 -170t-187 -60zM392 106v280h-35q-73 0 -113.5 -40t-40.5 -112q0 -66 28 -97
t84 -31h77zM198 589l110 199h68l111 -199h-81l-63 129l-65 -129h-80z" />
    <glyph glyph-name="uni06CB" unicode="&#x6cb;" horiz-adv-x="605" arabic-form="isolated" 
d="M267 -240q-62 0 -110 11.5t-92 37.5l52 95q38 -20 73.5 -29.5t75.5 -9.5q60 0 93.5 33t33.5 89v13h-99q-107 0 -164.5 60t-57.5 171q0 83 38.5 141.5t107.5 89t157 30.5h145v-502q0 -110 -66 -170t-187 -60zM392 106v280h-35q-73 0 -113.5 -40t-40.5 -112q0 -66 28 -97
t84 -31h77zM349 757q-24 0 -40 14.5t-16 44.5q0 31 16 45t40 14t39.5 -15t15.5 -44q0 -28 -15.5 -43.5t-39.5 -15.5zM263 605q-28 0 -45.5 17.5t-17.5 50.5t17.5 50.5t45.5 17.5q30 0 46.5 -18.5t16.5 -49.5t-17 -49.5t-46 -18.5zM434 605q-29 0 -46 18t-17 50t16.5 50
t46.5 18q29 0 46 -18.5t17 -49.5t-17 -49.5t-46 -18.5z" />
    <glyph glyph-name="uni06CC" unicode="&#x6cc;" horiz-adv-x="868" arabic-form="isolated" 
d="M266 -240q-61 0 -106.5 30t-70 82.5t-24.5 119.5q0 50 8 96t25 93h116q-14 -41 -18.5 -79.5t-4.5 -92.5q0 -41 16 -73.5t44 -51t63 -18.5h180q45 0 79.5 7.5t55 23.5t20.5 43q0 17 -10 31.5t-27.5 28.5t-41.5 28q-24 16 -47 30.5t-45 30.5q-30 22 -48 40t-25.5 36.5
t-7.5 38.5q0 30 13 63t37 69q34 48 77.5 84.5t90.5 57t91 20.5q18 0 36.5 -4.5t39.5 -14.5t45 -26l-48 -95q-12 7 -26 12t-28 8.5t-27 3.5q-16 0 -34.5 -7.5t-39.5 -20.5q-29 -18 -52 -40.5t-36.5 -45t-13.5 -41.5q0 -13 12.5 -27.5t32 -28.5t39.5 -27q26 -16 49 -33t43 -34
q40 -34 60.5 -68t20.5 -68q0 -89 -73.5 -135t-210.5 -46h-229z" />
    <glyph glyph-name="uni06D0" unicode="&#x6d0;" horiz-adv-x="868" arabic-form="isolated" 
d="M266 -240q-61 0 -106.5 30t-70 82.5t-24.5 119.5q0 50 8 96t25 93h116q-14 -41 -18.5 -79.5t-4.5 -92.5q0 -41 16 -73.5t44 -51t63 -18.5h180q45 0 79.5 7.5t55 23.5t20.5 43q0 17 -10 31.5t-27.5 28.5t-41.5 28q-24 16 -47 30.5t-45 30.5q-30 22 -48 40t-25.5 36.5
t-7.5 38.5q0 30 13 63t37 69q34 48 77.5 84.5t90.5 57t91 20.5q18 0 36.5 -4.5t39.5 -14.5t45 -26l-48 -95q-12 7 -26 12t-28 8.5t-27 3.5q-16 0 -34.5 -7.5t-39.5 -20.5q-29 -18 -52 -40.5t-36.5 -45t-13.5 -41.5q0 -13 12.5 -27.5t32 -28.5t39.5 -27q26 -16 49 -33t43 -34
q40 -34 60.5 -68t20.5 -68q0 -89 -73.5 -135t-210.5 -46h-229zM390 -656q-29 0 -46 17.5t-17 50.5t17 50.5t46 17.5t46 -18t17 -50t-17 -50t-46 -18zM390 -472q-29 0 -46 18t-17 50q0 33 17 50.5t46 17.5q30 0 46.5 -18t16.5 -50q0 -31 -17 -49.5t-46 -18.5z" />
    <glyph glyph-name="uni06D2" unicode="&#x6d2;" horiz-adv-x="577" arabic-form="isolated" 
d="M236 -228q-91 0 -141 39.5t-50 110.5q0 21 5 39.5t14 34.5q13 22 34.5 41t57 38t90.5 41q38 16 63.5 28t39.5 22q27 19 38 43t11 69v37h129v-40q0 -62 -16 -102q-11 -26 -31 -48t-53 -41t-86 -40q-43 -16 -71 -28.5t-43 -21.5q-29 -17 -41 -31.5t-12 -37.5
q0 -22 15.5 -34.5t44.5 -12.5h468v-106h-466z" />
    <glyph glyph-name="uni06D3" unicode="&#x6d3;" horiz-adv-x="577" arabic-form="isolated" 
d="M236 -228q-91 0 -141 39.5t-50 110.5q0 21 5 39.5t14 34.5q13 22 34.5 41t57 38t90.5 41q38 16 63.5 28t39.5 22q27 19 38 43t11 69v37h129v-40q0 -62 -16 -102q-11 -26 -31 -48t-53 -41t-86 -40q-43 -16 -71 -28.5t-43 -21.5q-29 -17 -41 -31.5t-12 -37.5
q0 -22 15.5 -34.5t44.5 -12.5h468v-106h-466zM217 444l54 9q-19 10 -30.5 27t-11.5 39q0 43 29.5 67t77.5 24q46 0 77 -17l-18 -49q-12 6 -25.5 9t-27.5 3q-22 0 -35.5 -12.5t-13.5 -36.5q0 -16 8.5 -27.5t21.5 -17.5q24 4 43 6.5t33 4.5t23 2v-55q-18 -1 -47 -4.5t-61 -7
t-58 -7t-39 -6.5v49z" />
    <glyph glyph-name="uni06D5" unicode="&#x647;" horiz-adv-x="620" arabic-form="isolated" 
d="M308 -10q-118 0 -180.5 59t-62.5 172q0 38 8 73.5t24 67.5q31 65 87 102.5t127 37.5q33 0 63.5 -9t58.5 -28q36 -24 63.5 -62.5t43 -85t15.5 -96.5q0 -117 -62 -174t-185 -57zM308 97q59 0 88 31.5t29 95.5q0 49 -15 88t-41.5 61.5t-61.5 22.5q-32 0 -58.5 -22.5
t-42 -61.5t-15.5 -88q0 -65 29 -96t88 -31z" />
    <glyph glyph-name="uniFB51" unicode="&#x671;" horiz-adv-x="351" arabic-form="final" 
d="M357 106q4 0 4 -4v-97q0 -5 -5 -5h-256v760h129v-654h128zM26 908h46q17 51 45.5 76.5t66.5 25.5q40 0 63 -27t23 -75v-53h-244v53zM219 908q0 26 -9 37t-27 11q-19 0 -34 -13.5t-22 -34.5h92z" />
    <glyph glyph-name="uniFB53" unicode="&#x67b;" horiz-adv-x="878" arabic-form="final" 
d="M260 0q-90 0 -142.5 53t-52.5 146q0 24 3.5 51.5t10.5 54t16 46.5h114q-7 -34 -11 -68t-4 -67q0 -49 26 -79.5t68 -30.5h337v386h127v-386h131q5 0 5 -4v-97q0 -5 -5 -5h-623zM390 -412q-29 0 -46 17.5t-17 50.5t17 50.5t46 17.5t46 -18t17 -50t-17 -50t-46 -18z
M390 -228q-29 0 -46 18t-17 50q0 33 17 50.5t46 17.5q30 0 46.5 -18t16.5 -50q0 -31 -17 -49.5t-46 -18.5z" />
    <glyph glyph-name="uniFB54" unicode="&#x67b;" horiz-adv-x="336" arabic-form="initial" 
d="M-5 0q-5 0 -5 5v97q0 4 5 4h127v386h129v-492h-256zM126 -412q-29 0 -46 17.5t-17 50.5t17 50.5t46 17.5t46 -18t17 -50t-17 -50t-46 -18zM126 -228q-29 0 -46 18t-17 50q0 33 17 50.5t46 17.5q30 0 46.5 -18t16.5 -50q0 -31 -17 -49.5t-46 -18.5z" />
    <glyph glyph-name="uniFB55" unicode="&#x67b;" horiz-adv-x="376" arabic-form="medial" 
d="M-5 0q-5 0 -5 5v97q0 4 5 4h127v386h129v-386h130q5 0 5 -4v-97q0 -5 -5 -5h-386zM165 -412q-29 0 -46 17.5t-17 50.5t17 50.5t46 17.5t46 -18t17 -50t-17 -50t-46 -18zM165 -228q-29 0 -46 18t-17 50q0 33 17 50.5t46 17.5q30 0 46.5 -18t16.5 -50q0 -31 -17 -49.5
t-46 -18.5z" />
    <glyph glyph-name="uniFB57" unicode="&#x67e;" horiz-adv-x="878" arabic-form="final" 
d="M260 0q-90 0 -142.5 53t-52.5 146q0 24 3.5 51.5t10.5 54t16 46.5h114q-7 -34 -11 -68t-4 -67q0 -49 26 -79.5t68 -30.5h337v386h127v-386h131q5 0 5 -4v-97q0 -5 -5 -5h-623zM398 -407q-24 0 -40 14.5t-16 44.5q0 31 16 45t40 14t39.5 -15.5t15.5 -43.5q0 -27 -15.5 -43
t-39.5 -16zM312 -282q-28 0 -45.5 17.5t-17.5 50.5q0 32 17 50t46 18q30 0 46.5 -18.5t16.5 -49.5q0 -32 -17 -50t-46 -18zM483 -282q-29 0 -46 18t-17 50t16.5 50t46.5 18q29 0 46 -18t17 -50t-17 -50t-46 -18z" />
    <glyph glyph-name="uniFB58" unicode="&#x67e;" horiz-adv-x="394" arabic-form="initial" 
d="M-5 0q-5 0 -5 5v97q0 4 5 4h181v386h129v-492h-310zM188 -407q-24 0 -40 14.5t-16 44.5q0 31 16 45t40 14t39.5 -15.5t15.5 -43.5q0 -27 -15.5 -43t-39.5 -16zM102 -282q-28 0 -45.5 17.5t-17.5 50.5q0 32 17 50t46 18q30 0 46.5 -18.5t16.5 -49.5q0 -32 -17 -50t-46 -18
zM273 -282q-29 0 -46 18t-17 50t16.5 50t46.5 18q29 0 46 -18t17 -50t-17 -50t-46 -18z" />
    <glyph glyph-name="uniFB59" unicode="&#x67e;" horiz-adv-x="426" arabic-form="medial" 
d="M-5 0q-5 0 -5 5v97q0 4 5 4h157v386h129v-386h150q5 0 5 -4v-97q0 -5 -5 -5h-436zM203 -407q-24 0 -40 14.5t-16 44.5q0 31 16 45t40 14t39.5 -15.5t15.5 -43.5q0 -27 -15.5 -43t-39.5 -16zM117 -282q-28 0 -45.5 17.5t-17.5 50.5q0 32 17 50t46 18q30 0 46.5 -18.5
t16.5 -49.5q0 -32 -17 -50t-46 -18zM288 -282q-29 0 -46 18t-17 50t16.5 50t46.5 18q29 0 46 -18t17 -50t-17 -50t-46 -18z" />
    <glyph glyph-name="uniFB5B" unicode="&#x680;" horiz-adv-x="878" arabic-form="final" 
d="M260 0q-90 0 -142.5 53t-52.5 146q0 24 3.5 51.5t10.5 54t16 46.5h114q-7 -34 -11 -68t-4 -67q0 -49 26 -79.5t68 -30.5h337v386h127v-386h131q5 0 5 -4v-97q0 -5 -5 -5h-623zM313 -410q-25 0 -41 15.5t-16 46.5q0 32 16.5 46.5t40.5 14.5q25 0 41 -16t16 -45
q0 -28 -15.5 -45t-41.5 -17zM467 -410q-24 0 -40.5 15t-16.5 47t16.5 46.5t40.5 14.5t40.5 -15t16.5 -46t-16.5 -46.5t-40.5 -15.5zM313 -247q-25 0 -41 15.5t-16 46.5q0 32 16.5 46.5t40.5 14.5q25 0 41 -16t16 -45q0 -28 -15.5 -45t-41.5 -17zM467 -247q-24 0 -40.5 15
t-16.5 47t16.5 46.5t40.5 14.5t40.5 -15t16.5 -46t-16.5 -46.5t-40.5 -15.5z" />
    <glyph glyph-name="uniFB5C" unicode="&#x680;" horiz-adv-x="394" arabic-form="initial" 
d="M-5 0q-5 0 -5 5v97q0 4 5 4h181v386h129v-492h-310zM103 -410q-25 0 -41 15.5t-16 46.5q0 32 16.5 46.5t40.5 14.5q25 0 41 -16t16 -45q0 -28 -15.5 -45t-41.5 -17zM257 -410q-24 0 -40.5 15t-16.5 47t16.5 46.5t40.5 14.5t40.5 -15t16.5 -46t-16.5 -46.5t-40.5 -15.5z
M103 -247q-25 0 -41 15.5t-16 46.5q0 32 16.5 46.5t40.5 14.5q25 0 41 -16t16 -45q0 -28 -15.5 -45t-41.5 -17zM257 -247q-24 0 -40.5 15t-16.5 47t16.5 46.5t40.5 14.5t40.5 -15t16.5 -46t-16.5 -46.5t-40.5 -15.5z" />
    <glyph glyph-name="uniFB5D" unicode="&#x680;" horiz-adv-x="426" arabic-form="medial" 
d="M-5 0q-5 0 -5 5v97q0 4 5 4h157v386h129v-386h150q5 0 5 -4v-97q0 -5 -5 -5h-436zM118 -410q-25 0 -41 15.5t-16 46.5q0 32 16.5 46.5t40.5 14.5q25 0 41 -16t16 -45q0 -28 -15.5 -45t-41.5 -17zM272 -410q-24 0 -40.5 15t-16.5 47t16.5 46.5t40.5 14.5t40.5 -15
t16.5 -46t-16.5 -46.5t-40.5 -15.5zM118 -247q-25 0 -41 15.5t-16 46.5q0 32 16.5 46.5t40.5 14.5q25 0 41 -16t16 -45q0 -28 -15.5 -45t-41.5 -17zM272 -247q-24 0 -40.5 15t-16.5 47t16.5 46.5t40.5 14.5t40.5 -15t16.5 -46t-16.5 -46.5t-40.5 -15.5z" />
    <glyph glyph-name="uniFB5F" unicode="&#x67a;" horiz-adv-x="878" arabic-form="final" 
d="M260 0q-90 0 -142.5 53t-52.5 146q0 24 3.5 51.5t10.5 54t16 46.5h114q-7 -34 -11 -68t-4 -67q0 -49 26 -79.5t68 -30.5h337v386h127v-386h131q5 0 5 -4v-97q0 -5 -5 -5h-623zM408 382q-29 0 -46 17.5t-17 50.5t17 50.5t46 17.5q30 0 46.5 -18.5t16.5 -49.5
q0 -32 -17 -50t-46 -18zM408 566q-29 0 -46 17.5t-17 50.5t17 50.5t46 17.5q30 0 46.5 -18t16.5 -50t-17 -50t-46 -18z" />
    <glyph glyph-name="uniFB60" unicode="&#x67a;" horiz-adv-x="394" arabic-form="initial" 
d="M-5 0q-5 0 -5 5v97q0 4 5 4h181v386h129v-492h-310zM199 597q-29 0 -46 17.5t-17 50.5t17 50.5t46 17.5q30 0 46.5 -18.5t16.5 -49.5q0 -32 -17 -50t-46 -18zM199 781q-29 0 -46 17.5t-17 50.5t17 50.5t46 17.5q30 0 46.5 -18t16.5 -50t-17 -50t-46 -18z" />
    <glyph glyph-name="uniFB61" unicode="&#x67a;" horiz-adv-x="426" arabic-form="medial" 
d="M-5 0q-5 0 -5 5v97q0 4 5 4h157v386h129v-386h150q5 0 5 -4v-97q0 -5 -5 -5h-436zM175 617q-29 0 -46 17.5t-17 50.5t17 50.5t46 17.5q30 0 46.5 -18.5t16.5 -49.5q0 -32 -17 -50t-46 -18zM175 801q-29 0 -46 17.5t-17 50.5t17 50.5t46 17.5q30 0 46.5 -18t16.5 -50
t-17 -50t-46 -18z" />
    <glyph glyph-name="uniFB63" unicode="&#x67f;" horiz-adv-x="878" arabic-form="final" 
d="M260 0q-90 0 -142.5 53t-52.5 146q0 24 3.5 51.5t10.5 54t16 46.5h114q-7 -34 -11 -68t-4 -67q0 -49 26 -79.5t68 -30.5h337v386h127v-386h131q5 0 5 -4v-97q0 -5 -5 -5h-623zM335 382q-25 0 -41 15.5t-16 46.5q0 32 16.5 46.5t40.5 14.5q25 0 41 -16t16 -45
q0 -28 -15.5 -45t-41.5 -17zM489 382q-24 0 -40.5 15t-16.5 47t16.5 46.5t40.5 14.5t40.5 -15t16.5 -46t-16.5 -46.5t-40.5 -15.5zM335 545q-25 0 -41 15.5t-16 46.5q0 32 16.5 46.5t40.5 14.5q25 0 41 -16t16 -45q0 -28 -15.5 -45t-41.5 -17zM489 545q-24 0 -40.5 15
t-16.5 47t16.5 46.5t40.5 14.5t40.5 -15t16.5 -46t-16.5 -46.5t-40.5 -15.5z" />
    <glyph glyph-name="uniFB64" unicode="&#x67f;" horiz-adv-x="394" arabic-form="initial" 
d="M-5 0q-5 0 -5 5v97q0 4 5 4h181v386h129v-492h-310zM127 597q-25 0 -41 15.5t-16 46.5q0 32 16.5 46.5t40.5 14.5q25 0 41 -16t16 -45q0 -28 -15.5 -45t-41.5 -17zM281 597q-24 0 -40.5 15t-16.5 47t16.5 46.5t40.5 14.5t40.5 -15t16.5 -46t-16.5 -46.5t-40.5 -15.5z
M127 760q-25 0 -41 15.5t-16 46.5q0 32 16.5 46.5t40.5 14.5q25 0 41 -16t16 -45q0 -28 -15.5 -45t-41.5 -17zM281 760q-24 0 -40.5 15t-16.5 47t16.5 46.5t40.5 14.5t40.5 -15t16.5 -46t-16.5 -46.5t-40.5 -15.5z" />
    <glyph glyph-name="uniFB65" unicode="&#x67f;" horiz-adv-x="426" arabic-form="medial" 
d="M-5 0q-5 0 -5 5v97q0 4 5 4h157v386h129v-386h150q5 0 5 -4v-97q0 -5 -5 -5h-436zM103 617q-25 0 -41 15.5t-16 46.5q0 32 16.5 46.5t40.5 14.5q25 0 41 -16t16 -45q0 -28 -15.5 -45t-41.5 -17zM257 617q-24 0 -40.5 15t-16.5 47t16.5 46.5t40.5 14.5t40.5 -15t16.5 -46
t-16.5 -46.5t-40.5 -15.5zM103 780q-25 0 -41 15.5t-16 46.5q0 32 16.5 46.5t40.5 14.5q25 0 41 -16t16 -45q0 -28 -15.5 -45t-41.5 -17zM257 780q-24 0 -40.5 15t-16.5 47t16.5 46.5t40.5 14.5t40.5 -15t16.5 -46t-16.5 -46.5t-40.5 -15.5z" />
    <glyph glyph-name="uniFB67" unicode="&#x679;" horiz-adv-x="878" arabic-form="final" 
d="M260 0q-90 0 -142.5 53t-52.5 146q0 24 3.5 51.5t10.5 54t16 46.5h114q-7 -34 -11 -68t-4 -67q0 -49 26 -79.5t68 -30.5h337v386h127v-386h131q5 0 5 -4v-97q0 -5 -5 -5h-623zM292 461h15v182h53v-120q13 24 33 38.5t47 14.5q42 0 60.5 -23t18.5 -72v-76h-227v56z
M466 461v12q0 26 -8.5 39t-28.5 13q-23 0 -39.5 -14.5t-29.5 -38.5v-11h106z" />
    <glyph glyph-name="uniFB68" unicode="&#x6bb;" horiz-adv-x="336" arabic-form="initial" 
d="M-5 0q-5 0 -5 5v97q0 4 5 4h127v386h129v-492h-256zM30 675h15v182h53v-120q13 24 33 38.5t47 14.5q42 0 60.5 -23t18.5 -72v-76h-227v56zM204 675v12q0 26 -8.5 39t-28.5 13q-23 0 -39.5 -14.5t-29.5 -38.5v-11h106z" />
    <glyph glyph-name="uniFB69" unicode="&#x6bb;" horiz-adv-x="426" arabic-form="medial" 
d="M-5 0q-5 0 -5 5v97q0 4 5 4h157v386h129v-386h150q5 0 5 -4v-97q0 -5 -5 -5h-436zM59 695h15v182h53v-120q13 24 33 38.5t47 14.5q42 0 60.5 -23t18.5 -72v-76h-227v56zM233 695v12q0 26 -8.5 39t-28.5 13q-23 0 -39.5 -14.5t-29.5 -38.5v-11h106z" />
    <glyph glyph-name="uniFB6B" unicode="&#x6a4;" horiz-adv-x="1084" arabic-form="final" 
d="M260 0q-90 0 -142.5 53t-52.5 146q0 24 3.5 51.5t10.5 54t16 46.5h114q-7 -34 -11 -68t-4 -67q0 -49 26 -79.5t68 -30.5h282q-16 19 -27 41.5t-16.5 47t-5.5 49.5q0 76 34 131.5t98 86t154 30.5h162v-386h120q5 0 5 -4v-97q0 -5 -5 -5h-829zM791 106h50v280h-31
q-50 0 -85.5 -17t-54 -49.5t-18.5 -80.5q0 -42 16 -72t47 -45.5t76 -15.5zM739 754q-24 0 -40 14.5t-16 44.5q0 31 16 45t40 14t39.5 -15t15.5 -44q0 -28 -15.5 -43.5t-39.5 -15.5zM653 602q-28 0 -45.5 17.5t-17.5 50.5t17.5 50.5t45.5 17.5q30 0 46.5 -18.5t16.5 -49.5
t-17 -49.5t-46 -18.5zM824 602q-29 0 -46 18t-17 50t16.5 50t46.5 18q29 0 46 -18.5t17 -49.5t-17 -49.5t-46 -18.5z" />
    <glyph glyph-name="uniFB6C" unicode="&#x6a4;" horiz-adv-x="625" arabic-form="initial" 
d="M-5 0q-5 0 -5 5v97q0 4 5 4h146q-16 19 -27 41.5t-16.5 47t-5.5 49.5q0 76 34 131.5t98 86t154 30.5h162v-492h-545zM362 106h50v280h-31q-50 0 -85.5 -17t-54 -49.5t-18.5 -80.5q0 -42 16 -72t47 -45.5t76 -15.5zM307 747q-24 0 -40 14.5t-16 44.5q0 31 16 45t40 14
t39.5 -15t15.5 -44q0 -28 -15.5 -43.5t-39.5 -15.5zM221 595q-28 0 -45.5 17.5t-17.5 50.5t17.5 50.5t45.5 17.5q30 0 46.5 -18.5t16.5 -49.5t-17 -49.5t-46 -18.5zM392 595q-29 0 -46 18t-17 50t16.5 50t46.5 18q29 0 46 -18.5t17 -49.5t-17 -49.5t-46 -18.5z" />
    <glyph glyph-name="uniFB6D" unicode="&#x6a4;" horiz-adv-x="654" arabic-form="medial" 
d="M659 106q5 0 5 -4v-97q0 -5 -5 -5h-664q-5 0 -5 5v97q0 4 5 4h146q-16 19 -27 41.5t-16.5 47t-5.5 49.5q0 77 34 132.5t98 85.5t154 30h162v-386h119zM412 106v280h-31q-50 0 -85.5 -17t-54 -50t-18.5 -80q0 -43 16 -73t47 -45t76 -15h50zM307 747q-24 0 -40 14.5
t-16 44.5q0 31 16 45t40 14t39.5 -15t15.5 -44q0 -28 -15.5 -43.5t-39.5 -15.5zM221 595q-28 0 -45.5 17.5t-17.5 50.5t17.5 50.5t45.5 17.5q30 0 46.5 -18.5t16.5 -49.5t-17 -49.5t-46 -18.5zM392 595q-29 0 -46 18t-17 50t16.5 50t46.5 18q29 0 46 -18.5t17 -49.5
t-17 -49.5t-46 -18.5z" />
    <glyph glyph-name="uniFB6F" unicode="&#x6a6;" horiz-adv-x="1084" arabic-form="final" 
d="M260 0q-90 0 -142.5 53t-52.5 146q0 24 3.5 51.5t10.5 54t16 46.5h114q-7 -34 -11 -68t-4 -67q0 -49 26 -79.5t68 -30.5h282q-16 19 -27 41.5t-16.5 47t-5.5 49.5q0 76 34 131.5t98 86t154 30.5h162v-386h120q5 0 5 -4v-97q0 -5 -5 -5h-829zM791 106h50v280h-31
q-50 0 -85.5 -17t-54 -49.5t-18.5 -80.5q0 -42 16 -72t47 -45.5t76 -15.5zM660 593q-25 0 -41 15.5t-16 46.5q0 32 16.5 46.5t40.5 14.5q25 0 41 -16t16 -45q0 -28 -15.5 -45t-41.5 -17zM814 593q-24 0 -40.5 15t-16.5 47t16.5 46.5t40.5 14.5t40.5 -15t16.5 -46
t-16.5 -46.5t-40.5 -15.5zM660 756q-25 0 -41 15.5t-16 46.5q0 32 16.5 46.5t40.5 14.5q25 0 41 -16t16 -45q0 -28 -15.5 -45t-41.5 -17zM814 756q-24 0 -40.5 15t-16.5 47t16.5 46.5t40.5 14.5t40.5 -15t16.5 -46t-16.5 -46.5t-40.5 -15.5z" />
    <glyph glyph-name="uniFB70" unicode="&#x6a6;" horiz-adv-x="625" arabic-form="initial" 
d="M-5 0q-5 0 -5 5v97q0 4 5 4h146q-16 19 -27 41.5t-16.5 47t-5.5 49.5q0 76 34 131.5t98 86t154 30.5h162v-492h-545zM362 106h50v280h-31q-50 0 -85.5 -17t-54 -49.5t-18.5 -80.5q0 -42 16 -72t47 -45.5t76 -15.5zM227 586q-25 0 -41 15.5t-16 46.5q0 32 16.5 46.5
t40.5 14.5q25 0 41 -16t16 -45q0 -28 -15.5 -45t-41.5 -17zM381 586q-24 0 -40.5 15t-16.5 47t16.5 46.5t40.5 14.5t40.5 -15t16.5 -46t-16.5 -46.5t-40.5 -15.5zM227 749q-25 0 -41 15.5t-16 46.5q0 32 16.5 46.5t40.5 14.5q25 0 41 -16t16 -45q0 -28 -15.5 -45t-41.5 -17z
M381 749q-24 0 -40.5 15t-16.5 47t16.5 46.5t40.5 14.5t40.5 -15t16.5 -46t-16.5 -46.5t-40.5 -15.5z" />
    <glyph glyph-name="uniFB71" unicode="&#x6a6;" horiz-adv-x="654" arabic-form="medial" 
d="M659 106q5 0 5 -4v-97q0 -5 -5 -5h-664q-5 0 -5 5v97q0 4 5 4h146q-16 19 -27 41.5t-16.5 47t-5.5 49.5q0 77 34 132.5t98 85.5t154 30h162v-386h119zM412 106v280h-31q-50 0 -85.5 -17t-54 -50t-18.5 -80q0 -43 16 -73t47 -45t76 -15h50zM227 586q-25 0 -41 15.5
t-16 46.5q0 32 16.5 46.5t40.5 14.5q25 0 41 -16t16 -45q0 -28 -15.5 -45t-41.5 -17zM381 586q-24 0 -40.5 15t-16.5 47t16.5 46.5t40.5 14.5t40.5 -15t16.5 -46t-16.5 -46.5t-40.5 -15.5zM227 749q-25 0 -41 15.5t-16 46.5q0 32 16.5 46.5t40.5 14.5q25 0 41 -16t16 -45
q0 -28 -15.5 -45t-41.5 -17zM381 749q-24 0 -40.5 15t-16.5 47t16.5 46.5t40.5 14.5t40.5 -15t16.5 -46t-16.5 -46.5t-40.5 -15.5z" />
    <glyph glyph-name="uniFB73" unicode="&#x684;" horiz-adv-x="635" arabic-form="final" 
d="M266 -324q-66 0 -116 24.5t-77.5 70.5t-27.5 108q0 46 17.5 85.5t51.5 71.5q27 28 66 53t96 47.5t138 45.5q-7 19 -13 40t-11 44q-9 44 -27.5 73t-45.5 43t-65 14q-33 0 -74.5 -12.5t-82.5 -35.5l-47 97q30 17 67.5 30t78.5 20t79 7q66 0 113 -22t76.5 -66t40.5 -111
q7 -42 17 -74.5t21 -54.5q17 -33 40 -50.5t53 -17.5h6q5 0 5 -4v-97q0 -5 -5 -5h-6q-43 0 -75.5 9.5t-57 29.5t-44.5 50q-60 -16 -104 -30.5t-70 -27.5q-55 -28 -82.5 -63.5t-27.5 -80.5q0 -49 32 -76.5t88 -27.5zM470 -358q-29 0 -46 17.5t-17 50.5t17 50.5t46 17.5
q30 0 46.5 -18.5t16.5 -49.5q0 -32 -17 -50t-46 -18zM470 -174q-29 0 -46 17.5t-17 50.5t17 50.5t46 17.5q30 0 46.5 -18t16.5 -50t-17 -50t-46 -18z" />
    <glyph glyph-name="uniFB74" unicode="&#x684;" horiz-adv-x="602" arabic-form="initial" 
d="M-5 0q-5 0 -5 5v97q0 5 5 5h412q-19 17 -34.5 56.5t-26.5 98.5q-10 50 -24.5 79t-38 42t-59.5 13q-35 0 -68 -9.5t-69 -29.5l-42 96q44 26 93.5 37.5t106.5 11.5q28 0 52 -3.5t44 -12.5q52 -19 81.5 -62t42.5 -121q10 -53 20.5 -92t23.5 -65t28 -41v-105h-542zM243 -412
q-29 0 -46 17.5t-17 50.5t17 50.5t46 17.5t46 -18t17 -50t-17 -50t-46 -18zM243 -228q-29 0 -46 18t-17 50q0 33 17 50.5t46 17.5q30 0 46.5 -18t16.5 -50q0 -31 -17 -49.5t-46 -18.5z" />
    <glyph glyph-name="uniFB75" unicode="&#x684;" horiz-adv-x="597" arabic-form="medial" 
d="M-5 0q-5 0 -5 5v97q0 4 5 4h412q-13 13 -24.5 34t-20 52t-16.5 70q-7 38 -17.5 63t-24 41t-33.5 23t-47 7q-35 0 -68 -9.5t-69 -29.5l-42 96q44 26 93 37.5t103 11.5q31 0 56.5 -4t46.5 -13q33 -13 57 -36.5t40 -59t24 -86.5q9 -50 19.5 -89t23.5 -66t28 -42h66q5 0 5 -4
v-97q0 -5 -5 -5h-607zM243 -412q-29 0 -46 17.5t-17 50.5t17 50.5t46 17.5t46 -18t17 -50t-17 -50t-46 -18zM243 -228q-29 0 -46 18t-17 50q0 33 17 50.5t46 17.5q30 0 46.5 -18t16.5 -50q0 -31 -17 -49.5t-46 -18.5z" />
    <glyph glyph-name="uniFB77" unicode="&#x683;" horiz-adv-x="635" arabic-form="final" 
d="M266 -324q-66 0 -116 24.5t-77.5 70.5t-27.5 108q0 46 17.5 85.5t51.5 71.5q27 28 66 53t96 47.5t138 45.5q-7 19 -13 40t-11 44q-9 44 -27.5 73t-45.5 43t-65 14q-33 0 -74.5 -12.5t-82.5 -35.5l-47 97q30 17 67.5 30t78.5 20t79 7q66 0 113 -22t76.5 -66t40.5 -111
q7 -42 17 -74.5t21 -54.5q17 -33 40 -50.5t53 -17.5h6q5 0 5 -4v-97q0 -5 -5 -5h-6q-43 0 -75.5 9.5t-57 29.5t-44.5 50q-60 -16 -104 -30.5t-70 -27.5q-55 -28 -82.5 -63.5t-27.5 -80.5q0 -49 32 -76.5t88 -27.5zM384 -265q-28 0 -45.5 17.5t-17.5 50.5t17.5 50.5
t45.5 17.5q29 0 46 -18t17 -50q0 -33 -17 -50.5t-46 -17.5zM555 -265q-29 0 -46 18t-17 50t17 50t46 18q30 0 46.5 -18.5t16.5 -49.5t-17 -49.5t-46 -18.5z" />
    <glyph glyph-name="uniFB78" unicode="&#x683;" horiz-adv-x="602" arabic-form="initial" 
d="M-5 0q-5 0 -5 5v97q0 5 5 5h412q-19 17 -34.5 56.5t-26.5 98.5q-10 50 -24.5 79t-38 42t-59.5 13q-35 0 -68 -9.5t-69 -29.5l-42 96q44 26 93.5 37.5t106.5 11.5q28 0 52 -3.5t44 -12.5q52 -19 81.5 -62t42.5 -121q10 -53 20.5 -92t23.5 -65t28 -41v-105h-542zM160 -217
q-28 0 -45.5 17.5t-17.5 50.5q0 32 17.5 50t45.5 18q30 0 46.5 -18t16.5 -50q0 -33 -17 -50.5t-46 -17.5zM331 -217q-29 0 -46 18t-17 50q0 31 17 49.5t46 18.5q30 0 46.5 -18.5t16.5 -49.5t-17 -49.5t-46 -18.5z" />
    <glyph glyph-name="uniFB79" unicode="&#x683;" horiz-adv-x="597" arabic-form="medial" 
d="M-5 0q-5 0 -5 5v97q0 4 5 4h412q-13 13 -24.5 34t-20 52t-16.5 70q-7 38 -17.5 63t-24 41t-33.5 23t-47 7q-35 0 -68 -9.5t-69 -29.5l-42 96q44 26 93 37.5t103 11.5q31 0 56.5 -4t46.5 -13q33 -13 57 -36.5t40 -59t24 -86.5q9 -50 19.5 -89t23.5 -66t28 -42h66q5 0 5 -4
v-97q0 -5 -5 -5h-607zM160 -217q-28 0 -45.5 17.5t-17.5 50.5q0 32 17.5 50t45.5 18q30 0 46.5 -18t16.5 -50q0 -33 -17 -50.5t-46 -17.5zM331 -217q-29 0 -46 18t-17 50q0 31 17 49.5t46 18.5q30 0 46.5 -18.5t16.5 -49.5t-17 -49.5t-46 -18.5z" />
    <glyph glyph-name="uniFB7B" unicode="&#x686;" horiz-adv-x="635" arabic-form="final" 
d="M266 -324q-66 0 -116 24.5t-77.5 70.5t-27.5 108q0 46 17.5 85.5t51.5 71.5q27 28 66 53t96 47.5t138 45.5q-7 19 -13 40t-11 44q-9 44 -27.5 73t-45.5 43t-65 14q-33 0 -74.5 -12.5t-82.5 -35.5l-47 97q30 17 67.5 30t78.5 20t79 7q66 0 113 -22t76.5 -66t40.5 -111
q7 -42 17 -74.5t21 -54.5q17 -33 40 -50.5t53 -17.5h6q5 0 5 -4v-97q0 -5 -5 -5h-6q-43 0 -75.5 9.5t-57 29.5t-44.5 50q-60 -16 -104 -30.5t-70 -27.5q-55 -28 -82.5 -63.5t-27.5 -80.5q0 -49 32 -76.5t88 -27.5zM469 -215q24 0 40 -14.5t16 -44.5q0 -31 -16 -45t-40 -14
t-39.5 15t-15.5 44q0 27 15.5 43t39.5 16zM555 -63q28 0 45.5 -17.5t17.5 -50.5t-17 -50.5t-46 -17.5q-30 0 -46.5 18t-16.5 50q0 31 17 49.5t46 18.5zM384 -63q29 0 46 -18t17 -50t-16.5 -50t-46.5 -18q-29 0 -46 18t-17 50t17 50t46 18z" />
    <glyph glyph-name="uniFB7C" unicode="&#x686;" horiz-adv-x="602" arabic-form="initial" 
d="M-5 0q-5 0 -5 5v97q0 5 5 5h412q-19 17 -34.5 56.5t-26.5 98.5q-10 50 -24.5 79t-38 42t-59.5 13q-35 0 -68 -9.5t-69 -29.5l-42 96q44 26 93.5 37.5t106.5 11.5q28 0 52 -3.5t44 -12.5q52 -19 81.5 -62t42.5 -121q10 -53 20.5 -92t23.5 -65t28 -41v-105h-542zM251 -407
q-24 0 -40 14.5t-16 44.5q0 31 16 45t40 14t39.5 -15.5t15.5 -43.5q0 -27 -15.5 -43t-39.5 -16zM165 -282q-28 0 -45.5 17.5t-17.5 50.5q0 32 17 50t46 18q30 0 46.5 -18.5t16.5 -49.5q0 -32 -17 -50t-46 -18zM336 -282q-29 0 -46 18t-17 50t16.5 50t46.5 18q29 0 46 -18
t17 -50t-17 -50t-46 -18z" />
    <glyph glyph-name="uniFB7D" unicode="&#x686;" horiz-adv-x="597" arabic-form="medial" 
d="M-5 0q-5 0 -5 5v97q0 4 5 4h412q-13 13 -24.5 34t-20 52t-16.5 70q-7 38 -17.5 63t-24 41t-33.5 23t-47 7q-35 0 -68 -9.5t-69 -29.5l-42 96q44 26 93 37.5t103 11.5q31 0 56.5 -4t46.5 -13q33 -13 57 -36.5t40 -59t24 -86.5q9 -50 19.5 -89t23.5 -66t28 -42h66q5 0 5 -4
v-97q0 -5 -5 -5h-607zM251 -407q-24 0 -40 14.5t-16 44.5q0 31 16 45t40 14t39.5 -15.5t15.5 -43.5q0 -27 -15.5 -43t-39.5 -16zM165 -282q-28 0 -45.5 17.5t-17.5 50.5q0 32 17 50t46 18q30 0 46.5 -18.5t16.5 -49.5q0 -32 -17 -50t-46 -18zM336 -282q-29 0 -46 18t-17 50
t16.5 50t46.5 18q29 0 46 -18t17 -50t-17 -50t-46 -18z" />
    <glyph glyph-name="uniFB7F" unicode="&#x687;" horiz-adv-x="635" arabic-form="final" 
d="M266 -324q-66 0 -116 24.5t-77.5 70.5t-27.5 108q0 46 17.5 85.5t51.5 71.5q27 28 66 53t96 47.5t138 45.5q-7 19 -13 40t-11 44q-9 44 -27.5 73t-45.5 43t-65 14q-33 0 -74.5 -12.5t-82.5 -35.5l-47 97q30 17 67.5 30t78.5 20t79 7q66 0 113 -22t76.5 -66t40.5 -111
q7 -42 17 -74.5t21 -54.5q17 -33 40 -50.5t53 -17.5h6q5 0 5 -4v-97q0 -5 -5 -5h-6q-43 0 -75.5 9.5t-57 29.5t-44.5 50q-60 -16 -104 -30.5t-70 -27.5q-55 -28 -82.5 -63.5t-27.5 -80.5q0 -49 32 -76.5t88 -27.5zM392 -341q-25 0 -41 15.5t-16 46.5q0 32 16.5 46.5
t40.5 14.5q25 0 41 -16t16 -45q0 -28 -15.5 -45t-41.5 -17zM546 -341q-24 0 -40.5 15t-16.5 47t16.5 46.5t40.5 14.5t40.5 -15t16.5 -46t-16.5 -46.5t-40.5 -15.5zM392 -178q-25 0 -41 15.5t-16 46.5q0 32 16.5 46.5t40.5 14.5q25 0 41 -16t16 -45q0 -28 -15.5 -45
t-41.5 -17zM546 -178q-24 0 -40.5 15t-16.5 47t16.5 46.5t40.5 14.5t40.5 -15t16.5 -46t-16.5 -46.5t-40.5 -15.5z" />
    <glyph glyph-name="uniFB80" unicode="&#x687;" horiz-adv-x="602" arabic-form="initial" 
d="M-5 0q-5 0 -5 5v97q0 5 5 5h412q-19 17 -34.5 56.5t-26.5 98.5q-10 50 -24.5 79t-38 42t-59.5 13q-35 0 -68 -9.5t-69 -29.5l-42 96q44 26 93.5 37.5t106.5 11.5q28 0 52 -3.5t44 -12.5q52 -19 81.5 -62t42.5 -121q10 -53 20.5 -92t23.5 -65t28 -41v-105h-542zM166 -410
q-25 0 -41 15.5t-16 46.5q0 32 16.5 46.5t40.5 14.5q25 0 41 -16t16 -45q0 -28 -15.5 -45t-41.5 -17zM320 -410q-24 0 -40.5 15t-16.5 47t16.5 46.5t40.5 14.5t40.5 -15t16.5 -46t-16.5 -46.5t-40.5 -15.5zM166 -247q-25 0 -41 15.5t-16 46.5q0 32 16.5 46.5t40.5 14.5
q25 0 41 -16t16 -45q0 -28 -15.5 -45t-41.5 -17zM320 -247q-24 0 -40.5 15t-16.5 47t16.5 46.5t40.5 14.5t40.5 -15t16.5 -46t-16.5 -46.5t-40.5 -15.5z" />
    <glyph glyph-name="uniFB81" unicode="&#x687;" horiz-adv-x="597" arabic-form="medial" 
d="M-5 0q-5 0 -5 5v97q0 4 5 4h412q-13 13 -24.5 34t-20 52t-16.5 70q-7 38 -17.5 63t-24 41t-33.5 23t-47 7q-35 0 -68 -9.5t-69 -29.5l-42 96q44 26 93 37.5t103 11.5q31 0 56.5 -4t46.5 -13q33 -13 57 -36.5t40 -59t24 -86.5q9 -50 19.5 -89t23.5 -66t28 -42h66q5 0 5 -4
v-97q0 -5 -5 -5h-607zM166 -410q-25 0 -41 15.5t-16 46.5q0 32 16.5 46.5t40.5 14.5q25 0 41 -16t16 -45q0 -28 -15.5 -45t-41.5 -17zM320 -410q-24 0 -40.5 15t-16.5 47t16.5 46.5t40.5 14.5t40.5 -15t16.5 -46t-16.5 -46.5t-40.5 -15.5zM166 -247q-25 0 -41 15.5t-16 46.5
q0 32 16.5 46.5t40.5 14.5q25 0 41 -16t16 -45q0 -28 -15.5 -45t-41.5 -17zM320 -247q-24 0 -40.5 15t-16.5 47t16.5 46.5t40.5 14.5t40.5 -15t16.5 -46t-16.5 -46.5t-40.5 -15.5z" />
    <glyph glyph-name="uniFB83" unicode="&#x68d;" horiz-adv-x="626" arabic-form="final" 
d="M45 106h334q-9 46 -21 85t-28 70q-29 61 -75 107t-112 79l48 119q85 -37 147.5 -99.5t104.5 -152t64 -208.5h124q5 0 5 -4v-97q0 -5 -5 -5h-586v106zM146 -197q-28 0 -45.5 17.5t-17.5 50.5q0 32 17.5 50t45.5 18q30 0 46.5 -18t16.5 -50q0 -33 -17 -50.5t-46 -17.5z
M317 -197q-29 0 -46 18t-17 50q0 31 17 49.5t46 18.5q30 0 46.5 -18.5t16.5 -49.5t-17 -49.5t-46 -18.5z" />
    <glyph glyph-name="uniFB85" unicode="&#x68c;" horiz-adv-x="626" arabic-form="final" 
d="M45 106h334q-9 46 -21 85t-28 70q-29 61 -75 107t-112 79l48 119q85 -37 147.5 -99.5t104.5 -152t64 -208.5h124q5 0 5 -4v-97q0 -5 -5 -5h-586v106zM74 666q-28 0 -45.5 17.5t-17.5 50.5t17.5 50.5t45.5 17.5q29 0 46 -18t17 -50q0 -33 -17 -50.5t-46 -17.5zM245 666
q-29 0 -46 18t-17 50t17 50t46 18q30 0 46.5 -18.5t16.5 -49.5t-17 -49.5t-46 -18.5z" />
    <glyph glyph-name="uniFB87" unicode="&#x68e;" horiz-adv-x="626" arabic-form="final" 
d="M45 106h334q-9 46 -21 85t-28 70q-29 61 -75 107t-112 79l48 119q85 -37 147.5 -99.5t104.5 -152t64 -208.5h124q5 0 5 -4v-97q0 -5 -5 -5h-586v106zM161 807q-24 0 -40 14.5t-16 44.5q0 31 16 45t40 14t39.5 -15t15.5 -44q0 -28 -15.5 -43.5t-39.5 -15.5zM75 655
q-28 0 -45.5 17.5t-17.5 50.5t17.5 50.5t45.5 17.5q30 0 46.5 -18.5t16.5 -49.5t-17 -49.5t-46 -18.5zM246 655q-29 0 -46 18t-17 50t16.5 50t46.5 18q29 0 46 -18.5t17 -49.5t-17 -49.5t-46 -18.5z" />
    <glyph glyph-name="uniFB89" unicode="&#x688;" horiz-adv-x="626" arabic-form="final" 
d="M45 106h334q-9 46 -21 85t-28 70q-29 61 -75 107t-112 79l48 119q85 -37 147.5 -99.5t104.5 -152t64 -208.5h124q5 0 5 -4v-97q0 -5 -5 -5h-586v106zM38 724h15v182h53v-120q13 24 33 38.5t47 14.5q42 0 60.5 -23t18.5 -72v-76h-227v56zM212 724v12q0 26 -8.5 39
t-28.5 13q-23 0 -39.5 -14.5t-29.5 -38.5v-11h106z" />
    <glyph glyph-name="uniFB8B" unicode="&#x698;" horiz-adv-x="438" arabic-form="final" 
d="M315 0v-19q0 -67 -24 -117t-68 -77t-106 -27q-42 0 -79.5 10.5t-77.5 36.5l49 87q25 -15 44 -20t44 -5q41 0 66 32.5t25 82.5v508h127v-386h128q5 0 5 -4v-97q0 -5 -5 -5h-128zM248 745q-24 0 -40 14.5t-16 44.5q0 31 16 45t40 14t39.5 -15t15.5 -44q0 -28 -15.5 -43.5
t-39.5 -15.5zM162 593q-28 0 -45.5 17.5t-17.5 50.5t17.5 50.5t45.5 17.5q30 0 46.5 -18.5t16.5 -49.5t-17 -49.5t-46 -18.5zM333 593q-29 0 -46 18t-17 50t16.5 50t46.5 18q29 0 46 -18.5t17 -49.5t-17 -49.5t-46 -18.5z" />
    <glyph glyph-name="uniFB8D" unicode="&#x691;" horiz-adv-x="438" arabic-form="final" 
d="M315 0v-19q0 -67 -24 -117t-68 -77t-106 -27q-42 0 -79.5 10.5t-77.5 36.5l49 87q25 -15 44 -20t44 -5q41 0 66 32.5t25 82.5v508h127v-386h128q5 0 5 -4v-97q0 -5 -5 -5h-128zM125 662h15v182h53v-120q13 24 33 38.5t47 14.5q42 0 60.5 -23t18.5 -72v-76h-227v56z
M299 662v12q0 26 -8.5 39t-28.5 13q-23 0 -39.5 -14.5t-29.5 -38.5v-11h106z" />
    <glyph glyph-name="uni06A9.fina" unicode="&#x6a9;" horiz-adv-x="911" arabic-form="final" 
d="M260 0q-92 0 -143.5 51t-51.5 143q0 35 7 73t21 74h115q-7 -41 -11 -73t-4 -56q0 -50 25.5 -78t69.5 -28h370v169q0 65 -42.5 98t-124.5 33h-170v100q14 28 31.5 56t37.5 55q56 72 133 128t164 88l47 -115q-44 -15 -87 -37.5t-81 -50.5t-67.5 -58t-46.5 -60h54
q139 0 209.5 -55.5t70.5 -164.5v-186h130q5 0 5 -4v-97q0 -5 -5 -5h-656z" />
    <glyph glyph-name="uniFB90" unicode="&#x6a9;" horiz-adv-x="599" arabic-form="initial" 
d="M-5 0q-5 0 -5 5v97q0 4 5 4h401v169q0 65 -42.5 98t-124.5 33h-170v100q16 34 37 66t47 63q56 66 128.5 117t153.5 81l47 -115q-44 -15 -87 -37.5t-81 -50.5t-67.5 -58t-46.5 -60h54q139 0 209.5 -55.5t70.5 -164.5v-292h-529z" />
    <glyph glyph-name="uniFB91" unicode="&#x6a9;" horiz-adv-x="649" arabic-form="medial" 
d="M-5 0q-5 0 -5 5v97q0 4 5 4h401v169q0 65 -42.5 98t-124.5 33h-170v100q16 36 38.5 69.5t50.5 65.5q55 63 126.5 113t150.5 79l47 -115q-44 -15 -87 -37.5t-81 -50.5t-67.5 -58t-46.5 -60h54q139 0 209.5 -55.5t70.5 -164.5v-186h130q5 0 5 -4v-97q0 -5 -5 -5h-659z" />
    <glyph glyph-name="uniFB93" unicode="&#x6af;" horiz-adv-x="911" arabic-form="final" 
d="M260 0q-92 0 -143.5 51t-51.5 143q0 35 7 73t21 74h115q-7 -41 -11 -73t-4 -56q0 -50 25.5 -78t69.5 -28h370v169q0 65 -42.5 98t-124.5 33h-170v100q14 28 31.5 56t37.5 55q56 72 133 128t164 88l47 -115q-44 -15 -87 -37.5t-81 -50.5t-67.5 -58t-46.5 -60h54
q139 0 209.5 -55.5t70.5 -164.5v-186h130q5 0 5 -4v-97q0 -5 -5 -5h-656zM280 670q17 32 53.5 73.5t85 84t103.5 78.5t109 57l29 -74q-51 -18 -101.5 -49t-97.5 -70t-86.5 -82t-67.5 -87z" />
    <glyph glyph-name="uniFB94" unicode="&#x6af;" horiz-adv-x="599" arabic-form="initial" 
d="M-5 0q-5 0 -5 5v97q0 4 5 4h401v169q0 65 -42.5 98t-124.5 33h-170v100q16 34 37 66t47 63q56 66 128.5 117t153.5 81l47 -115q-44 -15 -87 -37.5t-81 -50.5t-67.5 -58t-46.5 -60h54q139 0 209.5 -55.5t70.5 -164.5v-292h-529zM18 670q17 32 53.5 73.5t85 84t103.5 78.5
t109 57l29 -74q-51 -18 -101.5 -49t-97.5 -70t-86.5 -82t-67.5 -87z" />
    <glyph glyph-name="uniFB95" unicode="&#x6af;" horiz-adv-x="649" arabic-form="medial" 
d="M-5 0q-5 0 -5 5v97q0 4 5 4h401v169q0 65 -42.5 98t-124.5 33h-170v100q16 36 38.5 69.5t50.5 65.5q55 63 126.5 113t150.5 79l47 -115q-44 -15 -87 -37.5t-81 -50.5t-67.5 -58t-46.5 -60h54q139 0 209.5 -55.5t70.5 -164.5v-186h130q5 0 5 -4v-97q0 -5 -5 -5h-659z
M18 670q17 32 53.5 73.5t85 84t103.5 78.5t109 57l29 -74q-51 -18 -101.5 -49t-97.5 -70t-86.5 -82t-67.5 -87z" />
    <glyph glyph-name="uniFB97" unicode="&#x6b3;" horiz-adv-x="911" arabic-form="final" 
d="M260 0q-92 0 -143.5 51t-51.5 143q0 35 7 73t21 74h115q-7 -41 -11 -73t-4 -56q0 -50 25.5 -78t69.5 -28h370v169q0 65 -42.5 98t-124.5 33h-170v100q14 28 31.5 56t37.5 55q56 72 133 128t164 88l47 -115q-44 -15 -87 -37.5t-81 -50.5t-67.5 -58t-46.5 -60h54
q139 0 209.5 -55.5t70.5 -164.5v-186h130q5 0 5 -4v-97q0 -5 -5 -5h-656zM280 670q17 32 53.5 73.5t85 84t103.5 78.5t109 57l29 -74q-51 -18 -101.5 -49t-97.5 -70t-86.5 -82t-67.5 -87zM390 -412q-29 0 -46 17.5t-17 50.5t17 50.5t46 17.5t46 -18t17 -50t-17 -50t-46 -18z
M390 -228q-29 0 -46 18t-17 50q0 33 17 50.5t46 17.5q30 0 46.5 -18t16.5 -50q0 -31 -17 -49.5t-46 -18.5z" />
    <glyph glyph-name="uniFB98" unicode="&#x6b3;" horiz-adv-x="599" arabic-form="initial" 
d="M-5 0q-5 0 -5 5v97q0 4 5 4h401v169q0 65 -42.5 98t-124.5 33h-170v100q16 34 37 66t47 63q56 66 128.5 117t153.5 81l47 -115q-44 -15 -87 -37.5t-81 -50.5t-67.5 -58t-46.5 -60h54q139 0 209.5 -55.5t70.5 -164.5v-292h-529zM18 670q17 32 53.5 73.5t85 84t103.5 78.5
t109 57l29 -74q-51 -18 -101.5 -49t-97.5 -70t-86.5 -82t-67.5 -87zM258 -412q-29 0 -46 17.5t-17 50.5t17 50.5t46 17.5t46 -18t17 -50t-17 -50t-46 -18zM258 -228q-29 0 -46 18t-17 50q0 33 17 50.5t46 17.5q30 0 46.5 -18t16.5 -50q0 -31 -17 -49.5t-46 -18.5z" />
    <glyph glyph-name="uniFB99" unicode="&#x6b3;" horiz-adv-x="649" arabic-form="medial" 
d="M-5 0q-5 0 -5 5v97q0 4 5 4h401v169q0 65 -42.5 98t-124.5 33h-170v100q16 36 38.5 69.5t50.5 65.5q55 63 126.5 113t150.5 79l47 -115q-44 -15 -87 -37.5t-81 -50.5t-67.5 -58t-46.5 -60h54q139 0 209.5 -55.5t70.5 -164.5v-186h130q5 0 5 -4v-97q0 -5 -5 -5h-659z
M18 670q17 32 53.5 73.5t85 84t103.5 78.5t109 57l29 -74q-51 -18 -101.5 -49t-97.5 -70t-86.5 -82t-67.5 -87zM324 -412q-29 0 -46 17.5t-17 50.5t17 50.5t46 17.5t46 -18t17 -50t-17 -50t-46 -18zM324 -228q-29 0 -46 18t-17 50q0 33 17 50.5t46 17.5q30 0 46.5 -18
t16.5 -50q0 -31 -17 -49.5t-46 -18.5z" />
    <glyph glyph-name="uniFB9B" unicode="&#x6b1;" horiz-adv-x="911" arabic-form="final" 
d="M260 0q-92 0 -143.5 51t-51.5 143q0 35 7 73t21 74h115q-7 -41 -11 -73t-4 -56q0 -50 25.5 -78t69.5 -28h370v169q0 65 -42.5 98t-124.5 33h-170v100q14 28 31.5 56t37.5 55q56 72 133 128t164 88l47 -115q-44 -15 -87 -37.5t-81 -50.5t-67.5 -58t-46.5 -60h54
q139 0 209.5 -55.5t70.5 -164.5v-186h130q5 0 5 -4v-97q0 -5 -5 -5h-656zM280 670q17 32 53.5 73.5t85 84t103.5 78.5t109 57l29 -74q-51 -18 -101.5 -49t-97.5 -70t-86.5 -82t-67.5 -87zM282 780q-15 0 -27 7.5t-19.5 20t-7.5 26.5q0 22 14.5 36t33.5 14q15 0 27 -7.5
t20 -19.5t8 -27q0 -21 -15.5 -35.5t-33.5 -14.5zM383 868q-14 0 -26 7.5t-19.5 20t-7.5 26.5q0 22 14.5 36.5t33.5 14.5q21 0 37.5 -16.5t16.5 -38.5q0 -21 -15 -35.5t-34 -14.5z" />
    <glyph glyph-name="uniFB9C" unicode="&#x6b1;" horiz-adv-x="599" arabic-form="initial" 
d="M-5 0q-5 0 -5 5v97q0 4 5 4h401v169q0 65 -42.5 98t-124.5 33h-170v100q16 34 37 66t47 63q56 66 128.5 117t153.5 81l47 -115q-44 -15 -87 -37.5t-81 -50.5t-67.5 -58t-46.5 -60h54q139 0 209.5 -55.5t70.5 -164.5v-292h-529zM18 670q17 32 53.5 73.5t85 84t103.5 78.5
t109 57l29 -74q-51 -18 -101.5 -49t-97.5 -70t-86.5 -82t-67.5 -87zM20 780q-15 0 -27 7.5t-19.5 20t-7.5 26.5q0 22 14.5 36t33.5 14q15 0 27 -7.5t20 -19.5t8 -27q0 -21 -15.5 -35.5t-33.5 -14.5zM121 868q-14 0 -26 7.5t-19.5 20t-7.5 26.5q0 22 14.5 36.5t33.5 14.5
q21 0 37.5 -16.5t16.5 -38.5q0 -21 -15 -35.5t-34 -14.5z" />
    <glyph glyph-name="uniFB9D" unicode="&#x6b1;" horiz-adv-x="649" arabic-form="medial" 
d="M-5 0q-5 0 -5 5v97q0 4 5 4h401v169q0 65 -42.5 98t-124.5 33h-170v100q16 36 38.5 69.5t50.5 65.5q55 63 126.5 113t150.5 79l47 -115q-44 -15 -87 -37.5t-81 -50.5t-67.5 -58t-46.5 -60h54q139 0 209.5 -55.5t70.5 -164.5v-186h130q5 0 5 -4v-97q0 -5 -5 -5h-659z
M18 670q17 32 53.5 73.5t85 84t103.5 78.5t109 57l29 -74q-51 -18 -101.5 -49t-97.5 -70t-86.5 -82t-67.5 -87zM20 780q-15 0 -27 7.5t-19.5 20t-7.5 26.5q0 22 14.5 36t33.5 14q15 0 27 -7.5t20 -19.5t8 -27q0 -21 -15.5 -35.5t-33.5 -14.5zM121 868q-14 0 -26 7.5
t-19.5 20t-7.5 26.5q0 22 14.5 36.5t33.5 14.5q21 0 37.5 -16.5t16.5 -38.5q0 -21 -15 -35.5t-34 -14.5z" />
    <glyph glyph-name="uni06BA.fina" unicode="&#x6ba;" horiz-adv-x="764" arabic-form="final" 
d="M646 0q-6 -120 -75.5 -180t-203.5 -60h-54q-40 0 -74 9.5t-63 27.5q-53 33 -82 93t-29 137q0 58 12.5 115.5t35.5 105.5h115q-16 -50 -25 -107t-9 -113q0 -75 35.5 -118.5t96.5 -43.5h37q54 0 88 18t51 54t17 87v467h127v-386h123q5 0 5 -4v-97q0 -5 -5 -5h-123z" />
    <glyph glyph-name="uniFBA1" unicode="&#x6bb;" horiz-adv-x="764" arabic-form="final" 
d="M646 0q-6 -120 -75.5 -180t-203.5 -60h-54q-40 0 -74 9.5t-63 27.5q-53 33 -82 93t-29 137q0 58 12.5 115.5t35.5 105.5h115q-16 -50 -25 -107t-9 -113q0 -75 35.5 -118.5t96.5 -43.5h37q54 0 88 18t51 54t17 87v467h127v-386h123q5 0 5 -4v-97q0 -5 -5 -5h-123zM221 559
h15v182h53v-120q13 24 33 38.5t47 14.5q42 0 60.5 -23t18.5 -72v-76h-227v56zM395 559v12q0 26 -8.5 39t-28.5 13q-23 0 -39.5 -14.5t-29.5 -38.5v-11h106z" />
    <glyph glyph-name="uniFBA5" unicode="&#x6c0;" horiz-adv-x="636" arabic-form="final" 
d="M344 0q-88 0 -150.5 28.5t-95.5 82.5t-33 129q0 81 36.5 136.5t101 85.5t148.5 30h41v53h128v-439h121q5 0 5 -4v-97q0 -5 -5 -5h-297zM392 106v280h-38q-75 0 -116 -38t-41 -108q0 -64 38 -99t109 -35h48zM184 668l54 9q-19 10 -30.5 27t-11.5 39q0 43 29.5 67t77.5 24
q46 0 77 -17l-18 -49q-12 6 -25.5 9t-27.5 3q-22 0 -35.5 -12.5t-13.5 -36.5q0 -16 8.5 -27.5t21.5 -17.5q24 4 43 6.5t33 4.5t23 2v-55q-18 -1 -47 -4.5t-61 -7t-58 -7t-39 -6.5v49z" />
    <glyph glyph-name="uni06C1.fina" unicode="&#x6c1;" horiz-adv-x="747" arabic-form="final" 
d="M50 0q31 58 58 106t53.5 87.5t54.5 73.5q57 69 124.5 113.5t150.5 71.5h134v-346h127q5 0 5 -4v-97q0 -5 -5 -5h-256v343q-29 -11 -56 -26t-49 -34q-30 -25 -58.5 -59.5t-60.5 -87.5t-75 -136h-147z" />
    <glyph glyph-name="uni06C1.init" unicode="&#x6c1;" horiz-adv-x="344" arabic-form="initial" 
d="M160 -216q-46 0 -74.5 26.5t-28.5 69.5q0 19 5.5 38t17 39.5t30.5 42.5h-115q-5 0 -5 5v97q0 4 5 4h127v386h129v-492h-48q-47 -58 -47 -92q0 -13 9 -23t26 -10h68v-91h-99z" />
    <glyph glyph-name="uni06C1.medi" unicode="&#x6c1;" horiz-adv-x="612" arabic-form="medial" 
d="M617 106q5 0 5 -4v-97q0 -5 -5 -5h-126v-231h-141q-101 0 -167.5 57.5t-97.5 173.5h-90q-5 0 -5 5v97q0 4 5 4h181q10 -45 21.5 -79.5t23.5 -59.5q24 -48 57.5 -70t83.5 -22v231h255z" />
    <glyph glyph-name="uni06BE.fina" unicode="&#x6be;" horiz-adv-x="901" arabic-form="final" 
d="M162 106q-25 20 -40 55.5t-15 85.5q0 61 29.5 109.5t79.5 77t110 28.5q67 0 115 -27t74.5 -75.5t26.5 -114.5v-139h136v189q0 131 -62.5 197t-185.5 66q-66 0 -119.5 -8.5t-104.5 -26.5l-30 102q41 14 82 22.5t83.5 13t88.5 4.5q185 0 280.5 -92.5t95.5 -266.5v-200h100
q5 0 5 -4v-97q0 -5 -5 -5h-841v106h97zM414 106v130q0 59 -21.5 86t-66.5 27q-40 0 -64 -29.5t-24 -77.5q0 -43 15 -73.5t43.5 -46.5t68.5 -16h49z" />
    <glyph glyph-name="uniFBAC" unicode="&#x6be;" horiz-adv-x="851" arabic-form="initial" 
d="M129 106q-24 19 -40 55t-16 86q0 61 30.5 109.5t82.5 77t118 28.5q63 0 109 -25.5t70.5 -74t24.5 -117.5v-139h137v189q0 130 -62.5 196.5t-186.5 66.5q-66 0 -119.5 -8.5t-103.5 -26.5l-31 102q42 14 82.5 22.5t83 13t88.5 4.5q186 0 281 -93t95 -266v-306h-777
q-5 0 -5 5v97q0 4 5 4h134zM332 106h49v130q0 59 -22 86t-67 27q-39 0 -63 -29.5t-24 -77.5q0 -43 15 -73.5t43.5 -46.5t68.5 -16z" />
    <glyph glyph-name="uni06BE.medi" unicode="&#x6be;" horiz-adv-x="894" arabic-form="medial" 
d="M129 106q-24 19 -40 54.5t-16 81.5q0 65 29.5 114.5t79.5 77.5t111 28q68 0 116 -27t73.5 -75.5t25.5 -114.5v-139h137v189q0 130 -62.5 196.5t-186.5 66.5q-66 0 -119.5 -8.5t-103.5 -26.5l-31 102q42 14 82.5 22.5t83 13t88.5 4.5q186 0 281 -93t95 -266v-200h127
q5 0 5 -4v-97q0 -5 -5 -5h-904q-5 0 -5 5v97q0 4 5 4h134zM332 106h49v130q0 59 -22 86t-67 27q-39 0 -63 -29.5t-24 -77.5q0 -43 15 -73.5t43.5 -46.5t68.5 -16z" />
    <glyph glyph-name="uni06D2.fina" unicode="&#x6d2;" horiz-adv-x="415" arabic-form="final" 
d="M421 106q5 0 5 -4v-97q0 -5 -5 -5h-135q-53 0 -82.5 -20t-29.5 -52q0 -23 16 -36.5t47 -13.5h448v-106h-472q-50 0 -88 19t-59 54t-21 82q0 51 32 91q32 41 88 64.5t121 23.5h135z" />
    <glyph glyph-name="uniFBB1" unicode="&#x6d3;" horiz-adv-x="415" arabic-form="final" 
d="M421 106q5 0 5 -4v-97q0 -5 -5 -5h-135q-53 0 -82.5 -20t-29.5 -52q0 -23 16 -36.5t47 -13.5h448v-106h-472q-50 0 -88 19t-59 54t-21 82q0 51 32 91q32 41 88 64.5t121 23.5h135zM162 239l54 9q-19 10 -30.5 27t-11.5 39q0 43 29.5 67t77.5 24q46 0 77 -17l-18 -49
q-12 6 -25.5 9t-27.5 3q-22 0 -35.5 -12.5t-13.5 -36.5q0 -16 8.5 -27.5t21.5 -17.5q24 4 43 6.5t33 4.5t23 2v-55q-18 -1 -47 -4.5t-61 -7t-58 -7t-39 -6.5v49z" />
    <glyph glyph-name="uniFBD4" unicode="&#x6ad;" horiz-adv-x="878" arabic-form="final" 
d="M260 0q-92 0 -143.5 51t-51.5 143q0 25 3.5 50.5t10.5 50.5t16 46h113q-7 -33 -11 -66t-4 -64q0 -48 26 -76.5t69 -28.5h337v654h127v-654h131q5 0 5 -4v-97q0 -5 -5 -5h-623zM320 315v49h141v8q0 13 -6.5 18t-22.5 5h-93v38q14 32 45 58.5t71 37.5l20 -50
q-17 -3 -34.5 -13t-30.5 -22h26q41 0 63 -17.5t22 -49.5v-62h-201zM424 740q-18 0 -30.5 11t-12.5 35q0 25 12.5 35.5t30.5 10.5q20 0 32 -12t12 -34t-12 -34t-32 -12zM357 615q-22 0 -35.5 14t-13.5 39q0 26 13.5 40t35.5 14q24 0 37 -14.5t13 -39.5q0 -24 -13.5 -38.5
t-36.5 -14.5zM492 615q-23 0 -37 14.5t-14 38.5q0 26 13.5 40t37.5 14q22 0 35 -14.5t13 -39.5q0 -24 -13 -38.5t-35 -14.5z" />
    <glyph glyph-name="uniFBD5" unicode="&#x6ad;" horiz-adv-x="599" arabic-form="initial" 
d="M-5 0q-5 0 -5 5v97q0 4 5 4h401v169q0 65 -42.5 98t-124.5 33h-170v100q16 34 37 66t47 63q56 66 128.5 117t153.5 81l47 -115q-44 -15 -87 -37.5t-81 -50.5t-67.5 -58t-46.5 -60h54q139 0 209.5 -55.5t70.5 -164.5v-292h-529zM1 659q-15 0 -27 7.5t-19.5 20t-7.5 26.5
q0 22 14.5 36t33.5 14q15 0 27 -7.5t20 -19.5t8 -27q0 -21 -15.5 -35.5t-33.5 -14.5zM-21 792q-18 0 -32.5 13.5t-14.5 34.5q0 18 13.5 32t31.5 14q12 0 22.5 -7.5t17 -18.5t6.5 -23q0 -19 -12.5 -32t-31.5 -13zM102 747q-14 0 -26 7.5t-19.5 20t-7.5 26.5q0 22 14.5 36.5
t33.5 14.5q21 0 37.5 -16.5t16.5 -38.5q0 -21 -15 -35.5t-34 -14.5z" />
    <glyph glyph-name="uniFBD6" unicode="&#x6ad;" horiz-adv-x="649" arabic-form="medial" 
d="M-5 0q-5 0 -5 5v97q0 4 5 4h401v169q0 65 -42.5 98t-124.5 33h-170v100q16 36 38.5 69.5t50.5 65.5q55 63 126.5 113t150.5 79l47 -115q-44 -15 -87 -37.5t-81 -50.5t-67.5 -58t-46.5 -60h54q139 0 209.5 -55.5t70.5 -164.5v-186h130q5 0 5 -4v-97q0 -5 -5 -5h-659z
M1 659q-15 0 -27 7.5t-19.5 20t-7.5 26.5q0 22 14.5 36t33.5 14q15 0 27 -7.5t20 -19.5t8 -27q0 -21 -15.5 -35.5t-33.5 -14.5zM-21 792q-18 0 -32.5 13.5t-14.5 34.5q0 18 13.5 32t31.5 14q12 0 22.5 -7.5t17 -18.5t6.5 -23q0 -19 -12.5 -32t-31.5 -13zM102 747
q-14 0 -26 7.5t-19.5 20t-7.5 26.5q0 22 14.5 36.5t33.5 14.5q21 0 37.5 -16.5t16.5 -38.5q0 -21 -15 -35.5t-34 -14.5z" />
    <glyph glyph-name="uniFBD8" unicode="&#x6c7;" horiz-adv-x="626" arabic-form="final" 
d="M631 106q5 0 5 -4v-97q0 -5 -5 -5h-181q-5 0 -5 5v97q0 4 5 4h181zM267 -240q-62 0 -110 11.5t-92 37.5l52 95q38 -20 73.5 -29.5t75.5 -9.5q60 0 93.5 33t33.5 89v13h-99q-107 0 -164.5 60t-57.5 171q0 83 38.5 141.5t107.5 89t157 30.5h145v-502q0 -110 -66 -170
t-187 -60zM392 106v280h-35q-73 0 -113.5 -40t-40.5 -112q0 -66 28 -97t84 -31h77zM244 580l-26 38q21 12 39.5 24t33.5 23.5t26 23.5q-32 11 -52.5 34t-20.5 48q0 31 25.5 54.5t57.5 23.5q29 0 47 -23.5t18 -58.5q0 -28 -8.5 -52.5t-26.5 -47t-45.5 -44t-67.5 -43.5z" />
    <glyph glyph-name="uniFBDA" unicode="&#x6c6;" horiz-adv-x="626" arabic-form="final" 
d="M631 106q5 0 5 -4v-97q0 -5 -5 -5h-181q-5 0 -5 5v97q0 4 5 4h181zM267 -240q-62 0 -110 11.5t-92 37.5l52 95q38 -20 73.5 -29.5t75.5 -9.5q60 0 93.5 33t33.5 89v13h-99q-107 0 -164.5 60t-57.5 171q0 83 38.5 141.5t107.5 89t157 30.5h145v-502q0 -110 -66 -170
t-187 -60zM392 106v280h-35q-73 0 -113.5 -40t-40.5 -112q0 -66 28 -97t84 -31h77zM460 798l-110 -199h-89l-111 199h91l63 -129l65 129h91z" />
    <glyph glyph-name="uniFBDC" unicode="&#x6c8;" horiz-adv-x="626" arabic-form="final" 
d="M631 106q5 0 5 -4v-97q0 -5 -5 -5h-181q-5 0 -5 5v97q0 4 5 4h181zM267 -240q-62 0 -110 11.5t-92 37.5l52 95q38 -20 73.5 -29.5t75.5 -9.5q60 0 93.5 33t33.5 89v13h-99q-107 0 -164.5 60t-57.5 171q0 83 38.5 141.5t107.5 89t157 30.5h145v-502q0 -110 -66 -170
t-187 -60zM392 106v280h-35q-73 0 -113.5 -40t-40.5 -112q0 -66 28 -97t84 -31h77zM277 783h64v-194h-64v194z" />
    <glyph glyph-name="uniFBDF" unicode="&#x6cb;" horiz-adv-x="626" arabic-form="final" 
d="M631 106q5 0 5 -4v-97q0 -5 -5 -5h-181q-5 0 -5 5v97q0 4 5 4h181zM267 -240q-62 0 -110 11.5t-92 37.5l52 95q38 -20 73.5 -29.5t75.5 -9.5q60 0 93.5 33t33.5 89v13h-99q-107 0 -164.5 60t-57.5 171q0 83 38.5 141.5t107.5 89t157 30.5h145v-502q0 -110 -66 -170
t-187 -60zM392 106v280h-35q-73 0 -113.5 -40t-40.5 -112q0 -66 28 -97t84 -31h77zM313 767q-24 0 -40 14.5t-16 44.5q0 31 16 45t40 14t39.5 -15t15.5 -44q0 -28 -15.5 -43.5t-39.5 -15.5zM227 615q-28 0 -45.5 17.5t-17.5 50.5t17.5 50.5t45.5 17.5q30 0 46.5 -18.5
t16.5 -49.5t-17 -49.5t-46 -18.5zM398 615q-29 0 -46 18t-17 50t16.5 50t46.5 18q29 0 46 -18.5t17 -49.5t-17 -49.5t-46 -18.5z" />
    <glyph glyph-name="uni06C5.fina" unicode="&#x6c5;" horiz-adv-x="626" arabic-form="final" 
d="M631 106q5 0 5 -4v-97q0 -5 -5 -5h-181q-5 0 -5 5v97q0 4 5 4h181zM388 106v280h-36q-72 0 -112.5 -40t-40.5 -112q0 -66 27.5 -97t83.5 -31h78zM254 -257q29 24 60 56t52 71.5t21 86.5v43h-98q-107 0 -164.5 60t-57.5 171q0 83 39 141.5t107.5 89t156.5 30.5h145v-523
q0 -55 -20 -107.5t-61.5 -103.5t-104.5 -99zM350 -183l-35 14q-19 7 -34.5 11t-31.5 4q-17 0 -32.5 -3t-29.5 -9l-32 67q23 17 47.5 26.5t46.5 9.5q16 0 37.5 -6t46.5 -15q19 -6 34 -11.5t22 -7.5z" />
    <glyph glyph-name="uniFBE3" unicode="&#x6c9;" horiz-adv-x="626" arabic-form="final" 
d="M631 106q5 0 5 -4v-97q0 -5 -5 -5h-181q-5 0 -5 5v97q0 4 5 4h181zM267 -240q-62 0 -110 11.5t-92 37.5l52 95q38 -20 73.5 -29.5t75.5 -9.5q60 0 93.5 33t33.5 89v13h-99q-107 0 -164.5 60t-57.5 171q0 83 38.5 141.5t107.5 89t157 30.5h145v-502q0 -110 -66 -170
t-187 -60zM392 106v280h-35q-73 0 -113.5 -40t-40.5 -112q0 -66 28 -97t84 -31h77zM162 599l110 199h68l111 -199h-81l-63 129l-65 -129h-80z" />
    <glyph glyph-name="uniFBE5" unicode="&#x6d0;" horiz-adv-x="991" arabic-form="final" 
d="M266 -240q-61 0 -106.5 30t-70 82.5t-24.5 119.5q0 50 8 96t25 93h116q-14 -41 -18.5 -79.5t-4.5 -92.5q0 -41 16 -73.5t44 -51t63 -18.5h177q43 0 76 6.5t52.5 20.5t19.5 38q0 19 -17 32t-53 23q-54 14 -88 32.5t-50 46t-16 67.5q0 27 9.5 55t27.5 56q25 37 60 67
t73.5 47t74.5 17q17 0 32 -3t28 -9q31 -15 58.5 -45.5t67.5 -89.5q26 -40 46.5 -64t36.5 -36q14 -10 29.5 -15.5t32.5 -5.5h5q5 0 5 -4v-97q0 -5 -5 -5h-5q-33 0 -61 7t-53 24t-53 45q-5 5 -18 22.5t-33 45.5q-23 33 -41.5 55.5t-32.5 33.5q-13 12 -26.5 17.5t-25.5 5.5
q-16 0 -35 -10.5t-36 -27.5t-28 -35t-11 -33q0 -13 8.5 -24t25 -20t39.5 -16q34 -10 58 -20t40 -19q30 -18 45.5 -44t15.5 -60q0 -92 -69.5 -139.5t-207.5 -47.5h-226zM390 -656q-29 0 -46 17.5t-17 50.5t17 50.5t46 17.5t46 -18t17 -50t-17 -50t-46 -18zM390 -472
q-29 0 -46 18t-17 50q0 33 17 50.5t46 17.5q30 0 46.5 -18t16.5 -50q0 -31 -17 -49.5t-46 -18.5z" />
    <glyph glyph-name="uniFBE6" unicode="&#x6d0;" horiz-adv-x="394" arabic-form="initial" 
d="M-5 0q-5 0 -5 5v97q0 4 5 4h181v386h129v-492h-310zM180 -412q-29 0 -46 17.5t-17 50.5t17 50.5t46 17.5t46 -18t17 -50t-17 -50t-46 -18zM180 -228q-29 0 -46 18t-17 50q0 33 17 50.5t46 17.5q30 0 46.5 -18t16.5 -50q0 -31 -17 -49.5t-46 -18.5z" />
    <glyph glyph-name="uniFBE7" unicode="&#x6d0;" horiz-adv-x="426" arabic-form="medial" 
d="M-5 0q-5 0 -5 5v97q0 4 5 4h157v386h129v-386h150q5 0 5 -4v-97q0 -5 -5 -5h-436zM195 -412q-29 0 -46 17.5t-17 50.5t17 50.5t46 17.5t46 -18t17 -50t-17 -50t-46 -18zM195 -228q-29 0 -46 18t-17 50q0 33 17 50.5t46 17.5q30 0 46.5 -18t16.5 -50q0 -31 -17 -49.5
t-46 -18.5z" />
    <glyph glyph-name="uniFBE8" unicode="&#x649;" horiz-adv-x="336" arabic-form="initial" 
d="M-5 0q-5 0 -5 5v97q0 4 5 4h127v386h129v-492h-256z" />
    <glyph glyph-name="uniFBE9" unicode="&#x649;" horiz-adv-x="376" arabic-form="medial" 
d="M-5 0q-5 0 -5 5v97q0 4 5 4h127v386h129v-386h130q5 0 5 -4v-97q0 -5 -5 -5h-386z" />
    <glyph glyph-name="uniFBEA" unicode="&#xfbea;" horiz-adv-x="688" arabic-form="isolated" 
d="M346 0q-5 0 -5 5v97q0 4 5 4h127v386h129v-492h-256zM388 623l54 9q-19 10 -30.5 27t-11.5 39q0 43 29.5 67t77.5 24q46 0 77 -17l-18 -49q-12 6 -25.5 9t-27.5 3q-22 0 -35.5 -12.5t-13.5 -36.5q0 -16 8.5 -27.5t21.5 -17.5q24 4 43 6.5t33 4.5t23 2v-55
q-18 -1 -47 -4.5t-61 -7t-58 -7t-39 -6.5v49zM357 106q4 0 4 -4v-97q0 -5 -5 -5h-256v760h129v-654h128z" />
    <glyph glyph-name="uniFBEB" unicode="&#xfbeb;" horiz-adv-x="728" arabic-form="final" 
d="M346 0q-5 0 -5 5v97q0 4 5 4h127v386h129v-386h130q5 0 5 -4v-97q0 -5 -5 -5h-386zM388 643l54 9q-19 10 -30.5 27t-11.5 39q0 43 29.5 67t77.5 24q46 0 77 -17l-18 -49q-12 6 -25.5 9t-27.5 3q-22 0 -35.5 -12.5t-13.5 -36.5q0 -16 8.5 -27.5t21.5 -17.5q24 4 43 6.5
t33 4.5t23 2v-55q-18 -1 -47 -4.5t-61 -7t-58 -7t-39 -6.5v49zM357 106q4 0 4 -4v-97q0 -5 -5 -5h-256v760h129v-654h128z" />
    <glyph glyph-name="uniFBEC" unicode="&#xfbec;" horiz-adv-x="1084" arabic-form="isolated" 
d="M742 0q-5 0 -5 5v97q0 4 5 4h127v386h129v-492h-256zM784 623l54 9q-19 10 -30.5 27t-11.5 39q0 43 29.5 67t77.5 24q46 0 77 -17l-18 -49q-12 6 -25.5 9t-27.5 3q-22 0 -35.5 -12.5t-13.5 -36.5q0 -16 8.5 -27.5t21.5 -17.5q24 4 43 6.5t33 4.5t23 2v-55
q-18 -1 -47 -4.5t-61 -7t-58 -7t-39 -6.5v49zM50 0q31 58 58 106t53.5 87.5t54.5 73.5q57 69 124.5 113.5t150.5 71.5h134v-346h127q5 0 5 -4v-97q0 -5 -5 -5h-256v343q-29 -11 -56 -26t-49 -34q-30 -25 -58.5 -59.5t-60.5 -87.5t-75 -136h-147z" />
    <glyph glyph-name="uniFBED" unicode="&#xfbed;" horiz-adv-x="1124" arabic-form="final" 
d="M742 0q-5 0 -5 5v97q0 4 5 4h127v386h129v-386h130q5 0 5 -4v-97q0 -5 -5 -5h-386zM784 643l54 9q-19 10 -30.5 27t-11.5 39q0 43 29.5 67t77.5 24q46 0 77 -17l-18 -49q-12 6 -25.5 9t-27.5 3q-22 0 -35.5 -12.5t-13.5 -36.5q0 -16 8.5 -27.5t21.5 -17.5q24 4 43 6.5
t33 4.5t23 2v-55q-18 -1 -47 -4.5t-61 -7t-58 -7t-39 -6.5v49zM50 0q31 58 58 106t53.5 87.5t54.5 73.5q57 69 124.5 113.5t150.5 71.5h134v-346h127q5 0 5 -4v-97q0 -5 -5 -5h-256v343q-29 -11 -56 -26t-49 -34q-30 -25 -58.5 -59.5t-60.5 -87.5t-75 -136h-147z" />
    <glyph glyph-name="uniFBEE" unicode="&#xfbee;" horiz-adv-x="962" arabic-form="isolated" 
d="M621 0q-5 0 -5 5v97q0 4 5 4h127v386h129v-492h-256zM663 623l54 9q-19 10 -30.5 27t-11.5 39q0 43 29.5 67t77.5 24q46 0 77 -17l-18 -49q-12 6 -25.5 9t-27.5 3q-22 0 -35.5 -12.5t-13.5 -36.5q0 -16 8.5 -27.5t21.5 -17.5q24 4 43 6.5t33 4.5t23 2v-55
q-18 -1 -47 -4.5t-61 -7t-58 -7t-39 -6.5v49zM631 106q5 0 5 -4v-97q0 -5 -5 -5h-181q-5 0 -5 5v97q0 4 5 4h181zM267 -240q-62 0 -110 11.5t-92 37.5l52 95q38 -20 73.5 -29.5t75.5 -9.5q60 0 93.5 33t33.5 89v13h-99q-107 0 -164.5 60t-57.5 171q0 83 38.5 141.5t107.5 89
t157 30.5h145v-502q0 -110 -66 -170t-187 -60zM392 106v280h-35q-73 0 -113.5 -40t-40.5 -112q0 -66 28 -97t84 -31h77z" />
    <glyph glyph-name="uniFBEF" unicode="&#xfbef;" horiz-adv-x="1002" arabic-form="final" 
d="M621 0q-5 0 -5 5v97q0 4 5 4h127v386h129v-386h130q5 0 5 -4v-97q0 -5 -5 -5h-386zM663 643l54 9q-19 10 -30.5 27t-11.5 39q0 43 29.5 67t77.5 24q46 0 77 -17l-18 -49q-12 6 -25.5 9t-27.5 3q-22 0 -35.5 -12.5t-13.5 -36.5q0 -16 8.5 -27.5t21.5 -17.5q24 4 43 6.5
t33 4.5t23 2v-55q-18 -1 -47 -4.5t-61 -7t-58 -7t-39 -6.5v49zM631 106q5 0 5 -4v-97q0 -5 -5 -5h-181q-5 0 -5 5v97q0 4 5 4h181zM267 -240q-62 0 -110 11.5t-92 37.5l52 95q38 -20 73.5 -29.5t75.5 -9.5q60 0 93.5 33t33.5 89v13h-99q-107 0 -164.5 60t-57.5 171
q0 83 38.5 141.5t107.5 89t157 30.5h145v-502q0 -110 -66 -170t-187 -60zM392 106v280h-35q-73 0 -113.5 -40t-40.5 -112q0 -66 28 -97t84 -31h77z" />
    <glyph glyph-name="uniFBF0" unicode="&#xfbf0;" horiz-adv-x="962" arabic-form="isolated" 
d="M621 0q-5 0 -5 5v97q0 4 5 4h127v386h129v-492h-256zM663 623l54 9q-19 10 -30.5 27t-11.5 39q0 43 29.5 67t77.5 24q46 0 77 -17l-18 -49q-12 6 -25.5 9t-27.5 3q-22 0 -35.5 -12.5t-13.5 -36.5q0 -16 8.5 -27.5t21.5 -17.5q24 4 43 6.5t33 4.5t23 2v-55
q-18 -1 -47 -4.5t-61 -7t-58 -7t-39 -6.5v49zM631 106q5 0 5 -4v-97q0 -5 -5 -5h-181q-5 0 -5 5v97q0 4 5 4h181zM267 -240q-62 0 -110 11.5t-92 37.5l52 95q38 -20 73.5 -29.5t75.5 -9.5q60 0 93.5 33t33.5 89v13h-99q-107 0 -164.5 60t-57.5 171q0 83 38.5 141.5t107.5 89
t157 30.5h145v-502q0 -110 -66 -170t-187 -60zM392 106v280h-35q-73 0 -113.5 -40t-40.5 -112q0 -66 28 -97t84 -31h77zM244 580l-26 38q21 12 39.5 24t33.5 23.5t26 23.5q-32 11 -52.5 34t-20.5 48q0 31 25.5 54.5t57.5 23.5q29 0 47 -23.5t18 -58.5q0 -28 -8.5 -52.5
t-26.5 -47t-45.5 -44t-67.5 -43.5z" />
    <glyph glyph-name="uniFBF1" unicode="&#xfbf1;" horiz-adv-x="1002" arabic-form="final" 
d="M621 0q-5 0 -5 5v97q0 4 5 4h127v386h129v-386h130q5 0 5 -4v-97q0 -5 -5 -5h-386zM663 643l54 9q-19 10 -30.5 27t-11.5 39q0 43 29.5 67t77.5 24q46 0 77 -17l-18 -49q-12 6 -25.5 9t-27.5 3q-22 0 -35.5 -12.5t-13.5 -36.5q0 -16 8.5 -27.5t21.5 -17.5q24 4 43 6.5
t33 4.5t23 2v-55q-18 -1 -47 -4.5t-61 -7t-58 -7t-39 -6.5v49zM631 106q5 0 5 -4v-97q0 -5 -5 -5h-181q-5 0 -5 5v97q0 4 5 4h181zM267 -240q-62 0 -110 11.5t-92 37.5l52 95q38 -20 73.5 -29.5t75.5 -9.5q60 0 93.5 33t33.5 89v13h-99q-107 0 -164.5 60t-57.5 171
q0 83 38.5 141.5t107.5 89t157 30.5h145v-502q0 -110 -66 -170t-187 -60zM392 106v280h-35q-73 0 -113.5 -40t-40.5 -112q0 -66 28 -97t84 -31h77zM244 580l-26 38q21 12 39.5 24t33.5 23.5t26 23.5q-32 11 -52.5 34t-20.5 48q0 31 25.5 54.5t57.5 23.5q29 0 47 -23.5
t18 -58.5q0 -28 -8.5 -52.5t-26.5 -47t-45.5 -44t-67.5 -43.5z" />
    <glyph glyph-name="uniFBF2" unicode="&#xfbf2;" horiz-adv-x="962" arabic-form="isolated" 
d="M621 0q-5 0 -5 5v97q0 4 5 4h127v386h129v-492h-256zM663 623l54 9q-19 10 -30.5 27t-11.5 39q0 43 29.5 67t77.5 24q46 0 77 -17l-18 -49q-12 6 -25.5 9t-27.5 3q-22 0 -35.5 -12.5t-13.5 -36.5q0 -16 8.5 -27.5t21.5 -17.5q24 4 43 6.5t33 4.5t23 2v-55
q-18 -1 -47 -4.5t-61 -7t-58 -7t-39 -6.5v49zM631 106q5 0 5 -4v-97q0 -5 -5 -5h-181q-5 0 -5 5v97q0 4 5 4h181zM267 -240q-62 0 -110 11.5t-92 37.5l52 95q38 -20 73.5 -29.5t75.5 -9.5q60 0 93.5 33t33.5 89v13h-99q-107 0 -164.5 60t-57.5 171q0 83 38.5 141.5t107.5 89
t157 30.5h145v-502q0 -110 -66 -170t-187 -60zM392 106v280h-35q-73 0 -113.5 -40t-40.5 -112q0 -66 28 -97t84 -31h77zM460 798l-110 -199h-89l-111 199h91l63 -129l65 129h91z" />
    <glyph glyph-name="uniFBF3" unicode="&#xfbf3;" horiz-adv-x="1002" arabic-form="final" 
d="M621 0q-5 0 -5 5v97q0 4 5 4h127v386h129v-386h130q5 0 5 -4v-97q0 -5 -5 -5h-386zM663 643l54 9q-19 10 -30.5 27t-11.5 39q0 43 29.5 67t77.5 24q46 0 77 -17l-18 -49q-12 6 -25.5 9t-27.5 3q-22 0 -35.5 -12.5t-13.5 -36.5q0 -16 8.5 -27.5t21.5 -17.5q24 4 43 6.5
t33 4.5t23 2v-55q-18 -1 -47 -4.5t-61 -7t-58 -7t-39 -6.5v49zM631 106q5 0 5 -4v-97q0 -5 -5 -5h-181q-5 0 -5 5v97q0 4 5 4h181zM267 -240q-62 0 -110 11.5t-92 37.5l52 95q38 -20 73.5 -29.5t75.5 -9.5q60 0 93.5 33t33.5 89v13h-99q-107 0 -164.5 60t-57.5 171
q0 83 38.5 141.5t107.5 89t157 30.5h145v-502q0 -110 -66 -170t-187 -60zM392 106v280h-35q-73 0 -113.5 -40t-40.5 -112q0 -66 28 -97t84 -31h77zM460 798l-110 -199h-89l-111 199h91l63 -129l65 129h91z" />
    <glyph glyph-name="uniFBF4" unicode="&#xfbf4;" horiz-adv-x="962" arabic-form="isolated" 
d="M621 0q-5 0 -5 5v97q0 4 5 4h127v386h129v-492h-256zM663 623l54 9q-19 10 -30.5 27t-11.5 39q0 43 29.5 67t77.5 24q46 0 77 -17l-18 -49q-12 6 -25.5 9t-27.5 3q-22 0 -35.5 -12.5t-13.5 -36.5q0 -16 8.5 -27.5t21.5 -17.5q24 4 43 6.5t33 4.5t23 2v-55
q-18 -1 -47 -4.5t-61 -7t-58 -7t-39 -6.5v49zM631 106q5 0 5 -4v-97q0 -5 -5 -5h-181q-5 0 -5 5v97q0 4 5 4h181zM267 -240q-62 0 -110 11.5t-92 37.5l52 95q38 -20 73.5 -29.5t75.5 -9.5q60 0 93.5 33t33.5 89v13h-99q-107 0 -164.5 60t-57.5 171q0 83 38.5 141.5t107.5 89
t157 30.5h145v-502q0 -110 -66 -170t-187 -60zM392 106v280h-35q-73 0 -113.5 -40t-40.5 -112q0 -66 28 -97t84 -31h77zM277 783h64v-194h-64v194z" />
    <glyph glyph-name="uniFBF5" unicode="&#xfbf5;" horiz-adv-x="1002" arabic-form="final" 
d="M621 0q-5 0 -5 5v97q0 4 5 4h127v386h129v-386h130q5 0 5 -4v-97q0 -5 -5 -5h-386zM663 643l54 9q-19 10 -30.5 27t-11.5 39q0 43 29.5 67t77.5 24q46 0 77 -17l-18 -49q-12 6 -25.5 9t-27.5 3q-22 0 -35.5 -12.5t-13.5 -36.5q0 -16 8.5 -27.5t21.5 -17.5q24 4 43 6.5
t33 4.5t23 2v-55q-18 -1 -47 -4.5t-61 -7t-58 -7t-39 -6.5v49zM631 106q5 0 5 -4v-97q0 -5 -5 -5h-181q-5 0 -5 5v97q0 4 5 4h181zM267 -240q-62 0 -110 11.5t-92 37.5l52 95q38 -20 73.5 -29.5t75.5 -9.5q60 0 93.5 33t33.5 89v13h-99q-107 0 -164.5 60t-57.5 171
q0 83 38.5 141.5t107.5 89t157 30.5h145v-502q0 -110 -66 -170t-187 -60zM392 106v280h-35q-73 0 -113.5 -40t-40.5 -112q0 -66 28 -97t84 -31h77zM277 783h64v-194h-64v194z" />
    <glyph glyph-name="uniFBF6" unicode="&#xfbf6;" horiz-adv-x="1328" arabic-form="isolated" 
d="M986 0q-5 0 -5 5v97q0 4 5 4h127v386h129v-492h-256zM1028 623l54 9q-19 10 -30.5 27t-11.5 39q0 43 29.5 67t77.5 24q46 0 77 -17l-18 -49q-12 6 -25.5 9t-27.5 3q-22 0 -35.5 -12.5t-13.5 -36.5q0 -16 8.5 -27.5t21.5 -17.5q24 4 43 6.5t33 4.5t23 2v-55
q-18 -1 -47 -4.5t-61 -7t-58 -7t-39 -6.5v49zM266 -240q-61 0 -106.5 30t-70 82.5t-24.5 119.5q0 50 8 96t25 93h116q-14 -41 -18.5 -79.5t-4.5 -92.5q0 -41 16 -73.5t44 -51t63 -18.5h177q43 0 76 6.5t52.5 20.5t19.5 38q0 19 -17 32t-53 23q-54 14 -88 32.5t-50 46
t-16 67.5q0 27 9.5 55t27.5 56q25 37 60 67t73.5 47t74.5 17q17 0 32 -3t28 -9q31 -15 58.5 -45.5t67.5 -89.5q26 -40 46.5 -64t36.5 -36q14 -10 29.5 -15.5t32.5 -5.5h5q5 0 5 -4v-97q0 -5 -5 -5h-5q-33 0 -61 7t-53 24t-53 45q-5 5 -18 22.5t-33 45.5q-23 33 -41.5 55.5
t-32.5 33.5q-13 12 -26.5 17.5t-25.5 5.5q-16 0 -35 -10.5t-36 -27.5t-28 -35t-11 -33q0 -13 8.5 -24t25 -20t39.5 -16q34 -10 58 -20t40 -19q30 -18 45.5 -44t15.5 -60q0 -92 -69.5 -139.5t-207.5 -47.5h-226zM390 -656q-29 0 -46 17.5t-17 50.5t17 50.5t46 17.5t46 -18
t17 -50t-17 -50t-46 -18zM390 -472q-29 0 -46 18t-17 50q0 33 17 50.5t46 17.5q30 0 46.5 -18t16.5 -50q0 -31 -17 -49.5t-46 -18.5z" />
    <glyph glyph-name="uniFBF7" unicode="&#xfbf7;" horiz-adv-x="1368" arabic-form="final" 
d="M986 0q-5 0 -5 5v97q0 4 5 4h127v386h129v-386h130q5 0 5 -4v-97q0 -5 -5 -5h-386zM1028 643l54 9q-19 10 -30.5 27t-11.5 39q0 43 29.5 67t77.5 24q46 0 77 -17l-18 -49q-12 6 -25.5 9t-27.5 3q-22 0 -35.5 -12.5t-13.5 -36.5q0 -16 8.5 -27.5t21.5 -17.5q24 4 43 6.5
t33 4.5t23 2v-55q-18 -1 -47 -4.5t-61 -7t-58 -7t-39 -6.5v49zM266 -240q-61 0 -106.5 30t-70 82.5t-24.5 119.5q0 50 8 96t25 93h116q-14 -41 -18.5 -79.5t-4.5 -92.5q0 -41 16 -73.5t44 -51t63 -18.5h177q43 0 76 6.5t52.5 20.5t19.5 38q0 19 -17 32t-53 23
q-54 14 -88 32.5t-50 46t-16 67.5q0 27 9.5 55t27.5 56q25 37 60 67t73.5 47t74.5 17q17 0 32 -3t28 -9q31 -15 58.5 -45.5t67.5 -89.5q26 -40 46.5 -64t36.5 -36q14 -10 29.5 -15.5t32.5 -5.5h5q5 0 5 -4v-97q0 -5 -5 -5h-5q-33 0 -61 7t-53 24t-53 45q-5 5 -18 22.5
t-33 45.5q-23 33 -41.5 55.5t-32.5 33.5q-13 12 -26.5 17.5t-25.5 5.5q-16 0 -35 -10.5t-36 -27.5t-28 -35t-11 -33q0 -13 8.5 -24t25 -20t39.5 -16q34 -10 58 -20t40 -19q30 -18 45.5 -44t15.5 -60q0 -92 -69.5 -139.5t-207.5 -47.5h-226zM390 -656q-29 0 -46 17.5
t-17 50.5t17 50.5t46 17.5t46 -18t17 -50t-17 -50t-46 -18zM390 -472q-29 0 -46 18t-17 50q0 33 17 50.5t46 17.5q30 0 46.5 -18t16.5 -50q0 -31 -17 -49.5t-46 -18.5z" />
    <glyph glyph-name="uniFBF8" unicode="&#xfbf8;" horiz-adv-x="763" arabic-form="initial" 
d="M421 0q-5 0 -5 5v97q0 4 5 4h127v386h129v-492h-256zM463 623l54 9q-19 10 -30.5 27t-11.5 39q0 43 29.5 67t77.5 24q46 0 77 -17l-18 -49q-12 6 -25.5 9t-27.5 3q-22 0 -35.5 -12.5t-13.5 -36.5q0 -16 8.5 -27.5t21.5 -17.5q24 4 43 6.5t33 4.5t23 2v-55
q-18 -1 -47 -4.5t-61 -7t-58 -7t-39 -6.5v49zM-5 0q-5 0 -5 5v97q0 4 5 4h157v386h129v-386h150q5 0 5 -4v-97q0 -5 -5 -5h-436zM195 -412q-29 0 -46 17.5t-17 50.5t17 50.5t46 17.5t46 -18t17 -50t-17 -50t-46 -18zM195 -228q-29 0 -46 18t-17 50q0 33 17 50.5t46 17.5
q30 0 46.5 -18t16.5 -50q0 -31 -17 -49.5t-46 -18.5z" />
    <glyph glyph-name="uniFBF9" unicode="&#xfbf9;" horiz-adv-x="1328" arabic-form="isolated" 
d="M986 0q-5 0 -5 5v97q0 4 5 4h127v386h129v-492h-256zM1028 623l54 9q-19 10 -30.5 27t-11.5 39q0 43 29.5 67t77.5 24q46 0 77 -17l-18 -49q-12 6 -25.5 9t-27.5 3q-22 0 -35.5 -12.5t-13.5 -36.5q0 -16 8.5 -27.5t21.5 -17.5q24 4 43 6.5t33 4.5t23 2v-55
q-18 -1 -47 -4.5t-61 -7t-58 -7t-39 -6.5v49zM266 -240q-61 0 -106.5 30t-70 82.5t-24.5 119.5q0 50 8 96t25 93h116q-14 -41 -18.5 -79.5t-4.5 -92.5q0 -41 16 -73.5t44 -51t63 -18.5h177q43 0 76 6.5t52.5 20.5t19.5 38q0 19 -17 32t-53 23q-54 14 -88 32.5t-50 46
t-16 67.5q0 27 9.5 55t27.5 56q25 37 60 67t73.5 47t74.5 17q17 0 32 -3t28 -9q31 -15 58.5 -45.5t67.5 -89.5q26 -40 46.5 -64t36.5 -36q14 -10 29.5 -15.5t32.5 -5.5h5q5 0 5 -4v-97q0 -5 -5 -5h-5q-33 0 -61 7t-53 24t-53 45q-5 5 -18 22.5t-33 45.5q-23 33 -41.5 55.5
t-32.5 33.5q-13 12 -26.5 17.5t-25.5 5.5q-16 0 -35 -10.5t-36 -27.5t-28 -35t-11 -33q0 -13 8.5 -24t25 -20t39.5 -16q34 -10 58 -20t40 -19q30 -18 45.5 -44t15.5 -60q0 -92 -69.5 -139.5t-207.5 -47.5h-226z" />
    <glyph glyph-name="uniFBFA" unicode="&#xfbfa;" horiz-adv-x="1368" arabic-form="final" 
d="M986 0q-5 0 -5 5v97q0 4 5 4h127v386h129v-386h130q5 0 5 -4v-97q0 -5 -5 -5h-386zM1028 643l54 9q-19 10 -30.5 27t-11.5 39q0 43 29.5 67t77.5 24q46 0 77 -17l-18 -49q-12 6 -25.5 9t-27.5 3q-22 0 -35.5 -12.5t-13.5 -36.5q0 -16 8.5 -27.5t21.5 -17.5q24 4 43 6.5
t33 4.5t23 2v-55q-18 -1 -47 -4.5t-61 -7t-58 -7t-39 -6.5v49zM266 -240q-61 0 -106.5 30t-70 82.5t-24.5 119.5q0 50 8 96t25 93h116q-14 -41 -18.5 -79.5t-4.5 -92.5q0 -41 16 -73.5t44 -51t63 -18.5h177q43 0 76 6.5t52.5 20.5t19.5 38q0 19 -17 32t-53 23
q-54 14 -88 32.5t-50 46t-16 67.5q0 27 9.5 55t27.5 56q25 37 60 67t73.5 47t74.5 17q17 0 32 -3t28 -9q31 -15 58.5 -45.5t67.5 -89.5q26 -40 46.5 -64t36.5 -36q14 -10 29.5 -15.5t32.5 -5.5h5q5 0 5 -4v-97q0 -5 -5 -5h-5q-33 0 -61 7t-53 24t-53 45q-5 5 -18 22.5
t-33 45.5q-23 33 -41.5 55.5t-32.5 33.5q-13 12 -26.5 17.5t-25.5 5.5q-16 0 -35 -10.5t-36 -27.5t-28 -35t-11 -33q0 -13 8.5 -24t25 -20t39.5 -16q34 -10 58 -20t40 -19q30 -18 45.5 -44t15.5 -60q0 -92 -69.5 -139.5t-207.5 -47.5h-226z" />
    <glyph glyph-name="uniFBFB" unicode="&#xfbfb;" horiz-adv-x="713" arabic-form="initial" 
d="M371 0q-5 0 -5 5v97q0 4 5 4h127v386h129v-492h-256zM413 623l54 9q-19 10 -30.5 27t-11.5 39q0 43 29.5 67t77.5 24q46 0 77 -17l-18 -49q-12 6 -25.5 9t-27.5 3q-22 0 -35.5 -12.5t-13.5 -36.5q0 -16 8.5 -27.5t21.5 -17.5q24 4 43 6.5t33 4.5t23 2v-55
q-18 -1 -47 -4.5t-61 -7t-58 -7t-39 -6.5v49zM-5 0q-5 0 -5 5v97q0 4 5 4h127v386h129v-386h130q5 0 5 -4v-97q0 -5 -5 -5h-386z" />
    <glyph glyph-name="uni0649.fina" unicode="&#x649;" horiz-adv-x="991" arabic-form="final" 
d="M266 -240q-61 0 -106.5 30t-70 82.5t-24.5 119.5q0 50 8 96t25 93h116q-14 -41 -18.5 -79.5t-4.5 -92.5q0 -41 16 -73.5t44 -51t63 -18.5h177q43 0 76 6.5t52.5 20.5t19.5 38q0 19 -17 32t-53 23q-54 14 -88 32.5t-50 46t-16 67.5q0 27 9.5 55t27.5 56q25 37 60 67
t73.5 47t74.5 17q17 0 32 -3t28 -9q31 -15 58.5 -45.5t67.5 -89.5q26 -40 46.5 -64t36.5 -36q14 -10 29.5 -15.5t32.5 -5.5h5q5 0 5 -4v-97q0 -5 -5 -5h-5q-33 0 -61 7t-53 24t-53 45q-5 5 -18 22.5t-33 45.5q-23 33 -41.5 55.5t-32.5 33.5q-13 12 -26.5 17.5t-25.5 5.5
q-16 0 -35 -10.5t-36 -27.5t-28 -35t-11 -33q0 -13 8.5 -24t25 -20t39.5 -16q34 -10 58 -20t40 -19q30 -18 45.5 -44t15.5 -60q0 -92 -69.5 -139.5t-207.5 -47.5h-226z" />
    <glyph glyph-name="uniFEF3" unicode="&#x64a;" horiz-adv-x="394" arabic-form="initial" 
d="M-5 0q-5 0 -5 5v97q0 4 5 4h181v386h129v-492h-310zM96 -217q-28 0 -45.5 17.5t-17.5 50.5q0 32 17.5 50t45.5 18q30 0 46.5 -18t16.5 -50q0 -33 -17 -50.5t-46 -17.5zM267 -217q-29 0 -46 18t-17 50q0 31 17 49.5t46 18.5q30 0 46.5 -18.5t16.5 -49.5t-17 -49.5
t-46 -18.5z" />
    <glyph glyph-name="uniFEF4" unicode="&#x64a;" horiz-adv-x="426" arabic-form="medial" 
d="M-5 0q-5 0 -5 5v97q0 4 5 4h157v386h129v-386h150q5 0 5 -4v-97q0 -5 -5 -5h-436zM111 -217q-28 0 -45.5 17.5t-17.5 50.5q0 32 17.5 50t45.5 18q30 0 46.5 -18t16.5 -50q0 -33 -17 -50.5t-46 -17.5zM282 -217q-29 0 -46 18t-17 50q0 31 17 49.5t46 18.5q30 0 46.5 -18.5
t16.5 -49.5t-17 -49.5t-46 -18.5z" />
    <glyph glyph-name="uniFC00" unicode="&#xfc00;" horiz-adv-x="971" arabic-form="isolated" 
d="M630 0q-5 0 -5 5v97q0 4 5 4h127v386h129v-492h-256zM672 623l54 9q-19 10 -30.5 27t-11.5 39q0 43 29.5 67t77.5 24q46 0 77 -17l-18 -49q-12 6 -25.5 9t-27.5 3q-22 0 -35.5 -12.5t-13.5 -36.5q0 -16 8.5 -27.5t21.5 -17.5q24 4 43 6.5t33 4.5t23 2v-55
q-18 -1 -47 -4.5t-61 -7t-58 -7t-39 -6.5v49zM266 -324q-66 0 -116 24.5t-77.5 70.5t-27.5 108q0 46 17.5 85.5t51.5 71.5q27 28 66 53t96 47.5t138 45.5q-7 19 -13 40t-11 44q-9 44 -27.5 73t-45.5 43t-65 14q-33 0 -74.5 -12.5t-82.5 -35.5l-47 97q30 17 67.5 30t78.5 20
t79 7q66 0 113 -22t76.5 -66t40.5 -111q7 -42 17 -74.5t21 -54.5q17 -33 40 -50.5t53 -17.5h6q5 0 5 -4v-97q0 -5 -5 -5h-6q-43 0 -75.5 9.5t-57 29.5t-44.5 50q-60 -16 -104 -30.5t-70 -27.5q-55 -28 -82.5 -63.5t-27.5 -80.5q0 -49 32 -76.5t88 -27.5zM470 -265
q-30 0 -47 18t-17 50t17 50t47 18q29 0 45.5 -18.5t16.5 -49.5t-16.5 -49.5t-45.5 -18.5z" />
    <glyph glyph-name="uniFC01" unicode="&#xfc01;" horiz-adv-x="971" arabic-form="isolated" 
d="M630 0q-5 0 -5 5v97q0 4 5 4h127v386h129v-492h-256zM672 623l54 9q-19 10 -30.5 27t-11.5 39q0 43 29.5 67t77.5 24q46 0 77 -17l-18 -49q-12 6 -25.5 9t-27.5 3q-22 0 -35.5 -12.5t-13.5 -36.5q0 -16 8.5 -27.5t21.5 -17.5q24 4 43 6.5t33 4.5t23 2v-55
q-18 -1 -47 -4.5t-61 -7t-58 -7t-39 -6.5v49zM634 0q-43 0 -75.5 9.5t-57 29.5t-44.5 50q-40 -10 -73 -20t-58 -19.5t-43 -18.5q-55 -28 -82.5 -63.5t-27.5 -80.5q0 -33 15 -56t43.5 -35.5t66.5 -12.5q31 0 67.5 5t79.5 14l15 -96q-49 -15 -98.5 -22.5t-95.5 -7.5
q-66 0 -116 24.5t-77.5 70.5t-27.5 108q0 46 17.5 85.5t51.5 71.5q27 28 66 53t96 47.5t138 45.5q-7 19 -13 40t-11 44q-9 44 -27.5 73t-45.5 43t-65 14q-33 0 -74.5 -12.5t-82.5 -35.5l-47 97q44 25 105.5 41t119.5 16q66 0 113 -22.5t76.5 -68t42.5 -116.5q6 -34 14 -63.5
t19 -50.5q17 -37 41 -56t55 -19h6q5 0 5 -4v-97q0 -5 -5 -5h-6z" />
    <glyph glyph-name="uniFC02" unicode="&#xfc02;" horiz-adv-x="1058" arabic-form="isolated" 
d="M717 0q-5 0 -5 5v97q0 4 5 4h127v386h129v-492h-256zM759 623l54 9q-19 10 -30.5 27t-11.5 39q0 43 29.5 67t77.5 24q46 0 77 -17l-18 -49q-12 6 -25.5 9t-27.5 3q-22 0 -35.5 -12.5t-13.5 -36.5q0 -16 8.5 -27.5t21.5 -17.5q24 4 43 6.5t33 4.5t23 2v-55
q-18 -1 -47 -4.5t-61 -7t-58 -7t-39 -6.5v49zM270 0q-42 0 -60 -18t-18 -58v-244h-127v282q0 43 15 75.5t43.5 50t68.5 17.5h3q-15 37 -22.5 75t-7.5 75q0 44 13 91.5t33 81.5q42 28 94.5 44t98.5 16q33 0 63 -7t56 -21q53 -29 82.5 -82t29.5 -121q0 -28 -5 -54.5t-15 -52.5
q19 -24 44 -34t63 -10h5q5 0 5 -4v-97q0 -5 -5 -5h-5q-53 0 -91.5 15t-73.5 51q-36 -33 -83 -49.5t-97 -16.5h-107zM287 247q0 -32 6.5 -67t21.5 -74h49q42 0 73.5 19t49.5 53.5t18 79.5q0 57 -29 91t-74 34q-25 0 -50.5 -8.5t-50.5 -24.5q-8 -24 -11 -49.5t-3 -53.5z" />
    <glyph glyph-name="uniFC03" unicode="&#xfc03;" horiz-adv-x="1328" arabic-form="isolated" 
d="M986 0q-5 0 -5 5v97q0 4 5 4h127v386h129v-492h-256zM1028 623l54 9q-19 10 -30.5 27t-11.5 39q0 43 29.5 67t77.5 24q46 0 77 -17l-18 -49q-12 6 -25.5 9t-27.5 3q-22 0 -35.5 -12.5t-13.5 -36.5q0 -16 8.5 -27.5t21.5 -17.5q24 4 43 6.5t33 4.5t23 2v-55
q-18 -1 -47 -4.5t-61 -7t-58 -7t-39 -6.5v49zM266 -240q-61 0 -106.5 30t-70 82.5t-24.5 119.5q0 50 8 96t25 93h116q-14 -41 -18.5 -79.5t-4.5 -92.5q0 -41 16 -73.5t44 -51t63 -18.5h177q43 0 76 6.5t52.5 20.5t19.5 38q0 19 -17 32t-53 23q-54 14 -88 32.5t-50 46
t-16 67.5q0 27 9.5 55t27.5 56q25 37 60 67t73.5 47t74.5 17q17 0 32 -3t28 -9q31 -15 58.5 -45.5t67.5 -89.5q26 -40 46.5 -64t36.5 -36q14 -10 29.5 -15.5t32.5 -5.5h5q5 0 5 -4v-97q0 -5 -5 -5h-5q-33 0 -61 7t-53 24t-53 45q-5 5 -18 22.5t-33 45.5q-23 33 -41.5 55.5
t-32.5 33.5q-13 12 -26.5 17.5t-25.5 5.5q-16 0 -35 -10.5t-36 -27.5t-28 -35t-11 -33q0 -13 8.5 -24t25 -20t39.5 -16q34 -10 58 -20t40 -19q30 -18 45.5 -44t15.5 -60q0 -92 -69.5 -139.5t-207.5 -47.5h-226z" />
    <glyph glyph-name="uniFC04" unicode="&#xfc04;" horiz-adv-x="1328" arabic-form="isolated" 
d="M986 0q-5 0 -5 5v97q0 4 5 4h127v386h129v-492h-256zM1028 623l54 9q-19 10 -30.5 27t-11.5 39q0 43 29.5 67t77.5 24q46 0 77 -17l-18 -49q-12 6 -25.5 9t-27.5 3q-22 0 -35.5 -12.5t-13.5 -36.5q0 -16 8.5 -27.5t21.5 -17.5q24 4 43 6.5t33 4.5t23 2v-55
q-18 -1 -47 -4.5t-61 -7t-58 -7t-39 -6.5v49zM266 -240q-61 0 -106.5 30t-70 82.5t-24.5 119.5q0 50 8 96t25 93h116q-14 -41 -18.5 -79.5t-4.5 -92.5q0 -41 16 -73.5t44 -51t63 -18.5h177q43 0 76 6.5t52.5 20.5t19.5 38q0 19 -17 32t-53 23q-54 14 -88 32.5t-50 46
t-16 67.5q0 27 9.5 55t27.5 56q25 37 60 67t73.5 47t74.5 17q17 0 32 -3t28 -9q31 -15 58.5 -45.5t67.5 -89.5q26 -40 46.5 -64t36.5 -36q14 -10 29.5 -15.5t32.5 -5.5h5q5 0 5 -4v-97q0 -5 -5 -5h-5q-33 0 -61 7t-53 24t-53 45q-5 5 -18 22.5t-33 45.5q-23 33 -41.5 55.5
t-32.5 33.5q-13 12 -26.5 17.5t-25.5 5.5q-16 0 -35 -10.5t-36 -27.5t-28 -35t-11 -33q0 -13 8.5 -24t25 -20t39.5 -16q34 -10 58 -20t40 -19q30 -18 45.5 -44t15.5 -60q0 -92 -69.5 -139.5t-207.5 -47.5h-226zM307 -461q-28 0 -45.5 17.5t-17.5 50.5q0 32 17.5 50t45.5 18
q30 0 46.5 -18t16.5 -50q0 -33 -17 -50.5t-46 -17.5zM478 -461q-29 0 -46 18t-17 50q0 31 17 49.5t46 18.5q30 0 46.5 -18.5t16.5 -49.5t-17 -49.5t-46 -18.5z" />
    <glyph glyph-name="uniFC05" unicode="&#xfc05;" horiz-adv-x="971" arabic-form="isolated" 
d="M630 0q-5 0 -5 5v97q0 4 5 4h127v386h129v-492h-256zM761 -239q-29 0 -46 18t-17 50q0 31 16.5 49.5t46.5 18.5t46.5 -18.5t16.5 -49.5t-17 -49.5t-46 -18.5zM266 -324q-66 0 -116 24.5t-77.5 70.5t-27.5 108q0 46 17.5 85.5t51.5 71.5q27 28 66 53t96 47.5t138 45.5
q-7 19 -13 40t-11 44q-9 44 -27.5 73t-45.5 43t-65 14q-33 0 -74.5 -12.5t-82.5 -35.5l-47 97q30 17 67.5 30t78.5 20t79 7q66 0 113 -22t76.5 -66t40.5 -111q7 -42 17 -74.5t21 -54.5q17 -33 40 -50.5t53 -17.5h6q5 0 5 -4v-97q0 -5 -5 -5h-6q-43 0 -75.5 9.5t-57 29.5
t-44.5 50q-60 -16 -104 -30.5t-70 -27.5q-55 -28 -82.5 -63.5t-27.5 -80.5q0 -49 32 -76.5t88 -27.5zM470 -265q-30 0 -47 18t-17 50t17 50t47 18q29 0 45.5 -18.5t16.5 -49.5t-16.5 -49.5t-45.5 -18.5z" />
    <glyph glyph-name="uniFC06" unicode="&#xfc06;" horiz-adv-x="971" arabic-form="isolated" 
d="M630 0q-5 0 -5 5v97q0 4 5 4h127v386h129v-492h-256zM761 -239q-29 0 -46 18t-17 50q0 31 16.5 49.5t46.5 18.5t46.5 -18.5t16.5 -49.5t-17 -49.5t-46 -18.5zM634 0q-43 0 -75.5 9.5t-57 29.5t-44.5 50q-40 -10 -73 -20t-58 -19.5t-43 -18.5q-55 -28 -82.5 -63.5
t-27.5 -80.5q0 -33 15 -56t43.5 -35.5t66.5 -12.5q31 0 67.5 5t79.5 14l15 -96q-49 -15 -98.5 -22.5t-95.5 -7.5q-66 0 -116 24.5t-77.5 70.5t-27.5 108q0 46 17.5 85.5t51.5 71.5q27 28 66 53t96 47.5t138 45.5q-7 19 -13 40t-11 44q-9 44 -27.5 73t-45.5 43t-65 14
q-33 0 -74.5 -12.5t-82.5 -35.5l-47 97q44 25 105.5 41t119.5 16q66 0 113 -22.5t76.5 -68t42.5 -116.5q6 -34 14 -63.5t19 -50.5q17 -37 41 -56t55 -19h6q5 0 5 -4v-97q0 -5 -5 -5h-6z" />
    <glyph glyph-name="uniFC07" unicode="&#xfc07;" horiz-adv-x="971" arabic-form="isolated" 
d="M630 0q-5 0 -5 5v97q0 4 5 4h127v386h129v-492h-256zM761 -239q-29 0 -46 18t-17 50q0 31 16.5 49.5t46.5 18.5t46.5 -18.5t16.5 -49.5t-17 -49.5t-46 -18.5zM634 0q-43 0 -75.5 9.5t-57 29.5t-44.5 50q-40 -10 -73 -20t-58 -19.5t-43 -18.5q-55 -28 -82.5 -63.5
t-27.5 -80.5q0 -33 15 -56t43.5 -35.5t66.5 -12.5q31 0 67.5 5t79.5 14l15 -96q-49 -15 -98.5 -22.5t-95.5 -7.5q-66 0 -116 24.5t-77.5 70.5t-27.5 108q0 46 17.5 85.5t51.5 71.5q27 28 66 53t96 47.5t138 45.5q-7 19 -13 40t-11 44q-9 44 -27.5 73t-45.5 43t-65 14
q-33 0 -74.5 -12.5t-82.5 -35.5l-47 97q44 25 105.5 41t119.5 16q66 0 113 -22.5t76.5 -68t42.5 -116.5q6 -34 14 -63.5t19 -50.5q17 -37 41 -56t55 -19h6q5 0 5 -4v-97q0 -5 -5 -5h-6zM264 614q-30 0 -47 18t-17 50t17 50t47 18q29 0 45.5 -18.5t16.5 -49.5t-16.5 -49.5
t-45.5 -18.5z" />
    <glyph glyph-name="uniFC08" unicode="&#xfc08;" horiz-adv-x="1058" arabic-form="isolated" 
d="M717 0q-5 0 -5 5v97q0 4 5 4h127v386h129v-492h-256zM848 -239q-29 0 -46 18t-17 50q0 31 16.5 49.5t46.5 18.5t46.5 -18.5t16.5 -49.5t-17 -49.5t-46 -18.5zM270 0q-42 0 -60 -18t-18 -58v-244h-127v282q0 43 15 75.5t43.5 50t68.5 17.5h3q-15 37 -22.5 75t-7.5 75
q0 44 13 91.5t33 81.5q42 28 94.5 44t98.5 16q33 0 63 -7t56 -21q53 -29 82.5 -82t29.5 -121q0 -28 -5 -54.5t-15 -52.5q19 -24 44 -34t63 -10h5q5 0 5 -4v-97q0 -5 -5 -5h-5q-53 0 -91.5 15t-73.5 51q-36 -33 -83 -49.5t-97 -16.5h-107zM287 247q0 -32 6.5 -67t21.5 -74h49
q42 0 73.5 19t49.5 53.5t18 79.5q0 57 -29 91t-74 34q-25 0 -50.5 -8.5t-50.5 -24.5q-8 -24 -11 -49.5t-3 -53.5z" />
    <glyph glyph-name="uniFC09" unicode="&#xfc09;" horiz-adv-x="1328" arabic-form="isolated" 
d="M986 0q-5 0 -5 5v97q0 4 5 4h127v386h129v-492h-256zM1118 -239q-29 0 -46 18t-17 50q0 31 16.5 49.5t46.5 18.5t46.5 -18.5t16.5 -49.5t-17 -49.5t-46 -18.5zM266 -240q-61 0 -106.5 30t-70 82.5t-24.5 119.5q0 50 8 96t25 93h116q-14 -41 -18.5 -79.5t-4.5 -92.5
q0 -41 16 -73.5t44 -51t63 -18.5h177q43 0 76 6.5t52.5 20.5t19.5 38q0 19 -17 32t-53 23q-54 14 -88 32.5t-50 46t-16 67.5q0 27 9.5 55t27.5 56q25 37 60 67t73.5 47t74.5 17q17 0 32 -3t28 -9q31 -15 58.5 -45.5t67.5 -89.5q26 -40 46.5 -64t36.5 -36q14 -10 29.5 -15.5
t32.5 -5.5h5q5 0 5 -4v-97q0 -5 -5 -5h-5q-33 0 -61 7t-53 24t-53 45q-5 5 -18 22.5t-33 45.5q-23 33 -41.5 55.5t-32.5 33.5q-13 12 -26.5 17.5t-25.5 5.5q-16 0 -35 -10.5t-36 -27.5t-28 -35t-11 -33q0 -13 8.5 -24t25 -20t39.5 -16q34 -10 58 -20t40 -19q30 -18 45.5 -44
t15.5 -60q0 -92 -69.5 -139.5t-207.5 -47.5h-226z" />
    <glyph glyph-name="uniFC0A" unicode="&#xfc0a;" horiz-adv-x="1328" arabic-form="isolated" 
d="M986 0q-5 0 -5 5v97q0 4 5 4h127v386h129v-492h-256zM1118 -239q-29 0 -46 18t-17 50q0 31 16.5 49.5t46.5 18.5t46.5 -18.5t16.5 -49.5t-17 -49.5t-46 -18.5zM266 -240q-61 0 -106.5 30t-70 82.5t-24.5 119.5q0 50 8 96t25 93h116q-14 -41 -18.5 -79.5t-4.5 -92.5
q0 -41 16 -73.5t44 -51t63 -18.5h177q43 0 76 6.5t52.5 20.5t19.5 38q0 19 -17 32t-53 23q-54 14 -88 32.5t-50 46t-16 67.5q0 27 9.5 55t27.5 56q25 37 60 67t73.5 47t74.5 17q17 0 32 -3t28 -9q31 -15 58.5 -45.5t67.5 -89.5q26 -40 46.5 -64t36.5 -36q14 -10 29.5 -15.5
t32.5 -5.5h5q5 0 5 -4v-97q0 -5 -5 -5h-5q-33 0 -61 7t-53 24t-53 45q-5 5 -18 22.5t-33 45.5q-23 33 -41.5 55.5t-32.5 33.5q-13 12 -26.5 17.5t-25.5 5.5q-16 0 -35 -10.5t-36 -27.5t-28 -35t-11 -33q0 -13 8.5 -24t25 -20t39.5 -16q34 -10 58 -20t40 -19q30 -18 45.5 -44
t15.5 -60q0 -92 -69.5 -139.5t-207.5 -47.5h-226zM307 -461q-28 0 -45.5 17.5t-17.5 50.5q0 32 17.5 50t45.5 18q30 0 46.5 -18t16.5 -50q0 -33 -17 -50.5t-46 -17.5zM478 -461q-29 0 -46 18t-17 50q0 31 17 49.5t46 18.5q30 0 46.5 -18.5t16.5 -49.5t-17 -49.5t-46 -18.5z
" />
    <glyph glyph-name="uniFC0B" unicode="&#xfc0b;" horiz-adv-x="971" arabic-form="isolated" 
d="M630 0q-5 0 -5 5v97q0 4 5 4h127v386h129v-492h-256zM701 617q-28 0 -45.5 17.5t-17.5 50.5t17.5 50.5t45.5 17.5q29 0 46 -18t17 -50q0 -33 -17 -50.5t-46 -17.5zM872 617q-29 0 -46 18t-17 50t17 50t46 18q30 0 46.5 -18.5t16.5 -49.5t-17 -49.5t-46 -18.5zM266 -324
q-66 0 -116 24.5t-77.5 70.5t-27.5 108q0 46 17.5 85.5t51.5 71.5q27 28 66 53t96 47.5t138 45.5q-7 19 -13 40t-11 44q-9 44 -27.5 73t-45.5 43t-65 14q-33 0 -74.5 -12.5t-82.5 -35.5l-47 97q30 17 67.5 30t78.5 20t79 7q66 0 113 -22t76.5 -66t40.5 -111q7 -42 17 -74.5
t21 -54.5q17 -33 40 -50.5t53 -17.5h6q5 0 5 -4v-97q0 -5 -5 -5h-6q-43 0 -75.5 9.5t-57 29.5t-44.5 50q-60 -16 -104 -30.5t-70 -27.5q-55 -28 -82.5 -63.5t-27.5 -80.5q0 -49 32 -76.5t88 -27.5zM470 -265q-30 0 -47 18t-17 50t17 50t47 18q29 0 45.5 -18.5t16.5 -49.5
t-16.5 -49.5t-45.5 -18.5z" />
    <glyph glyph-name="uniFC0C" unicode="&#xfc0c;" horiz-adv-x="971" arabic-form="isolated" 
d="M630 0q-5 0 -5 5v97q0 4 5 4h127v386h129v-492h-256zM701 617q-28 0 -45.5 17.5t-17.5 50.5t17.5 50.5t45.5 17.5q29 0 46 -18t17 -50q0 -33 -17 -50.5t-46 -17.5zM872 617q-29 0 -46 18t-17 50t17 50t46 18q30 0 46.5 -18.5t16.5 -49.5t-17 -49.5t-46 -18.5zM634 0
q-43 0 -75.5 9.5t-57 29.5t-44.5 50q-40 -10 -73 -20t-58 -19.5t-43 -18.5q-55 -28 -82.5 -63.5t-27.5 -80.5q0 -33 15 -56t43.5 -35.5t66.5 -12.5q31 0 67.5 5t79.5 14l15 -96q-49 -15 -98.5 -22.5t-95.5 -7.5q-66 0 -116 24.5t-77.5 70.5t-27.5 108q0 46 17.5 85.5
t51.5 71.5q27 28 66 53t96 47.5t138 45.5q-7 19 -13 40t-11 44q-9 44 -27.5 73t-45.5 43t-65 14q-33 0 -74.5 -12.5t-82.5 -35.5l-47 97q44 25 105.5 41t119.5 16q66 0 113 -22.5t76.5 -68t42.5 -116.5q6 -34 14 -63.5t19 -50.5q17 -37 41 -56t55 -19h6q5 0 5 -4v-97
q0 -5 -5 -5h-6z" />
    <glyph glyph-name="uniFC0D" unicode="&#xfc0d;" horiz-adv-x="971" arabic-form="isolated" 
d="M630 0q-5 0 -5 5v97q0 4 5 4h127v386h129v-492h-256zM701 617q-28 0 -45.5 17.5t-17.5 50.5t17.5 50.5t45.5 17.5q29 0 46 -18t17 -50q0 -33 -17 -50.5t-46 -17.5zM872 617q-29 0 -46 18t-17 50t17 50t46 18q30 0 46.5 -18.5t16.5 -49.5t-17 -49.5t-46 -18.5zM634 0
q-43 0 -75.5 9.5t-57 29.5t-44.5 50q-40 -10 -73 -20t-58 -19.5t-43 -18.5q-55 -28 -82.5 -63.5t-27.5 -80.5q0 -33 15 -56t43.5 -35.5t66.5 -12.5q31 0 67.5 5t79.5 14l15 -96q-49 -15 -98.5 -22.5t-95.5 -7.5q-66 0 -116 24.5t-77.5 70.5t-27.5 108q0 46 17.5 85.5
t51.5 71.5q27 28 66 53t96 47.5t138 45.5q-7 19 -13 40t-11 44q-9 44 -27.5 73t-45.5 43t-65 14q-33 0 -74.5 -12.5t-82.5 -35.5l-47 97q44 25 105.5 41t119.5 16q66 0 113 -22.5t76.5 -68t42.5 -116.5q6 -34 14 -63.5t19 -50.5q17 -37 41 -56t55 -19h6q5 0 5 -4v-97
q0 -5 -5 -5h-6zM264 614q-30 0 -47 18t-17 50t17 50t47 18q29 0 45.5 -18.5t16.5 -49.5t-16.5 -49.5t-45.5 -18.5z" />
    <glyph glyph-name="uniFC0E" unicode="&#xfc0e;" horiz-adv-x="1058" arabic-form="isolated" 
d="M717 0q-5 0 -5 5v97q0 4 5 4h127v386h129v-492h-256zM788 617q-28 0 -45.5 17.5t-17.5 50.5t17.5 50.5t45.5 17.5q29 0 46 -18t17 -50q0 -33 -17 -50.5t-46 -17.5zM959 617q-29 0 -46 18t-17 50t17 50t46 18q30 0 46.5 -18.5t16.5 -49.5t-17 -49.5t-46 -18.5zM270 0
q-42 0 -60 -18t-18 -58v-244h-127v282q0 43 15 75.5t43.5 50t68.5 17.5h3q-15 37 -22.5 75t-7.5 75q0 44 13 91.5t33 81.5q42 28 94.5 44t98.5 16q33 0 63 -7t56 -21q53 -29 82.5 -82t29.5 -121q0 -28 -5 -54.5t-15 -52.5q19 -24 44 -34t63 -10h5q5 0 5 -4v-97q0 -5 -5 -5
h-5q-53 0 -91.5 15t-73.5 51q-36 -33 -83 -49.5t-97 -16.5h-107zM287 247q0 -32 6.5 -67t21.5 -74h49q42 0 73.5 19t49.5 53.5t18 79.5q0 57 -29 91t-74 34q-25 0 -50.5 -8.5t-50.5 -24.5q-8 -24 -11 -49.5t-3 -53.5z" />
    <glyph glyph-name="uniFC0F" unicode="&#xfc0f;" horiz-adv-x="1328" arabic-form="isolated" 
d="M986 0q-5 0 -5 5v97q0 4 5 4h127v386h129v-492h-256zM1057 617q-28 0 -45.5 17.5t-17.5 50.5t17.5 50.5t45.5 17.5q29 0 46 -18t17 -50q0 -33 -17 -50.5t-46 -17.5zM1228 617q-29 0 -46 18t-17 50t17 50t46 18q30 0 46.5 -18.5t16.5 -49.5t-17 -49.5t-46 -18.5zM266 -240
q-61 0 -106.5 30t-70 82.5t-24.5 119.5q0 50 8 96t25 93h116q-14 -41 -18.5 -79.5t-4.5 -92.5q0 -41 16 -73.5t44 -51t63 -18.5h177q43 0 76 6.5t52.5 20.5t19.5 38q0 19 -17 32t-53 23q-54 14 -88 32.5t-50 46t-16 67.5q0 27 9.5 55t27.5 56q25 37 60 67t73.5 47t74.5 17
q17 0 32 -3t28 -9q31 -15 58.5 -45.5t67.5 -89.5q26 -40 46.5 -64t36.5 -36q14 -10 29.5 -15.5t32.5 -5.5h5q5 0 5 -4v-97q0 -5 -5 -5h-5q-33 0 -61 7t-53 24t-53 45q-5 5 -18 22.5t-33 45.5q-23 33 -41.5 55.5t-32.5 33.5q-13 12 -26.5 17.5t-25.5 5.5q-16 0 -35 -10.5
t-36 -27.5t-28 -35t-11 -33q0 -13 8.5 -24t25 -20t39.5 -16q34 -10 58 -20t40 -19q30 -18 45.5 -44t15.5 -60q0 -92 -69.5 -139.5t-207.5 -47.5h-226z" />
    <glyph glyph-name="uniFC10" unicode="&#xfc10;" horiz-adv-x="1328" arabic-form="isolated" 
d="M986 0q-5 0 -5 5v97q0 4 5 4h127v386h129v-492h-256zM1057 617q-28 0 -45.5 17.5t-17.5 50.5t17.5 50.5t45.5 17.5q29 0 46 -18t17 -50q0 -33 -17 -50.5t-46 -17.5zM1228 617q-29 0 -46 18t-17 50t17 50t46 18q30 0 46.5 -18.5t16.5 -49.5t-17 -49.5t-46 -18.5zM266 -240
q-61 0 -106.5 30t-70 82.5t-24.5 119.5q0 50 8 96t25 93h116q-14 -41 -18.5 -79.5t-4.5 -92.5q0 -41 16 -73.5t44 -51t63 -18.5h177q43 0 76 6.5t52.5 20.5t19.5 38q0 19 -17 32t-53 23q-54 14 -88 32.5t-50 46t-16 67.5q0 27 9.5 55t27.5 56q25 37 60 67t73.5 47t74.5 17
q17 0 32 -3t28 -9q31 -15 58.5 -45.5t67.5 -89.5q26 -40 46.5 -64t36.5 -36q14 -10 29.5 -15.5t32.5 -5.5h5q5 0 5 -4v-97q0 -5 -5 -5h-5q-33 0 -61 7t-53 24t-53 45q-5 5 -18 22.5t-33 45.5q-23 33 -41.5 55.5t-32.5 33.5q-13 12 -26.5 17.5t-25.5 5.5q-16 0 -35 -10.5
t-36 -27.5t-28 -35t-11 -33q0 -13 8.5 -24t25 -20t39.5 -16q34 -10 58 -20t40 -19q30 -18 45.5 -44t15.5 -60q0 -92 -69.5 -139.5t-207.5 -47.5h-226zM307 -461q-28 0 -45.5 17.5t-17.5 50.5q0 32 17.5 50t45.5 18q30 0 46.5 -18t16.5 -50q0 -33 -17 -50.5t-46 -17.5z
M478 -461q-29 0 -46 18t-17 50q0 31 17 49.5t46 18.5q30 0 46.5 -18.5t16.5 -49.5t-17 -49.5t-46 -18.5z" />
    <glyph glyph-name="uniFC11" unicode="&#xfc11;" horiz-adv-x="971" arabic-form="isolated" 
d="M630 0q-5 0 -5 5v97q0 4 5 4h127v386h129v-492h-256zM788 758q-24 0 -40 14.5t-16 44.5q0 31 16 45t40 14t39.5 -15t15.5 -44q0 -28 -15.5 -43.5t-39.5 -15.5zM702 606q-28 0 -45.5 17.5t-17.5 50.5t17.5 50.5t45.5 17.5q30 0 46.5 -18.5t16.5 -49.5t-17 -49.5t-46 -18.5
zM873 606q-29 0 -46 18t-17 50t16.5 50t46.5 18q29 0 46 -18.5t17 -49.5t-17 -49.5t-46 -18.5zM266 -324q-66 0 -116 24.5t-77.5 70.5t-27.5 108q0 46 17.5 85.5t51.5 71.5q27 28 66 53t96 47.5t138 45.5q-7 19 -13 40t-11 44q-9 44 -27.5 73t-45.5 43t-65 14
q-33 0 -74.5 -12.5t-82.5 -35.5l-47 97q30 17 67.5 30t78.5 20t79 7q66 0 113 -22t76.5 -66t40.5 -111q7 -42 17 -74.5t21 -54.5q17 -33 40 -50.5t53 -17.5h6q5 0 5 -4v-97q0 -5 -5 -5h-6q-43 0 -75.5 9.5t-57 29.5t-44.5 50q-60 -16 -104 -30.5t-70 -27.5
q-55 -28 -82.5 -63.5t-27.5 -80.5q0 -49 32 -76.5t88 -27.5zM470 -265q-30 0 -47 18t-17 50t17 50t47 18q29 0 45.5 -18.5t16.5 -49.5t-16.5 -49.5t-45.5 -18.5z" />
    <glyph glyph-name="uniFC12" unicode="&#xfc12;" horiz-adv-x="1058" arabic-form="isolated" 
d="M717 0q-5 0 -5 5v97q0 4 5 4h127v386h129v-492h-256zM875 758q-24 0 -40 14.5t-16 44.5q0 31 16 45t40 14t39.5 -15t15.5 -44q0 -28 -15.5 -43.5t-39.5 -15.5zM789 606q-28 0 -45.5 17.5t-17.5 50.5t17.5 50.5t45.5 17.5q30 0 46.5 -18.5t16.5 -49.5t-17 -49.5t-46 -18.5
zM960 606q-29 0 -46 18t-17 50t16.5 50t46.5 18q29 0 46 -18.5t17 -49.5t-17 -49.5t-46 -18.5zM270 0q-42 0 -60 -18t-18 -58v-244h-127v282q0 43 15 75.5t43.5 50t68.5 17.5h3q-15 37 -22.5 75t-7.5 75q0 44 13 91.5t33 81.5q42 28 94.5 44t98.5 16q33 0 63 -7t56 -21
q53 -29 82.5 -82t29.5 -121q0 -28 -5 -54.5t-15 -52.5q19 -24 44 -34t63 -10h5q5 0 5 -4v-97q0 -5 -5 -5h-5q-53 0 -91.5 15t-73.5 51q-36 -33 -83 -49.5t-97 -16.5h-107zM287 247q0 -32 6.5 -67t21.5 -74h49q42 0 73.5 19t49.5 53.5t18 79.5q0 57 -29 91t-74 34
q-25 0 -50.5 -8.5t-50.5 -24.5q-8 -24 -11 -49.5t-3 -53.5z" />
    <glyph glyph-name="uniFC13" unicode="&#xfc13;" horiz-adv-x="1328" arabic-form="isolated" 
d="M986 0q-5 0 -5 5v97q0 4 5 4h127v386h129v-492h-256zM1144 758q-24 0 -40 14.5t-16 44.5q0 31 16 45t40 14t39.5 -15t15.5 -44q0 -28 -15.5 -43.5t-39.5 -15.5zM1058 606q-28 0 -45.5 17.5t-17.5 50.5t17.5 50.5t45.5 17.5q30 0 46.5 -18.5t16.5 -49.5t-17 -49.5
t-46 -18.5zM1229 606q-29 0 -46 18t-17 50t16.5 50t46.5 18q29 0 46 -18.5t17 -49.5t-17 -49.5t-46 -18.5zM266 -240q-61 0 -106.5 30t-70 82.5t-24.5 119.5q0 50 8 96t25 93h116q-14 -41 -18.5 -79.5t-4.5 -92.5q0 -41 16 -73.5t44 -51t63 -18.5h177q43 0 76 6.5t52.5 20.5
t19.5 38q0 19 -17 32t-53 23q-54 14 -88 32.5t-50 46t-16 67.5q0 27 9.5 55t27.5 56q25 37 60 67t73.5 47t74.5 17q17 0 32 -3t28 -9q31 -15 58.5 -45.5t67.5 -89.5q26 -40 46.5 -64t36.5 -36q14 -10 29.5 -15.5t32.5 -5.5h5q5 0 5 -4v-97q0 -5 -5 -5h-5q-33 0 -61 7t-53 24
t-53 45q-5 5 -18 22.5t-33 45.5q-23 33 -41.5 55.5t-32.5 33.5q-13 12 -26.5 17.5t-25.5 5.5q-16 0 -35 -10.5t-36 -27.5t-28 -35t-11 -33q0 -13 8.5 -24t25 -20t39.5 -16q34 -10 58 -20t40 -19q30 -18 45.5 -44t15.5 -60q0 -92 -69.5 -139.5t-207.5 -47.5h-226z" />
    <glyph glyph-name="uniFC14" unicode="&#xfc14;" horiz-adv-x="1328" arabic-form="isolated" 
d="M986 0q-5 0 -5 5v97q0 4 5 4h127v386h129v-492h-256zM1144 758q-24 0 -40 14.5t-16 44.5q0 31 16 45t40 14t39.5 -15t15.5 -44q0 -28 -15.5 -43.5t-39.5 -15.5zM1058 606q-28 0 -45.5 17.5t-17.5 50.5t17.5 50.5t45.5 17.5q30 0 46.5 -18.5t16.5 -49.5t-17 -49.5
t-46 -18.5zM1229 606q-29 0 -46 18t-17 50t16.5 50t46.5 18q29 0 46 -18.5t17 -49.5t-17 -49.5t-46 -18.5zM266 -240q-61 0 -106.5 30t-70 82.5t-24.5 119.5q0 50 8 96t25 93h116q-14 -41 -18.5 -79.5t-4.5 -92.5q0 -41 16 -73.5t44 -51t63 -18.5h177q43 0 76 6.5t52.5 20.5
t19.5 38q0 19 -17 32t-53 23q-54 14 -88 32.5t-50 46t-16 67.5q0 27 9.5 55t27.5 56q25 37 60 67t73.5 47t74.5 17q17 0 32 -3t28 -9q31 -15 58.5 -45.5t67.5 -89.5q26 -40 46.5 -64t36.5 -36q14 -10 29.5 -15.5t32.5 -5.5h5q5 0 5 -4v-97q0 -5 -5 -5h-5q-33 0 -61 7t-53 24
t-53 45q-5 5 -18 22.5t-33 45.5q-23 33 -41.5 55.5t-32.5 33.5q-13 12 -26.5 17.5t-25.5 5.5q-16 0 -35 -10.5t-36 -27.5t-28 -35t-11 -33q0 -13 8.5 -24t25 -20t39.5 -16q34 -10 58 -20t40 -19q30 -18 45.5 -44t15.5 -60q0 -92 -69.5 -139.5t-207.5 -47.5h-226zM307 -461
q-28 0 -45.5 17.5t-17.5 50.5q0 32 17.5 50t45.5 18q30 0 46.5 -18t16.5 -50q0 -33 -17 -50.5t-46 -17.5zM478 -461q-29 0 -46 18t-17 50q0 31 17 49.5t46 18.5q30 0 46.5 -18.5t16.5 -49.5t-17 -49.5t-46 -18.5z" />
    <glyph glyph-name="uniFC15" unicode="&#xfc15;" horiz-adv-x="1237" arabic-form="isolated" 
d="M630 0q-5 0 -5 5v97q0 5 5 5h412q-19 17 -34.5 56.5t-26.5 98.5q-10 50 -24.5 79t-38 42t-59.5 13q-35 0 -68 -9.5t-69 -29.5l-42 96q44 26 93.5 37.5t106.5 11.5q28 0 52 -3.5t44 -12.5q52 -19 81.5 -62t42.5 -121q10 -53 20.5 -92t23.5 -65t28 -41v-105h-542zM878 -239
q-29 0 -46 18t-17 50q0 31 16.5 49.5t46.5 18.5t46.5 -18.5t16.5 -49.5t-17 -49.5t-46 -18.5zM634 0q-43 0 -75.5 9.5t-57 29.5t-44.5 50q-40 -10 -73 -20t-58 -19.5t-43 -18.5q-55 -28 -82.5 -63.5t-27.5 -80.5q0 -33 15 -56t43.5 -35.5t66.5 -12.5q31 0 67.5 5t79.5 14
l15 -96q-49 -15 -98.5 -22.5t-95.5 -7.5q-66 0 -116 24.5t-77.5 70.5t-27.5 108q0 46 17.5 85.5t51.5 71.5q27 28 66 53t96 47.5t138 45.5q-7 19 -13 40t-11 44q-9 44 -27.5 73t-45.5 43t-65 14q-33 0 -74.5 -12.5t-82.5 -35.5l-47 97q44 25 105.5 41t119.5 16
q66 0 113 -22.5t76.5 -68t42.5 -116.5q6 -34 14 -63.5t19 -50.5q17 -37 41 -56t55 -19h6q5 0 5 -4v-97q0 -5 -5 -5h-6z" />
    <glyph glyph-name="uniFC16" unicode="&#xfc16;" horiz-adv-x="1324" arabic-form="isolated" 
d="M717 0q-5 0 -5 5v97q0 5 5 5h412q-19 17 -34.5 56.5t-26.5 98.5q-10 50 -24.5 79t-38 42t-59.5 13q-35 0 -68 -9.5t-69 -29.5l-42 96q44 26 93.5 37.5t106.5 11.5q28 0 52 -3.5t44 -12.5q52 -19 81.5 -62t42.5 -121q10 -53 20.5 -92t23.5 -65t28 -41v-105h-542zM965 -239
q-29 0 -46 18t-17 50q0 31 16.5 49.5t46.5 18.5t46.5 -18.5t16.5 -49.5t-17 -49.5t-46 -18.5zM270 0q-42 0 -60 -18t-18 -58v-244h-127v282q0 43 15 75.5t43.5 50t68.5 17.5h3q-15 37 -22.5 75t-7.5 75q0 44 13 91.5t33 81.5q42 28 94.5 44t98.5 16q33 0 63 -7t56 -21
q53 -29 82.5 -82t29.5 -121q0 -28 -5 -54.5t-15 -52.5q19 -24 44 -34t63 -10h5q5 0 5 -4v-97q0 -5 -5 -5h-5q-53 0 -91.5 15t-73.5 51q-36 -33 -83 -49.5t-97 -16.5h-107zM287 247q0 -32 6.5 -67t21.5 -74h49q42 0 73.5 19t49.5 53.5t18 79.5q0 57 -29 91t-74 34
q-25 0 -50.5 -8.5t-50.5 -24.5q-8 -24 -11 -49.5t-3 -53.5z" />
    <glyph glyph-name="uniFC17" unicode="&#xfc17;" horiz-adv-x="1237" arabic-form="isolated" 
d="M630 0q-5 0 -5 5v97q0 5 5 5h412q-19 17 -34.5 56.5t-26.5 98.5q-10 50 -24.5 79t-38 42t-59.5 13q-35 0 -68 -9.5t-69 -29.5l-42 96q44 26 93.5 37.5t106.5 11.5q28 0 52 -3.5t44 -12.5q52 -19 81.5 -62t42.5 -121q10 -53 20.5 -92t23.5 -65t28 -41v-105h-542zM266 -324
q-66 0 -116 24.5t-77.5 70.5t-27.5 108q0 46 17.5 85.5t51.5 71.5q27 28 66 53t96 47.5t138 45.5q-7 19 -13 40t-11 44q-9 44 -27.5 73t-45.5 43t-65 14q-33 0 -74.5 -12.5t-82.5 -35.5l-47 97q30 17 67.5 30t78.5 20t79 7q66 0 113 -22t76.5 -66t40.5 -111q7 -42 17 -74.5
t21 -54.5q17 -33 40 -50.5t53 -17.5h6q5 0 5 -4v-97q0 -5 -5 -5h-6q-43 0 -75.5 9.5t-57 29.5t-44.5 50q-60 -16 -104 -30.5t-70 -27.5q-55 -28 -82.5 -63.5t-27.5 -80.5q0 -49 32 -76.5t88 -27.5zM470 -265q-30 0 -47 18t-17 50t17 50t47 18q29 0 45.5 -18.5t16.5 -49.5
t-16.5 -49.5t-45.5 -18.5z" />
    <glyph glyph-name="uniFC18" unicode="&#xfc18;" horiz-adv-x="1324" arabic-form="isolated" 
d="M717 0q-5 0 -5 5v97q0 5 5 5h412q-19 17 -34.5 56.5t-26.5 98.5q-10 50 -24.5 79t-38 42t-59.5 13q-35 0 -68 -9.5t-69 -29.5l-42 96q44 26 93.5 37.5t106.5 11.5q28 0 52 -3.5t44 -12.5q52 -19 81.5 -62t42.5 -121q10 -53 20.5 -92t23.5 -65t28 -41v-105h-542zM270 0
q-42 0 -60 -18t-18 -58v-244h-127v282q0 43 15 75.5t43.5 50t68.5 17.5h3q-15 37 -22.5 75t-7.5 75q0 44 13 91.5t33 81.5q42 28 94.5 44t98.5 16q33 0 63 -7t56 -21q53 -29 82.5 -82t29.5 -121q0 -28 -5 -54.5t-15 -52.5q19 -24 44 -34t63 -10h5q5 0 5 -4v-97q0 -5 -5 -5
h-5q-53 0 -91.5 15t-73.5 51q-36 -33 -83 -49.5t-97 -16.5h-107zM287 247q0 -32 6.5 -67t21.5 -74h49q42 0 73.5 19t49.5 53.5t18 79.5q0 57 -29 91t-74 34q-25 0 -50.5 -8.5t-50.5 -24.5q-8 -24 -11 -49.5t-3 -53.5z" />
    <glyph glyph-name="uniFC19" unicode="&#xfc19;" horiz-adv-x="1237" arabic-form="isolated" 
d="M630 0q-5 0 -5 5v97q0 5 5 5h412q-19 17 -34.5 56.5t-26.5 98.5q-10 50 -24.5 79t-38 42t-59.5 13q-35 0 -68 -9.5t-69 -29.5l-42 96q44 26 93.5 37.5t106.5 11.5q28 0 52 -3.5t44 -12.5q52 -19 81.5 -62t42.5 -121q10 -53 20.5 -92t23.5 -65t28 -41v-105h-542zM842 618
q-30 0 -47 18t-17 50t17 50t47 18q29 0 45.5 -18.5t16.5 -49.5t-16.5 -49.5t-45.5 -18.5zM266 -324q-66 0 -116 24.5t-77.5 70.5t-27.5 108q0 46 17.5 85.5t51.5 71.5q27 28 66 53t96 47.5t138 45.5q-7 19 -13 40t-11 44q-9 44 -27.5 73t-45.5 43t-65 14q-33 0 -74.5 -12.5
t-82.5 -35.5l-47 97q30 17 67.5 30t78.5 20t79 7q66 0 113 -22t76.5 -66t40.5 -111q7 -42 17 -74.5t21 -54.5q17 -33 40 -50.5t53 -17.5h6q5 0 5 -4v-97q0 -5 -5 -5h-6q-43 0 -75.5 9.5t-57 29.5t-44.5 50q-60 -16 -104 -30.5t-70 -27.5q-55 -28 -82.5 -63.5t-27.5 -80.5
q0 -49 32 -76.5t88 -27.5zM470 -265q-30 0 -47 18t-17 50t17 50t47 18q29 0 45.5 -18.5t16.5 -49.5t-16.5 -49.5t-45.5 -18.5z" />
    <glyph glyph-name="uniFC1A" unicode="&#xfc1a;" horiz-adv-x="1237" arabic-form="isolated" 
d="M630 0q-5 0 -5 5v97q0 5 5 5h412q-19 17 -34.5 56.5t-26.5 98.5q-10 50 -24.5 79t-38 42t-59.5 13q-35 0 -68 -9.5t-69 -29.5l-42 96q44 26 93.5 37.5t106.5 11.5q28 0 52 -3.5t44 -12.5q52 -19 81.5 -62t42.5 -121q10 -53 20.5 -92t23.5 -65t28 -41v-105h-542zM842 618
q-30 0 -47 18t-17 50t17 50t47 18q29 0 45.5 -18.5t16.5 -49.5t-16.5 -49.5t-45.5 -18.5zM634 0q-43 0 -75.5 9.5t-57 29.5t-44.5 50q-40 -10 -73 -20t-58 -19.5t-43 -18.5q-55 -28 -82.5 -63.5t-27.5 -80.5q0 -33 15 -56t43.5 -35.5t66.5 -12.5q31 0 67.5 5t79.5 14l15 -96
q-49 -15 -98.5 -22.5t-95.5 -7.5q-66 0 -116 24.5t-77.5 70.5t-27.5 108q0 46 17.5 85.5t51.5 71.5q27 28 66 53t96 47.5t138 45.5q-7 19 -13 40t-11 44q-9 44 -27.5 73t-45.5 43t-65 14q-33 0 -74.5 -12.5t-82.5 -35.5l-47 97q44 25 105.5 41t119.5 16q66 0 113 -22.5
t76.5 -68t42.5 -116.5q6 -34 14 -63.5t19 -50.5q17 -37 41 -56t55 -19h6q5 0 5 -4v-97q0 -5 -5 -5h-6z" />
    <glyph glyph-name="uniFC1B" unicode="&#xfc1b;" horiz-adv-x="1324" arabic-form="isolated" 
d="M717 0q-5 0 -5 5v97q0 5 5 5h412q-19 17 -34.5 56.5t-26.5 98.5q-10 50 -24.5 79t-38 42t-59.5 13q-35 0 -68 -9.5t-69 -29.5l-42 96q44 26 93.5 37.5t106.5 11.5q28 0 52 -3.5t44 -12.5q52 -19 81.5 -62t42.5 -121q10 -53 20.5 -92t23.5 -65t28 -41v-105h-542zM929 618
q-30 0 -47 18t-17 50t17 50t47 18q29 0 45.5 -18.5t16.5 -49.5t-16.5 -49.5t-45.5 -18.5zM270 0q-42 0 -60 -18t-18 -58v-244h-127v282q0 43 15 75.5t43.5 50t68.5 17.5h3q-15 37 -22.5 75t-7.5 75q0 44 13 91.5t33 81.5q42 28 94.5 44t98.5 16q33 0 63 -7t56 -21
q53 -29 82.5 -82t29.5 -121q0 -28 -5 -54.5t-15 -52.5q19 -24 44 -34t63 -10h5q5 0 5 -4v-97q0 -5 -5 -5h-5q-53 0 -91.5 15t-73.5 51q-36 -33 -83 -49.5t-97 -16.5h-107zM287 247q0 -32 6.5 -67t21.5 -74h49q42 0 73.5 19t49.5 53.5t18 79.5q0 57 -29 91t-74 34
q-25 0 -50.5 -8.5t-50.5 -24.5q-8 -24 -11 -49.5t-3 -53.5z" />
    <glyph glyph-name="uniFC1C" unicode="&#xfc1c;" horiz-adv-x="1597" arabic-form="isolated" 
d="M1325 0q-44 0 -82.5 17.5t-76.5 55.5q-26 -35 -65.5 -54t-94.5 -19h-376q-5 0 -5 5v97q0 4 5 4h131v308h128v-308h92q50 0 74 29t24 87v192h128v-202q0 -10 -0.5 -20.5t-1.5 -20.5q25 -36 50.5 -50.5t67.5 -14.5h61v386h128v-492h-187zM266 -324q-66 0 -116 24.5
t-77.5 70.5t-27.5 108q0 46 17.5 85.5t51.5 71.5q27 28 66 53t96 47.5t138 45.5q-7 19 -13 40t-11 44q-9 44 -27.5 73t-45.5 43t-65 14q-33 0 -74.5 -12.5t-82.5 -35.5l-47 97q30 17 67.5 30t78.5 20t79 7q66 0 113 -22t76.5 -66t40.5 -111q7 -42 17 -74.5t21 -54.5
q17 -33 40 -50.5t53 -17.5h6q5 0 5 -4v-97q0 -5 -5 -5h-6q-43 0 -75.5 9.5t-57 29.5t-44.5 50q-60 -16 -104 -30.5t-70 -27.5q-55 -28 -82.5 -63.5t-27.5 -80.5q0 -49 32 -76.5t88 -27.5zM470 -265q-30 0 -47 18t-17 50t17 50t47 18q29 0 45.5 -18.5t16.5 -49.5t-16.5 -49.5
t-45.5 -18.5z" />
    <glyph glyph-name="uniFC1D" unicode="&#xfc1d;" horiz-adv-x="1597" arabic-form="isolated" 
d="M1325 0q-44 0 -82.5 17.5t-76.5 55.5q-26 -35 -65.5 -54t-94.5 -19h-376q-5 0 -5 5v97q0 4 5 4h131v308h128v-308h92q50 0 74 29t24 87v192h128v-202q0 -10 -0.5 -20.5t-1.5 -20.5q25 -36 50.5 -50.5t67.5 -14.5h61v386h128v-492h-187zM634 0q-43 0 -75.5 9.5t-57 29.5
t-44.5 50q-40 -10 -73 -20t-58 -19.5t-43 -18.5q-55 -28 -82.5 -63.5t-27.5 -80.5q0 -33 15 -56t43.5 -35.5t66.5 -12.5q31 0 67.5 5t79.5 14l15 -96q-49 -15 -98.5 -22.5t-95.5 -7.5q-66 0 -116 24.5t-77.5 70.5t-27.5 108q0 46 17.5 85.5t51.5 71.5q27 28 66 53t96 47.5
t138 45.5q-7 19 -13 40t-11 44q-9 44 -27.5 73t-45.5 43t-65 14q-33 0 -74.5 -12.5t-82.5 -35.5l-47 97q44 25 105.5 41t119.5 16q66 0 113 -22.5t76.5 -68t42.5 -116.5q6 -34 14 -63.5t19 -50.5q17 -37 41 -56t55 -19h6q5 0 5 -4v-97q0 -5 -5 -5h-6z" />
    <glyph glyph-name="uniFC1E" unicode="&#xfc1e;" horiz-adv-x="1597" arabic-form="isolated" 
d="M1325 0q-44 0 -82.5 17.5t-76.5 55.5q-26 -35 -65.5 -54t-94.5 -19h-376q-5 0 -5 5v97q0 4 5 4h131v308h128v-308h92q50 0 74 29t24 87v192h128v-202q0 -10 -0.5 -20.5t-1.5 -20.5q25 -36 50.5 -50.5t67.5 -14.5h61v386h128v-492h-187zM634 0q-43 0 -75.5 9.5t-57 29.5
t-44.5 50q-40 -10 -73 -20t-58 -19.5t-43 -18.5q-55 -28 -82.5 -63.5t-27.5 -80.5q0 -33 15 -56t43.5 -35.5t66.5 -12.5q31 0 67.5 5t79.5 14l15 -96q-49 -15 -98.5 -22.5t-95.5 -7.5q-66 0 -116 24.5t-77.5 70.5t-27.5 108q0 46 17.5 85.5t51.5 71.5q27 28 66 53t96 47.5
t138 45.5q-7 19 -13 40t-11 44q-9 44 -27.5 73t-45.5 43t-65 14q-33 0 -74.5 -12.5t-82.5 -35.5l-47 97q44 25 105.5 41t119.5 16q66 0 113 -22.5t76.5 -68t42.5 -116.5q6 -34 14 -63.5t19 -50.5q17 -37 41 -56t55 -19h6q5 0 5 -4v-97q0 -5 -5 -5h-6zM264 614q-30 0 -47 18
t-17 50t17 50t47 18q29 0 45.5 -18.5t16.5 -49.5t-16.5 -49.5t-45.5 -18.5z" />
    <glyph glyph-name="uniFC1F" unicode="&#xfc1f;" horiz-adv-x="1684" arabic-form="isolated" 
d="M1412 0q-44 0 -82.5 17.5t-76.5 55.5q-26 -35 -65.5 -54t-94.5 -19h-376q-5 0 -5 5v97q0 4 5 4h131v308h128v-308h92q50 0 74 29t24 87v192h128v-202q0 -10 -0.5 -20.5t-1.5 -20.5q25 -36 50.5 -50.5t67.5 -14.5h61v386h128v-492h-187zM270 0q-42 0 -60 -18t-18 -58v-244
h-127v282q0 43 15 75.5t43.5 50t68.5 17.5h3q-15 37 -22.5 75t-7.5 75q0 44 13 91.5t33 81.5q42 28 94.5 44t98.5 16q33 0 63 -7t56 -21q53 -29 82.5 -82t29.5 -121q0 -28 -5 -54.5t-15 -52.5q19 -24 44 -34t63 -10h5q5 0 5 -4v-97q0 -5 -5 -5h-5q-53 0 -91.5 15t-73.5 51
q-36 -33 -83 -49.5t-97 -16.5h-107zM287 247q0 -32 6.5 -67t21.5 -74h49q42 0 73.5 19t49.5 53.5t18 79.5q0 57 -29 91t-74 34q-25 0 -50.5 -8.5t-50.5 -24.5q-8 -24 -11 -49.5t-3 -53.5z" />
    <glyph glyph-name="uniFC20" unicode="&#xfc20;" horiz-adv-x="1466" arabic-form="isolated" 
d="M630 0q-5 0 -5 5v97q0 4 5 4h119v376h128v-179q31 67 72 111t91.5 66t109.5 22q120 0 181 -64t61 -198v-240h-762zM1264 106v135q0 79 -36 116.5t-109 37.5q-47 0 -90 -23t-80.5 -69.5t-71.5 -117.5v-79h387zM634 0q-43 0 -75.5 9.5t-57 29.5t-44.5 50q-40 -10 -73 -20
t-58 -19.5t-43 -18.5q-55 -28 -82.5 -63.5t-27.5 -80.5q0 -33 15 -56t43.5 -35.5t66.5 -12.5q31 0 67.5 5t79.5 14l15 -96q-49 -15 -98.5 -22.5t-95.5 -7.5q-66 0 -116 24.5t-77.5 70.5t-27.5 108q0 46 17.5 85.5t51.5 71.5q27 28 66 53t96 47.5t138 45.5q-7 19 -13 40
t-11 44q-9 44 -27.5 73t-45.5 43t-65 14q-33 0 -74.5 -12.5t-82.5 -35.5l-47 97q44 25 105.5 41t119.5 16q66 0 113 -22.5t76.5 -68t42.5 -116.5q6 -34 14 -63.5t19 -50.5q17 -37 41 -56t55 -19h6q5 0 5 -4v-97q0 -5 -5 -5h-6z" />
    <glyph glyph-name="uniFC21" unicode="&#xfc21;" horiz-adv-x="1553" arabic-form="isolated" 
d="M717 0q-5 0 -5 5v97q0 4 5 4h119v376h128v-179q31 67 72 111t91.5 66t109.5 22q120 0 181 -64t61 -198v-240h-762zM1351 106v135q0 79 -36 116.5t-109 37.5q-47 0 -90 -23t-80.5 -69.5t-71.5 -117.5v-79h387zM270 0q-42 0 -60 -18t-18 -58v-244h-127v282q0 43 15 75.5
t43.5 50t68.5 17.5h3q-15 37 -22.5 75t-7.5 75q0 44 13 91.5t33 81.5q42 28 94.5 44t98.5 16q33 0 63 -7t56 -21q53 -29 82.5 -82t29.5 -121q0 -28 -5 -54.5t-15 -52.5q19 -24 44 -34t63 -10h5q5 0 5 -4v-97q0 -5 -5 -5h-5q-53 0 -91.5 15t-73.5 51q-36 -33 -83 -49.5
t-97 -16.5h-107zM287 247q0 -32 6.5 -67t21.5 -74h49q42 0 73.5 19t49.5 53.5t18 79.5q0 57 -29 91t-74 34q-25 0 -50.5 -8.5t-50.5 -24.5q-8 -24 -11 -49.5t-3 -53.5z" />
    <glyph glyph-name="uniFC22" unicode="&#xfc22;" horiz-adv-x="1466" arabic-form="isolated" 
d="M630 0q-5 0 -5 5v97q0 4 5 4h119v376h128v-179q31 67 72 111t91.5 66t109.5 22q120 0 181 -64t61 -198v-240h-762zM1264 106v135q0 79 -36 116.5t-109 37.5q-47 0 -90 -23t-80.5 -69.5t-71.5 -117.5v-79h387zM1057 621q-30 0 -47 18t-17 50t17 50t47 18q29 0 45.5 -18.5
t16.5 -49.5t-16.5 -49.5t-45.5 -18.5zM266 -324q-66 0 -116 24.5t-77.5 70.5t-27.5 108q0 46 17.5 85.5t51.5 71.5q27 28 66 53t96 47.5t138 45.5q-7 19 -13 40t-11 44q-9 44 -27.5 73t-45.5 43t-65 14q-33 0 -74.5 -12.5t-82.5 -35.5l-47 97q30 17 67.5 30t78.5 20t79 7
q66 0 113 -22t76.5 -66t40.5 -111q7 -42 17 -74.5t21 -54.5q17 -33 40 -50.5t53 -17.5h6q5 0 5 -4v-97q0 -5 -5 -5h-6q-43 0 -75.5 9.5t-57 29.5t-44.5 50q-60 -16 -104 -30.5t-70 -27.5q-55 -28 -82.5 -63.5t-27.5 -80.5q0 -49 32 -76.5t88 -27.5zM470 -265q-30 0 -47 18
t-17 50t17 50t47 18q29 0 45.5 -18.5t16.5 -49.5t-16.5 -49.5t-45.5 -18.5z" />
    <glyph glyph-name="uniFC23" unicode="&#xfc23;" horiz-adv-x="1466" arabic-form="isolated" 
d="M630 0q-5 0 -5 5v97q0 4 5 4h119v376h128v-179q31 67 72 111t91.5 66t109.5 22q120 0 181 -64t61 -198v-240h-762zM1264 106v135q0 79 -36 116.5t-109 37.5q-47 0 -90 -23t-80.5 -69.5t-71.5 -117.5v-79h387zM1057 621q-30 0 -47 18t-17 50t17 50t47 18q29 0 45.5 -18.5
t16.5 -49.5t-16.5 -49.5t-45.5 -18.5zM634 0q-43 0 -75.5 9.5t-57 29.5t-44.5 50q-40 -10 -73 -20t-58 -19.5t-43 -18.5q-55 -28 -82.5 -63.5t-27.5 -80.5q0 -33 15 -56t43.5 -35.5t66.5 -12.5q31 0 67.5 5t79.5 14l15 -96q-49 -15 -98.5 -22.5t-95.5 -7.5q-66 0 -116 24.5
t-77.5 70.5t-27.5 108q0 46 17.5 85.5t51.5 71.5q27 28 66 53t96 47.5t138 45.5q-7 19 -13 40t-11 44q-9 44 -27.5 73t-45.5 43t-65 14q-33 0 -74.5 -12.5t-82.5 -35.5l-47 97q44 25 105.5 41t119.5 16q66 0 113 -22.5t76.5 -68t42.5 -116.5q6 -34 14 -63.5t19 -50.5
q17 -37 41 -56t55 -19h6q5 0 5 -4v-97q0 -5 -5 -5h-6z" />
    <glyph glyph-name="uniFC24" unicode="&#xfc24;" horiz-adv-x="1466" arabic-form="isolated" 
d="M630 0q-5 0 -5 5v97q0 4 5 4h119v376h128v-179q31 67 72 111t91.5 66t109.5 22q120 0 181 -64t61 -198v-240h-762zM1264 106v135q0 79 -36 116.5t-109 37.5q-47 0 -90 -23t-80.5 -69.5t-71.5 -117.5v-79h387zM1057 621q-30 0 -47 18t-17 50t17 50t47 18q29 0 45.5 -18.5
t16.5 -49.5t-16.5 -49.5t-45.5 -18.5zM634 0q-43 0 -75.5 9.5t-57 29.5t-44.5 50q-40 -10 -73 -20t-58 -19.5t-43 -18.5q-55 -28 -82.5 -63.5t-27.5 -80.5q0 -33 15 -56t43.5 -35.5t66.5 -12.5q31 0 67.5 5t79.5 14l15 -96q-49 -15 -98.5 -22.5t-95.5 -7.5q-66 0 -116 24.5
t-77.5 70.5t-27.5 108q0 46 17.5 85.5t51.5 71.5q27 28 66 53t96 47.5t138 45.5q-7 19 -13 40t-11 44q-9 44 -27.5 73t-45.5 43t-65 14q-33 0 -74.5 -12.5t-82.5 -35.5l-47 97q44 25 105.5 41t119.5 16q66 0 113 -22.5t76.5 -68t42.5 -116.5q6 -34 14 -63.5t19 -50.5
q17 -37 41 -56t55 -19h6q5 0 5 -4v-97q0 -5 -5 -5h-6zM264 614q-30 0 -47 18t-17 50t17 50t47 18q29 0 45.5 -18.5t16.5 -49.5t-16.5 -49.5t-45.5 -18.5z" />
    <glyph glyph-name="uniFC25" unicode="&#xfc25;" horiz-adv-x="1553" arabic-form="isolated" 
d="M717 0q-5 0 -5 5v97q0 4 5 4h119v376h128v-179q31 67 72 111t91.5 66t109.5 22q120 0 181 -64t61 -198v-240h-762zM1351 106v135q0 79 -36 116.5t-109 37.5q-47 0 -90 -23t-80.5 -69.5t-71.5 -117.5v-79h387zM1144 621q-30 0 -47 18t-17 50t17 50t47 18q29 0 45.5 -18.5
t16.5 -49.5t-16.5 -49.5t-45.5 -18.5zM270 0q-42 0 -60 -18t-18 -58v-244h-127v282q0 43 15 75.5t43.5 50t68.5 17.5h3q-15 37 -22.5 75t-7.5 75q0 44 13 91.5t33 81.5q42 28 94.5 44t98.5 16q33 0 63 -7t56 -21q53 -29 82.5 -82t29.5 -121q0 -28 -5 -54.5t-15 -52.5
q19 -24 44 -34t63 -10h5q5 0 5 -4v-97q0 -5 -5 -5h-5q-53 0 -91.5 15t-73.5 51q-36 -33 -83 -49.5t-97 -16.5h-107zM287 247q0 -32 6.5 -67t21.5 -74h49q42 0 73.5 19t49.5 53.5t18 79.5q0 57 -29 91t-74 34q-25 0 -50.5 -8.5t-50.5 -24.5q-8 -24 -11 -49.5t-3 -53.5z" />
    <glyph glyph-name="uniFC26" unicode="&#xfc26;" horiz-adv-x="1483" arabic-form="isolated" 
d="M630 0q-5 0 -5 5v97q0 4 5 4h139v654h128v-457q31 67 72 111t91.5 66t109.5 22q120 0 181 -64t61 -198v-240h-782zM1284 106v135q0 79 -36 116.5t-109 37.5q-47 0 -90 -23t-80.5 -69.5t-71.5 -117.5v-79h387zM634 0q-43 0 -75.5 9.5t-57 29.5t-44.5 50q-40 -10 -73 -20
t-58 -19.5t-43 -18.5q-55 -28 -82.5 -63.5t-27.5 -80.5q0 -33 15 -56t43.5 -35.5t66.5 -12.5q31 0 67.5 5t79.5 14l15 -96q-49 -15 -98.5 -22.5t-95.5 -7.5q-66 0 -116 24.5t-77.5 70.5t-27.5 108q0 46 17.5 85.5t51.5 71.5q27 28 66 53t96 47.5t138 45.5q-7 19 -13 40
t-11 44q-9 44 -27.5 73t-45.5 43t-65 14q-33 0 -74.5 -12.5t-82.5 -35.5l-47 97q44 25 105.5 41t119.5 16q66 0 113 -22.5t76.5 -68t42.5 -116.5q6 -34 14 -63.5t19 -50.5q17 -37 41 -56t55 -19h6q5 0 5 -4v-97q0 -5 -5 -5h-6z" />
    <glyph glyph-name="uniFC27" unicode="&#xfc27;" horiz-adv-x="1570" arabic-form="isolated" 
d="M717 0q-5 0 -5 5v97q0 4 5 4h139v654h128v-457q31 67 72 111t91.5 66t109.5 22q120 0 181 -64t61 -198v-240h-782zM1371 106v135q0 79 -36 116.5t-109 37.5q-47 0 -90 -23t-80.5 -69.5t-71.5 -117.5v-79h387zM270 0q-42 0 -60 -18t-18 -58v-244h-127v282q0 43 15 75.5
t43.5 50t68.5 17.5h3q-15 37 -22.5 75t-7.5 75q0 44 13 91.5t33 81.5q42 28 94.5 44t98.5 16q33 0 63 -7t56 -21q53 -29 82.5 -82t29.5 -121q0 -28 -5 -54.5t-15 -52.5q19 -24 44 -34t63 -10h5q5 0 5 -4v-97q0 -5 -5 -5h-5q-53 0 -91.5 15t-73.5 51q-36 -33 -83 -49.5
t-97 -16.5h-107zM287 247q0 -32 6.5 -67t21.5 -74h49q42 0 73.5 19t49.5 53.5t18 79.5q0 57 -29 91t-74 34q-25 0 -50.5 -8.5t-50.5 -24.5q-8 -24 -11 -49.5t-3 -53.5z" />
    <glyph glyph-name="uniFC28" unicode="&#xfc28;" horiz-adv-x="1570" arabic-form="isolated" 
d="M717 0q-5 0 -5 5v97q0 4 5 4h139v654h128v-457q31 67 72 111t91.5 66t109.5 22q120 0 181 -64t61 -198v-240h-782zM1371 106v135q0 79 -36 116.5t-109 37.5q-47 0 -90 -23t-80.5 -69.5t-71.5 -117.5v-79h387zM1241 639q-30 0 -47 18t-17 50t17 50t47 18q29 0 45.5 -18.5
t16.5 -49.5t-16.5 -49.5t-45.5 -18.5zM270 0q-42 0 -60 -18t-18 -58v-244h-127v282q0 43 15 75.5t43.5 50t68.5 17.5h3q-15 37 -22.5 75t-7.5 75q0 44 13 91.5t33 81.5q42 28 94.5 44t98.5 16q33 0 63 -7t56 -21q53 -29 82.5 -82t29.5 -121q0 -28 -5 -54.5t-15 -52.5
q19 -24 44 -34t63 -10h5q5 0 5 -4v-97q0 -5 -5 -5h-5q-53 0 -91.5 15t-73.5 51q-36 -33 -83 -49.5t-97 -16.5h-107zM287 247q0 -32 6.5 -67t21.5 -74h49q42 0 73.5 19t49.5 53.5t18 79.5q0 57 -29 91t-74 34q-25 0 -50.5 -8.5t-50.5 -24.5q-8 -24 -11 -49.5t-3 -53.5z" />
    <glyph glyph-name="uniFC29" unicode="&#xfc29;" horiz-adv-x="1184" arabic-form="isolated" 
d="M630 0q-5 0 -5 5v97q0 4 5 4h154q-24 14 -41 37.5t-27 53.5t-10 64q0 76 32.5 129.5t91.5 82.5t140 29q43 0 87.5 -9.5t70.5 -22.5l-37 -103q-36 16 -66 22.5t-60 6.5q-43 0 -73 -16.5t-45 -47t-15 -76.5q0 -44 15.5 -78t44 -53t66.5 -19h182v-106h-510zM266 -324
q-66 0 -116 24.5t-77.5 70.5t-27.5 108q0 46 17.5 85.5t51.5 71.5q27 28 66 53t96 47.5t138 45.5q-7 19 -13 40t-11 44q-9 44 -27.5 73t-45.5 43t-65 14q-33 0 -74.5 -12.5t-82.5 -35.5l-47 97q30 17 67.5 30t78.5 20t79 7q66 0 113 -22t76.5 -66t40.5 -111q7 -42 17 -74.5
t21 -54.5q17 -33 40 -50.5t53 -17.5h6q5 0 5 -4v-97q0 -5 -5 -5h-6q-43 0 -75.5 9.5t-57 29.5t-44.5 50q-60 -16 -104 -30.5t-70 -27.5q-55 -28 -82.5 -63.5t-27.5 -80.5q0 -49 32 -76.5t88 -27.5zM470 -265q-30 0 -47 18t-17 50t17 50t47 18q29 0 45.5 -18.5t16.5 -49.5
t-16.5 -49.5t-45.5 -18.5z" />
    <glyph glyph-name="uniFC2A" unicode="&#xfc2a;" horiz-adv-x="1271" arabic-form="isolated" 
d="M717 0q-5 0 -5 5v97q0 4 5 4h154q-24 14 -41 37.5t-27 53.5t-10 64q0 76 32.5 129.5t91.5 82.5t140 29q43 0 87.5 -9.5t70.5 -22.5l-37 -103q-36 16 -66 22.5t-60 6.5q-43 0 -73 -16.5t-45 -47t-15 -76.5q0 -44 15.5 -78t44 -53t66.5 -19h182v-106h-510zM270 0
q-42 0 -60 -18t-18 -58v-244h-127v282q0 43 15 75.5t43.5 50t68.5 17.5h3q-15 37 -22.5 75t-7.5 75q0 44 13 91.5t33 81.5q42 28 94.5 44t98.5 16q33 0 63 -7t56 -21q53 -29 82.5 -82t29.5 -121q0 -28 -5 -54.5t-15 -52.5q19 -24 44 -34t63 -10h5q5 0 5 -4v-97q0 -5 -5 -5
h-5q-53 0 -91.5 15t-73.5 51q-36 -33 -83 -49.5t-97 -16.5h-107zM287 247q0 -32 6.5 -67t21.5 -74h49q42 0 73.5 19t49.5 53.5t18 79.5q0 57 -29 91t-74 34q-25 0 -50.5 -8.5t-50.5 -24.5q-8 -24 -11 -49.5t-3 -53.5z" />
    <glyph glyph-name="uniFC2B" unicode="&#xfc2b;" horiz-adv-x="1184" arabic-form="isolated" 
d="M630 0q-5 0 -5 5v97q0 4 5 4h154q-24 14 -41 37.5t-27 53.5t-10 64q0 76 32.5 129.5t91.5 82.5t140 29q43 0 87.5 -9.5t70.5 -22.5l-37 -103q-36 16 -66 22.5t-60 6.5q-43 0 -73 -16.5t-45 -47t-15 -76.5q0 -44 15.5 -78t44 -53t66.5 -19h182v-106h-510zM910 589
q-30 0 -47 18t-17 50t17 50t47 18q29 0 45.5 -18.5t16.5 -49.5t-16.5 -49.5t-45.5 -18.5zM266 -324q-66 0 -116 24.5t-77.5 70.5t-27.5 108q0 46 17.5 85.5t51.5 71.5q27 28 66 53t96 47.5t138 45.5q-7 19 -13 40t-11 44q-9 44 -27.5 73t-45.5 43t-65 14q-33 0 -74.5 -12.5
t-82.5 -35.5l-47 97q30 17 67.5 30t78.5 20t79 7q66 0 113 -22t76.5 -66t40.5 -111q7 -42 17 -74.5t21 -54.5q17 -33 40 -50.5t53 -17.5h6q5 0 5 -4v-97q0 -5 -5 -5h-6q-43 0 -75.5 9.5t-57 29.5t-44.5 50q-60 -16 -104 -30.5t-70 -27.5q-55 -28 -82.5 -63.5t-27.5 -80.5
q0 -49 32 -76.5t88 -27.5zM470 -265q-30 0 -47 18t-17 50t17 50t47 18q29 0 45.5 -18.5t16.5 -49.5t-16.5 -49.5t-45.5 -18.5z" />
    <glyph glyph-name="uniFC2C" unicode="&#xfc2c;" horiz-adv-x="1271" arabic-form="isolated" 
d="M717 0q-5 0 -5 5v97q0 4 5 4h154q-24 14 -41 37.5t-27 53.5t-10 64q0 76 32.5 129.5t91.5 82.5t140 29q43 0 87.5 -9.5t70.5 -22.5l-37 -103q-36 16 -66 22.5t-60 6.5q-43 0 -73 -16.5t-45 -47t-15 -76.5q0 -44 15.5 -78t44 -53t66.5 -19h182v-106h-510zM997 589
q-30 0 -47 18t-17 50t17 50t47 18q29 0 45.5 -18.5t16.5 -49.5t-16.5 -49.5t-45.5 -18.5zM270 0q-42 0 -60 -18t-18 -58v-244h-127v282q0 43 15 75.5t43.5 50t68.5 17.5h3q-15 37 -22.5 75t-7.5 75q0 44 13 91.5t33 81.5q42 28 94.5 44t98.5 16q33 0 63 -7t56 -21
q53 -29 82.5 -82t29.5 -121q0 -28 -5 -54.5t-15 -52.5q19 -24 44 -34t63 -10h5q5 0 5 -4v-97q0 -5 -5 -5h-5q-53 0 -91.5 15t-73.5 51q-36 -33 -83 -49.5t-97 -16.5h-107zM287 247q0 -32 6.5 -67t21.5 -74h49q42 0 73.5 19t49.5 53.5t18 79.5q0 57 -29 91t-74 34
q-25 0 -50.5 -8.5t-50.5 -24.5q-8 -24 -11 -49.5t-3 -53.5z" />
    <glyph glyph-name="uniFC2D" unicode="&#xfc2d;" horiz-adv-x="1260" arabic-form="isolated" 
d="M630 0q-5 0 -5 5v97q0 4 5 4h146q-16 19 -27 41.5t-16.5 47t-5.5 49.5q0 76 34 131.5t98 86t154 30.5h162v-492h-545zM997 106h50v280h-31q-50 0 -85.5 -17t-54 -49.5t-18.5 -80.5q0 -42 16 -72t47 -45.5t76 -15.5zM937 594q-30 0 -47 18t-17 50t17 50t47 18
q29 0 45.5 -18.5t16.5 -49.5t-16.5 -49.5t-45.5 -18.5zM266 -324q-66 0 -116 24.5t-77.5 70.5t-27.5 108q0 46 17.5 85.5t51.5 71.5q27 28 66 53t96 47.5t138 45.5q-7 19 -13 40t-11 44q-9 44 -27.5 73t-45.5 43t-65 14q-33 0 -74.5 -12.5t-82.5 -35.5l-47 97q30 17 67.5 30
t78.5 20t79 7q66 0 113 -22t76.5 -66t40.5 -111q7 -42 17 -74.5t21 -54.5q17 -33 40 -50.5t53 -17.5h6q5 0 5 -4v-97q0 -5 -5 -5h-6q-43 0 -75.5 9.5t-57 29.5t-44.5 50q-60 -16 -104 -30.5t-70 -27.5q-55 -28 -82.5 -63.5t-27.5 -80.5q0 -49 32 -76.5t88 -27.5zM470 -265
q-30 0 -47 18t-17 50t17 50t47 18q29 0 45.5 -18.5t16.5 -49.5t-16.5 -49.5t-45.5 -18.5z" />
    <glyph glyph-name="uniFC2E" unicode="&#xfc2e;" horiz-adv-x="1260" arabic-form="isolated" 
d="M630 0q-5 0 -5 5v97q0 4 5 4h146q-16 19 -27 41.5t-16.5 47t-5.5 49.5q0 76 34 131.5t98 86t154 30.5h162v-492h-545zM997 106h50v280h-31q-50 0 -85.5 -17t-54 -49.5t-18.5 -80.5q0 -42 16 -72t47 -45.5t76 -15.5zM937 594q-30 0 -47 18t-17 50t17 50t47 18
q29 0 45.5 -18.5t16.5 -49.5t-16.5 -49.5t-45.5 -18.5zM634 0q-43 0 -75.5 9.5t-57 29.5t-44.5 50q-40 -10 -73 -20t-58 -19.5t-43 -18.5q-55 -28 -82.5 -63.5t-27.5 -80.5q0 -33 15 -56t43.5 -35.5t66.5 -12.5q31 0 67.5 5t79.5 14l15 -96q-49 -15 -98.5 -22.5t-95.5 -7.5
q-66 0 -116 24.5t-77.5 70.5t-27.5 108q0 46 17.5 85.5t51.5 71.5q27 28 66 53t96 47.5t138 45.5q-7 19 -13 40t-11 44q-9 44 -27.5 73t-45.5 43t-65 14q-33 0 -74.5 -12.5t-82.5 -35.5l-47 97q44 25 105.5 41t119.5 16q66 0 113 -22.5t76.5 -68t42.5 -116.5q6 -34 14 -63.5
t19 -50.5q17 -37 41 -56t55 -19h6q5 0 5 -4v-97q0 -5 -5 -5h-6z" />
    <glyph glyph-name="uniFC2F" unicode="&#xfc2f;" horiz-adv-x="1260" arabic-form="isolated" 
d="M630 0q-5 0 -5 5v97q0 4 5 4h146q-16 19 -27 41.5t-16.5 47t-5.5 49.5q0 76 34 131.5t98 86t154 30.5h162v-492h-545zM997 106h50v280h-31q-50 0 -85.5 -17t-54 -49.5t-18.5 -80.5q0 -42 16 -72t47 -45.5t76 -15.5zM937 594q-30 0 -47 18t-17 50t17 50t47 18
q29 0 45.5 -18.5t16.5 -49.5t-16.5 -49.5t-45.5 -18.5zM634 0q-43 0 -75.5 9.5t-57 29.5t-44.5 50q-40 -10 -73 -20t-58 -19.5t-43 -18.5q-55 -28 -82.5 -63.5t-27.5 -80.5q0 -33 15 -56t43.5 -35.5t66.5 -12.5q31 0 67.5 5t79.5 14l15 -96q-49 -15 -98.5 -22.5t-95.5 -7.5
q-66 0 -116 24.5t-77.5 70.5t-27.5 108q0 46 17.5 85.5t51.5 71.5q27 28 66 53t96 47.5t138 45.5q-7 19 -13 40t-11 44q-9 44 -27.5 73t-45.5 43t-65 14q-33 0 -74.5 -12.5t-82.5 -35.5l-47 97q44 25 105.5 41t119.5 16q66 0 113 -22.5t76.5 -68t42.5 -116.5q6 -34 14 -63.5
t19 -50.5q17 -37 41 -56t55 -19h6q5 0 5 -4v-97q0 -5 -5 -5h-6zM264 614q-30 0 -47 18t-17 50t17 50t47 18q29 0 45.5 -18.5t16.5 -49.5t-16.5 -49.5t-45.5 -18.5z" />
    <glyph glyph-name="uniFC30" unicode="&#xfc30;" horiz-adv-x="1347" arabic-form="isolated" 
d="M717 0q-5 0 -5 5v97q0 4 5 4h146q-16 19 -27 41.5t-16.5 47t-5.5 49.5q0 76 34 131.5t98 86t154 30.5h162v-492h-545zM1084 106h50v280h-31q-50 0 -85.5 -17t-54 -49.5t-18.5 -80.5q0 -42 16 -72t47 -45.5t76 -15.5zM1024 594q-30 0 -47 18t-17 50t17 50t47 18
q29 0 45.5 -18.5t16.5 -49.5t-16.5 -49.5t-45.5 -18.5zM270 0q-42 0 -60 -18t-18 -58v-244h-127v282q0 43 15 75.5t43.5 50t68.5 17.5h3q-15 37 -22.5 75t-7.5 75q0 44 13 91.5t33 81.5q42 28 94.5 44t98.5 16q33 0 63 -7t56 -21q53 -29 82.5 -82t29.5 -121q0 -28 -5 -54.5
t-15 -52.5q19 -24 44 -34t63 -10h5q5 0 5 -4v-97q0 -5 -5 -5h-5q-53 0 -91.5 15t-73.5 51q-36 -33 -83 -49.5t-97 -16.5h-107zM287 247q0 -32 6.5 -67t21.5 -74h49q42 0 73.5 19t49.5 53.5t18 79.5q0 57 -29 91t-74 34q-25 0 -50.5 -8.5t-50.5 -24.5q-8 -24 -11 -49.5
t-3 -53.5z" />
    <glyph glyph-name="uniFC31" unicode="&#xfc31;" horiz-adv-x="1616" arabic-form="isolated" 
d="M986 0q-5 0 -5 5v97q0 4 5 4h146q-16 19 -27 41.5t-16.5 47t-5.5 49.5q0 76 34 131.5t98 86t154 30.5h162v-492h-545zM1353 106h50v280h-31q-50 0 -85.5 -17t-54 -49.5t-18.5 -80.5q0 -42 16 -72t47 -45.5t76 -15.5zM1294 594q-30 0 -47 18t-17 50t17 50t47 18
q29 0 45.5 -18.5t16.5 -49.5t-16.5 -49.5t-45.5 -18.5zM266 -240q-61 0 -106.5 30t-70 82.5t-24.5 119.5q0 50 8 96t25 93h116q-14 -41 -18.5 -79.5t-4.5 -92.5q0 -41 16 -73.5t44 -51t63 -18.5h177q43 0 76 6.5t52.5 20.5t19.5 38q0 19 -17 32t-53 23q-54 14 -88 32.5
t-50 46t-16 67.5q0 27 9.5 55t27.5 56q25 37 60 67t73.5 47t74.5 17q17 0 32 -3t28 -9q31 -15 58.5 -45.5t67.5 -89.5q26 -40 46.5 -64t36.5 -36q14 -10 29.5 -15.5t32.5 -5.5h5q5 0 5 -4v-97q0 -5 -5 -5h-5q-33 0 -61 7t-53 24t-53 45q-5 5 -18 22.5t-33 45.5
q-23 33 -41.5 55.5t-32.5 33.5q-13 12 -26.5 17.5t-25.5 5.5q-16 0 -35 -10.5t-36 -27.5t-28 -35t-11 -33q0 -13 8.5 -24t25 -20t39.5 -16q34 -10 58 -20t40 -19q30 -18 45.5 -44t15.5 -60q0 -92 -69.5 -139.5t-207.5 -47.5h-226z" />
    <glyph glyph-name="uniFC32" unicode="&#xfc32;" horiz-adv-x="1616" arabic-form="isolated" 
d="M986 0q-5 0 -5 5v97q0 4 5 4h146q-16 19 -27 41.5t-16.5 47t-5.5 49.5q0 76 34 131.5t98 86t154 30.5h162v-492h-545zM1353 106h50v280h-31q-50 0 -85.5 -17t-54 -49.5t-18.5 -80.5q0 -42 16 -72t47 -45.5t76 -15.5zM1294 594q-30 0 -47 18t-17 50t17 50t47 18
q29 0 45.5 -18.5t16.5 -49.5t-16.5 -49.5t-45.5 -18.5zM266 -240q-61 0 -106.5 30t-70 82.5t-24.5 119.5q0 50 8 96t25 93h116q-14 -41 -18.5 -79.5t-4.5 -92.5q0 -41 16 -73.5t44 -51t63 -18.5h177q43 0 76 6.5t52.5 20.5t19.5 38q0 19 -17 32t-53 23q-54 14 -88 32.5
t-50 46t-16 67.5q0 27 9.5 55t27.5 56q25 37 60 67t73.5 47t74.5 17q17 0 32 -3t28 -9q31 -15 58.5 -45.5t67.5 -89.5q26 -40 46.5 -64t36.5 -36q14 -10 29.5 -15.5t32.5 -5.5h5q5 0 5 -4v-97q0 -5 -5 -5h-5q-33 0 -61 7t-53 24t-53 45q-5 5 -18 22.5t-33 45.5
q-23 33 -41.5 55.5t-32.5 33.5q-13 12 -26.5 17.5t-25.5 5.5q-16 0 -35 -10.5t-36 -27.5t-28 -35t-11 -33q0 -13 8.5 -24t25 -20t39.5 -16q34 -10 58 -20t40 -19q30 -18 45.5 -44t15.5 -60q0 -92 -69.5 -139.5t-207.5 -47.5h-226zM307 -461q-28 0 -45.5 17.5t-17.5 50.5
q0 32 17.5 50t45.5 18q30 0 46.5 -18t16.5 -50q0 -33 -17 -50.5t-46 -17.5zM478 -461q-29 0 -46 18t-17 50q0 31 17 49.5t46 18.5q30 0 46.5 -18.5t16.5 -49.5t-17 -49.5t-46 -18.5z" />
    <glyph glyph-name="uniFC33" unicode="&#xfc33;" horiz-adv-x="1260" arabic-form="isolated" 
d="M630 0q-5 0 -5 5v97q0 4 5 4h146q-16 19 -27 41.5t-16.5 47t-5.5 49.5q0 76 34 131.5t98 86t154 30.5h162v-492h-545zM997 106h50v280h-31q-50 0 -85.5 -17t-54 -49.5t-18.5 -80.5q0 -42 16 -72t47 -45.5t76 -15.5zM854 606q-28 0 -45.5 17.5t-17.5 50.5t17.5 50.5
t45.5 17.5q29 0 46 -18t17 -50q0 -33 -17 -50.5t-46 -17.5zM1025 606q-29 0 -46 18t-17 50t17 50t46 18q30 0 46.5 -18.5t16.5 -49.5t-17 -49.5t-46 -18.5zM634 0q-43 0 -75.5 9.5t-57 29.5t-44.5 50q-40 -10 -73 -20t-58 -19.5t-43 -18.5q-55 -28 -82.5 -63.5t-27.5 -80.5
q0 -33 15 -56t43.5 -35.5t66.5 -12.5q31 0 67.5 5t79.5 14l15 -96q-49 -15 -98.5 -22.5t-95.5 -7.5q-66 0 -116 24.5t-77.5 70.5t-27.5 108q0 46 17.5 85.5t51.5 71.5q27 28 66 53t96 47.5t138 45.5q-7 19 -13 40t-11 44q-9 44 -27.5 73t-45.5 43t-65 14q-33 0 -74.5 -12.5
t-82.5 -35.5l-47 97q44 25 105.5 41t119.5 16q66 0 113 -22.5t76.5 -68t42.5 -116.5q6 -34 14 -63.5t19 -50.5q17 -37 41 -56t55 -19h6q5 0 5 -4v-97q0 -5 -5 -5h-6z" />
    <glyph glyph-name="uniFC34" unicode="&#xfc34;" horiz-adv-x="1347" arabic-form="isolated" 
d="M717 0q-5 0 -5 5v97q0 4 5 4h146q-16 19 -27 41.5t-16.5 47t-5.5 49.5q0 76 34 131.5t98 86t154 30.5h162v-492h-545zM1084 106h50v280h-31q-50 0 -85.5 -17t-54 -49.5t-18.5 -80.5q0 -42 16 -72t47 -45.5t76 -15.5zM941 606q-28 0 -45.5 17.5t-17.5 50.5t17.5 50.5
t45.5 17.5q29 0 46 -18t17 -50q0 -33 -17 -50.5t-46 -17.5zM1112 606q-29 0 -46 18t-17 50t17 50t46 18q30 0 46.5 -18.5t16.5 -49.5t-17 -49.5t-46 -18.5zM270 0q-42 0 -60 -18t-18 -58v-244h-127v282q0 43 15 75.5t43.5 50t68.5 17.5h3q-15 37 -22.5 75t-7.5 75
q0 44 13 91.5t33 81.5q42 28 94.5 44t98.5 16q33 0 63 -7t56 -21q53 -29 82.5 -82t29.5 -121q0 -28 -5 -54.5t-15 -52.5q19 -24 44 -34t63 -10h5q5 0 5 -4v-97q0 -5 -5 -5h-5q-53 0 -91.5 15t-73.5 51q-36 -33 -83 -49.5t-97 -16.5h-107zM287 247q0 -32 6.5 -67t21.5 -74h49
q42 0 73.5 19t49.5 53.5t18 79.5q0 57 -29 91t-74 34q-25 0 -50.5 -8.5t-50.5 -24.5q-8 -24 -11 -49.5t-3 -53.5z" />
    <glyph glyph-name="uniFC35" unicode="&#xfc35;" horiz-adv-x="1616" arabic-form="isolated" 
d="M986 0q-5 0 -5 5v97q0 4 5 4h146q-16 19 -27 41.5t-16.5 47t-5.5 49.5q0 76 34 131.5t98 86t154 30.5h162v-492h-545zM1353 106h50v280h-31q-50 0 -85.5 -17t-54 -49.5t-18.5 -80.5q0 -42 16 -72t47 -45.5t76 -15.5zM1211 606q-28 0 -45.5 17.5t-17.5 50.5t17.5 50.5
t45.5 17.5q29 0 46 -18t17 -50q0 -33 -17 -50.5t-46 -17.5zM1382 606q-29 0 -46 18t-17 50t17 50t46 18q30 0 46.5 -18.5t16.5 -49.5t-17 -49.5t-46 -18.5zM266 -240q-61 0 -106.5 30t-70 82.5t-24.5 119.5q0 50 8 96t25 93h116q-14 -41 -18.5 -79.5t-4.5 -92.5
q0 -41 16 -73.5t44 -51t63 -18.5h177q43 0 76 6.5t52.5 20.5t19.5 38q0 19 -17 32t-53 23q-54 14 -88 32.5t-50 46t-16 67.5q0 27 9.5 55t27.5 56q25 37 60 67t73.5 47t74.5 17q17 0 32 -3t28 -9q31 -15 58.5 -45.5t67.5 -89.5q26 -40 46.5 -64t36.5 -36q14 -10 29.5 -15.5
t32.5 -5.5h5q5 0 5 -4v-97q0 -5 -5 -5h-5q-33 0 -61 7t-53 24t-53 45q-5 5 -18 22.5t-33 45.5q-23 33 -41.5 55.5t-32.5 33.5q-13 12 -26.5 17.5t-25.5 5.5q-16 0 -35 -10.5t-36 -27.5t-28 -35t-11 -33q0 -13 8.5 -24t25 -20t39.5 -16q34 -10 58 -20t40 -19q30 -18 45.5 -44
t15.5 -60q0 -92 -69.5 -139.5t-207.5 -47.5h-226z" />
    <glyph glyph-name="uniFC36" unicode="&#xfc36;" horiz-adv-x="1616" arabic-form="isolated" 
d="M986 0q-5 0 -5 5v97q0 4 5 4h146q-16 19 -27 41.5t-16.5 47t-5.5 49.5q0 76 34 131.5t98 86t154 30.5h162v-492h-545zM1353 106h50v280h-31q-50 0 -85.5 -17t-54 -49.5t-18.5 -80.5q0 -42 16 -72t47 -45.5t76 -15.5zM1211 606q-28 0 -45.5 17.5t-17.5 50.5t17.5 50.5
t45.5 17.5q29 0 46 -18t17 -50q0 -33 -17 -50.5t-46 -17.5zM1382 606q-29 0 -46 18t-17 50t17 50t46 18q30 0 46.5 -18.5t16.5 -49.5t-17 -49.5t-46 -18.5zM266 -240q-61 0 -106.5 30t-70 82.5t-24.5 119.5q0 50 8 96t25 93h116q-14 -41 -18.5 -79.5t-4.5 -92.5
q0 -41 16 -73.5t44 -51t63 -18.5h177q43 0 76 6.5t52.5 20.5t19.5 38q0 19 -17 32t-53 23q-54 14 -88 32.5t-50 46t-16 67.5q0 27 9.5 55t27.5 56q25 37 60 67t73.5 47t74.5 17q17 0 32 -3t28 -9q31 -15 58.5 -45.5t67.5 -89.5q26 -40 46.5 -64t36.5 -36q14 -10 29.5 -15.5
t32.5 -5.5h5q5 0 5 -4v-97q0 -5 -5 -5h-5q-33 0 -61 7t-53 24t-53 45q-5 5 -18 22.5t-33 45.5q-23 33 -41.5 55.5t-32.5 33.5q-13 12 -26.5 17.5t-25.5 5.5q-16 0 -35 -10.5t-36 -27.5t-28 -35t-11 -33q0 -13 8.5 -24t25 -20t39.5 -16q34 -10 58 -20t40 -19q30 -18 45.5 -44
t15.5 -60q0 -92 -69.5 -139.5t-207.5 -47.5h-226zM307 -461q-28 0 -45.5 17.5t-17.5 50.5q0 32 17.5 50t45.5 18q30 0 46.5 -18t16.5 -50q0 -33 -17 -50.5t-46 -17.5zM478 -461q-29 0 -46 18t-17 50q0 31 17 49.5t46 18.5q30 0 46.5 -18.5t16.5 -49.5t-17 -49.5t-46 -18.5z
" />
    <glyph glyph-name="uniFC37" unicode="&#xfc37;" horiz-adv-x="950" arabic-form="isolated" 
d="M346 0q-5 0 -5 5v97q0 4 5 4h401v169q0 65 -42.5 98t-124.5 33h-170v100q16 34 37 66t47 63q56 66 128.5 117t153.5 81l47 -115q-44 -15 -87 -37.5t-81 -50.5t-67.5 -58t-46.5 -60h54q139 0 209.5 -55.5t70.5 -164.5v-292h-529zM357 106q4 0 4 -4v-97q0 -5 -5 -5h-256
v760h129v-654h128z" />
    <glyph glyph-name="uniFC38" unicode="&#xfc38;" horiz-adv-x="1233" arabic-form="isolated" 
d="M630 0q-5 0 -5 5v97q0 4 5 4h401v169q0 65 -42.5 98t-124.5 33h-170v100q16 34 37 66t47 63q56 66 128.5 117t153.5 81l47 -115q-44 -15 -87 -37.5t-81 -50.5t-67.5 -58t-46.5 -60h54q139 0 209.5 -55.5t70.5 -164.5v-292h-529zM266 -324q-66 0 -116 24.5t-77.5 70.5
t-27.5 108q0 46 17.5 85.5t51.5 71.5q27 28 66 53t96 47.5t138 45.5q-7 19 -13 40t-11 44q-9 44 -27.5 73t-45.5 43t-65 14q-33 0 -74.5 -12.5t-82.5 -35.5l-47 97q30 17 67.5 30t78.5 20t79 7q66 0 113 -22t76.5 -66t40.5 -111q7 -42 17 -74.5t21 -54.5q17 -33 40 -50.5
t53 -17.5h6q5 0 5 -4v-97q0 -5 -5 -5h-6q-43 0 -75.5 9.5t-57 29.5t-44.5 50q-60 -16 -104 -30.5t-70 -27.5q-55 -28 -82.5 -63.5t-27.5 -80.5q0 -49 32 -76.5t88 -27.5zM470 -265q-30 0 -47 18t-17 50t17 50t47 18q29 0 45.5 -18.5t16.5 -49.5t-16.5 -49.5t-45.5 -18.5z
" />
    <glyph glyph-name="uniFC39" unicode="&#xfc39;" horiz-adv-x="1233" arabic-form="isolated" 
d="M630 0q-5 0 -5 5v97q0 4 5 4h401v169q0 65 -42.5 98t-124.5 33h-170v100q16 34 37 66t47 63q56 66 128.5 117t153.5 81l47 -115q-44 -15 -87 -37.5t-81 -50.5t-67.5 -58t-46.5 -60h54q139 0 209.5 -55.5t70.5 -164.5v-292h-529zM634 0q-43 0 -75.5 9.5t-57 29.5t-44.5 50
q-40 -10 -73 -20t-58 -19.5t-43 -18.5q-55 -28 -82.5 -63.5t-27.5 -80.5q0 -33 15 -56t43.5 -35.5t66.5 -12.5q31 0 67.5 5t79.5 14l15 -96q-49 -15 -98.5 -22.5t-95.5 -7.5q-66 0 -116 24.5t-77.5 70.5t-27.5 108q0 46 17.5 85.5t51.5 71.5q27 28 66 53t96 47.5t138 45.5
q-7 19 -13 40t-11 44q-9 44 -27.5 73t-45.5 43t-65 14q-33 0 -74.5 -12.5t-82.5 -35.5l-47 97q44 25 105.5 41t119.5 16q66 0 113 -22.5t76.5 -68t42.5 -116.5q6 -34 14 -63.5t19 -50.5q17 -37 41 -56t55 -19h6q5 0 5 -4v-97q0 -5 -5 -5h-6z" />
    <glyph glyph-name="uniFC3A" unicode="&#xfc3a;" horiz-adv-x="1233" arabic-form="isolated" 
d="M630 0q-5 0 -5 5v97q0 4 5 4h401v169q0 65 -42.5 98t-124.5 33h-170v100q16 34 37 66t47 63q56 66 128.5 117t153.5 81l47 -115q-44 -15 -87 -37.5t-81 -50.5t-67.5 -58t-46.5 -60h54q139 0 209.5 -55.5t70.5 -164.5v-292h-529zM634 0q-43 0 -75.5 9.5t-57 29.5t-44.5 50
q-40 -10 -73 -20t-58 -19.5t-43 -18.5q-55 -28 -82.5 -63.5t-27.5 -80.5q0 -33 15 -56t43.5 -35.5t66.5 -12.5q31 0 67.5 5t79.5 14l15 -96q-49 -15 -98.5 -22.5t-95.5 -7.5q-66 0 -116 24.5t-77.5 70.5t-27.5 108q0 46 17.5 85.5t51.5 71.5q27 28 66 53t96 47.5t138 45.5
q-7 19 -13 40t-11 44q-9 44 -27.5 73t-45.5 43t-65 14q-33 0 -74.5 -12.5t-82.5 -35.5l-47 97q44 25 105.5 41t119.5 16q66 0 113 -22.5t76.5 -68t42.5 -116.5q6 -34 14 -63.5t19 -50.5q17 -37 41 -56t55 -19h6q5 0 5 -4v-97q0 -5 -5 -5h-6zM264 614q-30 0 -47 18t-17 50
t17 50t47 18q29 0 45.5 -18.5t16.5 -49.5t-16.5 -49.5t-45.5 -18.5z" />
    <glyph glyph-name="uniFC3B" unicode="&#xfc3b;" horiz-adv-x="1363" arabic-form="isolated" 
d="M760 0q-5 0 -5 5v97q0 4 5 4h401v169q0 65 -42.5 98t-124.5 33h-170v100q16 34 37 66t47 63q56 66 128.5 117t153.5 81l47 -115q-44 -15 -87 -37.5t-81 -50.5t-67.5 -58t-46.5 -60h54q139 0 209.5 -55.5t70.5 -164.5v-292h-529zM646 0q-6 -120 -75.5 -180t-203.5 -60h-54
q-39 0 -73 9t-62 27q-54 34 -83.5 95t-29.5 141q0 39 5.5 79t16.5 78t26 69h115q-16 -50 -25 -109t-9 -118q0 -77 36 -121t96 -44h37q54 0 88 18t51 54t17 88v734h127v-654h124q5 0 5 -4v-97q0 -5 -5 -5h-124z" />
    <glyph glyph-name="uniFC3C" unicode="&#xfc3c;" horiz-adv-x="1320" arabic-form="isolated" 
d="M717 0q-5 0 -5 5v97q0 4 5 4h401v169q0 65 -42.5 98t-124.5 33h-170v100q16 34 37 66t47 63q56 66 128.5 117t153.5 81l47 -115q-44 -15 -87 -37.5t-81 -50.5t-67.5 -58t-46.5 -60h54q139 0 209.5 -55.5t70.5 -164.5v-292h-529zM270 0q-42 0 -60 -18t-18 -58v-244h-127
v282q0 43 15 75.5t43.5 50t68.5 17.5h3q-15 37 -22.5 75t-7.5 75q0 44 13 91.5t33 81.5q42 28 94.5 44t98.5 16q33 0 63 -7t56 -21q53 -29 82.5 -82t29.5 -121q0 -28 -5 -54.5t-15 -52.5q19 -24 44 -34t63 -10h5q5 0 5 -4v-97q0 -5 -5 -5h-5q-53 0 -91.5 15t-73.5 51
q-36 -33 -83 -49.5t-97 -16.5h-107zM287 247q0 -32 6.5 -67t21.5 -74h49q42 0 73.5 19t49.5 53.5t18 79.5q0 57 -29 91t-74 34q-25 0 -50.5 -8.5t-50.5 -24.5q-8 -24 -11 -49.5t-3 -53.5z" />
    <glyph glyph-name="uniFC3D" unicode="&#xfc3d;" horiz-adv-x="1590" arabic-form="isolated" 
d="M986 0q-5 0 -5 5v97q0 4 5 4h401v169q0 65 -42.5 98t-124.5 33h-170v100q16 34 37 66t47 63q56 66 128.5 117t153.5 81l47 -115q-44 -15 -87 -37.5t-81 -50.5t-67.5 -58t-46.5 -60h54q139 0 209.5 -55.5t70.5 -164.5v-292h-529zM266 -240q-61 0 -106.5 30t-70 82.5
t-24.5 119.5q0 50 8 96t25 93h116q-14 -41 -18.5 -79.5t-4.5 -92.5q0 -41 16 -73.5t44 -51t63 -18.5h177q43 0 76 6.5t52.5 20.5t19.5 38q0 19 -17 32t-53 23q-54 14 -88 32.5t-50 46t-16 67.5q0 27 9.5 55t27.5 56q25 37 60 67t73.5 47t74.5 17q17 0 32 -3t28 -9
q31 -15 58.5 -45.5t67.5 -89.5q26 -40 46.5 -64t36.5 -36q14 -10 29.5 -15.5t32.5 -5.5h5q5 0 5 -4v-97q0 -5 -5 -5h-5q-33 0 -61 7t-53 24t-53 45q-5 5 -18 22.5t-33 45.5q-23 33 -41.5 55.5t-32.5 33.5q-13 12 -26.5 17.5t-25.5 5.5q-16 0 -35 -10.5t-36 -27.5t-28 -35
t-11 -33q0 -13 8.5 -24t25 -20t39.5 -16q34 -10 58 -20t40 -19q30 -18 45.5 -44t15.5 -60q0 -92 -69.5 -139.5t-207.5 -47.5h-226z" />
    <glyph glyph-name="uniFC3E" unicode="&#xfc3e;" horiz-adv-x="1590" arabic-form="isolated" 
d="M986 0q-5 0 -5 5v97q0 4 5 4h401v169q0 65 -42.5 98t-124.5 33h-170v100q16 34 37 66t47 63q56 66 128.5 117t153.5 81l47 -115q-44 -15 -87 -37.5t-81 -50.5t-67.5 -58t-46.5 -60h54q139 0 209.5 -55.5t70.5 -164.5v-292h-529zM266 -240q-61 0 -106.5 30t-70 82.5
t-24.5 119.5q0 50 8 96t25 93h116q-14 -41 -18.5 -79.5t-4.5 -92.5q0 -41 16 -73.5t44 -51t63 -18.5h177q43 0 76 6.5t52.5 20.5t19.5 38q0 19 -17 32t-53 23q-54 14 -88 32.5t-50 46t-16 67.5q0 27 9.5 55t27.5 56q25 37 60 67t73.5 47t74.5 17q17 0 32 -3t28 -9
q31 -15 58.5 -45.5t67.5 -89.5q26 -40 46.5 -64t36.5 -36q14 -10 29.5 -15.5t32.5 -5.5h5q5 0 5 -4v-97q0 -5 -5 -5h-5q-33 0 -61 7t-53 24t-53 45q-5 5 -18 22.5t-33 45.5q-23 33 -41.5 55.5t-32.5 33.5q-13 12 -26.5 17.5t-25.5 5.5q-16 0 -35 -10.5t-36 -27.5t-28 -35
t-11 -33q0 -13 8.5 -24t25 -20t39.5 -16q34 -10 58 -20t40 -19q30 -18 45.5 -44t15.5 -60q0 -92 -69.5 -139.5t-207.5 -47.5h-226zM307 -461q-28 0 -45.5 17.5t-17.5 50.5q0 32 17.5 50t45.5 18q30 0 46.5 -18t16.5 -50q0 -33 -17 -50.5t-46 -17.5zM478 -461q-29 0 -46 18
t-17 50q0 31 17 49.5t46 18.5q30 0 46.5 -18.5t16.5 -49.5t-17 -49.5t-46 -18.5z" />
    <glyph glyph-name="uniFC3F" unicode="&#xfc3f;" horiz-adv-x="986" arabic-form="isolated" 
d="M630 0q-5 0 -5 5v97q0 4 5 4h127v654h129v-760h-256zM266 -324q-66 0 -116 24.5t-77.5 70.5t-27.5 108q0 46 17.5 85.5t51.5 71.5q27 28 66 53t96 47.5t138 45.5q-7 19 -13 40t-11 44q-9 44 -27.5 73t-45.5 43t-65 14q-33 0 -74.5 -12.5t-82.5 -35.5l-47 97
q30 17 67.5 30t78.5 20t79 7q66 0 113 -22t76.5 -66t40.5 -111q7 -42 17 -74.5t21 -54.5q17 -33 40 -50.5t53 -17.5h6q5 0 5 -4v-97q0 -5 -5 -5h-6q-43 0 -75.5 9.5t-57 29.5t-44.5 50q-60 -16 -104 -30.5t-70 -27.5q-55 -28 -82.5 -63.5t-27.5 -80.5q0 -49 32 -76.5
t88 -27.5zM470 -265q-30 0 -47 18t-17 50t17 50t47 18q29 0 45.5 -18.5t16.5 -49.5t-16.5 -49.5t-45.5 -18.5z" />
    <glyph glyph-name="uniFC40" unicode="&#xfc40;" horiz-adv-x="986" arabic-form="isolated" 
d="M630 0q-5 0 -5 5v97q0 4 5 4h127v654h129v-760h-256zM634 0q-43 0 -75.5 9.5t-57 29.5t-44.5 50q-40 -10 -73 -20t-58 -19.5t-43 -18.5q-55 -28 -82.5 -63.5t-27.5 -80.5q0 -33 15 -56t43.5 -35.5t66.5 -12.5q31 0 67.5 5t79.5 14l15 -96q-49 -15 -98.5 -22.5t-95.5 -7.5
q-66 0 -116 24.5t-77.5 70.5t-27.5 108q0 46 17.5 85.5t51.5 71.5q27 28 66 53t96 47.5t138 45.5q-7 19 -13 40t-11 44q-9 44 -27.5 73t-45.5 43t-65 14q-33 0 -74.5 -12.5t-82.5 -35.5l-47 97q44 25 105.5 41t119.5 16q66 0 113 -22.5t76.5 -68t42.5 -116.5q6 -34 14 -63.5
t19 -50.5q17 -37 41 -56t55 -19h6q5 0 5 -4v-97q0 -5 -5 -5h-6z" />
    <glyph glyph-name="uniFC41" unicode="&#xfc41;" horiz-adv-x="986" arabic-form="isolated" 
d="M630 0q-5 0 -5 5v97q0 4 5 4h127v654h129v-760h-256zM634 0q-43 0 -75.5 9.5t-57 29.5t-44.5 50q-40 -10 -73 -20t-58 -19.5t-43 -18.5q-55 -28 -82.5 -63.5t-27.5 -80.5q0 -33 15 -56t43.5 -35.5t66.5 -12.5q31 0 67.5 5t79.5 14l15 -96q-49 -15 -98.5 -22.5t-95.5 -7.5
q-66 0 -116 24.5t-77.5 70.5t-27.5 108q0 46 17.5 85.5t51.5 71.5q27 28 66 53t96 47.5t138 45.5q-7 19 -13 40t-11 44q-9 44 -27.5 73t-45.5 43t-65 14q-33 0 -74.5 -12.5t-82.5 -35.5l-47 97q44 25 105.5 41t119.5 16q66 0 113 -22.5t76.5 -68t42.5 -116.5q6 -34 14 -63.5
t19 -50.5q17 -37 41 -56t55 -19h6q5 0 5 -4v-97q0 -5 -5 -5h-6zM264 614q-30 0 -47 18t-17 50t17 50t47 18q29 0 45.5 -18.5t16.5 -49.5t-16.5 -49.5t-45.5 -18.5z" />
    <glyph glyph-name="uniFC42" unicode="&#xfc42;" horiz-adv-x="1073" arabic-form="isolated" 
d="M717 0q-5 0 -5 5v97q0 4 5 4h127v654h129v-760h-256zM270 0q-42 0 -60 -18t-18 -58v-244h-127v282q0 43 15 75.5t43.5 50t68.5 17.5h3q-15 37 -22.5 75t-7.5 75q0 44 13 91.5t33 81.5q42 28 94.5 44t98.5 16q33 0 63 -7t56 -21q53 -29 82.5 -82t29.5 -121q0 -28 -5 -54.5
t-15 -52.5q19 -24 44 -34t63 -10h5q5 0 5 -4v-97q0 -5 -5 -5h-5q-53 0 -91.5 15t-73.5 51q-36 -33 -83 -49.5t-97 -16.5h-107zM287 247q0 -32 6.5 -67t21.5 -74h49q42 0 73.5 19t49.5 53.5t18 79.5q0 57 -29 91t-74 34q-25 0 -50.5 -8.5t-50.5 -24.5q-8 -24 -11 -49.5
t-3 -53.5z" />
    <glyph glyph-name="uniFC43" unicode="&#xfc43;" horiz-adv-x="1343" arabic-form="isolated" 
d="M986 0q-5 0 -5 5v97q0 4 5 4h127v654h129v-760h-256zM266 -240q-61 0 -106.5 30t-70 82.5t-24.5 119.5q0 50 8 96t25 93h116q-14 -41 -18.5 -79.5t-4.5 -92.5q0 -41 16 -73.5t44 -51t63 -18.5h177q43 0 76 6.5t52.5 20.5t19.5 38q0 19 -17 32t-53 23q-54 14 -88 32.5
t-50 46t-16 67.5q0 27 9.5 55t27.5 56q25 37 60 67t73.5 47t74.5 17q17 0 32 -3t28 -9q31 -15 58.5 -45.5t67.5 -89.5q26 -40 46.5 -64t36.5 -36q14 -10 29.5 -15.5t32.5 -5.5h5q5 0 5 -4v-97q0 -5 -5 -5h-5q-33 0 -61 7t-53 24t-53 45q-5 5 -18 22.5t-33 45.5
q-23 33 -41.5 55.5t-32.5 33.5q-13 12 -26.5 17.5t-25.5 5.5q-16 0 -35 -10.5t-36 -27.5t-28 -35t-11 -33q0 -13 8.5 -24t25 -20t39.5 -16q34 -10 58 -20t40 -19q30 -18 45.5 -44t15.5 -60q0 -92 -69.5 -139.5t-207.5 -47.5h-226z" />
    <glyph glyph-name="uniFC44" unicode="&#xfc44;" horiz-adv-x="1343" arabic-form="isolated" 
d="M986 0q-5 0 -5 5v97q0 4 5 4h127v654h129v-760h-256zM266 -240q-61 0 -106.5 30t-70 82.5t-24.5 119.5q0 50 8 96t25 93h116q-14 -41 -18.5 -79.5t-4.5 -92.5q0 -41 16 -73.5t44 -51t63 -18.5h177q43 0 76 6.5t52.5 20.5t19.5 38q0 19 -17 32t-53 23q-54 14 -88 32.5
t-50 46t-16 67.5q0 27 9.5 55t27.5 56q25 37 60 67t73.5 47t74.5 17q17 0 32 -3t28 -9q31 -15 58.5 -45.5t67.5 -89.5q26 -40 46.5 -64t36.5 -36q14 -10 29.5 -15.5t32.5 -5.5h5q5 0 5 -4v-97q0 -5 -5 -5h-5q-33 0 -61 7t-53 24t-53 45q-5 5 -18 22.5t-33 45.5
q-23 33 -41.5 55.5t-32.5 33.5q-13 12 -26.5 17.5t-25.5 5.5q-16 0 -35 -10.5t-36 -27.5t-28 -35t-11 -33q0 -13 8.5 -24t25 -20t39.5 -16q34 -10 58 -20t40 -19q30 -18 45.5 -44t15.5 -60q0 -92 -69.5 -139.5t-207.5 -47.5h-226zM307 -461q-28 0 -45.5 17.5t-17.5 50.5
q0 32 17.5 50t45.5 18q30 0 46.5 -18t16.5 -50q0 -33 -17 -50.5t-46 -17.5zM478 -461q-29 0 -46 18t-17 50q0 31 17 49.5t46 18.5q30 0 46.5 -18.5t16.5 -49.5t-17 -49.5t-46 -18.5z" />
    <glyph glyph-name="uniFC45" unicode="&#xfc45;" horiz-adv-x="1244" arabic-form="isolated" 
d="M630 0q-5 0 -5 5v97q0 4 5 4h117q-15 37 -23 74t-8 75q0 43 13 90t33 83q45 29 97 44.5t96 15.5q33 0 63 -7t57 -21q53 -29 82 -81.5t29 -121.5q0 -38 -8 -72t-25 -63q-34 -58 -93 -90t-132 -32h-298zM838 247q0 -32 7 -67t21 -74h49q42 0 73.5 19t49.5 53.5t18 79.5
q0 56 -29 90.5t-74 34.5q-25 0 -51 -8.5t-50 -24.5q-7 -24 -10.5 -49.5t-3.5 -53.5zM266 -324q-66 0 -116 24.5t-77.5 70.5t-27.5 108q0 46 17.5 85.5t51.5 71.5q27 28 66 53t96 47.5t138 45.5q-7 19 -13 40t-11 44q-9 44 -27.5 73t-45.5 43t-65 14q-33 0 -74.5 -12.5
t-82.5 -35.5l-47 97q30 17 67.5 30t78.5 20t79 7q66 0 113 -22t76.5 -66t40.5 -111q7 -42 17 -74.5t21 -54.5q17 -33 40 -50.5t53 -17.5h6q5 0 5 -4v-97q0 -5 -5 -5h-6q-43 0 -75.5 9.5t-57 29.5t-44.5 50q-60 -16 -104 -30.5t-70 -27.5q-55 -28 -82.5 -63.5t-27.5 -80.5
q0 -49 32 -76.5t88 -27.5zM470 -265q-30 0 -47 18t-17 50t17 50t47 18q29 0 45.5 -18.5t16.5 -49.5t-16.5 -49.5t-45.5 -18.5z" />
    <glyph glyph-name="uniFC46" unicode="&#xfc46;" horiz-adv-x="1244" arabic-form="isolated" 
d="M630 0q-5 0 -5 5v97q0 4 5 4h117q-15 37 -23 74t-8 75q0 43 13 90t33 83q45 29 97 44.5t96 15.5q33 0 63 -7t57 -21q53 -29 82 -81.5t29 -121.5q0 -38 -8 -72t-25 -63q-34 -58 -93 -90t-132 -32h-298zM838 247q0 -32 7 -67t21 -74h49q42 0 73.5 19t49.5 53.5t18 79.5
q0 56 -29 90.5t-74 34.5q-25 0 -51 -8.5t-50 -24.5q-7 -24 -10.5 -49.5t-3.5 -53.5zM634 0q-43 0 -75.5 9.5t-57 29.5t-44.5 50q-40 -10 -73 -20t-58 -19.5t-43 -18.5q-55 -28 -82.5 -63.5t-27.5 -80.5q0 -33 15 -56t43.5 -35.5t66.5 -12.5q31 0 67.5 5t79.5 14l15 -96
q-49 -15 -98.5 -22.5t-95.5 -7.5q-66 0 -116 24.5t-77.5 70.5t-27.5 108q0 46 17.5 85.5t51.5 71.5q27 28 66 53t96 47.5t138 45.5q-7 19 -13 40t-11 44q-9 44 -27.5 73t-45.5 43t-65 14q-33 0 -74.5 -12.5t-82.5 -35.5l-47 97q44 25 105.5 41t119.5 16q66 0 113 -22.5
t76.5 -68t42.5 -116.5q6 -34 14 -63.5t19 -50.5q17 -37 41 -56t55 -19h6q5 0 5 -4v-97q0 -5 -5 -5h-6z" />
    <glyph glyph-name="uniFC47" unicode="&#xfc47;" horiz-adv-x="1244" arabic-form="isolated" 
d="M630 0q-5 0 -5 5v97q0 4 5 4h117q-15 37 -23 74t-8 75q0 43 13 90t33 83q45 29 97 44.5t96 15.5q33 0 63 -7t57 -21q53 -29 82 -81.5t29 -121.5q0 -38 -8 -72t-25 -63q-34 -58 -93 -90t-132 -32h-298zM838 247q0 -32 7 -67t21 -74h49q42 0 73.5 19t49.5 53.5t18 79.5
q0 56 -29 90.5t-74 34.5q-25 0 -51 -8.5t-50 -24.5q-7 -24 -10.5 -49.5t-3.5 -53.5zM634 0q-43 0 -75.5 9.5t-57 29.5t-44.5 50q-40 -10 -73 -20t-58 -19.5t-43 -18.5q-55 -28 -82.5 -63.5t-27.5 -80.5q0 -33 15 -56t43.5 -35.5t66.5 -12.5q31 0 67.5 5t79.5 14l15 -96
q-49 -15 -98.5 -22.5t-95.5 -7.5q-66 0 -116 24.5t-77.5 70.5t-27.5 108q0 46 17.5 85.5t51.5 71.5q27 28 66 53t96 47.5t138 45.5q-7 19 -13 40t-11 44q-9 44 -27.5 73t-45.5 43t-65 14q-33 0 -74.5 -12.5t-82.5 -35.5l-47 97q44 25 105.5 41t119.5 16q66 0 113 -22.5
t76.5 -68t42.5 -116.5q6 -34 14 -63.5t19 -50.5q17 -37 41 -56t55 -19h6q5 0 5 -4v-97q0 -5 -5 -5h-6zM264 614q-30 0 -47 18t-17 50t17 50t47 18q29 0 45.5 -18.5t16.5 -49.5t-16.5 -49.5t-45.5 -18.5z" />
    <glyph glyph-name="uniFC48" unicode="&#xfc48;" horiz-adv-x="1331" arabic-form="isolated" 
d="M717 0q-5 0 -5 5v97q0 4 5 4h117q-15 37 -23 74t-8 75q0 43 13 90t33 83q45 29 97 44.5t96 15.5q33 0 63 -7t57 -21q53 -29 82 -81.5t29 -121.5q0 -38 -8 -72t-25 -63q-34 -58 -93 -90t-132 -32h-298zM925 247q0 -32 7 -67t21 -74h49q42 0 73.5 19t49.5 53.5t18 79.5
q0 56 -29 90.5t-74 34.5q-25 0 -51 -8.5t-50 -24.5q-7 -24 -10.5 -49.5t-3.5 -53.5zM270 0q-42 0 -60 -18t-18 -58v-244h-127v282q0 43 15 75.5t43.5 50t68.5 17.5h3q-15 37 -22.5 75t-7.5 75q0 44 13 91.5t33 81.5q42 28 94.5 44t98.5 16q33 0 63 -7t56 -21
q53 -29 82.5 -82t29.5 -121q0 -28 -5 -54.5t-15 -52.5q19 -24 44 -34t63 -10h5q5 0 5 -4v-97q0 -5 -5 -5h-5q-53 0 -91.5 15t-73.5 51q-36 -33 -83 -49.5t-97 -16.5h-107zM287 247q0 -32 6.5 -67t21.5 -74h49q42 0 73.5 19t49.5 53.5t18 79.5q0 57 -29 91t-74 34
q-25 0 -50.5 -8.5t-50.5 -24.5q-8 -24 -11 -49.5t-3 -53.5z" />
    <glyph glyph-name="uniFC49" unicode="&#xfc49;" horiz-adv-x="1601" arabic-form="isolated" 
d="M986 0q-5 0 -5 5v97q0 4 5 4h117q-15 37 -23 74t-8 75q0 43 13 90t33 83q45 29 97 44.5t96 15.5q33 0 63 -7t57 -21q53 -29 82 -81.5t29 -121.5q0 -38 -8 -72t-25 -63q-34 -58 -93 -90t-132 -32h-298zM1194 247q0 -32 7 -67t21 -74h49q42 0 73.5 19t49.5 53.5t18 79.5
q0 56 -29 90.5t-74 34.5q-25 0 -51 -8.5t-50 -24.5q-7 -24 -10.5 -49.5t-3.5 -53.5zM266 -240q-61 0 -106.5 30t-70 82.5t-24.5 119.5q0 50 8 96t25 93h116q-14 -41 -18.5 -79.5t-4.5 -92.5q0 -41 16 -73.5t44 -51t63 -18.5h177q43 0 76 6.5t52.5 20.5t19.5 38q0 19 -17 32
t-53 23q-54 14 -88 32.5t-50 46t-16 67.5q0 27 9.5 55t27.5 56q25 37 60 67t73.5 47t74.5 17q17 0 32 -3t28 -9q31 -15 58.5 -45.5t67.5 -89.5q26 -40 46.5 -64t36.5 -36q14 -10 29.5 -15.5t32.5 -5.5h5q5 0 5 -4v-97q0 -5 -5 -5h-5q-33 0 -61 7t-53 24t-53 45
q-5 5 -18 22.5t-33 45.5q-23 33 -41.5 55.5t-32.5 33.5q-13 12 -26.5 17.5t-25.5 5.5q-16 0 -35 -10.5t-36 -27.5t-28 -35t-11 -33q0 -13 8.5 -24t25 -20t39.5 -16q34 -10 58 -20t40 -19q30 -18 45.5 -44t15.5 -60q0 -92 -69.5 -139.5t-207.5 -47.5h-226z" />
    <glyph glyph-name="uniFC4A" unicode="&#xfc4a;" horiz-adv-x="1601" arabic-form="isolated" 
d="M986 0q-5 0 -5 5v97q0 4 5 4h117q-15 37 -23 74t-8 75q0 43 13 90t33 83q45 29 97 44.5t96 15.5q33 0 63 -7t57 -21q53 -29 82 -81.5t29 -121.5q0 -38 -8 -72t-25 -63q-34 -58 -93 -90t-132 -32h-298zM1194 247q0 -32 7 -67t21 -74h49q42 0 73.5 19t49.5 53.5t18 79.5
q0 56 -29 90.5t-74 34.5q-25 0 -51 -8.5t-50 -24.5q-7 -24 -10.5 -49.5t-3.5 -53.5zM266 -240q-61 0 -106.5 30t-70 82.5t-24.5 119.5q0 50 8 96t25 93h116q-14 -41 -18.5 -79.5t-4.5 -92.5q0 -41 16 -73.5t44 -51t63 -18.5h177q43 0 76 6.5t52.5 20.5t19.5 38q0 19 -17 32
t-53 23q-54 14 -88 32.5t-50 46t-16 67.5q0 27 9.5 55t27.5 56q25 37 60 67t73.5 47t74.5 17q17 0 32 -3t28 -9q31 -15 58.5 -45.5t67.5 -89.5q26 -40 46.5 -64t36.5 -36q14 -10 29.5 -15.5t32.5 -5.5h5q5 0 5 -4v-97q0 -5 -5 -5h-5q-33 0 -61 7t-53 24t-53 45
q-5 5 -18 22.5t-33 45.5q-23 33 -41.5 55.5t-32.5 33.5q-13 12 -26.5 17.5t-25.5 5.5q-16 0 -35 -10.5t-36 -27.5t-28 -35t-11 -33q0 -13 8.5 -24t25 -20t39.5 -16q34 -10 58 -20t40 -19q30 -18 45.5 -44t15.5 -60q0 -92 -69.5 -139.5t-207.5 -47.5h-226zM307 -461
q-28 0 -45.5 17.5t-17.5 50.5q0 32 17.5 50t45.5 18q30 0 46.5 -18t16.5 -50q0 -33 -17 -50.5t-46 -17.5zM478 -461q-29 0 -46 18t-17 50q0 31 17 49.5t46 18.5q30 0 46.5 -18.5t16.5 -49.5t-17 -49.5t-46 -18.5z" />
    <glyph glyph-name="uniFC4B" unicode="&#xfc4b;" horiz-adv-x="971" arabic-form="isolated" 
d="M630 0q-5 0 -5 5v97q0 4 5 4h127v386h129v-492h-256zM783 605q-30 0 -47 18t-17 50t17 50t47 18q29 0 45.5 -18.5t16.5 -49.5t-16.5 -49.5t-45.5 -18.5zM266 -324q-66 0 -116 24.5t-77.5 70.5t-27.5 108q0 46 17.5 85.5t51.5 71.5q27 28 66 53t96 47.5t138 45.5
q-7 19 -13 40t-11 44q-9 44 -27.5 73t-45.5 43t-65 14q-33 0 -74.5 -12.5t-82.5 -35.5l-47 97q30 17 67.5 30t78.5 20t79 7q66 0 113 -22t76.5 -66t40.5 -111q7 -42 17 -74.5t21 -54.5q17 -33 40 -50.5t53 -17.5h6q5 0 5 -4v-97q0 -5 -5 -5h-6q-43 0 -75.5 9.5t-57 29.5
t-44.5 50q-60 -16 -104 -30.5t-70 -27.5q-55 -28 -82.5 -63.5t-27.5 -80.5q0 -49 32 -76.5t88 -27.5zM470 -265q-30 0 -47 18t-17 50t17 50t47 18q29 0 45.5 -18.5t16.5 -49.5t-16.5 -49.5t-45.5 -18.5z" />
    <glyph glyph-name="uniFC4C" unicode="&#xfc4c;" horiz-adv-x="971" arabic-form="isolated" 
d="M630 0q-5 0 -5 5v97q0 4 5 4h127v386h129v-492h-256zM783 605q-30 0 -47 18t-17 50t17 50t47 18q29 0 45.5 -18.5t16.5 -49.5t-16.5 -49.5t-45.5 -18.5zM634 0q-43 0 -75.5 9.5t-57 29.5t-44.5 50q-40 -10 -73 -20t-58 -19.5t-43 -18.5q-55 -28 -82.5 -63.5t-27.5 -80.5
q0 -33 15 -56t43.5 -35.5t66.5 -12.5q31 0 67.5 5t79.5 14l15 -96q-49 -15 -98.5 -22.5t-95.5 -7.5q-66 0 -116 24.5t-77.5 70.5t-27.5 108q0 46 17.5 85.5t51.5 71.5q27 28 66 53t96 47.5t138 45.5q-7 19 -13 40t-11 44q-9 44 -27.5 73t-45.5 43t-65 14q-33 0 -74.5 -12.5
t-82.5 -35.5l-47 97q44 25 105.5 41t119.5 16q66 0 113 -22.5t76.5 -68t42.5 -116.5q6 -34 14 -63.5t19 -50.5q17 -37 41 -56t55 -19h6q5 0 5 -4v-97q0 -5 -5 -5h-6z" />
    <glyph glyph-name="uniFC4D" unicode="&#xfc4d;" horiz-adv-x="971" arabic-form="isolated" 
d="M630 0q-5 0 -5 5v97q0 4 5 4h127v386h129v-492h-256zM783 605q-30 0 -47 18t-17 50t17 50t47 18q29 0 45.5 -18.5t16.5 -49.5t-16.5 -49.5t-45.5 -18.5zM634 0q-43 0 -75.5 9.5t-57 29.5t-44.5 50q-40 -10 -73 -20t-58 -19.5t-43 -18.5q-55 -28 -82.5 -63.5t-27.5 -80.5
q0 -33 15 -56t43.5 -35.5t66.5 -12.5q31 0 67.5 5t79.5 14l15 -96q-49 -15 -98.5 -22.5t-95.5 -7.5q-66 0 -116 24.5t-77.5 70.5t-27.5 108q0 46 17.5 85.5t51.5 71.5q27 28 66 53t96 47.5t138 45.5q-7 19 -13 40t-11 44q-9 44 -27.5 73t-45.5 43t-65 14q-33 0 -74.5 -12.5
t-82.5 -35.5l-47 97q44 25 105.5 41t119.5 16q66 0 113 -22.5t76.5 -68t42.5 -116.5q6 -34 14 -63.5t19 -50.5q17 -37 41 -56t55 -19h6q5 0 5 -4v-97q0 -5 -5 -5h-6zM264 614q-30 0 -47 18t-17 50t17 50t47 18q29 0 45.5 -18.5t16.5 -49.5t-16.5 -49.5t-45.5 -18.5z" />
    <glyph glyph-name="uniFC4E" unicode="&#xfc4e;" horiz-adv-x="1058" arabic-form="isolated" 
d="M717 0q-5 0 -5 5v97q0 4 5 4h127v386h129v-492h-256zM870 605q-30 0 -47 18t-17 50t17 50t47 18q29 0 45.5 -18.5t16.5 -49.5t-16.5 -49.5t-45.5 -18.5zM270 0q-42 0 -60 -18t-18 -58v-244h-127v282q0 43 15 75.5t43.5 50t68.5 17.5h3q-15 37 -22.5 75t-7.5 75
q0 44 13 91.5t33 81.5q42 28 94.5 44t98.5 16q33 0 63 -7t56 -21q53 -29 82.5 -82t29.5 -121q0 -28 -5 -54.5t-15 -52.5q19 -24 44 -34t63 -10h5q5 0 5 -4v-97q0 -5 -5 -5h-5q-53 0 -91.5 15t-73.5 51q-36 -33 -83 -49.5t-97 -16.5h-107zM287 247q0 -32 6.5 -67t21.5 -74h49
q42 0 73.5 19t49.5 53.5t18 79.5q0 57 -29 91t-74 34q-25 0 -50.5 -8.5t-50.5 -24.5q-8 -24 -11 -49.5t-3 -53.5z" />
    <glyph glyph-name="uniFC4F" unicode="&#xfc4f;" horiz-adv-x="1328" arabic-form="isolated" 
d="M986 0q-5 0 -5 5v97q0 4 5 4h127v386h129v-492h-256zM1140 605q-30 0 -47 18t-17 50t17 50t47 18q29 0 45.5 -18.5t16.5 -49.5t-16.5 -49.5t-45.5 -18.5zM266 -240q-61 0 -106.5 30t-70 82.5t-24.5 119.5q0 50 8 96t25 93h116q-14 -41 -18.5 -79.5t-4.5 -92.5
q0 -41 16 -73.5t44 -51t63 -18.5h177q43 0 76 6.5t52.5 20.5t19.5 38q0 19 -17 32t-53 23q-54 14 -88 32.5t-50 46t-16 67.5q0 27 9.5 55t27.5 56q25 37 60 67t73.5 47t74.5 17q17 0 32 -3t28 -9q31 -15 58.5 -45.5t67.5 -89.5q26 -40 46.5 -64t36.5 -36q14 -10 29.5 -15.5
t32.5 -5.5h5q5 0 5 -4v-97q0 -5 -5 -5h-5q-33 0 -61 7t-53 24t-53 45q-5 5 -18 22.5t-33 45.5q-23 33 -41.5 55.5t-32.5 33.5q-13 12 -26.5 17.5t-25.5 5.5q-16 0 -35 -10.5t-36 -27.5t-28 -35t-11 -33q0 -13 8.5 -24t25 -20t39.5 -16q34 -10 58 -20t40 -19q30 -18 45.5 -44
t15.5 -60q0 -92 -69.5 -139.5t-207.5 -47.5h-226z" />
    <glyph glyph-name="uniFC50" unicode="&#xfc50;" horiz-adv-x="1328" arabic-form="isolated" 
d="M986 0q-5 0 -5 5v97q0 4 5 4h127v386h129v-492h-256zM1140 605q-30 0 -47 18t-17 50t17 50t47 18q29 0 45.5 -18.5t16.5 -49.5t-16.5 -49.5t-45.5 -18.5zM266 -240q-61 0 -106.5 30t-70 82.5t-24.5 119.5q0 50 8 96t25 93h116q-14 -41 -18.5 -79.5t-4.5 -92.5
q0 -41 16 -73.5t44 -51t63 -18.5h177q43 0 76 6.5t52.5 20.5t19.5 38q0 19 -17 32t-53 23q-54 14 -88 32.5t-50 46t-16 67.5q0 27 9.5 55t27.5 56q25 37 60 67t73.5 47t74.5 17q17 0 32 -3t28 -9q31 -15 58.5 -45.5t67.5 -89.5q26 -40 46.5 -64t36.5 -36q14 -10 29.5 -15.5
t32.5 -5.5h5q5 0 5 -4v-97q0 -5 -5 -5h-5q-33 0 -61 7t-53 24t-53 45q-5 5 -18 22.5t-33 45.5q-23 33 -41.5 55.5t-32.5 33.5q-13 12 -26.5 17.5t-25.5 5.5q-16 0 -35 -10.5t-36 -27.5t-28 -35t-11 -33q0 -13 8.5 -24t25 -20t39.5 -16q34 -10 58 -20t40 -19q30 -18 45.5 -44
t15.5 -60q0 -92 -69.5 -139.5t-207.5 -47.5h-226zM307 -461q-28 0 -45.5 17.5t-17.5 50.5q0 32 17.5 50t45.5 18q30 0 46.5 -18t16.5 -50q0 -33 -17 -50.5t-46 -17.5zM478 -461q-29 0 -46 18t-17 50q0 31 17 49.5t46 18.5q30 0 46.5 -18.5t16.5 -49.5t-17 -49.5t-46 -18.5z
" />
    <glyph glyph-name="uniFC51" unicode="&#xfc51;" horiz-adv-x="1485" arabic-form="isolated" 
d="M764 106q-24 19 -40 55t-16 86q0 61 30.5 109.5t82.5 77t118 28.5q63 0 109 -25.5t70.5 -74t24.5 -117.5v-139h137v189q0 130 -62.5 196.5t-186.5 66.5q-66 0 -119.5 -8.5t-103.5 -26.5l-31 102q42 14 82.5 22.5t83 13t88.5 4.5q186 0 281 -93t95 -266v-306h-777
q-5 0 -5 5v97q0 4 5 4h134zM967 106h49v130q0 59 -22 86t-67 27q-39 0 -63 -29.5t-24 -77.5q0 -43 15 -73.5t43.5 -46.5t68.5 -16zM266 -324q-66 0 -116 24.5t-77.5 70.5t-27.5 108q0 46 17.5 85.5t51.5 71.5q27 28 66 53t96 47.5t138 45.5q-7 19 -13 40t-11 44
q-9 44 -27.5 73t-45.5 43t-65 14q-33 0 -74.5 -12.5t-82.5 -35.5l-47 97q30 17 67.5 30t78.5 20t79 7q66 0 113 -22t76.5 -66t40.5 -111q7 -42 17 -74.5t21 -54.5q17 -33 40 -50.5t53 -17.5h6q5 0 5 -4v-97q0 -5 -5 -5h-6q-43 0 -75.5 9.5t-57 29.5t-44.5 50
q-60 -16 -104 -30.5t-70 -27.5q-55 -28 -82.5 -63.5t-27.5 -80.5q0 -49 32 -76.5t88 -27.5zM470 -265q-30 0 -47 18t-17 50t17 50t47 18q29 0 45.5 -18.5t16.5 -49.5t-16.5 -49.5t-45.5 -18.5z" />
    <glyph glyph-name="uniFC52" unicode="&#xfc52;" horiz-adv-x="1572" arabic-form="isolated" 
d="M851 106q-24 19 -40 55t-16 86q0 61 30.5 109.5t82.5 77t118 28.5q63 0 109 -25.5t70.5 -74t24.5 -117.5v-139h137v189q0 130 -62.5 196.5t-186.5 66.5q-66 0 -119.5 -8.5t-103.5 -26.5l-31 102q42 14 82.5 22.5t83 13t88.5 4.5q186 0 281 -93t95 -266v-306h-777
q-5 0 -5 5v97q0 4 5 4h134zM1054 106h49v130q0 59 -22 86t-67 27q-39 0 -63 -29.5t-24 -77.5q0 -43 15 -73.5t43.5 -46.5t68.5 -16zM270 0q-42 0 -60 -18t-18 -58v-244h-127v282q0 43 15 75.5t43.5 50t68.5 17.5h3q-15 37 -22.5 75t-7.5 75q0 44 13 91.5t33 81.5
q42 28 94.5 44t98.5 16q33 0 63 -7t56 -21q53 -29 82.5 -82t29.5 -121q0 -28 -5 -54.5t-15 -52.5q19 -24 44 -34t63 -10h5q5 0 5 -4v-97q0 -5 -5 -5h-5q-53 0 -91.5 15t-73.5 51q-36 -33 -83 -49.5t-97 -16.5h-107zM287 247q0 -32 6.5 -67t21.5 -74h49q42 0 73.5 19
t49.5 53.5t18 79.5q0 57 -29 91t-74 34q-25 0 -50.5 -8.5t-50.5 -24.5q-8 -24 -11 -49.5t-3 -53.5z" />
    <glyph glyph-name="uniFC53" unicode="&#xfc53;" horiz-adv-x="1842" arabic-form="isolated" 
d="M1120 106q-24 19 -40 55t-16 86q0 61 30.5 109.5t82.5 77t118 28.5q63 0 109 -25.5t70.5 -74t24.5 -117.5v-139h137v189q0 130 -62.5 196.5t-186.5 66.5q-66 0 -119.5 -8.5t-103.5 -26.5l-31 102q42 14 82.5 22.5t83 13t88.5 4.5q186 0 281 -93t95 -266v-306h-777
q-5 0 -5 5v97q0 4 5 4h134zM1323 106h49v130q0 59 -22 86t-67 27q-39 0 -63 -29.5t-24 -77.5q0 -43 15 -73.5t43.5 -46.5t68.5 -16zM266 -240q-61 0 -106.5 30t-70 82.5t-24.5 119.5q0 50 8 96t25 93h116q-14 -41 -18.5 -79.5t-4.5 -92.5q0 -41 16 -73.5t44 -51t63 -18.5
h177q43 0 76 6.5t52.5 20.5t19.5 38q0 19 -17 32t-53 23q-54 14 -88 32.5t-50 46t-16 67.5q0 27 9.5 55t27.5 56q25 37 60 67t73.5 47t74.5 17q17 0 32 -3t28 -9q31 -15 58.5 -45.5t67.5 -89.5q26 -40 46.5 -64t36.5 -36q14 -10 29.5 -15.5t32.5 -5.5h5q5 0 5 -4v-97
q0 -5 -5 -5h-5q-33 0 -61 7t-53 24t-53 45q-5 5 -18 22.5t-33 45.5q-23 33 -41.5 55.5t-32.5 33.5q-13 12 -26.5 17.5t-25.5 5.5q-16 0 -35 -10.5t-36 -27.5t-28 -35t-11 -33q0 -13 8.5 -24t25 -20t39.5 -16q34 -10 58 -20t40 -19q30 -18 45.5 -44t15.5 -60
q0 -92 -69.5 -139.5t-207.5 -47.5h-226z" />
    <glyph glyph-name="uniFC54" unicode="&#xfc54;" horiz-adv-x="1842" arabic-form="isolated" 
d="M1120 106q-24 19 -40 55t-16 86q0 61 30.5 109.5t82.5 77t118 28.5q63 0 109 -25.5t70.5 -74t24.5 -117.5v-139h137v189q0 130 -62.5 196.5t-186.5 66.5q-66 0 -119.5 -8.5t-103.5 -26.5l-31 102q42 14 82.5 22.5t83 13t88.5 4.5q186 0 281 -93t95 -266v-306h-777
q-5 0 -5 5v97q0 4 5 4h134zM1323 106h49v130q0 59 -22 86t-67 27q-39 0 -63 -29.5t-24 -77.5q0 -43 15 -73.5t43.5 -46.5t68.5 -16zM266 -240q-61 0 -106.5 30t-70 82.5t-24.5 119.5q0 50 8 96t25 93h116q-14 -41 -18.5 -79.5t-4.5 -92.5q0 -41 16 -73.5t44 -51t63 -18.5
h177q43 0 76 6.5t52.5 20.5t19.5 38q0 19 -17 32t-53 23q-54 14 -88 32.5t-50 46t-16 67.5q0 27 9.5 55t27.5 56q25 37 60 67t73.5 47t74.5 17q17 0 32 -3t28 -9q31 -15 58.5 -45.5t67.5 -89.5q26 -40 46.5 -64t36.5 -36q14 -10 29.5 -15.5t32.5 -5.5h5q5 0 5 -4v-97
q0 -5 -5 -5h-5q-33 0 -61 7t-53 24t-53 45q-5 5 -18 22.5t-33 45.5q-23 33 -41.5 55.5t-32.5 33.5q-13 12 -26.5 17.5t-25.5 5.5q-16 0 -35 -10.5t-36 -27.5t-28 -35t-11 -33q0 -13 8.5 -24t25 -20t39.5 -16q34 -10 58 -20t40 -19q30 -18 45.5 -44t15.5 -60
q0 -92 -69.5 -139.5t-207.5 -47.5h-226zM307 -461q-28 0 -45.5 17.5t-17.5 50.5q0 32 17.5 50t45.5 18q30 0 46.5 -18t16.5 -50q0 -33 -17 -50.5t-46 -17.5zM478 -461q-29 0 -46 18t-17 50q0 31 17 49.5t46 18.5q30 0 46.5 -18.5t16.5 -49.5t-17 -49.5t-46 -18.5z" />
    <glyph glyph-name="uniFC55" unicode="&#xfc55;" horiz-adv-x="1029" arabic-form="isolated" 
d="M630 0q-5 0 -5 5v97q0 4 5 4h181v386h129v-492h-310zM731 -217q-28 0 -45.5 17.5t-17.5 50.5q0 32 17.5 50t45.5 18q30 0 46.5 -18t16.5 -50q0 -33 -17 -50.5t-46 -17.5zM902 -217q-29 0 -46 18t-17 50q0 31 17 49.5t46 18.5q30 0 46.5 -18.5t16.5 -49.5t-17 -49.5
t-46 -18.5zM266 -324q-66 0 -116 24.5t-77.5 70.5t-27.5 108q0 46 17.5 85.5t51.5 71.5q27 28 66 53t96 47.5t138 45.5q-7 19 -13 40t-11 44q-9 44 -27.5 73t-45.5 43t-65 14q-33 0 -74.5 -12.5t-82.5 -35.5l-47 97q30 17 67.5 30t78.5 20t79 7q66 0 113 -22t76.5 -66
t40.5 -111q7 -42 17 -74.5t21 -54.5q17 -33 40 -50.5t53 -17.5h6q5 0 5 -4v-97q0 -5 -5 -5h-6q-43 0 -75.5 9.5t-57 29.5t-44.5 50q-60 -16 -104 -30.5t-70 -27.5q-55 -28 -82.5 -63.5t-27.5 -80.5q0 -49 32 -76.5t88 -27.5zM470 -265q-30 0 -47 18t-17 50t17 50t47 18
q29 0 45.5 -18.5t16.5 -49.5t-16.5 -49.5t-45.5 -18.5z" />
    <glyph glyph-name="uniFC56" unicode="&#xfc56;" horiz-adv-x="1029" arabic-form="isolated" 
d="M630 0q-5 0 -5 5v97q0 4 5 4h181v386h129v-492h-310zM731 -217q-28 0 -45.5 17.5t-17.5 50.5q0 32 17.5 50t45.5 18q30 0 46.5 -18t16.5 -50q0 -33 -17 -50.5t-46 -17.5zM902 -217q-29 0 -46 18t-17 50q0 31 17 49.5t46 18.5q30 0 46.5 -18.5t16.5 -49.5t-17 -49.5
t-46 -18.5zM634 0q-43 0 -75.5 9.5t-57 29.5t-44.5 50q-40 -10 -73 -20t-58 -19.5t-43 -18.5q-55 -28 -82.5 -63.5t-27.5 -80.5q0 -33 15 -56t43.5 -35.5t66.5 -12.5q31 0 67.5 5t79.5 14l15 -96q-49 -15 -98.5 -22.5t-95.5 -7.5q-66 0 -116 24.5t-77.5 70.5t-27.5 108
q0 46 17.5 85.5t51.5 71.5q27 28 66 53t96 47.5t138 45.5q-7 19 -13 40t-11 44q-9 44 -27.5 73t-45.5 43t-65 14q-33 0 -74.5 -12.5t-82.5 -35.5l-47 97q44 25 105.5 41t119.5 16q66 0 113 -22.5t76.5 -68t42.5 -116.5q6 -34 14 -63.5t19 -50.5q17 -37 41 -56t55 -19h6
q5 0 5 -4v-97q0 -5 -5 -5h-6z" />
    <glyph glyph-name="uniFC57" unicode="&#xfc57;" horiz-adv-x="1029" arabic-form="isolated" 
d="M630 0q-5 0 -5 5v97q0 4 5 4h181v386h129v-492h-310zM731 -217q-28 0 -45.5 17.5t-17.5 50.5q0 32 17.5 50t45.5 18q30 0 46.5 -18t16.5 -50q0 -33 -17 -50.5t-46 -17.5zM902 -217q-29 0 -46 18t-17 50q0 31 17 49.5t46 18.5q30 0 46.5 -18.5t16.5 -49.5t-17 -49.5
t-46 -18.5zM634 0q-43 0 -75.5 9.5t-57 29.5t-44.5 50q-40 -10 -73 -20t-58 -19.5t-43 -18.5q-55 -28 -82.5 -63.5t-27.5 -80.5q0 -33 15 -56t43.5 -35.5t66.5 -12.5q31 0 67.5 5t79.5 14l15 -96q-49 -15 -98.5 -22.5t-95.5 -7.5q-66 0 -116 24.5t-77.5 70.5t-27.5 108
q0 46 17.5 85.5t51.5 71.5q27 28 66 53t96 47.5t138 45.5q-7 19 -13 40t-11 44q-9 44 -27.5 73t-45.5 43t-65 14q-33 0 -74.5 -12.5t-82.5 -35.5l-47 97q44 25 105.5 41t119.5 16q66 0 113 -22.5t76.5 -68t42.5 -116.5q6 -34 14 -63.5t19 -50.5q17 -37 41 -56t55 -19h6
q5 0 5 -4v-97q0 -5 -5 -5h-6zM264 614q-30 0 -47 18t-17 50t17 50t47 18q29 0 45.5 -18.5t16.5 -49.5t-16.5 -49.5t-45.5 -18.5z" />
    <glyph glyph-name="uniFC58" unicode="&#xfc58;" horiz-adv-x="1116" arabic-form="isolated" 
d="M717 0q-5 0 -5 5v97q0 4 5 4h181v386h129v-492h-310zM818 -217q-28 0 -45.5 17.5t-17.5 50.5q0 32 17.5 50t45.5 18q30 0 46.5 -18t16.5 -50q0 -33 -17 -50.5t-46 -17.5zM989 -217q-29 0 -46 18t-17 50q0 31 17 49.5t46 18.5q30 0 46.5 -18.5t16.5 -49.5t-17 -49.5
t-46 -18.5zM270 0q-42 0 -60 -18t-18 -58v-244h-127v282q0 43 15 75.5t43.5 50t68.5 17.5h3q-15 37 -22.5 75t-7.5 75q0 44 13 91.5t33 81.5q42 28 94.5 44t98.5 16q33 0 63 -7t56 -21q53 -29 82.5 -82t29.5 -121q0 -28 -5 -54.5t-15 -52.5q19 -24 44 -34t63 -10h5q5 0 5 -4
v-97q0 -5 -5 -5h-5q-53 0 -91.5 15t-73.5 51q-36 -33 -83 -49.5t-97 -16.5h-107zM287 247q0 -32 6.5 -67t21.5 -74h49q42 0 73.5 19t49.5 53.5t18 79.5q0 57 -29 91t-74 34q-25 0 -50.5 -8.5t-50.5 -24.5q-8 -24 -11 -49.5t-3 -53.5z" />
    <glyph glyph-name="uniFC59" unicode="&#xfc59;" horiz-adv-x="1385" arabic-form="isolated" 
d="M986 0q-5 0 -5 5v97q0 4 5 4h181v386h129v-492h-310zM1087 -217q-28 0 -45.5 17.5t-17.5 50.5q0 32 17.5 50t45.5 18q30 0 46.5 -18t16.5 -50q0 -33 -17 -50.5t-46 -17.5zM1258 -217q-29 0 -46 18t-17 50q0 31 17 49.5t46 18.5q30 0 46.5 -18.5t16.5 -49.5t-17 -49.5
t-46 -18.5zM266 -240q-61 0 -106.5 30t-70 82.5t-24.5 119.5q0 50 8 96t25 93h116q-14 -41 -18.5 -79.5t-4.5 -92.5q0 -41 16 -73.5t44 -51t63 -18.5h177q43 0 76 6.5t52.5 20.5t19.5 38q0 19 -17 32t-53 23q-54 14 -88 32.5t-50 46t-16 67.5q0 27 9.5 55t27.5 56
q25 37 60 67t73.5 47t74.5 17q17 0 32 -3t28 -9q31 -15 58.5 -45.5t67.5 -89.5q26 -40 46.5 -64t36.5 -36q14 -10 29.5 -15.5t32.5 -5.5h5q5 0 5 -4v-97q0 -5 -5 -5h-5q-33 0 -61 7t-53 24t-53 45q-5 5 -18 22.5t-33 45.5q-23 33 -41.5 55.5t-32.5 33.5q-13 12 -26.5 17.5
t-25.5 5.5q-16 0 -35 -10.5t-36 -27.5t-28 -35t-11 -33q0 -13 8.5 -24t25 -20t39.5 -16q34 -10 58 -20t40 -19q30 -18 45.5 -44t15.5 -60q0 -92 -69.5 -139.5t-207.5 -47.5h-226z" />
    <glyph glyph-name="uniFC5A" unicode="&#xfc5a;" horiz-adv-x="1385" arabic-form="isolated" 
d="M986 0q-5 0 -5 5v97q0 4 5 4h181v386h129v-492h-310zM1087 -217q-28 0 -45.5 17.5t-17.5 50.5q0 32 17.5 50t45.5 18q30 0 46.5 -18t16.5 -50q0 -33 -17 -50.5t-46 -17.5zM1258 -217q-29 0 -46 18t-17 50q0 31 17 49.5t46 18.5q30 0 46.5 -18.5t16.5 -49.5t-17 -49.5
t-46 -18.5zM266 -240q-61 0 -106.5 30t-70 82.5t-24.5 119.5q0 50 8 96t25 93h116q-14 -41 -18.5 -79.5t-4.5 -92.5q0 -41 16 -73.5t44 -51t63 -18.5h177q43 0 76 6.5t52.5 20.5t19.5 38q0 19 -17 32t-53 23q-54 14 -88 32.5t-50 46t-16 67.5q0 27 9.5 55t27.5 56
q25 37 60 67t73.5 47t74.5 17q17 0 32 -3t28 -9q31 -15 58.5 -45.5t67.5 -89.5q26 -40 46.5 -64t36.5 -36q14 -10 29.5 -15.5t32.5 -5.5h5q5 0 5 -4v-97q0 -5 -5 -5h-5q-33 0 -61 7t-53 24t-53 45q-5 5 -18 22.5t-33 45.5q-23 33 -41.5 55.5t-32.5 33.5q-13 12 -26.5 17.5
t-25.5 5.5q-16 0 -35 -10.5t-36 -27.5t-28 -35t-11 -33q0 -13 8.5 -24t25 -20t39.5 -16q34 -10 58 -20t40 -19q30 -18 45.5 -44t15.5 -60q0 -92 -69.5 -139.5t-207.5 -47.5h-226zM307 -461q-28 0 -45.5 17.5t-17.5 50.5q0 32 17.5 50t45.5 18q30 0 46.5 -18t16.5 -50
q0 -33 -17 -50.5t-46 -17.5zM478 -461q-29 0 -46 18t-17 50q0 31 17 49.5t46 18.5q30 0 46.5 -18.5t16.5 -49.5t-17 -49.5t-46 -18.5z" />
    <glyph glyph-name="uniFC5B" unicode="&#xfc5b;" horiz-adv-x="566" arabic-form="isolated" 
d="M45 106h334q-9 43 -20 79.5t-25 65.5q-29 65 -75.5 113.5t-115.5 82.5l48 119q86 -37 149 -100t104.5 -153t63.5 -210v-103h-463v106zM194 663q-30 0 -47 18t-17 50t17 50t47 18q29 0 45.5 -18.5t16.5 -49.5t-16.5 -49.5t-45.5 -18.5zM162 1037h64v-194h-64v194z" />
    <glyph glyph-name="uniFC5C" unicode="&#xfc5c;" horiz-adv-x="400" arabic-form="isolated" 
d="M117 -240q-42 0 -79.5 10.5t-77.5 36.5l49 87q25 -15 44 -20t44 -5q41 0 66 32.5t25 82.5v508h127v-511q0 -67 -24 -117t-68 -77t-106 -27zM213 777h64v-194h-64v194z" />
    <glyph glyph-name="uniFC5D" unicode="&#xfc5d;" horiz-adv-x="868" arabic-form="isolated" 
d="M266 -240q-61 0 -106.5 30t-70 82.5t-24.5 119.5q0 50 8 96t25 93h116q-14 -41 -18.5 -79.5t-4.5 -92.5q0 -41 16 -73.5t44 -51t63 -18.5h180q45 0 79.5 7.5t55 23.5t20.5 43q0 17 -10 31.5t-27.5 28.5t-41.5 28q-24 16 -47 30.5t-45 30.5q-30 22 -48 40t-25.5 36.5
t-7.5 38.5q0 30 13 63t37 69q34 48 77.5 84.5t90.5 57t91 20.5q18 0 36.5 -4.5t39.5 -14.5t45 -26l-48 -95q-12 7 -26 12t-28 8.5t-27 3.5q-16 0 -34.5 -7.5t-39.5 -20.5q-29 -18 -52 -40.5t-36.5 -45t-13.5 -41.5q0 -13 12.5 -27.5t32 -28.5t39.5 -27q26 -16 49 -33t43 -34
q40 -34 60.5 -68t20.5 -68q0 -89 -73.5 -135t-210.5 -46h-229zM196 526h64v-194h-64v194z" />
    <glyph glyph-name="uniFC5E" unicode="&#xfc5e;" horiz-adv-x="326" arabic-form="isolated" 
d="M85 806q-40 0 -62.5 25t-22.5 72v63h59v-49q0 -28 7.5 -41.5t28.5 -13.5t31 10.5t10 35.5v83h54v-63q0 -24 8 -35t30 -11t30.5 11t8.5 44v69h59v-83q0 -46 -23 -71.5t-67 -25.5q-23 0 -40.5 7.5t-29.5 22.5q-12 -25 -32 -37.5t-49 -12.5zM173 1046q-36 0 -62.5 11.5
t-55.5 36.5l-43 -36l-35 45l84 75q27 -38 54.5 -57.5t53.5 -19.5q7 0 13 1t10 2q-15 21 -23 43t-8 42q0 39 25.5 62t66.5 23q40 0 64 -22.5t24 -58.5q0 -40 -23 -74q-15 -22 -38 -38.5t-50 -25.5t-57 -9zM243 1123q22 13 31 30.5t9 34.5q0 14 -9 23t-23 9q-13 0 -23 -9
t-10 -27q0 -13 6 -28t19 -33z" />
    <glyph glyph-name="uniFC5F" unicode="&#xfc5f;" arabic-form="isolated" 
d="M85 819q-40 0 -62.5 25.5t-22.5 71.5v63h59v-49q0 -28 7.5 -41.5t28.5 -13.5t31 10.5t10 35.5v83h54v-63q0 -24 8 -35t30 -11t30.5 11.5t8.5 43.5v69h59v-83q0 -46 -23 -71.5t-67 -25.5q-23 0 -40.5 7.5t-29.5 22.5q-12 -25 -32 -37.5t-49 -12.5zM45 598l234 87v-61
l-234 -88v62zM45 718l234 87v-61l-234 -88v62z" />
    <glyph glyph-name="uniFC60" unicode="&#xfc60;" arabic-form="isolated" 
d="M85 806q-40 0 -62.5 25t-22.5 72v63h59v-49q0 -28 7.5 -41.5t28.5 -13.5t31 10.5t10 35.5v83h54v-63q0 -24 8 -35t30 -11t30.5 11t8.5 44v69h59v-83q0 -46 -23 -71.5t-67 -25.5q-23 0 -40.5 7.5t-29.5 22.5q-12 -25 -32 -37.5t-49 -12.5zM42 1087l234 87v-61l-234 -88v62
z" />
    <glyph glyph-name="uniFC61" unicode="&#xfc61;" arabic-form="isolated" 
d="M85 806q-40 0 -62.5 25t-22.5 72v63h59v-49q0 -28 7.5 -41.5t28.5 -13.5t31 10.5t10 35.5v83h54v-63q0 -24 8 -35t30 -11t30.5 11t8.5 44v69h59v-83q0 -46 -23 -71.5t-67 -25.5q-23 0 -40.5 7.5t-29.5 22.5q-12 -25 -32 -37.5t-49 -12.5zM117 1045q-28 0 -54.5 9
t-50.5 26l32 47q21 -13 38.5 -20t32.5 -7q13 0 24.5 1.5t19.5 4.5q-29 41 -29 82q0 39 25.5 62t66.5 23q40 0 64 -23t24 -58q0 -18 -6.5 -35.5t-20.5 -34.5q-27 -36 -71 -56.5t-95 -20.5zM209 1125q23 13 33 30.5t10 32.5q0 14 -9 22.5t-23 8.5t-24 -9t-10 -27
q0 -13 6 -27.5t17 -30.5z" />
    <glyph glyph-name="uniFC62" unicode="&#xfc62;" arabic-form="isolated" 
d="M85 816q-40 0 -62.5 25t-22.5 72v63h59v-49q0 -28 7.5 -41.5t28.5 -13.5t31 10.5t10 35.5v83h54v-63q0 -24 8 -35t30 -11t30.5 11t8.5 44v69h59v-83q0 -46 -23 -71.5t-67 -25.5q-23 0 -40.5 7.5t-29.5 22.5q-12 -25 -32 -37.5t-49 -12.5zM43 705l234 87v-60l-234 -88v61z
" />
    <glyph glyph-name="uniFC63" unicode="&#xfc63;" arabic-form="isolated" 
d="M85 806q-40 0 -62.5 25t-22.5 72v63h59v-49q0 -28 7.5 -41.5t28.5 -13.5t31 10.5t10 35.5v83h54v-63q0 -24 8 -35t30 -11t30.5 11t8.5 44v69h59v-83q0 -46 -23 -71.5t-67 -25.5q-23 0 -40.5 7.5t-29.5 22.5q-12 -25 -32 -37.5t-49 -12.5zM130 1229h64v-194h-64v194z" />
    <glyph glyph-name="uniFC64" unicode="&#xfc64;" horiz-adv-x="815" arabic-form="final" 
d="M433 0q-5 0 -5 5v97q0 4 5 4h127v386h129v-386h130q5 0 5 -4v-97q0 -5 -5 -5h-386zM475 643l54 9q-19 10 -30.5 27t-11.5 39q0 43 29.5 67t77.5 24q46 0 77 -17l-18 -49q-12 6 -25.5 9t-27.5 3q-22 0 -35.5 -12.5t-13.5 -36.5q0 -16 8.5 -27.5t21.5 -17.5q24 4 43 6.5
t33 4.5t23 2v-55q-18 -1 -47 -4.5t-61 -7t-58 -7t-39 -6.5v49zM315 0v-19q0 -67 -24 -117t-68 -77t-106 -27q-42 0 -79.5 10.5t-77.5 36.5l49 87q25 -15 44 -20t44 -5q41 0 66 32.5t25 82.5v508h127v-386h128q5 0 5 -4v-97q0 -5 -5 -5h-128z" />
    <glyph glyph-name="uniFC65" unicode="&#xfc65;" horiz-adv-x="815" arabic-form="final" 
d="M433 0q-5 0 -5 5v97q0 4 5 4h127v386h129v-386h130q5 0 5 -4v-97q0 -5 -5 -5h-386zM475 643l54 9q-19 10 -30.5 27t-11.5 39q0 43 29.5 67t77.5 24q46 0 77 -17l-18 -49q-12 6 -25.5 9t-27.5 3q-22 0 -35.5 -12.5t-13.5 -36.5q0 -16 8.5 -27.5t21.5 -17.5q24 4 43 6.5
t33 4.5t23 2v-55q-18 -1 -47 -4.5t-61 -7t-58 -7t-39 -6.5v49zM315 0v-19q0 -67 -24 -117t-68 -77t-106 -27q-42 0 -79.5 10.5t-77.5 36.5l49 87q25 -15 44 -20t44 -5q41 0 66 32.5t25 82.5v508h127v-386h128q5 0 5 -4v-97q0 -5 -5 -5h-128zM244 592q-30 0 -47 18t-17 50
t17 50t47 18q29 0 45.5 -18.5t16.5 -49.5t-16.5 -49.5t-45.5 -18.5z" />
    <glyph glyph-name="uniFC66" unicode="&#xfc66;" horiz-adv-x="1098" arabic-form="final" 
d="M717 0q-5 0 -5 5v97q0 4 5 4h127v386h129v-386h130q5 0 5 -4v-97q0 -5 -5 -5h-386zM759 643l54 9q-19 10 -30.5 27t-11.5 39q0 43 29.5 67t77.5 24q46 0 77 -17l-18 -49q-12 6 -25.5 9t-27.5 3q-22 0 -35.5 -12.5t-13.5 -36.5q0 -16 8.5 -27.5t21.5 -17.5q24 4 43 6.5
t33 4.5t23 2v-55q-18 -1 -47 -4.5t-61 -7t-58 -7t-39 -6.5v49zM270 0q-42 0 -60 -18t-18 -58v-244h-127v282q0 43 15 75.5t43.5 50t68.5 17.5h3q-15 37 -22.5 75t-7.5 75q0 44 13 91.5t33 81.5q42 28 94.5 44t98.5 16q33 0 63 -7t56 -21q53 -29 82.5 -82t29.5 -121
q0 -28 -5 -54.5t-15 -52.5q19 -24 44 -34t63 -10h5q5 0 5 -4v-97q0 -5 -5 -5h-5q-53 0 -91.5 15t-73.5 51q-36 -33 -83 -49.5t-97 -16.5h-107zM287 247q0 -32 6.5 -67t21.5 -74h49q42 0 73.5 19t49.5 53.5t18 79.5q0 57 -29 91t-74 34q-25 0 -50.5 -8.5t-50.5 -24.5
q-8 -24 -11 -49.5t-3 -53.5z" />
    <glyph glyph-name="uniFC67" unicode="&#xfc67;" horiz-adv-x="1140" arabic-form="final" 
d="M759 0q-5 0 -5 5v97q0 4 5 4h127v386h129v-386h130q5 0 5 -4v-97q0 -5 -5 -5h-386zM801 643l54 9q-19 10 -30.5 27t-11.5 39q0 43 29.5 67t77.5 24q46 0 77 -17l-18 -49q-12 6 -25.5 9t-27.5 3q-22 0 -35.5 -12.5t-13.5 -36.5q0 -16 8.5 -27.5t21.5 -17.5q24 4 43 6.5
t33 4.5t23 2v-55q-18 -1 -47 -4.5t-61 -7t-58 -7t-39 -6.5v49zM646 0q-6 -120 -75.5 -180t-203.5 -60h-54q-40 0 -74 9.5t-63 27.5q-53 33 -82 93t-29 137q0 58 12.5 115.5t35.5 105.5h115q-16 -50 -25 -107t-9 -113q0 -75 35.5 -118.5t96.5 -43.5h37q54 0 88 18t51 54
t17 87v467h127v-386h123q5 0 5 -4v-97q0 -5 -5 -5h-123zM340 489q-30 0 -47 18t-17 50t17 50t47 18q29 0 45.5 -18.5t16.5 -49.5t-16.5 -49.5t-45.5 -18.5z" />
    <glyph glyph-name="uniFC68" unicode="&#xfc68;" horiz-adv-x="1368" arabic-form="final" 
d="M986 0q-5 0 -5 5v97q0 4 5 4h127v386h129v-386h130q5 0 5 -4v-97q0 -5 -5 -5h-386zM1028 643l54 9q-19 10 -30.5 27t-11.5 39q0 43 29.5 67t77.5 24q46 0 77 -17l-18 -49q-12 6 -25.5 9t-27.5 3q-22 0 -35.5 -12.5t-13.5 -36.5q0 -16 8.5 -27.5t21.5 -17.5q24 4 43 6.5
t33 4.5t23 2v-55q-18 -1 -47 -4.5t-61 -7t-58 -7t-39 -6.5v49zM266 -240q-61 0 -106.5 30t-70 82.5t-24.5 119.5q0 50 8 96t25 93h116q-14 -41 -18.5 -79.5t-4.5 -92.5q0 -41 16 -73.5t44 -51t63 -18.5h177q43 0 76 6.5t52.5 20.5t19.5 38q0 19 -17 32t-53 23
q-54 14 -88 32.5t-50 46t-16 67.5q0 27 9.5 55t27.5 56q25 37 60 67t73.5 47t74.5 17q17 0 32 -3t28 -9q31 -15 58.5 -45.5t67.5 -89.5q26 -40 46.5 -64t36.5 -36q14 -10 29.5 -15.5t32.5 -5.5h5q5 0 5 -4v-97q0 -5 -5 -5h-5q-33 0 -61 7t-53 24t-53 45q-5 5 -18 22.5
t-33 45.5q-23 33 -41.5 55.5t-32.5 33.5q-13 12 -26.5 17.5t-25.5 5.5q-16 0 -35 -10.5t-36 -27.5t-28 -35t-11 -33q0 -13 8.5 -24t25 -20t39.5 -16q34 -10 58 -20t40 -19q30 -18 45.5 -44t15.5 -60q0 -92 -69.5 -139.5t-207.5 -47.5h-226z" />
    <glyph glyph-name="uniFC69" unicode="&#xfc69;" horiz-adv-x="1368" arabic-form="final" 
d="M986 0q-5 0 -5 5v97q0 4 5 4h127v386h129v-386h130q5 0 5 -4v-97q0 -5 -5 -5h-386zM1028 643l54 9q-19 10 -30.5 27t-11.5 39q0 43 29.5 67t77.5 24q46 0 77 -17l-18 -49q-12 6 -25.5 9t-27.5 3q-22 0 -35.5 -12.5t-13.5 -36.5q0 -16 8.5 -27.5t21.5 -17.5q24 4 43 6.5
t33 4.5t23 2v-55q-18 -1 -47 -4.5t-61 -7t-58 -7t-39 -6.5v49zM266 -240q-61 0 -106.5 30t-70 82.5t-24.5 119.5q0 50 8 96t25 93h116q-14 -41 -18.5 -79.5t-4.5 -92.5q0 -41 16 -73.5t44 -51t63 -18.5h177q43 0 76 6.5t52.5 20.5t19.5 38q0 19 -17 32t-53 23
q-54 14 -88 32.5t-50 46t-16 67.5q0 27 9.5 55t27.5 56q25 37 60 67t73.5 47t74.5 17q17 0 32 -3t28 -9q31 -15 58.5 -45.5t67.5 -89.5q26 -40 46.5 -64t36.5 -36q14 -10 29.5 -15.5t32.5 -5.5h5q5 0 5 -4v-97q0 -5 -5 -5h-5q-33 0 -61 7t-53 24t-53 45q-5 5 -18 22.5
t-33 45.5q-23 33 -41.5 55.5t-32.5 33.5q-13 12 -26.5 17.5t-25.5 5.5q-16 0 -35 -10.5t-36 -27.5t-28 -35t-11 -33q0 -13 8.5 -24t25 -20t39.5 -16q34 -10 58 -20t40 -19q30 -18 45.5 -44t15.5 -60q0 -92 -69.5 -139.5t-207.5 -47.5h-226zM307 -461q-28 0 -45.5 17.5
t-17.5 50.5q0 32 17.5 50t45.5 18q30 0 46.5 -18t16.5 -50q0 -33 -17 -50.5t-46 -17.5zM478 -461q-29 0 -46 18t-17 50q0 31 17 49.5t46 18.5q30 0 46.5 -18.5t16.5 -49.5t-17 -49.5t-46 -18.5z" />
    <glyph glyph-name="uniFC6A" unicode="&#xfc6a;" horiz-adv-x="815" arabic-form="final" 
d="M433 0q-5 0 -5 5v97q0 4 5 4h127v386h129v-386h130q5 0 5 -4v-97q0 -5 -5 -5h-386zM604 -239q-29 0 -46 18t-17 50q0 31 16.5 49.5t46.5 18.5t46.5 -18.5t16.5 -49.5t-17 -49.5t-46 -18.5zM315 0v-19q0 -67 -24 -117t-68 -77t-106 -27q-42 0 -79.5 10.5t-77.5 36.5l49 87
q25 -15 44 -20t44 -5q41 0 66 32.5t25 82.5v508h127v-386h128q5 0 5 -4v-97q0 -5 -5 -5h-128z" />
    <glyph glyph-name="uniFC6B" unicode="&#xfc6b;" horiz-adv-x="815" arabic-form="final" 
d="M433 0q-5 0 -5 5v97q0 4 5 4h127v386h129v-386h130q5 0 5 -4v-97q0 -5 -5 -5h-386zM604 -239q-29 0 -46 18t-17 50q0 31 16.5 49.5t46.5 18.5t46.5 -18.5t16.5 -49.5t-17 -49.5t-46 -18.5zM315 0v-19q0 -67 -24 -117t-68 -77t-106 -27q-42 0 -79.5 10.5t-77.5 36.5l49 87
q25 -15 44 -20t44 -5q41 0 66 32.5t25 82.5v508h127v-386h128q5 0 5 -4v-97q0 -5 -5 -5h-128zM244 592q-30 0 -47 18t-17 50t17 50t47 18q29 0 45.5 -18.5t16.5 -49.5t-16.5 -49.5t-45.5 -18.5z" />
    <glyph glyph-name="uniFC6C" unicode="&#xfc6c;" horiz-adv-x="1098" arabic-form="final" 
d="M717 0q-5 0 -5 5v97q0 4 5 4h127v386h129v-386h130q5 0 5 -4v-97q0 -5 -5 -5h-386zM887 -239q-29 0 -46 18t-17 50q0 31 16.5 49.5t46.5 18.5t46.5 -18.5t16.5 -49.5t-17 -49.5t-46 -18.5zM270 0q-42 0 -60 -18t-18 -58v-244h-127v282q0 43 15 75.5t43.5 50t68.5 17.5h3
q-15 37 -22.5 75t-7.5 75q0 44 13 91.5t33 81.5q42 28 94.5 44t98.5 16q33 0 63 -7t56 -21q53 -29 82.5 -82t29.5 -121q0 -28 -5 -54.5t-15 -52.5q19 -24 44 -34t63 -10h5q5 0 5 -4v-97q0 -5 -5 -5h-5q-53 0 -91.5 15t-73.5 51q-36 -33 -83 -49.5t-97 -16.5h-107zM287 247
q0 -32 6.5 -67t21.5 -74h49q42 0 73.5 19t49.5 53.5t18 79.5q0 57 -29 91t-74 34q-25 0 -50.5 -8.5t-50.5 -24.5q-8 -24 -11 -49.5t-3 -53.5z" />
    <glyph glyph-name="uniFC6D" unicode="&#xfc6d;" horiz-adv-x="1140" arabic-form="final" 
d="M759 0q-5 0 -5 5v97q0 4 5 4h127v386h129v-386h130q5 0 5 -4v-97q0 -5 -5 -5h-386zM930 -239q-29 0 -46 18t-17 50q0 31 16.5 49.5t46.5 18.5t46.5 -18.5t16.5 -49.5t-17 -49.5t-46 -18.5zM646 0q-6 -120 -75.5 -180t-203.5 -60h-54q-40 0 -74 9.5t-63 27.5
q-53 33 -82 93t-29 137q0 58 12.5 115.5t35.5 105.5h115q-16 -50 -25 -107t-9 -113q0 -75 35.5 -118.5t96.5 -43.5h37q54 0 88 18t51 54t17 87v467h127v-386h123q5 0 5 -4v-97q0 -5 -5 -5h-123zM340 489q-30 0 -47 18t-17 50t17 50t47 18q29 0 45.5 -18.5t16.5 -49.5
t-16.5 -49.5t-45.5 -18.5z" />
    <glyph glyph-name="uniFC6E" unicode="&#xfc6e;" horiz-adv-x="1368" arabic-form="final" 
d="M986 0q-5 0 -5 5v97q0 4 5 4h127v386h129v-386h130q5 0 5 -4v-97q0 -5 -5 -5h-386zM1157 -239q-29 0 -46 18t-17 50q0 31 16.5 49.5t46.5 18.5t46.5 -18.5t16.5 -49.5t-17 -49.5t-46 -18.5zM266 -240q-61 0 -106.5 30t-70 82.5t-24.5 119.5q0 50 8 96t25 93h116
q-14 -41 -18.5 -79.5t-4.5 -92.5q0 -41 16 -73.5t44 -51t63 -18.5h177q43 0 76 6.5t52.5 20.5t19.5 38q0 19 -17 32t-53 23q-54 14 -88 32.5t-50 46t-16 67.5q0 27 9.5 55t27.5 56q25 37 60 67t73.5 47t74.5 17q17 0 32 -3t28 -9q31 -15 58.5 -45.5t67.5 -89.5
q26 -40 46.5 -64t36.5 -36q14 -10 29.5 -15.5t32.5 -5.5h5q5 0 5 -4v-97q0 -5 -5 -5h-5q-33 0 -61 7t-53 24t-53 45q-5 5 -18 22.5t-33 45.5q-23 33 -41.5 55.5t-32.5 33.5q-13 12 -26.5 17.5t-25.5 5.5q-16 0 -35 -10.5t-36 -27.5t-28 -35t-11 -33q0 -13 8.5 -24t25 -20
t39.5 -16q34 -10 58 -20t40 -19q30 -18 45.5 -44t15.5 -60q0 -92 -69.5 -139.5t-207.5 -47.5h-226z" />
    <glyph glyph-name="uniFC6F" unicode="&#xfc6f;" horiz-adv-x="1368" arabic-form="final" 
d="M986 0q-5 0 -5 5v97q0 4 5 4h127v386h129v-386h130q5 0 5 -4v-97q0 -5 -5 -5h-386zM1157 -239q-29 0 -46 18t-17 50q0 31 16.5 49.5t46.5 18.5t46.5 -18.5t16.5 -49.5t-17 -49.5t-46 -18.5zM266 -240q-61 0 -106.5 30t-70 82.5t-24.5 119.5q0 50 8 96t25 93h116
q-14 -41 -18.5 -79.5t-4.5 -92.5q0 -41 16 -73.5t44 -51t63 -18.5h177q43 0 76 6.5t52.5 20.5t19.5 38q0 19 -17 32t-53 23q-54 14 -88 32.5t-50 46t-16 67.5q0 27 9.5 55t27.5 56q25 37 60 67t73.5 47t74.5 17q17 0 32 -3t28 -9q31 -15 58.5 -45.5t67.5 -89.5
q26 -40 46.5 -64t36.5 -36q14 -10 29.5 -15.5t32.5 -5.5h5q5 0 5 -4v-97q0 -5 -5 -5h-5q-33 0 -61 7t-53 24t-53 45q-5 5 -18 22.5t-33 45.5q-23 33 -41.5 55.5t-32.5 33.5q-13 12 -26.5 17.5t-25.5 5.5q-16 0 -35 -10.5t-36 -27.5t-28 -35t-11 -33q0 -13 8.5 -24t25 -20
t39.5 -16q34 -10 58 -20t40 -19q30 -18 45.5 -44t15.5 -60q0 -92 -69.5 -139.5t-207.5 -47.5h-226zM307 -461q-28 0 -45.5 17.5t-17.5 50.5q0 32 17.5 50t45.5 18q30 0 46.5 -18t16.5 -50q0 -33 -17 -50.5t-46 -17.5zM478 -461q-29 0 -46 18t-17 50q0 31 17 49.5t46 18.5
q30 0 46.5 -18.5t16.5 -49.5t-17 -49.5t-46 -18.5z" />
    <glyph glyph-name="uniFC70" unicode="&#xfc70;" horiz-adv-x="865" arabic-form="final" 
d="M433 0q-5 0 -5 5v97q0 4 5 4h157v386h129v-386h150q5 0 5 -4v-97q0 -5 -5 -5h-436zM534 637q-28 0 -45.5 17.5t-17.5 50.5t17.5 50.5t45.5 17.5q29 0 46 -18t17 -50q0 -33 -17 -50.5t-46 -17.5zM705 637q-29 0 -46 18t-17 50t17 50t46 18q30 0 46.5 -18.5t16.5 -49.5
t-17 -49.5t-46 -18.5zM315 0v-19q0 -67 -24 -117t-68 -77t-106 -27q-42 0 -79.5 10.5t-77.5 36.5l49 87q25 -15 44 -20t44 -5q41 0 66 32.5t25 82.5v508h127v-386h128q5 0 5 -4v-97q0 -5 -5 -5h-128z" />
    <glyph glyph-name="uniFC71" unicode="&#xfc71;" horiz-adv-x="865" arabic-form="final" 
d="M433 0q-5 0 -5 5v97q0 4 5 4h157v386h129v-386h150q5 0 5 -4v-97q0 -5 -5 -5h-436zM534 637q-28 0 -45.5 17.5t-17.5 50.5t17.5 50.5t45.5 17.5q29 0 46 -18t17 -50q0 -33 -17 -50.5t-46 -17.5zM705 637q-29 0 -46 18t-17 50t17 50t46 18q30 0 46.5 -18.5t16.5 -49.5
t-17 -49.5t-46 -18.5zM315 0v-19q0 -67 -24 -117t-68 -77t-106 -27q-42 0 -79.5 10.5t-77.5 36.5l49 87q25 -15 44 -20t44 -5q41 0 66 32.5t25 82.5v508h127v-386h128q5 0 5 -4v-97q0 -5 -5 -5h-128zM244 592q-30 0 -47 18t-17 50t17 50t47 18q29 0 45.5 -18.5t16.5 -49.5
t-16.5 -49.5t-45.5 -18.5z" />
    <glyph glyph-name="uniFC72" unicode="&#xfc72;" horiz-adv-x="1148" arabic-form="final" 
d="M717 0q-5 0 -5 5v97q0 4 5 4h157v386h129v-386h150q5 0 5 -4v-97q0 -5 -5 -5h-436zM817 637q-28 0 -45.5 17.5t-17.5 50.5t17.5 50.5t45.5 17.5q29 0 46 -18t17 -50q0 -33 -17 -50.5t-46 -17.5zM988 637q-29 0 -46 18t-17 50t17 50t46 18q30 0 46.5 -18.5t16.5 -49.5
t-17 -49.5t-46 -18.5zM270 0q-42 0 -60 -18t-18 -58v-244h-127v282q0 43 15 75.5t43.5 50t68.5 17.5h3q-15 37 -22.5 75t-7.5 75q0 44 13 91.5t33 81.5q42 28 94.5 44t98.5 16q33 0 63 -7t56 -21q53 -29 82.5 -82t29.5 -121q0 -28 -5 -54.5t-15 -52.5q19 -24 44 -34t63 -10
h5q5 0 5 -4v-97q0 -5 -5 -5h-5q-53 0 -91.5 15t-73.5 51q-36 -33 -83 -49.5t-97 -16.5h-107zM287 247q0 -32 6.5 -67t21.5 -74h49q42 0 73.5 19t49.5 53.5t18 79.5q0 57 -29 91t-74 34q-25 0 -50.5 -8.5t-50.5 -24.5q-8 -24 -11 -49.5t-3 -53.5z" />
    <glyph glyph-name="uniFC73" unicode="&#xfc73;" horiz-adv-x="1190" arabic-form="final" 
d="M759 0q-5 0 -5 5v97q0 4 5 4h157v386h129v-386h150q5 0 5 -4v-97q0 -5 -5 -5h-436zM859 637q-28 0 -45.5 17.5t-17.5 50.5t17.5 50.5t45.5 17.5q29 0 46 -18t17 -50q0 -33 -17 -50.5t-46 -17.5zM1030 637q-29 0 -46 18t-17 50t17 50t46 18q30 0 46.5 -18.5t16.5 -49.5
t-17 -49.5t-46 -18.5zM646 0q-6 -120 -75.5 -180t-203.5 -60h-54q-40 0 -74 9.5t-63 27.5q-53 33 -82 93t-29 137q0 58 12.5 115.5t35.5 105.5h115q-16 -50 -25 -107t-9 -113q0 -75 35.5 -118.5t96.5 -43.5h37q54 0 88 18t51 54t17 87v467h127v-386h123q5 0 5 -4v-97
q0 -5 -5 -5h-123zM340 489q-30 0 -47 18t-17 50t17 50t47 18q29 0 45.5 -18.5t16.5 -49.5t-16.5 -49.5t-45.5 -18.5z" />
    <glyph glyph-name="uniFC74" unicode="&#xfc74;" horiz-adv-x="1418" arabic-form="final" 
d="M986 0q-5 0 -5 5v97q0 4 5 4h157v386h129v-386h150q5 0 5 -4v-97q0 -5 -5 -5h-436zM1087 637q-28 0 -45.5 17.5t-17.5 50.5t17.5 50.5t45.5 17.5q29 0 46 -18t17 -50q0 -33 -17 -50.5t-46 -17.5zM1258 637q-29 0 -46 18t-17 50t17 50t46 18q30 0 46.5 -18.5t16.5 -49.5
t-17 -49.5t-46 -18.5zM266 -240q-61 0 -106.5 30t-70 82.5t-24.5 119.5q0 50 8 96t25 93h116q-14 -41 -18.5 -79.5t-4.5 -92.5q0 -41 16 -73.5t44 -51t63 -18.5h177q43 0 76 6.5t52.5 20.5t19.5 38q0 19 -17 32t-53 23q-54 14 -88 32.5t-50 46t-16 67.5q0 27 9.5 55t27.5 56
q25 37 60 67t73.5 47t74.5 17q17 0 32 -3t28 -9q31 -15 58.5 -45.5t67.5 -89.5q26 -40 46.5 -64t36.5 -36q14 -10 29.5 -15.5t32.5 -5.5h5q5 0 5 -4v-97q0 -5 -5 -5h-5q-33 0 -61 7t-53 24t-53 45q-5 5 -18 22.5t-33 45.5q-23 33 -41.5 55.5t-32.5 33.5q-13 12 -26.5 17.5
t-25.5 5.5q-16 0 -35 -10.5t-36 -27.5t-28 -35t-11 -33q0 -13 8.5 -24t25 -20t39.5 -16q34 -10 58 -20t40 -19q30 -18 45.5 -44t15.5 -60q0 -92 -69.5 -139.5t-207.5 -47.5h-226z" />
    <glyph glyph-name="uniFC75" unicode="&#xfc75;" horiz-adv-x="1418" arabic-form="final" 
d="M986 0q-5 0 -5 5v97q0 4 5 4h157v386h129v-386h150q5 0 5 -4v-97q0 -5 -5 -5h-436zM1087 637q-28 0 -45.5 17.5t-17.5 50.5t17.5 50.5t45.5 17.5q29 0 46 -18t17 -50q0 -33 -17 -50.5t-46 -17.5zM1258 637q-29 0 -46 18t-17 50t17 50t46 18q30 0 46.5 -18.5t16.5 -49.5
t-17 -49.5t-46 -18.5zM266 -240q-61 0 -106.5 30t-70 82.5t-24.5 119.5q0 50 8 96t25 93h116q-14 -41 -18.5 -79.5t-4.5 -92.5q0 -41 16 -73.5t44 -51t63 -18.5h177q43 0 76 6.5t52.5 20.5t19.5 38q0 19 -17 32t-53 23q-54 14 -88 32.5t-50 46t-16 67.5q0 27 9.5 55t27.5 56
q25 37 60 67t73.5 47t74.5 17q17 0 32 -3t28 -9q31 -15 58.5 -45.5t67.5 -89.5q26 -40 46.5 -64t36.5 -36q14 -10 29.5 -15.5t32.5 -5.5h5q5 0 5 -4v-97q0 -5 -5 -5h-5q-33 0 -61 7t-53 24t-53 45q-5 5 -18 22.5t-33 45.5q-23 33 -41.5 55.5t-32.5 33.5q-13 12 -26.5 17.5
t-25.5 5.5q-16 0 -35 -10.5t-36 -27.5t-28 -35t-11 -33q0 -13 8.5 -24t25 -20t39.5 -16q34 -10 58 -20t40 -19q30 -18 45.5 -44t15.5 -60q0 -92 -69.5 -139.5t-207.5 -47.5h-226zM307 -461q-28 0 -45.5 17.5t-17.5 50.5q0 32 17.5 50t45.5 18q30 0 46.5 -18t16.5 -50
q0 -33 -17 -50.5t-46 -17.5zM478 -461q-29 0 -46 18t-17 50q0 31 17 49.5t46 18.5q30 0 46.5 -18.5t16.5 -49.5t-17 -49.5t-46 -18.5z" />
    </font>
</defs>
</svg>
