<svg width="28" height="28" viewBox="0 0 28 28" fill="none" xmlns="http://www.w3.org/2000/svg">
<g clip-path="url(#clip0_2345_62576)">
<path d="M4.66665 0H8.16665C10.744 0 12.8333 2.08934 12.8333 4.66665V8.16665C12.8333 10.744 10.744 12.8333 8.16665 12.8333H4.66665C2.08934 12.8334 0 10.744 0 8.16665V4.66665C0 2.08934 2.08934 0 4.66665 0Z" fill="white"/>
<path d="M19.8385 0H23.3385C25.9158 0 28.0052 2.08934 28.0052 4.66665V8.16665C28.0052 10.744 25.9158 12.8333 23.3385 12.8333H19.8385C17.2612 12.8333 15.1719 10.744 15.1719 8.16665V4.66665C15.1718 2.08934 17.2612 0 19.8385 0Z" fill="white"/>
<path d="M4.66665 15.168H8.16665C10.744 15.168 12.8333 17.2573 12.8333 19.8346V23.3346C12.8333 25.9119 10.744 28.0013 8.16665 28.0013H4.66665C2.08934 28.0013 0 25.912 0 23.3347V19.8347C0 17.2573 2.08934 15.168 4.66665 15.168Z" fill="white"/>
<path d="M19.8385 15.168H23.3385C25.9158 15.168 28.0052 17.2573 28.0052 19.8346V23.3346C28.0052 25.912 25.9158 28.0013 23.3385 28.0013H19.8385C17.2612 28.0013 15.1719 25.912 15.1719 23.3347V19.8347C15.1718 17.2573 17.2612 15.168 19.8385 15.168Z" fill="white"/>
</g>
<defs>
<clipPath id="clip0_2345_62576">
<rect width="28" height="28" fill="white"/>
</clipPath>
</defs>
</svg>
