<svg width="28" height="28" viewBox="0 0 28 28" fill="none" xmlns="http://www.w3.org/2000/svg">
<g clip-path="url(#clip0_2345_62584)">
<path d="M4.66665 0H8.16665C10.744 0 12.8333 2.08934 12.8333 4.66665V8.16665C12.8333 10.744 10.744 12.8333 8.16665 12.8333H4.66665C2.08934 12.8334 0 10.744 0 8.16665V4.66665C0 2.08934 2.08934 0 4.66665 0Z" fill="white"/>
<path d="M4.66665 15.168H8.16665C10.744 15.168 12.8333 17.2573 12.8333 19.8346V23.3346C12.8333 25.9119 10.744 28.0013 8.16665 28.0013H4.66665C2.08934 28.0013 0 25.912 0 23.3347V19.8347C0 17.2573 2.08934 15.168 4.66665 15.168Z" fill="white"/>
<path d="M19.8346 15.168H23.3346C25.9119 15.168 28.0013 17.2573 28.0013 19.8346V23.3346C28.0013 25.912 25.9119 28.0013 23.3346 28.0013H19.8346C17.2573 28.0013 15.168 25.912 15.168 23.3347V19.8347C15.1679 17.2573 17.2572 15.168 19.8346 15.168Z" fill="white"/>
<path d="M16.3346 8.16791H19.8346V11.6679C19.8346 12.3122 20.3569 12.8346 21.0013 12.8346C21.6456 12.8346 22.1679 12.3122 22.1679 11.6679V8.16791H25.6679C26.3122 8.16791 26.8346 7.64559 26.8346 7.00127C26.8346 6.35694 26.3122 5.83462 25.6679 5.83462H22.1679V2.33462C22.1679 1.69029 21.6456 1.16797 21.0013 1.16797C20.3569 1.16797 19.8346 1.69029 19.8346 2.33462V5.83462H16.3346C15.6903 5.83462 15.168 6.35694 15.168 7.00127C15.168 7.64559 15.6903 8.16791 16.3346 8.16791Z" fill="white"/>
</g>
<defs>
<clipPath id="clip0_2345_62584">
<rect width="28" height="28" fill="white"/>
</clipPath>
</defs>
</svg>
