<svg width="56" height="56" viewBox="0 0 56 56" fill="none" xmlns="http://www.w3.org/2000/svg">
<path d="M49 28H40.737C40.2131 28 39.9511 28 39.73 28.1183C39.5089 28.2367 39.3636 28.4546 39.0729 28.8906L35.5937 34.1094C35.3031 34.5454 35.1578 34.7633 34.9367 34.8817C34.7156 35 34.4536 35 33.9296 35H22.0704C21.5464 35 21.2844 35 21.0633 34.8817C20.8422 34.7633 20.6969 34.5454 20.4063 34.1094L16.9271 28.8906C16.6364 28.4546 16.4911 28.2367 16.27 28.1183C16.0489 28 15.7869 28 15.263 28H7" stroke="#595CA3" stroke-width="2"/>
<path d="M16.3333 16.333L7.29289 25.3734C7.10536 25.561 7 25.8153 7 26.0806V42.333C7 43.4376 7.89543 44.333 9 44.333H47C48.1046 44.333 49 43.4376 49 42.333V26.0806C49 25.8153 48.8946 25.561 48.7071 25.3734L39.6667 16.333" stroke="#595CA3" stroke-width="2" stroke-linecap="round"/>
<path d="M39.6654 30.3333V13.4961C39.6654 13.2515 39.6654 13.1292 39.6377 13.0141C39.6132 12.9121 39.5728 12.8145 39.518 12.725C39.4562 12.6241 39.3697 12.5377 39.1967 12.3647L34.3007 7.46863C34.1277 7.29568 34.0412 7.2092 33.9403 7.14736C33.8508 7.09253 33.7533 7.05213 33.6513 7.02763C33.5362 7 33.4139 7 33.1693 7H18.732C17.892 7 17.4719 7 17.151 7.16349C16.8688 7.3073 16.6393 7.53677 16.4955 7.81901C16.332 8.13988 16.332 8.55992 16.332 9.4V30.3333" stroke="#595CA3" stroke-width="2"/>
<path d="M30.332 7.00065L30.332 14.734C30.332 15.294 30.332 15.5741 30.441 15.788C30.5369 15.9761 30.6899 16.1291 30.878 16.225C31.092 16.334 31.372 16.334 31.932 16.334L39.6654 16.334" stroke="#595CA3" stroke-width="2"/>
</svg>
