<svg width="16" height="16" viewBox="0 0 16 16" fill="none" xmlns="http://www.w3.org/2000/svg">
<path d="M2.66667 8L1.95956 7.29289L1.25246 8L1.95956 8.70711L2.66667 8ZM12.6667 9C13.219 9 13.6667 8.55228 13.6667 8C13.6667 7.44772 13.219 7 12.6667 7V8V9ZM6.66667 4L5.95956 3.29289L1.95956 7.29289L2.66667 8L3.37378 8.70711L7.37378 4.70711L6.66667 4ZM2.66667 8L1.95956 8.70711L5.95956 12.7071L6.66667 12L7.37378 11.2929L3.37378 7.29289L2.66667 8ZM2.66667 8V9H12.6667V8V7L2.66667 7V8Z" fill="white"/>
</svg>
