<svg width="45" height="45" viewBox="0 0 45 45" fill="none" xmlns="http://www.w3.org/2000/svg">
<path d="M14.4031 16.6221C14.4167 16.4996 14.4235 16.4383 14.4301 16.3852C14.9244 12.4211 18.2672 9.42921 22.2616 9.37572C22.3151 9.375 22.3767 9.375 22.5 9.375C22.6233 9.375 22.6849 9.375 22.7384 9.37572C26.7328 9.42921 30.0756 12.4211 30.5699 16.3852C30.5765 16.4383 30.5833 16.4996 30.5969 16.6221L30.9641 19.927C31.0567 20.7606 31.103 21.1774 31.1914 21.5832C31.3177 22.163 31.508 22.727 31.759 23.2647C31.9346 23.6411 32.1504 24.0007 32.582 24.7199L33.8076 26.7627C34.6134 28.1056 35.0162 28.7771 34.729 29.2844C34.4418 29.7917 33.6587 29.7917 32.0926 29.7917H12.9074C11.3413 29.7917 10.5582 29.7917 10.271 29.2844C9.98376 28.7771 10.3866 28.1056 11.1924 26.7627L12.418 24.7199C12.8496 24.0007 13.0654 23.6411 13.241 23.2647C13.492 22.727 13.6823 22.163 13.8086 21.5832C13.897 21.1774 13.9433 20.7606 14.0359 19.927L14.4031 16.6221Z" stroke="#595CA3" stroke-width="2"/>
<path d="M16.6667 29.7917C16.6667 30.5577 16.8176 31.3163 17.1107 32.024C17.4039 32.7317 17.8335 33.3748 18.3752 33.9165C18.9169 34.4581 19.56 34.8878 20.2677 35.181C20.9754 35.4741 21.734 35.625 22.5 35.625C23.2661 35.625 24.0246 35.4741 24.7323 35.181C25.4401 34.8878 26.0831 34.4581 26.6248 33.9165C27.1665 33.3748 27.5962 32.7317 27.8893 32.024C28.1825 31.3163 28.3333 30.5577 28.3333 29.7917" stroke="#595CA3" stroke-width="2" stroke-linecap="round"/>
<circle cx="32.5" cy="12.5" r="7.5" fill="#FF0000"/>
<path d="M35.05 10.48C35.05 10.8067 34.9833 11.09 34.85 11.33C34.7233 11.5633 34.5433 11.7567 34.31 11.91C34.0833 12.0633 33.8233 12.1733 33.53 12.24V12.27C34.1033 12.3367 34.5333 12.5133 34.82 12.8C35.1133 13.0867 35.26 13.4667 35.26 13.94C35.26 14.3533 35.16 14.7233 34.96 15.05C34.76 15.3767 34.45 15.6333 34.03 15.82C33.6167 16.0067 33.0833 16.1 32.43 16.1C32.0433 16.1 31.6833 16.0667 31.35 16C31.0167 15.94 30.7 15.8433 30.4 15.71V14.58C30.7067 14.7333 31.03 14.85 31.37 14.93C31.71 15.01 32.03 15.05 32.33 15.05C32.9033 15.05 33.3067 14.9467 33.54 14.74C33.78 14.5333 33.9 14.2433 33.9 13.87C33.9 13.6367 33.84 13.4433 33.72 13.29C33.6067 13.1367 33.4167 13.0233 33.15 12.95C32.8833 12.8767 32.53 12.84 32.09 12.84H31.5V11.81H32.1C32.5267 11.81 32.86 11.7633 33.1 11.67C33.34 11.5767 33.51 11.45 33.61 11.29C33.71 11.1233 33.76 10.9333 33.76 10.72C33.76 10.44 33.67 10.22 33.49 10.06C33.31 9.9 33.03 9.82 32.65 9.82C32.4167 9.82 32.2033 9.84667 32.01 9.9C31.8167 9.95333 31.64 10.0233 31.48 10.11C31.32 10.19 31.1733 10.2767 31.04 10.37L30.42 9.47C30.6933 9.27 31.0167 9.10333 31.39 8.97C31.77 8.83 32.2133 8.76 32.72 8.76C33.46 8.76 34.0333 8.91667 34.44 9.23C34.8467 9.53667 35.05 9.95333 35.05 10.48Z" fill="white"/>
</svg>
