<svg width="45" height="45" viewBox="0 0 45 45" fill="none" xmlns="http://www.w3.org/2000/svg">
<path d="M27.6247 11.8145C28.0922 11.8145 28.4586 12.014 28.7526 12.2383C29.027 12.4477 29.324 12.7471 29.6403 13.0635L31.9372 15.3594C32.2535 15.6757 32.552 15.9726 32.7614 16.2471C32.9858 16.5411 33.1862 16.9073 33.1862 17.375C33.1862 17.8427 32.9858 18.2089 32.7614 18.5029C32.552 18.7774 32.2535 19.0743 31.9372 19.3906L18.3678 32.959C18.2051 33.1217 18.017 33.3201 17.7751 33.457C17.5332 33.5939 17.2668 33.6532 17.0436 33.709L11.5563 35.0811C11.4036 35.1192 11.1949 35.1737 11.0143 35.1914C10.8232 35.2101 10.4281 35.2135 10.1071 34.8926C9.7863 34.5716 9.79056 34.1764 9.80925 33.9854C9.82697 33.8049 9.88144 33.596 9.9196 33.4434L11.2907 27.9561C11.3465 27.7328 11.4057 27.4664 11.5426 27.2246C11.6796 26.9827 11.878 26.7946 12.0407 26.6318L25.61 13.0635C25.9263 12.7472 26.2223 12.4477 26.4967 12.2383C26.7907 12.014 27.1572 11.8145 27.6247 11.8145Z" stroke="#575756" stroke-width="1.7"/>
<path d="M23.3542 14.8127L28.4792 11.396L33.6042 16.521L30.1875 21.646L23.3542 14.8127Z" fill="#575756"/>
</svg>
