<svg width="45" height="45" viewBox="0 0 45 45" fill="none" xmlns="http://www.w3.org/2000/svg">
<path d="M35.0781 26.875C35.0781 27.1995 34.9819 27.5167 34.8016 27.7865C34.6214 28.0563 34.3651 28.2666 34.0653 28.3907C33.7656 28.5149 33.4357 28.5474 33.1174 28.4841C32.7992 28.4208 32.5068 28.2645 32.2774 28.0351C32.048 27.8057 31.8917 27.5133 31.8284 27.1951C31.7651 26.8768 31.7976 26.5469 31.9218 26.2472C32.0459 25.9474 32.2562 25.6911 32.526 25.5109C32.7958 25.3306 33.113 25.2344 33.4375 25.2344C33.8726 25.2344 34.2899 25.4072 34.5976 25.7149C34.9053 26.0226 35.0781 26.4399 35.0781 26.875ZM34.4561 32.2467C34.2158 33.7955 33.4301 35.2074 32.2406 36.228C31.0511 37.2485 29.5361 37.8105 27.9688 37.8125H24.6875C22.9476 37.8107 21.2794 37.1187 20.0491 35.8884C18.8188 34.6581 18.1268 32.9899 18.125 31.25V25.7115C16.0107 25.4451 14.0663 24.4163 12.6566 22.8181C11.247 21.22 10.469 19.1623 10.4688 17.0312V10.4688C10.4688 10.1787 10.584 9.90047 10.7891 9.69535C10.9942 9.49023 11.2724 9.375 11.5625 9.375H14.8438C15.1338 9.375 15.412 9.49023 15.6171 9.69535C15.8223 9.90047 15.9375 10.1787 15.9375 10.4688C15.9375 10.7588 15.8223 11.037 15.6171 11.2421C15.412 11.4473 15.1338 11.5625 14.8438 11.5625H12.6562V17.0312C12.6562 17.9005 12.8288 18.761 13.164 19.563C13.4993 20.3649 13.9905 21.0923 14.6092 21.7029C15.2279 22.3134 15.9617 22.7949 16.768 23.1195C17.5743 23.4442 18.4371 23.6053 19.3062 23.5938C22.876 23.5473 25.7812 20.5518 25.7812 16.9178V11.5625H23.5938C23.3037 11.5625 23.0255 11.4473 22.8204 11.2421C22.6152 11.037 22.5 10.7588 22.5 10.4688C22.5 10.1787 22.6152 9.90047 22.8204 9.69535C23.0255 9.49023 23.3037 9.375 23.5938 9.375H26.875C27.1651 9.375 27.4433 9.49023 27.6484 9.69535C27.8535 9.90047 27.9688 10.1787 27.9688 10.4688V16.9178C27.9688 21.4076 24.615 25.1605 20.3125 25.7102V31.25C20.3125 32.4103 20.7734 33.5231 21.5939 34.3436C22.4144 35.1641 23.5272 35.625 24.6875 35.625H27.9688C28.9623 35.6234 29.9258 35.2842 30.7013 34.6632C31.4768 34.0422 32.0183 33.1762 32.2371 32.207C30.9162 31.9103 29.7523 31.1342 28.9706 30.0288C28.1889 28.9234 27.845 27.5674 28.0054 26.2231C28.1659 24.8788 28.8193 23.6418 29.8392 22.7515C30.8591 21.8611 32.173 21.3807 33.5266 21.4032C34.8803 21.4258 36.1775 21.9496 37.1672 22.8734C38.1569 23.7971 38.7688 25.0552 38.8844 26.4041C39.0001 27.753 38.6113 29.0968 37.7932 30.1756C36.9752 31.2543 35.7861 31.9913 34.4561 32.2439V32.2467ZM36.7188 26.875C36.7188 26.226 36.5263 25.5916 36.1658 25.052C35.8052 24.5124 35.2928 24.0919 34.6932 23.8435C34.0936 23.5952 33.4339 23.5302 32.7974 23.6568C32.1609 23.7834 31.5762 24.0959 31.1173 24.5548C30.6584 25.0137 30.3459 25.5984 30.2193 26.2349C30.0927 26.8714 30.1577 27.5311 30.406 28.1307C30.6544 28.7303 31.0749 29.2427 31.6145 29.6033C32.1541 29.9638 32.7885 30.1562 33.4375 30.1562C34.3077 30.1562 35.1423 29.8105 35.7577 29.1952C36.373 28.5798 36.7188 27.7452 36.7188 26.875Z" fill="#595CA3"/>
</svg>
