<svg width="256" height="256" viewBox="0 0 256 256" fill="none" xmlns="http://www.w3.org/2000/svg">
<path d="M128 237.714C188.594 237.714 237.714 188.594 237.714 128C237.714 67.4065 188.594 18.2857 128 18.2857C67.4065 18.2857 18.2857 67.4065 18.2857 128C18.2857 188.594 67.4065 237.714 128 237.714Z" fill="#595CA3"/>
<path d="M128 237.714C188.594 237.714 237.714 188.594 237.714 128C237.714 67.4065 188.594 18.2857 128 18.2857C67.4065 18.2857 18.2857 67.4065 18.2857 128C18.2857 188.594 67.4065 237.714 128 237.714Z" fill="#595CA3"/>
<path d="M128 237.714C188.594 237.714 237.714 188.594 237.714 128C237.714 67.4065 188.594 18.2857 128 18.2857C67.4065 18.2857 18.2857 67.4065 18.2857 128C18.2857 188.594 67.4065 237.714 128 237.714Z" fill="#595CA3"/>
<path d="M128 237.714C188.594 237.714 237.714 188.594 237.714 128C237.714 67.4065 188.594 18.2857 128 18.2857C67.4065 18.2857 18.2857 67.4065 18.2857 128C18.2857 188.594 67.4065 237.714 128 237.714Z" fill="#00A897"/>
</svg>
