<svg width="124" height="124" viewBox="0 0 124 124" fill="none" xmlns="http://www.w3.org/2000/svg">
<g clip-path="url(#clip0_2269_36275)">
<path d="M87.5765 35.8448C95.6447 36.7078 103.761 37.0387 111.873 36.8354L111.853 36.8039C102.274 22.3417 89.9031 9.93748 75.4671 0.318359C75.2577 8.47042 75.5887 16.6274 76.4577 24.7357C77.0777 30.0929 82.2169 35.2321 87.5765 35.8448Z" fill="#595CA3"/>
<path d="M99.3127 74.6328C94.4307 74.6328 89.6583 76.0805 85.5991 78.7928C81.5399 81.5051 78.3761 85.3601 76.5079 89.8705C74.6396 94.3809 74.1508 99.3439 75.1032 104.132C76.0556 108.92 78.4065 113.319 81.8586 116.771C85.3107 120.223 89.7089 122.574 94.4971 123.526C99.2853 124.478 104.248 123.99 108.759 122.121C113.269 120.253 117.124 117.089 119.836 113.03C122.549 108.971 123.996 104.199 123.996 99.3166C123.996 92.77 121.396 86.4916 116.767 81.8625C112.138 77.2334 105.859 74.6328 99.3127 74.6328ZM111.131 98.8516C110.817 99.1664 110.443 99.4162 110.031 99.5866C109.62 99.7571 109.179 99.8448 108.734 99.8448C108.288 99.8448 107.848 99.7571 107.436 99.5866C107.025 99.4162 106.651 99.1664 106.336 98.8516L102.703 95.2188V111.574C102.703 112.473 102.346 113.335 101.71 113.971C101.074 114.607 100.212 114.964 99.3127 114.964C98.4134 114.964 97.551 114.607 96.9151 113.971C96.2793 113.335 95.922 112.473 95.922 111.574V95.2309L92.2892 98.8637C91.6533 99.4996 90.7909 99.8568 89.8916 99.8568C88.9923 99.8568 88.1298 99.4996 87.4939 98.8637C86.858 98.2278 86.5008 97.3653 86.5008 96.466C86.5008 95.5667 86.858 94.7043 87.4939 94.0684L96.915 84.6497C97.2299 84.3348 97.6037 84.085 98.015 83.9146C98.4264 83.7442 98.8674 83.6565 99.3127 83.6565C99.758 83.6565 100.199 83.7442 100.61 83.9146C101.022 84.085 101.395 84.3348 101.71 84.6497L111.131 94.0684C111.446 94.3832 111.696 94.757 111.866 95.1684C112.037 95.5798 112.125 96.0207 112.125 96.466C112.125 96.9113 112.037 97.3522 111.866 97.7636C111.696 98.175 111.446 98.5488 111.131 98.8637V98.8516Z" fill="#595CA3"/>
<path d="M112.102 43.313C110.489 43.3542 108.878 43.3808 107.275 43.3808C100.466 43.3787 93.6611 43.0157 86.8901 42.2934H86.832C82.7947 41.826 78.8398 39.8231 75.6623 36.6553C72.4848 33.4874 70.494 29.5228 70.0242 25.488C70.0254 25.4686 70.0254 25.4492 70.0242 25.4299C69.1248 17.0133 68.7817 8.54663 68.9973 0.084936C56.2716 -0.221792 43.5393 0.302447 30.8819 1.65431C22.4271 2.63517 14.3211 10.7436 13.3378 19.1984C11.1218 39.9417 11.1218 78.4592 13.3378 99.2026C14.3187 107.657 22.4271 115.766 30.8819 116.747C45.2358 118.283 59.684 118.754 74.1075 118.154C71.0522 114.057 69.0372 109.279 68.2357 104.232C67.4341 99.1845 67.87 94.0179 69.5059 89.176H35.7159C34.8167 89.176 33.9543 88.8188 33.3184 88.1829C32.6825 87.5471 32.3253 86.6847 32.3253 85.7854C32.3253 84.8862 32.6825 84.0237 33.3184 83.3879C33.9543 82.752 34.8167 82.3948 35.7159 82.3948H72.7706C75.4637 78.1944 79.1065 74.686 83.4051 72.1527H35.7159C34.8167 72.1527 33.9543 71.7954 33.3184 71.1596C32.6825 70.5237 32.3253 69.6613 32.3253 68.762C32.3253 67.8628 32.6825 67.0004 33.3184 66.3645C33.9543 65.7286 34.8167 65.3714 35.7159 65.3714H88.2706C89.1699 65.3714 90.0323 65.7286 90.6681 66.3645C91.304 67.0004 91.6612 67.8628 91.6612 68.762V68.7814C98.5184 67.0836 105.746 67.7228 112.199 70.5978C112.385 61.5909 112.351 52.1431 112.102 43.313ZM71.3272 55.1317H35.7256C34.8264 55.1317 33.9639 54.7745 33.3281 54.1386C32.6922 53.5028 32.335 52.6404 32.335 51.7411C32.335 50.8419 32.6922 49.9794 33.3281 49.3436C33.9639 48.7077 34.8264 48.3505 35.7256 48.3505H71.3272C72.2264 48.3505 73.0888 48.7077 73.7247 49.3436C74.3606 49.9794 74.7178 50.8419 74.7178 51.7411C74.7178 52.6404 74.3606 53.5028 73.7247 54.1386C73.0888 54.7745 72.2264 55.1317 71.3272 55.1317Z" fill="#595CA3"/>
</g>
<defs>
<clipPath id="clip0_2269_36275">
<rect width="124" height="124" fill="white"/>
</clipPath>
</defs>
</svg>
