<svg width="56" height="56" viewBox="0 0 56 56" fill="none" xmlns="http://www.w3.org/2000/svg">
<path d="M30.735 7H21.0013C16.6015 7 14.4016 7 13.0348 8.36684C11.668 9.73367 11.668 11.9336 11.668 16.3333V39.6667C11.668 44.0664 11.668 46.2663 13.0348 47.6332C14.4016 49 16.6015 49 21.0013 49H35.0013C39.4011 49 41.601 49 42.9678 47.6332C44.3346 46.2663 44.3346 44.0664 44.3346 39.6667V20.5997C44.3346 19.6459 44.3346 19.169 44.157 18.7402C43.9794 18.3114 43.6422 17.9742 42.9678 17.2998L34.0348 8.36684C33.3604 7.69243 33.0232 7.35523 32.5944 7.17761C32.1656 7 31.6887 7 30.735 7Z" stroke="#595CA3" stroke-width="2"/>
<path d="M21 30.333L35 30.333" stroke="#595CA3" stroke-width="2" stroke-linecap="round"/>
<path d="M21 39.667L30.3333 39.667" stroke="#595CA3" stroke-width="2" stroke-linecap="round"/>
<path d="M30.332 7V16.3333C30.332 18.5332 30.332 19.6332 31.0154 20.3166C31.6989 21 32.7988 21 34.9987 21H44.332" stroke="#595CA3" stroke-width="2"/>
</svg>
