<svg width="28" height="28" viewBox="0 0 28 28" fill="none" xmlns="http://www.w3.org/2000/svg">
<g clip-path="url(#clip0_2473_20527)">
<path d="M22.1651 14H19.1154L19.7454 8.94719C19.8555 8.43608 19.8503 7.90687 19.7302 7.39801C19.6102 6.88915 19.3783 6.41343 19.0514 6.00541C18.7245 5.59739 18.3108 5.26732 17.8403 5.03919C17.3699 4.81105 16.8546 4.69058 16.3318 4.68653H13.5679C13.6951 3.78703 13.6181 2.34503 14.8909 2.33919H18.6651C18.9745 2.33919 19.2713 2.21628 19.49 1.99748C19.7088 1.77869 19.8318 1.48195 19.8318 1.17253C19.8318 0.863107 19.7088 0.566361 19.49 0.347568C19.2713 0.128776 18.9745 0.00585938 18.6651 0.00585938H14.8909C14.0382 0.00638429 13.215 0.318196 12.5759 0.882739C11.9368 1.44728 11.5258 2.22572 11.4201 3.07186L11.2183 4.68653H3.49842C2.98602 4.69202 2.48098 4.80918 2.01849 5.02985C1.55601 5.25051 1.1472 5.56937 0.820563 5.9642C0.493924 6.35903 0.257309 6.82034 0.127207 7.31598C-0.0028945 7.81162 -0.0233543 8.32967 0.0672538 8.83403L1.83242 22.9017C2.01091 24.3107 2.69683 25.6064 3.76177 26.5461C4.8267 27.4858 6.19764 28.0052 7.61792 28.007L22.1651 27.993C22.9311 27.993 23.6897 27.8421 24.3974 27.549C25.1051 27.2558 25.7482 26.8262 26.2899 26.2845C26.8316 25.7428 27.2612 25.0997 27.5544 24.392C27.8475 23.6843 27.9984 22.9257 27.9984 22.1597V19.8334C27.9984 19.0673 27.8475 18.3088 27.5544 17.601C27.2612 16.8933 26.8316 16.2502 26.2899 15.7086C25.7482 15.1669 25.1051 14.7372 24.3974 14.4441C23.6897 14.1509 22.9311 14 22.1651 14ZM25.6651 19.8334H11.6651C11.6651 18.9051 12.0338 18.0149 12.6902 17.3585C13.3466 16.7021 14.2368 16.3334 15.1651 16.3334H22.1651C23.0933 16.3334 23.9836 16.7021 24.64 17.3585C25.2963 18.0149 25.6651 18.9051 25.6651 19.8334ZM16.3318 7.01869C16.5161 7.01969 16.6976 7.06386 16.8617 7.14768C17.0259 7.23149 17.1681 7.35261 17.277 7.50132C17.3859 7.65003 17.4584 7.82219 17.4888 8.00399C17.5191 8.1858 17.5064 8.37218 17.4518 8.54819L17.3503 9.33336H12.9869L13.2763 7.01636L16.3318 7.01869ZM2.59309 7.45503C2.70194 7.31943 2.83972 7.20987 2.99636 7.13438C3.153 7.05888 3.32454 7.01936 3.49842 7.01869H10.9266L10.6361 9.33336H2.47642L2.35975 8.43503C2.32236 8.26465 2.32392 8.08803 2.36432 7.91834C2.40473 7.74865 2.48292 7.59027 2.59309 7.45503ZM4.14709 22.6124L2.77042 11.6667H17.0586L16.7658 14H15.1651C13.618 14 12.1343 14.6146 11.0403 15.7086C9.94633 16.8025 9.33175 18.2863 9.33175 19.8334C9.28275 21.7397 9.21509 24.1967 10.5404 25.6784H7.61792C6.7652 25.6778 5.942 25.366 5.30291 24.8015C4.66383 24.2369 4.25282 23.4585 4.14709 22.6124ZM22.1651 25.6667H15.1651C14.2368 25.6667 13.3466 25.2979 12.6902 24.6416C12.0338 23.9852 11.6651 23.0949 11.6651 22.1667H15.9818C16.4333 22.3837 19.3359 24.6295 19.8318 24.5C20.3171 24.6377 23.2501 22.3732 23.6818 22.1667H25.6651C25.6651 23.0949 25.2963 23.9852 24.64 24.6416C23.9836 25.2979 23.0933 25.6667 22.1651 25.6667Z" fill="#575756"/>
</g>
<defs>
<clipPath id="clip0_2473_20527">
<rect width="28" height="28" fill="white"/>
</clipPath>
</defs>
</svg>
