<svg width="28" height="28" viewBox="0 0 28 28" fill="none" xmlns="http://www.w3.org/2000/svg">
<g clip-path="url(#clip0_2473_21812)">
<path d="M5.83333 4.66667C5.83333 4.02267 6.356 3.5 7 3.5H9.33333V1.16667C9.33333 0.522667 9.856 0 10.5 0C11.144 0 11.6667 0.522667 11.6667 1.16667V3.5H14C14.644 3.5 15.1667 4.02267 15.1667 4.66667C15.1667 5.31067 14.644 5.83333 14 5.83333H11.6667V8.16667C11.6667 8.81067 11.144 9.33333 10.5 9.33333C9.856 9.33333 9.33333 8.81067 9.33333 8.16667V5.83333H7C6.356 5.83333 5.83333 5.31067 5.83333 4.66667ZM27.1087 15.1842L19.1695 24.094C16.9575 26.5767 13.783 28 10.4592 28H4.66667C2.093 28 0 25.907 0 23.3333V17.5C0 14.9263 2.093 12.8333 4.66667 12.8333H15.001C16.3298 12.8333 17.4953 13.5438 18.1382 14.6043L21.8902 10.4813C22.5225 9.78717 23.3858 9.38 24.3238 9.33683C25.2607 9.28433 26.159 9.61683 26.8532 10.2492C28.2695 11.5407 28.3838 13.7538 27.1087 15.183V15.1842ZM25.2817 11.9747C25.0495 11.7635 24.7462 11.6632 24.4323 11.669C24.1173 11.6842 23.828 11.8195 23.6157 12.0528L18.452 17.7275C18.0028 18.977 16.8898 19.9337 15.519 20.1297L9.49783 20.9895C8.862 21.0817 8.26933 20.6383 8.17833 20.0002C8.08733 19.362 8.53067 18.7717 9.16767 18.6807L15.1888 17.8208C15.841 17.7275 16.3333 17.1605 16.3333 16.5013C16.3333 15.7663 15.736 15.169 15.001 15.169H4.66667C3.37983 15.169 2.33333 16.2155 2.33333 17.5023V23.3357C2.33333 24.6225 3.37983 25.669 4.66667 25.669H10.4592C13.118 25.669 15.659 24.5303 17.4277 22.5447L25.3668 13.6337C25.795 13.153 25.7565 12.4098 25.2817 11.9758V11.9747Z" fill="#575756"/>
</g>
<defs>
<clipPath id="clip0_2473_21812">
<rect width="28" height="28" fill="white"/>
</clipPath>
</defs>
</svg>
