<svg width="20" height="20" viewBox="0 0 20 20" fill="none" xmlns="http://www.w3.org/2000/svg">
<path d="M10 2.6375C10.3106 2.6375 10.5625 2.38562 10.5625 2.075V1.25C10.5625 0.939375 10.3106 0.6875 10 0.6875C9.68937 0.6875 9.4375 0.939375 9.4375 1.25V2.075C9.4375 2.38562 9.68937 2.6375 10 2.6375Z" fill="white"/>
<path d="M2.22344 9.28906H1.39844C1.08781 9.28906 0.835938 9.54094 0.835938 9.85156C0.835938 10.1622 1.08781 10.4141 1.39844 10.4141H2.22281C2.53344 10.4141 2.78531 10.1622 2.78531 9.85156C2.78531 9.54094 2.53406 9.28906 2.22344 9.28906Z" fill="white"/>
<path d="M18.6017 9.28906H17.7773C17.4667 9.28906 17.2148 9.54094 17.2148 9.85156C17.2148 10.1622 17.4667 10.4141 17.7773 10.4141H18.6017C18.9123 10.4141 19.1642 10.1622 19.1642 9.85156C19.1642 9.54094 18.9123 9.28906 18.6017 9.28906Z" fill="white"/>
<path d="M15.683 3.37148L15.0986 3.95461C14.8786 4.17461 14.8786 4.53023 15.0986 4.75023C15.2086 4.86023 15.3523 4.91523 15.4967 4.91523C15.6411 4.91523 15.7848 4.86023 15.8942 4.75086L16.4786 4.16773C16.6986 3.94773 16.6986 3.59211 16.4786 3.37211C16.2586 3.15211 15.9011 3.15211 15.683 3.37148Z" fill="white"/>
<path d="M4.89961 4.75031C5.11961 4.53031 5.11961 4.17469 4.89961 3.95469L4.31523 3.37156C4.09648 3.15219 3.73961 3.15219 3.52023 3.37156C3.30086 3.59094 3.30023 3.94719 3.52023 4.16719L4.10461 4.75031C4.21398 4.85969 4.35773 4.91469 4.50211 4.91469C4.64648 4.91469 4.78961 4.86031 4.89961 4.75031Z" fill="white"/>
<path d="M9.37539 4.79473C7.12539 5.05911 5.26664 6.83161 4.91101 9.06973C4.58914 11.096 5.44976 12.9447 6.90851 14.0391C7.31664 14.3454 7.57351 14.806 7.58851 15.3135H12.4116C12.4248 14.8091 12.6779 14.3485 13.0841 14.0454C14.3423 13.1054 15.1573 11.606 15.1573 9.91473C15.1573 6.86036 12.5029 4.42661 9.37539 4.79473Z" fill="white"/>
<path d="M7.59375 16.252V16.3432C7.59375 17.012 7.8625 17.612 8.3 18.0432C8.73125 18.4807 9.3375 18.7495 10 18.7495C11.3313 18.7495 12.4063 17.6745 12.4063 16.3432V16.252H7.59375Z" fill="white"/>
</svg>
