<svg width="28" height="28" viewBox="0 0 28 28" fill="none" xmlns="http://www.w3.org/2000/svg">
<g clip-path="url(#clip0_2473_21806)">
<path d="M23.3333 11.6667H23.1992C23.361 11.1338 23.3977 10.5708 23.3062 10.0215C23.2148 9.47221 22.9977 8.95143 22.672 8.49978C22.3462 8.04812 21.9206 7.6778 21.4282 7.41765C20.9358 7.15751 20.39 7.01458 19.8333 7H3.5C-2.8595 7.434 1.16667 17.0928 2.81283 19.7307C3.55106 20.849 4.55761 21.7645 5.74062 22.3938C6.92363 23.0232 8.24542 23.3461 9.58533 23.3333H13.7468C15.0651 23.3454 16.366 23.0323 17.5344 22.4219C18.7029 21.8114 19.7028 20.9223 20.4458 19.8333H23.3333C28.9497 19.7248 30.0522 11.459 23.3333 11.6667ZM13.7468 21H9.58533C8.63354 21.0128 7.69372 20.7869 6.85179 20.3428C6.00986 19.8987 5.29268 19.2506 4.76583 18.4578C4.13117 17.85 0.576333 9.33333 3.5 9.33333H19.8333C19.9938 9.33281 20.1526 9.36633 20.2993 9.43169C20.4459 9.49705 20.5769 9.59276 20.6838 9.7125C20.7976 9.83779 20.8835 9.98572 20.936 10.1466C20.9884 10.3074 21.0063 10.4776 20.9883 10.6458C20.3315 15.6147 19.096 20.7795 13.7468 21ZM23.3333 17.5H21.686C22.1656 16.3707 22.5382 15.1989 22.799 14C24.2095 13.9055 25.7693 14.252 25.6667 15.3335C25.6288 15.9246 25.3657 16.4787 24.9317 16.8817C24.4976 17.2847 23.9256 17.506 23.3333 17.5ZM10.5292 3.5V1.16667C10.5292 0.857247 10.6521 0.560501 10.8709 0.341709C11.0897 0.122916 11.3864 0 11.6958 0C12.0053 0 12.302 0.122916 12.5208 0.341709C12.7396 0.560501 12.8625 0.857247 12.8625 1.16667V3.5C12.8625 3.80942 12.7396 4.10617 12.5208 4.32496C12.302 4.54375 12.0053 4.66667 11.6958 4.66667C11.3864 4.66667 11.0897 4.54375 10.8709 4.32496C10.6521 4.10617 10.5292 3.80942 10.5292 3.5ZM15.1958 3.5V1.16667C15.1958 0.857247 15.3187 0.560501 15.5375 0.341709C15.7563 0.122916 16.0531 0 16.3625 0C16.6719 0 16.9687 0.122916 17.1875 0.341709C17.4062 0.560501 17.5292 0.857247 17.5292 1.16667V3.5C17.5292 3.80942 17.4062 4.10617 17.1875 4.32496C16.9687 4.54375 16.6719 4.66667 16.3625 4.66667C16.0531 4.66667 15.7563 4.54375 15.5375 4.32496C15.3187 4.10617 15.1958 3.80942 15.1958 3.5ZM5.8625 3.5V1.16667C5.8625 0.857247 5.98542 0.560501 6.20421 0.341709C6.423 0.122916 6.71975 0 7.02917 0C7.33859 0 7.63533 0.122916 7.85412 0.341709C8.07292 0.560501 8.19583 0.857247 8.19583 1.16667V3.5C8.19583 3.80942 8.07292 4.10617 7.85412 4.32496C7.63533 4.54375 7.33859 4.66667 7.02917 4.66667C6.71975 4.66667 6.423 4.54375 6.20421 4.32496C5.98542 4.10617 5.8625 3.80942 5.8625 3.5ZM23.3333 26.8333C23.3333 27.1428 23.2104 27.4395 22.9916 27.6583C22.7728 27.8771 22.4761 28 22.1667 28H1.16667C0.857247 28 0.560501 27.8771 0.341709 27.6583C0.122916 27.4395 0 27.1428 0 26.8333C0 26.5239 0.122916 26.2272 0.341709 26.0084C0.560501 25.7896 0.857247 25.6667 1.16667 25.6667H22.1667C22.4761 25.6667 22.7728 25.7896 22.9916 26.0084C23.2104 26.2272 23.3333 26.5239 23.3333 26.8333Z" fill="#575756"/>
</g>
<defs>
<clipPath id="clip0_2473_21806">
<rect width="28" height="28" fill="white"/>
</clipPath>
</defs>
</svg>
