<svg width="70" height="70" viewBox="0 0 70 70" fill="none" xmlns="http://www.w3.org/2000/svg">
<g clip-path="url(#clip0_1893_66832)">
<path d="M20.6176 45.0355C20.6176 43.873 19.8109 43.1797 18.3877 43.1797C17.8065 43.1797 17.4129 43.237 17.207 43.2919V47.0217C17.4508 47.0766 17.7505 47.0949 18.1635 47.0949C19.6806 47.0949 20.6176 46.3285 20.6176 45.0355Z" fill="#595CA3"/>
<path d="M29.4296 43.2188C28.7922 43.2188 28.3803 43.2738 28.1367 43.3308V51.5913C28.3805 51.6485 28.7741 51.6485 29.1299 51.6485C31.7156 51.6668 33.4019 50.2436 33.4019 47.2278C33.4202 44.6053 31.8835 43.2188 29.4296 43.2188Z" fill="#595CA3"/>
<path d="M45.7988 0H17.684C13.5766 0 10.2337 3.34523 10.2337 7.45022V34.9999H9.50606C7.84833 34.9999 6.50391 36.343 6.50391 38.0022V56.2091C6.50391 57.8681 7.84818 59.2111 9.50606 59.2111H10.2337V62.5496C10.2337 66.6591 13.5766 69.9999 17.684 69.9999H56.0454C60.1501 69.9999 63.4935 66.659 63.4935 62.5496V17.6327L45.7988 0ZM14.3798 41.2879C15.2596 41.1392 16.4963 41.0271 18.2387 41.0271C19.9995 41.0271 21.2545 41.3632 22.0978 42.0383C22.9032 42.6745 23.4468 43.7247 23.4468 44.9605C23.4468 46.196 23.0349 47.2464 22.2855 47.958C21.3107 48.8756 19.8692 49.2875 18.1828 49.2875C17.8075 49.2875 17.4711 49.2689 17.208 49.2324V53.7471H14.3798V41.2879ZM56.0454 65.4372H17.684C16.0936 65.4372 14.7985 64.1422 14.7985 62.5496V59.2111H50.5593C52.2173 59.2111 53.5616 57.8681 53.5616 56.2091V38.0022C53.5616 36.343 52.2173 34.9999 50.5593 34.9999H14.7985V7.45022C14.7985 5.86218 16.0937 4.56712 17.684 4.56712L44.0918 4.53953V14.3008C44.0918 17.152 46.4052 19.4676 49.2586 19.4676L58.8208 19.4401L58.9284 62.5495C58.9284 64.1422 57.6357 65.4372 56.0454 65.4372ZM25.2705 53.6899V41.2879C26.3195 41.1209 27.6867 41.0271 29.1296 41.0271C31.5274 41.0271 33.0824 41.4573 34.3008 42.3747C35.612 43.3495 36.4356 44.9033 36.4356 47.1341C36.4356 49.5504 35.5558 51.2186 34.3372 52.2481C33.0078 53.3533 30.984 53.8774 28.5116 53.8774C27.031 53.8774 25.9821 53.7836 25.2705 53.6899ZM45.7166 46.3472V48.6696H41.1825V53.7471H38.3165V41.1209H46.0346V43.4616H41.1825V46.3472H45.7166Z" fill="#595CA3"/>
</g>
<defs>
<clipPath id="clip0_1893_66832">
<rect width="70" height="70" fill="white"/>
</clipPath>
</defs>
</svg>
