<svg width="18" height="18" viewBox="0 0 18 18" fill="none" xmlns="http://www.w3.org/2000/svg">
<path d="M14.0625 12.375V12.9375H14.9062C15.13 12.9375 15.3446 13.0264 15.5029 13.1846C15.6611 13.3429 15.75 13.5575 15.75 13.7812C15.75 14.005 15.6611 14.2196 15.5029 14.3779C15.3446 14.5361 15.13 14.625 14.9062 14.625H14.0625V15.4688C14.0625 15.6925 13.9736 15.9071 13.8154 16.0654C13.6571 16.2236 13.4425 16.3125 13.2188 16.3125C12.995 16.3125 12.7804 16.2236 12.6221 16.0654C12.4639 15.9071 12.375 15.6925 12.375 15.4688V11.5312C12.375 11.3075 12.4639 11.0929 12.6221 10.9346C12.7804 10.7764 12.995 10.6875 13.2188 10.6875H15.4688C15.6925 10.6875 15.9071 10.7764 16.0654 10.9346C16.2236 11.0929 16.3125 11.3075 16.3125 11.5312C16.3125 11.755 16.2236 11.9696 16.0654 12.1279C15.9071 12.2861 15.6925 12.375 15.4688 12.375H14.0625ZM6.46875 12.9375C6.46875 13.5342 6.2317 14.1065 5.80974 14.5285C5.38778 14.9504 4.81549 15.1875 4.21875 15.1875H3.9375V15.4688C3.9375 15.6925 3.84861 15.9071 3.69037 16.0654C3.53214 16.2236 3.31753 16.3125 3.09375 16.3125C2.86997 16.3125 2.65536 16.2236 2.49713 16.0654C2.33889 15.9071 2.25 15.6925 2.25 15.4688V11.5312C2.25 11.3075 2.33889 11.0929 2.49713 10.9346C2.65536 10.7764 2.86997 10.6875 3.09375 10.6875H4.21875C4.81549 10.6875 5.38778 10.9246 5.80974 11.3465C6.2317 11.7685 6.46875 12.3408 6.46875 12.9375ZM4.78125 12.9375C4.78125 12.7883 4.72199 12.6452 4.6165 12.5398C4.51101 12.4343 4.36793 12.375 4.21875 12.375H3.9375V13.5H4.21875C4.36793 13.5 4.51101 13.4407 4.6165 13.3352C4.72199 13.2298 4.78125 13.0867 4.78125 12.9375ZM11.8125 13.5C11.8125 14.2459 11.5162 14.9613 10.9887 15.4887C10.4613 16.0162 9.74592 16.3125 9 16.3125H7.875C7.65122 16.3125 7.43661 16.2236 7.27838 16.0654C7.12014 15.9071 7.03125 15.6925 7.03125 15.4688V11.5312C7.03125 11.3075 7.12014 11.0929 7.27838 10.9346C7.43661 10.7764 7.65122 10.6875 7.875 10.6875H9C9.74592 10.6875 10.4613 10.9838 10.9887 11.5113C11.5162 12.0387 11.8125 12.7541 11.8125 13.5ZM10.125 13.5C10.125 13.2016 10.0065 12.9155 9.79549 12.7045C9.58452 12.4935 9.29837 12.375 9 12.375H8.71875V14.625H9C9.29837 14.625 9.58452 14.5065 9.79549 14.2955C10.0065 14.0845 10.125 13.7984 10.125 13.5ZM2.53125 8.4375V3.65625C2.53125 3.28329 2.67941 2.9256 2.94313 2.66188C3.20685 2.39816 3.56454 2.25 3.9375 2.25H10.6875C10.7984 2.25001 10.9082 2.27187 11.0106 2.31433C11.113 2.3568 11.2061 2.41904 11.2845 2.4975L15.222 6.435C15.38 6.5932 15.4687 6.80765 15.4688 7.03125V8.4375C15.4688 8.66128 15.3799 8.87589 15.2216 9.03412C15.0634 9.19236 14.8488 9.28125 14.625 9.28125C14.4012 9.28125 14.1866 9.19236 14.0284 9.03412C13.8701 8.87589 13.7812 8.66128 13.7812 8.4375V8.15625H10.4062C10.1825 8.15625 9.96786 8.06736 9.80963 7.90912C9.6514 7.75089 9.5625 7.53628 9.5625 7.3125V3.9375H4.21875V8.4375C4.21875 8.66128 4.12986 8.87589 3.97162 9.03412C3.81339 9.19236 3.59878 9.28125 3.375 9.28125C3.15122 9.28125 2.93661 9.19236 2.77838 9.03412C2.62014 8.87589 2.53125 8.66128 2.53125 8.4375ZM11.25 4.85156V6.46875H12.8672L11.25 4.85156Z" fill="white"/>
</svg>
