<svg width="28" height="28" viewBox="0 0 28 28" fill="none" xmlns="http://www.w3.org/2000/svg">
<g clip-path="url(#clip0_2473_21809)">
<path d="M28.0006 16.3333C28.0006 12.1053 21.7554 7 14.0006 7C6.24572 7 0.000550299 12.1053 0.000550299 16.3333C-0.0130204 17.0918 0.224739 17.8335 0.676767 18.4428C1.1288 19.052 1.76969 19.4946 2.49955 19.7015L3.12022 23.1887C3.36033 24.538 4.06788 25.7597 5.11875 26.6395C6.16961 27.5192 7.4967 28.0009 8.86722 28H19.1339C20.5043 28.0016 21.8313 27.5199 22.8816 26.6397C23.9319 25.7595 24.6382 24.5371 24.8762 23.1875L25.4969 19.7015C26.2276 19.4954 26.8696 19.0532 27.3225 18.4439C27.7754 17.8346 28.0138 17.0924 28.0006 16.3333ZM19.1339 25.6667H8.86722C7.87827 25.6322 6.94305 25.2082 6.26553 24.4869C5.58801 23.7657 5.22316 22.8058 5.25055 21.8167C6.14548 22.1778 7.13012 22.2538 8.06984 22.0341C9.00955 21.8144 9.85848 21.3098 10.5006 20.5893C10.9423 21.0796 11.4821 21.4717 12.0851 21.74C12.688 22.0083 13.3406 22.147 14.0006 22.147C14.6605 22.147 15.3131 22.0083 15.916 21.74C16.519 21.4717 17.0588 21.0796 17.5006 20.5893C18.1426 21.3098 18.9915 21.8144 19.9313 22.0341C20.871 22.2538 21.8556 22.1778 22.7506 21.8167C22.7786 22.806 22.4139 23.7662 21.7363 24.4876C21.0586 25.209 20.123 25.6329 19.1339 25.6667ZM24.5006 17.5C24.3387 17.5138 24.1794 17.5492 24.0269 17.605C23.8323 17.6687 23.6535 17.7733 23.5026 17.9118C23.3517 18.0502 23.2321 18.2193 23.1519 18.4077C22.9679 18.8247 22.6666 19.1792 22.2848 19.4281C21.9029 19.677 21.4569 19.8095 21.0011 19.8095C20.5453 19.8095 20.0994 19.677 19.7175 19.4281C19.3357 19.1792 19.0344 18.8247 18.8504 18.4077C18.7369 18.1439 18.5486 17.9192 18.3088 17.7614C18.069 17.6035 17.7882 17.5193 17.5011 17.5193C17.214 17.5193 16.9332 17.6035 16.6934 17.7614C16.4536 17.9192 16.2654 18.1439 16.1519 18.4077C15.9738 18.831 15.6747 19.1924 15.2921 19.4465C14.9095 19.7006 14.4604 19.8362 14.0011 19.8362C13.5418 19.8362 13.0928 19.7006 12.7102 19.4465C12.3276 19.1924 12.0285 18.831 11.8504 18.4077C11.7369 18.1439 11.5486 17.9192 11.3088 17.7614C11.069 17.6035 10.7882 17.5193 10.5011 17.5193C10.214 17.5193 9.93322 17.6035 9.69342 17.7614C9.45363 17.9192 9.26535 18.1439 9.15188 18.4077C8.96787 18.8247 8.66661 19.1792 8.28475 19.4281C7.9029 19.677 7.45693 19.8095 7.00113 19.8095C6.54534 19.8095 6.09937 19.677 5.71751 19.4281C5.33566 19.1792 5.03439 18.8247 4.85038 18.4077C4.77016 18.2187 4.65049 18.049 4.49939 17.9099C4.34829 17.7709 4.16924 17.6658 3.97422 17.6015C3.96722 17.5992 3.54722 17.5 3.50055 17.5C3.34352 17.5154 3.18503 17.4958 3.03648 17.4426C2.88793 17.3895 2.75301 17.304 2.64144 17.1924C2.52987 17.0809 2.44442 16.946 2.39124 16.7974C2.33806 16.6489 2.31847 16.4904 2.33388 16.3333C2.33388 13.5695 7.55938 9.33333 14.0006 9.33333C20.4417 9.33333 25.6672 13.5695 25.6672 16.3193C25.6842 16.4773 25.6658 16.6371 25.6134 16.7871C25.561 16.9371 25.4759 17.0736 25.3642 17.1866C25.2525 17.2997 25.117 17.3864 24.9677 17.4406C24.8183 17.4948 24.6587 17.5151 24.5006 17.5ZM12.8339 3.5V1.16667C12.8339 0.857247 12.9568 0.560501 13.1756 0.341709C13.3944 0.122916 13.6911 0 14.0006 0C14.31 0 14.6067 0.122916 14.8255 0.341709C15.0443 0.560501 15.1672 0.857247 15.1672 1.16667V3.5C15.1672 3.80942 15.0443 4.10617 14.8255 4.32496C14.6067 4.54375 14.31 4.66667 14.0006 4.66667C13.6911 4.66667 13.3944 4.54375 13.1756 4.32496C12.9568 4.10617 12.8339 3.80942 12.8339 3.5ZM17.5006 3.5V1.16667C17.5006 0.857247 17.6235 0.560501 17.8423 0.341709C18.0611 0.122916 18.3578 0 18.6672 0C18.9766 0 19.2734 0.122916 19.4922 0.341709C19.711 0.560501 19.8339 0.857247 19.8339 1.16667V3.5C19.8339 3.80942 19.711 4.10617 19.4922 4.32496C19.2734 4.54375 18.9766 4.66667 18.6672 4.66667C18.3578 4.66667 18.0611 4.54375 17.8423 4.32496C17.6235 4.10617 17.5006 3.80942 17.5006 3.5ZM8.16722 3.5V1.16667C8.16722 0.857247 8.29013 0.560501 8.50893 0.341709C8.72772 0.122916 9.02447 0 9.33389 0C9.6433 0 9.94005 0.122916 10.1588 0.341709C10.3776 0.560501 10.5006 0.857247 10.5006 1.16667V3.5C10.5006 3.80942 10.3776 4.10617 10.1588 4.32496C9.94005 4.54375 9.6433 4.66667 9.33389 4.66667C9.02447 4.66667 8.72772 4.54375 8.50893 4.32496C8.29013 4.10617 8.16722 3.80942 8.16722 3.5ZM12.8164 12.425C12.6774 13.2401 12.3793 14.0199 11.9391 14.7198C11.6528 15.006 11.2647 15.1668 10.8599 15.1668C10.4551 15.1668 10.0669 15.006 9.78072 14.7198C9.49451 14.4336 9.33371 14.0454 9.33371 13.6407C9.33371 13.2359 9.49451 12.8477 9.78072 12.5615C10.4807 12.1213 11.2604 11.8232 12.0756 11.6842C12.1778 11.6594 12.2847 11.6614 12.386 11.6898C12.4872 11.7183 12.5795 11.7723 12.6539 11.8467C12.7283 11.9211 12.7823 12.0133 12.8107 12.1146C12.8392 12.2159 12.8411 12.3228 12.8164 12.425ZM18.2204 12.5615C18.5066 12.8477 18.6674 13.2359 18.6674 13.6407C18.6674 14.0454 18.5066 14.4336 18.2204 14.7198C17.9342 15.006 17.546 15.1668 17.1412 15.1668C16.7365 15.1668 16.3483 15.006 16.0621 14.7198C15.6218 14.0199 15.3237 13.2401 15.1847 12.425C15.16 12.3228 15.1619 12.2159 15.1904 12.1146C15.2188 12.0133 15.2728 11.9211 15.3472 11.8467C15.4216 11.7723 15.5139 11.7183 15.6151 11.6898C15.7164 11.6614 15.8233 11.6594 15.9256 11.6842C16.7407 11.8232 17.5204 12.1213 18.2204 12.5615Z" fill="#575756"/>
</g>
<defs>
<clipPath id="clip0_2473_21809">
<rect width="28" height="28" fill="white"/>
</clipPath>
</defs>
</svg>
