<svg width="28" height="28" viewBox="0 0 28 28" fill="none" xmlns="http://www.w3.org/2000/svg">
<g clip-path="url(#clip0_2473_21815)">
<path d="M1.24483 17.9789L3.66567 19.7021C4.90467 20.5829 6.36883 21.0321 7.833 21.0321C8.87483 21.0321 9.91783 20.8046 10.8803 20.3438L25.9922 13.6961C27.7258 12.8678 28.4807 10.7748 27.6733 9.02942C26.8637 7.28292 24.7858 6.51876 23.0347 7.32026L19.3678 8.95592L11.6457 4.18892C10.6167 3.42359 9.254 3.28592 8.085 3.82609L7.17383 4.25309C6.461 4.58792 5.96867 5.25292 5.85667 6.03226C5.74467 6.81276 6.02933 7.58976 6.61967 8.11242L11.5243 12.4524L7.33483 14.3214L3.76833 13.0124C2.62033 12.5936 1.337 12.9646 0.5775 13.9353C0.120167 14.5198 -0.0711667 15.2559 0.0385 16.0073C0.154 16.7971 0.592667 17.5146 1.24367 17.9766L1.24483 17.9789ZM8.16667 6.36592L9.072 5.94126C9.45933 5.76159 9.91317 5.80942 10.3378 6.11742L16.7907 10.1051L13.867 11.4094L8.16667 6.36592ZM2.41617 15.3749C2.5305 15.2291 2.6775 15.1778 2.80583 15.1778C2.86417 15.1778 6.9755 16.6769 6.9755 16.6769C7.26133 16.7819 7.57633 16.7714 7.85283 16.6478L23.9913 9.44826L24.0065 9.44126C24.591 9.17176 25.2852 9.42726 25.5558 10.0094C25.8288 10.6009 25.5745 11.3091 25.0192 11.5751L9.90733 18.2228C8.32417 18.9776 6.44933 18.8178 5.01783 17.8004L2.597 16.0784C2.464 15.9839 2.37183 15.8323 2.3485 15.6724C2.331 15.5534 2.35433 15.4543 2.41617 15.3749ZM28 26.8328C28 27.4779 27.4773 27.9994 26.8333 27.9994H1.16667C0.522667 27.9994 0 27.4779 0 26.8328C0 26.1876 0.522667 25.6661 1.16667 25.6661H26.8333C27.4773 25.6661 28 26.1876 28 26.8328Z" fill="#575756"/>
</g>
<defs>
<clipPath id="clip0_2473_21815">
<rect width="28" height="28" fill="white"/>
</clipPath>
</defs>
</svg>
