<svg width="28" height="28" viewBox="0 0 28 28" fill="none" xmlns="http://www.w3.org/2000/svg">
<g clip-path="url(#clip0_2473_21818)">
<path d="M28 11.6668C28.0001 11.5816 27.9907 11.4967 27.972 11.4136L26.4553 4.5676C26.1735 3.26821 25.4536 2.10521 24.4161 1.27361C23.3787 0.44201 22.0869 -0.00762578 20.7573 9.78703e-05H7.24267C5.9139 -0.00655248 4.62319 0.443573 3.58672 1.27509C2.55025 2.1066 1.83096 3.269 1.54933 4.5676L0.0280016 11.4136C0.00934438 11.4967 -4.62699e-05 11.5816 1.59763e-06 11.6668V12.8334C-0.000939678 13.9693 0.414076 15.0662 1.16667 15.9169V22.1668C1.16852 23.7133 1.7837 25.1959 2.87726 26.2895C3.97082 27.3831 5.45347 27.9982 7 28.0001H21C22.5465 27.9982 24.0292 27.3831 25.1227 26.2895C26.2163 25.1959 26.8315 23.7133 26.8333 22.1668V15.9169C27.5859 15.0662 28.0009 13.9693 28 12.8334V11.6668ZM2.33334 11.7939L3.82667 5.07393C3.99589 4.29489 4.42752 3.5976 5.04935 3.09874C5.67118 2.59987 6.44547 2.3297 7.24267 2.33343H8.16667V5.83343C8.16667 6.14285 8.28959 6.4396 8.50838 6.65839C8.72717 6.87718 9.02392 7.0001 9.33333 7.0001C9.64275 7.0001 9.9395 6.87718 10.1583 6.65839C10.3771 6.4396 10.5 6.14285 10.5 5.83343V2.33343H17.5V5.83343C17.5 6.14285 17.6229 6.4396 17.8417 6.65839C18.0605 6.87718 18.3573 7.0001 18.6667 7.0001C18.9761 7.0001 19.2728 6.87718 19.4916 6.65839C19.7104 6.4396 19.8333 6.14285 19.8333 5.83343V2.33343H20.7573C21.5545 2.3297 22.3288 2.59987 22.9507 3.09874C23.5725 3.5976 24.0041 4.29489 24.1733 5.07393L25.6667 11.7939V12.8334C25.6667 13.4523 25.4208 14.0458 24.9833 14.4833C24.5457 14.9209 23.9522 15.1668 23.3333 15.1668H22.1667C21.5478 15.1668 20.9543 14.9209 20.5168 14.4833C20.0792 14.0458 19.8333 13.4523 19.8333 12.8334C19.8333 12.524 19.7104 12.2273 19.4916 12.0085C19.2728 11.7897 18.9761 11.6668 18.6667 11.6668C18.3573 11.6668 18.0605 11.7897 17.8417 12.0085C17.6229 12.2273 17.5 12.524 17.5 12.8334C17.5 13.4523 17.2542 14.0458 16.8166 14.4833C16.379 14.9209 15.7855 15.1668 15.1667 15.1668H12.8333C12.2145 15.1668 11.621 14.9209 11.1834 14.4833C10.7458 14.0458 10.5 13.4523 10.5 12.8334C10.5 12.524 10.3771 12.2273 10.1583 12.0085C9.9395 11.7897 9.64275 11.6668 9.33333 11.6668C9.02392 11.6668 8.72717 11.7897 8.50838 12.0085C8.28959 12.2273 8.16667 12.524 8.16667 12.8334C8.16667 13.4523 7.92084 14.0458 7.48325 14.4833C7.04567 14.9209 6.45217 15.1668 5.83334 15.1668H4.66667C4.04783 15.1668 3.45434 14.9209 3.01675 14.4833C2.57917 14.0458 2.33334 13.4523 2.33334 12.8334V11.7939ZM21 25.6668H7C6.07174 25.6668 5.18151 25.298 4.52513 24.6416C3.86875 23.9853 3.5 23.095 3.5 22.1668V17.3519C3.88103 17.4506 4.27307 17.5004 4.66667 17.5001H5.83334C6.49579 17.5004 7.15068 17.3594 7.75426 17.0864C8.35783 16.8134 8.89618 16.4147 9.33333 15.9169C9.77049 16.4147 10.3088 16.8134 10.9124 17.0864C11.516 17.3594 12.1709 17.5004 12.8333 17.5001H15.1667C15.8291 17.5004 16.484 17.3594 17.0876 17.0864C17.6912 16.8134 18.2295 16.4147 18.6667 15.9169C19.1038 16.4147 19.6422 16.8134 20.2457 17.0864C20.8493 17.3594 21.5042 17.5004 22.1667 17.5001H23.3333C23.7269 17.5004 24.119 17.4506 24.5 17.3519V22.1668C24.5 23.095 24.1313 23.9853 23.4749 24.6416C22.8185 25.298 21.9283 25.6668 21 25.6668Z" fill="#575756"/>
</g>
<defs>
<clipPath id="clip0_2473_21818">
<rect width="28" height="28" fill="white"/>
</clipPath>
</defs>
</svg>
