<svg width="28" height="28" viewBox="0 0 28 28" fill="none" xmlns="http://www.w3.org/2000/svg">
<g clip-path="url(#clip0_2473_19450)">
<path d="M25.6667 10.7147V9.33333C25.6667 4.18717 21.4795 0 16.3333 0H11.6667C6.5205 0 2.33333 4.18717 2.33333 9.33333V10.7147C0.978833 11.1977 0 12.481 0 14V20.4167C0 22.2332 0.9275 23.835 2.33333 24.7777V26.8333C2.33333 27.4773 2.856 28 3.5 28C4.144 28 4.66667 27.4773 4.66667 26.8333V25.6072C4.86033 25.6293 5.0505 25.6667 5.25 25.6667H22.75C22.9495 25.6667 23.1397 25.6293 23.3333 25.6072V26.8333C23.3333 27.4773 23.856 28 24.5 28C25.144 28 25.6667 27.4773 25.6667 26.8333V24.7777C27.0725 23.835 28 22.232 28 20.4167V14C28 12.481 27.0212 11.1977 25.6667 10.7147ZM11.6667 2.33333H16.3333C20.1938 2.33333 23.3333 5.47283 23.3333 9.33333V10.7147C21.9788 11.1977 21 12.481 21 14V16.3333H7V14C7 12.481 6.02117 11.1977 4.66667 10.7147V9.33333C4.66667 5.47283 7.80617 2.33333 11.6667 2.33333ZM4.66667 23.275C3.33667 23.0043 2.33333 21.826 2.33333 20.4167V14C2.33333 13.3572 2.85717 12.8333 3.5 12.8333C4.14283 12.8333 4.66667 13.3572 4.66667 14V23.275ZM7 23.3333V18.6667H21V23.3333H7ZM25.6667 20.4167C25.6667 21.826 24.6633 23.0032 23.3333 23.275V14C23.3333 13.3572 23.8572 12.8333 24.5 12.8333C25.1428 12.8333 25.6667 13.3572 25.6667 14V20.4167Z" fill="#575756"/>
</g>
<defs>
<clipPath id="clip0_2473_19450">
<rect width="28" height="28" fill="white"/>
</clipPath>
</defs>
</svg>
